  0
SECTION
  2
HEADER
  9
$ACADVER
  1
AC1003
  9
$INSBASE
 10
0.0
 20
0.0
  9
$EXTMIN
 10
-45
 20
-25
  9
$EXTMAX
 10
45
 20
25
  9
$LIMMIN
 10
0.0
 20
0.0
  9
$LIMMAX
 10
300.0
 20
225.0
  9
$VIEWCTR
 10
7.378144
 20
4.5
  9
$VIEWSIZE
 40
9.0
  9
$SNAPMODE
 70
     0
  9
$SNAPUNIT
 10
1.0
 20
1.0
  9
$SNAPBASE
 10
0.0
 20
0.0
  9
$SNAPANG
 50
0.0
  9
$SNAPSTYLE
 70
     0
  9
$SNAPISOPAIR
 70
     0
  9
$GRIDMODE
 70
     0
  9
$GRIDUNIT
 10
0.0
 20
0.0
  9
$ORTHOMODE
 70
     0
  9
$REGENMODE
 70
     1
  9
$FILLMODE
 70
     1
  9
$QTEXTMODE
 70
     0
  9
$DRAGMODE
 70
     2
  9
$LTSCALE
 40
1.0
  9
$OSMODE
 70
     0
  9
$ATTMODE
 70
     1
  9
$TEXTSIZE
 40
0.2
  9
$TRACEWID
 40
0.05
  9
$TEXTSTYLE
  7
STANDARD
  9
$CLAYER
  8
0
  9
$CELTYPE
  6
BYLAYER
  9
$CECOLOR
 62
   256
  9
$DIMSCALE
 40
1.0
  9
$DIMASZ
 40
0.18
  9
$DIMEXO
 40
0.0625
  9
$DIMDLI
 40
0.38
  9
$DIMRND
 40
0.0
  9
$DIMDLE
 40
0.0
  9
$DIMEXE
 40
0.18
  9
$DIMTP
 40
0.0
  9
$DIMTM
 40
0.0
  9
$DIMTXT
 40
0.18
  9
$DIMCEN
 40
0.09
  9
$DIMTSZ
 40
0.0
  9
$DIMTOL
 70
     0
  9
$DIMLIM
 70
     0
  9
$DIMTIH
 70
     1
  9
$DIMTOH
 70
     1
  9
$DIMSE1
 70
     0
  9
$DIMSE2
 70
     0
  9
$DIMTAD
 70
     0
  9
$DIMZIN
 70
     0
  9
$DIMBLK
  1

  9
$DIMASO
 70
     1
  9
$DIMSHO
 70
     0
  9
$DIMPOST
  1

  9
$DIMAPOST
  1

  9
$DIMALT
 70
     0
  9
$DIMALTD
 70
     2
  9
$DIMALTF
 40
25.4
  9
$DIMLFAC
 40
1.0
  9
$LUNITS
 70
     2
  9
$LUPREC
 70
     4
  9
$AXISMODE
 70
     0
  9
$AXISUNIT
 10
0.0
 20
0.0
  9
$SKETCHINC
 40
0.1
  9
$FILLETRAD
 40
0.0
  9
$AUNITS
 70
     0
  9
$AUPREC
 70
     0
  9
$MENU
  1
ACAD
  9
$ELEVATION
 40
0.0
  9
$THICKNESS
 40
0.0
  9
$VIEWDIR
 10
0.0
 20
0.0
 30
1.0
  9
$LIMCHECK
 70
     0
  9
$BLIPMODE
 70
     1
  9
$CHAMFERA
 40
0.0
  9
$CHAMFERB
 40
0.0
  9
$FASTZOOM
 70
     1
  9
$SKPOLY
 70
     0
  9
$TDCREATE
 40
2447732.6512363921
  9
$TDUPDATE
 40
2447732.6512363921
  9
$TDINDWG
 40
0.0000000000
  9
$TDUSRTIMER
 40
0.0000000000
  9
$USRTIMER
 70
     1
  9
$ANGBASE
 50
0.0
  9
$ANGDIR
 70
     0
  9
$PDMODE
 70
     0
  9
$PDSIZE
 40
0.0
  9
$PLINEWID
 40
0.0
  9
$COORDS
 70
     0
  9
$USERI1
 70
     0
  9
$USERI2
 70
     0
  9
$USERI3
 70
     0
  9
$USERI4
 70
     0
  9
$USERI5
 70
     0
  9
$USERR1
 40
0.0
  9
$USERR2
 40
0.0
  9
$USERR3
 40
0.0
  9
$USERR4
 40
0.0
  9
$USERR5
 40
0.0
  0
ENDSEC
  0
SECTION
  2
TABLES
  0
TABLE
  2
LTYPE
  70
     2
  0
LTYPE
  2
CONTINUOUS
 70
    64
  3
Solid line
 72
    65
 73
     0
 40
0.0
  0
ENDTAB
  0
TABLE
  2
LAYER
 70
     9
  0
LAYER
  2
0
 70
     0
 62
     7
  6
CONTINUOUS
  0
LAYER
  2
1
 70
     0
 62
     1
  6
CONTINUOUS
  0
LAYER
  2
2
 70
     0
 62
     2
  6
CONTINUOUS
  0
LAYER
  2
3
 70
     0
 62
     3
  6
CONTINUOUS
  0
LAYER
  2
4
 70
     0
 62
     4
  6
CONTINUOUS
  0
LAYER
  2
5
 70
     0
 62
     5
  6
CONTINUOUS
  0
LAYER
  2
6
 70
     0
 62
     6
  6
CONTINUOUS
  0
LAYER
  2
7
 70
     0
 62
     7
  6
CONTINUOUS
  0
LAYER
  2
8
 70
     0
 62
     7
  6
CONTINUOUS
  0
ENDTAB
  0
TABLE
  2
STYLE
 70
     5
  0
STYLE
  2
STANDARD
 70
     0
 40
0.0
 41
1.0
 50
0.0
 71
     0
 42
0.2
  3
TXT
  4

  0
STYLE
  2
GREEK
 70
     0
 40
0.0
 41
1.0
 50
0.0
 71
     0
 42
0.2
  3
GREEKC
  4

  0
STYLE
  2
ITALICC
 70
     0
 40
0.0
 41
1.0
 50
0.0
 71
     0
 42
0.2
  3
ITALICC
  4

  0
STYLE
  2
MONOTXT
 70
     0
 40
0.0
 41
1.0
 50
0.0
 71
     0
 42
0.2
  3
MONOTXT
  4

  0
STYLE
  2
GOTHICE
 70
     0
 40
0.0
 41
1.0
 50
0.0
 71
     0
 42
0.2
  3
GOTHICE
  4

  0
ENDTAB
  0
TABLE
  2
VIEW
 70
     0
  0
ENDTAB
  0
ENDSEC
  0
SECTION
  2
BLOCKS
  0
ENDSEC
  0
SECTION
  2
ENTITIES
  0
POLYLINE
  8
7
  6
CONTINUOUS
 66
  1
  0
VERTEX
  8
7
  10
-22.691
  20
-8.741
  0
VERTEX
  8
7
  10
-23.300
  20
-8.131
  0
VERTEX
  8
7
  10
-20.988
  20
-5.793
  0
VERTEX
  8
7
  10
-20.988
  20
4.446
  0
VERTEX
  8
7
  10
-21.014
  20
4.878
  0
VERTEX
  8
7
  10
-21.090
  20
5.259
  0
VERTEX
  8
7
  10
-21.217
  20
5.641
  0
VERTEX
  8
7
  10
-21.344
  20
5.971
  0
VERTEX
  8
7
  10
-21.547
  20
6.276
  0
VERTEX
  8
7
  10
-21.750
  20
6.555
  0
VERTEX
  8
7
  10
-22.005
  20
6.809
  0
VERTEX
  8
7
  10
-22.309
  20
7.013
  0
VERTEX
  8
7
  10
-23.631
  20
5.691
  0
VERTEX
  8
7
  10
-24.190
  20
6.276
  0
VERTEX
  8
7
  10
-20.505
  20
10.011
  0
VERTEX
  8
7
  10
-20.277
  20
9.859
  0
VERTEX
  8
7
  10
-20.048
  20
9.681
  0
VERTEX
  8
7
  10
-19.845
  20
9.503
  0
VERTEX
  8
7
  10
-19.641
  20
9.274
  0
VERTEX
  8
7
  10
-19.464
  20
9.045
  0
VERTEX
  8
7
  10
-19.311
  20
8.791
  0
VERTEX
  8
7
  10
-19.159
  20
8.537
  0
VERTEX
  8
7
  10
-19.032
  20
8.232
  0
VERTEX
  8
7
  10
-18.803
  20
7.597
  0
VERTEX
  8
7
  10
-18.650
  20
6.936
  0
VERTEX
  8
7
  10
-18.549
  20
6.174
  0
VERTEX
  8
7
  10
-18.523
  20
5.386
  0
VERTEX
  8
7
  10
-18.523
  20
-5.971
  0
VERTEX
  8
7
  10
-17.507
  20
-7.089
  0
VERTEX
  8
7
  10
-16.211
  20
-5.793
  0
VERTEX
  8
7
  10
-15.627
  20
-6.403
  0
VERTEX
  8
7
  10
-19.209
  20
-9.986
  0
VERTEX
  8
7
  10
-21.522
  20
-7.597
  0
VERTEX
  8
7
  10
-22.691
  20
-8.741
  0
SEQEND
  0
POLYLINE
  8
7
  6
CONTINUOUS
 66
  1
  0
VERTEX
  8
7
  10
-1.143
  20
8.868
  0
VERTEX
  8
7
  10
-0.584
  20
8.232
  0
VERTEX
  8
7
  10
-2.032
  20
6.860
  0
VERTEX
  8
7
  10
-2.032
  20
-5.895
  0
VERTEX
  8
7
  10
-1.880
  20
-5.869
  0
VERTEX
  8
7
  10
-1.727
  20
-5.869
  0
VERTEX
  8
7
  10
-1.575
  20
-5.844
  0
VERTEX
  8
7
  10
-1.397
  20
-5.818
  0
VERTEX
  8
7
  10
-1.245
  20
-5.818
  0
VERTEX
  8
7
  10
-1.092
  20
-5.793
  0
VERTEX
  8
7
  10
-0.940
  20
-5.793
  0
VERTEX
  8
7
  10
-0.787
  20
-5.793
  0
VERTEX
  8
7
  10
-0.787
  20
-6.632
  0
VERTEX
  8
7
  10
-1.321
  20
-6.682
  0
VERTEX
  8
7
  10
-1.829
  20
-6.759
  0
VERTEX
  8
7
  10
-2.337
  20
-6.860
  0
VERTEX
  8
7
  10
-2.820
  20
-6.962
  0
VERTEX
  8
7
  10
-3.277
  20
-7.114
  0
VERTEX
  8
7
  10
-3.735
  20
-7.267
  0
VERTEX
  8
7
  10
-4.167
  20
-7.445
  0
VERTEX
  8
7
  10
-4.573
  20
-7.648
  0
VERTEX
  8
7
  10
-4.980
  20
-7.877
  0
VERTEX
  8
7
  10
-5.361
  20
-8.105
  0
VERTEX
  8
7
  10
-5.717
  20
-8.385
  0
VERTEX
  8
7
  10
-6.072
  20
-8.664
  0
VERTEX
  8
7
  10
-6.403
  20
-8.969
  0
VERTEX
  8
7
  10
-6.733
  20
-9.274
  0
VERTEX
  8
7
  10
-7.038
  20
-9.630
  0
VERTEX
  8
7
  10
-7.318
  20
-9.986
  0
VERTEX
  8
7
  10
-7.572
  20
-9.706
  0
VERTEX
  8
7
  10
-7.851
  20
-9.376
  0
VERTEX
  8
7
  10
-8.131
  20
-9.071
  0
VERTEX
  8
7
  10
-8.359
  20
-8.817
  0
VERTEX
  8
7
  10
-8.563
  20
-8.588
  0
VERTEX
  8
7
  10
-8.766
  20
-8.385
  0
VERTEX
  8
7
  10
-8.944
  20
-8.207
  0
VERTEX
  8
7
  10
-9.071
  20
-8.080
  0
VERTEX
  8
7
  10
-9.198
  20
-7.978
  0
VERTEX
  8
7
  10
-9.300
  20
-7.902
  0
VERTEX
  8
7
  10
-9.427
  20
-7.851
  0
VERTEX
  8
7
  10
-9.528
  20
-7.800
  0
VERTEX
  8
7
  10
-9.655
  20
-7.750
  0
VERTEX
  8
7
  10
-9.782
  20
-7.724
  0
VERTEX
  8
7
  10
-9.909
  20
-7.699
  0
VERTEX
  8
7
  10
-10.036
  20
-7.673
  0
VERTEX
  8
7
  10
-10.163
  20
-7.673
  0
VERTEX
  8
7
  10
-10.291
  20
-7.673
  0
VERTEX
  8
7
  10
-10.418
  20
-7.699
  0
VERTEX
  8
7
  10
-10.545
  20
-7.724
  0
VERTEX
  8
7
  10
-10.646
  20
-7.775
  0
VERTEX
  8
7
  10
-10.697
  20
-7.800
  0
VERTEX
  8
7
  10
-10.799
  20
-7.851
  0
VERTEX
  8
7
  10
-10.900
  20
-7.902
  0
VERTEX
  8
7
  10
-11.027
  20
-8.004
  0
VERTEX
  8
7
  10
-11.154
  20
-8.080
  0
VERTEX
  8
7
  10
-11.332
  20
-8.207
  0
VERTEX
  8
7
  10
-11.510
  20
-8.334
  0
VERTEX
  8
7
  10
-11.714
  20
-8.461
  0
VERTEX
  8
7
  10
-12.222
  20
-7.750
  0
VERTEX
  8
7
  10
-12.171
  20
-7.699
  0
VERTEX
  8
7
  10
-12.095
  20
-7.648
  0
VERTEX
  8
7
  10
-12.044
  20
-7.622
  0
VERTEX
  8
7
  10
-11.993
  20
-7.572
  0
VERTEX
  8
7
  10
-11.561
  20
-7.267
  0
VERTEX
  8
7
  10
-11.180
  20
-6.987
  0
VERTEX
  8
7
  10
-10.824
  20
-6.733
  0
VERTEX
  8
7
  10
-10.519
  20
-6.530
  0
VERTEX
  8
7
  10
-10.265
  20
-6.352
  0
VERTEX
  8
7
  10
-10.036
  20
-6.200
  0
VERTEX
  8
7
  10
-9.833
  20
-6.072
  0
VERTEX
  8
7
  10
-9.681
  20
-5.996
  0
VERTEX
  8
7
  10
-9.554
  20
-5.945
  0
VERTEX
  8
7
  10
-9.401
  20
-5.895
  0
VERTEX
  8
7
  10
-9.249
  20
-5.844
  0
VERTEX
  8
7
  10
-9.096
  20
-5.818
  0
VERTEX
  8
7
  10
-8.918
  20
-5.793
  0
VERTEX
  8
7
  10
-8.741
  20
-5.768
  0
VERTEX
  8
7
  10
-8.563
  20
-5.742
  0
VERTEX
  8
7
  10
-8.385
  20
-5.742
  0
VERTEX
  8
7
  10
-8.004
  20
-5.768
  0
VERTEX
  8
7
  10
-7.622
  20
-5.818
  0
VERTEX
  8
7
  10
-7.267
  20
-5.945
  0
VERTEX
  8
7
  10
-6.911
  20
-6.098
  0
VERTEX
  8
7
  10
-6.555
  20
-6.276
  0
VERTEX
  8
7
  10
-6.200
  20
-6.530
  0
VERTEX
  8
7
  10
-5.844
  20
-6.809
  0
VERTEX
  8
7
  10
-5.513
  20
-7.140
  0
VERTEX
  8
7
  10
-5.386
  20
-7.063
  0
VERTEX
  8
7
  10
-5.285
  20
-6.962
  0
VERTEX
  8
7
  10
-5.158
  20
-6.886
  0
VERTEX
  8
7
  10
-5.031
  20
-6.809
  0
VERTEX
  8
7
  10
-4.904
  20
-6.733
  0
VERTEX
  8
7
  10
-4.777
  20
-6.657
  0
VERTEX
  8
7
  10
-4.650
  20
-6.606
  0
VERTEX
  8
7
  10
-4.522
  20
-6.530
  0
VERTEX
  8
7
  10
-4.522
  20
0.533
  0
VERTEX
  8
7
  10
-8.486
  20
-3.100
  0
VERTEX
  8
7
  10
-11.307
  20
-0.914
  0
VERTEX
  8
7
  10
-12.450
  20
-2.007
  0
VERTEX
  8
7
  10
-12.984
  20
-1.397
  0
VERTEX
  8
7
  10
-11.409
  20
0.177
  0
VERTEX
  8
7
  10
-11.409
  20
6.682
  0
VERTEX
  8
7
  10
-11.510
  20
6.682
  0
VERTEX
  8
7
  10
-11.612
  20
6.682
  0
VERTEX
  8
7
  10
-11.714
  20
6.682
  0
VERTEX
  8
7
  10
-11.815
  20
6.708
  0
VERTEX
  8
7
  10
-11.917
  20
6.708
  0
VERTEX
  8
7
  10
-12.018
  20
6.708
  0
VERTEX
  8
7
  10
-12.120
  20
6.733
  0
VERTEX
  8
7
  10
-12.222
  20
6.733
  0
VERTEX
  8
7
  10
-12.222
  20
7.572
  0
VERTEX
  8
7
  10
-12.044
  20
7.572
  0
VERTEX
  8
7
  10
-11.891
  20
7.546
  0
VERTEX
  8
7
  10
-11.714
  20
7.546
  0
VERTEX
  8
7
  10
-11.586
  20
7.521
  0
VERTEX
  8
7
  10
-11.459
  20
7.521
  0
VERTEX
  8
7
  10
-11.332
  20
7.495
  0
VERTEX
  8
7
  10
-11.231
  20
7.495
  0
VERTEX
  8
7
  10
-11.154
  20
7.495
  0
VERTEX
  8
7
  10
-10.672
  20
7.495
  0
VERTEX
  8
7
  10
-10.189
  20
7.546
  0
VERTEX
  8
7
  10
-9.706
  20
7.597
  0
VERTEX
  8
7
  10
-9.249
  20
7.648
  0
VERTEX
  8
7
  10
-8.817
  20
7.750
  0
VERTEX
  8
7
  10
-8.385
  20
7.851
  0
VERTEX
  8
7
  10
-7.953
  20
7.978
  0
VERTEX
  8
7
  10
-7.546
  20
8.131
  0
VERTEX
  8
7
  10
-7.165
  20
8.309
  0
VERTEX
  8
7
  10
-6.784
  20
8.486
  0
VERTEX
  8
7
  10
-6.428
  20
8.690
  0
VERTEX
  8
7
  10
-6.072
  20
8.918
  0
VERTEX
  8
7
  10
-5.742
  20
9.173
  0
VERTEX
  8
7
  10
-5.412
  20
9.427
  0
VERTEX
  8
7
  10
-5.107
  20
9.706
  0
VERTEX
  8
7
  10
-4.802
  20
10.011
  0
VERTEX
  8
7
  10
-2.109
  20
7.978
  0
VERTEX
  8
7
  10
-1.143
  20
8.868
  0
SEQEND
  0
POLYLINE
  8
7
  6
CONTINUOUS
 66
  1
  0
VERTEX
  8
7
  10
-4.522
  20
6.428
  0
VERTEX
  8
7
  10
-6.377
  20
7.775
  0
VERTEX
  8
7
  10
-6.657
  20
7.597
  0
VERTEX
  8
7
  10
-6.962
  20
7.445
  0
VERTEX
  8
7
  10
-7.267
  20
7.292
  0
VERTEX
  8
7
  10
-7.597
  20
7.165
  0
VERTEX
  8
7
  10
-7.902
  20
7.063
  0
VERTEX
  8
7
  10
-8.232
  20
6.987
  0
VERTEX
  8
7
  10
-8.588
  20
6.936
  0
VERTEX
  8
7
  10
-8.918
  20
6.886
  0
VERTEX
  8
7
  10
-8.918
  20
0.686
  0
VERTEX
  8
7
  10
-7.114
  20
-0.711
  0
VERTEX
  8
7
  10
-4.522
  20
1.702
  0
VERTEX
  8
7
  10
-4.522
  20
6.428
  0
SEQEND
  0
POLYLINE
  8
7
  6
CONTINUOUS
 66
  1
  0
VERTEX
  8
7
  10
12.959
  20
8.868
  0
VERTEX
  8
7
  10
13.518
  20
8.232
  0
VERTEX
  8
7
  10
12.069
  20
6.860
  0
VERTEX
  8
7
  10
12.069
  20
-5.895
  0
VERTEX
  8
7
  10
12.222
  20
-5.869
  0
VERTEX
  8
7
  10
12.374
  20
-5.869
  0
VERTEX
  8
7
  10
12.527
  20
-5.844
  0
VERTEX
  8
7
  10
12.705
  20
-5.818
  0
VERTEX
  8
7
  10
12.857
  20
-5.818
  0
VERTEX
  8
7
  10
13.009
  20
-5.793
  0
VERTEX
  8
7
  10
13.162
  20
-5.793
  0
VERTEX
  8
7
  10
13.314
  20
-5.793
  0
VERTEX
  8
7
  10
13.314
  20
-6.632
  0
VERTEX
  8
7
  10
12.781
  20
-6.682
  0
VERTEX
  8
7
  10
12.273
  20
-6.759
  0
VERTEX
  8
7
  10
11.764
  20
-6.860
  0
VERTEX
  8
7
  10
11.282
  20
-6.962
  0
VERTEX
  8
7
  10
10.824
  20
-7.114
  0
VERTEX
  8
7
  10
10.367
  20
-7.267
  0
VERTEX
  8
7
  10
9.935
  20
-7.445
  0
VERTEX
  8
7
  10
9.528
  20
-7.648
  0
VERTEX
  8
7
  10
9.122
  20
-7.877
  0
VERTEX
  8
7
  10
8.741
  20
-8.105
  0
VERTEX
  8
7
  10
8.385
  20
-8.385
  0
VERTEX
  8
7
  10
8.029
  20
-8.664
  0
VERTEX
  8
7
  10
7.699
  20
-8.969
  0
VERTEX
  8
7
  10
7.368
  20
-9.274
  0
VERTEX
  8
7
  10
7.063
  20
-9.630
  0
VERTEX
  8
7
  10
6.784
  20
-9.986
  0
VERTEX
  8
7
  10
6.530
  20
-9.706
  0
VERTEX
  8
7
  10
6.250
  20
-9.376
  0
VERTEX
  8
7
  10
5.971
  20
-9.071
  0
VERTEX
  8
7
  10
5.742
  20
-8.817
  0
VERTEX
  8
7
  10
5.539
  20
-8.588
  0
VERTEX
  8
7
  10
5.336
  20
-8.385
  0
VERTEX
  8
7
  10
5.158
  20
-8.207
  0
VERTEX
  8
7
  10
5.031
  20
-8.080
  0
VERTEX
  8
7
  10
4.904
  20
-7.978
  0
VERTEX
  8
7
  10
4.802
  20
-7.902
  0
VERTEX
  8
7
  10
4.675
  20
-7.851
  0
VERTEX
  8
7
  10
4.573
  20
-7.800
  0
VERTEX
  8
7
  10
4.446
  20
-7.750
  0
VERTEX
  8
7
  10
4.319
  20
-7.724
  0
VERTEX
  8
7
  10
4.192
  20
-7.699
  0
VERTEX
  8
7
  10
4.065
  20
-7.673
  0
VERTEX
  8
7
  10
3.938
  20
-7.673
  0
VERTEX
  8
7
  10
3.811
  20
-7.673
  0
VERTEX
  8
7
  10
3.684
  20
-7.699
  0
VERTEX
  8
7
  10
3.557
  20
-7.724
  0
VERTEX
  8
7
  10
3.455
  20
-7.775
  0
VERTEX
  8
7
  10
3.404
  20
-7.800
  0
VERTEX
  8
7
  10
3.303
  20
-7.851
  0
VERTEX
  8
7
  10
3.201
  20
-7.902
  0
VERTEX
  8
7
  10
3.074
  20
-8.004
  0
VERTEX
  8
7
  10
2.947
  20
-8.080
  0
VERTEX
  8
7
  10
2.769
  20
-8.207
  0
VERTEX
  8
7
  10
2.591
  20
-8.334
  0
VERTEX
  8
7
  10
2.388
  20
-8.461
  0
VERTEX
  8
7
  10
1.880
  20
-7.750
  0
VERTEX
  8
7
  10
1.931
  20
-7.699
  0
VERTEX
  8
7
  10
2.007
  20
-7.648
  0
VERTEX
  8
7
  10
2.058
  20
-7.622
  0
VERTEX
  8
7
  10
2.109
  20
-7.572
  0
VERTEX
  8
7
  10
2.541
  20
-7.267
  0
VERTEX
  8
7
  10
2.922
  20
-6.987
  0
VERTEX
  8
7
  10
3.277
  20
-6.733
  0
VERTEX
  8
7
  10
3.582
  20
-6.530
  0
VERTEX
  8
7
  10
3.836
  20
-6.352
  0
VERTEX
  8
7
  10
4.065
  20
-6.200
  0
VERTEX
  8
7
  10
4.268
  20
-6.072
  0
VERTEX
  8
7
  10
4.421
  20
-5.996
  0
VERTEX
  8
7
  10
4.548
  20
-5.945
  0
VERTEX
  8
7
  10
4.700
  20
-5.895
  0
VERTEX
  8
7
  10
4.853
  20
-5.844
  0
VERTEX
  8
7
  10
5.005
  20
-5.818
  0
VERTEX
  8
7
  10
5.183
  20
-5.793
  0
VERTEX
  8
7
  10
5.361
  20
-5.768
  0
VERTEX
  8
7
  10
5.539
  20
-5.742
  0
VERTEX
  8
7
  10
5.717
  20
-5.742
  0
VERTEX
  8
7
  10
6.098
  20
-5.768
  0
VERTEX
  8
7
  10
6.479
  20
-5.818
  0
VERTEX
  8
7
  10
6.835
  20
-5.945
  0
VERTEX
  8
7
  10
7.191
  20
-6.098
  0
VERTEX
  8
7
  10
7.546
  20
-6.276
  0
VERTEX
  8
7
  10
7.902
  20
-6.530
  0
VERTEX
  8
7
  10
8.258
  20
-6.809
  0
VERTEX
  8
7
  10
8.588
  20
-7.140
  0
VERTEX
  8
7
  10
8.715
  20
-7.063
  0
VERTEX
  8
7
  10
8.817
  20
-6.962
  0
VERTEX
  8
7
  10
8.944
  20
-6.886
  0
VERTEX
  8
7
  10
9.071
  20
-6.809
  0
VERTEX
  8
7
  10
9.198
  20
-6.733
  0
VERTEX
  8
7
  10
9.325
  20
-6.657
  0
VERTEX
  8
7
  10
9.452
  20
-6.606
  0
VERTEX
  8
7
  10
9.579
  20
-6.530
  0
VERTEX
  8
7
  10
9.579
  20
0.533
  0
VERTEX
  8
7
  10
5.615
  20
-3.100
  0
VERTEX
  8
7
  10
2.795
  20
-0.914
  0
VERTEX
  8
7
  10
1.651
  20
-2.007
  0
VERTEX
  8
7
  10
1.118
  20
-1.397
  0
VERTEX
  8
7
  10
2.693
  20
0.177
  0
VERTEX
  8
7
  10
2.693
  20
6.682
  0
VERTEX
  8
7
  10
2.591
  20
6.682
  0
VERTEX
  8
7
  10
2.490
  20
6.682
  0
VERTEX
  8
7
  10
2.388
  20
6.682
  0
VERTEX
  8
7
  10
2.286
  20
6.708
  0
VERTEX
  8
7
  10
2.185
  20
6.708
  0
VERTEX
  8
7
  10
2.083
  20
6.708
  0
VERTEX
  8
7
  10
1.981
  20
6.733
  0
VERTEX
  8
7
  10
1.880
  20
6.733
  0
VERTEX
  8
7
  10
1.880
  20
7.572
  0
VERTEX
  8
7
  10
2.058
  20
7.572
  0
VERTEX
  8
7
  10
2.210
  20
7.546
  0
VERTEX
  8
7
  10
2.388
  20
7.546
  0
VERTEX
  8
7
  10
2.515
  20
7.521
  0
VERTEX
  8
7
  10
2.642
  20
7.521
  0
VERTEX
  8
7
  10
2.769
  20
7.495
  0
VERTEX
  8
7
  10
2.871
  20
7.495
  0
VERTEX
  8
7
  10
2.947
  20
7.495
  0
VERTEX
  8
7
  10
3.430
  20
7.495
  0
VERTEX
  8
7
  10
3.913
  20
7.546
  0
VERTEX
  8
7
  10
4.395
  20
7.597
  0
VERTEX
  8
7
  10
4.853
  20
7.648
  0
VERTEX
  8
7
  10
5.285
  20
7.750
  0
VERTEX
  8
7
  10
5.717
  20
7.851
  0
VERTEX
  8
7
  10
6.149
  20
7.978
  0
VERTEX
  8
7
  10
6.555
  20
8.131
  0
VERTEX
  8
7
  10
6.936
  20
8.309
  0
VERTEX
  8
7
  10
7.318
  20
8.486
  0
VERTEX
  8
7
  10
7.673
  20
8.690
  0
VERTEX
  8
7
  10
8.029
  20
8.918
  0
VERTEX
  8
7
  10
8.359
  20
9.173
  0
VERTEX
  8
7
  10
8.690
  20
9.427
  0
VERTEX
  8
7
  10
8.995
  20
9.706
  0
VERTEX
  8
7
  10
9.300
  20
10.011
  0
VERTEX
  8
7
  10
11.993
  20
7.978
  0
VERTEX
  8
7
  10
12.959
  20
8.868
  0
SEQEND
  0
POLYLINE
  8
7
  6
CONTINUOUS
 66
  1
  0
VERTEX
  8
7
  10
9.579
  20
6.428
  0
VERTEX
  8
7
  10
7.724
  20
7.775
  0
VERTEX
  8
7
  10
7.445
  20
7.597
  0
VERTEX
  8
7
  10
7.140
  20
7.445
  0
VERTEX
  8
7
  10
6.835
  20
7.292
  0
VERTEX
  8
7
  10
6.504
  20
7.165
  0
VERTEX
  8
7
  10
6.200
  20
7.063
  0
VERTEX
  8
7
  10
5.869
  20
6.987
  0
VERTEX
  8
7
  10
5.513
  20
6.936
  0
VERTEX
  8
7
  10
5.183
  20
6.886
  0
VERTEX
  8
7
  10
5.183
  20
0.686
  0
VERTEX
  8
7
  10
6.987
  20
-0.711
  0
VERTEX
  8
7
  10
9.579
  20
1.702
  0
VERTEX
  8
7
  10
9.579
  20
6.428
  0
SEQEND
  0
POLYLINE
  8
7
  6
CONTINUOUS
 66
  1
  0
VERTEX
  8
7
  10
20.200
  20
-9.986
  0
VERTEX
  8
7
  10
19.718
  20
-9.528
  0
VERTEX
  8
7
  10
19.286
  20
-9.045
  0
VERTEX
  8
7
  10
18.930
  20
-8.537
  0
VERTEX
  8
7
  10
18.650
  20
-8.004
  0
VERTEX
  8
7
  10
18.422
  20
-7.445
  0
VERTEX
  8
7
  10
18.244
  20
-6.860
  0
VERTEX
  8
7
  10
18.142
  20
-6.250
  0
VERTEX
  8
7
  10
18.117
  20
-5.641
  0
VERTEX
  8
7
  10
18.142
  20
-5.005
  0
VERTEX
  8
7
  10
18.244
  20
-4.395
  0
VERTEX
  8
7
  10
18.396
  20
-3.786
  0
VERTEX
  8
7
  10
18.625
  20
-3.227
  0
VERTEX
  8
7
  10
18.777
  20
-2.922
  0
VERTEX
  8
7
  10
18.930
  20
-2.591
  0
VERTEX
  8
7
  10
19.133
  20
-2.236
  0
VERTEX
  8
7
  10
19.387
  20
-1.829
  0
VERTEX
  8
7
  10
19.641
  20
-1.422
  0
VERTEX
  8
7
  10
19.946
  20
-0.965
  0
VERTEX
  8
7
  10
20.277
  20
-0.508
  0
VERTEX
  8
7
  10
20.632
  20
0.000
  0
VERTEX
  8
7
  10
21.014
  20
0.533
  0
VERTEX
  8
7
  10
21.369
  20
1.041
  0
VERTEX
  8
7
  10
21.750
  20
1.550
  0
VERTEX
  8
7
  10
22.081
  20
2.083
  0
VERTEX
  8
7
  10
22.411
  20
2.566
  0
VERTEX
  8
7
  10
22.741
  20
3.074
  0
VERTEX
  8
7
  10
23.046
  20
3.557
  0
VERTEX
  8
7
  10
23.351
  20
4.065
  0
VERTEX
  8
7
  10
23.631
  20
4.548
  0
VERTEX
  8
7
  10
23.910
  20
5.005
  0
VERTEX
  8
7
  10
24.190
  20
5.488
  0
VERTEX
  8
7
  10
24.444
  20
5.945
  0
VERTEX
  8
7
  10
24.673
  20
6.403
  0
VERTEX
  8
7
  10
24.901
  20
6.860
  0
VERTEX
  8
7
  10
25.130
  20
7.318
  0
VERTEX
  8
7
  10
25.333
  20
7.750
  0
VERTEX
  8
7
  10
24.825
  20
7.368
  0
VERTEX
  8
7
  10
24.317
  20
7.038
  0
VERTEX
  8
7
  10
23.809
  20
6.759
  0
VERTEX
  8
7
  10
23.300
  20
6.530
  0
VERTEX
  8
7
  10
22.818
  20
6.352
  0
VERTEX
  8
7
  10
22.309
  20
6.225
  0
VERTEX
  8
7
  10
21.827
  20
6.149
  0
VERTEX
  8
7
  10
21.344
  20
6.123
  0
VERTEX
  8
7
  10
20.937
  20
6.149
  0
VERTEX
  8
7
  10
20.505
  20
6.174
  0
VERTEX
  8
7
  10
20.073
  20
6.250
  0
VERTEX
  8
7
  10
19.616
  20
6.327
  0
VERTEX
  8
7
  10
19.159
  20
6.454
  0
VERTEX
  8
7
  10
18.676
  20
6.606
  0
VERTEX
  8
7
  10
18.193
  20
6.759
  0
VERTEX
  8
7
  10
17.685
  20
6.962
  0
VERTEX
  8
7
  10
16.465
  20
4.370
  0
VERTEX
  8
7
  10
15.728
  20
4.726
  0
VERTEX
  8
7
  10
18.193
  20
10.011
  0
VERTEX
  8
7
  10
18.473
  20
9.808
  0
VERTEX
  8
7
  10
18.752
  20
9.604
  0
VERTEX
  8
7
  10
19.057
  20
9.427
  0
VERTEX
  8
7
  10
19.362
  20
9.249
  0
VERTEX
  8
7
  10
19.667
  20
9.096
  0
VERTEX
  8
7
  10
19.997
  20
8.944
  0
VERTEX
  8
7
  10
20.328
  20
8.791
  0
VERTEX
  8
7
  10
20.658
  20
8.664
  0
VERTEX
  8
7
  10
21.014
  20
8.563
  0
VERTEX
  8
7
  10
21.369
  20
8.461
  0
VERTEX
  8
7
  10
21.700
  20
8.385
  0
VERTEX
  8
7
  10
22.055
  20
8.309
  0
VERTEX
  8
7
  10
22.386
  20
8.258
  0
VERTEX
  8
7
  10
22.741
  20
8.207
  0
VERTEX
  8
7
  10
23.072
  20
8.182
  0
VERTEX
  8
7
  10
23.428
  20
8.182
  0
VERTEX
  8
7
  10
23.682
  20
8.182
  0
VERTEX
  8
7
  10
23.910
  20
8.207
  0
VERTEX
  8
7
  10
24.139
  20
8.232
  0
VERTEX
  8
7
  10
24.368
  20
8.283
  0
VERTEX
  8
7
  10
24.571
  20
8.359
  0
VERTEX
  8
7
  10
24.749
  20
8.410
  0
VERTEX
  8
7
  10
24.927
  20
8.486
  0
VERTEX
  8
7
  10
25.079
  20
8.588
  0
VERTEX
  8
7
  10
25.232
  20
8.690
  0
VERTEX
  8
7
  10
25.384
  20
8.842
  0
VERTEX
  8
7
  10
25.537
  20
8.995
  0
VERTEX
  8
7
  10
25.689
  20
9.147
  0
VERTEX
  8
7
  10
25.816
  20
9.350
  0
VERTEX
  8
7
  10
25.943
  20
9.554
  0
VERTEX
  8
7
  10
26.070
  20
9.782
  0
VERTEX
  8
7
  10
26.197
  20
10.011
  0
VERTEX
  8
7
  10
26.909
  20
9.732
  0
VERTEX
  8
7
  10
26.655
  20
9.020
  0
VERTEX
  8
7
  10
26.426
  20
8.359
  0
VERTEX
  8
7
  10
26.223
  20
7.750
  0
VERTEX
  8
7
  10
26.019
  20
7.216
  0
VERTEX
  8
7
  10
25.816
  20
6.708
  0
VERTEX
  8
7
  10
25.664
  20
6.276
  0
VERTEX
  8
7
  10
25.511
  20
5.895
  0
VERTEX
  8
7
  10
25.359
  20
5.564
  0
VERTEX
  8
7
  10
25.206
  20
5.183
  0
VERTEX
  8
7
  10
24.952
  20
4.650
  0
VERTEX
  8
7
  10
24.622
  20
3.963
  0
VERTEX
  8
7
  10
24.215
  20
3.100
  0
VERTEX
  8
7
  10
23.732
  20
2.109
  0
VERTEX
  8
7
  10
23.173
  20
0.940
  0
VERTEX
  8
7
  10
22.538
  20
-0.406
  0
VERTEX
  8
7
  10
21.827
  20
-1.880
  0
VERTEX
  8
7
  10
21.598
  20
-2.363
  0
VERTEX
  8
7
  10
21.420
  20
-2.845
  0
VERTEX
  8
7
  10
21.242
  20
-3.277
  0
VERTEX
  8
7
  10
21.115
  20
-3.684
  0
VERTEX
  8
7
  10
20.988
  20
-4.065
  0
VERTEX
  8
7
  10
20.912
  20
-4.395
  0
VERTEX
  8
7
  10
20.887
  20
-4.726
  0
VERTEX
  8
7
  10
20.861
  20
-5.005
  0
VERTEX
  8
7
  10
20.887
  20
-5.310
  0
VERTEX
  8
7
  10
20.912
  20
-5.590
  0
VERTEX
  8
7
  10
20.988
  20
-5.869
  0
VERTEX
  8
7
  10
21.115
  20
-6.149
  0
VERTEX
  8
7
  10
21.242
  20
-6.428
  0
VERTEX
  8
7
  10
21.420
  20
-6.708
  0
VERTEX
  8
7
  10
21.598
  20
-6.987
  0
VERTEX
  8
7
  10
21.827
  20
-7.241
  0
VERTEX
  8
7
  10
23.072
  20
-5.996
  0
VERTEX
  8
7
  10
23.656
  20
-6.581
  0
VERTEX
  8
7
  10
20.200
  20
-9.986
  0
SEQEND
  0
ENDSEC
  0
EOF
