0
SECTION
2
ENTITIES
0
LINE
 8
 1
 10
   -7.114 
 20
   -0.711 
 11
   -8.918 
 21
    0.686 
 0
LINE
 8
 1
 10
   -8.918 
 20
    0.686 
 11
   -8.918 
 21
    6.886 
 0
LINE
 8
 1
 10
   -8.918 
 20
    6.886 
 11
   -8.588 
 21
    6.936 
 0
LINE
 8
 1
 10
   -8.588 
 20
    6.936 
 11
   -8.232 
 21
    6.987 
 0
LINE
 8
 1
 10
   -8.232 
 20
    6.987 
 11
   -7.902 
 21
    7.063 
 0
LINE
 8
 1
 10
   -7.902 
 20
    7.063 
 11
   -7.597 
 21
    7.165 
 0
LINE
 8
 1
 10
   -7.597 
 20
    7.165 
 11
   -7.267 
 21
    7.292 
 0
LINE
 8
 1
 10
   -7.267 
 20
    7.292 
 11
   -6.962 
 21
    7.445 
 0
LINE
 8
 1
 10
   -6.962 
 20
    7.445 
 11
   -6.657 
 21
    7.597 
 0
LINE
 8
 1
 10
   -6.657 
 20
    7.597 
 11
   -6.377 
 21
    7.775 
 0
LINE
 8
 1
 10
   -6.377 
 20
    7.775 
 11
   -4.522 
 21
    6.428 
 0
LINE
 8
 1
 10
   -4.522 
 20
    6.428 
 11
   -4.522 
 21
    1.702 
 0
LINE
 8
 1
 10
   -4.522 
 20
    1.702 
 11
   -7.114 
 21
   -0.711 
 0
LINE
 8
 1
 10
  -19.209 
 20
   -9.986 
 11
  -21.522 
 21
   -7.597 
 0
LINE
 8
 1
 10
  -21.522 
 20
   -7.597 
 11
  -22.691 
 21
   -8.741 
 0
LINE
 8
 1
 10
  -22.691 
 20
   -8.741 
 11
  -23.300 
 21
   -8.131 
 0
LINE
 8
 1
 10
  -23.300 
 20
   -8.131 
 11
  -20.988 
 21
   -5.793 
 0
LINE
 8
 1
 10
  -20.988 
 20
   -5.793 
 11
  -20.988 
 21
    4.446 
 0
LINE
 8
 1
 10
  -20.988 
 20
    4.446 
 11
  -21.014 
 21
    4.878 
 0
LINE
 8
 1
 10
  -21.014 
 20
    4.878 
 11
  -21.090 
 21
    5.259 
 0
LINE
 8
 1
 10
  -21.090 
 20
    5.259 
 11
  -21.217 
 21
    5.641 
 0
LINE
 8
 1
 10
  -21.217 
 20
    5.641 
 11
  -21.344 
 21
    5.971 
 0
LINE
 8
 1
 10
  -21.344 
 20
    5.971 
 11
  -21.547 
 21
    6.276 
 0
LINE
 8
 1
 10
  -21.547 
 20
    6.276 
 11
  -21.750 
 21
    6.555 
 0
LINE
 8
 1
 10
  -21.750 
 20
    6.555 
 11
  -22.005 
 21
    6.809 
 0
LINE
 8
 1
 10
  -22.005 
 20
    6.809 
 11
  -22.309 
 21
    7.013 
 0
LINE
 8
 1
 10
  -22.309 
 20
    7.013 
 11
  -23.631 
 21
    5.691 
 0
LINE
 8
 1
 10
  -23.631 
 20
    5.691 
 11
  -24.190 
 21
    6.276 
 0
LINE
 8
 1
 10
  -24.190 
 20
    6.276 
 11
  -20.505 
 21
   10.011 
 0
LINE
 8
 1
 10
  -20.505 
 20
   10.011 
 11
  -20.277 
 21
    9.859 
 0
LINE
 8
 1
 10
  -20.277 
 20
    9.859 
 11
  -20.048 
 21
    9.681 
 0
LINE
 8
 1
 10
  -20.048 
 20
    9.681 
 11
  -19.845 
 21
    9.503 
 0
LINE
 8
 1
 10
  -19.845 
 20
    9.503 
 11
  -19.641 
 21
    9.274 
 0
LINE
 8
 1
 10
  -19.641 
 20
    9.274 
 11
  -19.464 
 21
    9.045 
 0
LINE
 8
 1
 10
  -19.464 
 20
    9.045 
 11
  -19.311 
 21
    8.791 
 0
LINE
 8
 1
 10
  -19.311 
 20
    8.791 
 11
  -19.159 
 21
    8.537 
 0
LINE
 8
 1
 10
  -19.159 
 20
    8.537 
 11
  -19.032 
 21
    8.232 
 0
LINE
 8
 1
 10
  -19.032 
 20
    8.232 
 11
  -18.803 
 21
    7.597 
 0
LINE
 8
 1
 10
  -18.803 
 20
    7.597 
 11
  -18.650 
 21
    6.936 
 0
LINE
 8
 1
 10
  -18.650 
 20
    6.936 
 11
  -18.549 
 21
    6.174 
 0
LINE
 8
 1
 10
  -18.549 
 20
    6.174 
 11
  -18.523 
 21
    5.386 
 0
LINE
 8
 1
 10
  -18.523 
 20
    5.386 
 11
  -18.523 
 21
   -5.971 
 0
LINE
 8
 1
 10
  -18.523 
 20
   -5.971 
 11
  -17.507 
 21
   -7.089 
 0
LINE
 8
 1
 10
  -17.507 
 20
   -7.089 
 11
  -16.211 
 21
   -5.793 
 0
LINE
 8
 1
 10
  -16.211 
 20
   -5.793 
 11
  -15.627 
 21
   -6.403 
 0
LINE
 8
 1
 10
  -15.627 
 20
   -6.403 
 11
  -19.209 
 21
   -9.986 
 0
LINE
 8
 1
 10
   -7.318 
 20
   -9.986 
 11
   -7.572 
 21
   -9.706 
 0
LINE
 8
 1
 10
   -7.572 
 20
   -9.706 
 11
   -7.851 
 21
   -9.376 
 0
LINE
 8
 1
 10
   -7.851 
 20
   -9.376 
 11
   -8.131 
 21
   -9.071 
 0
LINE
 8
 1
 10
   -8.131 
 20
   -9.071 
 11
   -8.359 
 21
   -8.817 
 0
LINE
 8
 1
 10
   -8.359 
 20
   -8.817 
 11
   -8.563 
 21
   -8.588 
 0
LINE
 8
 1
 10
   -8.563 
 20
   -8.588 
 11
   -8.766 
 21
   -8.385 
 0
LINE
 8
 1
 10
   -8.766 
 20
   -8.385 
 11
   -8.944 
 21
   -8.207 
 0
LINE
 8
 1
 10
   -8.944 
 20
   -8.207 
 11
   -9.071 
 21
   -8.080 
 0
LINE
 8
 1
 10
   -9.071 
 20
   -8.080 
 11
   -9.198 
 21
   -7.978 
 0
LINE
 8
 1
 10
   -9.198 
 20
   -7.978 
 11
   -9.300 
 21
   -7.902 
 0
LINE
 8
 1
 10
   -9.300 
 20
   -7.902 
 11
   -9.427 
 21
   -7.851 
 0
LINE
 8
 1
 10
   -9.427 
 20
   -7.851 
 11
   -9.528 
 21
   -7.800 
 0
LINE
 8
 1
 10
   -9.528 
 20
   -7.800 
 11
   -9.655 
 21
   -7.750 
 0
LINE
 8
 1
 10
   -9.655 
 20
   -7.750 
 11
   -9.782 
 21
   -7.724 
 0
LINE
 8
 1
 10
   -9.782 
 20
   -7.724 
 11
   -9.909 
 21
   -7.699 
 0
LINE
 8
 1
 10
   -9.909 
 20
   -7.699 
 11
  -10.036 
 21
   -7.673 
 0
LINE
 8
 1
 10
  -10.036 
 20
   -7.673 
 11
  -10.163 
 21
   -7.673 
 0
LINE
 8
 1
 10
  -10.163 
 20
   -7.673 
 11
  -10.291 
 21
   -7.673 
 0
LINE
 8
 1
 10
  -10.291 
 20
   -7.673 
 11
  -10.418 
 21
   -7.699 
 0
LINE
 8
 1
 10
  -10.418 
 20
   -7.699 
 11
  -10.545 
 21
   -7.724 
 0
LINE
 8
 1
 10
  -10.545 
 20
   -7.724 
 11
  -10.646 
 21
   -7.775 
 0
LINE
 8
 1
 10
  -10.646 
 20
   -7.775 
 11
  -10.697 
 21
   -7.800 
 0
LINE
 8
 1
 10
  -10.697 
 20
   -7.800 
 11
  -10.799 
 21
   -7.851 
 0
LINE
 8
 1
 10
  -10.799 
 20
   -7.851 
 11
  -10.900 
 21
   -7.902 
 0
LINE
 8
 1
 10
  -10.900 
 20
   -7.902 
 11
  -11.027 
 21
   -8.004 
 0
LINE
 8
 1
 10
  -11.027 
 20
   -8.004 
 11
  -11.154 
 21
   -8.080 
 0
LINE
 8
 1
 10
  -11.154 
 20
   -8.080 
 11
  -11.332 
 21
   -8.207 
 0
LINE
 8
 1
 10
  -11.332 
 20
   -8.207 
 11
  -11.510 
 21
   -8.334 
 0
LINE
 8
 1
 10
  -11.510 
 20
   -8.334 
 11
  -11.714 
 21
   -8.461 
 0
LINE
 8
 1
 10
  -11.714 
 20
   -8.461 
 11
  -12.222 
 21
   -7.750 
 0
LINE
 8
 1
 10
  -12.222 
 20
   -7.750 
 11
  -12.171 
 21
   -7.699 
 0
LINE
 8
 1
 10
  -12.171 
 20
   -7.699 
 11
  -12.095 
 21
   -7.648 
 0
LINE
 8
 1
 10
  -12.095 
 20
   -7.648 
 11
  -12.044 
 21
   -7.622 
 0
LINE
 8
 1
 10
  -12.044 
 20
   -7.622 
 11
  -11.993 
 21
   -7.572 
 0
LINE
 8
 1
 10
  -11.993 
 20
   -7.572 
 11
  -11.561 
 21
   -7.267 
 0
LINE
 8
 1
 10
  -11.561 
 20
   -7.267 
 11
  -11.180 
 21
   -6.987 
 0
LINE
 8
 1
 10
  -11.180 
 20
   -6.987 
 11
  -10.824 
 21
   -6.733 
 0
LINE
 8
 1
 10
  -10.824 
 20
   -6.733 
 11
  -10.519 
 21
   -6.530 
 0
LINE
 8
 1
 10
  -10.519 
 20
   -6.530 
 11
  -10.265 
 21
   -6.352 
 0
LINE
 8
 1
 10
  -10.265 
 20
   -6.352 
 11
  -10.036 
 21
   -6.200 
 0
LINE
 8
 1
 10
  -10.036 
 20
   -6.200 
 11
   -9.833 
 21
   -6.072 
 0
LINE
 8
 1
 10
   -9.833 
 20
   -6.072 
 11
   -9.681 
 21
   -5.996 
 0
LINE
 8
 1
 10
   -9.681 
 20
   -5.996 
 11
   -9.554 
 21
   -5.945 
 0
LINE
 8
 1
 10
   -9.554 
 20
   -5.945 
 11
   -9.401 
 21
   -5.895 
 0
LINE
 8
 1
 10
   -9.401 
 20
   -5.895 
 11
   -9.249 
 21
   -5.844 
 0
LINE
 8
 1
 10
   -9.249 
 20
   -5.844 
 11
   -9.096 
 21
   -5.818 
 0
LINE
 8
 1
 10
   -9.096 
 20
   -5.818 
 11
   -8.918 
 21
   -5.793 
 0
LINE
 8
 1
 10
   -8.918 
 20
   -5.793 
 11
   -8.741 
 21
   -5.768 
 0
LINE
 8
 1
 10
   -8.741 
 20
   -5.768 
 11
   -8.563 
 21
   -5.742 
 0
LINE
 8
 1
 10
   -8.563 
 20
   -5.742 
 11
   -8.385 
 21
   -5.742 
 0
LINE
 8
 1
 10
   -8.385 
 20
   -5.742 
 11
   -8.004 
 21
   -5.768 
 0
LINE
 8
 1
 10
   -8.004 
 20
   -5.768 
 11
   -7.622 
 21
   -5.818 
 0
LINE
 8
 1
 10
   -7.622 
 20
   -5.818 
 11
   -7.267 
 21
   -5.945 
 0
LINE
 8
 1
 10
   -7.267 
 20
   -5.945 
 11
   -6.911 
 21
   -6.098 
 0
LINE
 8
 1
 10
   -6.911 
 20
   -6.098 
 11
   -6.555 
 21
   -6.276 
 0
LINE
 8
 1
 10
   -6.555 
 20
   -6.276 
 11
   -6.200 
 21
   -6.530 
 0
LINE
 8
 1
 10
   -6.200 
 20
   -6.530 
 11
   -5.844 
 21
   -6.809 
 0
LINE
 8
 1
 10
   -5.844 
 20
   -6.809 
 11
   -5.513 
 21
   -7.140 
 0
LINE
 8
 1
 10
   -5.513 
 20
   -7.140 
 11
   -5.386 
 21
   -7.063 
 0
LINE
 8
 1
 10
   -5.386 
 20
   -7.063 
 11
   -5.285 
 21
   -6.962 
 0
LINE
 8
 1
 10
   -5.285 
 20
   -6.962 
 11
   -5.158 
 21
   -6.886 
 0
LINE
 8
 1
 10
   -5.158 
 20
   -6.886 
 11
   -5.031 
 21
   -6.809 
 0
LINE
 8
 1
 10
   -5.031 
 20
   -6.809 
 11
   -4.904 
 21
   -6.733 
 0
LINE
 8
 1
 10
   -4.904 
 20
   -6.733 
 11
   -4.777 
 21
   -6.657 
 0
LINE
 8
 1
 10
   -4.777 
 20
   -6.657 
 11
   -4.650 
 21
   -6.606 
 0
LINE
 8
 1
 10
   -4.650 
 20
   -6.606 
 11
   -4.522 
 21
   -6.530 
 0
LINE
 8
 1
 10
   -4.522 
 20
   -6.530 
 11
   -4.522 
 21
    0.533 
 0
LINE
 8
 1
 10
   -4.522 
 20
    0.533 
 11
   -8.486 
 21
   -3.100 
 0
LINE
 8
 1
 10
   -8.486 
 20
   -3.100 
 11
  -11.307 
 21
   -0.914 
 0
LINE
 8
 1
 10
  -11.307 
 20
   -0.914 
 11
  -12.450 
 21
   -2.007 
 0
LINE
 8
 1
 10
  -12.450 
 20
   -2.007 
 11
  -12.984 
 21
   -1.397 
 0
LINE
 8
 1
 10
  -12.984 
 20
   -1.397 
 11
  -11.409 
 21
    0.177 
 0
LINE
 8
 1
 10
  -11.409 
 20
    0.177 
 11
  -11.409 
 21
    6.682 
 0
LINE
 8
 1
 10
  -11.409 
 20
    6.682 
 11
  -11.510 
 21
    6.682 
 0
LINE
 8
 1
 10
  -11.510 
 20
    6.682 
 11
  -11.612 
 21
    6.682 
 0
LINE
 8
 1
 10
  -11.612 
 20
    6.682 
 11
  -11.714 
 21
    6.682 
 0
LINE
 8
 1
 10
  -11.714 
 20
    6.682 
 11
  -11.815 
 21
    6.708 
 0
LINE
 8
 1
 10
  -11.815 
 20
    6.708 
 11
  -11.917 
 21
    6.708 
 0
LINE
 8
 1
 10
  -11.917 
 20
    6.708 
 11
  -12.018 
 21
    6.708 
 0
LINE
 8
 1
 10
  -12.018 
 20
    6.708 
 11
  -12.120 
 21
    6.733 
 0
LINE
 8
 1
 10
  -12.120 
 20
    6.733 
 11
  -12.222 
 21
    6.733 
 0
LINE
 8
 1
 10
  -12.222 
 20
    6.733 
 11
  -12.222 
 21
    7.572 
 0
LINE
 8
 1
 10
  -12.222 
 20
    7.572 
 11
  -12.044 
 21
    7.572 
 0
LINE
 8
 1
 10
  -12.044 
 20
    7.572 
 11
  -11.891 
 21
    7.546 
 0
LINE
 8
 1
 10
  -11.891 
 20
    7.546 
 11
  -11.714 
 21
    7.546 
 0
LINE
 8
 1
 10
  -11.714 
 20
    7.546 
 11
  -11.586 
 21
    7.521 
 0
LINE
 8
 1
 10
  -11.586 
 20
    7.521 
 11
  -11.459 
 21
    7.521 
 0
LINE
 8
 1
 10
  -11.459 
 20
    7.521 
 11
  -11.332 
 21
    7.495 
 0
LINE
 8
 1
 10
  -11.332 
 20
    7.495 
 11
  -11.231 
 21
    7.495 
 0
LINE
 8
 1
 10
  -11.231 
 20
    7.495 
 11
  -11.154 
 21
    7.495 
 0
LINE
 8
 1
 10
  -11.154 
 20
    7.495 
 11
  -10.672 
 21
    7.495 
 0
LINE
 8
 1
 10
  -10.672 
 20
    7.495 
 11
  -10.189 
 21
    7.546 
 0
LINE
 8
 1
 10
  -10.189 
 20
    7.546 
 11
   -9.706 
 21
    7.597 
 0
LINE
 8
 1
 10
   -9.706 
 20
    7.597 
 11
   -9.249 
 21
    7.648 
 0
LINE
 8
 1
 10
   -9.249 
 20
    7.648 
 11
   -8.817 
 21
    7.750 
 0
LINE
 8
 1
 10
   -8.817 
 20
    7.750 
 11
   -8.385 
 21
    7.851 
 0
LINE
 8
 1
 10
   -8.385 
 20
    7.851 
 11
   -7.953 
 21
    7.978 
 0
LINE
 8
 1
 10
   -7.953 
 20
    7.978 
 11
   -7.546 
 21
    8.131 
 0
LINE
 8
 1
 10
   -7.546 
 20
    8.131 
 11
   -7.165 
 21
    8.309 
 0
LINE
 8
 1
 10
   -7.165 
 20
    8.309 
 11
   -6.784 
 21
    8.486 
 0
LINE
 8
 1
 10
   -6.784 
 20
    8.486 
 11
   -6.428 
 21
    8.690 
 0
LINE
 8
 1
 10
   -6.428 
 20
    8.690 
 11
   -6.072 
 21
    8.918 
 0
LINE
 8
 1
 10
   -6.072 
 20
    8.918 
 11
   -5.742 
 21
    9.173 
 0
LINE
 8
 1
 10
   -5.742 
 20
    9.173 
 11
   -5.412 
 21
    9.427 
 0
LINE
 8
 1
 10
   -5.412 
 20
    9.427 
 11
   -5.107 
 21
    9.706 
 0
LINE
 8
 1
 10
   -5.107 
 20
    9.706 
 11
   -4.802 
 21
   10.011 
 0
LINE
 8
 1
 10
   -4.802 
 20
   10.011 
 11
   -2.109 
 21
    7.978 
 0
LINE
 8
 1
 10
   -2.109 
 20
    7.978 
 11
   -1.143 
 21
    8.868 
 0
LINE
 8
 1
 10
   -1.143 
 20
    8.868 
 11
   -0.584 
 21
    8.232 
 0
LINE
 8
 1
 10
   -0.584 
 20
    8.232 
 11
   -2.032 
 21
    6.860 
 0
LINE
 8
 1
 10
   -2.032 
 20
    6.860 
 11
   -2.032 
 21
   -5.895 
 0
LINE
 8
 1
 10
   -2.032 
 20
   -5.895 
 11
   -1.880 
 21
   -5.869 
 0
LINE
 8
 1
 10
   -1.880 
 20
   -5.869 
 11
   -1.727 
 21
   -5.869 
 0
LINE
 8
 1
 10
   -1.727 
 20
   -5.869 
 11
   -1.575 
 21
   -5.844 
 0
LINE
 8
 1
 10
   -1.575 
 20
   -5.844 
 11
   -1.397 
 21
   -5.818 
 0
LINE
 8
 1
 10
   -1.397 
 20
   -5.818 
 11
   -1.245 
 21
   -5.818 
 0
LINE
 8
 1
 10
   -1.245 
 20
   -5.818 
 11
   -1.092 
 21
   -5.793 
 0
LINE
 8
 1
 10
   -1.092 
 20
   -5.793 
 11
   -0.940 
 21
   -5.793 
 0
LINE
 8
 1
 10
   -0.940 
 20
   -5.793 
 11
   -0.787 
 21
   -5.793 
 0
LINE
 8
 1
 10
   -0.787 
 20
   -5.793 
 11
   -0.787 
 21
   -6.632 
 0
LINE
 8
 1
 10
   -0.787 
 20
   -6.632 
 11
   -1.321 
 21
   -6.682 
 0
LINE
 8
 1
 10
   -1.321 
 20
   -6.682 
 11
   -1.829 
 21
   -6.759 
 0
LINE
 8
 1
 10
   -1.829 
 20
   -6.759 
 11
   -2.337 
 21
   -6.860 
 0
LINE
 8
 1
 10
   -2.337 
 20
   -6.860 
 11
   -2.820 
 21
   -6.962 
 0
LINE
 8
 1
 10
   -2.820 
 20
   -6.962 
 11
   -3.277 
 21
   -7.114 
 0
LINE
 8
 1
 10
   -3.277 
 20
   -7.114 
 11
   -3.735 
 21
   -7.267 
 0
LINE
 8
 1
 10
   -3.735 
 20
   -7.267 
 11
   -4.167 
 21
   -7.445 
 0
LINE
 8
 1
 10
   -4.167 
 20
   -7.445 
 11
   -4.573 
 21
   -7.648 
 0
LINE
 8
 1
 10
   -4.573 
 20
   -7.648 
 11
   -4.980 
 21
   -7.877 
 0
LINE
 8
 1
 10
   -4.980 
 20
   -7.877 
 11
   -5.361 
 21
   -8.105 
 0
LINE
 8
 1
 10
   -5.361 
 20
   -8.105 
 11
   -5.717 
 21
   -8.385 
 0
LINE
 8
 1
 10
   -5.717 
 20
   -8.385 
 11
   -6.072 
 21
   -8.664 
 0
LINE
 8
 1
 10
   -6.072 
 20
   -8.664 
 11
   -6.403 
 21
   -8.969 
 0
LINE
 8
 1
 10
   -6.403 
 20
   -8.969 
 11
   -6.733 
 21
   -9.274 
 0
LINE
 8
 1
 10
   -6.733 
 20
   -9.274 
 11
   -7.038 
 21
   -9.630 
 0
LINE
 8
 1
 10
   -7.038 
 20
   -9.630 
 11
   -7.318 
 21
   -9.986 
 0
LINE
 8
 1
 10
    6.784 
 20
   -9.986 
 11
    6.530 
 21
   -9.706 
 0
LINE
 8
 1
 10
    6.530 
 20
   -9.706 
 11
    6.250 
 21
   -9.376 
 0
LINE
 8
 1
 10
    6.250 
 20
   -9.376 
 11
    5.971 
 21
   -9.071 
 0
LINE
 8
 1
 10
    5.971 
 20
   -9.071 
 11
    5.742 
 21
   -8.817 
 0
LINE
 8
 1
 10
    5.742 
 20
   -8.817 
 11
    5.539 
 21
   -8.588 
 0
LINE
 8
 1
 10
    5.539 
 20
   -8.588 
 11
    5.336 
 21
   -8.385 
 0
LINE
 8
 1
 10
    5.336 
 20
   -8.385 
 11
    5.158 
 21
   -8.207 
 0
LINE
 8
 1
 10
    5.158 
 20
   -8.207 
 11
    5.031 
 21
   -8.080 
 0
LINE
 8
 1
 10
    5.031 
 20
   -8.080 
 11
    4.904 
 21
   -7.978 
 0
LINE
 8
 1
 10
    4.904 
 20
   -7.978 
 11
    4.802 
 21
   -7.902 
 0
LINE
 8
 1
 10
    4.802 
 20
   -7.902 
 11
    4.675 
 21
   -7.851 
 0
LINE
 8
 1
 10
    4.675 
 20
   -7.851 
 11
    4.573 
 21
   -7.800 
 0
LINE
 8
 1
 10
    4.573 
 20
   -7.800 
 11
    4.446 
 21
   -7.750 
 0
LINE
 8
 1
 10
    4.446 
 20
   -7.750 
 11
    4.319 
 21
   -7.724 
 0
LINE
 8
 1
 10
    4.319 
 20
   -7.724 
 11
    4.192 
 21
   -7.699 
 0
LINE
 8
 1
 10
    4.192 
 20
   -7.699 
 11
    4.065 
 21
   -7.673 
 0
LINE
 8
 1
 10
    4.065 
 20
   -7.673 
 11
    3.938 
 21
   -7.673 
 0
LINE
 8
 1
 10
    3.938 
 20
   -7.673 
 11
    3.811 
 21
   -7.673 
 0
LINE
 8
 1
 10
    3.811 
 20
   -7.673 
 11
    3.684 
 21
   -7.699 
 0
LINE
 8
 1
 10
    3.684 
 20
   -7.699 
 11
    3.557 
 21
   -7.724 
 0
LINE
 8
 1
 10
    3.557 
 20
   -7.724 
 11
    3.455 
 21
   -7.775 
 0
LINE
 8
 1
 10
    3.455 
 20
   -7.775 
 11
    3.404 
 21
   -7.800 
 0
LINE
 8
 1
 10
    3.404 
 20
   -7.800 
 11
    3.303 
 21
   -7.851 
 0
LINE
 8
 1
 10
    3.303 
 20
   -7.851 
 11
    3.201 
 21
   -7.902 
 0
LINE
 8
 1
 10
    3.201 
 20
   -7.902 
 11
    3.074 
 21
   -8.004 
 0
LINE
 8
 1
 10
    3.074 
 20
   -8.004 
 11
    2.947 
 21
   -8.080 
 0
LINE
 8
 1
 10
    2.947 
 20
   -8.080 
 11
    2.769 
 21
   -8.207 
 0
LINE
 8
 1
 10
    2.769 
 20
   -8.207 
 11
    2.591 
 21
   -8.334 
 0
LINE
 8
 1
 10
    2.591 
 20
   -8.334 
 11
    2.388 
 21
   -8.461 
 0
LINE
 8
 1
 10
    2.388 
 20
   -8.461 
 11
    1.880 
 21
   -7.750 
 0
LINE
 8
 1
 10
    1.880 
 20
   -7.750 
 11
    1.931 
 21
   -7.699 
 0
LINE
 8
 1
 10
    1.931 
 20
   -7.699 
 11
    2.007 
 21
   -7.648 
 0
LINE
 8
 1
 10
    2.007 
 20
   -7.648 
 11
    2.058 
 21
   -7.622 
 0
LINE
 8
 1
 10
    2.058 
 20
   -7.622 
 11
    2.109 
 21
   -7.572 
 0
LINE
 8
 1
 10
    2.109 
 20
   -7.572 
 11
    2.541 
 21
   -7.267 
 0
LINE
 8
 1
 10
    2.541 
 20
   -7.267 
 11
    2.922 
 21
   -6.987 
 0
LINE
 8
 1
 10
    2.922 
 20
   -6.987 
 11
    3.277 
 21
   -6.733 
 0
LINE
 8
 1
 10
    3.277 
 20
   -6.733 
 11
    3.582 
 21
   -6.530 
 0
LINE
 8
 1
 10
    3.582 
 20
   -6.530 
 11
    3.836 
 21
   -6.352 
 0
LINE
 8
 1
 10
    3.836 
 20
   -6.352 
 11
    4.065 
 21
   -6.200 
 0
LINE
 8
 1
 10
    4.065 
 20
   -6.200 
 11
    4.268 
 21
   -6.072 
 0
LINE
 8
 1
 10
    4.268 
 20
   -6.072 
 11
    4.421 
 21
   -5.996 
 0
LINE
 8
 1
 10
    4.421 
 20
   -5.996 
 11
    4.548 
 21
   -5.945 
 0
LINE
 8
 1
 10
    4.548 
 20
   -5.945 
 11
    4.700 
 21
   -5.895 
 0
LINE
 8
 1
 10
    4.700 
 20
   -5.895 
 11
    4.853 
 21
   -5.844 
 0
LINE
 8
 1
 10
    4.853 
 20
   -5.844 
 11
    5.005 
 21
   -5.818 
 0
LINE
 8
 1
 10
    5.005 
 20
   -5.818 
 11
    5.183 
 21
   -5.793 
 0
LINE
 8
 1
 10
    5.183 
 20
   -5.793 
 11
    5.361 
 21
   -5.768 
 0
LINE
 8
 1
 10
    5.361 
 20
   -5.768 
 11
    5.539 
 21
   -5.742 
 0
LINE
 8
 1
 10
    5.539 
 20
   -5.742 
 11
    5.717 
 21
   -5.742 
 0
LINE
 8
 1
 10
    5.717 
 20
   -5.742 
 11
    6.098 
 21
   -5.768 
 0
LINE
 8
 1
 10
    6.098 
 20
   -5.768 
 11
    6.479 
 21
   -5.818 
 0
LINE
 8
 1
 10
    6.479 
 20
   -5.818 
 11
    6.835 
 21
   -5.945 
 0
LINE
 8
 1
 10
    6.835 
 20
   -5.945 
 11
    7.191 
 21
   -6.098 
 0
LINE
 8
 1
 10
    7.191 
 20
   -6.098 
 11
    7.546 
 21
   -6.276 
 0
LINE
 8
 1
 10
    7.546 
 20
   -6.276 
 11
    7.902 
 21
   -6.530 
 0
LINE
 8
 1
 10
    7.902 
 20
   -6.530 
 11
    8.258 
 21
   -6.809 
 0
LINE
 8
 1
 10
    8.258 
 20
   -6.809 
 11
    8.588 
 21
   -7.140 
 0
LINE
 8
 1
 10
    8.588 
 20
   -7.140 
 11
    8.715 
 21
   -7.063 
 0
LINE
 8
 1
 10
    8.715 
 20
   -7.063 
 11
    8.817 
 21
   -6.962 
 0
LINE
 8
 1
 10
    8.817 
 20
   -6.962 
 11
    8.944 
 21
   -6.886 
 0
LINE
 8
 1
 10
    8.944 
 20
   -6.886 
 11
    9.071 
 21
   -6.809 
 0
LINE
 8
 1
 10
    9.071 
 20
   -6.809 
 11
    9.198 
 21
   -6.733 
 0
LINE
 8
 1
 10
    9.198 
 20
   -6.733 
 11
    9.325 
 21
   -6.657 
 0
LINE
 8
 1
 10
    9.325 
 20
   -6.657 
 11
    9.452 
 21
   -6.606 
 0
LINE
 8
 1
 10
    9.452 
 20
   -6.606 
 11
    9.579 
 21
   -6.530 
 0
LINE
 8
 1
 10
    9.579 
 20
   -6.530 
 11
    9.579 
 21
    0.533 
 0
LINE
 8
 1
 10
    9.579 
 20
    0.533 
 11
    5.615 
 21
   -3.100 
 0
LINE
 8
 1
 10
    5.615 
 20
   -3.100 
 11
    2.795 
 21
   -0.914 
 0
LINE
 8
 1
 10
    2.795 
 20
   -0.914 
 11
    1.651 
 21
   -2.007 
 0
LINE
 8
 1
 10
    1.651 
 20
   -2.007 
 11
    1.118 
 21
   -1.397 
 0
LINE
 8
 1
 10
    1.118 
 20
   -1.397 
 11
    2.693 
 21
    0.177 
 0
LINE
 8
 1
 10
    2.693 
 20
    0.177 
 11
    2.693 
 21
    6.682 
 0
LINE
 8
 1
 10
    2.693 
 20
    6.682 
 11
    2.591 
 21
    6.682 
 0
LINE
 8
 1
 10
    2.591 
 20
    6.682 
 11
    2.490 
 21
    6.682 
 0
LINE
 8
 1
 10
    2.490 
 20
    6.682 
 11
    2.388 
 21
    6.682 
 0
LINE
 8
 1
 10
    2.388 
 20
    6.682 
 11
    2.286 
 21
    6.708 
 0
LINE
 8
 1
 10
    2.286 
 20
    6.708 
 11
    2.185 
 21
    6.708 
 0
LINE
 8
 1
 10
    2.185 
 20
    6.708 
 11
    2.083 
 21
    6.708 
 0
LINE
 8
 1
 10
    2.083 
 20
    6.708 
 11
    1.981 
 21
    6.733 
 0
LINE
 8
 1
 10
    1.981 
 20
    6.733 
 11
    1.880 
 21
    6.733 
 0
LINE
 8
 1
 10
    1.880 
 20
    6.733 
 11
    1.880 
 21
    7.572 
 0
LINE
 8
 1
 10
    1.880 
 20
    7.572 
 11
    2.058 
 21
    7.572 
 0
LINE
 8
 1
 10
    2.058 
 20
    7.572 
 11
    2.210 
 21
    7.546 
 0
LINE
 8
 1
 10
    2.210 
 20
    7.546 
 11
    2.388 
 21
    7.546 
 0
LINE
 8
 1
 10
    2.388 
 20
    7.546 
 11
    2.515 
 21
    7.521 
 0
LINE
 8
 1
 10
    2.515 
 20
    7.521 
 11
    2.642 
 21
    7.521 
 0
LINE
 8
 1
 10
    2.642 
 20
    7.521 
 11
    2.769 
 21
    7.495 
 0
LINE
 8
 1
 10
    2.769 
 20
    7.495 
 11
    2.871 
 21
    7.495 
 0
LINE
 8
 1
 10
    2.871 
 20
    7.495 
 11
    2.947 
 21
    7.495 
 0
LINE
 8
 1
 10
    2.947 
 20
    7.495 
 11
    3.430 
 21
    7.495 
 0
LINE
 8
 1
 10
    3.430 
 20
    7.495 
 11
    3.913 
 21
    7.546 
 0
LINE
 8
 1
 10
    3.913 
 20
    7.546 
 11
    4.395 
 21
    7.597 
 0
LINE
 8
 1
 10
    4.395 
 20
    7.597 
 11
    4.853 
 21
    7.648 
 0
LINE
 8
 1
 10
    4.853 
 20
    7.648 
 11
    5.285 
 21
    7.750 
 0
LINE
 8
 1
 10
    5.285 
 20
    7.750 
 11
    5.717 
 21
    7.851 
 0
LINE
 8
 1
 10
    5.717 
 20
    7.851 
 11
    6.149 
 21
    7.978 
 0
LINE
 8
 1
 10
    6.149 
 20
    7.978 
 11
    6.555 
 21
    8.131 
 0
LINE
 8
 1
 10
    6.555 
 20
    8.131 
 11
    6.936 
 21
    8.309 
 0
LINE
 8
 1
 10
    6.936 
 20
    8.309 
 11
    7.318 
 21
    8.486 
 0
LINE
 8
 1
 10
    7.318 
 20
    8.486 
 11
    7.673 
 21
    8.690 
 0
LINE
 8
 1
 10
    7.673 
 20
    8.690 
 11
    8.029 
 21
    8.918 
 0
LINE
 8
 1
 10
    8.029 
 20
    8.918 
 11
    8.359 
 21
    9.173 
 0
LINE
 8
 1
 10
    8.359 
 20
    9.173 
 11
    8.690 
 21
    9.427 
 0
LINE
 8
 1
 10
    8.690 
 20
    9.427 
 11
    8.995 
 21
    9.706 
 0
LINE
 8
 1
 10
    8.995 
 20
    9.706 
 11
    9.300 
 21
   10.011 
 0
LINE
 8
 1
 10
    9.300 
 20
   10.011 
 11
   11.993 
 21
    7.978 
 0
LINE
 8
 1
 10
   11.993 
 20
    7.978 
 11
   12.959 
 21
    8.868 
 0
LINE
 8
 1
 10
   12.959 
 20
    8.868 
 11
   13.518 
 21
    8.232 
 0
LINE
 8
 1
 10
   13.518 
 20
    8.232 
 11
   12.069 
 21
    6.860 
 0
LINE
 8
 1
 10
   12.069 
 20
    6.860 
 11
   12.069 
 21
   -5.895 
 0
LINE
 8
 1
 10
   12.069 
 20
   -5.895 
 11
   12.222 
 21
   -5.869 
 0
LINE
 8
 1
 10
   12.222 
 20
   -5.869 
 11
   12.374 
 21
   -5.869 
 0
LINE
 8
 1
 10
   12.374 
 20
   -5.869 
 11
   12.527 
 21
   -5.844 
 0
LINE
 8
 1
 10
   12.527 
 20
   -5.844 
 11
   12.705 
 21
   -5.818 
 0
LINE
 8
 1
 10
   12.705 
 20
   -5.818 
 11
   12.857 
 21
   -5.818 
 0
LINE
 8
 1
 10
   12.857 
 20
   -5.818 
 11
   13.009 
 21
   -5.793 
 0
LINE
 8
 1
 10
   13.009 
 20
   -5.793 
 11
   13.162 
 21
   -5.793 
 0
LINE
 8
 1
 10
   13.162 
 20
   -5.793 
 11
   13.314 
 21
   -5.793 
 0
LINE
 8
 1
 10
   13.314 
 20
   -5.793 
 11
   13.314 
 21
   -6.632 
 0
LINE
 8
 1
 10
   13.314 
 20
   -6.632 
 11
   12.781 
 21
   -6.682 
 0
LINE
 8
 1
 10
   12.781 
 20
   -6.682 
 11
   12.273 
 21
   -6.759 
 0
LINE
 8
 1
 10
   12.273 
 20
   -6.759 
 11
   11.764 
 21
   -6.860 
 0
LINE
 8
 1
 10
   11.764 
 20
   -6.860 
 11
   11.282 
 21
   -6.962 
 0
LINE
 8
 1
 10
   11.282 
 20
   -6.962 
 11
   10.824 
 21
   -7.114 
 0
LINE
 8
 1
 10
   10.824 
 20
   -7.114 
 11
   10.367 
 21
   -7.267 
 0
LINE
 8
 1
 10
   10.367 
 20
   -7.267 
 11
    9.935 
 21
   -7.445 
 0
LINE
 8
 1
 10
    9.935 
 20
   -7.445 
 11
    9.528 
 21
   -7.648 
 0
LINE
 8
 1
 10
    9.528 
 20
   -7.648 
 11
    9.122 
 21
   -7.877 
 0
LINE
 8
 1
 10
    9.122 
 20
   -7.877 
 11
    8.741 
 21
   -8.105 
 0
LINE
 8
 1
 10
    8.741 
 20
   -8.105 
 11
    8.385 
 21
   -8.385 
 0
LINE
 8
 1
 10
    8.385 
 20
   -8.385 
 11
    8.029 
 21
   -8.664 
 0
LINE
 8
 1
 10
    8.029 
 20
   -8.664 
 11
    7.699 
 21
   -8.969 
 0
LINE
 8
 1
 10
    7.699 
 20
   -8.969 
 11
    7.368 
 21
   -9.274 
 0
LINE
 8
 1
 10
    7.368 
 20
   -9.274 
 11
    7.063 
 21
   -9.630 
 0
LINE
 8
 1
 10
    7.063 
 20
   -9.630 
 11
    6.784 
 21
   -9.986 
 0
LINE
 8
 1
 10
   20.200 
 20
   -9.986 
 11
   19.718 
 21
   -9.528 
 0
LINE
 8
 1
 10
   19.718 
 20
   -9.528 
 11
   19.286 
 21
   -9.045 
 0
LINE
 8
 1
 10
   19.286 
 20
   -9.045 
 11
   18.930 
 21
   -8.537 
 0
LINE
 8
 1
 10
   18.930 
 20
   -8.537 
 11
   18.650 
 21
   -8.004 
 0
LINE
 8
 1
 10
   18.650 
 20
   -8.004 
 11
   18.422 
 21
   -7.445 
 0
LINE
 8
 1
 10
   18.422 
 20
   -7.445 
 11
   18.244 
 21
   -6.860 
 0
LINE
 8
 1
 10
   18.244 
 20
   -6.860 
 11
   18.142 
 21
   -6.250 
 0
LINE
 8
 1
 10
   18.142 
 20
   -6.250 
 11
   18.117 
 21
   -5.641 
 0
LINE
 8
 1
 10
   18.117 
 20
   -5.641 
 11
   18.142 
 21
   -5.005 
 0
LINE
 8
 1
 10
   18.142 
 20
   -5.005 
 11
   18.244 
 21
   -4.395 
 0
LINE
 8
 1
 10
   18.244 
 20
   -4.395 
 11
   18.396 
 21
   -3.786 
 0
LINE
 8
 1
 10
   18.396 
 20
   -3.786 
 11
   18.625 
 21
   -3.227 
 0
LINE
 8
 1
 10
   18.625 
 20
   -3.227 
 11
   18.777 
 21
   -2.922 
 0
LINE
 8
 1
 10
   18.777 
 20
   -2.922 
 11
   18.930 
 21
   -2.591 
 0
LINE
 8
 1
 10
   18.930 
 20
   -2.591 
 11
   19.133 
 21
   -2.236 
 0
LINE
 8
 1
 10
   19.133 
 20
   -2.236 
 11
   19.387 
 21
   -1.829 
 0
LINE
 8
 1
 10
   19.387 
 20
   -1.829 
 11
   19.641 
 21
   -1.422 
 0
LINE
 8
 1
 10
   19.641 
 20
   -1.422 
 11
   19.946 
 21
   -0.965 
 0
LINE
 8
 1
 10
   19.946 
 20
   -0.965 
 11
   20.277 
 21
   -0.508 
 0
LINE
 8
 1
 10
   20.277 
 20
   -0.508 
 11
   20.632 
 21
    0.000 
 0
LINE
 8
 1
 10
   20.632 
 20
    0.000 
 11
   21.014 
 21
    0.533 
 0
LINE
 8
 1
 10
   21.014 
 20
    0.533 
 11
   21.369 
 21
    1.041 
 0
LINE
 8
 1
 10
   21.369 
 20
    1.041 
 11
   21.750 
 21
    1.550 
 0
LINE
 8
 1
 10
   21.750 
 20
    1.550 
 11
   22.081 
 21
    2.083 
 0
LINE
 8
 1
 10
   22.081 
 20
    2.083 
 11
   22.411 
 21
    2.566 
 0
LINE
 8
 1
 10
   22.411 
 20
    2.566 
 11
   22.741 
 21
    3.074 
 0
LINE
 8
 1
 10
   22.741 
 20
    3.074 
 11
   23.046 
 21
    3.557 
 0
LINE
 8
 1
 10
   23.046 
 20
    3.557 
 11
   23.351 
 21
    4.065 
 0
LINE
 8
 1
 10
   23.351 
 20
    4.065 
 11
   23.631 
 21
    4.548 
 0
LINE
 8
 1
 10
   23.631 
 20
    4.548 
 11
   23.910 
 21
    5.005 
 0
LINE
 8
 1
 10
   23.910 
 20
    5.005 
 11
   24.190 
 21
    5.488 
 0
LINE
 8
 1
 10
   24.190 
 20
    5.488 
 11
   24.444 
 21
    5.945 
 0
LINE
 8
 1
 10
   24.444 
 20
    5.945 
 11
   24.673 
 21
    6.403 
 0
LINE
 8
 1
 10
   24.673 
 20
    6.403 
 11
   24.901 
 21
    6.860 
 0
LINE
 8
 1
 10
   24.901 
 20
    6.860 
 11
   25.130 
 21
    7.318 
 0
LINE
 8
 1
 10
   25.130 
 20
    7.318 
 11
   25.333 
 21
    7.750 
 0
LINE
 8
 1
 10
   25.333 
 20
    7.750 
 11
   24.825 
 21
    7.368 
 0
LINE
 8
 1
 10
   24.825 
 20
    7.368 
 11
   24.317 
 21
    7.038 
 0
LINE
 8
 1
 10
   24.317 
 20
    7.038 
 11
   23.809 
 21
    6.759 
 0
LINE
 8
 1
 10
   23.809 
 20
    6.759 
 11
   23.300 
 21
    6.530 
 0
LINE
 8
 1
 10
   23.300 
 20
    6.530 
 11
   22.818 
 21
    6.352 
 0
LINE
 8
 1
 10
   22.818 
 20
    6.352 
 11
   22.309 
 21
    6.225 
 0
LINE
 8
 1
 10
   22.309 
 20
    6.225 
 11
   21.827 
 21
    6.149 
 0
LINE
 8
 1
 10
   21.827 
 20
    6.149 
 11
   21.344 
 21
    6.123 
 0
LINE
 8
 1
 10
   21.344 
 20
    6.123 
 11
   20.937 
 21
    6.149 
 0
LINE
 8
 1
 10
   20.937 
 20
    6.149 
 11
   20.505 
 21
    6.174 
 0
LINE
 8
 1
 10
   20.505 
 20
    6.174 
 11
   20.073 
 21
    6.250 
 0
LINE
 8
 1
 10
   20.073 
 20
    6.250 
 11
   19.616 
 21
    6.327 
 0
LINE
 8
 1
 10
   19.616 
 20
    6.327 
 11
   19.159 
 21
    6.454 
 0
LINE
 8
 1
 10
   19.159 
 20
    6.454 
 11
   18.676 
 21
    6.606 
 0
LINE
 8
 1
 10
   18.676 
 20
    6.606 
 11
   18.193 
 21
    6.759 
 0
LINE
 8
 1
 10
   18.193 
 20
    6.759 
 11
   17.685 
 21
    6.962 
 0
LINE
 8
 1
 10
   17.685 
 20
    6.962 
 11
   16.465 
 21
    4.370 
 0
LINE
 8
 1
 10
   16.465 
 20
    4.370 
 11
   15.728 
 21
    4.726 
 0
LINE
 8
 1
 10
   15.728 
 20
    4.726 
 11
   18.193 
 21
   10.011 
 0
LINE
 8
 1
 10
   18.193 
 20
   10.011 
 11
   18.473 
 21
    9.808 
 0
LINE
 8
 1
 10
   18.473 
 20
    9.808 
 11
   18.752 
 21
    9.604 
 0
LINE
 8
 1
 10
   18.752 
 20
    9.604 
 11
   19.057 
 21
    9.427 
 0
LINE
 8
 1
 10
   19.057 
 20
    9.427 
 11
   19.362 
 21
    9.249 
 0
LINE
 8
 1
 10
   19.362 
 20
    9.249 
 11
   19.667 
 21
    9.096 
 0
LINE
 8
 1
 10
   19.667 
 20
    9.096 
 11
   19.997 
 21
    8.944 
 0
LINE
 8
 1
 10
   19.997 
 20
    8.944 
 11
   20.328 
 21
    8.791 
 0
LINE
 8
 1
 10
   20.328 
 20
    8.791 
 11
   20.658 
 21
    8.664 
 0
LINE
 8
 1
 10
   20.658 
 20
    8.664 
 11
   21.014 
 21
    8.563 
 0
LINE
 8
 1
 10
   21.014 
 20
    8.563 
 11
   21.369 
 21
    8.461 
 0
LINE
 8
 1
 10
   21.369 
 20
    8.461 
 11
   21.700 
 21
    8.385 
 0
LINE
 8
 1
 10
   21.700 
 20
    8.385 
 11
   22.055 
 21
    8.309 
 0
LINE
 8
 1
 10
   22.055 
 20
    8.309 
 11
   22.386 
 21
    8.258 
 0
LINE
 8
 1
 10
   22.386 
 20
    8.258 
 11
   22.741 
 21
    8.207 
 0
LINE
 8
 1
 10
   22.741 
 20
    8.207 
 11
   23.072 
 21
    8.182 
 0
LINE
 8
 1
 10
   23.072 
 20
    8.182 
 11
   23.428 
 21
    8.182 
 0
LINE
 8
 1
 10
   23.428 
 20
    8.182 
 11
   23.682 
 21
    8.182 
 0
LINE
 8
 1
 10
   23.682 
 20
    8.182 
 11
   23.910 
 21
    8.207 
 0
LINE
 8
 1
 10
   23.910 
 20
    8.207 
 11
   24.139 
 21
    8.232 
 0
LINE
 8
 1
 10
   24.139 
 20
    8.232 
 11
   24.368 
 21
    8.283 
 0
LINE
 8
 1
 10
   24.368 
 20
    8.283 
 11
   24.571 
 21
    8.359 
 0
LINE
 8
 1
 10
   24.571 
 20
    8.359 
 11
   24.749 
 21
    8.410 
 0
LINE
 8
 1
 10
   24.749 
 20
    8.410 
 11
   24.927 
 21
    8.486 
 0
LINE
 8
 1
 10
   24.927 
 20
    8.486 
 11
   25.079 
 21
    8.588 
 0
LINE
 8
 1
 10
   25.079 
 20
    8.588 
 11
   25.232 
 21
    8.690 
 0
LINE
 8
 1
 10
   25.232 
 20
    8.690 
 11
   25.384 
 21
    8.842 
 0
LINE
 8
 1
 10
   25.384 
 20
    8.842 
 11
   25.537 
 21
    8.995 
 0
LINE
 8
 1
 10
   25.537 
 20
    8.995 
 11
   25.689 
 21
    9.147 
 0
LINE
 8
 1
 10
   25.689 
 20
    9.147 
 11
   25.816 
 21
    9.350 
 0
LINE
 8
 1
 10
   25.816 
 20
    9.350 
 11
   25.943 
 21
    9.554 
 0
LINE
 8
 1
 10
   25.943 
 20
    9.554 
 11
   26.070 
 21
    9.782 
 0
LINE
 8
 1
 10
   26.070 
 20
    9.782 
 11
   26.197 
 21
   10.011 
 0
LINE
 8
 1
 10
   26.197 
 20
   10.011 
 11
   26.909 
 21
    9.732 
 0
LINE
 8
 1
 10
   26.909 
 20
    9.732 
 11
   26.655 
 21
    9.020 
 0
LINE
 8
 1
 10
   26.655 
 20
    9.020 
 11
   26.426 
 21
    8.359 
 0
LINE
 8
 1
 10
   26.426 
 20
    8.359 
 11
   26.223 
 21
    7.750 
 0
LINE
 8
 1
 10
   26.223 
 20
    7.750 
 11
   26.019 
 21
    7.216 
 0
LINE
 8
 1
 10
   26.019 
 20
    7.216 
 11
   25.816 
 21
    6.708 
 0
LINE
 8
 1
 10
   25.816 
 20
    6.708 
 11
   25.664 
 21
    6.276 
 0
LINE
 8
 1
 10
   25.664 
 20
    6.276 
 11
   25.511 
 21
    5.895 
 0
LINE
 8
 1
 10
   25.511 
 20
    5.895 
 11
   25.359 
 21
    5.564 
 0
LINE
 8
 1
 10
   25.359 
 20
    5.564 
 11
   25.206 
 21
    5.183 
 0
LINE
 8
 1
 10
   25.206 
 20
    5.183 
 11
   24.952 
 21
    4.650 
 0
LINE
 8
 1
 10
   24.952 
 20
    4.650 
 11
   24.622 
 21
    3.963 
 0
LINE
 8
 1
 10
   24.622 
 20
    3.963 
 11
   24.215 
 21
    3.100 
 0
LINE
 8
 1
 10
   24.215 
 20
    3.100 
 11
   23.732 
 21
    2.109 
 0
LINE
 8
 1
 10
   23.732 
 20
    2.109 
 11
   23.173 
 21
    0.940 
 0
LINE
 8
 1
 10
   23.173 
 20
    0.940 
 11
   22.538 
 21
   -0.406 
 0
LINE
 8
 1
 10
   22.538 
 20
   -0.406 
 11
   21.827 
 21
   -1.880 
 0
LINE
 8
 1
 10
   21.827 
 20
   -1.880 
 11
   21.598 
 21
   -2.363 
 0
LINE
 8
 1
 10
   21.598 
 20
   -2.363 
 11
   21.420 
 21
   -2.845 
 0
LINE
 8
 1
 10
   21.420 
 20
   -2.845 
 11
   21.242 
 21
   -3.277 
 0
LINE
 8
 1
 10
   21.242 
 20
   -3.277 
 11
   21.115 
 21
   -3.684 
 0
LINE
 8
 1
 10
   21.115 
 20
   -3.684 
 11
   20.988 
 21
   -4.065 
 0
LINE
 8
 1
 10
   20.988 
 20
   -4.065 
 11
   20.912 
 21
   -4.395 
 0
LINE
 8
 1
 10
   20.912 
 20
   -4.395 
 11
   20.887 
 21
   -4.726 
 0
LINE
 8
 1
 10
   20.887 
 20
   -4.726 
 11
   20.861 
 21
   -5.005 
 0
LINE
 8
 1
 10
   20.861 
 20
   -5.005 
 11
   20.887 
 21
   -5.310 
 0
LINE
 8
 1
 10
   20.887 
 20
   -5.310 
 11
   20.912 
 21
   -5.590 
 0
LINE
 8
 1
 10
   20.912 
 20
   -5.590 
 11
   20.988 
 21
   -5.869 
 0
LINE
 8
 1
 10
   20.988 
 20
   -5.869 
 11
   21.115 
 21
   -6.149 
 0
LINE
 8
 1
 10
   21.115 
 20
   -6.149 
 11
   21.242 
 21
   -6.428 
 0
LINE
 8
 1
 10
   21.242 
 20
   -6.428 
 11
   21.420 
 21
   -6.708 
 0
LINE
 8
 1
 10
   21.420 
 20
   -6.708 
 11
   21.598 
 21
   -6.987 
 0
LINE
 8
 1
 10
   21.598 
 20
   -6.987 
 11
   21.827 
 21
   -7.241 
 0
LINE
 8
 1
 10
   21.827 
 20
   -7.241 
 11
   23.072 
 21
   -5.996 
 0
LINE
 8
 1
 10
   23.072 
 20
   -5.996 
 11
   23.656 
 21
   -6.581 
 0
LINE
 8
 1
 10
   23.656 
 20
   -6.581 
 11
   20.200 
 21
   -9.986 
 0
LINE
 8
 1
 10
    6.987 
 20
   -0.711 
 11
    5.183 
 21
    0.686 
 0
LINE
 8
 1
 10
    5.183 
 20
    0.686 
 11
    5.183 
 21
    6.886 
 0
LINE
 8
 1
 10
    5.183 
 20
    6.886 
 11
    5.513 
 21
    6.936 
 0
LINE
 8
 1
 10
    5.513 
 20
    6.936 
 11
    5.869 
 21
    6.987 
 0
LINE
 8
 1
 10
    5.869 
 20
    6.987 
 11
    6.200 
 21
    7.063 
 0
LINE
 8
 1
 10
    6.200 
 20
    7.063 
 11
    6.504 
 21
    7.165 
 0
LINE
 8
 1
 10
    6.504 
 20
    7.165 
 11
    6.835 
 21
    7.292 
 0
LINE
 8
 1
 10
    6.835 
 20
    7.292 
 11
    7.140 
 21
    7.445 
 0
LINE
 8
 1
 10
    7.140 
 20
    7.445 
 11
    7.445 
 21
    7.597 
 0
LINE
 8
 1
 10
    7.445 
 20
    7.597 
 11
    7.724 
 21
    7.775 
 0
LINE
 8
 1
 10
    7.724 
 20
    7.775 
 11
    9.579 
 21
    6.428 
 0
LINE
 8
 1
 10
    9.579 
 20
    6.428 
 11
    9.579 
 21
    1.702 
 0
LINE
 8
 1
 10
    9.579 
 20
    1.702 
 11
    6.987 
 21
   -0.711 
 0
ENDSEC
0
EOF