999
DXF created by Inkscape
  0
SECTION
  2
HEADER
  9
$ACADVER
  1
AC1014
  9
$HANDSEED
  5
FFFF
  9
$MEASUREMENT
 70
     1
  0
ENDSEC
  0
SECTION
  2
TABLES
  0
TABLE
  2
VPORT
  5
8
330
0
100
AcDbSymbolTable
 70
     4
  0
VPORT
  5
2E
330
8
100
AcDbSymbolTableRecord
100
AcDbViewportTableRecord
  2
*ACTIVE
 70
     0
 10
0.0
 20
0.0
 11
1.0
 21
1.0
 12
210.0
 22
148.5
 13
0.0
 23
0.0
 14
10.0
 24
10.0
 15
10.0
 25
10.0
 16
0.0
 26
0.0
 36
1.0
 17
0.0
 27
0.0
 37
0.0
 40
341.0
 41
1.24
 42
50.0
 43
0.0
 44
0.0
 50
0.0
 51
0.0
 71
     0
 72
   100
 73
     1
 74
     3
 75
     0
 76
     0
 77
     0
 78
     0
  0
ENDTAB
  0
TABLE
  2
LTYPE
  5
5
330
0
100
AcDbSymbolTable
 70
     1
  0
LTYPE
  5
14
330
5
100
AcDbSymbolTableRecord
100
AcDbLinetypeTableRecord
  2
BYBLOCK
 70
     0
  3

 72
    65
 73
     0
 40
0.0
  0
LTYPE
  5
15
330
5
100
AcDbSymbolTableRecord
100
AcDbLinetypeTableRecord
  2
BYLAYER
 70
     0
  3

 72
    65
 73
     0
 40
0.0
  0
LTYPE
  5
16
330
5
100
AcDbSymbolTableRecord
100
AcDbLinetypeTableRecord
  2
CONTINUOUS
 70
     0
  3
Solid line
 72
    65
 73
     0
 40
0.0
  0
ENDTAB
  0
TABLE
  2
LAYER
  5
2
330
0
100
AcDbSymbolTable
 70
1
  0
LAYER
  5
10
330
2
100
AcDbSymbolTableRecord
100
AcDbLayerTableRecord
  2
0
 70
     0
 62
     7
  6
CONTINUOUS
  0
ENDTAB
  0
TABLE
  2
STYLE
  5
3
330
0
100
AcDbSymbolTable
 70
     1
  0
STYLE
  5
11
330
3
100
AcDbSymbolTableRecord
100
AcDbTextStyleTableRecord
  2
STANDARD
 70
     0
 40
0.0
 41
1.0
 50
0.0
 71
     0
 42
2.5
  3
txt
  4

  0
ENDTAB
  0
TABLE
  2
VIEW
  5
6
330
0
100
AcDbSymbolTable
 70
     0
  0
ENDTAB
  0
TABLE
  2
UCS
  5
7
330
0
100
AcDbSymbolTable
 70
     0
  0
ENDTAB
  0
TABLE
  2
APPID
  5
9
330
0
100
AcDbSymbolTable
 70
     2
  0
APPID
  5
12
330
9
100
AcDbSymbolTableRecord
100
AcDbRegAppTableRecord
  2
ACAD
 70
     0
  0
ENDTAB
  0
TABLE
  2
DIMSTYLE
  5
A
330
0
100
AcDbSymbolTable
 70
     1
  0
DIMSTYLE
105
27
330
A
100
AcDbSymbolTableRecord
100
AcDbDimStyleTableRecord
  2
ISO-25
 70
     0
  3

  4

  5

  6

  7

 40
1.0
 41
2.5
 42
0.625
 43
3.75
 44
1.25
 45
0.0
 46
0.0
 47
0.0
 48
0.0
140
2.5
141
2.5
142
0.0
143
0.03937007874016
144
1.0
145
0.0
146
1.0
147
0.625
 71
     0
 72
     0
 73
     0
 74
     0
 75
     0
 76
     0
 77
     1
 78
     8
170
     0
171
     3
172
     1
173
     0
174
     0
175
     0
176
     0
177
     0
178
     0
270
     2
271
     2
272
     2
273
     2
274
     3
340
11
275
     0
280
     0
281
     0
282
     0
283
     0
284
     8
285
     0
286
     0
287
     3
288
     0
  0
ENDTAB
  0
TABLE
  2
BLOCK_RECORD
  5
1
330
0
100
AcDbSymbolTable
 70
     1
  0
BLOCK_RECORD
  5
1F
330
1
100
AcDbSymbolTableRecord
100
AcDbBlockTableRecord
  2
*MODEL_SPACE
  0
BLOCK_RECORD
  5
1B
330
1
100
AcDbSymbolTableRecord
100
AcDbBlockTableRecord
  2
*PAPER_SPACE
  0
ENDTAB
  0
ENDSEC
  0
SECTION
  2
BLOCKS
  0
BLOCK
  5
20
330
1F
100
AcDbEntity
  8
0
100
AcDbBlockBegin
  2
*MODEL_SPACE
 70
     0
 10
0.0
 20
0.0
 30
0.0
  3
*MODEL_SPACE
  1

  0
ENDBLK
  5
21
330
1F
100
AcDbEntity
  8
0
100
AcDbBlockEnd
  5
1D
330
1B
100
AcDbEntity
 67
     1
  8
0
100
AcDbBlockEnd
  0
ENDSEC
  0
SECTION
  2
ENTITIES
  0
SPLINE
  5
100
100
AcDbEntity
  8
0
 62
7
100
AcDbSpline
 70
8
 71
3
 72
8
 73
4
 74
0
 40
0
 40
0
 40
0
 40
0
 40
1
 40
1
 40
1
 40
1
 10
21.861969
 20
-23.611595
 30
0.0
 10
21.861967
 20
-24.284909
 30
0.0
 10
21.764160
 20
-24.778979
 30
0.0
 10
21.568549
 20
-25.093806
 30
0.0
  0
SPLINE
  5
101
100
AcDbEntity
  8
0
 62
7
100
AcDbSpline
 70
8
 71
3
 72
8
 73
4
 74
0
 40
0
 40
0
 40
0
 40
0
 40
1
 40
1
 40
1
 40
1
 10
21.568549
 20
-25.093806
 30
0.0
 10
21.372934
 20
-25.408633
 30
0.0
 10
21.071119
 20
-25.566049
 30
0.0
 10
20.663104
 20
-25.566049
 30
0.0
  0
SPLINE
  5
102
100
AcDbEntity
  8
0
 62
7
100
AcDbSpline
 70
8
 71
3
 72
8
 73
4
 74
0
 40
0
 40
0
 40
0
 40
0
 40
1
 40
1
 40
1
 40
1
 10
20.663104
 20
-25.566049
 30
0.0
 10
20.250049
 20
-25.566049
 30
0.0
 10
19.946974
 20
-25.405696
 30
0.0
 10
19.753881
 20
-25.084989
 30
0.0
  0
SPLINE
  5
103
100
AcDbEntity
  8
0
 62
7
100
AcDbSpline
 70
8
 71
3
 72
8
 73
4
 74
0
 40
0
 40
0
 40
0
 40
0
 40
1
 40
1
 40
1
 40
1
 10
19.753881
 20
-25.084989
 30
0.0
 10
19.560786
 20
-24.764286
 30
0.0
 10
19.464239
 20
-24.274834
 30
0.0
 10
19.464239
 20
-23.616632
 30
0.0
  0
SPLINE
  5
104
100
AcDbEntity
  8
0
 62
7
100
AcDbSpline
 70
8
 71
3
 72
8
 73
4
 74
0
 40
0
 40
0
 40
0
 40
0
 40
1
 40
1
 40
1
 40
1
 10
19.464239
 20
-23.616632
 30
0.0
 10
19.464239
 20
-22.939964
 30
0.0
 10
19.562045
 20
-22.445055
 30
0.0
 10
19.757659
 20
-22.131903
 30
0.0
  0
SPLINE
  5
105
100
AcDbEntity
  8
0
 62
7
100
AcDbSpline
 70
8
 71
3
 72
8
 73
4
 74
0
 40
0
 40
0
 40
0
 40
0
 40
1
 40
1
 40
1
 40
1
 10
19.757659
 20
-22.131903
 30
0.0
 10
19.953271
 20
-21.818758
 30
0.0
 10
20.255086
 20
-21.662183
 30
0.0
 10
20.663104
 20
-21.662180
 30
0.0
  0
SPLINE
  5
106
100
AcDbEntity
  8
0
 62
7
100
AcDbSpline
 70
8
 71
3
 72
8
 73
4
 74
0
 40
0
 40
0
 40
0
 40
0
 40
1
 40
1
 40
1
 40
1
 10
20.663104
 20
-21.662180
 30
0.0
 10
21.076157
 20
-21.662183
 30
0.0
 10
21.379231
 20
-21.824215
 30
0.0
 10
21.572327
 20
-22.148275
 30
0.0
  0
SPLINE
  5
107
100
AcDbEntity
  8
0
 62
7
100
AcDbSpline
 70
8
 71
3
 72
8
 73
4
 74
0
 40
0
 40
0
 40
0
 40
0
 40
1
 40
1
 40
1
 40
1
 10
21.572327
 20
-22.148275
 30
0.0
 10
21.765420
 20
-22.472340
 30
0.0
 10
21.861967
 20
-22.960114
 30
0.0
 10
21.861969
 20
-23.611595
 30
0.0
  0
SPLINE
  5
108
100
AcDbEntity
  8
0
 62
7
100
AcDbSpline
 70
8
 71
3
 72
8
 73
4
 74
0
 40
0
 40
0
 40
0
 40
0
 40
1
 40
1
 40
1
 40
1
 10
21.217201
 20
-24.755049
 30
0.0
 10
21.265894
 20
-24.630798
 30
0.0
 10
21.300314
 20
-24.473806
 30
0.0
 10
21.320465
 20
-24.284068
 30
0.0
  0
SPLINE
  5
109
100
AcDbEntity
  8
0
 62
7
100
AcDbSpline
 70
8
 71
3
 72
8
 73
4
 74
0
 40
0
 40
0
 40
0
 40
0
 40
1
 40
1
 40
1
 40
1
 10
21.320465
 20
-24.284068
 30
0.0
 10
21.340613
 20
-24.094333
 30
0.0
 10
21.350687
 20
-23.870175
 30
0.0
 10
21.350687
 20
-23.611595
 30
0.0
  0
SPLINE
  5
10a
100
AcDbEntity
  8
0
 62
7
100
AcDbSpline
 70
8
 71
3
 72
8
 73
4
 74
0
 40
0
 40
0
 40
0
 40
0
 40
1
 40
1
 40
1
 40
1
 10
21.350687
 20
-23.611595
 30
0.0
 10
21.350684
 20
-23.354697
 30
0.0
 10
21.340608
 20
-23.131380
 30
0.0
 10
21.320465
 20
-22.941641
 30
0.0
  0
SPLINE
  5
10b
100
AcDbEntity
  8
0
 62
7
100
AcDbSpline
 70
8
 71
3
 72
8
 73
4
 74
0
 40
0
 40
0
 40
0
 40
0
 40
1
 40
1
 40
1
 40
1
 10
21.320465
 20
-22.941641
 30
0.0
 10
21.300311
 20
-22.751907
 30
0.0
 10
21.265053
 20
-22.594074
 30
0.0
 10
21.214683
 20
-22.468140
 30
0.0
  0
SPLINE
  5
10c
100
AcDbEntity
  8
0
 62
7
100
AcDbSpline
 70
8
 71
3
 72
8
 73
4
 74
0
 40
0
 40
0
 40
0
 40
0
 40
1
 40
1
 40
1
 40
1
 10
21.214683
 20
-22.468140
 30
0.0
 10
21.164308
 20
-22.340532
 30
0.0
 10
21.095046
 20
-22.243565
 30
0.0
 10
21.006896
 20
-22.177238
 30
0.0
  0
SPLINE
  5
10d
100
AcDbEntity
  8
0
 62
7
100
AcDbSpline
 70
8
 71
3
 72
8
 73
4
 74
0
 40
0
 40
0
 40
0
 40
0
 40
1
 40
1
 40
1
 40
1
 10
21.006896
 20
-22.177238
 30
0.0
 10
20.918743
 20
-22.110918
 30
0.0
 10
20.804146
 20
-22.077756
 30
0.0
 10
20.663104
 20
-22.077753
 30
0.0
  0
SPLINE
  5
10e
100
AcDbEntity
  8
0
 62
7
100
AcDbSpline
 70
8
 71
3
 72
8
 73
4
 74
0
 40
0
 40
0
 40
0
 40
0
 40
1
 40
1
 40
1
 40
1
 10
20.663104
 20
-22.077753
 30
0.0
 10
20.523739
 20
-22.077756
 30
0.0
 10
20.409142
 20
-22.110920
 30
0.0
 10
20.319312
 20
-22.177238
 30
0.0
  0
SPLINE
  5
10f
100
AcDbEntity
  8
0
 62
7
100
AcDbSpline
 70
8
 71
3
 72
8
 73
4
 74
0
 40
0
 40
0
 40
0
 40
0
 40
1
 40
1
 40
1
 40
1
 10
20.319312
 20
-22.177238
 30
0.0
 10
20.229480
 20
-22.243565
 30
0.0
 10
20.158539
 20
-22.342211
 30
0.0
 10
20.106488
 20
-22.473177
 30
0.0
  0
SPLINE
  5
110
100
AcDbEntity
  8
0
 62
7
100
AcDbSpline
 70
8
 71
3
 72
8
 73
4
 74
0
 40
0
 40
0
 40
0
 40
0
 40
1
 40
1
 40
1
 40
1
 10
20.106488
 20
-22.473177
 30
0.0
 10
20.056114
 20
-22.600790
 30
0.0
 10
20.021694
 20
-22.761981
 30
0.0
 10
20.003224
 20
-22.956753
 30
0.0
  0
SPLINE
  5
111
100
AcDbEntity
  8
0
 62
7
100
AcDbSpline
 70
8
 71
3
 72
8
 73
4
 74
0
 40
0
 40
0
 40
0
 40
0
 40
1
 40
1
 40
1
 40
1
 10
20.003224
 20
-22.956753
 30
0.0
 10
19.984753
 20
-23.151528
 30
0.0
 10
19.975519
 20
-23.371488
 30
0.0
 10
19.975519
 20
-23.616632
 30
0.0
  0
SPLINE
  5
112
100
AcDbEntity
  8
0
 62
7
100
AcDbSpline
 70
8
 71
3
 72
8
 73
4
 74
0
 40
0
 40
0
 40
0
 40
0
 40
1
 40
1
 40
1
 40
1
 10
19.975519
 20
-23.616632
 30
0.0
 10
19.975518
 20
-23.878571
 30
0.0
 10
19.983494
 20
-24.097691
 30
0.0
 10
19.999448
 20
-24.273993
 30
0.0
  0
SPLINE
  5
113
100
AcDbEntity
  8
0
 62
7
100
AcDbSpline
 70
8
 71
3
 72
8
 73
4
 74
0
 40
0
 40
0
 40
0
 40
0
 40
1
 40
1
 40
1
 40
1
 10
19.999448
 20
-24.273993
 30
0.0
 10
20.015397
 20
-24.450297
 30
0.0
 10
20.050240
 20
-24.608133
 30
0.0
 10
20.103971
 20
-24.747494
 30
0.0
  0
SPLINE
  5
114
100
AcDbEntity
  8
0
 62
7
100
AcDbSpline
 70
8
 71
3
 72
8
 73
4
 74
0
 40
0
 40
0
 40
0
 40
0
 40
1
 40
1
 40
1
 40
1
 10
20.103971
 20
-24.747494
 30
0.0
 10
20.152664
 20
-24.876786
 30
0.0
 10
20.221926
 20
-24.976269
 30
0.0
 10
20.311758
 20
-25.045953
 30
0.0
  0
SPLINE
  5
115
100
AcDbEntity
  8
0
 62
7
100
AcDbSpline
 70
8
 71
3
 72
8
 73
4
 74
0
 40
0
 40
0
 40
0
 40
0
 40
1
 40
1
 40
1
 40
1
 10
20.311758
 20
-25.045953
 30
0.0
 10
20.401587
 20
-25.115633
 30
0.0
 10
20.518704
 20
-25.150476
 30
0.0
 10
20.663106
 20
-25.150474
 30
0.0
  0
SPLINE
  5
116
100
AcDbEntity
  8
0
 62
7
100
AcDbSpline
 70
8
 71
3
 72
8
 73
4
 74
0
 40
0
 40
0
 40
0
 40
0
 40
1
 40
1
 40
1
 40
1
 10
20.663106
 20
-25.150474
 30
0.0
 10
20.802468
 20
-25.150476
 30
0.0
 10
20.917065
 20
-25.117312
 30
0.0
 10
21.006898
 20
-25.050990
 30
0.0
  0
SPLINE
  5
117
100
AcDbEntity
  8
0
 62
7
100
AcDbSpline
 70
8
 71
3
 72
8
 73
4
 74
0
 40
0
 40
0
 40
0
 40
0
 40
1
 40
1
 40
1
 40
1
 10
21.006898
 20
-25.050990
 30
0.0
 10
21.096727
 20
-24.984665
 30
0.0
 10
21.166829
 20
-24.886020
 30
0.0
 10
21.217203
 20
-24.755049
 30
0.0
  0
LWPOLYLINE
  5
118
100
AcDbEntity
  8
0
 62
7
100
AcDbPolyline
 90
2
 70
0
 10
21.861969
 20
-23.611595
 30
0.0
 10
21.861969
 20
-23.611595
 30
0.0
  0
LWPOLYLINE
  5
119
100
AcDbEntity
  8
0
 62
7
100
AcDbPolyline
 90
2
 70
0
 10
21.217203
 20
-24.755049
 30
0.0
 10
21.217201
 20
-24.755049
 30
0.0
  0
SPLINE
  5
11a
100
AcDbEntity
  8
0
 62
7
100
AcDbSpline
 70
8
 71
3
 72
8
 73
4
 74
0
 40
0
 40
0
 40
0
 40
0
 40
1
 40
1
 40
1
 40
1
 10
22.645262
 20
-22.249019
 30
0.0
 10
22.902160
 20
-22.249022
 30
0.0
 10
23.091477
 20
-22.212505
 30
0.0
 10
23.213211
 20
-22.139459
 30
0.0
  0
SPLINE
  5
11b
100
AcDbEntity
  8
0
 62
7
100
AcDbSpline
 70
8
 71
3
 72
8
 73
4
 74
0
 40
0
 40
0
 40
0
 40
0
 40
1
 40
1
 40
1
 40
1
 10
23.213211
 20
-22.139459
 30
0.0
 10
23.334944
 20
-22.066422
 30
0.0
 10
23.403366
 20
-21.928318
 30
0.0
 10
23.418479
 20
-21.725145
 30
0.0
  0
LWPOLYLINE
  5
11c
100
AcDbEntity
  8
0
 62
7
100
AcDbPolyline
 90
7
 70
0
 10
24.473783
 20
-25.487969
 30
0.0
 10
22.645262
 20
-25.487969
 30
0.0
 10
22.645262
 20
-25.105140
 30
0.0
 10
23.325290
 20
-25.105140
 30
0.0
 10
23.325290
 20
-22.591552
 30
0.0
 10
22.645262
 20
-22.591552
 30
0.0
 10
22.645262
 20
-22.249019
 30
0.0
  0
LWPOLYLINE
  5
11d
100
AcDbEntity
  8
0
 62
7
100
AcDbPolyline
 90
5
 70
0
 10
23.418479
 20
-21.725145
 30
0.0
 10
23.808866
 20
-21.725145
 30
0.0
 10
23.808866
 20
-25.105140
 30
0.0
 10
24.473783
 20
-25.105140
 30
0.0
 10
24.473783
 20
-25.487969
 30
0.0
  0
SPLINE
  5
11e
100
AcDbEntity
  8
0
 62
7
100
AcDbSpline
 70
8
 71
3
 72
8
 73
4
 74
0
 40
0
 40
0
 40
0
 40
0
 40
1
 40
1
 40
1
 40
1
 10
29.065234
 20
-23.611595
 30
0.0
 10
29.065234
 20
-24.284909
 30
0.0
 10
28.967427
 20
-24.778979
 30
0.0
 10
28.771816
 20
-25.093806
 30
0.0
  0
SPLINE
  5
11f
100
AcDbEntity
  8
0
 62
7
100
AcDbSpline
 70
8
 71
3
 72
8
 73
4
 74
0
 40
0
 40
0
 40
0
 40
0
 40
1
 40
1
 40
1
 40
1
 10
28.771816
 20
-25.093806
 30
0.0
 10
28.576199
 20
-25.408633
 30
0.0
 10
28.274385
 20
-25.566049
 30
0.0
 10
27.866370
 20
-25.566049
 30
0.0
  0
SPLINE
  5
120
100
AcDbEntity
  8
0
 62
7
100
AcDbSpline
 70
8
 71
3
 72
8
 73
4
 74
0
 40
0
 40
0
 40
0
 40
0
 40
1
 40
1
 40
1
 40
1
 10
27.866370
 20
-25.566049
 30
0.0
 10
27.453315
 20
-25.566049
 30
0.0
 10
27.150240
 20
-25.405696
 30
0.0
 10
26.957147
 20
-25.084989
 30
0.0
  0
SPLINE
  5
121
100
AcDbEntity
  8
0
 62
7
100
AcDbSpline
 70
8
 71
3
 72
8
 73
4
 74
0
 40
0
 40
0
 40
0
 40
0
 40
1
 40
1
 40
1
 40
1
 10
26.957147
 20
-25.084989
 30
0.0
 10
26.764052
 20
-24.764286
 30
0.0
 10
26.667505
 20
-24.274834
 30
0.0
 10
26.667505
 20
-23.616632
 30
0.0
  0
SPLINE
  5
122
100
AcDbEntity
  8
0
 62
7
100
AcDbSpline
 70
8
 71
3
 72
8
 73
4
 74
0
 40
0
 40
0
 40
0
 40
0
 40
1
 40
1
 40
1
 40
1
 10
26.667505
 20
-23.616632
 30
0.0
 10
26.667505
 20
-22.939964
 30
0.0
 10
26.765311
 20
-22.445055
 30
0.0
 10
26.960925
 20
-22.131903
 30
0.0
  0
SPLINE
  5
123
100
AcDbEntity
  8
0
 62
7
100
AcDbSpline
 70
8
 71
3
 72
8
 73
4
 74
0
 40
0
 40
0
 40
0
 40
0
 40
1
 40
1
 40
1
 40
1
 10
26.960925
 20
-22.131903
 30
0.0
 10
27.156537
 20
-21.818758
 30
0.0
 10
27.458352
 20
-21.662183
 30
0.0
 10
27.866370
 20
-21.662180
 30
0.0
  0
SPLINE
  5
124
100
AcDbEntity
  8
0
 62
7
100
AcDbSpline
 70
8
 71
3
 72
8
 73
4
 74
0
 40
0
 40
0
 40
0
 40
0
 40
1
 40
1
 40
1
 40
1
 10
27.866370
 20
-21.662180
 30
0.0
 10
28.279423
 20
-21.662183
 30
0.0
 10
28.582496
 20
-21.824215
 30
0.0
 10
28.775592
 20
-22.148275
 30
0.0
  0
SPLINE
  5
125
100
AcDbEntity
  8
0
 62
7
100
AcDbSpline
 70
8
 71
3
 72
8
 73
4
 74
0
 40
0
 40
0
 40
0
 40
0
 40
1
 40
1
 40
1
 40
1
 10
28.775592
 20
-22.148275
 30
0.0
 10
28.968686
 20
-22.472340
 30
0.0
 10
29.065234
 20
-22.960114
 30
0.0
 10
29.065234
 20
-23.611595
 30
0.0
  0
LWPOLYLINE
  5
126
100
AcDbEntity
  8
0
 62
7
100
AcDbPolyline
 90
5
 70
0
 10
25.977402
 20
-25.487969
 30
0.0
 10
25.375450
 20
-25.487969
 30
0.0
 10
25.375450
 20
-24.770162
 30
0.0
 10
25.977402
 20
-24.770162
 30
0.0
 10
25.977402
 20
-25.487969
 30
0.0
  0
SPLINE
  5
127
100
AcDbEntity
  8
0
 62
7
100
AcDbSpline
 70
8
 71
3
 72
8
 73
4
 74
0
 40
0
 40
0
 40
0
 40
0
 40
1
 40
1
 40
1
 40
1
 10
28.420466
 20
-24.755049
 30
0.0
 10
28.469161
 20
-24.630798
 30
0.0
 10
28.503581
 20
-24.473806
 30
0.0
 10
28.523732
 20
-24.284068
 30
0.0
  0
SPLINE
  5
128
100
AcDbEntity
  8
0
 62
7
100
AcDbSpline
 70
8
 71
3
 72
8
 73
4
 74
0
 40
0
 40
0
 40
0
 40
0
 40
1
 40
1
 40
1
 40
1
 10
28.523732
 20
-24.284068
 30
0.0
 10
28.543882
 20
-24.094333
 30
0.0
 10
28.553952
 20
-23.870175
 30
0.0
 10
28.553952
 20
-23.611595
 30
0.0
  0
SPLINE
  5
129
100
AcDbEntity
  8
0
 62
7
100
AcDbSpline
 70
8
 71
3
 72
8
 73
4
 74
0
 40
0
 40
0
 40
0
 40
0
 40
1
 40
1
 40
1
 40
1
 10
28.553952
 20
-23.611595
 30
0.0
 10
28.553949
 20
-23.354697
 30
0.0
 10
28.543877
 20
-23.131380
 30
0.0
 10
28.523732
 20
-22.941641
 30
0.0
  0
SPLINE
  5
12a
100
AcDbEntity
  8
0
 62
7
100
AcDbSpline
 70
8
 71
3
 72
8
 73
4
 74
0
 40
0
 40
0
 40
0
 40
0
 40
1
 40
1
 40
1
 40
1
 10
28.523732
 20
-22.941641
 30
0.0
 10
28.503581
 20
-22.751907
 30
0.0
 10
28.468320
 20
-22.594074
 30
0.0
 10
28.417949
 20
-22.468140
 30
0.0
  0
SPLINE
  5
12b
100
AcDbEntity
  8
0
 62
7
100
AcDbSpline
 70
8
 71
3
 72
8
 73
4
 74
0
 40
0
 40
0
 40
0
 40
0
 40
1
 40
1
 40
1
 40
1
 10
28.417949
 20
-22.468140
 30
0.0
 10
28.367575
 20
-22.340532
 30
0.0
 10
28.298312
 20
-22.243565
 30
0.0
 10
28.210162
 20
-22.177238
 30
0.0
  0
SPLINE
  5
12c
100
AcDbEntity
  8
0
 62
7
100
AcDbSpline
 70
8
 71
3
 72
8
 73
4
 74
0
 40
0
 40
0
 40
0
 40
0
 40
1
 40
1
 40
1
 40
1
 10
28.210162
 20
-22.177238
 30
0.0
 10
28.122008
 20
-22.110918
 30
0.0
 10
28.007411
 20
-22.077756
 30
0.0
 10
27.866370
 20
-22.077753
 30
0.0
  0
SPLINE
  5
12d
100
AcDbEntity
  8
0
 62
7
100
AcDbSpline
 70
8
 71
3
 72
8
 73
4
 74
0
 40
0
 40
0
 40
0
 40
0
 40
1
 40
1
 40
1
 40
1
 10
27.866370
 20
-22.077753
 30
0.0
 10
27.727005
 20
-22.077756
 30
0.0
 10
27.612407
 20
-22.110920
 30
0.0
 10
27.522578
 20
-22.177238
 30
0.0
  0
SPLINE
  5
12e
100
AcDbEntity
  8
0
 62
7
100
AcDbSpline
 70
8
 71
3
 72
8
 73
4
 74
0
 40
0
 40
0
 40
0
 40
0
 40
1
 40
1
 40
1
 40
1
 10
27.522578
 20
-22.177238
 30
0.0
 10
27.432746
 20
-22.243565
 30
0.0
 10
27.361805
 20
-22.342211
 30
0.0
 10
27.309754
 20
-22.473177
 30
0.0
  0
SPLINE
  5
12f
100
AcDbEntity
  8
0
 62
7
100
AcDbSpline
 70
8
 71
3
 72
8
 73
4
 74
0
 40
0
 40
0
 40
0
 40
0
 40
1
 40
1
 40
1
 40
1
 10
27.309754
 20
-22.473177
 30
0.0
 10
27.259379
 20
-22.600790
 30
0.0
 10
27.224960
 20
-22.761981
 30
0.0
 10
27.206490
 20
-22.956753
 30
0.0
  0
SPLINE
  5
130
100
AcDbEntity
  8
0
 62
7
100
AcDbSpline
 70
8
 71
3
 72
8
 73
4
 74
0
 40
0
 40
0
 40
0
 40
0
 40
1
 40
1
 40
1
 40
1
 10
27.206490
 20
-22.956753
 30
0.0
 10
27.188019
 20
-23.151528
 30
0.0
 10
27.178787
 20
-23.371488
 30
0.0
 10
27.178787
 20
-23.616632
 30
0.0
  0
SPLINE
  5
131
100
AcDbEntity
  8
0
 62
7
100
AcDbSpline
 70
8
 71
3
 72
8
 73
4
 74
0
 40
0
 40
0
 40
0
 40
0
 40
1
 40
1
 40
1
 40
1
 10
27.178787
 20
-23.616632
 30
0.0
 10
27.178787
 20
-23.878571
 30
0.0
 10
27.186763
 20
-24.097691
 30
0.0
 10
27.202717
 20
-24.273993
 30
0.0
  0
SPLINE
  5
132
100
AcDbEntity
  8
0
 62
7
100
AcDbSpline
 70
8
 71
3
 72
8
 73
4
 74
0
 40
0
 40
0
 40
0
 40
0
 40
1
 40
1
 40
1
 40
1
 10
27.202717
 20
-24.273993
 30
0.0
 10
27.218665
 20
-24.450297
 30
0.0
 10
27.253509
 20
-24.608133
 30
0.0
 10
27.307240
 20
-24.747494
 30
0.0
  0
SPLINE
  5
133
100
AcDbEntity
  8
0
 62
7
100
AcDbSpline
 70
8
 71
3
 72
8
 73
4
 74
0
 40
0
 40
0
 40
0
 40
0
 40
1
 40
1
 40
1
 40
1
 10
27.307240
 20
-24.747494
 30
0.0
 10
27.355933
 20
-24.876786
 30
0.0
 10
27.425194
 20
-24.976269
 30
0.0
 10
27.515027
 20
-25.045953
 30
0.0
  0
SPLINE
  5
134
100
AcDbEntity
  8
0
 62
7
100
AcDbSpline
 70
8
 71
3
 72
8
 73
4
 74
0
 40
0
 40
0
 40
0
 40
0
 40
1
 40
1
 40
1
 40
1
 10
27.515027
 20
-25.045953
 30
0.0
 10
27.604856
 20
-25.115633
 30
0.0
 10
27.721972
 20
-25.150476
 30
0.0
 10
27.866374
 20
-25.150474
 30
0.0
  0
SPLINE
  5
135
100
AcDbEntity
  8
0
 62
7
100
AcDbSpline
 70
8
 71
3
 72
8
 73
4
 74
0
 40
0
 40
0
 40
0
 40
0
 40
1
 40
1
 40
1
 40
1
 10
27.866374
 20
-25.150474
 30
0.0
 10
28.005737
 20
-25.150476
 30
0.0
 10
28.120334
 20
-25.117312
 30
0.0
 10
28.210167
 20
-25.050990
 30
0.0
  0
SPLINE
  5
136
100
AcDbEntity
  8
0
 62
7
100
AcDbSpline
 70
8
 71
3
 72
8
 73
4
 74
0
 40
0
 40
0
 40
0
 40
0
 40
1
 40
1
 40
1
 40
1
 10
28.210167
 20
-25.050990
 30
0.0
 10
28.299997
 20
-24.984665
 30
0.0
 10
28.370098
 20
-24.886020
 30
0.0
 10
28.420472
 20
-24.755049
 30
0.0
  0
LWPOLYLINE
  5
137
100
AcDbEntity
  8
0
 62
7
100
AcDbPolyline
 90
2
 70
0
 10
29.065234
 20
-23.611595
 30
0.0
 10
29.065234
 20
-23.611595
 30
0.0
  0
LWPOLYLINE
  5
138
100
AcDbEntity
  8
0
 62
7
100
AcDbPolyline
 90
2
 70
0
 10
28.420472
 20
-24.755049
 30
0.0
 10
28.420466
 20
-24.755049
 30
0.0
  0
SPLINE
  5
139
100
AcDbEntity
  8
0
 62
7
100
AcDbSpline
 70
8
 71
3
 72
8
 73
4
 74
0
 40
0
 40
0
 40
0
 40
0
 40
1
 40
1
 40
1
 40
1
 10
29.848528
 20
-22.249019
 30
0.0
 10
30.105426
 20
-22.249022
 30
0.0
 10
30.294744
 20
-22.212505
 30
0.0
 10
30.416477
 20
-22.139459
 30
0.0
  0
SPLINE
  5
13a
100
AcDbEntity
  8
0
 62
7
100
AcDbSpline
 70
8
 71
3
 72
8
 73
4
 74
0
 40
0
 40
0
 40
0
 40
0
 40
1
 40
1
 40
1
 40
1
 10
30.416477
 20
-22.139459
 30
0.0
 10
30.538208
 20
-22.066422
 30
0.0
 10
30.606633
 20
-21.928318
 30
0.0
 10
30.621746
 20
-21.725145
 30
0.0
  0
LWPOLYLINE
  5
13b
100
AcDbEntity
  8
0
 62
7
100
AcDbPolyline
 90
7
 70
0
 10
31.677048
 20
-25.487969
 30
0.0
 10
29.848528
 20
-25.487969
 30
0.0
 10
29.848528
 20
-25.105140
 30
0.0
 10
30.528556
 20
-25.105140
 30
0.0
 10
30.528556
 20
-22.591552
 30
0.0
 10
29.848528
 20
-22.591552
 30
0.0
 10
29.848528
 20
-22.249019
 30
0.0
  0
LWPOLYLINE
  5
13c
100
AcDbEntity
  8
0
 62
7
100
AcDbPolyline
 90
5
 70
0
 10
30.621746
 20
-21.725145
 30
0.0
 10
31.012133
 20
-21.725145
 30
0.0
 10
31.012133
 20
-25.105140
 30
0.0
 10
31.677048
 20
-25.105140
 30
0.0
 10
31.677048
 20
-25.487969
 30
0.0
  0
LWPOLYLINE
  5
13d
100
AcDbEntity
  8
0
 62
7
100
AcDbPolyline
 90
5
 70
0
 10
33.180666
 20
-25.487969
 30
0.0
 10
32.578717
 20
-25.487969
 30
0.0
 10
32.578717
 20
-24.770162
 30
0.0
 10
33.180666
 20
-24.770162
 30
0.0
 10
33.180666
 20
-25.487969
 30
0.0
  0
SPLINE
  5
13e
100
AcDbEntity
  8
0
 62
7
100
AcDbSpline
 70
8
 71
3
 72
8
 73
4
 74
0
 40
0
 40
0
 40
0
 40
0
 40
1
 40
1
 40
1
 40
1
 10
34.230934
 20
-22.249019
 30
0.0
 10
34.487832
 20
-22.249022
 30
0.0
 10
34.677150
 20
-22.212505
 30
0.0
 10
34.798883
 20
-22.139459
 30
0.0
  0
SPLINE
  5
13f
100
AcDbEntity
  8
0
 62
7
100
AcDbSpline
 70
8
 71
3
 72
8
 73
4
 74
0
 40
0
 40
0
 40
0
 40
0
 40
1
 40
1
 40
1
 40
1
 10
34.798883
 20
-22.139459
 30
0.0
 10
34.920617
 20
-22.066422
 30
0.0
 10
34.989039
 20
-21.928318
 30
0.0
 10
35.004152
 20
-21.725145
 30
0.0
  0
LWPOLYLINE
  5
140
100
AcDbEntity
  8
0
 62
7
100
AcDbPolyline
 90
7
 70
0
 10
36.059457
 20
-25.487969
 30
0.0
 10
34.230934
 20
-25.487969
 30
0.0
 10
34.230934
 20
-25.105140
 30
0.0
 10
34.910962
 20
-25.105140
 30
0.0
 10
34.910962
 20
-22.591552
 30
0.0
 10
34.230934
 20
-22.591552
 30
0.0
 10
34.230934
 20
-22.249019
 30
0.0
  0
SPLINE
  5
141
100
AcDbEntity
  8
0
 62
7
100
AcDbSpline
 70
8
 71
3
 72
8
 73
4
 74
0
 40
0
 40
0
 40
0
 40
0
 40
1
 40
1
 40
1
 40
1
 10
38.578082
 20
-23.279136
 30
0.0
 10
38.578076
 20
-23.023918
 30
0.0
 10
38.554544
 20
-22.816132
 30
0.0
 10
38.507560
 20
-22.655777
 30
0.0
  0
SPLINE
  5
142
100
AcDbEntity
  8
0
 62
7
100
AcDbSpline
 70
8
 71
3
 72
8
 73
4
 74
0
 40
0
 40
0
 40
0
 40
0
 40
1
 40
1
 40
1
 40
1
 10
38.507560
 20
-22.655777
 30
0.0
 10
38.460567
 20
-22.495428
 30
0.0
 10
38.395896
 20
-22.371595
 30
0.0
 10
38.313622
 20
-22.284280
 30
0.0
  0
SPLINE
  5
143
100
AcDbEntity
  8
0
 62
7
100
AcDbSpline
 70
8
 71
3
 72
8
 73
4
 74
0
 40
0
 40
0
 40
0
 40
0
 40
1
 40
1
 40
1
 40
1
 10
38.313622
 20
-22.284280
 30
0.0
 10
38.239742
 20
-22.203687
 30
0.0
 10
38.165021
 20
-22.148278
 30
0.0
 10
38.089465
 20
-22.118051
 30
0.0
  0
SPLINE
  5
144
100
AcDbEntity
  8
0
 62
7
100
AcDbSpline
 70
8
 71
3
 72
8
 73
4
 74
0
 40
0
 40
0
 40
0
 40
0
 40
1
 40
1
 40
1
 40
1
 10
38.089465
 20
-22.118051
 30
0.0
 10
38.013902
 20
-22.087829
 30
0.0
 10
37.930791
 20
-22.072721
 30
0.0
 10
37.840121
 20
-22.072716
 30
0.0
  0
SPLINE
  5
145
100
AcDbEntity
  8
0
 62
7
100
AcDbSpline
 70
8
 71
3
 72
8
 73
4
 74
0
 40
0
 40
0
 40
0
 40
0
 40
1
 40
1
 40
1
 40
1
 10
37.840121
 20
-22.072716
 30
0.0
 10
37.633594
 20
-22.072719
 30
0.0
 10
37.469044
 20
-22.146599
 30
0.0
 10
37.346472
 20
-22.294355
 30
0.0
  0
SPLINE
  5
146
100
AcDbEntity
  8
0
 62
7
100
AcDbSpline
 70
8
 71
3
 72
8
 73
4
 74
0
 40
0
 40
0
 40
0
 40
0
 40
1
 40
1
 40
1
 40
1
 10
37.346472
 20
-22.294355
 30
0.0
 10
37.223898
 20
-22.442117
 30
0.0
 10
37.162613
 20
-22.656200
 30
0.0
 10
37.162613
 20
-22.936604
 30
0.0
  0
SPLINE
  5
147
100
AcDbEntity
  8
0
 62
7
100
AcDbSpline
 70
8
 71
3
 72
8
 73
4
 74
0
 40
0
 40
0
 40
0
 40
0
 40
1
 40
1
 40
1
 40
1
 10
37.162613
 20
-22.936604
 30
0.0
 10
37.162613
 20
-23.094440
 30
0.0
 10
37.182792
 20
-23.224569
 30
0.0
 10
37.223057
 20
-23.326991
 30
0.0
  0
SPLINE
  5
148
100
AcDbEntity
  8
0
 62
7
100
AcDbSpline
 70
8
 71
3
 72
8
 73
4
 74
0
 40
0
 40
0
 40
0
 40
0
 40
1
 40
1
 40
1
 40
1
 10
37.223057
 20
-23.326991
 30
0.0
 10
37.263344
 20
-23.429417
 30
0.0
 10
37.328842
 20
-23.517569
 30
0.0
 10
37.419511
 20
-23.591446
 30
0.0
  0
SPLINE
  5
149
100
AcDbEntity
  8
0
 62
7
100
AcDbSpline
 70
8
 71
3
 72
8
 73
4
 74
0
 40
0
 40
0
 40
0
 40
0
 40
1
 40
1
 40
1
 40
1
 10
37.419511
 20
-23.591446
 30
0.0
 10
37.483316
 20
-23.643500
 30
0.0
 10
37.555514
 20
-23.678341
 30
0.0
 10
37.636117
 20
-23.695970
 30
0.0
  0
SPLINE
  5
14a
100
AcDbEntity
  8
0
 62
7
100
AcDbSpline
 70
8
 71
3
 72
8
 73
4
 74
0
 40
0
 40
0
 40
0
 40
0
 40
1
 40
1
 40
1
 40
1
 10
37.636117
 20
-23.695970
 30
0.0
 10
37.716708
 20
-23.713600
 30
0.0
 10
37.803184
 20
-23.722414
 30
0.0
 10
37.895536
 20
-23.722414
 30
0.0
  0
SPLINE
  5
14b
100
AcDbEntity
  8
0
 62
7
100
AcDbSpline
 70
8
 71
3
 72
8
 73
4
 74
0
 40
0
 40
0
 40
0
 40
0
 40
1
 40
1
 40
1
 40
1
 10
37.895536
 20
-23.722414
 30
0.0
 10
38.002995
 20
-23.722416
 30
0.0
 10
38.118847
 20
-23.703525
 30
0.0
 10
38.243101
 20
-23.665745
 30
0.0
  0
SPLINE
  5
14c
100
AcDbEntity
  8
0
 62
7
100
AcDbSpline
 70
8
 71
3
 72
8
 73
4
 74
0
 40
0
 40
0
 40
0
 40
0
 40
1
 40
1
 40
1
 40
1
 10
38.243101
 20
-23.665745
 30
0.0
 10
38.367355
 20
-23.627967
 30
0.0
 10
38.475655
 20
-23.578015
 30
0.0
 10
38.568006
 20
-23.515887
 30
0.0
  0
SPLINE
  5
14d
100
AcDbEntity
  8
0
 62
7
100
AcDbSpline
 70
8
 71
3
 72
8
 73
4
 74
0
 40
0
 40
0
 40
0
 40
0
 40
1
 40
1
 40
1
 40
1
 10
38.568006
 20
-23.515887
 30
0.0
 10
38.569417
 20
-23.490704
 30
0.0
 10
38.571619
 20
-23.457541
 30
0.0
 10
38.574300
 20
-23.416401
 30
0.0
  0
SPLINE
  5
14e
100
AcDbEntity
  8
0
 62
7
100
AcDbSpline
 70
8
 71
3
 72
8
 73
4
 74
0
 40
0
 40
0
 40
0
 40
0
 40
1
 40
1
 40
1
 40
1
 10
38.574300
 20
-23.416401
 30
0.0
 10
38.576840
 20
-23.375265
 30
0.0
 10
38.577912
 20
-23.329511
 30
0.0
 10
38.577912
 20
-23.279136
 30
0.0
  0
LWPOLYLINE
  5
14f
100
AcDbEntity
  8
0
 62
7
100
AcDbPolyline
 90
5
 70
0
 10
35.004152
 20
-21.725145
 30
0.0
 10
35.394539
 20
-21.725145
 30
0.0
 10
35.394539
 20
-25.105140
 30
0.0
 10
36.059457
 20
-25.105140
 30
0.0
 10
36.059457
 20
-25.487969
 30
0.0
  0
SPLINE
  5
150
100
AcDbEntity
  8
0
 62
7
100
AcDbSpline
 70
8
 71
3
 72
8
 73
4
 74
0
 40
0
 40
0
 40
0
 40
0
 40
1
 40
1
 40
1
 40
1
 10
36.651334
 20
-22.956753
 30
0.0
 10
36.651334
 20
-22.763661
 30
0.0
 10
36.682799
 20
-22.587357
 30
0.0
 10
36.745779
 20
-22.427842
 30
0.0
  0
SPLINE
  5
151
100
AcDbEntity
  8
0
 62
7
100
AcDbSpline
 70
8
 71
3
 72
8
 73
4
 74
0
 40
0
 40
0
 40
0
 40
0
 40
1
 40
1
 40
1
 40
1
 10
36.745779
 20
-22.427842
 30
0.0
 10
36.808746
 20
-22.268332
 30
0.0
 10
36.894798
 20
-22.130647
 30
0.0
 10
37.003939
 20
-22.014787
 30
0.0
  0
SPLINE
  5
152
100
AcDbEntity
  8
0
 62
7
100
AcDbSpline
 70
8
 71
3
 72
8
 73
4
 74
0
 40
0
 40
0
 40
0
 40
0
 40
1
 40
1
 40
1
 40
1
 10
37.003939
 20
-22.014787
 30
0.0
 10
37.108043
 20
-21.903971
 30
0.0
 10
37.235232
 20
-21.817499
 30
0.0
 10
37.385512
 20
-21.755369
 30
0.0
  0
SPLINE
  5
153
100
AcDbEntity
  8
0
 62
7
100
AcDbSpline
 70
8
 71
3
 72
8
 73
4
 74
0
 40
0
 40
0
 40
0
 40
0
 40
1
 40
1
 40
1
 40
1
 10
37.385512
 20
-21.755369
 30
0.0
 10
37.535784
 20
-21.693246
 30
0.0
 10
37.688162
 20
-21.662183
 30
0.0
 10
37.842644
 20
-21.662180
 30
0.0
  0
SPLINE
  5
154
100
AcDbEntity
  8
0
 62
7
100
AcDbSpline
 70
8
 71
3
 72
8
 73
4
 74
0
 40
0
 40
0
 40
0
 40
0
 40
1
 40
1
 40
1
 40
1
 10
37.842644
 20
-21.662180
 30
0.0
 10
38.015585
 20
-21.662183
 30
0.0
 10
38.172161
 20
-21.691148
 30
0.0
 10
38.312364
 20
-21.749072
 30
0.0
  0
SPLINE
  5
155
100
AcDbEntity
  8
0
 62
7
100
AcDbSpline
 70
8
 71
3
 72
8
 73
4
 74
0
 40
0
 40
0
 40
0
 40
0
 40
1
 40
1
 40
1
 40
1
 10
38.312364
 20
-21.749072
 30
0.0
 10
38.452569
 20
-21.807005
 30
0.0
 10
38.573882
 20
-21.890538
 30
0.0
 10
38.676306
 20
-21.999675
 30
0.0
  0
SPLINE
  5
156
100
AcDbEntity
  8
0
 62
7
100
AcDbSpline
 70
8
 71
3
 72
8
 73
4
 74
0
 40
0
 40
0
 40
0
 40
0
 40
1
 40
1
 40
1
 40
1
 10
38.676306
 20
-21.999675
 30
0.0
 10
38.805592
 20
-22.137364
 30
0.0
 10
38.905917
 20
-22.317865
 30
0.0
 10
38.977279
 20
-22.541179
 30
0.0
  0
SPLINE
  5
157
100
AcDbEntity
  8
0
 62
7
100
AcDbSpline
 70
8
 71
3
 72
8
 73
4
 74
0
 40
0
 40
0
 40
0
 40
0
 40
1
 40
1
 40
1
 40
1
 10
38.977279
 20
-22.541179
 30
0.0
 10
39.048636
 20
-22.764500
 30
0.0
 10
39.084321
 20
-23.046586
 30
0.0
 10
39.084321
 20
-23.387437
 30
0.0
  0
SPLINE
  5
158
100
AcDbEntity
  8
0
 62
7
100
AcDbSpline
 70
8
 71
3
 72
8
 73
4
 74
0
 40
0
 40
0
 40
0
 40
0
 40
1
 40
1
 40
1
 40
1
 10
39.084321
 20
-23.387437
 30
0.0
 10
39.084321
 20
-23.698069
 30
0.0
 10
39.049503
 20
-23.992329
 30
0.0
 10
38.979802
 20
-24.270214
 30
0.0
  0
SPLINE
  5
159
100
AcDbEntity
  8
0
 62
7
100
AcDbSpline
 70
8
 71
3
 72
8
 73
4
 74
0
 40
0
 40
0
 40
0
 40
0
 40
1
 40
1
 40
1
 40
1
 10
38.979802
 20
-24.270214
 30
0.0
 10
38.910116
 20
-24.548104
 30
0.0
 10
38.807271
 20
-24.778558
 30
0.0
 10
38.671269
 20
-24.961577
 30
0.0
  0
SPLINE
  5
15a
100
AcDbEntity
  8
0
 62
7
100
AcDbSpline
 70
8
 71
3
 72
8
 73
4
 74
0
 40
0
 40
0
 40
0
 40
0
 40
1
 40
1
 40
1
 40
1
 10
38.671269
 20
-24.961577
 30
0.0
 10
38.526867
 20
-25.156352
 30
0.0
 10
38.353500
 20
-25.304951
 30
0.0
 10
38.151173
 20
-25.407375
 30
0.0
  0
SPLINE
  5
15b
100
AcDbEntity
  8
0
 62
7
100
AcDbSpline
 70
8
 71
3
 72
8
 73
4
 74
0
 40
0
 40
0
 40
0
 40
0
 40
1
 40
1
 40
1
 40
1
 10
38.151173
 20
-25.407375
 30
0.0
 10
37.948845
 20
-25.509799
 30
0.0
 10
37.699078
 20
-25.561011
 30
0.0
 10
37.401881
 20
-25.561011
 30
0.0
  0
SPLINE
  5
15c
100
AcDbEntity
  8
0
 62
7
100
AcDbSpline
 70
8
 71
3
 72
8
 73
4
 74
0
 40
0
 40
0
 40
0
 40
0
 40
1
 40
1
 40
1
 40
1
 10
37.401881
 20
-25.561011
 30
0.0
 10
37.334715
 20
-25.561011
 30
0.0
 10
37.263358
 20
-25.557229
 30
0.0
 10
37.187801
 20
-25.549666
 30
0.0
  0
SPLINE
  5
15d
100
AcDbEntity
  8
0
 62
7
100
AcDbSpline
 70
8
 71
3
 72
8
 73
4
 74
0
 40
0
 40
0
 40
0
 40
0
 40
1
 40
1
 40
1
 40
1
 10
37.187801
 20
-25.549666
 30
0.0
 10
37.112239
 20
-25.542102
 30
0.0
 10
37.041717
 20
-25.528245
 30
0.0
 10
36.976236
 20
-25.508108
 30
0.0
  0
LWPOLYLINE
  5
15e
100
AcDbEntity
  8
0
 62
7
100
AcDbPolyline
 90
2
 70
0
 10
38.577912
 20
-23.279136
 30
0.0
 10
38.578082
 20
-23.279136
 30
0.0
  0
SPLINE
  5
15f
100
AcDbEntity
  8
0
 62
7
100
AcDbSpline
 70
8
 71
3
 72
8
 73
4
 74
0
 40
0
 40
0
 40
0
 40
0
 40
1
 40
1
 40
1
 40
1
 10
37.001410
 20
-25.027049
 30
0.0
 10
37.043397
 20
-25.050558
 30
0.0
 10
37.108869
 20
-25.073226
 30
0.0
 10
37.197863
 20
-25.095054
 30
0.0
  0
SPLINE
  5
160
100
AcDbEntity
  8
0
 62
7
100
AcDbSpline
 70
8
 71
3
 72
8
 73
4
 74
0
 40
0
 40
0
 40
0
 40
0
 40
1
 40
1
 40
1
 40
1
 10
37.197863
 20
-25.095054
 30
0.0
 10
37.286850
 20
-25.116869
 30
0.0
 10
37.377520
 20
-25.127797
 30
0.0
 10
37.469871
 20
-25.127797
 30
0.0
  0
SPLINE
  5
161
100
AcDbEntity
  8
0
 62
7
100
AcDbSpline
 70
8
 71
3
 72
8
 73
4
 74
0
 40
0
 40
0
 40
0
 40
0
 40
1
 40
1
 40
1
 40
1
 10
37.469871
 20
-25.127797
 30
0.0
 10
37.798973
 20
-25.127797
 30
0.0
 10
38.057551
 20
-25.019497
 30
0.0
 10
38.245610
 20
-24.802894
 30
0.0
  0
SPLINE
  5
162
100
AcDbEntity
  8
0
 62
7
100
AcDbSpline
 70
8
 71
3
 72
8
 73
4
 74
0
 40
0
 40
0
 40
0
 40
0
 40
1
 40
1
 40
1
 40
1
 10
38.245610
 20
-24.802894
 30
0.0
 10
38.433666
 20
-24.586294
 30
0.0
 10
38.540284
 20
-24.276502
 30
0.0
 10
38.565472
 20
-23.873522
 30
0.0
  0
SPLINE
  5
163
100
AcDbEntity
  8
0
 62
7
100
AcDbSpline
 70
8
 71
3
 72
8
 73
4
 74
0
 40
0
 40
0
 40
0
 40
0
 40
1
 40
1
 40
1
 40
1
 10
38.565472
 20
-23.873522
 30
0.0
 10
38.431143
 20
-23.964194
 30
0.0
 10
38.303113
 20
-24.030517
 30
0.0
 10
38.181382
 20
-24.072492
 30
0.0
  0
SPLINE
  5
164
100
AcDbEntity
  8
0
 62
7
100
AcDbSpline
 70
8
 71
3
 72
8
 73
4
 74
0
 40
0
 40
0
 40
0
 40
0
 40
1
 40
1
 40
1
 40
1
 10
38.181382
 20
-24.072492
 30
0.0
 10
38.059648
 20
-24.114470
 30
0.0
 10
37.927421
 20
-24.135458
 30
0.0
 10
37.784699
 20
-24.135458
 30
0.0
  0
SPLINE
  5
165
100
AcDbEntity
  8
0
 62
7
100
AcDbSpline
 70
8
 71
3
 72
8
 73
4
 74
0
 40
0
 40
0
 40
0
 40
0
 40
1
 40
1
 40
1
 40
1
 10
37.784699
 20
-24.135458
 30
0.0
 10
37.645337
 20
-24.135458
 30
0.0
 10
37.518566
 20
-24.120331
 30
0.0
 10
37.404390
 20
-24.090125
 30
0.0
  0
SPLINE
  5
166
100
AcDbEntity
  8
0
 62
7
100
AcDbSpline
 70
8
 71
3
 72
8
 73
4
 74
0
 40
0
 40
0
 40
0
 40
0
 40
1
 40
1
 40
1
 40
1
 10
37.404390
 20
-24.090125
 30
0.0
 10
37.290208
 20
-24.059902
 30
0.0
 10
37.175192
 20
-24.001134
 30
0.0
 10
37.059337
 20
-23.913820
 30
0.0
  0
SPLINE
  5
167
100
AcDbEntity
  8
0
 62
7
100
AcDbSpline
 70
8
 71
3
 72
8
 73
4
 74
0
 40
0
 40
0
 40
0
 40
0
 40
1
 40
1
 40
1
 40
1
 10
37.059337
 20
-23.913820
 30
0.0
 10
36.925007
 20
-23.811398
 30
0.0
 10
36.823421
 20
-23.681689
 30
0.0
 10
36.754582
 20
-23.524693
 30
0.0
  0
SPLINE
  5
168
100
AcDbEntity
  8
0
 62
7
100
AcDbSpline
 70
8
 71
3
 72
8
 73
4
 74
0
 40
0
 40
0
 40
0
 40
0
 40
1
 40
1
 40
1
 40
1
 10
36.754582
 20
-23.524693
 30
0.0
 10
36.685742
 20
-23.367701
 30
0.0
 10
36.651322
 20
-23.178384
 30
0.0
 10
36.651322
 20
-22.956743
 30
0.0
  0
LWPOLYLINE
  5
169
100
AcDbEntity
  8
0
 62
7
100
AcDbPolyline
 90
3
 70
0
 10
36.976236
 20
-25.508108
 30
0.0
 10
36.976236
 20
-25.027049
 30
0.0
 10
37.001410
 20
-25.027049
 30
0.0
  0
SPLINE
  5
16a
100
AcDbEntity
  8
0
 62
7
100
AcDbSpline
 70
8
 71
3
 72
8
 73
4
 74
0
 40
0
 40
0
 40
0
 40
0
 40
1
 40
1
 40
1
 40
1
 10
41.346049
 20
-22.611701
 30
0.0
 10
41.346044
 20
-22.443796
 30
0.0
 10
41.289800
 20
-22.303592
 30
0.0
 10
41.177300
 20
-22.191091
 30
0.0
  0
SPLINE
  5
16b
100
AcDbEntity
  8
0
 62
7
100
AcDbSpline
 70
8
 71
3
 72
8
 73
4
 74
0
 40
0
 40
0
 40
0
 40
0
 40
1
 40
1
 40
1
 40
1
 10
41.177300
 20
-22.191091
 30
0.0
 10
41.064801
 20
-22.078596
 30
0.0
 10
40.908645
 20
-22.022347
 30
0.0
 10
40.708837
 20
-22.022343
 30
0.0
  0
SPLINE
  5
16c
100
AcDbEntity
  8
0
 62
7
100
AcDbSpline
 70
8
 71
3
 72
8
 73
4
 74
0
 40
0
 40
0
 40
0
 40
0
 40
1
 40
1
 40
1
 40
1
 10
40.708837
 20
-22.022343
 30
0.0
 10
40.525816
 20
-22.022347
 30
0.0
 10
40.375956
 20
-22.072717
 30
0.0
 10
40.259260
 20
-22.173461
 30
0.0
  0
SPLINE
  5
16d
100
AcDbEntity
  8
0
 62
7
100
AcDbSpline
 70
8
 71
3
 72
8
 73
4
 74
0
 40
0
 40
0
 40
0
 40
0
 40
1
 40
1
 40
1
 40
1
 10
40.259260
 20
-22.173461
 30
0.0
 10
40.142566
 20
-22.274209
 30
0.0
 10
40.084217
 20
-22.410214
 30
0.0
 10
40.084217
 20
-22.581477
 30
0.0
  0
SPLINE
  5
16e
100
AcDbEntity
  8
0
 62
7
100
AcDbSpline
 70
8
 71
3
 72
8
 73
4
 74
0
 40
0
 40
0
 40
0
 40
0
 40
1
 40
1
 40
1
 40
1
 10
40.084217
 20
-22.581477
 30
0.0
 10
40.084217
 20
-22.705733
 30
0.0
 10
40.114031
 20
-22.810675
 30
0.0
 10
40.173628
 20
-22.896306
 30
0.0
  0
SPLINE
  5
16f
100
AcDbEntity
  8
0
 62
7
100
AcDbSpline
 70
8
 71
3
 72
8
 73
4
 74
0
 40
0
 40
0
 40
0
 40
0
 40
1
 40
1
 40
1
 40
1
 10
40.173628
 20
-22.896306
 30
0.0
 10
40.233236
 20
-22.981941
 30
0.0
 10
40.322647
 20
-23.059179
 30
0.0
 10
40.441863
 20
-23.128019
 30
0.0
  0
SPLINE
  5
170
100
AcDbEntity
  8
0
 62
7
100
AcDbSpline
 70
8
 71
3
 72
8
 73
4
 74
0
 40
0
 40
0
 40
0
 40
0
 40
1
 40
1
 40
1
 40
1
 10
40.441863
 20
-23.128019
 30
0.0
 10
40.493913
 20
-23.156564
 30
0.0
 10
40.573252
 20
-23.196024
 30
0.0
 10
40.679870
 20
-23.246395
 30
0.0
  0
SPLINE
  5
171
100
AcDbEntity
  8
0
 62
7
100
AcDbSpline
 70
8
 71
3
 72
8
 73
4
 74
0
 40
0
 40
0
 40
0
 40
0
 40
1
 40
1
 40
1
 40
1
 10
40.679870
 20
-23.246395
 30
0.0
 10
40.786493
 20
-23.296769
 30
0.0
 10
40.883462
 20
-23.336228
 30
0.0
 10
40.970773
 20
-23.364770
 30
0.0
  0
SPLINE
  5
172
100
AcDbEntity
  8
0
 62
7
100
AcDbSpline
 70
8
 71
3
 72
8
 73
4
 74
0
 40
0
 40
0
 40
0
 40
0
 40
1
 40
1
 40
1
 40
1
 10
40.970773
 20
-23.364770
 30
0.0
 10
41.116851
 20
-23.252273
 30
0.0
 10
41.215920
 20
-23.136837
 30
0.0
 10
41.267970
 20
-23.018459
 30
0.0
  0
SPLINE
  5
173
100
AcDbEntity
  8
0
 62
7
100
AcDbSpline
 70
8
 71
3
 72
8
 73
4
 74
0
 40
0
 40
0
 40
0
 40
0
 40
1
 40
1
 40
1
 40
1
 10
41.267970
 20
-23.018459
 30
0.0
 10
41.320020
 20
-22.900086
 30
0.0
 10
41.346044
 20
-22.764500
 30
0.0
 10
41.346049
 20
-22.611701
 30
0.0
  0
LWPOLYLINE
  5
174
100
AcDbEntity
  8
0
 62
7
100
AcDbPolyline
 90
2
 70
0
 10
36.651322
 20
-22.956743
 30
0.0
 10
36.651334
 20
-22.956753
 30
0.0
  0
SPLINE
  5
175
100
AcDbEntity
  8
0
 62
7
100
AcDbSpline
 70
8
 71
3
 72
8
 73
4
 74
0
 40
0
 40
0
 40
0
 40
0
 40
1
 40
1
 40
1
 40
1
 10
41.416571
 20
-24.490596
 30
0.0
 10
41.416565
 20
-24.336121
 30
0.0
 10
41.386345
 20
-24.213547
 30
0.0
 10
41.325902
 20
-24.122877
 30
0.0
  0
SPLINE
  5
176
100
AcDbEntity
  8
0
 62
7
100
AcDbSpline
 70
8
 71
3
 72
8
 73
4
 74
0
 40
0
 40
0
 40
0
 40
0
 40
1
 40
1
 40
1
 40
1
 10
41.325902
 20
-24.122877
 30
0.0
 10
41.265447
 20
-24.032207
 30
0.0
 10
41.148754
 20
-23.939857
 30
0.0
 10
40.975813
 20
-23.845827
 30
0.0
  0
SPLINE
  5
177
100
AcDbEntity
  8
0
 62
7
100
AcDbSpline
 70
8
 71
3
 72
8
 73
4
 74
0
 40
0
 40
0
 40
0
 40
0
 40
1
 40
1
 40
1
 40
1
 10
40.975813
 20
-23.845827
 30
0.0
 10
40.918717
 20
-23.813924
 30
0.0
 10
40.842743
 20
-23.779505
 30
0.0
 10
40.747874
 20
-23.742564
 30
0.0
  0
SPLINE
  5
178
100
AcDbEntity
  8
0
 62
7
100
AcDbSpline
 70
8
 71
3
 72
8
 73
4
 74
0
 40
0
 40
0
 40
0
 40
0
 40
1
 40
1
 40
1
 40
1
 10
40.747874
 20
-23.742564
 30
0.0
 10
40.653005
 20
-23.705626
 30
0.0
 10
40.545964
 20
-23.661969
 30
0.0
 10
40.426750
 20
-23.611595
 30
0.0
  0
SPLINE
  5
179
100
AcDbEntity
  8
0
 62
7
100
AcDbSpline
 70
8
 71
3
 72
8
 73
4
 74
0
 40
0
 40
0
 40
0
 40
0
 40
1
 40
1
 40
1
 40
1
 10
40.426750
 20
-23.611595
 30
0.0
 10
40.287386
 20
-23.703947
 30
0.0
 10
40.180762
 20
-23.817704
 30
0.0
 10
40.106882
 20
-23.952869
 30
0.0
  0
SPLINE
  5
17a
100
AcDbEntity
  8
0
 62
7
100
AcDbSpline
 70
8
 71
3
 72
8
 73
4
 74
0
 40
0
 40
0
 40
0
 40
0
 40
1
 40
1
 40
1
 40
1
 10
40.106882
 20
-23.952869
 30
0.0
 10
40.033002
 20
-24.088037
 30
0.0
 10
39.996065
 20
-24.242093
 30
0.0
 10
39.996065
 20
-24.415036
 30
0.0
  0
SPLINE
  5
17b
100
AcDbEntity
  8
0
 62
7
100
AcDbSpline
 70
8
 71
3
 72
8
 73
4
 74
0
 40
0
 40
0
 40
0
 40
0
 40
1
 40
1
 40
1
 40
1
 10
39.996065
 20
-24.415036
 30
0.0
 10
39.996065
 20
-24.641714
 30
0.0
 10
40.064487
 20
-24.828932
 30
0.0
 10
40.201334
 20
-24.976690
 30
0.0
  0
SPLINE
  5
17c
100
AcDbEntity
  8
0
 62
7
100
AcDbSpline
 70
8
 71
3
 72
8
 73
4
 74
0
 40
0
 40
0
 40
0
 40
0
 40
1
 40
1
 40
1
 40
1
 10
40.201334
 20
-24.976690
 30
0.0
 10
40.338177
 20
-25.124450
 30
0.0
 10
40.509862
 20
-25.198330
 30
0.0
 10
40.716395
 20
-25.198327
 30
0.0
  0
SPLINE
  5
17d
100
AcDbEntity
  8
0
 62
7
100
AcDbSpline
 70
8
 71
3
 72
8
 73
4
 74
0
 40
0
 40
0
 40
0
 40
0
 40
1
 40
1
 40
1
 40
1
 10
40.716395
 20
-25.198327
 30
0.0
 10
40.927954
 20
-25.198330
 30
0.0
 10
41.097539
 20
-25.134943
 30
0.0
 10
41.225151
 20
-25.008171
 30
0.0
  0
SPLINE
  5
17e
100
AcDbEntity
  8
0
 62
7
100
AcDbSpline
 70
8
 71
3
 72
8
 73
4
 74
0
 40
0
 40
0
 40
0
 40
0
 40
1
 40
1
 40
1
 40
1
 10
41.225151
 20
-25.008171
 30
0.0
 10
41.352764
 20
-24.881403
 30
0.0
 10
41.416565
 20
-24.708878
 30
0.0
 10
41.416571
 20
-24.490596
 30
0.0
  0
LWPOLYLINE
  5
17f
100
AcDbEntity
  8
0
 62
7
100
AcDbPolyline
 90
2
 70
0
 10
41.346049
 20
-22.611701
 30
0.0
 10
41.346049
 20
-22.611701
 30
0.0
  0
SPLINE
  5
180
100
AcDbEntity
  8
0
 62
7
100
AcDbSpline
 70
8
 71
3
 72
8
 73
4
 74
0
 40
0
 40
0
 40
0
 40
0
 40
1
 40
1
 40
1
 40
1
 10
40.711354
 20
-25.573604
 30
0.0
 10
40.524975
 20
-25.573604
 30
0.0
 10
40.355387
 20
-25.545889
 30
0.0
 10
40.202592
 20
-25.490489
 30
0.0
  0
SPLINE
  5
181
100
AcDbEntity
  8
0
 62
7
100
AcDbSpline
 70
8
 71
3
 72
8
 73
4
 74
0
 40
0
 40
0
 40
0
 40
0
 40
1
 40
1
 40
1
 40
1
 10
40.202592
 20
-25.490489
 30
0.0
 10
40.049797
 20
-25.435081
 30
0.0
 10
39.919667
 20
-25.355322
 30
0.0
 10
39.812208
 20
-25.251218
 30
0.0
  0
SPLINE
  5
182
100
AcDbEntity
  8
0
 62
7
100
AcDbSpline
 70
8
 71
3
 72
8
 73
4
 74
0
 40
0
 40
0
 40
0
 40
0
 40
1
 40
1
 40
1
 40
1
 10
39.812208
 20
-25.251218
 30
0.0
 10
39.706426
 20
-25.150476
 30
0.0
 10
39.626246
 20
-25.030840
 30
0.0
 10
39.571679
 20
-24.892316
 30
0.0
  0
SPLINE
  5
183
100
AcDbEntity
  8
0
 62
7
100
AcDbSpline
 70
8
 71
3
 72
8
 73
4
 74
0
 40
0
 40
0
 40
0
 40
0
 40
1
 40
1
 40
1
 40
1
 10
39.571679
 20
-24.892316
 30
0.0
 10
39.517106
 20
-24.753790
 30
0.0
 10
39.489823
 20
-24.607292
 30
0.0
 10
39.489823
 20
-24.452815
 30
0.0
  0
SPLINE
  5
184
100
AcDbEntity
  8
0
 62
7
100
AcDbSpline
 70
8
 71
3
 72
8
 73
4
 74
0
 40
0
 40
0
 40
0
 40
0
 40
1
 40
1
 40
1
 40
1
 10
39.489823
 20
-24.452815
 30
0.0
 10
39.489823
 20
-24.249648
 30
0.0
 10
39.543973
 20
-24.062851
 30
0.0
 10
39.652276
 20
-23.892421
 30
0.0
  0
SPLINE
  5
185
100
AcDbEntity
  8
0
 62
7
100
AcDbSpline
 70
8
 71
3
 72
8
 73
4
 74
0
 40
0
 40
0
 40
0
 40
0
 40
1
 40
1
 40
1
 40
1
 10
39.652276
 20
-23.892421
 30
0.0
 10
39.760576
 20
-23.721996
 30
0.0
 10
39.917985
 20
-23.586411
 30
0.0
 10
40.124513
 20
-23.485664
 30
0.0
  0
LWPOLYLINE
  5
186
100
AcDbEntity
  8
0
 62
7
100
AcDbPolyline
 90
2
 70
0
 10
41.416571
 20
-24.490596
 30
0.0
 10
41.416571
 20
-24.490596
 30
0.0
  0
SPLINE
  5
187
100
AcDbEntity
  8
0
 62
7
100
AcDbSpline
 70
8
 71
3
 72
8
 73
4
 74
0
 40
0
 40
0
 40
0
 40
0
 40
1
 40
1
 40
1
 40
1
 10
40.124513
 20
-23.470551
 30
0.0
 10
39.939815
 20
-23.363092
 30
0.0
 10
39.802968
 20
-23.245556
 30
0.0
 10
39.713981
 20
-23.117943
 30
0.0
  0
SPLINE
  5
188
100
AcDbEntity
  8
0
 62
7
100
AcDbSpline
 70
8
 71
3
 72
8
 73
4
 74
0
 40
0
 40
0
 40
0
 40
0
 40
1
 40
1
 40
1
 40
1
 10
39.713981
 20
-23.117943
 30
0.0
 10
39.624988
 20
-22.990335
 30
0.0
 10
39.580493
 20
-22.830823
 30
0.0
 10
39.580493
 20
-22.639405
 30
0.0
  0
SPLINE
  5
189
100
AcDbEntity
  8
0
 62
7
100
AcDbSpline
 70
8
 71
3
 72
8
 73
4
 74
0
 40
0
 40
0
 40
0
 40
0
 40
1
 40
1
 40
1
 40
1
 10
39.580493
 20
-22.639405
 30
0.0
 10
39.580493
 20
-22.357322
 30
0.0
 10
39.687113
 20
-22.122250
 30
0.0
 10
39.900355
 20
-21.934189
 30
0.0
  0
SPLINE
  5
18a
100
AcDbEntity
  8
0
 62
7
100
AcDbSpline
 70
8
 71
3
 72
8
 73
4
 74
0
 40
0
 40
0
 40
0
 40
0
 40
1
 40
1
 40
1
 40
1
 10
39.900355
 20
-21.934189
 30
0.0
 10
40.113599
 20
-21.746136
 30
0.0
 10
40.383931
 20
-21.652108
 30
0.0
 10
40.711354
 20
-21.652104
 30
0.0
  0
SPLINE
  5
18b
100
AcDbEntity
  8
0
 62
7
100
AcDbSpline
 70
8
 71
3
 72
8
 73
4
 74
0
 40
0
 40
0
 40
0
 40
0
 40
1
 40
1
 40
1
 40
1
 10
40.711354
 20
-21.652104
 30
0.0
 10
41.052205
 20
-21.652108
 30
0.0
 10
41.325478
 20
-21.741519
 30
0.0
 10
41.531170
 20
-21.920337
 30
0.0
  0
SPLINE
  5
18c
100
AcDbEntity
  8
0
 62
7
100
AcDbSpline
 70
8
 71
3
 72
8
 73
4
 74
0
 40
0
 40
0
 40
0
 40
0
 40
1
 40
1
 40
1
 40
1
 10
41.531170
 20
-21.920337
 30
0.0
 10
41.736851
 20
-22.099163
 30
0.0
 10
41.839693
 20
-22.327938
 30
0.0
 10
41.839698
 20
-22.606662
 30
0.0
  0
SPLINE
  5
18d
100
AcDbEntity
  8
0
 62
7
100
AcDbSpline
 70
8
 71
3
 72
8
 73
4
 74
0
 40
0
 40
0
 40
0
 40
0
 40
1
 40
1
 40
1
 40
1
 10
41.839698
 20
-22.606662
 30
0.0
 10
41.839693
 20
-22.774574
 30
0.0
 10
41.790592
 20
-22.940803
 30
0.0
 10
41.692362
 20
-23.105350
 30
0.0
  0
SPLINE
  5
18e
100
AcDbEntity
  8
0
 62
7
100
AcDbSpline
 70
8
 71
3
 72
8
 73
4
 74
0
 40
0
 40
0
 40
0
 40
0
 40
1
 40
1
 40
1
 40
1
 10
41.692362
 20
-23.105350
 30
0.0
 10
41.594128
 20
-23.269903
 30
0.0
 10
41.452667
 20
-23.398352
 30
0.0
 10
41.267970
 20
-23.490700
 30
0.0
  0
LWPOLYLINE
  5
18f
100
AcDbEntity
  8
0
 62
7
100
AcDbPolyline
 90
2
 70
0
 10
40.124513
 20
-23.485664
 30
0.0
 10
40.124513
 20
-23.470551
 30
0.0
  0
SPLINE
  5
190
100
AcDbEntity
  8
0
 62
7
100
AcDbSpline
 70
8
 71
3
 72
8
 73
4
 74
0
 40
0
 40
0
 40
0
 40
0
 40
1
 40
1
 40
1
 40
1
 10
41.267970
 20
-23.505813
 30
0.0
 10
41.486246
 20
-23.608239
 30
0.0
 10
41.651637
 20
-23.732491
 30
0.0
 10
41.764142
 20
-23.878570
 30
0.0
  0
SPLINE
  5
191
100
AcDbEntity
  8
0
 62
7
100
AcDbSpline
 70
8
 71
3
 72
8
 73
4
 74
0
 40
0
 40
0
 40
0
 40
0
 40
1
 40
1
 40
1
 40
1
 10
41.764142
 20
-23.878570
 30
0.0
 10
41.876636
 20
-24.024652
 30
0.0
 10
41.932885
 20
-24.212708
 30
0.0
 10
41.932885
 20
-24.442742
 30
0.0
  0
SPLINE
  5
192
100
AcDbEntity
  8
0
 62
7
100
AcDbSpline
 70
8
 71
3
 72
8
 73
4
 74
0
 40
0
 40
0
 40
0
 40
0
 40
1
 40
1
 40
1
 40
1
 10
41.932885
 20
-24.442742
 30
0.0
 10
41.932885
 20
-24.763448
 30
0.0
 10
41.816610
 20
-25.032101
 30
0.0
 10
41.584056
 20
-25.248701
 30
0.0
  0
SPLINE
  5
193
100
AcDbEntity
  8
0
 62
7
100
AcDbSpline
 70
8
 71
3
 72
8
 73
4
 74
0
 40
0
 40
0
 40
0
 40
0
 40
1
 40
1
 40
1
 40
1
 10
41.584056
 20
-25.248701
 30
0.0
 10
41.351502
 20
-25.465304
 30
0.0
 10
41.060601
 20
-25.573604
 30
0.0
 10
40.711354
 20
-25.573604
 30
0.0
  0
LWPOLYLINE
  5
194
100
AcDbEntity
  8
0
 62
7
100
AcDbPolyline
 90
2
 70
0
 10
41.267970
 20
-23.490700
 30
0.0
 10
41.267970
 20
-23.505813
 30
0.0
  0
SPLINE
  5
195
100
AcDbEntity
  8
0
 62
7
100
AcDbSpline
 70
8
 71
3
 72
8
 73
4
 74
0
 40
0
 40
0
 40
0
 40
0
 40
1
 40
1
 40
1
 40
1
 10
44.219800
 20
-23.279136
 30
0.0
 10
44.219794
 20
-23.023918
 30
0.0
 10
44.196291
 20
-22.816132
 30
0.0
 10
44.149278
 20
-22.655777
 30
0.0
  0
SPLINE
  5
196
100
AcDbEntity
  8
0
 62
7
100
AcDbSpline
 70
8
 71
3
 72
8
 73
4
 74
0
 40
0
 40
0
 40
0
 40
0
 40
1
 40
1
 40
1
 40
1
 10
44.149278
 20
-22.655777
 30
0.0
 10
44.102288
 20
-22.495428
 30
0.0
 10
44.037614
 20
-22.371595
 30
0.0
 10
43.955341
 20
-22.284280
 30
0.0
  0
SPLINE
  5
197
100
AcDbEntity
  8
0
 62
7
100
AcDbSpline
 70
8
 71
3
 72
8
 73
4
 74
0
 40
0
 40
0
 40
0
 40
0
 40
1
 40
1
 40
1
 40
1
 10
43.955341
 20
-22.284280
 30
0.0
 10
43.881461
 20
-22.203687
 30
0.0
 10
43.806739
 20
-22.148278
 30
0.0
 10
43.731183
 20
-22.118051
 30
0.0
  0
SPLINE
  5
198
100
AcDbEntity
  8
0
 62
7
100
AcDbSpline
 70
8
 71
3
 72
8
 73
4
 74
0
 40
0
 40
0
 40
0
 40
0
 40
1
 40
1
 40
1
 40
1
 10
43.731183
 20
-22.118051
 30
0.0
 10
43.655623
 20
-22.087829
 30
0.0
 10
43.572509
 20
-22.072721
 30
0.0
 10
43.481839
 20
-22.072716
 30
0.0
  0
SPLINE
  5
199
100
AcDbEntity
  8
0
 62
7
100
AcDbSpline
 70
8
 71
3
 72
8
 73
4
 74
0
 40
0
 40
0
 40
0
 40
0
 40
1
 40
1
 40
1
 40
1
 10
43.481839
 20
-22.072716
 30
0.0
 10
43.275312
 20
-22.072719
 30
0.0
 10
43.110762
 20
-22.146599
 30
0.0
 10
42.988190
 20
-22.294355
 30
0.0
  0
SPLINE
  5
19a
100
AcDbEntity
  8
0
 62
7
100
AcDbSpline
 70
8
 71
3
 72
8
 73
4
 74
0
 40
0
 40
0
 40
0
 40
0
 40
1
 40
1
 40
1
 40
1
 10
42.988190
 20
-22.294355
 30
0.0
 10
42.865616
 20
-22.442117
 30
0.0
 10
42.804334
 20
-22.656200
 30
0.0
 10
42.804334
 20
-22.936604
 30
0.0
  0
SPLINE
  5
19b
100
AcDbEntity
  8
0
 62
7
100
AcDbSpline
 70
8
 71
3
 72
8
 73
4
 74
0
 40
0
 40
0
 40
0
 40
0
 40
1
 40
1
 40
1
 40
1
 10
42.804334
 20
-22.936604
 30
0.0
 10
42.804334
 20
-23.094440
 30
0.0
 10
42.824513
 20
-23.224569
 30
0.0
 10
42.864775
 20
-23.326991
 30
0.0
  0
SPLINE
  5
19c
100
AcDbEntity
  8
0
 62
7
100
AcDbSpline
 70
8
 71
3
 72
8
 73
4
 74
0
 40
0
 40
0
 40
0
 40
0
 40
1
 40
1
 40
1
 40
1
 10
42.864775
 20
-23.326991
 30
0.0
 10
42.905062
 20
-23.429417
 30
0.0
 10
42.970560
 20
-23.517569
 30
0.0
 10
43.061230
 20
-23.591446
 30
0.0
  0
SPLINE
  5
19d
100
AcDbEntity
  8
0
 62
7
100
AcDbSpline
 70
8
 71
3
 72
8
 73
4
 74
0
 40
0
 40
0
 40
0
 40
0
 40
1
 40
1
 40
1
 40
1
 10
43.061230
 20
-23.591446
 30
0.0
 10
43.125034
 20
-23.643500
 30
0.0
 10
43.197232
 20
-23.678341
 30
0.0
 10
43.277835
 20
-23.695970
 30
0.0
  0
SPLINE
  5
19e
100
AcDbEntity
  8
0
 62
7
100
AcDbSpline
 70
8
 71
3
 72
8
 73
4
 74
0
 40
0
 40
0
 40
0
 40
0
 40
1
 40
1
 40
1
 40
1
 10
43.277835
 20
-23.695970
 30
0.0
 10
43.358427
 20
-23.713600
 30
0.0
 10
43.444902
 20
-23.722414
 30
0.0
 10
43.537254
 20
-23.722414
 30
0.0
  0
SPLINE
  5
19f
100
AcDbEntity
  8
0
 62
7
100
AcDbSpline
 70
8
 71
3
 72
8
 73
4
 74
0
 40
0
 40
0
 40
0
 40
0
 40
1
 40
1
 40
1
 40
1
 10
43.537254
 20
-23.722414
 30
0.0
 10
43.644713
 20
-23.722416
 30
0.0
 10
43.760565
 20
-23.703525
 30
0.0
 10
43.884819
 20
-23.665745
 30
0.0
  0
SPLINE
  5
1a0
100
AcDbEntity
  8
0
 62
7
100
AcDbSpline
 70
8
 71
3
 72
8
 73
4
 74
0
 40
0
 40
0
 40
0
 40
0
 40
1
 40
1
 40
1
 40
1
 10
43.884819
 20
-23.665745
 30
0.0
 10
44.009073
 20
-23.627967
 30
0.0
 10
44.117376
 20
-23.578015
 30
0.0
 10
44.209724
 20
-23.515887
 30
0.0
  0
SPLINE
  5
1a1
100
AcDbEntity
  8
0
 62
7
100
AcDbSpline
 70
8
 71
3
 72
8
 73
4
 74
0
 40
0
 40
0
 40
0
 40
0
 40
1
 40
1
 40
1
 40
1
 10
44.209724
 20
-23.515887
 30
0.0
 10
44.211136
 20
-23.490704
 30
0.0
 10
44.213337
 20
-23.457541
 30
0.0
 10
44.216018
 20
-23.416401
 30
0.0
  0
SPLINE
  5
1a2
100
AcDbEntity
  8
0
 62
7
100
AcDbSpline
 70
8
 71
3
 72
8
 73
4
 74
0
 40
0
 40
0
 40
0
 40
0
 40
1
 40
1
 40
1
 40
1
 10
44.216018
 20
-23.416401
 30
0.0
 10
44.218558
 20
-23.375265
 30
0.0
 10
44.219630
 20
-23.329511
 30
0.0
 10
44.219630
 20
-23.279136
 30
0.0
  0
LWPOLYLINE
  5
1a3
100
AcDbEntity
  8
0
 62
7
100
AcDbPolyline
 90
2
 70
0
 10
40.711354
 20
-25.573604
 30
0.0
 10
40.711354
 20
-25.573604
 30
0.0
  0
SPLINE
  5
1a4
100
AcDbEntity
  8
0
 62
7
100
AcDbSpline
 70
8
 71
3
 72
8
 73
4
 74
0
 40
0
 40
0
 40
0
 40
0
 40
1
 40
1
 40
1
 40
1
 10
42.293052
 20
-22.956753
 30
0.0
 10
42.293052
 20
-22.763661
 30
0.0
 10
42.324517
 20
-22.587357
 30
0.0
 10
42.387497
 20
-22.427842
 30
0.0
  0
SPLINE
  5
1a5
100
AcDbEntity
  8
0
 62
7
100
AcDbSpline
 70
8
 71
3
 72
8
 73
4
 74
0
 40
0
 40
0
 40
0
 40
0
 40
1
 40
1
 40
1
 40
1
 10
42.387497
 20
-22.427842
 30
0.0
 10
42.450464
 20
-22.268332
 30
0.0
 10
42.536516
 20
-22.130647
 30
0.0
 10
42.645657
 20
-22.014787
 30
0.0
  0
SPLINE
  5
1a6
100
AcDbEntity
  8
0
 62
7
100
AcDbSpline
 70
8
 71
3
 72
8
 73
4
 74
0
 40
0
 40
0
 40
0
 40
0
 40
1
 40
1
 40
1
 40
1
 10
42.645657
 20
-22.014787
 30
0.0
 10
42.749761
 20
-21.903971
 30
0.0
 10
42.876950
 20
-21.817499
 30
0.0
 10
43.027233
 20
-21.755369
 30
0.0
  0
SPLINE
  5
1a7
100
AcDbEntity
  8
0
 62
7
100
AcDbSpline
 70
8
 71
3
 72
8
 73
4
 74
0
 40
0
 40
0
 40
0
 40
0
 40
1
 40
1
 40
1
 40
1
 10
43.027233
 20
-21.755369
 30
0.0
 10
43.177505
 20
-21.693246
 30
0.0
 10
43.329880
 20
-21.662183
 30
0.0
 10
43.484363
 20
-21.662180
 30
0.0
  0
SPLINE
  5
1a8
100
AcDbEntity
  8
0
 62
7
100
AcDbSpline
 70
8
 71
3
 72
8
 73
4
 74
0
 40
0
 40
0
 40
0
 40
0
 40
1
 40
1
 40
1
 40
1
 10
43.484363
 20
-21.662180
 30
0.0
 10
43.657306
 20
-21.662183
 30
0.0
 10
43.813880
 20
-21.691148
 30
0.0
 10
43.954082
 20
-21.749072
 30
0.0
  0
SPLINE
  5
1a9
100
AcDbEntity
  8
0
 62
7
100
AcDbSpline
 70
8
 71
3
 72
8
 73
4
 74
0
 40
0
 40
0
 40
0
 40
0
 40
1
 40
1
 40
1
 40
1
 10
43.954082
 20
-21.749072
 30
0.0
 10
44.094287
 20
-21.807005
 30
0.0
 10
44.215600
 20
-21.890538
 30
0.0
 10
44.318027
 20
-21.999675
 30
0.0
  0
SPLINE
  5
1aa
100
AcDbEntity
  8
0
 62
7
100
AcDbSpline
 70
8
 71
3
 72
8
 73
4
 74
0
 40
0
 40
0
 40
0
 40
0
 40
1
 40
1
 40
1
 40
1
 10
44.318027
 20
-21.999675
 30
0.0
 10
44.447310
 20
-22.137364
 30
0.0
 10
44.547635
 20
-22.317865
 30
0.0
 10
44.618997
 20
-22.541179
 30
0.0
  0
SPLINE
  5
1ab
100
AcDbEntity
  8
0
 62
7
100
AcDbSpline
 70
8
 71
3
 72
8
 73
4
 74
0
 40
0
 40
0
 40
0
 40
0
 40
1
 40
1
 40
1
 40
1
 10
44.618997
 20
-22.541179
 30
0.0
 10
44.690357
 20
-22.764500
 30
0.0
 10
44.726042
 20
-23.046586
 30
0.0
 10
44.726042
 20
-23.387437
 30
0.0
  0
SPLINE
  5
1ac
100
AcDbEntity
  8
0
 62
7
100
AcDbSpline
 70
8
 71
3
 72
8
 73
4
 74
0
 40
0
 40
0
 40
0
 40
0
 40
1
 40
1
 40
1
 40
1
 10
44.726042
 20
-23.387437
 30
0.0
 10
44.726042
 20
-23.698069
 30
0.0
 10
44.691224
 20
-23.992329
 30
0.0
 10
44.621521
 20
-24.270214
 30
0.0
  0
SPLINE
  5
1ad
100
AcDbEntity
  8
0
 62
7
100
AcDbSpline
 70
8
 71
3
 72
8
 73
4
 74
0
 40
0
 40
0
 40
0
 40
0
 40
1
 40
1
 40
1
 40
1
 10
44.621521
 20
-24.270214
 30
0.0
 10
44.551834
 20
-24.548104
 30
0.0
 10
44.448992
 20
-24.778558
 30
0.0
 10
44.312987
 20
-24.961577
 30
0.0
  0
SPLINE
  5
1ae
100
AcDbEntity
  8
0
 62
7
100
AcDbSpline
 70
8
 71
3
 72
8
 73
4
 74
0
 40
0
 40
0
 40
0
 40
0
 40
1
 40
1
 40
1
 40
1
 10
44.312987
 20
-24.961577
 30
0.0
 10
44.168585
 20
-25.156352
 30
0.0
 10
43.995219
 20
-25.304951
 30
0.0
 10
43.792891
 20
-25.407375
 30
0.0
  0
SPLINE
  5
1af
100
AcDbEntity
  8
0
 62
7
100
AcDbSpline
 70
8
 71
3
 72
8
 73
4
 74
0
 40
0
 40
0
 40
0
 40
0
 40
1
 40
1
 40
1
 40
1
 10
43.792891
 20
-25.407375
 30
0.0
 10
43.590563
 20
-25.509799
 30
0.0
 10
43.340796
 20
-25.561011
 30
0.0
 10
43.043599
 20
-25.561011
 30
0.0
  0
SPLINE
  5
1b0
100
AcDbEntity
  8
0
 62
7
100
AcDbSpline
 70
8
 71
3
 72
8
 73
4
 74
0
 40
0
 40
0
 40
0
 40
0
 40
1
 40
1
 40
1
 40
1
 10
43.043599
 20
-25.561011
 30
0.0
 10
42.976433
 20
-25.561011
 30
0.0
 10
42.905076
 20
-25.557229
 30
0.0
 10
42.829520
 20
-25.549666
 30
0.0
  0
SPLINE
  5
1b1
100
AcDbEntity
  8
0
 62
7
100
AcDbSpline
 70
8
 71
3
 72
8
 73
4
 74
0
 40
0
 40
0
 40
0
 40
0
 40
1
 40
1
 40
1
 40
1
 10
42.829520
 20
-25.549666
 30
0.0
 10
42.753957
 20
-25.542102
 30
0.0
 10
42.683436
 20
-25.528245
 30
0.0
 10
42.617954
 20
-25.508108
 30
0.0
  0
LWPOLYLINE
  5
1b2
100
AcDbEntity
  8
0
 62
7
100
AcDbPolyline
 90
2
 70
0
 10
44.219630
 20
-23.279136
 30
0.0
 10
44.219800
 20
-23.279136
 30
0.0
  0
SPLINE
  5
1b3
100
AcDbEntity
  8
0
 62
7
100
AcDbSpline
 70
8
 71
3
 72
8
 73
4
 74
0
 40
0
 40
0
 40
0
 40
0
 40
1
 40
1
 40
1
 40
1
 10
42.643129
 20
-25.027049
 30
0.0
 10
42.685115
 20
-25.050558
 30
0.0
 10
42.750588
 20
-25.073226
 30
0.0
 10
42.839581
 20
-25.095054
 30
0.0
  0
SPLINE
  5
1b4
100
AcDbEntity
  8
0
 62
7
100
AcDbSpline
 70
8
 71
3
 72
8
 73
4
 74
0
 40
0
 40
0
 40
0
 40
0
 40
1
 40
1
 40
1
 40
1
 10
42.839581
 20
-25.095054
 30
0.0
 10
42.928571
 20
-25.116869
 30
0.0
 10
43.019241
 20
-25.127797
 30
0.0
 10
43.111592
 20
-25.127797
 30
0.0
  0
SPLINE
  5
1b5
100
AcDbEntity
  8
0
 62
7
100
AcDbSpline
 70
8
 71
3
 72
8
 73
4
 74
0
 40
0
 40
0
 40
0
 40
0
 40
1
 40
1
 40
1
 40
1
 10
43.111592
 20
-25.127797
 30
0.0
 10
43.440691
 20
-25.127797
 30
0.0
 10
43.699269
 20
-25.019497
 30
0.0
 10
43.887328
 20
-24.802894
 30
0.0
  0
SPLINE
  5
1b6
100
AcDbEntity
  8
0
 62
7
100
AcDbSpline
 70
8
 71
3
 72
8
 73
4
 74
0
 40
0
 40
0
 40
0
 40
0
 40
1
 40
1
 40
1
 40
1
 10
43.887328
 20
-24.802894
 30
0.0
 10
44.075384
 20
-24.586294
 30
0.0
 10
44.182005
 20
-24.276502
 30
0.0
 10
44.207190
 20
-23.873522
 30
0.0
  0
SPLINE
  5
1b7
100
AcDbEntity
  8
0
 62
7
100
AcDbSpline
 70
8
 71
3
 72
8
 73
4
 74
0
 40
0
 40
0
 40
0
 40
0
 40
1
 40
1
 40
1
 40
1
 10
44.207190
 20
-23.873522
 30
0.0
 10
44.072864
 20
-23.964194
 30
0.0
 10
43.944834
 20
-24.030517
 30
0.0
 10
43.823100
 20
-24.072492
 30
0.0
  0
SPLINE
  5
1b8
100
AcDbEntity
  8
0
 62
7
100
AcDbSpline
 70
8
 71
3
 72
8
 73
4
 74
0
 40
0
 40
0
 40
0
 40
0
 40
1
 40
1
 40
1
 40
1
 10
43.823100
 20
-24.072492
 30
0.0
 10
43.701369
 20
-24.114470
 30
0.0
 10
43.569139
 20
-24.135458
 30
0.0
 10
43.426420
 20
-24.135458
 30
0.0
  0
SPLINE
  5
1b9
100
AcDbEntity
  8
0
 62
7
100
AcDbSpline
 70
8
 71
3
 72
8
 73
4
 74
0
 40
0
 40
0
 40
0
 40
0
 40
1
 40
1
 40
1
 40
1
 10
43.426420
 20
-24.135458
 30
0.0
 10
43.287055
 20
-24.135458
 30
0.0
 10
43.160284
 20
-24.120331
 30
0.0
 10
43.046108
 20
-24.090125
 30
0.0
  0
SPLINE
  5
1ba
100
AcDbEntity
  8
0
 62
7
100
AcDbSpline
 70
8
 71
3
 72
8
 73
4
 74
0
 40
0
 40
0
 40
0
 40
0
 40
1
 40
1
 40
1
 40
1
 10
43.046108
 20
-24.090125
 30
0.0
 10
42.931927
 20
-24.059902
 30
0.0
 10
42.816913
 20
-24.001134
 30
0.0
 10
42.701055
 20
-23.913820
 30
0.0
  0
SPLINE
  5
1bb
100
AcDbEntity
  8
0
 62
7
100
AcDbSpline
 70
8
 71
3
 72
8
 73
4
 74
0
 40
0
 40
0
 40
0
 40
0
 40
1
 40
1
 40
1
 40
1
 10
42.701055
 20
-23.913820
 30
0.0
 10
42.566725
 20
-23.811398
 30
0.0
 10
42.465142
 20
-23.681689
 30
0.0
 10
42.396300
 20
-23.524693
 30
0.0
  0
SPLINE
  5
1bc
100
AcDbEntity
  8
0
 62
7
100
AcDbSpline
 70
8
 71
3
 72
8
 73
4
 74
0
 40
0
 40
0
 40
0
 40
0
 40
1
 40
1
 40
1
 40
1
 10
42.396300
 20
-23.524693
 30
0.0
 10
42.327460
 20
-23.367701
 30
0.0
 10
42.293040
 20
-23.178384
 30
0.0
 10
42.293040
 20
-22.956743
 30
0.0
  0
LWPOLYLINE
  5
1bd
100
AcDbEntity
  8
0
 62
7
100
AcDbPolyline
 90
3
 70
0
 10
42.617954
 20
-25.508108
 30
0.0
 10
42.617954
 20
-25.027049
 30
0.0
 10
42.643129
 20
-25.027049
 30
0.0
  0
LWPOLYLINE
  5
1be
100
AcDbEntity
  8
0
 62
7
100
AcDbPolyline
 90
2
 70
0
 10
42.293040
 20
-22.956743
 30
0.0
 10
42.293052
 20
-22.956753
 30
0.0
  0
ENDSEC
  0
SECTION
  2
OBJECTS
  0
DICTIONARY
  5
C
330
0
100
AcDbDictionary
  3
ACAD_GROUP
350
D
  3
ACAD_MLINESTYLE
350
17
  0
DICTIONARY
  5
D
330
C
100
AcDbDictionary
  0
DICTIONARY
  5
1A
330
C
100
AcDbDictionary
  0
DICTIONARY
  5
17
330
C
100
AcDbDictionary
  3
STANDARD
350
18
  0
DICTIONARY
  5
19
330
C
100
AcDbDictionary
  0
ENDSEC
  0
EOF
