  0
SECTION
  2
HEADER
  9
$ACADVER
  1
AC1003
  9
$INSBASE
 10
0.0
 20
0.0
  9
$EXTMIN
 10
-150
 20
-150
  9
$EXTMAX
 10
150
 20
150
  9
$LIMMIN
 10
0.0
 20
0.0
  9
$LIMMAX
 10
300.0
 20
225.0
  9
$VIEWCTR
 10
7.378144
 20
4.5
  9
$VIEWSIZE
 40
9.0
  9
$SNAPMODE
 70
     0
  9
$SNAPUNIT
 10
1.0
 20
1.0
  9
$SNAPBASE
 10
0.0
 20
0.0
  9
$SNAPANG
 50
0.0
  9
$SNAPSTYLE
 70
     0
  9
$SNAPISOPAIR
 70
     0
  9
$GRIDMODE
 70
     0
  9
$GRIDUNIT
 10
0.0
 20
0.0
  9
$ORTHOMODE
 70
     0
  9
$REGENMODE
 70
     1
  9
$FILLMODE
 70
     1
  9
$QTEXTMODE
 70
     0
  9
$DRAGMODE
 70
     2
  9
$LTSCALE
 40
1.0
  9
$OSMODE
 70
     0
  9
$ATTMODE
 70
     1
  9
$TEXTSIZE
 40
0.2
  9
$TRACEWID
 40
0.05
  9
$TEXTSTYLE
  7
STANDARD
  9
$CLAYER
  8
0
  9
$CELTYPE
  6
BYLAYER
  9
$CECOLOR
 62
   256
  9
$DIMSCALE
 40
1.0
  9
$DIMASZ
 40
0.18
  9
$DIMEXO
 40
0.0625
  9
$DIMDLI
 40
0.38
  9
$DIMRND
 40
0.0
  9
$DIMDLE
 40
0.0
  9
$DIMEXE
 40
0.18
  9
$DIMTP
 40
0.0
  9
$DIMTM
 40
0.0
  9
$DIMTXT
 40
0.18
  9
$DIMCEN
 40
0.09
  9
$DIMTSZ
 40
0.0
  9
$DIMTOL
 70
     0
  9
$DIMLIM
 70
     0
  9
$DIMTIH
 70
     1
  9
$DIMTOH
 70
     1
  9
$DIMSE1
 70
     0
  9
$DIMSE2
 70
     0
  9
$DIMTAD
 70
     0
  9
$DIMZIN
 70
     0
  9
$DIMBLK
  1

  9
$DIMASO
 70
     1
  9
$DIMSHO
 70
     0
  9
$DIMPOST
  1

  9
$DIMAPOST
  1

  9
$DIMALT
 70
     0
  9
$DIMALTD
 70
     2
  9
$DIMALTF
 40
25.4
  9
$DIMLFAC
 40
1.0
  9
$LUNITS
 70
     2
  9
$LUPREC
 70
     4
  9
$AXISMODE
 70
     0
  9
$AXISUNIT
 10
0.0
 20
0.0
  9
$SKETCHINC
 40
0.1
  9
$FILLETRAD
 40
0.0
  9
$AUNITS
 70
     0
  9
$AUPREC
 70
     0
  9
$MENU
  1
ACAD
  9
$ELEVATION
 40
0.0
  9
$THICKNESS
 40
0.0
  9
$VIEWDIR
 10
0.0
 20
0.0
 30
1.0
  9
$LIMCHECK
 70
     0
  9
$BLIPMODE
 70
     1
  9
$CHAMFERA
 40
0.0
  9
$CHAMFERB
 40
0.0
  9
$FASTZOOM
 70
     1
  9
$SKPOLY
 70
     0
  9
$TDCREATE
 40
2447732.6512363921
  9
$TDUPDATE
 40
2447732.6512363921
  9
$TDINDWG
 40
0.0000000000
  9
$TDUSRTIMER
 40
0.0000000000
  9
$USRTIMER
 70
     1
  9
$ANGBASE
 50
0.0
  9
$ANGDIR
 70
     0
  9
$PDMODE
 70
     0
  9
$PDSIZE
 40
0.0
  9
$PLINEWID
 40
0.0
  9
$COORDS
 70
     0
  9
$USERI1
 70
     0
  9
$USERI2
 70
     0
  9
$USERI3
 70
     0
  9
$USERI4
 70
     0
  9
$USERI5
 70
     0
  9
$USERR1
 40
0.0
  9
$USERR2
 40
0.0
  9
$USERR3
 40
0.0
  9
$USERR4
 40
0.0
  9
$USERR5
 40
0.0
  0
ENDSEC
  0
SECTION
  2
TABLES
  0
TABLE
  2
LTYPE
  70
     2
  0
LTYPE
  2
CONTINUOUS
 70
    64
  3
Solid line
 72
    65
 73
     0
 40
0.0
  0
ENDTAB
  0
TABLE
  2
LAYER
 70
     9
  0
LAYER
  2
0
 70
     0
 62
     7
  6
CONTINUOUS
  0
LAYER
  2
1
 70
     0
 62
     1
  6
CONTINUOUS
  0
LAYER
  2
2
 70
     0
 62
     2
  6
CONTINUOUS
  0
LAYER
  2
3
 70
     0
 62
     3
  6
CONTINUOUS
  0
LAYER
  2
4
 70
     0
 62
     4
  6
CONTINUOUS
  0
LAYER
  2
5
 70
     0
 62
     5
  6
CONTINUOUS
  0
LAYER
  2
6
 70
     0
 62
     6
  6
CONTINUOUS
  0
LAYER
  2
7
 70
     0
 62
     7
  6
CONTINUOUS
  0
LAYER
  2
8
 70
     0
 62
     7
  6
CONTINUOUS
  0
ENDTAB
  0
TABLE
  2
STYLE
 70
     5
  0
STYLE
  2
STANDARD
 70
     0
 40
0.0
 41
1.0
 50
0.0
 71
     0
 42
0.2
  3
TXT
  4

  0
STYLE
  2
GREEK
 70
     0
 40
0.0
 41
1.0
 50
0.0
 71
     0
 42
0.2
  3
GREEKC
  4

  0
STYLE
  2
ITALICC
 70
     0
 40
0.0
 41
1.0
 50
0.0
 71
     0
 42
0.2
  3
ITALICC
  4

  0
STYLE
  2
MONOTXT
 70
     0
 40
0.0
 41
1.0
 50
0.0
 71
     0
 42
0.2
  3
MONOTXT
  4

  0
STYLE
  2
GOTHICE
 70
     0
 40
0.0
 41
1.0
 50
0.0
 71
     0
 42
0.2
  3
GOTHICE
  4

  0
ENDTAB
  0
TABLE
  2
VIEW
 70
     0
  0
ENDTAB
  0
ENDSEC
  0
SECTION
  2
BLOCKS
  0
ENDSEC
  0
SECTION
  2
ENTITIES
  0
POLYLINE
  8
7
  10
-78.084
  20
25.460
  0
VERTEX
  8
7
  10
-78.084
  20
25.460
  0
VERTEX
  8
7
  10
-43.146
  20
28.128
  0
VERTEX
  8
7
  10
-41.621
  20
22.564
  0
VERTEX
  8
7
  10
-66.574
  20
15.677
  0
VERTEX
  8
7
  10
-78.084
  20
25.460
  0
SEQEND
  0
POLYLINE
  8
7
  6
CONTINUOUS
 66
  1
  0
VERTEX
  8
7
  10
-35.980
  20
13.111
  0
VERTEX
  8
7
  10
-36.412
  20
13.645
  0
VERTEX
  8
7
  10
-36.844
  20
14.229
  0
VERTEX
  8
7
  10
-37.276
  20
14.814
  0
VERTEX
  8
7
  10
-37.708
  20
15.423
  0
VERTEX
  8
7
  10
-38.114
  20
16.008
  0
VERTEX
  8
7
  10
-38.496
  20
16.618
  0
VERTEX
  8
7
  10
-38.877
  20
17.202
  0
VERTEX
  8
7
  10
-39.233
  20
17.787
  0
VERTEX
  8
7
  10
-39.563
  20
18.346
  0
VERTEX
  8
7
  10
-39.893
  20
18.879
  0
VERTEX
  8
7
  10
-40.173
  20
19.362
  0
VERTEX
  8
7
  10
-40.427
  20
19.819
  0
VERTEX
  8
7
  10
-40.655
  20
20.200
  0
VERTEX
  8
7
  10
-40.833
  20
20.556
  0
VERTEX
  8
7
  10
-40.986
  20
20.836
  0
VERTEX
  8
7
  10
-41.087
  20
21.039
  0
VERTEX
  8
7
  10
-63.448
  20
13.035
  0
VERTEX
  8
7
  10
-50.743
  20
2.312
  0
VERTEX
  8
7
  10
-35.980
  20
13.111
  0
SEQEND
  0
POLYLINE
  8
7
  6
CONTINUOUS
 66
  1
  0
VERTEX
  8
7
  10
-35.269
  20
11.968
  0
VERTEX
  8
7
  10
-34.938
  20
11.586
  0
VERTEX
  8
7
  10
-34.506
  20
11.129
  0
VERTEX
  8
7
  10
-33.998
  20
10.646
  0
VERTEX
  8
7
  10
-33.414
  20
10.138
  0
VERTEX
  8
7
  10
-32.778
  20
9.604
  0
VERTEX
  8
7
  10
-32.118
  20
9.045
  0
VERTEX
  8
7
  10
-31.406
  20
8.486
  0
VERTEX
  8
7
  10
-30.720
  20
7.927
  0
VERTEX
  8
7
  10
-30.034
  20
7.394
  0
VERTEX
  8
7
  10
-29.373
  20
6.911
  0
VERTEX
  8
7
  10
-28.764
  20
6.454
  0
VERTEX
  8
7
  10
-28.205
  20
6.022
  0
VERTEX
  8
7
  10
-27.696
  20
5.666
  0
VERTEX
  8
7
  10
-27.315
  20
5.386
  0
VERTEX
  8
7
  10
-27.036
  20
5.183
  0
VERTEX
  8
7
  10
-26.858
  20
5.082
  0
VERTEX
  8
7
  10
-37.657
  20
-8.868
  0
VERTEX
  8
7
  10
-48.228
  20
0.203
  0
VERTEX
  8
7
  10
-35.269
  20
11.968
  0
SEQEND
  0
POLYLINE
  8
7
  6
CONTINUOUS
 66
  1
  0
VERTEX
  8
7
  10
-25.537
  20
4.573
  0
VERTEX
  8
7
  10
-25.181
  20
4.421
  0
VERTEX
  8
7
  10
-24.774
  20
4.243
  0
VERTEX
  8
7
  10
-24.266
  20
4.040
  0
VERTEX
  8
7
  10
-23.732
  20
3.862
  0
VERTEX
  8
7
  10
-23.123
  20
3.659
  0
VERTEX
  8
7
  10
-22.513
  20
3.455
  0
VERTEX
  8
7
  10
-21.878
  20
3.252
  0
VERTEX
  8
7
  10
-21.242
  20
3.074
  0
VERTEX
  8
7
  10
-20.632
  20
2.896
  0
VERTEX
  8
7
  10
-20.023
  20
2.718
  0
VERTEX
  8
7
  10
-19.464
  20
2.566
  0
VERTEX
  8
7
  10
-18.955
  20
2.439
  0
VERTEX
  8
7
  10
-18.498
  20
2.337
  0
VERTEX
  8
7
  10
-18.117
  20
2.261
  0
VERTEX
  8
7
  10
-17.837
  20
2.210
  0
VERTEX
  8
7
  10
-17.659
  20
2.185
  0
VERTEX
  8
7
  10
-21.166
  20
-22.843
  0
VERTEX
  8
7
  10
-35.396
  20
-10.723
  0
VERTEX
  8
7
  10
-25.537
  20
4.573
  0
SEQEND
  0
POLYLINE
  8
7
  6
CONTINUOUS
 66
  1
  0
VERTEX
  8
7
  10
15.754
  20
14.026
  0
VERTEX
  8
7
  10
16.821
  20
14.382
  0
VERTEX
  8
7
  10
17.863
  20
14.763
  0
VERTEX
  8
7
  10
18.854
  20
15.144
  0
VERTEX
  8
7
  10
19.794
  20
15.576
  0
VERTEX
  8
7
  10
20.709
  20
16.008
  0
VERTEX
  8
7
  10
21.598
  20
16.465
  0
VERTEX
  8
7
  10
22.411
  20
16.948
  0
VERTEX
  8
7
  10
23.224
  20
17.431
  0
VERTEX
  8
7
  10
23.961
  20
17.964
  0
VERTEX
  8
7
  10
24.673
  20
18.523
  0
VERTEX
  8
7
  10
25.333
  20
19.082
  0
VERTEX
  8
7
  10
25.969
  20
19.692
  0
VERTEX
  8
7
  10
26.553
  20
20.302
  0
VERTEX
  8
7
  10
27.112
  20
20.963
  0
VERTEX
  8
7
  10
27.595
  20
21.649
  0
VERTEX
  8
7
  10
28.052
  20
22.360
  0
VERTEX
  8
7
  10
28.484
  20
23.097
  0
VERTEX
  8
7
  10
28.840
  20
23.859
  0
VERTEX
  8
7
  10
29.170
  20
24.673
  0
VERTEX
  8
7
  10
29.475
  20
25.511
  0
VERTEX
  8
7
  10
29.704
  20
26.375
  0
VERTEX
  8
7
  10
29.907
  20
27.264
  0
VERTEX
  8
7
  10
30.060
  20
28.205
  0
VERTEX
  8
7
  10
30.187
  20
29.170
  0
VERTEX
  8
7
  10
30.237
  20
30.161
  0
VERTEX
  8
7
  10
30.263
  20
31.203
  0
VERTEX
  8
7
  10
30.237
  20
32.296
  0
VERTEX
  8
7
  10
30.187
  20
33.388
  0
VERTEX
  8
7
  10
30.060
  20
34.557
  0
VERTEX
  8
7
  10
29.907
  20
35.751
  0
VERTEX
  8
7
  10
29.704
  20
36.971
  0
VERTEX
  8
7
  10
29.450
  20
38.242
  0
VERTEX
  8
7
  10
31.101
  20
38.242
  0
VERTEX
  8
7
  10
32.905
  20
38.242
  0
VERTEX
  8
7
  10
34.862
  20
38.242
  0
VERTEX
  8
7
  10
36.971
  20
38.242
  0
VERTEX
  8
7
  10
39.182
  20
38.242
  0
VERTEX
  8
7
  10
41.519
  20
38.242
  0
VERTEX
  8
7
  10
43.933
  20
38.242
  0
VERTEX
  8
7
  10
46.424
  20
38.242
  0
VERTEX
  8
7
  10
48.990
  20
38.242
  0
VERTEX
  8
7
  10
51.607
  20
38.242
  0
VERTEX
  8
7
  10
54.250
  20
38.242
  0
VERTEX
  8
7
  10
56.918
  20
38.242
  0
VERTEX
  8
7
  10
59.586
  20
38.242
  0
VERTEX
  8
7
  10
62.254
  20
38.242
  0
VERTEX
  8
7
  10
64.922
  20
38.242
  0
VERTEX
  8
7
  10
67.539
  20
38.242
  0
VERTEX
  8
7
  10
70.080
  20
38.242
  0
VERTEX
  8
7
  10
72.596
  20
38.242
  0
VERTEX
  8
7
  10
75.010
  20
38.242
  0
VERTEX
  8
7
  10
77.348
  20
38.242
  0
VERTEX
  8
7
  10
79.584
  20
38.242
  0
VERTEX
  8
7
  10
81.693
  20
38.242
  0
VERTEX
  8
7
  10
83.675
  20
38.242
  0
VERTEX
  8
7
  10
85.504
  20
38.242
  0
VERTEX
  8
7
  10
87.156
  20
38.242
  0
VERTEX
  8
7
  10
88.655
  20
38.242
  0
VERTEX
  8
7
  10
89.951
  20
38.242
  0
VERTEX
  8
7
  10
91.044
  20
38.242
  0
VERTEX
  8
7
  10
91.933
  20
38.242
  0
VERTEX
  8
7
  10
92.568
  20
38.242
  0
VERTEX
  8
7
  10
92.975
  20
38.242
  0
VERTEX
  8
7
  10
93.102
  20
38.242
  0
VERTEX
  8
7
  10
82.785
  20
29.373
  0
VERTEX
  8
7
  10
42.155
  20
29.373
  0
VERTEX
  8
7
  10
41.875
  20
29.348
  0
VERTEX
  8
7
  10
41.646
  20
29.246
  0
VERTEX
  8
7
  10
41.469
  20
29.119
  0
VERTEX
  8
7
  10
41.316
  20
28.941
  0
VERTEX
  8
7
  10
41.215
  20
28.764
  0
VERTEX
  8
7
  10
41.138
  20
28.586
  0
VERTEX
  8
7
  10
41.113
  20
28.433
  0
VERTEX
  8
7
  10
41.087
  20
28.306
  0
VERTEX
  8
7
  10
40.884
  20
27.061
  0
VERTEX
  8
7
  10
40.630
  20
25.841
  0
VERTEX
  8
7
  10
40.300
  20
24.622
  0
VERTEX
  8
7
  10
39.919
  20
23.428
  0
VERTEX
  8
7
  10
39.461
  20
22.259
  0
VERTEX
  8
7
  10
38.953
  20
21.115
  0
VERTEX
  8
7
  10
38.394
  20
19.997
  0
VERTEX
  8
7
  10
37.784
  20
18.905
  0
VERTEX
  8
7
  10
37.149
  20
17.837
  0
VERTEX
  8
7
  10
36.437
  20
16.796
  0
VERTEX
  8
7
  10
35.701
  20
15.805
  0
VERTEX
  8
7
  10
34.913
  20
14.814
  0
VERTEX
  8
7
  10
34.100
  20
13.873
  0
VERTEX
  8
7
  10
33.261
  20
12.959
  0
VERTEX
  8
7
  10
32.397
  20
12.095
  0
VERTEX
  8
7
  10
31.482
  20
11.256
  0
VERTEX
  8
7
  10
30.568
  20
10.443
  0
VERTEX
  8
7
  10
29.628
  20
9.681
  0
VERTEX
  8
7
  10
28.662
  20
8.969
  0
VERTEX
  8
7
  10
27.696
  20
8.283
  0
VERTEX
  8
7
  10
26.731
  20
7.648
  0
VERTEX
  8
7
  10
25.740
  20
7.063
  0
VERTEX
  8
7
  10
24.723
  20
6.530
  0
VERTEX
  8
7
  10
23.732
  20
6.022
  0
VERTEX
  8
7
  10
22.741
  20
5.590
  0
VERTEX
  8
7
  10
21.750
  20
5.183
  0
VERTEX
  8
7
  10
20.785
  20
4.853
  0
VERTEX
  8
7
  10
19.794
  20
4.548
  0
VERTEX
  8
7
  10
18.854
  20
4.319
  0
VERTEX
  8
7
  10
17.914
  20
4.141
  0
VERTEX
  8
7
  10
16.973
  20
4.014
  0
VERTEX
  8
7
  10
16.084
  20
3.963
  0
VERTEX
  8
7
  10
18.193
  20
-25.409
  0
VERTEX
  8
7
  10
0.000
  20
-40.706
  0
VERTEX
  8
7
  10
-18.193
  20
-25.409
  0
VERTEX
  8
7
  10
-16.084
  20
3.963
  0
VERTEX
  8
7
  10
-16.973
  20
4.014
  0
VERTEX
  8
7
  10
-17.914
  20
4.141
  0
VERTEX
  8
7
  10
-18.854
  20
4.319
  0
VERTEX
  8
7
  10
-19.794
  20
4.548
  0
VERTEX
  8
7
  10
-20.785
  20
4.853
  0
VERTEX
  8
7
  10
-21.750
  20
5.183
  0
VERTEX
  8
7
  10
-22.741
  20
5.590
  0
VERTEX
  8
7
  10
-23.732
  20
6.022
  0
VERTEX
  8
7
  10
-24.723
  20
6.530
  0
VERTEX
  8
7
  10
-25.714
  20
7.063
  0
VERTEX
  8
7
  10
-26.705
  20
7.648
  0
VERTEX
  8
7
  10
-27.696
  20
8.283
  0
VERTEX
  8
7
  10
-28.662
  20
8.969
  0
VERTEX
  8
7
  10
-29.628
  20
9.681
  0
VERTEX
  8
7
  10
-30.568
  20
10.443
  0
VERTEX
  8
7
  10
-31.482
  20
11.256
  0
VERTEX
  8
7
  10
-32.372
  20
12.095
  0
VERTEX
  8
7
  10
-33.261
  20
12.959
  0
VERTEX
  8
7
  10
-34.100
  20
13.873
  0
VERTEX
  8
7
  10
-34.913
  20
14.814
  0
VERTEX
  8
7
  10
-35.675
  20
15.805
  0
VERTEX
  8
7
  10
-36.437
  20
16.796
  0
VERTEX
  8
7
  10
-37.124
  20
17.837
  0
VERTEX
  8
7
  10
-37.784
  20
18.905
  0
VERTEX
  8
7
  10
-38.394
  20
19.997
  0
VERTEX
  8
7
  10
-38.953
  20
21.115
  0
VERTEX
  8
7
  10
-39.461
  20
22.259
  0
VERTEX
  8
7
  10
-39.893
  20
23.428
  0
VERTEX
  8
7
  10
-40.300
  20
24.622
  0
VERTEX
  8
7
  10
-40.630
  20
25.841
  0
VERTEX
  8
7
  10
-40.884
  20
27.061
  0
VERTEX
  8
7
  10
-41.087
  20
28.306
  0
VERTEX
  8
7
  10
-41.087
  20
28.433
  0
VERTEX
  8
7
  10
-41.138
  20
28.586
  0
VERTEX
  8
7
  10
-41.215
  20
28.764
  0
VERTEX
  8
7
  10
-41.316
  20
28.941
  0
VERTEX
  8
7
  10
-41.469
  20
29.119
  0
VERTEX
  8
7
  10
-41.646
  20
29.246
  0
VERTEX
  8
7
  10
-41.875
  20
29.348
  0
VERTEX
  8
7
  10
-42.155
  20
29.373
  0
VERTEX
  8
7
  10
-82.785
  20
29.373
  0
VERTEX
  8
7
  10
-93.102
  20
38.242
  0
VERTEX
  8
7
  10
-92.975
  20
38.242
  0
VERTEX
  8
7
  10
-92.594
  20
38.242
  0
VERTEX
  8
7
  10
-91.958
  20
38.242
  0
VERTEX
  8
7
  10
-91.120
  20
38.242
  0
VERTEX
  8
7
  10
-90.053
  20
38.242
  0
VERTEX
  8
7
  10
-88.782
  20
38.242
  0
VERTEX
  8
7
  10
-87.334
  20
38.242
  0
VERTEX
  8
7
  10
-85.733
  20
38.242
  0
VERTEX
  8
7
  10
-83.954
  20
38.242
  0
VERTEX
  8
7
  10
-82.023
  20
38.242
  0
VERTEX
  8
7
  10
-79.990
  20
38.242
  0
VERTEX
  8
7
  10
-77.805
  20
38.242
  0
VERTEX
  8
7
  10
-75.543
  20
38.242
  0
VERTEX
  8
7
  10
-73.180
  20
38.242
  0
VERTEX
  8
7
  10
-70.741
  20
38.242
  0
VERTEX
  8
7
  10
-68.251
  20
38.242
  0
VERTEX
  8
7
  10
-65.710
  20
38.242
  0
VERTEX
  8
7
  10
-63.118
  20
38.242
  0
VERTEX
  8
7
  10
-60.526
  20
38.242
  0
VERTEX
  8
7
  10
-57.909
  20
38.242
  0
VERTEX
  8
7
  10
-55.292
  20
38.242
  0
VERTEX
  8
7
  10
-52.700
  20
38.242
  0
VERTEX
  8
7
  10
-50.159
  20
38.242
  0
VERTEX
  8
7
  10
-47.643
  20
38.242
  0
VERTEX
  8
7
  10
-45.204
  20
38.242
  0
VERTEX
  8
7
  10
-42.841
  20
38.242
  0
VERTEX
  8
7
  10
-40.554
  20
38.242
  0
VERTEX
  8
7
  10
-38.369
  20
38.242
  0
VERTEX
  8
7
  10
-36.285
  20
38.242
  0
VERTEX
  8
7
  10
-34.354
  20
38.242
  0
VERTEX
  8
7
  10
-32.550
  20
38.242
  0
VERTEX
  8
7
  10
-30.898
  20
38.242
  0
VERTEX
  8
7
  10
-31.152
  20
36.971
  0
VERTEX
  8
7
  10
-31.330
  20
35.726
  0
VERTEX
  8
7
  10
-31.457
  20
34.506
  0
VERTEX
  8
7
  10
-31.508
  20
33.312
  0
VERTEX
  8
7
  10
-31.533
  20
32.169
  0
VERTEX
  8
7
  10
-31.482
  20
31.051
  0
VERTEX
  8
7
  10
-31.381
  20
29.958
  0
VERTEX
  8
7
  10
-31.228
  20
28.891
  0
VERTEX
  8
7
  10
-31.025
  20
27.874
  0
VERTEX
  8
7
  10
-30.746
  20
26.883
  0
VERTEX
  8
7
  10
-30.441
  20
25.918
  0
VERTEX
  8
7
  10
-30.085
  20
24.978
  0
VERTEX
  8
7
  10
-29.653
  20
24.088
  0
VERTEX
  8
7
  10
-29.196
  20
23.250
  0
VERTEX
  8
7
  10
-28.687
  20
22.411
  0
VERTEX
  8
7
  10
-28.128
  20
21.623
  0
VERTEX
  8
7
  10
-27.519
  20
20.887
  0
VERTEX
  8
7
  10
-26.858
  20
20.175
  0
VERTEX
  8
7
  10
-26.172
  20
19.489
  0
VERTEX
  8
7
  10
-25.435
  20
18.854
  0
VERTEX
  8
7
  10
-24.647
  20
18.244
  0
VERTEX
  8
7
  10
-23.809
  20
17.685
  0
VERTEX
  8
7
  10
-22.945
  20
17.151
  0
VERTEX
  8
7
  10
-22.030
  20
16.643
  0
VERTEX
  8
7
  10
-21.090
  20
16.211
  0
VERTEX
  8
7
  10
-20.099
  20
15.779
  0
VERTEX
  8
7
  10
-19.082
  20
15.423
  0
VERTEX
  8
7
  10
-18.015
  20
15.093
  0
VERTEX
  8
7
  10
-16.923
  20
14.788
  0
VERTEX
  8
7
  10
-15.779
  20
14.534
  0
VERTEX
  8
7
  10
-14.610
  20
14.331
  0
VERTEX
  8
7
  10
-13.416
  20
14.153
  0
VERTEX
  8
7
  10
-13.035
  20
14.915
  0
VERTEX
  8
7
  10
-12.603
  20
15.779
  0
VERTEX
  8
7
  10
-12.196
  20
16.719
  0
VERTEX
  8
7
  10
-11.790
  20
17.685
  0
VERTEX
  8
7
  10
-11.459
  20
18.701
  0
VERTEX
  8
7
  10
-11.205
  20
19.743
  0
VERTEX
  8
7
  10
-11.053
  20
20.734
  0
VERTEX
  8
7
  10
-11.002
  20
21.725
  0
VERTEX
  8
7
  10
-11.129
  20
22.640
  0
VERTEX
  8
7
  10
-11.434
  20
23.504
  0
VERTEX
  8
7
  10
-11.917
  20
24.266
  0
VERTEX
  8
7
  10
-12.654
  20
24.901
  0
VERTEX
  8
7
  10
-13.619
  20
25.410
  0
VERTEX
  8
7
  10
-14.864
  20
25.740
  0
VERTEX
  8
7
  10
-16.440
  20
25.918
  0
VERTEX
  8
7
  10
-18.320
  20
25.867
  0
VERTEX
  8
7
  10
-18.396
  20
26.528
  0
VERTEX
  8
7
  10
-18.473
  20
27.214
  0
VERTEX
  8
7
  10
-18.473
  20
27.976
  0
VERTEX
  8
7
  10
-18.422
  20
28.764
  0
VERTEX
  8
7
  10
-18.295
  20
29.551
  0
VERTEX
  8
7
  10
-18.117
  20
30.364
  0
VERTEX
  8
7
  10
-17.812
  20
31.178
  0
VERTEX
  8
7
  10
-17.431
  20
31.965
  0
VERTEX
  8
7
  10
-16.923
  20
32.702
  0
VERTEX
  8
7
  10
-16.287
  20
33.414
  0
VERTEX
  8
7
  10
-15.525
  20
34.074
  0
VERTEX
  8
7
  10
-14.610
  20
34.659
  0
VERTEX
  8
7
  10
-13.518
  20
35.142
  0
VERTEX
  8
7
  10
-12.273
  20
35.574
  0
VERTEX
  8
7
  10
-10.824
  20
35.878
  0
VERTEX
  8
7
  10
-9.198
  20
36.056
  0
VERTEX
  8
7
  10
-8.893
  20
36.463
  0
VERTEX
  8
7
  10
-8.563
  20
36.844
  0
VERTEX
  8
7
  10
-8.182
  20
37.200
  0
VERTEX
  8
7
  10
-7.750
  20
37.530
  0
VERTEX
  8
7
  10
-7.292
  20
37.810
  0
VERTEX
  8
7
  10
-6.784
  20
38.064
  0
VERTEX
  8
7
  10
-6.276
  20
38.292
  0
VERTEX
  8
7
  10
-5.717
  20
38.470
  0
VERTEX
  8
7
  10
-5.158
  20
38.648
  0
VERTEX
  8
7
  10
-4.548
  20
38.801
  0
VERTEX
  8
7
  10
-3.938
  20
38.902
  0
VERTEX
  8
7
  10
-3.303
  20
39.004
  0
VERTEX
  8
7
  10
-2.668
  20
39.080
  0
VERTEX
  8
7
  10
-2.007
  20
39.131
  0
VERTEX
  8
7
  10
-1.346
  20
39.156
  0
VERTEX
  8
7
  10
-0.660
  20
39.182
  0
VERTEX
  8
7
  10
0.000
  20
39.182
  0
VERTEX
  8
7
  10
0.660
  20
39.156
  0
VERTEX
  8
7
  10
1.321
  20
39.105
  0
VERTEX
  8
7
  10
1.981
  20
39.055
  0
VERTEX
  8
7
  10
2.617
  20
39.004
  0
VERTEX
  8
7
  10
3.252
  20
38.928
  0
VERTEX
  8
7
  10
3.862
  20
38.826
  0
VERTEX
  8
7
  10
4.446
  20
38.724
  0
VERTEX
  8
7
  10
5.031
  20
38.623
  0
VERTEX
  8
7
  10
5.564
  20
38.496
  0
VERTEX
  8
7
  10
6.098
  20
38.369
  0
VERTEX
  8
7
  10
6.581
  20
38.242
  0
VERTEX
  8
7
  10
7.038
  20
38.089
  0
VERTEX
  8
7
  10
7.445
  20
37.962
  0
VERTEX
  8
7
  10
7.826
  20
37.810
  0
VERTEX
  8
7
  10
8.156
  20
37.657
  0
VERTEX
  8
7
  10
9.401
  20
36.793
  0
VERTEX
  8
7
  10
10.494
  20
35.650
  0
VERTEX
  8
7
  10
11.434
  20
34.252
  0
VERTEX
  8
7
  10
12.247
  20
32.702
  0
VERTEX
  8
7
  10
12.959
  20
30.974
  0
VERTEX
  8
7
  10
13.543
  20
29.145
  0
VERTEX
  8
7
  10
14.051
  20
27.264
  0
VERTEX
  8
7
  10
14.458
  20
25.384
  0
VERTEX
  8
7
  10
14.788
  20
23.504
  0
VERTEX
  8
7
  10
15.042
  20
21.674
  0
VERTEX
  8
7
  10
15.246
  20
19.972
  0
VERTEX
  8
7
  10
15.373
  20
18.422
  0
VERTEX
  8
7
  10
15.500
  20
17.075
  0
VERTEX
  8
7
  10
15.576
  20
15.957
  0
VERTEX
  8
7
  10
15.627
  20
15.118
  0
VERTEX
  8
7
  10
15.677
  20
14.610
  0
VERTEX
  8
7
  10
15.754
  20
14.026
  0
SEQEND
  0
POLYLINE
  8
7
  6
CONTINUOUS
 66
  1
  0
VERTEX
  8
7
  10
78.084
  20
25.460
  0
VERTEX
  8
7
  10
43.146
  20
28.128
  0
VERTEX
  8
7
  10
41.621
  20
22.564
  0
VERTEX
  8
7
  10
66.574
  20
15.677
  0
VERTEX
  8
7
  10
78.084
  20
25.460
  0
SEQEND
  0
POLYLINE
  8
7
  6
CONTINUOUS
 66
  1
  0
VERTEX
  8
7
  10
36.005
  20
13.111
  0
VERTEX
  8
7
  10
36.437
  20
13.645
  0
VERTEX
  8
7
  10
36.869
  20
14.229
  0
VERTEX
  8
7
  10
37.301
  20
14.814
  0
VERTEX
  8
7
  10
37.708
  20
15.423
  0
VERTEX
  8
7
  10
38.115
  20
16.008
  0
VERTEX
  8
7
  10
38.521
  20
16.618
  0
VERTEX
  8
7
  10
38.877
  20
17.202
  0
VERTEX
  8
7
  10
39.233
  20
17.787
  0
VERTEX
  8
7
  10
39.588
  20
18.346
  0
VERTEX
  8
7
  10
39.893
  20
18.879
  0
VERTEX
  8
7
  10
40.173
  20
19.362
  0
VERTEX
  8
7
  10
40.427
  20
19.819
  0
VERTEX
  8
7
  10
40.656
  20
20.200
  0
VERTEX
  8
7
  10
40.833
  20
20.556
  0
VERTEX
  8
7
  10
40.986
  20
20.836
  0
VERTEX
  8
7
  10
41.087
  20
21.039
  0
VERTEX
  8
7
  10
63.474
  20
13.035
  0
VERTEX
  8
7
  10
50.769
  20
2.312
  0
VERTEX
  8
7
  10
36.005
  20
13.111
  0
SEQEND
  0
POLYLINE
  8
7
  6
CONTINUOUS
 66
  1
  0
VERTEX
  8
7
  10
35.269
  20
11.968
  0
VERTEX
  8
7
  10
34.938
  20
11.586
  0
VERTEX
  8
7
  10
34.506
  20
11.129
  0
VERTEX
  8
7
  10
33.998
  20
10.646
  0
VERTEX
  8
7
  10
33.414
  20
10.138
  0
VERTEX
  8
7
  10
32.778
  20
9.604
  0
VERTEX
  8
7
  10
32.118
  20
9.045
  0
VERTEX
  8
7
  10
31.432
  20
8.486
  0
VERTEX
  8
7
  10
30.720
  20
7.927
  0
VERTEX
  8
7
  10
30.034
  20
7.394
  0
VERTEX
  8
7
  10
29.373
  20
6.911
  0
VERTEX
  8
7
  10
28.764
  20
6.454
  0
VERTEX
  8
7
  10
28.205
  20
6.022
  0
VERTEX
  8
7
  10
27.722
  20
5.666
  0
VERTEX
  8
7
  10
27.341
  20
5.386
  0
VERTEX
  8
7
  10
27.036
  20
5.183
  0
VERTEX
  8
7
  10
26.883
  20
5.082
  0
VERTEX
  8
7
  10
37.657
  20
-8.868
  0
VERTEX
  8
7
  10
48.253
  20
0.203
  0
VERTEX
  8
7
  10
35.269
  20
11.968
  0
SEQEND
  0
POLYLINE
  8
7
  6
CONTINUOUS
 66
  1
  0
VERTEX
  8
7
  10
25.537
  20
4.573
  0
VERTEX
  8
7
  10
25.206
  20
4.421
  0
VERTEX
  8
7
  10
24.774
  20
4.243
  0
VERTEX
  8
7
  10
24.291
  20
4.040
  0
VERTEX
  8
7
  10
23.732
  20
3.862
  0
VERTEX
  8
7
  10
23.148
  20
3.659
  0
VERTEX
  8
7
  10
22.538
  20
3.455
  0
VERTEX
  8
7
  10
21.903
  20
3.252
  0
VERTEX
  8
7
  10
21.268
  20
3.074
  0
VERTEX
  8
7
  10
20.632
  20
2.896
  0
VERTEX
  8
7
  10
20.048
  20
2.718
  0
VERTEX
  8
7
  10
19.489
  20
2.566
  0
VERTEX
  8
7
  10
18.981
  20
2.439
  0
VERTEX
  8
7
  10
18.523
  20
2.337
  0
VERTEX
  8
7
  10
18.142
  20
2.261
  0
VERTEX
  8
7
  10
17.863
  20
2.210
  0
VERTEX
  8
7
  10
17.685
  20
2.185
  0
VERTEX
  8
7
  10
21.191
  20
-22.843
  0
VERTEX
  8
7
  10
35.396
  20
-10.723
  0
VERTEX
  8
7
  10
25.537
  20
4.573
  0
SEQEND
  0
POLYLINE
  8
7
  6
CONTINUOUS
 66
  1
  0
VERTEX
  8
7
  10
-5.056
  20
32.219
  0
VERTEX
  8
7
  10
-4.726
  20
32.245
  0
VERTEX
  8
7
  10
-4.395
  20
32.270
  0
VERTEX
  8
7
  10
-4.116
  20
32.346
  0
VERTEX
  8
7
  10
-3.862
  20
32.448
  0
VERTEX
  8
7
  10
-3.659
  20
32.575
  0
VERTEX
  8
7
  10
-3.506
  20
32.702
  0
VERTEX
  8
7
  10
-3.404
  20
32.855
  0
VERTEX
  8
7
  10
-3.379
  20
33.007
  0
VERTEX
  8
7
  10
-3.404
  20
33.185
  0
VERTEX
  8
7
  10
-3.506
  20
33.337
  0
VERTEX
  8
7
  10
-3.659
  20
33.464
  0
VERTEX
  8
7
  10
-3.862
  20
33.592
  0
VERTEX
  8
7
  10
-4.116
  20
33.693
  0
VERTEX
  8
7
  10
-4.395
  20
33.769
  0
VERTEX
  8
7
  10
-4.726
  20
33.795
  0
VERTEX
  8
7
  10
-5.056
  20
33.820
  0
VERTEX
  8
7
  10
-5.386
  20
33.795
  0
VERTEX
  8
7
  10
-5.717
  20
33.769
  0
VERTEX
  8
7
  10
-5.996
  20
33.693
  0
VERTEX
  8
7
  10
-6.250
  20
33.592
  0
VERTEX
  8
7
  10
-6.454
  20
33.464
  0
VERTEX
  8
7
  10
-6.606
  20
33.337
  0
VERTEX
  8
7
  10
-6.708
  20
33.185
  0
VERTEX
  8
7
  10
-6.733
  20
33.007
  0
VERTEX
  8
7
  10
-6.708
  20
32.855
  0
VERTEX
  8
7
  10
-6.606
  20
32.702
  0
VERTEX
  8
7
  10
-6.454
  20
32.575
  0
VERTEX
  8
7
  10
-6.250
  20
32.448
  0
VERTEX
  8
7
  10
-5.996
  20
32.346
  0
VERTEX
  8
7
  10
-5.717
  20
32.270
  0
VERTEX
  8
7
  10
-5.386
  20
32.245
  0
VERTEX
  8
7
  10
-5.056
  20
32.219
  0
SEQEND
  0
ENDSEC
  0
EOF
