  0
SECTION
  2
HEADER
  9
$ACADVER
  1
AC1015
  9
$ACADMAINTVER
 70
     6
  9
$DWGCODEPAGE
  3
ANSI_1252
  9
$INSBASE
 10
0.0
 20
0.0
 30
0.0
  9
$EXTMIN
 10
0.0
 20
0.0
 30
0.0
  9
$EXTMAX
 10
500.0
 20
250.0
 30
0.0
  9
$LIMMIN
 10
0.0
 20
0.0
  9
$LIMMAX
 10
0.0
 20
0.0
  9
$ORTHOMODE
 70
     0
  9
$REGENMODE
 70
     1
  9
$FILLMODE
 70
     1
  9
$QTEXTMODE
 70
     0
  9
$MIRRTEXT
 70
     1
  9
$LTSCALE
 40
1.0
  9
$ATTMODE
 70
     1
  9
$TEXTSIZE
 40
3.5
  9
$TRACEWID
 40
1.0
  9
$TEXTSTYLE
  7
Standard
  9
$CLAYER
  8
0
  9
$CELTYPE
  6
ByLayer
  9
$CECOLOR
 62
   256
  9
$CELTSCALE
 40
1.0
  9
$DISPSILH
 70
     0
  9
$DIMSCALE
 40
1.0
  9
$DIMASZ
 40
6.0
  9
$DIMEXO
 40
1.0
  9
$DIMDLI
 40
3.75
  9
$DIMRND
 40
0.0
  9
$DIMDLE
 40
0.0
  9
$DIMEXE
 40
1.0
  9
$DIMTP
 40
0.0
  9
$DIMTM
 40
0.0
  9
$DIMTXT
 40
3.5
  9
$DIMCEN
 40
2.5
  9
$DIMTSZ
 40
0.0
  9
$DIMTOL
 70
     0
  9
$DIMLIM
 70
     0
  9
$DIMTIH
 70
     1
  9
$DIMTOH
 70
     1
  9
$DIMSE1
 70
     0
  9
$DIMSE2
 70
     0
  9
$DIMTAD
 70
     1
  9
$DIMZIN
 70
     0
  9
$DIMBLK
  1

  9
$DIMASO
 70
     1
  9
$DIMSHO
 70
     1
  9
$DIMPOST
  1

  9
$DIMAPOST
  1

  9
$DIMALT
 70
     0
  9
$DIMALTD
 70
     3
  9
$DIMALTF
 40
0.0393700787
  9
$DIMLFAC
 40
1.0
  9
$DIMTOFL
 70
     1
  9
$DIMTVP
 40
0.0
  9
$DIMTIX
 70
     0
  9
$DIMSOXD
 70
     0
  9
$DIMSAH
 70
     0
  9
$DIMBLK1
  1

  9
$DIMBLK2
  1

  9
$DIMSTYLE
  2
ISO-25
  9
$DIMCLRD
 70
     0
  9
$DIMCLRE
 70
     0
  9
$DIMCLRT
 70
     0
  9
$DIMTFAC
 40
1.0
  9
$DIMGAP
 40
1.524
  9
$DIMJUST
 70
     0
  9
$DIMSD1
 70
     0
  9
$DIMSD2
 70
     0
  9
$DIMTOLJ
 70
     0
  9
$DIMTZIN
 70
     0
  9
$DIMALTZ
 70
     0
  9
$DIMALTTZ
 70
     0
  9
$DIMUPT
 70
     0
  9
$DIMDEC
 70
     2
  9
$DIMTDEC
 70
     2
  9
$DIMALTU
 70
     2
  9
$DIMALTTD
 70
     3
  9
$DIMTXSTY
  7
Standard
  9
$DIMAUNIT
 70
     0
  9
$DIMADEC
 70
     0
  9
$DIMALTRND
 40
0.0
  9
$DIMAZIN
 70
     0
  9
$DIMDSEP
 70
    44
  9
$DIMATFIT
 70
     3
  9
$DIMFRAC
 70
     0
  9
$DIMLDRBLK
  1

  9
$DIMLUNIT
 70
     2
  9
$DIMLWD
 70
    -2
  9
$DIMLWE
 70
    -2
  9
$DIMTMOVE
 70
     0
  9
$LUNITS
 70
     2
  9
$LUPREC
 70
     2
  9
$SKETCHINC
 40
1.0
  9
$FILLETRAD
 40
10.0
  9
$AUNITS
 70
     0
  9
$AUPREC
 70
     0
  9
$MENU
  1
.
  9
$ELEVATION
 40
0.0
  9
$PELEVATION
 40
0.0
  9
$THICKNESS
 40
0.0
  9
$LIMCHECK
 70
     0
  9
$CHAMFERA
 40
10.0
  9
$CHAMFERB
 40
10.0
  9
$CHAMFERC
 40
20.0
  9
$CHAMFERD
 40
0.0
  9
$SKPOLY
 70
     0
  9
$TDCREATE
 40
2454863.700326146
  9
$TDUCREATE
 40
2454863.658659479
  9
$TDUPDATE
 40
2454863.700326157
  9
$TDUUPDATE
 40
2454863.658659491
  9
$TDINDWG
 40
0.0000000116
  9
$TDUSRTIMER
 40
0.0000000116
  9
$USRTIMER
 70
     1
  9
$ANGBASE
 50
0.0
  9
$ANGDIR
 70
     0
  9
$PDMODE
 70
     0
  9
$PDSIZE
 40
-1.0
  9
$PLINEWID
 40
0.0
  9
$SPLFRAME
 70
     0
  9
$SPLINETYPE
 70
     6
  9
$SPLINESEGS
 70
     8
  9
$HANDSEED
  5
1D6
  9
$SURFTAB1
 70
     6
  9
$SURFTAB2
 70
     6
  9
$SURFTYPE
 70
     6
  9
$SURFU
 70
     6
  9
$SURFV
 70
     6
  9
$UCSBASE
  2

  9
$UCSNAME
  2

  9
$UCSORG
 10
0.0
 20
0.0
 30
0.0
  9
$UCSXDIR
 10
1.0
 20
0.0
 30
0.0
  9
$UCSYDIR
 10
0.0
 20
1.0
 30
0.0
  9
$UCSORTHOREF
  2

  9
$UCSORTHOVIEW
 70
     0
  9
$UCSORGTOP
 10
0.0
 20
0.0
 30
0.0
  9
$UCSORGBOTTOM
 10
0.0
 20
0.0
 30
0.0
  9
$UCSORGLEFT
 10
0.0
 20
0.0
 30
0.0
  9
$UCSORGRIGHT
 10
0.0
 20
0.0
 30
0.0
  9
$UCSORGFRONT
 10
0.0
 20
0.0
 30
0.0
  9
$UCSORGBACK
 10
0.0
 20
0.0
 30
0.0
  9
$PUCSBASE
  2

  9
$PUCSNAME
  2

  9
$PUCSORG
 10
0.0
 20
0.0
 30
0.0
  9
$PUCSXDIR
 10
1.0
 20
0.0
 30
0.0
  9
$PUCSYDIR
 10
0.0
 20
1.0
 30
0.0
  9
$PUCSORTHOREF
  2

  9
$PUCSORTHOVIEW
 70
     0
  9
$PUCSORGTOP
 10
0.0
 20
0.0
 30
0.0
  9
$PUCSORGBOTTOM
 10
0.0
 20
0.0
 30
0.0
  9
$PUCSORGLEFT
 10
0.0
 20
0.0
 30
0.0
  9
$PUCSORGRIGHT
 10
0.0
 20
0.0
 30
0.0
  9
$PUCSORGFRONT
 10
0.0
 20
0.0
 30
0.0
  9
$PUCSORGBACK
 10
0.0
 20
0.0
 30
0.0
  9
$USERI1
 70
     0
  9
$USERI2
 70
     0
  9
$USERI3
 70
     0
  9
$USERI4
 70
     0
  9
$USERI5
 70
     0
  9
$USERR1
 40
0.0
  9
$USERR2
 40
0.0
  9
$USERR3
 40
0.0
  9
$USERR4
 40
0.0
  9
$USERR5
 40
0.0
  9
$WORLDVIEW
 70
     1
  9
$SHADEDGE
 70
     3
  9
$SHADEDIF
 70
    70
  9
$TILEMODE
 70
     1
  9
$MAXACTVP
 70
    64
  9
$PINSBASE
 10
0.0
 20
0.0
 30
0.0
  9
$PLIMCHECK
 70
     0
  9
$PEXTMIN
 10
1.0000000000E+20
 20
1.0000000000E+20
 30
1.0000000000E+20
  9
$PEXTMAX
 10
-1.0000000000E+20
 20
-1.0000000000E+20
 30
-1.0000000000E+20
  9
$PLIMMIN
 10
0.0
 20
0.0
  9
$PLIMMAX
 10
420.0
 20
297.0
  9
$UNITMODE
 70
     0
  9
$VISRETAIN
 70
     1
  9
$PLINEGEN
 70
     0
  9
$PSLTSCALE
 70
     1
  9
$TREEDEPTH
 70
  3020
  9
$CMLSTYLE
  2
Standard
  9
$CMLJUST
 70
     0
  9
$CMLSCALE
 40
20.0
  9
$PROXYGRAPHICS
 70
     1
  9
$MEASUREMENT
 70
     1
  9
$CELWEIGHT
370
    -1
  9
$ENDCAPS
280
     0
  9
$JOINSTYLE
280
     0
  9
$LWDISPLAY
290
     1
  9
$INSUNITS
 70
     4
  9
$HYPERLINKBASE
  1

  9
$STYLESHEET
  1

  9
$XEDIT
290
     1
  9
$CEPSNTYPE
380
     0
  9
$PSTYLEMODE
290
     1
  9
$FINGERPRINTGUID
  2
{3694E0DD-7C30-4707-89D2-E5FD4DDC8AFC}
  9
$VERSIONGUID
  2
{FAEB1C32-E019-11D5-929B-00C0DF256EC4}
  9
$EXTNAMES
290
     1
  9
$PSVPSCALE
 40
0.0
  9
$OLESTARTUP
290
     0
  0
ENDSEC
  0
SECTION
  2
CLASSES
  0
CLASS
  1
ACDBDICTIONARYWDFLT
  2
AcDbDictionaryWithDefault
  3
ObjectDBX Classes
 90
        0
280
     0
281
     0
  0
CLASS
  1
ACDBPLACEHOLDER
  2
AcDbPlaceHolder
  3
ObjectDBX Classes
 90
        0
280
     0
281
     0
  0
CLASS
  1
LAYOUT
  2
AcDbLayout
  3
ObjectDBX Classes
 90
        0
280
     0
281
     0
  0
ENDSEC
  0
SECTION
  2
TABLES
  0
TABLE
  2
VPORT
  5
8
330
0
100
AcDbSymbolTable
 70
     1
  0
VPORT
  5
29
330
8
100
AcDbSymbolTableRecord
100
AcDbViewportTableRecord
  2
*Active
 70
     0
 10
0.0
 20
0.0
 11
1.0
 21
1.0
 12
250.0
 22
125.0
 13
0.0
 23
0.0
 14
10.0
 24
10.0
 15
10.0
 25
10.0
 16
0.0
 26
0.0
 36
1.0
 17
0.0
 27
0.0
 37
0.0
 40
250.0
 41
2.0
 42
50.0
 43
0.0
 44
0.0
 50
0.0
 51
0.0
 71
     0
 72
  2000
 73
     1
 74
     3
 75
     0
 76
     0
 77
     0
 78
     0
281
     0
 65
     1
110
0.0
120
0.0
130
0.0
111
1.0
121
0.0
131
0.0
112
0.0
122
1.0
132
0.0
 79
     0
146
0.0
  0
ENDTAB
  0
TABLE
  2
LTYPE
  5
5
330
0
100
AcDbSymbolTable
 70
     6
  0
LTYPE
  5
14
330
5
100
AcDbSymbolTableRecord
100
AcDbLinetypeTableRecord
  2
ByBlock
 70
     0
  3

 72
    65
 73
     0
 40
0.0
  0
LTYPE
  5
15
330
5
100
AcDbSymbolTableRecord
100
AcDbLinetypeTableRecord
  2
ByLayer
 70
     0
  3

 72
    65
 73
     0
 40
0.0
  0
LTYPE
  5
16
330
5
100
AcDbSymbolTableRecord
100
AcDbLinetypeTableRecord
  2
Continuous
 70
     0
  3
Solid line
 72
    65
 73
     0
 40
0.0
  0
LTYPE
  5
2A
330
5
100
AcDbSymbolTableRecord
100
AcDbLinetypeTableRecord
  2
HIDDEN
 70
     0
  3
Hidden __ __ __ __ __ __ __ __ __ __ __ __ __ __
 72
    65
 73
     2
 40
1.905
 49
1.27
 74
     0
 49
-0.635
 74
     0
  0
LTYPE
  5
2B
330
5
100
AcDbSymbolTableRecord
100
AcDbLinetypeTableRecord
  2
PHANTOM
 70
     0
  3
Phantom ______  __  __  ______  __  __  ______
 72
    65
 73
     6
 40
12.7
 49
6.35
 74
     0
 49
-1.27
 74
     0
 49
1.27
 74
     0
 49
-1.27
 74
     0
 49
1.27
 74
     0
 49
-1.27
 74
     0
  0
LTYPE
  5
2C
330
5
100
AcDbSymbolTableRecord
100
AcDbLinetypeTableRecord
  2
CENTER
 70
     0
  3
Center ____ _ ____ _ ____ _ ____ _ ____ _ ____
 72
    65
 73
     4
 40
10.16
 49
6.35
 74
     0
 49
-1.27
 74
     0
 49
1.27
 74
     0
 49
-1.27
 74
     0
  0
LTYPE
  5
2D
330
5
100
AcDbSymbolTableRecord
100
AcDbLinetypeTableRecord
  2
CENTERX2
 70
     0
  3
Center (2x) ________  __  ________  __  _____
 72
    65
 73
     4
 40
20.32
 49
12.7
 74
     0
 49
-2.54
 74
     0
 49
2.54
 74
     0
 49
-2.54
 74
     0
  0
LTYPE
  5
2E
330
5
100
AcDbSymbolTableRecord
100
AcDbLinetypeTableRecord
  2
DOT2
 70
     0
  3
Dot (.5x) ........................................
 72
    65
 73
     2
 40
0.635
 49
0.0
 74
     0
 49
-0.635
 74
     0
  0
ENDTAB
  0
TABLE
  2
LAYER
  5
2
330
0
100
AcDbSymbolTable
 70
     1
  0
LAYER
  5
10
330
2
100
AcDbSymbolTableRecord
100
AcDbLayerTableRecord
  2
0
 70
     0
 62
     7
  6
Continuous
370
    -3
390
F
  0
ENDTAB
  0
TABLE
  2
STYLE
  5
3
330
0
100
AcDbSymbolTable
 70
     1
  0
STYLE
  5
11
330
3
100
AcDbSymbolTableRecord
100
AcDbTextStyleTableRecord
  2
Standard
 70
     0
 40
0.0
 41
1.0
 50
0.0
 71
     0
 42
2.5
  3
txt
  4

  0
ENDTAB
  0
TABLE
  2
VIEW
  5
6
330
0
100
AcDbSymbolTable
 70
     0
  0
ENDTAB
  0
TABLE
  2
UCS
  5
7
330
0
100
AcDbSymbolTable
 70
     0
  0
ENDTAB
  0
TABLE
  2
APPID
  5
9
330
0
100
AcDbSymbolTable
 70
     1
  0
APPID
  5
12
330
9
100
AcDbSymbolTableRecord
100
AcDbRegAppTableRecord
  2
ACAD
 70
     0
  0
ENDTAB
  0
TABLE
  2
DIMSTYLE
  5
A
330
0
100
AcDbSymbolTable
 70
     1
100
AcDbDimStyleTable
  0
DIMSTYLE
105
27
330
A
100
AcDbSymbolTableRecord
100
AcDbDimStyleTableRecord
  2
ISO-25
 70
     0
 41
2.5
 42
0.625
 43
3.75
 44
1.25
 73
     0
 74
     0
 77
     1
 78
     8
140
2.5
141
2.5
143
0.0393700787
147
0.625
171
     3
172
     1
271
     2
272
     2
274
     3
278
    44
283
     0
284
     8
340
11
  0
ENDTAB
  0
TABLE
  2
BLOCK_RECORD
  5
1
330
0
100
AcDbSymbolTable
 70
     1
  0
BLOCK_RECORD
  5
1F
330
1
100
AcDbSymbolTableRecord
100
AcDbBlockTableRecord
  2
*Model_Space
340
22
  0
BLOCK_RECORD
  5
1B
330
1
100
AcDbSymbolTableRecord
100
AcDbBlockTableRecord
  2
*Paper_Space
340
1E
  0
BLOCK_RECORD
  5
23
330
1
100
AcDbSymbolTableRecord
100
AcDbBlockTableRecord
  2
*Paper_Space0
340
26
  0
ENDTAB
  0
ENDSEC
  0
SECTION
  2
BLOCKS
  0
BLOCK
  5
20
330
1F
100
AcDbEntity
  8
0
100
AcDbBlockBegin
  2
*Model_Space
 70
     0
 71
     0
 10
0.0
 20
0.0
 30
0.0
  3
*Model_Space
  1

  0
ENDBLK
  5
21
330
1F
100
AcDbEntity
  8
0
100
AcDbBlockEnd
  0
BLOCK
  5
1C
330
1B
100
AcDbEntity
 67
     1
  8
0
100
AcDbBlockBegin
  2
*Paper_Space
 70
     0
 71
     0
 10
0.0
 20
0.0
 30
0.0
  3
*Paper_Space
  1

  0
ENDBLK
  5
1D
330
1B
100
AcDbEntity
 67
     1
  8
0
100
AcDbBlockEnd
  0
BLOCK
  5
24
330
23
100
AcDbEntity
  8
0
100
AcDbBlockBegin
  2
*Paper_Space0
 70
     0
 71
     0
 10
0.0
 20
0.0
 30
0.0
  3
*Paper_Space0
  1

  0
ENDBLK
  5
25
330
23
100
AcDbEntity
  8
0
100
AcDbBlockEnd
  0
ENDSEC
  0
SECTION
  2
ENTITIES
  0
CIRCLE
  5
2F
330
1F
100
AcDbEntity
  8
0
  6
Continuous
 62
     7
370
    15
100
AcDbCircle
 10
79.025998008
 20
242.7817505035
 30
0.0
 40
2.0
  0
CIRCLE
  5
30
330
1F
100
AcDbEntity
  8
0
  6
Continuous
 62
     7
370
    15
100
AcDbCircle
 10
7.025998008
 20
242.7817505035
 30
0.0
 40
2.0
  0
CIRCLE
  5
31
330
1F
100
AcDbEntity
  8
0
  6
Continuous
 62
     7
370
    15
100
AcDbCircle
 10
43.025998008
 20
242.7817505035
 30
0.0
 40
2.0
  0
LINE
  5
32
330
1F
100
AcDbEntity
  8
0
  6
Continuous
 62
     7
370
    15
100
AcDbLine
 10
79.625998008
 20
245.2817505035
 30
0.0
 11
6.425998008
 21
245.2817505035
 31
0.0
  0
ARC
  5
33
330
1F
100
AcDbEntity
  8
0
  6
Continuous
 62
     7
370
    15
100
AcDbCircle
 10
79.625998008
 20
242.8817505035
 30
0.0
 40
2.400000000000034
100
AcDbArc
 50
0.0
 51
90.0
  0
LINE
  5
34
330
1F
100
AcDbEntity
  8
0
  6
Continuous
 62
     7
370
    15
100
AcDbLine
 10
82.025998008
 20
242.6817505035
 30
0.0
 11
82.025998008
 21
242.8817505035
 31
0.0
  0
ARC
  5
35
330
1F
100
AcDbEntity
  8
0
  6
Continuous
 62
     7
370
    15
100
AcDbCircle
 10
79.625998008
 20
242.6817505035
 30
0.0
 40
2.40000000000002
100
AcDbArc
 50
270.0
 51
0.0
  0
LINE
  5
36
330
1F
100
AcDbEntity
  8
0
  6
Continuous
 62
     7
370
    15
100
AcDbLine
 10
6.425998008
 20
240.2817505035
 30
0.0
 11
79.625998008
 21
240.2817505035
 31
0.0
  0
ARC
  5
37
330
1F
100
AcDbEntity
  8
0
  6
Continuous
 62
     7
370
    15
100
AcDbCircle
 10
6.425998008
 20
242.6817505035
 30
0.0
 40
2.400000000000006
100
AcDbArc
 50
180.0
 51
270.0
  0
LINE
  5
38
330
1F
100
AcDbEntity
  8
0
  6
Continuous
 62
     7
370
    15
100
AcDbLine
 10
4.025998008
 20
242.8817505035
 30
0.0
 11
4.025998008
 21
242.6817505035
 31
0.0
  0
ARC
  5
39
330
1F
100
AcDbEntity
  8
0
  6
Continuous
 62
     7
370
    15
100
AcDbCircle
 10
6.425998008
 20
242.8817505035
 30
0.0
 40
2.400000000000034
100
AcDbArc
 50
90.0
 51
180.0
  0
CIRCLE
  5
3A
330
1F
100
AcDbEntity
  8
0
  6
Continuous
 62
     7
370
    15
100
AcDbCircle
 10
78.6492886171
 20
231.6450937484
 30
0.0
 40
2.0
  0
CIRCLE
  5
3B
330
1F
100
AcDbEntity
  8
0
  6
Continuous
 62
     7
370
    15
100
AcDbCircle
 10
6.6492886171
 20
231.6450937484
 30
0.0
 40
2.0
  0
CIRCLE
  5
3C
330
1F
100
AcDbEntity
  8
0
  6
Continuous
 62
     7
370
    15
100
AcDbCircle
 10
42.6492886171
 20
231.6450937484
 30
0.0
 40
2.0
  0
LINE
  5
3D
330
1F
100
AcDbEntity
  8
0
  6
Continuous
 62
     7
370
    15
100
AcDbLine
 10
79.2492886171
 20
234.1450937484
 30
0.0
 11
6.0492886171
 21
234.1450937484
 31
0.0
  0
ARC
  5
3E
330
1F
100
AcDbEntity
  8
0
  6
Continuous
 62
     7
370
    15
100
AcDbCircle
 10
79.2492886171
 20
231.7450937484
 30
0.0
 40
2.400000000000006
100
AcDbArc
 50
0.0
 51
90.0
  0
LINE
  5
3F
330
1F
100
AcDbEntity
  8
0
  6
Continuous
 62
     7
370
    15
100
AcDbLine
 10
81.6492886171
 20
231.5450937484
 30
0.0
 11
81.6492886171
 21
231.7450937484
 31
0.0
  0
ARC
  5
40
330
1F
100
AcDbEntity
  8
0
  6
Continuous
 62
     7
370
    15
100
AcDbCircle
 10
79.2492886171
 20
231.5450937484
 30
0.0
 40
2.400000000000006
100
AcDbArc
 50
270.0
 51
0.0
  0
LINE
  5
41
330
1F
100
AcDbEntity
  8
0
  6
Continuous
 62
     7
370
    15
100
AcDbLine
 10
6.0492886171
 20
229.1450937484
 30
0.0
 11
79.2492886171
 21
229.1450937484
 31
0.0
  0
ARC
  5
42
330
1F
100
AcDbEntity
  8
0
  6
Continuous
 62
     7
370
    15
100
AcDbCircle
 10
6.0492886171
 20
231.5450937484
 30
0.0
 40
2.399999999999999
100
AcDbArc
 50
180.0
 51
270.0
  0
LINE
  5
43
330
1F
100
AcDbEntity
  8
0
  6
Continuous
 62
     7
370
    15
100
AcDbLine
 10
3.6492886171
 20
231.7450937484
 30
0.0
 11
3.6492886171
 21
231.5450937484
 31
0.0
  0
ARC
  5
44
330
1F
100
AcDbEntity
  8
0
  6
Continuous
 62
     7
370
    15
100
AcDbCircle
 10
6.0492886171
 20
231.7450937484
 30
0.0
 40
2.400000000000014
100
AcDbArc
 50
90.0
 51
180.0
  0
CIRCLE
  5
45
330
1F
100
AcDbEntity
  8
0
  6
Continuous
 62
     7
370
    15
100
AcDbCircle
 10
78.0842245309
 20
222.2369991785
 30
0.0
 40
2.0
  0
CIRCLE
  5
46
330
1F
100
AcDbEntity
  8
0
  6
Continuous
 62
     7
370
    15
100
AcDbCircle
 10
6.0842245309
 20
222.2369991785
 30
0.0
 40
2.0
  0
CIRCLE
  5
47
330
1F
100
AcDbEntity
  8
0
  6
Continuous
 62
     7
370
    15
100
AcDbCircle
 10
42.0842245309
 20
222.2369991785
 30
0.0
 40
2.0
  0
LINE
  5
48
330
1F
100
AcDbEntity
  8
0
  6
Continuous
 62
     7
370
    15
100
AcDbLine
 10
78.6842245309
 20
224.7369991785
 30
0.0
 11
5.4842245309
 21
224.7369991785
 31
0.0
  0
ARC
  5
49
330
1F
100
AcDbEntity
  8
0
  6
Continuous
 62
     7
370
    15
100
AcDbCircle
 10
78.6842245309
 20
222.3369991785
 30
0.0
 40
2.400000000000006
100
AcDbArc
 50
0.0
 51
90.0
  0
LINE
  5
4A
330
1F
100
AcDbEntity
  8
0
  6
Continuous
 62
     7
370
    15
100
AcDbLine
 10
81.0842245309
 20
222.1369991785
 30
0.0
 11
81.0842245309
 21
222.3369991785
 31
0.0
  0
ARC
  5
4B
330
1F
100
AcDbEntity
  8
0
  6
Continuous
 62
     7
370
    15
100
AcDbCircle
 10
78.6842245309
 20
222.1369991785
 30
0.0
 40
2.399999999999991
100
AcDbArc
 50
270.0
 51
0.0
  0
LINE
  5
4C
330
1F
100
AcDbEntity
  8
0
  6
Continuous
 62
     7
370
    15
100
AcDbLine
 10
5.4842245309
 20
219.7369991785
 30
0.0
 11
78.6842245309
 21
219.7369991785
 31
0.0
  0
ARC
  5
4D
330
1F
100
AcDbEntity
  8
0
  6
Continuous
 62
     7
370
    15
100
AcDbCircle
 10
5.4842245309
 20
222.1369991785
 30
0.0
 40
2.399999999999999
100
AcDbArc
 50
180.0
 51
270.0
  0
LINE
  5
4E
330
1F
100
AcDbEntity
  8
0
  6
Continuous
 62
     7
370
    15
100
AcDbLine
 10
3.0842245309
 20
222.3369991785
 30
0.0
 11
3.0842245309
 21
222.1369991785
 31
0.0
  0
ARC
  5
4F
330
1F
100
AcDbEntity
  8
0
  6
Continuous
 62
     7
370
    15
100
AcDbCircle
 10
5.4842245309
 20
222.3369991785
 30
0.0
 40
2.400000000000014
100
AcDbArc
 50
90.0
 51
180.0
  0
CIRCLE
  5
50
330
1F
100
AcDbEntity
  8
0
  6
Continuous
 62
     7
370
    15
100
AcDbCircle
 10
79.2699692473
 20
212.806657991
 30
0.0
 40
2.0
  0
CIRCLE
  5
51
330
1F
100
AcDbEntity
  8
0
  6
Continuous
 62
     7
370
    15
100
AcDbCircle
 10
7.2699692473
 20
212.806657991
 30
0.0
 40
2.0
  0
CIRCLE
  5
52
330
1F
100
AcDbEntity
  8
0
  6
Continuous
 62
     7
370
    15
100
AcDbCircle
 10
43.2699692473
 20
212.806657991
 30
0.0
 40
2.0
  0
LINE
  5
53
330
1F
100
AcDbEntity
  8
0
  6
Continuous
 62
     7
370
    15
100
AcDbLine
 10
79.8699692473
 20
215.306657991
 30
0.0
 11
6.6699692473
 21
215.306657991
 31
0.0
  0
ARC
  5
54
330
1F
100
AcDbEntity
  8
0
  6
Continuous
 62
     7
370
    15
100
AcDbCircle
 10
79.8699692473
 20
212.906657991
 30
0.0
 40
2.400000000000006
100
AcDbArc
 50
0.0
 51
90.0
  0
LINE
  5
55
330
1F
100
AcDbEntity
  8
0
  6
Continuous
 62
     7
370
    15
100
AcDbLine
 10
82.2699692473
 20
212.706657991
 30
0.0
 11
82.2699692473
 21
212.906657991
 31
0.0
  0
ARC
  5
56
330
1F
100
AcDbEntity
  8
0
  6
Continuous
 62
     7
370
    15
100
AcDbCircle
 10
79.8699692473
 20
212.706657991
 30
0.0
 40
2.399999999999991
100
AcDbArc
 50
270.0
 51
0.0
  0
LINE
  5
57
330
1F
100
AcDbEntity
  8
0
  6
Continuous
 62
     7
370
    15
100
AcDbLine
 10
6.6699692473
 20
210.306657991
 30
0.0
 11
79.8699692473
 21
210.306657991
 31
0.0
  0
ARC
  5
58
330
1F
100
AcDbEntity
  8
0
  6
Continuous
 62
     7
370
    15
100
AcDbCircle
 10
6.6699692473
 20
212.706657991
 30
0.0
 40
2.399999999999999
100
AcDbArc
 50
180.0
 51
270.0
  0
LINE
  5
59
330
1F
100
AcDbEntity
  8
0
  6
Continuous
 62
     7
370
    15
100
AcDbLine
 10
4.2699692473
 20
212.906657991
 30
0.0
 11
4.2699692473
 21
212.706657991
 31
0.0
  0
ARC
  5
5A
330
1F
100
AcDbEntity
  8
0
  6
Continuous
 62
     7
370
    15
100
AcDbCircle
 10
6.6699692473
 20
212.906657991
 30
0.0
 40
2.400000000000014
100
AcDbArc
 50
90.0
 51
180.0
  0
CIRCLE
  5
5B
330
1F
100
AcDbEntity
  8
0
  6
Continuous
 62
     7
370
    15
100
AcDbCircle
 10
78.0842245309
 20
200.3633487421
 30
0.0
 40
2.0
  0
CIRCLE
  5
5C
330
1F
100
AcDbEntity
  8
0
  6
Continuous
 62
     7
370
    15
100
AcDbCircle
 10
6.0842245309
 20
200.3633487421
 30
0.0
 40
2.0
  0
CIRCLE
  5
5D
330
1F
100
AcDbEntity
  8
0
  6
Continuous
 62
     7
370
    15
100
AcDbCircle
 10
42.0842245309
 20
200.3633487421
 30
0.0
 40
2.0
  0
ARC
  5
5E
330
1F
100
AcDbEntity
  8
0
  6
Continuous
 62
     7
370
    15
100
AcDbCircle
 10
14.0381782528
 20
201.7138768848
 30
0.0
 40
1.65123775928803
100
AcDbArc
 50
59.9211714168
 51
253.2854688604
  0
SPLINE
  5
5F
330
1F
100
AcDbEntity
  8
0
  6
Continuous
 62
     7
370
    15
100
AcDbSpline
210
0.0
220
0.0
230
1.0
 70
    12
 71
     3
 72
    20
 73
    16
 74
     0
 42
0.00000001
 43
0.00000001
 40
0.0
 40
0.0
 40
0.0
 40
0.0
 40
0.1103189851489387
 40
0.2168655606291587
 40
0.2168655606291587
 40
0.3443774767545327
 40
0.3443774767545327
 40
0.4731696491400663
 40
0.4731696491400663
 40
0.5899237051114694
 40
0.7138380101561399
 40
0.7138380101561399
 40
0.9317069834085432
 40
0.9317069834085432
 40
1.0
 40
1.0
 40
1.0
 40
1.0
 10
13.56327660963361
 20
200.1324046064908
 30
0.0
 41
1.0
 10
14.87916622740705
 20
199.7275601436842
 30
0.0
 41
1.0
 10
17.4659479975553
 20
198.9317150651999
 30
0.0
 41
1.0
 10
20.32726474153193
 20
198.6726070843889
 30
0.0
 41
1.0
 10
23.04840312219413
 20
198.3238788101269
 30
0.0
 41
1.0
 10
23.59990021501927
 20
198.4028429609643
 30
0.0
 41
1.0
 10
24.0235933727811
 20
198.3831519095414
 30
0.0
 41
1.0
 10
23.86218619020025
 20
198.3583220218424
 30
0.0
 41
1.0
 10
26.63989894146412
 20
198.1239910215146
 30
0.0
 41
1.0
 10
26.93729832101915
 20
198.3006853043019
 30
0.0
 41
1.0
 10
30.56286099815482
 20
198.2891730371339
 30
0.0
 41
1.0
 10
34.15382262452869
 20
198.4962395468091
 30
0.0
 41
1.0
 10
33.17277957694156
 20
198.6137123622979
 30
0.0
 41
1.0
 10
36.29148766919278
 20
198.6213278425732
 30
0.0
 41
1.0
 10
36.64131862431415
 20
199.0121144339269
 30
0.0
 41
1.0
 10
36.99114957943552
 20
199.4029010252806
 30
0.0
 41
1.0
  0
ARC
  5
60
330
1F
100
AcDbEntity
  8
0
  6
Continuous
 62
     7
370
    15
100
AcDbCircle
 10
35.5472029946
 20
200.119510396
 30
0.0
 40
1.61198968050624
100
AcDbArc
 50
333.6054739716
 51
36.1606314627
  0
SPLINE
  5
61
330
1F
100
AcDbEntity
  8
0
  6
Continuous
 62
     7
370
    15
100
AcDbSpline
210
0.0
220
0.0
230
1.0
 70
    12
 71
     3
 72
    20
 73
    16
 74
     0
 42
0.00000001
 43
0.00000001
 40
0.0
 40
0.0
 40
0.0
 40
0.0
 40
0.0791918555784651
 40
0.0791918555784651
 40
0.227799733544379
 40
0.227799733544379
 40
0.3499901043189231
 40
0.4574317810647528
 40
0.4574317810647528
 40
0.5980862621962928
 40
0.5980862621962928
 40
0.7281558916285595
 40
0.7281558916285595
 40
0.861745532389957
 40
1.0
 40
1.0
 40
1.0
 40
1.0
 10
36.84866854705608
 20
201.070666611303
 30
0.0
 41
1.0
 10
36.0531958237551
 20
201.663605316761
 30
0.0
 41
1.0
 10
36.02644018382214
 20
201.6135889623912
 30
0.0
 41
1.0
 10
34.98986955833073
 20
201.6170486931626
 30
0.0
 41
1.0
 10
33.92784390887515
 20
201.337410195093
 30
0.0
 41
1.0
 10
30.56773850747969
 20
201.3703042350057
 30
0.0
 41
1.0
 10
27.72876533087902
 20
201.1075492251825
 30
0.0
 41
1.0
 10
26.2470459978016
 20
201.3796247017507
 30
0.0
 41
1.0
 10
25.09295778608497
 20
201.4374011091904
 30
0.0
 41
1.0
 10
24.50403462139628
 20
201.3478467024219
 30
0.0
 41
1.0
 10
23.47730092625649
 20
201.4265820142759
 30
0.0
 41
1.0
 10
22.65131097920019
 20
201.3792235253115
 30
0.0
 41
1.0
 10
20.98831585395221
 20
201.6892375096852
 30
0.0
 41
1.0
 10
18.12900708119372
 20
201.7355905354706
 30
0.0
 41
1.0
 10
15.96588456645059
 20
202.6683637214209
 30
0.0
 41
1.0
 10
14.86576378972043
 20
203.1427534773625
 30
0.0
 41
1.0
  0
LINE
  5
62
330
1F
100
AcDbEntity
  8
0
  6
Continuous
 62
     7
370
    15
100
AcDbLine
 10
53.0842245309
 20
197.3633487421
 30
0.0
 11
79.0842245309
 21
197.3633487421
 31
0.0
  0
ARC
  5
63
330
1F
100
AcDbEntity
  8
0
  6
Continuous
 62
     7
370
    15
100
AcDbCircle
 10
53.0842245309
 20
196.3633487421
 30
0.0
 40
1.0
100
AcDbArc
 50
90.0
 51
180.0
  0
LINE
  5
64
330
1F
100
AcDbEntity
  8
0
  6
Continuous
 62
     7
370
    15
100
AcDbLine
 10
52.0842245309
 20
195.8633487421
 30
0.0
 11
52.0842245309
 21
196.3633487421
 31
0.0
  0
ARC
  5
65
330
1F
100
AcDbEntity
  8
0
  6
Continuous
 62
     7
370
    15
100
AcDbCircle
 10
51.0842245309
 20
195.8633487421
 30
0.0
 40
1.0
100
AcDbArc
 50
270.0
 51
0.0
  0
LINE
  5
66
330
1F
100
AcDbEntity
  8
0
  6
Continuous
 62
     7
370
    15
100
AcDbLine
 10
10.0842245309
 20
194.8633487421
 30
0.0
 11
51.0842245309
 21
194.8633487421
 31
0.0
  0
ARC
  5
67
330
1F
100
AcDbEntity
  8
0
  6
Continuous
 62
     7
370
    15
100
AcDbCircle
 10
10.0842245309
 20
195.8633487421
 30
0.0
 40
1.000000000000002
100
AcDbArc
 50
180.0
 51
270.0
  0
LINE
  5
68
330
1F
100
AcDbEntity
  8
0
  6
Continuous
 62
     7
370
    15
100
AcDbLine
 10
9.0842245309
 20
196.3633487421
 30
0.0
 11
9.0842245309
 21
195.8633487421
 31
0.0
  0
ARC
  5
69
330
1F
100
AcDbEntity
  8
0
  6
Continuous
 62
     7
370
    15
100
AcDbCircle
 10
8.0842245309
 20
196.3633487421
 30
0.0
 40
1.0
100
AcDbArc
 50
0.0
 51
90.0
  0
LINE
  5
6A
330
1F
100
AcDbEntity
  8
0
  6
Continuous
 62
     7
370
    15
100
AcDbLine
 10
5.0842245309
 20
197.3633487421
 30
0.0
 11
8.0842245309
 21
197.3633487421
 31
0.0
  0
ARC
  5
6B
330
1F
100
AcDbEntity
  8
0
  6
Continuous
 62
     7
370
    15
100
AcDbCircle
 10
5.0842245309
 20
199.3633487421
 30
0.0
 40
2.000000000000001
100
AcDbArc
 50
180.0
 51
270.0
  0
LINE
  5
6C
330
1F
100
AcDbEntity
  8
0
  6
Continuous
 62
     7
370
    15
100
AcDbLine
 10
3.0842245309
 20
201.4376686932
 30
0.0
 11
3.0842245309
 21
199.3633487421
 31
0.0
  0
ARC
  5
6D
330
1F
100
AcDbEntity
  8
0
  6
Continuous
 62
     7
370
    15
100
AcDbCircle
 10
5.0842245309
 20
201.4376686932
 30
0.0
 40
2.000000000000002
100
AcDbArc
 50
89.027240616
 51
180.0
  0
LINE
  5
6E
330
1F
100
AcDbEntity
  8
0
  6
Continuous
 62
     7
370
    15
100
AcDbLine
 10
33.4612519219
 20
206.4373806218
 30
0.0
 11
5.1181786078
 21
203.4373804526
 31
0.0
  0
LINE
  5
6F
330
1F
100
AcDbEntity
  8
0
  6
Continuous
 62
     7
370
    15
100
AcDbLine
 10
55.0842245309
 20
206.4373804526
 30
0.0
 11
33.4612519219
 21
206.4373806218
 31
0.0
  0
ARC
  5
70
330
1F
100
AcDbEntity
  8
0
  6
Continuous
 62
     7
370
    15
100
AcDbCircle
 10
55.0842245309
 20
205.4373804526
 30
0.0
 40
1.0
100
AcDbArc
 50
0.0
 51
90.0
  0
LINE
  5
71
330
1F
100
AcDbEntity
  8
0
  6
Continuous
 62
     7
370
    15
100
AcDbLine
 10
56.0842245309
 20
204.4373804526
 30
0.0
 11
56.0842245309
 21
205.4373804526
 31
0.0
  0
ARC
  5
72
330
1F
100
AcDbEntity
  8
0
  6
Continuous
 62
     7
370
    15
100
AcDbCircle
 10
57.0842245309
 20
204.4373804526
 30
0.0
 40
1.0
100
AcDbArc
 50
180.0
 51
270.0
  0
LINE
  5
73
330
1F
100
AcDbEntity
  8
0
  6
Continuous
 62
     7
370
    15
100
AcDbLine
 10
79.0842245309
 20
203.4373804526
 30
0.0
 11
57.0842245309
 21
203.4373804526
 31
0.0
  0
ARC
  5
74
330
1F
100
AcDbEntity
  8
0
  6
Continuous
 62
     7
370
    15
100
AcDbCircle
 10
79.0842245309
 20
201.4373804526
 30
0.0
 40
2.0
100
AcDbArc
 50
0.0
 51
90.0
  0
LINE
  5
75
330
1F
100
AcDbEntity
  8
0
  6
Continuous
 62
     7
370
    15
100
AcDbLine
 10
81.0842245309
 20
199.3633487421
 30
0.0
 11
81.0842245309
 21
201.4373804526
 31
0.0
  0
ARC
  5
76
330
1F
100
AcDbEntity
  8
0
  6
Continuous
 62
     7
370
    15
100
AcDbCircle
 10
79.0842245309
 20
199.3633487421
 30
0.0
 40
2.0
100
AcDbArc
 50
270.0
 51
0.0
  0
CIRCLE
  5
77
330
1F
100
AcDbEntity
  8
0
  6
Continuous
 62
     7
370
    15
100
AcDbCircle
 10
79.2588459385
 20
184.5282063564
 30
0.0
 40
2.0
  0
CIRCLE
  5
78
330
1F
100
AcDbEntity
  8
0
  6
Continuous
 62
     7
370
    15
100
AcDbCircle
 10
7.2588459385
 20
184.5282063564
 30
0.0
 40
2.0
  0
CIRCLE
  5
79
330
1F
100
AcDbEntity
  8
0
  6
Continuous
 62
     7
370
    15
100
AcDbCircle
 10
43.2588459385
 20
184.5282063564
 30
0.0
 40
2.0
  0
ARC
  5
7A
330
1F
100
AcDbEntity
  8
0
  6
Continuous
 62
     7
370
    15
100
AcDbCircle
 10
15.2127996605
 20
185.8787344992
 30
0.0
 40
1.65123775928803
100
AcDbArc
 50
59.9211714168
 51
253.2854688604
  0
SPLINE
  5
7B
330
1F
100
AcDbEntity
  8
0
  6
Continuous
 62
     7
370
    15
100
AcDbSpline
210
0.0
220
0.0
230
1.0
 70
    12
 71
     3
 72
    20
 73
    16
 74
     0
 42
0.00000001
 43
0.00000001
 40
0.0
 40
0.0
 40
0.0
 40
0.0
 40
0.1103189851489387
 40
0.2168655606291587
 40
0.2168655606291587
 40
0.3443774767545327
 40
0.3443774767545327
 40
0.4731696491400663
 40
0.4731696491400663
 40
0.5899237051114694
 40
0.7138380101561399
 40
0.7138380101561399
 40
0.9317069834085432
 40
0.9317069834085432
 40
1.0
 40
1.0
 40
1.0
 40
1.0
 10
14.73789801727744
 20
184.2972622208682
 30
0.0
 41
1.0
 10
16.05378763505088
 20
183.8924177580616
 30
0.0
 41
1.0
 10
18.64056940519913
 20
183.0965726795773
 30
0.0
 41
1.0
 10
21.50188614917576
 20
182.8374646987664
 30
0.0
 41
1.0
 10
24.22302452983796
 20
182.4887364245044
 30
0.0
 41
1.0
 10
24.7745216226631
 20
182.5677005753418
 30
0.0
 41
1.0
 10
25.19821478042493
 20
182.5480095239188
 30
0.0
 41
1.0
 10
25.03680759784408
 20
182.5231796362199
 30
0.0
 41
1.0
 10
27.81452034910795
 20
182.2888486358921
 30
0.0
 41
1.0
 10
28.11191972866298
 20
182.4655429186793
 30
0.0
 41
1.0
 10
31.73748240579865
 20
182.4540306515113
 30
0.0
 41
1.0
 10
35.32844403217251
 20
182.6610971611866
 30
0.0
 41
1.0
 10
34.34740098458539
 20
182.7785699766754
 30
0.0
 41
1.0
 10
37.4661090768366
 20
182.7861854569506
 30
0.0
 41
1.0
 10
37.81594003195798
 20
183.1769720483043
 30
0.0
 41
1.0
 10
38.16577098707935
 20
183.567758639658
 30
0.0
 41
1.0
  0
ARC
  5
7C
330
1F
100
AcDbEntity
  8
0
  6
Continuous
 62
     7
370
    15
100
AcDbCircle
 10
36.7218244023
 20
184.2843680104
 30
0.0
 40
1.61198968050624
100
AcDbArc
 50
333.6054739716
 51
36.1606314627
  0
SPLINE
  5
7D
330
1F
100
AcDbEntity
  8
0
  6
Continuous
 62
     7
370
    15
100
AcDbSpline
210
0.0
220
0.0
230
1.0
 70
    12
 71
     3
 72
    20
 73
    16
 74
     0
 42
0.00000001
 43
0.00000001
 40
0.0
 40
0.0
 40
0.0
 40
0.0
 40
0.0791918555784651
 40
0.0791918555784651
 40
0.227799733544379
 40
0.227799733544379
 40
0.3499901043189231
 40
0.4574317810647528
 40
0.4574317810647528
 40
0.5980862621962928
 40
0.5980862621962928
 40
0.7281558916285595
 40
0.7281558916285595
 40
0.861745532389957
 40
1.0
 40
1.0
 40
1.0
 40
1.0
 10
38.02328995469991
 20
185.2355242256805
 30
0.0
 41
1.0
 10
37.22781723139893
 20
185.8284629311385
 30
0.0
 41
1.0
 10
37.20106159146597
 20
185.7784465767686
 30
0.0
 41
1.0
 10
36.16449096597456
 20
185.7819063075401
 30
0.0
 41
1.0
 10
35.10246531651899
 20
185.5022678094705
 30
0.0
 41
1.0
 10
31.74235991512352
 20
185.5351618493831
 30
0.0
 41
1.0
 10
28.90338673852285
 20
185.27240683956
 30
0.0
 41
1.0
 10
27.42166740544543
 20
185.5444823161282
 30
0.0
 41
1.0
 10
26.2675791937288
 20
185.6022587235679
 30
0.0
 41
1.0
 10
25.67865602904011
 20
185.5127043167994
 30
0.0
 41
1.0
 10
24.65192233390032
 20
185.5914396286534
 30
0.0
 41
1.0
 10
23.82593238684402
 20
185.544081139689
 30
0.0
 41
1.0
 10
22.16293726159604
 20
185.8540951240627
 30
0.0
 41
1.0
 10
19.30362848883755
 20
185.9004481498481
 30
0.0
 41
1.0
 10
17.14050597409442
 20
186.8332213357984
 30
0.0
 41
1.0
 10
16.04038519736426
 20
187.30761109174
 30
0.0
 41
1.0
  0
LINE
  5
7E
330
1F
100
AcDbEntity
  8
0
  6
Continuous
 62
     7
370
    15
100
AcDbLine
 10
54.2588459385
 20
181.5282063564
 30
0.0
 11
80.2588459385
 21
181.5282063564
 31
0.0
  0
ARC
  5
7F
330
1F
100
AcDbEntity
  8
0
  6
Continuous
 62
     7
370
    15
100
AcDbCircle
 10
54.2588459385
 20
180.5282063564
 30
0.0
 40
1.0
100
AcDbArc
 50
90.0
 51
180.0
  0
LINE
  5
80
330
1F
100
AcDbEntity
  8
0
  6
Continuous
 62
     7
370
    15
100
AcDbLine
 10
53.2588459385
 20
180.0282063564
 30
0.0
 11
53.2588459385
 21
180.5282063564
 31
0.0
  0
ARC
  5
81
330
1F
100
AcDbEntity
  8
0
  6
Continuous
 62
     7
370
    15
100
AcDbCircle
 10
52.2588459385
 20
180.0282063564
 30
0.0
 40
1.0
100
AcDbArc
 50
270.0
 51
0.0
  0
LINE
  5
82
330
1F
100
AcDbEntity
  8
0
  6
Continuous
 62
     7
370
    15
100
AcDbLine
 10
11.2588459385
 20
179.0282063564
 30
0.0
 11
52.2588459385
 21
179.0282063564
 31
0.0
  0
ARC
  5
83
330
1F
100
AcDbEntity
  8
0
  6
Continuous
 62
     7
370
    15
100
AcDbCircle
 10
11.2588459385
 20
180.0282063564
 30
0.0
 40
1.0
100
AcDbArc
 50
180.0
 51
270.0
  0
LINE
  5
84
330
1F
100
AcDbEntity
  8
0
  6
Continuous
 62
     7
370
    15
100
AcDbLine
 10
10.2588459385
 20
180.5282063564
 30
0.0
 11
10.2588459385
 21
180.0282063564
 31
0.0
  0
ARC
  5
85
330
1F
100
AcDbEntity
  8
0
  6
Continuous
 62
     7
370
    15
100
AcDbCircle
 10
9.2588459385
 20
180.5282063564
 30
0.0
 40
1.000000000000002
100
AcDbArc
 50
0.0
 51
90.0
  0
LINE
  5
86
330
1F
100
AcDbEntity
  8
0
  6
Continuous
 62
     7
370
    15
100
AcDbLine
 10
6.2588459385
 20
181.5282063564
 30
0.0
 11
9.2588459385
 21
181.5282063564
 31
0.0
  0
ARC
  5
87
330
1F
100
AcDbEntity
  8
0
  6
Continuous
 62
     7
370
    15
100
AcDbCircle
 10
6.2588459385
 20
183.5282063564
 30
0.0
 40
2.000000000000002
100
AcDbArc
 50
180.0
 51
270.0
  0
LINE
  5
88
330
1F
100
AcDbEntity
  8
0
  6
Continuous
 62
     7
370
    15
100
AcDbLine
 10
4.2588459385
 20
185.6025263076
 30
0.0
 11
4.2588459385
 21
183.5282063564
 31
0.0
  0
ARC
  5
89
330
1F
100
AcDbEntity
  8
0
  6
Continuous
 62
     7
370
    15
100
AcDbCircle
 10
6.2588459385
 20
185.6025263076
 30
0.0
 40
2.000000000000002
100
AcDbArc
 50
89.027240616
 51
180.0
  0
LINE
  5
8A
330
1F
100
AcDbEntity
  8
0
  6
Continuous
 62
     7
370
    15
100
AcDbLine
 10
34.6358733295
 20
190.6022382362
 30
0.0
 11
6.2928000154
 21
187.602238067
 31
0.0
  0
LINE
  5
8B
330
1F
100
AcDbEntity
  8
0
  6
Continuous
 62
     7
370
    15
100
AcDbLine
 10
56.2588459385
 20
190.602238067
 30
0.0
 11
34.6358733295
 21
190.6022382362
 31
0.0
  0
ARC
  5
8C
330
1F
100
AcDbEntity
  8
0
  6
Continuous
 62
     7
370
    15
100
AcDbCircle
 10
56.2588459385
 20
189.602238067
 30
0.0
 40
1.0
100
AcDbArc
 50
0.0
 51
90.0
  0
LINE
  5
8D
330
1F
100
AcDbEntity
  8
0
  6
Continuous
 62
     7
370
    15
100
AcDbLine
 10
57.2588459385
 20
188.602238067
 30
0.0
 11
57.2588459385
 21
189.602238067
 31
0.0
  0
ARC
  5
8E
330
1F
100
AcDbEntity
  8
0
  6
Continuous
 62
     7
370
    15
100
AcDbCircle
 10
58.2588459385
 20
188.602238067
 30
0.0
 40
1.0
100
AcDbArc
 50
180.0
 51
270.0
  0
LINE
  5
8F
330
1F
100
AcDbEntity
  8
0
  6
Continuous
 62
     7
370
    15
100
AcDbLine
 10
80.2588459385
 20
187.602238067
 30
0.0
 11
58.2588459385
 21
187.602238067
 31
0.0
  0
ARC
  5
90
330
1F
100
AcDbEntity
  8
0
  6
Continuous
 62
     7
370
    15
100
AcDbCircle
 10
80.2588459385
 20
185.602238067
 30
0.0
 40
2.0
100
AcDbArc
 50
0.0
 51
90.0
  0
LINE
  5
91
330
1F
100
AcDbEntity
  8
0
  6
Continuous
 62
     7
370
    15
100
AcDbLine
 10
82.2588459385
 20
183.5282063564
 30
0.0
 11
82.2588459385
 21
185.602238067
 31
0.0
  0
ARC
  5
92
330
1F
100
AcDbEntity
  8
0
  6
Continuous
 62
     7
370
    15
100
AcDbCircle
 10
80.2588459385
 20
183.5282063564
 30
0.0
 40
2.0
100
AcDbArc
 50
270.0
 51
0.0
  0
CIRCLE
  5
93
330
1F
100
AcDbEntity
  8
0
  6
Continuous
 62
     7
370
    15
100
AcDbCircle
 10
6.07855498
 20
172.5303613934
 30
0.0
 40
1.000000000000001
  0
LINE
  5
94
330
1F
100
AcDbEntity
  8
0
  6
Continuous
 62
     7
370
    15
100
AcDbLine
 10
3.07855498
 20
173.0303613934
 30
0.0
 11
3.07855498
 21
172.0303613934
 31
0.0
  0
ARC
  5
95
330
1F
100
AcDbEntity
  8
0
  6
Continuous
 62
     7
370
    15
100
AcDbCircle
 10
6.07855498
 20
173.0303613934
 30
0.0
 40
3.000000000000003
100
AcDbArc
 50
90.0
 51
180.0
  0
LINE
  5
96
330
1F
100
AcDbEntity
  8
0
  6
Continuous
 62
     7
370
    15
100
AcDbLine
 10
80.07855498
 20
176.0303613934
 30
0.0
 11
6.07855498
 21
176.0303613934
 31
0.0
  0
ARC
  5
97
330
1F
100
AcDbEntity
  8
0
  6
Continuous
 62
     7
370
    15
100
AcDbCircle
 10
80.07855498
 20
173.0303613934
 30
0.0
 40
3.0
100
AcDbArc
 50
360.0
 51
90.0
  0
LINE
  5
98
330
1F
100
AcDbEntity
  8
0
  6
Continuous
 62
     7
370
    15
100
AcDbLine
 10
83.07855498
 20
172.0303613934
 30
0.0
 11
83.07855498
 21
173.0303613934
 31
0.0
  0
ARC
  5
99
330
1F
100
AcDbEntity
  8
0
  6
Continuous
 62
     7
370
    15
100
AcDbCircle
 10
80.07855498
 20
172.0303613934
 30
0.0
 40
3.0
100
AcDbArc
 50
270.0
 51
0.0
  0
LINE
  5
9A
330
1F
100
AcDbEntity
  8
0
  6
Continuous
 62
     7
370
    15
100
AcDbLine
 10
57.57855498
 20
169.0303613934
 30
0.0
 11
80.07855498
 21
169.0303613934
 31
0.0
  0
ARC
  5
9B
330
1F
100
AcDbEntity
  8
0
  6
Continuous
 62
     7
370
    15
100
AcDbCircle
 10
57.57855498
 20
167.5303613934
 30
0.0
 40
1.5
100
AcDbArc
 50
90.0
 51
180.0
  0
LINE
  5
9C
330
1F
100
AcDbEntity
  8
0
  6
Continuous
 62
     7
370
    15
100
AcDbLine
 10
56.07855498
 20
166.5303613934
 30
0.0
 11
56.07855498
 21
167.5303613934
 31
0.0
  0
ARC
  5
9D
330
1F
100
AcDbEntity
  8
0
  6
Continuous
 62
     7
370
    15
100
AcDbCircle
 10
54.57855498
 20
166.5303613934
 30
0.0
 40
1.5
100
AcDbArc
 50
270.0
 51
360.0
  0
LINE
  5
9E
330
1F
100
AcDbEntity
  8
0
  6
Continuous
 62
     7
370
    15
100
AcDbLine
 10
49.57855498
 20
165.0303613934
 30
0.0
 11
54.57855498
 21
165.0303613934
 31
0.0
  0
ARC
  5
9F
330
1F
100
AcDbEntity
  8
0
  6
Continuous
 62
     7
370
    15
100
AcDbCircle
 10
49.57855498
 20
166.5303613934
 30
0.0
 40
1.5
100
AcDbArc
 50
180.0
 51
270.0
  0
LINE
  5
A0
330
1F
100
AcDbEntity
  8
0
  6
Continuous
 62
     7
370
    15
100
AcDbLine
 10
48.07855498
 20
167.5303613934
 30
0.0
 11
48.07855498
 21
166.5303613934
 31
0.0
  0
ARC
  5
A1
330
1F
100
AcDbEntity
  8
0
  6
Continuous
 62
     7
370
    15
100
AcDbCircle
 10
46.57855498
 20
167.5303613934
 30
0.0
 40
1.5
100
AcDbArc
 50
0.0
 51
90.0
  0
LINE
  5
A2
330
1F
100
AcDbEntity
  8
0
  6
Continuous
 62
     7
370
    15
100
AcDbLine
 10
6.07855498
 20
169.0303613934
 30
0.0
 11
46.57855498
 21
169.0303613934
 31
0.0
  0
ARC
  5
A3
330
1F
100
AcDbEntity
  8
0
  6
Continuous
 62
     7
370
    15
100
AcDbCircle
 10
6.07855498
 20
172.0303613934
 30
0.0
 40
3.000000000000002
100
AcDbArc
 50
180.0
 51
270.0
  0
LINE
  5
A4
330
1F
100
AcDbEntity
  8
0
  6
Continuous
 62
     7
370
    15
100
AcDbLine
 10
80.07855498
 20
174.0303613934
 30
0.0
 11
60.07855498
 21
174.0303613934
 31
0.0
  0
ARC
  5
A5
330
1F
100
AcDbEntity
  8
0
  6
Continuous
 62
     7
370
    15
100
AcDbCircle
 10
60.07855498
 20
172.5303613934
 30
0.0
 40
1.5
100
AcDbArc
 50
90.0
 51
270.0
  0
LINE
  5
A6
330
1F
100
AcDbEntity
  8
0
  6
Continuous
 62
     7
370
    15
100
AcDbLine
 10
60.07855498
 20
171.0303613934
 30
0.0
 11
80.07855498
 21
171.0303613934
 31
0.0
  0
ARC
  5
A7
330
1F
100
AcDbEntity
  8
0
  6
Continuous
 62
     7
370
    15
100
AcDbCircle
 10
80.07855498
 20
172.5303613934
 30
0.0
 40
1.5
100
AcDbArc
 50
270.0
 51
90.0
  0
LINE
  5
A8
330
1F
100
AcDbEntity
  8
0
  6
Continuous
 62
     7
370
    15
100
AcDbLine
 10
45.07855498
 20
174.5303613934
 30
0.0
 11
25.07855498
 21
174.5303613934
 31
0.0
  0
ARC
  5
A9
330
1F
100
AcDbEntity
  8
0
  6
Continuous
 62
     7
370
    15
100
AcDbCircle
 10
25.07855498
 20
172.5303613934
 30
0.0
 40
2.0
100
AcDbArc
 50
90.0
 51
270.0
  0
LINE
  5
AA
330
1F
100
AcDbEntity
  8
0
  6
Continuous
 62
     7
370
    15
100
AcDbLine
 10
25.07855498
 20
170.5303613934
 30
0.0
 11
45.07855498
 21
170.5303613934
 31
0.0
  0
ARC
  5
AB
330
1F
100
AcDbEntity
  8
0
  6
Continuous
 62
     7
370
    15
100
AcDbCircle
 10
45.07855498
 20
172.5303613934
 30
0.0
 40
2.0
100
AcDbArc
 50
270.0
 51
90.0
  0
CIRCLE
  5
AC
330
1F
100
AcDbEntity
  8
0
  6
Continuous
 62
     7
370
    15
100
AcDbCircle
 10
52.07855498
 20
168.0303613934
 30
0.0
 40
1.5
  0
CIRCLE
  5
AD
330
1F
100
AcDbEntity
  8
0
  6
Continuous
 62
     7
370
    15
100
AcDbCircle
 10
80.1865028839
 20
159.8847726162
 30
0.0
 40
1.0
  0
LINE
  5
AE
330
1F
100
AcDbEntity
  8
0
  6
Continuous
 62
     7
370
    15
100
AcDbLine
 10
83.1865028839
 20
159.3847726162
 30
0.0
 11
83.1865028839
 21
160.3847726162
 31
0.0
  0
ARC
  5
AF
330
1F
100
AcDbEntity
  8
0
  6
Continuous
 62
     7
370
    15
100
AcDbCircle
 10
80.1865028839
 20
159.3847726162
 30
0.0
 40
3.0
100
AcDbArc
 50
270.0
 51
0.0
  0
LINE
  5
B0
330
1F
100
AcDbEntity
  8
0
  6
Continuous
 62
     7
370
    15
100
AcDbLine
 10
6.1865028839
 20
156.3847726162
 30
0.0
 11
80.1865028839
 21
156.3847726162
 31
0.0
  0
ARC
  5
B1
330
1F
100
AcDbEntity
  8
0
  6
Continuous
 62
     7
370
    15
100
AcDbCircle
 10
6.1865028839
 20
159.3847726162
 30
0.0
 40
3.000000000000003
100
AcDbArc
 50
180.0
 51
270.0
  0
LINE
  5
B2
330
1F
100
AcDbEntity
  8
0
  6
Continuous
 62
     7
370
    15
100
AcDbLine
 10
3.1865028839
 20
160.3847726162
 30
0.0
 11
3.1865028839
 21
159.3847726162
 31
0.0
  0
ARC
  5
B3
330
1F
100
AcDbEntity
  8
0
  6
Continuous
 62
     7
370
    15
100
AcDbCircle
 10
6.1865028839
 20
160.3847726162
 30
0.0
 40
3.000000000000003
100
AcDbArc
 50
90.0
 51
180.0
  0
LINE
  5
B4
330
1F
100
AcDbEntity
  8
0
  6
Continuous
 62
     7
370
    15
100
AcDbLine
 10
28.6865028839
 20
163.3847726162
 30
0.0
 11
6.1865028839
 21
163.3847726162
 31
0.0
  0
ARC
  5
B5
330
1F
100
AcDbEntity
  8
0
  6
Continuous
 62
     7
370
    15
100
AcDbCircle
 10
28.6865028839
 20
164.8847726162
 30
0.0
 40
1.5
100
AcDbArc
 50
270.0
 51
0.0
  0
LINE
  5
B6
330
1F
100
AcDbEntity
  8
0
  6
Continuous
 62
     7
370
    15
100
AcDbLine
 10
30.1865028839
 20
165.8847726162
 30
0.0
 11
30.1865028839
 21
164.8847726162
 31
0.0
  0
ARC
  5
B7
330
1F
100
AcDbEntity
  8
0
  6
Continuous
 62
     7
370
    15
100
AcDbCircle
 10
31.6865028839
 20
165.8847726162
 30
0.0
 40
1.5
100
AcDbArc
 50
90.0
 51
180.0
  0
LINE
  5
B8
330
1F
100
AcDbEntity
  8
0
  6
Continuous
 62
     7
370
    15
100
AcDbLine
 10
36.6865028839
 20
167.3847726162
 30
0.0
 11
31.6865028839
 21
167.3847726162
 31
0.0
  0
ARC
  5
B9
330
1F
100
AcDbEntity
  8
0
  6
Continuous
 62
     7
370
    15
100
AcDbCircle
 10
36.6865028839
 20
165.8847726162
 30
0.0
 40
1.5
100
AcDbArc
 50
0.0
 51
90.0
  0
LINE
  5
BA
330
1F
100
AcDbEntity
  8
0
  6
Continuous
 62
     7
370
    15
100
AcDbLine
 10
38.1865028839
 20
164.8847726162
 30
0.0
 11
38.1865028839
 21
165.8847726162
 31
0.0
  0
ARC
  5
BB
330
1F
100
AcDbEntity
  8
0
  6
Continuous
 62
     7
370
    15
100
AcDbCircle
 10
39.6865028839
 20
164.8847726162
 30
0.0
 40
1.5
100
AcDbArc
 50
180.0
 51
270.0
  0
LINE
  5
BC
330
1F
100
AcDbEntity
  8
0
  6
Continuous
 62
     7
370
    15
100
AcDbLine
 10
80.1865028839
 20
163.3847726162
 30
0.0
 11
39.6865028839
 21
163.3847726162
 31
0.0
  0
ARC
  5
BD
330
1F
100
AcDbEntity
  8
0
  6
Continuous
 62
     7
370
    15
100
AcDbCircle
 10
80.1865028839
 20
160.3847726162
 30
0.0
 40
3.0
100
AcDbArc
 50
0.0
 51
90.0
  0
LINE
  5
BE
330
1F
100
AcDbEntity
  8
0
  6
Continuous
 62
     7
370
    15
100
AcDbLine
 10
6.1865028839
 20
158.3847726162
 30
0.0
 11
26.1865028839
 21
158.3847726162
 31
0.0
  0
ARC
  5
BF
330
1F
100
AcDbEntity
  8
0
  6
Continuous
 62
     7
370
    15
100
AcDbCircle
 10
26.1865028839
 20
159.8847726162
 30
0.0
 40
1.5
100
AcDbArc
 50
270.0
 51
90.0
  0
LINE
  5
C0
330
1F
100
AcDbEntity
  8
0
  6
Continuous
 62
     7
370
    15
100
AcDbLine
 10
26.1865028839
 20
161.3847726162
 30
0.0
 11
6.1865028839
 21
161.3847726162
 31
0.0
  0
ARC
  5
C1
330
1F
100
AcDbEntity
  8
0
  6
Continuous
 62
     7
370
    15
100
AcDbCircle
 10
6.1865028839
 20
159.8847726162
 30
0.0
 40
1.5
100
AcDbArc
 50
90.0
 51
270.0
  0
LINE
  5
C2
330
1F
100
AcDbEntity
  8
0
  6
Continuous
 62
     7
370
    15
100
AcDbLine
 10
41.1865028839
 20
157.8847726162
 30
0.0
 11
61.1865028839
 21
157.8847726162
 31
0.0
  0
ARC
  5
C3
330
1F
100
AcDbEntity
  8
0
  6
Continuous
 62
     7
370
    15
100
AcDbCircle
 10
61.1865028839
 20
159.8847726162
 30
0.0
 40
2.0
100
AcDbArc
 50
270.0
 51
90.0
  0
LINE
  5
C4
330
1F
100
AcDbEntity
  8
0
  6
Continuous
 62
     7
370
    15
100
AcDbLine
 10
61.1865028839
 20
161.8847726162
 30
0.0
 11
41.1865028839
 21
161.8847726162
 31
0.0
  0
ARC
  5
C5
330
1F
100
AcDbEntity
  8
0
  6
Continuous
 62
     7
370
    15
100
AcDbCircle
 10
41.1865028839
 20
159.8847726162
 30
0.0
 40
2.0
100
AcDbArc
 50
90.0
 51
270.0
  0
CIRCLE
  5
C6
330
1F
100
AcDbEntity
  8
0
  6
Continuous
 62
     7
370
    15
100
AcDbCircle
 10
34.1865028839
 20
164.3847726162
 30
0.0
 40
1.5
  0
CIRCLE
  5
C7
330
1F
100
AcDbEntity
  8
0
  6
Continuous
 62
     7
370
    15
100
AcDbCircle
 10
79.2897981968
 20
151.0728247744
 30
0.0
 40
2.0
  0
CIRCLE
  5
C8
330
1F
100
AcDbEntity
  8
0
  6
Continuous
 62
     7
370
    15
100
AcDbCircle
 10
7.2897981968
 20
151.0728247744
 30
0.0
 40
2.0
  0
CIRCLE
  5
C9
330
1F
100
AcDbEntity
  8
0
  6
Continuous
 62
     7
370
    15
100
AcDbCircle
 10
43.2897981968
 20
151.0728247744
 30
0.0
 40
2.0
  0
LINE
  5
CA
330
1F
100
AcDbEntity
  8
0
  6
Continuous
 62
     7
370
    15
100
AcDbLine
 10
79.8897981968
 20
153.5728247744
 30
0.0
 11
6.6897981968
 21
153.5728247744
 31
0.0
  0
ARC
  5
CB
330
1F
100
AcDbEntity
  8
0
  6
Continuous
 62
     7
370
    15
100
AcDbCircle
 10
79.8897981968
 20
151.1728247744
 30
0.0
 40
2.400000000000006
100
AcDbArc
 50
0.0
 51
90.0
  0
LINE
  5
CC
330
1F
100
AcDbEntity
  8
0
  6
Continuous
 62
     7
370
    15
100
AcDbLine
 10
82.2897981968
 20
150.9728247744
 30
0.0
 11
82.2897981968
 21
151.1728247744
 31
0.0
  0
ARC
  5
CD
330
1F
100
AcDbEntity
  8
0
  6
Continuous
 62
     7
370
    15
100
AcDbCircle
 10
79.8897981968
 20
150.9728247744
 30
0.0
 40
2.400000000000006
100
AcDbArc
 50
270.0
 51
0.0
  0
LINE
  5
CE
330
1F
100
AcDbEntity
  8
0
  6
Continuous
 62
     7
370
    15
100
AcDbLine
 10
6.6897981968
 20
148.5728247744
 30
0.0
 11
79.8897981968
 21
148.5728247744
 31
0.0
  0
ARC
  5
CF
330
1F
100
AcDbEntity
  8
0
  6
Continuous
 62
     7
370
    15
100
AcDbCircle
 10
6.6897981968
 20
150.9728247744
 30
0.0
 40
2.399999999999999
100
AcDbArc
 50
180.0
 51
270.0
  0
LINE
  5
D0
330
1F
100
AcDbEntity
  8
0
  6
Continuous
 62
     7
370
    15
100
AcDbLine
 10
4.2897981968
 20
151.1728247744
 30
0.0
 11
4.2897981968
 21
150.9728247744
 31
0.0
  0
ARC
  5
D1
330
1F
100
AcDbEntity
  8
0
  6
Continuous
 62
     7
370
    15
100
AcDbCircle
 10
6.6897981968
 20
151.1728247744
 30
0.0
 40
2.400000000000014
100
AcDbArc
 50
90.0
 51
180.0
  0
CIRCLE
  5
D2
330
1F
100
AcDbEntity
  8
0
  6
Continuous
 62
     7
370
    15
100
AcDbCircle
 10
79.310260326
 20
143.0022374543
 30
0.0
 40
2.0
  0
CIRCLE
  5
D3
330
1F
100
AcDbEntity
  8
0
  6
Continuous
 62
     7
370
    15
100
AcDbCircle
 10
7.310260326
 20
143.0022374543
 30
0.0
 40
2.0
  0
CIRCLE
  5
D4
330
1F
100
AcDbEntity
  8
0
  6
Continuous
 62
     7
370
    15
100
AcDbCircle
 10
43.310260326
 20
143.0022374543
 30
0.0
 40
2.0
  0
LINE
  5
D5
330
1F
100
AcDbEntity
  8
0
  6
Continuous
 62
     7
370
    15
100
AcDbLine
 10
79.910260326
 20
145.5022374543
 30
0.0
 11
6.710260326
 21
145.5022374543
 31
0.0
  0
ARC
  5
D6
330
1F
100
AcDbEntity
  8
0
  6
Continuous
 62
     7
370
    15
100
AcDbCircle
 10
79.910260326
 20
143.1022374543
 30
0.0
 40
2.400000000000006
100
AcDbArc
 50
0.0
 51
90.0
  0
LINE
  5
D7
330
1F
100
AcDbEntity
  8
0
  6
Continuous
 62
     7
370
    15
100
AcDbLine
 10
82.310260326
 20
142.9022374543
 30
0.0
 11
82.310260326
 21
143.1022374543
 31
0.0
  0
ARC
  5
D8
330
1F
100
AcDbEntity
  8
0
  6
Continuous
 62
     7
370
    15
100
AcDbCircle
 10
79.910260326
 20
142.9022374543
 30
0.0
 40
2.400000000000006
100
AcDbArc
 50
270.0
 51
0.0
  0
LINE
  5
D9
330
1F
100
AcDbEntity
  8
0
  6
Continuous
 62
     7
370
    15
100
AcDbLine
 10
6.710260326
 20
140.5022374543
 30
0.0
 11
79.910260326
 21
140.5022374543
 31
0.0
  0
ARC
  5
DA
330
1F
100
AcDbEntity
  8
0
  6
Continuous
 62
     7
370
    15
100
AcDbCircle
 10
6.710260326
 20
142.9022374543
 30
0.0
 40
2.400000000000006
100
AcDbArc
 50
180.0
 51
270.0
  0
LINE
  5
DB
330
1F
100
AcDbEntity
  8
0
  6
Continuous
 62
     7
370
    15
100
AcDbLine
 10
4.310260326
 20
143.1022374543
 30
0.0
 11
4.310260326
 21
142.9022374543
 31
0.0
  0
ARC
  5
DC
330
1F
100
AcDbEntity
  8
0
  6
Continuous
 62
     7
370
    15
100
AcDbCircle
 10
6.710260326
 20
143.1022374543
 30
0.0
 40
2.400000000000014
100
AcDbArc
 50
90.0
 51
180.0
  0
CIRCLE
  5
DD
330
1F
100
AcDbEntity
  8
0
  6
Continuous
 62
     7
370
    15
100
AcDbCircle
 10
80.474304791
 20
116.5242211373
 30
0.0
 40
2.0
  0
CIRCLE
  5
DE
330
1F
100
AcDbEntity
  8
0
  6
Continuous
 62
     7
370
    15
100
AcDbCircle
 10
8.474304791
 20
116.5242211373
 30
0.0
 40
2.0
  0
CIRCLE
  5
DF
330
1F
100
AcDbEntity
  8
0
  6
Continuous
 62
     7
370
    15
100
AcDbCircle
 10
44.474304791
 20
116.5242211373
 30
0.0
 40
2.0
  0
ARC
  5
E0
330
1F
100
AcDbEntity
  8
0
  6
Continuous
 62
     7
370
    15
100
AcDbCircle
 10
16.4282585129
 20
117.87474928
 30
0.0
 40
1.651237759288018
100
AcDbArc
 50
59.9211714168
 51
253.2854688604
  0
SPLINE
  5
E1
330
1F
100
AcDbEntity
  8
0
  6
Continuous
 62
     7
370
    15
100
AcDbSpline
210
0.0
220
0.0
230
1.0
 70
    12
 71
     3
 72
    20
 73
    16
 74
     0
 42
0.00000001
 43
0.00000001
 40
0.0
 40
0.0
 40
0.0
 40
0.0
 40
0.1103189851489387
 40
0.2168655606291587
 40
0.2168655606291587
 40
0.3443774767545327
 40
0.3443774767545327
 40
0.4731696491400663
 40
0.4731696491400663
 40
0.5899237051114694
 40
0.7138380101561399
 40
0.7138380101561399
 40
0.9317069834085432
 40
0.9317069834085432
 40
1.0
 40
1.0
 40
1.0
 40
1.0
 10
15.95335686973246
 20
116.2932770017245
 30
0.0
 41
1.0
 10
17.26924648750591
 20
115.8884325389179
 30
0.0
 41
1.0
 10
19.85602825765415
 20
115.0925874604336
 30
0.0
 41
1.0
 10
22.71734500163079
 20
114.8334794796227
 30
0.0
 41
1.0
 10
25.43848338229299
 20
114.4847512053607
 30
0.0
 41
1.0
 10
25.98998047511813
 20
114.5637153561981
 30
0.0
 41
1.0
 10
26.41367363287996
 20
114.5440243047751
 30
0.0
 41
1.0
 10
26.25226645029911
 20
114.5191944170761
 30
0.0
 41
1.0
 10
29.02997920156297
 20
114.2848634167484
 30
0.0
 41
1.0
 10
29.327378581118
 20
114.4615576995356
 30
0.0
 41
1.0
 10
32.95294125825367
 20
114.4500454323676
 30
0.0
 41
1.0
 10
36.54390288462754
 20
114.6571119420429
 30
0.0
 41
1.0
 10
35.56285983704042
 20
114.7745847575317
 30
0.0
 41
1.0
 10
38.68156792929163
 20
114.7822002378069
 30
0.0
 41
1.0
 10
39.031398884413
 20
115.1729868291606
 30
0.0
 41
1.0
 10
39.38122983953438
 20
115.5637734205143
 30
0.0
 41
1.0
  0
ARC
  5
E2
330
1F
100
AcDbEntity
  8
0
  6
Continuous
 62
     7
370
    15
100
AcDbCircle
 10
37.9372832547
 20
116.2803827913
 30
0.0
 40
1.61198968050624
100
AcDbArc
 50
333.6054739716
 51
36.1606314627
  0
SPLINE
  5
E3
330
1F
100
AcDbEntity
  8
0
  6
Continuous
 62
     7
370
    15
100
AcDbSpline
210
0.0
220
0.0
230
1.0
 70
    12
 71
     3
 72
    20
 73
    16
 74
     0
 42
0.00000001
 43
0.00000001
 40
0.0
 40
0.0
 40
0.0
 40
0.0
 40
0.0791918555784651
 40
0.0791918555784651
 40
0.227799733544379
 40
0.227799733544379
 40
0.3499901043189231
 40
0.4574317810647528
 40
0.4574317810647528
 40
0.5980862621962928
 40
0.5980862621962928
 40
0.7281558916285595
 40
0.7281558916285595
 40
0.861745532389957
 40
1.0
 40
1.0
 40
1.0
 40
1.0
 10
39.23874880715493
 20
117.2315390065367
 30
0.0
 41
1.0
 10
38.44327608385396
 20
117.8244777119948
 30
0.0
 41
1.0
 10
38.41652044392099
 20
117.7744613576249
 30
0.0
 41
1.0
 10
37.37994981842959
 20
117.7779210883964
 30
0.0
 41
1.0
 10
36.31792416897401
 20
117.4982825903268
 30
0.0
 41
1.0
 10
32.95781876757854
 20
117.5311766302394
 30
0.0
 41
1.0
 10
30.11884559097788
 20
117.2684216204163
 30
0.0
 41
1.0
 10
28.63712625790046
 20
117.5404970969845
 30
0.0
 41
1.0
 10
27.48303804618383
 20
117.5982735044242
 30
0.0
 41
1.0
 10
26.89411488149513
 20
117.5087190976556
 30
0.0
 41
1.0
 10
25.86738118635534
 20
117.5874544095096
 30
0.0
 41
1.0
 10
25.04139123929904
 20
117.5400959205452
 30
0.0
 41
1.0
 10
23.37839611405106
 20
117.850109904919
 30
0.0
 41
1.0
 10
20.51908734129258
 20
117.8964629307044
 30
0.0
 41
1.0
 10
18.35596482654945
 20
118.8292361166547
 30
0.0
 41
1.0
 10
17.25584404981929
 20
119.3036258725962
 30
0.0
 41
1.0
  0
LINE
  5
E4
330
1F
100
AcDbEntity
  8
0
  6
Continuous
 62
     7
370
    15
100
AcDbLine
 10
55.474304791
 20
113.5242211373
 30
0.0
 11
81.474304791
 21
113.5242211373
 31
0.0
  0
ARC
  5
E5
330
1F
100
AcDbEntity
  8
0
  6
Continuous
 62
     7
370
    15
100
AcDbCircle
 10
55.474304791
 20
112.5242211373
 30
0.0
 40
1.0
100
AcDbArc
 50
90.0
 51
180.0
  0
LINE
  5
E6
330
1F
100
AcDbEntity
  8
0
  6
Continuous
 62
     7
370
    15
100
AcDbLine
 10
54.474304791
 20
112.0242211373
 30
0.0
 11
54.474304791
 21
112.5242211373
 31
0.0
  0
ARC
  5
E7
330
1F
100
AcDbEntity
  8
0
  6
Continuous
 62
     7
370
    15
100
AcDbCircle
 10
53.474304791
 20
112.0242211373
 30
0.0
 40
1.0
100
AcDbArc
 50
270.0
 51
0.0
  0
LINE
  5
E8
330
1F
100
AcDbEntity
  8
0
  6
Continuous
 62
     7
370
    15
100
AcDbLine
 10
12.474304791
 20
111.0242211373
 30
0.0
 11
53.474304791
 21
111.0242211373
 31
0.0
  0
ARC
  5
E9
330
1F
100
AcDbEntity
  8
0
  6
Continuous
 62
     7
370
    15
100
AcDbCircle
 10
12.474304791
 20
112.0242211373
 30
0.0
 40
1.000000000000002
100
AcDbArc
 50
180.0
 51
270.0
  0
LINE
  5
EA
330
1F
100
AcDbEntity
  8
0
  6
Continuous
 62
     7
370
    15
100
AcDbLine
 10
11.474304791
 20
112.5242211373
 30
0.0
 11
11.474304791
 21
112.0242211373
 31
0.0
  0
ARC
  5
EB
330
1F
100
AcDbEntity
  8
0
  6
Continuous
 62
     7
370
    15
100
AcDbCircle
 10
10.474304791
 20
112.5242211373
 30
0.0
 40
1.0
100
AcDbArc
 50
0.0
 51
90.0
  0
LINE
  5
EC
330
1F
100
AcDbEntity
  8
0
  6
Continuous
 62
     7
370
    15
100
AcDbLine
 10
7.474304791
 20
113.5242211373
 30
0.0
 11
10.474304791
 21
113.5242211373
 31
0.0
  0
ARC
  5
ED
330
1F
100
AcDbEntity
  8
0
  6
Continuous
 62
     7
370
    15
100
AcDbCircle
 10
7.474304791
 20
115.5242211373
 30
0.0
 40
2.000000000000002
100
AcDbArc
 50
180.0
 51
270.0
  0
LINE
  5
EE
330
1F
100
AcDbEntity
  8
0
  6
Continuous
 62
     7
370
    15
100
AcDbLine
 10
5.474304791
 20
117.5985410885
 30
0.0
 11
5.474304791
 21
115.5242211373
 31
0.0
  0
ARC
  5
EF
330
1F
100
AcDbEntity
  8
0
  6
Continuous
 62
     7
370
    15
100
AcDbCircle
 10
7.474304791
 20
117.5985410885
 30
0.0
 40
2.000000000000002
100
AcDbArc
 50
89.027240616
 51
180.0
  0
LINE
  5
F0
330
1F
100
AcDbEntity
  8
0
  6
Continuous
 62
     7
370
    15
100
AcDbLine
 10
35.851332182
 20
122.598253017
 30
0.0
 11
7.5082588679
 21
119.5982528479
 31
0.0
  0
LINE
  5
F1
330
1F
100
AcDbEntity
  8
0
  6
Continuous
 62
     7
370
    15
100
AcDbLine
 10
57.474304791
 20
122.5982528479
 30
0.0
 11
35.851332182
 21
122.598253017
 31
0.0
  0
ARC
  5
F2
330
1F
100
AcDbEntity
  8
0
  6
Continuous
 62
     7
370
    15
100
AcDbCircle
 10
57.474304791
 20
121.5982528479
 30
0.0
 40
1.0
100
AcDbArc
 50
0.0
 51
90.0
  0
LINE
  5
F3
330
1F
100
AcDbEntity
  8
0
  6
Continuous
 62
     7
370
    15
100
AcDbLine
 10
58.474304791
 20
120.5982528479
 30
0.0
 11
58.474304791
 21
121.5982528479
 31
0.0
  0
ARC
  5
F4
330
1F
100
AcDbEntity
  8
0
  6
Continuous
 62
     7
370
    15
100
AcDbCircle
 10
59.474304791
 20
120.5982528479
 30
0.0
 40
1.0
100
AcDbArc
 50
180.0
 51
270.0
  0
LINE
  5
F5
330
1F
100
AcDbEntity
  8
0
  6
Continuous
 62
     7
370
    15
100
AcDbLine
 10
81.474304791
 20
119.5982528479
 30
0.0
 11
59.474304791
 21
119.5982528479
 31
0.0
  0
ARC
  5
F6
330
1F
100
AcDbEntity
  8
0
  6
Continuous
 62
     7
370
    15
100
AcDbCircle
 10
81.474304791
 20
117.5982528479
 30
0.0
 40
2.0
100
AcDbArc
 50
0.0
 51
90.0
  0
LINE
  5
F7
330
1F
100
AcDbEntity
  8
0
  6
Continuous
 62
     7
370
    15
100
AcDbLine
 10
83.474304791
 20
115.5242211373
 30
0.0
 11
83.474304791
 21
117.5982528479
 31
0.0
  0
ARC
  5
F8
330
1F
100
AcDbEntity
  8
0
  6
Continuous
 62
     7
370
    15
100
AcDbCircle
 10
81.474304791
 20
115.5242211373
 30
0.0
 40
2.0
100
AcDbArc
 50
270.0
 51
0.0
  0
CIRCLE
  5
F9
330
1F
100
AcDbEntity
  8
0
  6
Continuous
 62
     7
370
    15
100
AcDbCircle
 10
79.310260326
 20
130.4927547169
 30
0.0
 40
2.0
  0
CIRCLE
  5
FA
330
1F
100
AcDbEntity
  8
0
  6
Continuous
 62
     7
370
    15
100
AcDbCircle
 10
7.310260326
 20
130.4927547169
 30
0.0
 40
2.0
  0
CIRCLE
  5
FB
330
1F
100
AcDbEntity
  8
0
  6
Continuous
 62
     7
370
    15
100
AcDbCircle
 10
43.310260326
 20
130.4927547169
 30
0.0
 40
2.0
  0
ARC
  5
FC
330
1F
100
AcDbEntity
  8
0
  6
Continuous
 62
     7
370
    15
100
AcDbCircle
 10
15.264214048
 20
131.8432828596
 30
0.0
 40
1.65123775928803
100
AcDbArc
 50
59.9211714168
 51
253.2854688604
  0
SPLINE
  5
FD
330
1F
100
AcDbEntity
  8
0
  6
Continuous
 62
     7
370
    15
100
AcDbSpline
210
0.0
220
0.0
230
1.0
 70
    12
 71
     3
 72
    20
 73
    16
 74
     0
 42
0.00000001
 43
0.00000001
 40
0.0
 40
0.0
 40
0.0
 40
0.0
 40
0.1103189851489387
 40
0.2168655606291587
 40
0.2168655606291587
 40
0.3443774767545327
 40
0.3443774767545327
 40
0.4731696491400663
 40
0.4731696491400663
 40
0.5899237051114694
 40
0.7138380101561399
 40
0.7138380101561399
 40
0.9317069834085432
 40
0.9317069834085432
 40
1.0
 40
1.0
 40
1.0
 40
1.0
 10
14.78931240476816
 20
130.2618105812961
 30
0.0
 41
1.0
 10
16.10520202254161
 20
129.8569661184895
 30
0.0
 41
1.0
 10
18.69198379268985
 20
129.0611210400052
 30
0.0
 41
1.0
 10
21.55330053666649
 20
128.8020130591943
 30
0.0
 41
1.0
 10
24.27443891732869
 20
128.4532847849323
 30
0.0
 41
1.0
 10
24.82593601015383
 20
128.5322489357697
 30
0.0
 41
1.0
 10
25.24962916791566
 20
128.5125578843467
 30
0.0
 41
1.0
 10
25.08822198533481
 20
128.4877279966477
 30
0.0
 41
1.0
 10
27.86593473659867
 20
128.25339699632
 30
0.0
 41
1.0
 10
28.1633341161537
 20
128.4300912791072
 30
0.0
 41
1.0
 10
31.78889679328937
 20
128.4185790119392
 30
0.0
 41
1.0
 10
35.37985841966324
 20
128.6256455216145
 30
0.0
 41
1.0
 10
34.39881537207612
 20
128.7431183371033
 30
0.0
 41
1.0
 10
37.51752346432733
 20
128.7507338173785
 30
0.0
 41
1.0
 10
37.8673544194487
 20
129.1415204087322
 30
0.0
 41
1.0
 10
38.21718537457008
 20
129.5323070000859
 30
0.0
 41
1.0
  0
ARC
  5
FE
330
1F
100
AcDbEntity
  8
0
  6
Continuous
 62
     7
370
    15
100
AcDbCircle
 10
36.7732387897
 20
130.2489163708
 30
0.0
 40
1.611989680506234
100
AcDbArc
 50
333.6054739716
 51
36.1606314627
  0
SPLINE
  5
FF
330
1F
100
AcDbEntity
  8
0
  6
Continuous
 62
     7
370
    15
100
AcDbSpline
210
0.0
220
0.0
230
1.0
 70
    12
 71
     3
 72
    20
 73
    16
 74
     0
 42
0.00000001
 43
0.00000001
 40
0.0
 40
0.0
 40
0.0
 40
0.0
 40
0.0791918555784651
 40
0.0791918555784651
 40
0.227799733544379
 40
0.227799733544379
 40
0.3499901043189231
 40
0.4574317810647528
 40
0.4574317810647528
 40
0.5980862621962928
 40
0.5980862621962928
 40
0.7281558916285595
 40
0.7281558916285595
 40
0.861745532389957
 40
1.0
 40
1.0
 40
1.0
 40
1.0
 10
38.07470434219063
 20
131.2000725861083
 30
0.0
 41
1.0
 10
37.27923161888966
 20
131.7930112915664
 30
0.0
 41
1.0
 10
37.2524759789567
 20
131.7429949371965
 30
0.0
 41
1.0
 10
36.21590535346528
 20
131.746454667968
 30
0.0
 41
1.0
 10
35.15387970400971
 20
131.4668161698984
 30
0.0
 41
1.0
 10
31.79377430261424
 20
131.499710209811
 30
0.0
 41
1.0
 10
28.95480112601358
 20
131.2369551999879
 30
0.0
 41
1.0
 10
27.47308179293616
 20
131.5090306765561
 30
0.0
 41
1.0
 10
26.31899358121953
 20
131.5668070839958
 30
0.0
 41
1.0
 10
25.73007041653083
 20
131.4772526772273
 30
0.0
 41
1.0
 10
24.70333672139104
 20
131.5559879890813
 30
0.0
 41
1.0
 10
23.87734677433474
 20
131.5086295001169
 30
0.0
 41
1.0
 10
22.21435164908677
 20
131.8186434844906
 30
0.0
 41
1.0
 10
19.35504287632828
 20
131.864996510276
 30
0.0
 41
1.0
 10
17.19192036158515
 20
132.7977696962263
 30
0.0
 41
1.0
 10
16.09179958485499
 20
133.2721594521679
 30
0.0
 41
1.0
  0
LINE
  5
100
330
1F
100
AcDbEntity
  8
0
  6
Continuous
 62
     7
370
    15
100
AcDbLine
 10
54.310260326
 20
127.4927547169
 30
0.0
 11
80.310260326
 21
127.4927547169
 31
0.0
  0
ARC
  5
101
330
1F
100
AcDbEntity
  8
0
  6
Continuous
 62
     7
370
    15
100
AcDbCircle
 10
54.310260326
 20
126.4927547169
 30
0.0
 40
1.0
100
AcDbArc
 50
90.0
 51
180.0
  0
LINE
  5
102
330
1F
100
AcDbEntity
  8
0
  6
Continuous
 62
     7
370
    15
100
AcDbLine
 10
53.310260326
 20
125.9927547169
 30
0.0
 11
53.310260326
 21
126.4927547169
 31
0.0
  0
ARC
  5
103
330
1F
100
AcDbEntity
  8
0
  6
Continuous
 62
     7
370
    15
100
AcDbCircle
 10
52.310260326
 20
125.9927547169
 30
0.0
 40
1.0
100
AcDbArc
 50
270.0
 51
0.0
  0
LINE
  5
104
330
1F
100
AcDbEntity
  8
0
  6
Continuous
 62
     7
370
    15
100
AcDbLine
 10
11.310260326
 20
124.9927547169
 30
0.0
 11
52.310260326
 21
124.9927547169
 31
0.0
  0
ARC
  5
105
330
1F
100
AcDbEntity
  8
0
  6
Continuous
 62
     7
370
    15
100
AcDbCircle
 10
11.310260326
 20
125.9927547169
 30
0.0
 40
1.0
100
AcDbArc
 50
180.0
 51
270.0
  0
LINE
  5
106
330
1F
100
AcDbEntity
  8
0
  6
Continuous
 62
     7
370
    15
100
AcDbLine
 10
10.310260326
 20
126.4927547169
 30
0.0
 11
10.310260326
 21
125.9927547169
 31
0.0
  0
ARC
  5
107
330
1F
100
AcDbEntity
  8
0
  6
Continuous
 62
     7
370
    15
100
AcDbCircle
 10
9.310260326
 20
126.4927547169
 30
0.0
 40
1.000000000000002
100
AcDbArc
 50
0.0
 51
90.0
  0
LINE
  5
108
330
1F
100
AcDbEntity
  8
0
  6
Continuous
 62
     7
370
    15
100
AcDbLine
 10
6.310260326
 20
127.4927547169
 30
0.0
 11
9.310260326
 21
127.4927547169
 31
0.0
  0
ARC
  5
109
330
1F
100
AcDbEntity
  8
0
  6
Continuous
 62
     7
370
    15
100
AcDbCircle
 10
6.310260326
 20
129.4927547169
 30
0.0
 40
2.000000000000002
100
AcDbArc
 50
180.0
 51
270.0
  0
LINE
  5
10A
330
1F
100
AcDbEntity
  8
0
  6
Continuous
 62
     7
370
    15
100
AcDbLine
 10
4.310260326
 20
131.567074668
 30
0.0
 11
4.310260326
 21
129.4927547169
 31
0.0
  0
ARC
  5
10B
330
1F
100
AcDbEntity
  8
0
  6
Continuous
 62
     7
370
    15
100
AcDbCircle
 10
6.310260326
 20
131.567074668
 30
0.0
 40
2.000000000000002
100
AcDbArc
 50
89.027240616
 51
180.0
  0
LINE
  5
10C
330
1F
100
AcDbEntity
  8
0
  6
Continuous
 62
     7
370
    15
100
AcDbLine
 10
34.687287717
 20
136.5667865966
 30
0.0
 11
6.3442144029
 21
133.5667864274
 31
0.0
  0
LINE
  5
10D
330
1F
100
AcDbEntity
  8
0
  6
Continuous
 62
     7
370
    15
100
AcDbLine
 10
56.310260326
 20
136.5667864274
 30
0.0
 11
34.687287717
 21
136.5667865966
 31
0.0
  0
ARC
  5
10E
330
1F
100
AcDbEntity
  8
0
  6
Continuous
 62
     7
370
    15
100
AcDbCircle
 10
56.310260326
 20
135.5667864274
 30
0.0
 40
1.0
100
AcDbArc
 50
0.0
 51
90.0
  0
LINE
  5
10F
330
1F
100
AcDbEntity
  8
0
  6
Continuous
 62
     7
370
    15
100
AcDbLine
 10
57.310260326
 20
134.5667864274
 30
0.0
 11
57.310260326
 21
135.5667864274
 31
0.0
  0
ARC
  5
110
330
1F
100
AcDbEntity
  8
0
  6
Continuous
 62
     7
370
    15
100
AcDbCircle
 10
58.310260326
 20
134.5667864274
 30
0.0
 40
1.0
100
AcDbArc
 50
180.0
 51
270.0
  0
LINE
  5
111
330
1F
100
AcDbEntity
  8
0
  6
Continuous
 62
     7
370
    15
100
AcDbLine
 10
80.310260326
 20
133.5667864274
 30
0.0
 11
58.310260326
 21
133.5667864274
 31
0.0
  0
ARC
  5
112
330
1F
100
AcDbEntity
  8
0
  6
Continuous
 62
     7
370
    15
100
AcDbCircle
 10
80.310260326
 20
131.5667864274
 30
0.0
 40
2.0
100
AcDbArc
 50
0.0
 51
90.0
  0
LINE
  5
113
330
1F
100
AcDbEntity
  8
0
  6
Continuous
 62
     7
370
    15
100
AcDbLine
 10
82.310260326
 20
129.4927547169
 30
0.0
 11
82.310260326
 21
131.5667864274
 31
0.0
  0
ARC
  5
114
330
1F
100
AcDbEntity
  8
0
  6
Continuous
 62
     7
370
    15
100
AcDbCircle
 10
80.310260326
 20
129.4927547169
 30
0.0
 40
2.0
100
AcDbArc
 50
270.0
 51
0.0
  0
CIRCLE
  5
115
330
1F
100
AcDbEntity
  8
0
  6
Continuous
 62
     7
370
    15
100
AcDbCircle
 10
80.474304791
 20
105.6201135064
 30
0.0
 40
2.0
  0
CIRCLE
  5
116
330
1F
100
AcDbEntity
  8
0
  6
Continuous
 62
     7
370
    15
100
AcDbCircle
 10
8.474304791
 20
105.6201135064
 30
0.0
 40
2.0
  0
CIRCLE
  5
117
330
1F
100
AcDbEntity
  8
0
  6
Continuous
 62
     7
370
    15
100
AcDbCircle
 10
44.474304791
 20
105.6201135064
 30
0.0
 40
2.0
  0
LINE
  5
118
330
1F
100
AcDbEntity
  8
0
  6
Continuous
 62
     7
370
    15
100
AcDbLine
 10
81.074304791
 20
108.1201135064
 30
0.0
 11
7.874304791
 21
108.1201135064
 31
0.0
  0
ARC
  5
119
330
1F
100
AcDbEntity
  8
0
  6
Continuous
 62
     7
370
    15
100
AcDbCircle
 10
81.074304791
 20
105.7201135064
 30
0.0
 40
2.40000000000002
100
AcDbArc
 50
0.0
 51
90.0
  0
LINE
  5
11A
330
1F
100
AcDbEntity
  8
0
  6
Continuous
 62
     7
370
    15
100
AcDbLine
 10
83.474304791
 20
105.5201135064
 30
0.0
 11
83.474304791
 21
105.7201135064
 31
0.0
  0
ARC
  5
11B
330
1F
100
AcDbEntity
  8
0
  6
Continuous
 62
     7
370
    15
100
AcDbCircle
 10
81.074304791
 20
105.5201135064
 30
0.0
 40
2.40000000000002
100
AcDbArc
 50
270.0
 51
0.0
  0
LINE
  5
11C
330
1F
100
AcDbEntity
  8
0
  6
Continuous
 62
     7
370
    15
100
AcDbLine
 10
7.874304791
 20
103.1201135064
 30
0.0
 11
81.074304791
 21
103.1201135064
 31
0.0
  0
ARC
  5
11D
330
1F
100
AcDbEntity
  8
0
  6
Continuous
 62
     7
370
    15
100
AcDbCircle
 10
7.874304791
 20
105.5201135064
 30
0.0
 40
2.400000000000006
100
AcDbArc
 50
180.0
 51
270.0
  0
LINE
  5
11E
330
1F
100
AcDbEntity
  8
0
  6
Continuous
 62
     7
370
    15
100
AcDbLine
 10
5.474304791
 20
105.7201135064
 30
0.0
 11
5.474304791
 21
105.5201135064
 31
0.0
  0
ARC
  5
11F
330
1F
100
AcDbEntity
  8
0
  6
Continuous
 62
     7
370
    15
100
AcDbCircle
 10
7.874304791
 20
105.7201135064
 30
0.0
 40
2.400000000000013
100
AcDbArc
 50
90.0
 51
180.0
  0
CIRCLE
  5
120
330
1F
100
AcDbEntity
  8
0
  6
Continuous
 62
     7
370
    15
100
AcDbCircle
 10
80.474304791
 20
97.3134922044
 30
0.0
 40
2.0
  0
CIRCLE
  5
121
330
1F
100
AcDbEntity
  8
0
  6
Continuous
 62
     7
370
    15
100
AcDbCircle
 10
8.474304791
 20
97.3134922044
 30
0.0
 40
2.0
  0
CIRCLE
  5
122
330
1F
100
AcDbEntity
  8
0
  6
Continuous
 62
     7
370
    15
100
AcDbCircle
 10
44.474304791
 20
97.3134922044
 30
0.0
 40
2.0
  0
LINE
  5
123
330
1F
100
AcDbEntity
  8
0
  6
Continuous
 62
     7
370
    15
100
AcDbLine
 10
81.074304791
 20
99.8134922044
 30
0.0
 11
7.874304791
 21
99.8134922044
 31
0.0
  0
ARC
  5
124
330
1F
100
AcDbEntity
  8
0
  6
Continuous
 62
     7
370
    15
100
AcDbCircle
 10
81.074304791
 20
97.4134922044
 30
0.0
 40
2.400000000000006
100
AcDbArc
 50
0.0
 51
90.0
  0
LINE
  5
125
330
1F
100
AcDbEntity
  8
0
  6
Continuous
 62
     7
370
    15
100
AcDbLine
 10
83.474304791
 20
97.2134922044
 30
0.0
 11
83.474304791
 21
97.4134922044
 31
0.0
  0
ARC
  5
126
330
1F
100
AcDbEntity
  8
0
  6
Continuous
 62
     7
370
    15
100
AcDbCircle
 10
81.074304791
 20
97.2134922044
 30
0.0
 40
2.400000000000006
100
AcDbArc
 50
270.0
 51
0.0
  0
LINE
  5
127
330
1F
100
AcDbEntity
  8
0
  6
Continuous
 62
     7
370
    15
100
AcDbLine
 10
7.874304791
 20
94.8134922044
 30
0.0
 11
81.074304791
 21
94.8134922044
 31
0.0
  0
ARC
  5
128
330
1F
100
AcDbEntity
  8
0
  6
Continuous
 62
     7
370
    15
100
AcDbCircle
 10
7.874304791
 20
97.2134922044
 30
0.0
 40
2.399999999999999
100
AcDbArc
 50
180.0
 51
270.0
  0
LINE
  5
129
330
1F
100
AcDbEntity
  8
0
  6
Continuous
 62
     7
370
    15
100
AcDbLine
 10
5.474304791
 20
97.4134922044
 30
0.0
 11
5.474304791
 21
97.2134922044
 31
0.0
  0
ARC
  5
12A
330
1F
100
AcDbEntity
  8
0
  6
Continuous
 62
     7
370
    15
100
AcDbCircle
 10
7.874304791
 20
97.4134922044
 30
0.0
 40
2.400000000000014
100
AcDbArc
 50
90.0
 51
180.0
  0
CIRCLE
  5
12B
330
1F
100
AcDbEntity
  8
0
  6
Continuous
 62
     7
370
    15
100
AcDbCircle
 10
82.9829064176
 20
74.5981569059
 30
0.0
 40
1.0
  0
LINE
  5
12C
330
1F
100
AcDbEntity
  8
0
  6
Continuous
 62
     7
370
    15
100
AcDbLine
 10
85.9829064176
 20
74.0981569059
 30
0.0
 11
85.9829064176
 21
75.0981569059
 31
0.0
  0
ARC
  5
12D
330
1F
100
AcDbEntity
  8
0
  6
Continuous
 62
     7
370
    15
100
AcDbCircle
 10
82.9829064176
 20
74.0981569059
 30
0.0
 40
3.0
100
AcDbArc
 50
270.0
 51
0.0
  0
LINE
  5
12E
330
1F
100
AcDbEntity
  8
0
  6
Continuous
 62
     7
370
    15
100
AcDbLine
 10
8.9829064176
 20
71.0981569059
 30
0.0
 11
82.9829064176
 21
71.0981569059
 31
0.0
  0
ARC
  5
12F
330
1F
100
AcDbEntity
  8
0
  6
Continuous
 62
     7
370
    15
100
AcDbCircle
 10
8.9829064176
 20
74.0981569059
 30
0.0
 40
3.000000000000003
100
AcDbArc
 50
180.0
 51
270.0
  0
LINE
  5
130
330
1F
100
AcDbEntity
  8
0
  6
Continuous
 62
     7
370
    15
100
AcDbLine
 10
5.9829064176
 20
75.0981569059
 30
0.0
 11
5.9829064176
 21
74.0981569059
 31
0.0
  0
ARC
  5
131
330
1F
100
AcDbEntity
  8
0
  6
Continuous
 62
     7
370
    15
100
AcDbCircle
 10
8.9829064176
 20
75.0981569059
 30
0.0
 40
3.000000000000003
100
AcDbArc
 50
90.0
 51
180.0
  0
LINE
  5
132
330
1F
100
AcDbEntity
  8
0
  6
Continuous
 62
     7
370
    15
100
AcDbLine
 10
31.4829064176
 20
78.0981569059
 30
0.0
 11
8.9829064176
 21
78.0981569059
 31
0.0
  0
ARC
  5
133
330
1F
100
AcDbEntity
  8
0
  6
Continuous
 62
     7
370
    15
100
AcDbCircle
 10
31.4829064176
 20
79.5981569059
 30
0.0
 40
1.5
100
AcDbArc
 50
270.0
 51
0.0
  0
LINE
  5
134
330
1F
100
AcDbEntity
  8
0
  6
Continuous
 62
     7
370
    15
100
AcDbLine
 10
32.9829064176
 20
80.5981569059
 30
0.0
 11
32.9829064176
 21
79.5981569059
 31
0.0
  0
ARC
  5
135
330
1F
100
AcDbEntity
  8
0
  6
Continuous
 62
     7
370
    15
100
AcDbCircle
 10
34.4829064176
 20
80.5981569059
 30
0.0
 40
1.500000000000014
100
AcDbArc
 50
90.0
 51
180.0
  0
LINE
  5
136
330
1F
100
AcDbEntity
  8
0
  6
Continuous
 62
     7
370
    15
100
AcDbLine
 10
39.4829064176
 20
82.0981569059
 30
0.0
 11
34.4829064176
 21
82.0981569059
 31
0.0
  0
ARC
  5
137
330
1F
100
AcDbEntity
  8
0
  6
Continuous
 62
     7
370
    15
100
AcDbCircle
 10
39.4829064176
 20
80.5981569059
 30
0.0
 40
1.500000000000014
100
AcDbArc
 50
0.0
 51
90.0
  0
LINE
  5
138
330
1F
100
AcDbEntity
  8
0
  6
Continuous
 62
     7
370
    15
100
AcDbLine
 10
40.9829064176
 20
79.5981569059
 30
0.0
 11
40.9829064176
 21
80.5981569059
 31
0.0
  0
ARC
  5
139
330
1F
100
AcDbEntity
  8
0
  6
Continuous
 62
     7
370
    15
100
AcDbCircle
 10
42.4829064176
 20
79.5981569059
 30
0.0
 40
1.5
100
AcDbArc
 50
180.0
 51
270.0
  0
LINE
  5
13A
330
1F
100
AcDbEntity
  8
0
  6
Continuous
 62
     7
370
    15
100
AcDbLine
 10
82.9829064176
 20
78.0981569059
 30
0.0
 11
42.4829064176
 21
78.0981569059
 31
0.0
  0
ARC
  5
13B
330
1F
100
AcDbEntity
  8
0
  6
Continuous
 62
     7
370
    15
100
AcDbCircle
 10
82.9829064176
 20
75.0981569059
 30
0.0
 40
3.0
100
AcDbArc
 50
360.0
 51
90.0
  0
LINE
  5
13C
330
1F
100
AcDbEntity
  8
0
  6
Continuous
 62
     7
370
    15
100
AcDbLine
 10
8.9829064176
 20
73.0981569059
 30
0.0
 11
28.9829064176
 21
73.0981569059
 31
0.0
  0
ARC
  5
13D
330
1F
100
AcDbEntity
  8
0
  6
Continuous
 62
     7
370
    15
100
AcDbCircle
 10
28.9829064176
 20
74.5981569059
 30
0.0
 40
1.5
100
AcDbArc
 50
270.0
 51
90.0
  0
LINE
  5
13E
330
1F
100
AcDbEntity
  8
0
  6
Continuous
 62
     7
370
    15
100
AcDbLine
 10
28.9829064176
 20
76.0981569059
 30
0.0
 11
8.9829064176
 21
76.0981569059
 31
0.0
  0
ARC
  5
13F
330
1F
100
AcDbEntity
  8
0
  6
Continuous
 62
     7
370
    15
100
AcDbCircle
 10
8.9829064176
 20
74.5981569059
 30
0.0
 40
1.5
100
AcDbArc
 50
90.0
 51
270.0
  0
LINE
  5
140
330
1F
100
AcDbEntity
  8
0
  6
Continuous
 62
     7
370
    15
100
AcDbLine
 10
43.9829064176
 20
72.5981569059
 30
0.0
 11
63.9829064176
 21
72.5981569059
 31
0.0
  0
ARC
  5
141
330
1F
100
AcDbEntity
  8
0
  6
Continuous
 62
     7
370
    15
100
AcDbCircle
 10
63.9829064176
 20
74.5981569059
 30
0.0
 40
2.0
100
AcDbArc
 50
270.0
 51
90.0
  0
LINE
  5
142
330
1F
100
AcDbEntity
  8
0
  6
Continuous
 62
     7
370
    15
100
AcDbLine
 10
63.9829064176
 20
76.5981569059
 30
0.0
 11
43.9829064176
 21
76.5981569059
 31
0.0
  0
ARC
  5
143
330
1F
100
AcDbEntity
  8
0
  6
Continuous
 62
     7
370
    15
100
AcDbCircle
 10
43.9829064176
 20
74.5981569059
 30
0.0
 40
2.0
100
AcDbArc
 50
90.0
 51
270.0
  0
CIRCLE
  5
144
330
1F
100
AcDbEntity
  8
0
  6
Continuous
 62
     7
370
    15
100
AcDbCircle
 10
36.9829064176
 20
79.0981569059
 30
0.0
 40
1.5
  0
CIRCLE
  5
145
330
1F
100
AcDbEntity
  8
0
  6
Continuous
 62
     7
370
    15
100
AcDbCircle
 10
7.7653159072
 20
88.2550697873
 30
0.0
 40
1.000000000000001
  0
LINE
  5
146
330
1F
100
AcDbEntity
  8
0
  6
Continuous
 62
     7
370
    15
100
AcDbLine
 10
4.7653159072
 20
88.7550697873
 30
0.0
 11
4.7653159072
 21
87.7550697873
 31
0.0
  0
ARC
  5
147
330
1F
100
AcDbEntity
  8
0
  6
Continuous
 62
     7
370
    15
100
AcDbCircle
 10
7.7653159072
 20
88.7550697873
 30
0.0
 40
3.000000000000003
100
AcDbArc
 50
90.0
 51
180.0
  0
LINE
  5
148
330
1F
100
AcDbEntity
  8
0
  6
Continuous
 62
     7
370
    15
100
AcDbLine
 10
81.7653159072
 20
91.7550697873
 30
0.0
 11
7.7653159072
 21
91.7550697873
 31
0.0
  0
ARC
  5
149
330
1F
100
AcDbEntity
  8
0
  6
Continuous
 62
     7
370
    15
100
AcDbCircle
 10
81.7653159072
 20
88.7550697873
 30
0.0
 40
3.0
100
AcDbArc
 50
360.0
 51
90.0
  0
LINE
  5
14A
330
1F
100
AcDbEntity
  8
0
  6
Continuous
 62
     7
370
    15
100
AcDbLine
 10
84.7653159072
 20
87.7550697873
 30
0.0
 11
84.7653159072
 21
88.7550697873
 31
0.0
  0
ARC
  5
14B
330
1F
100
AcDbEntity
  8
0
  6
Continuous
 62
     7
370
    15
100
AcDbCircle
 10
81.7653159072
 20
87.7550697873
 30
0.0
 40
3.0
100
AcDbArc
 50
270.0
 51
0.0
  0
LINE
  5
14C
330
1F
100
AcDbEntity
  8
0
  6
Continuous
 62
     7
370
    15
100
AcDbLine
 10
59.2653159072
 20
84.7550697873
 30
0.0
 11
81.7653159072
 21
84.7550697873
 31
0.0
  0
ARC
  5
14D
330
1F
100
AcDbEntity
  8
0
  6
Continuous
 62
     7
370
    15
100
AcDbCircle
 10
59.2653159072
 20
83.2550697873
 30
0.0
 40
1.500000000000007
100
AcDbArc
 50
90.0
 51
180.0
  0
LINE
  5
14E
330
1F
100
AcDbEntity
  8
0
  6
Continuous
 62
     7
370
    15
100
AcDbLine
 10
57.7653159072
 20
82.2550697873
 30
0.0
 11
57.7653159072
 21
83.2550697873
 31
0.0
  0
ARC
  5
14F
330
1F
100
AcDbEntity
  8
0
  6
Continuous
 62
     7
370
    15
100
AcDbCircle
 10
56.2653159072
 20
82.2550697873
 30
0.0
 40
1.500000000000014
100
AcDbArc
 50
270.0
 51
360.0
  0
LINE
  5
150
330
1F
100
AcDbEntity
  8
0
  6
Continuous
 62
     7
370
    15
100
AcDbLine
 10
51.2653159072
 20
80.7550697873
 30
0.0
 11
56.2653159072
 21
80.7550697873
 31
0.0
  0
ARC
  5
151
330
1F
100
AcDbEntity
  8
0
  6
Continuous
 62
     7
370
    15
100
AcDbCircle
 10
51.2653159072
 20
82.2550697873
 30
0.0
 40
1.500000000000007
100
AcDbArc
 50
180.0
 51
270.0
  0
LINE
  5
152
330
1F
100
AcDbEntity
  8
0
  6
Continuous
 62
     7
370
    15
100
AcDbLine
 10
49.7653159072
 20
83.2550697873
 30
0.0
 11
49.7653159072
 21
82.2550697873
 31
0.0
  0
ARC
  5
153
330
1F
100
AcDbEntity
  8
0
  6
Continuous
 62
     7
370
    15
100
AcDbCircle
 10
48.2653159072
 20
83.2550697873
 30
0.0
 40
1.5
100
AcDbArc
 50
360.0
 51
90.0
  0
LINE
  5
154
330
1F
100
AcDbEntity
  8
0
  6
Continuous
 62
     7
370
    15
100
AcDbLine
 10
7.7653159072
 20
84.7550697873
 30
0.0
 11
48.2653159072
 21
84.7550697873
 31
0.0
  0
ARC
  5
155
330
1F
100
AcDbEntity
  8
0
  6
Continuous
 62
     7
370
    15
100
AcDbCircle
 10
7.7653159072
 20
87.7550697873
 30
0.0
 40
3.000000000000003
100
AcDbArc
 50
180.0
 51
270.0
  0
LINE
  5
156
330
1F
100
AcDbEntity
  8
0
  6
Continuous
 62
     7
370
    15
100
AcDbLine
 10
81.7653159072
 20
89.7550697873
 30
0.0
 11
61.7653159072
 21
89.7550697873
 31
0.0
  0
ARC
  5
157
330
1F
100
AcDbEntity
  8
0
  6
Continuous
 62
     7
370
    15
100
AcDbCircle
 10
61.7653159072
 20
88.2550697873
 30
0.0
 40
1.5
100
AcDbArc
 50
90.0
 51
270.0
  0
LINE
  5
158
330
1F
100
AcDbEntity
  8
0
  6
Continuous
 62
     7
370
    15
100
AcDbLine
 10
61.7653159072
 20
86.7550697873
 30
0.0
 11
81.7653159072
 21
86.7550697873
 31
0.0
  0
ARC
  5
159
330
1F
100
AcDbEntity
  8
0
  6
Continuous
 62
     7
370
    15
100
AcDbCircle
 10
81.7653159072
 20
88.2550697873
 30
0.0
 40
1.5
100
AcDbArc
 50
270.0
 51
90.0
  0
LINE
  5
15A
330
1F
100
AcDbEntity
  8
0
  6
Continuous
 62
     7
370
    15
100
AcDbLine
 10
46.7653159072
 20
90.2550697873
 30
0.0
 11
26.7653159072
 21
90.2550697873
 31
0.0
  0
ARC
  5
15B
330
1F
100
AcDbEntity
  8
0
  6
Continuous
 62
     7
370
    15
100
AcDbCircle
 10
26.7653159072
 20
88.2550697873
 30
0.0
 40
2.000000000000014
100
AcDbArc
 50
90.0
 51
270.0
  0
LINE
  5
15C
330
1F
100
AcDbEntity
  8
0
  6
Continuous
 62
     7
370
    15
100
AcDbLine
 10
26.7653159072
 20
86.2550697873
 30
0.0
 11
46.7653159072
 21
86.2550697873
 31
0.0
  0
ARC
  5
15D
330
1F
100
AcDbEntity
  8
0
  6
Continuous
 62
     7
370
    15
100
AcDbCircle
 10
46.7653159072
 20
88.2550697873
 30
0.0
 40
2.0
100
AcDbArc
 50
270.0
 51
90.0
  0
CIRCLE
  5
15E
330
1F
100
AcDbEntity
  8
0
  6
Continuous
 62
     7
370
    15
100
AcDbCircle
 10
53.7653159072
 20
83.7550697873
 30
0.0
 40
1.5
  0
CIRCLE
  5
15F
330
1F
100
AcDbEntity
  8
0
  6
Continuous
 62
     7
370
    15
100
AcDbCircle
 10
81.918883972
 20
61.2472416295
 30
0.0
 40
2.0
  0
CIRCLE
  5
160
330
1F
100
AcDbEntity
  8
0
  6
Continuous
 62
     7
370
    15
100
AcDbCircle
 10
9.918883972
 20
61.2472416295
 30
0.0
 40
2.0
  0
CIRCLE
  5
161
330
1F
100
AcDbEntity
  8
0
  6
Continuous
 62
     7
370
    15
100
AcDbCircle
 10
45.918883972
 20
61.2472416295
 30
0.0
 40
2.0
  0
ARC
  5
162
330
1F
100
AcDbEntity
  8
0
  6
Continuous
 62
     7
370
    15
100
AcDbCircle
 10
17.872837694
 20
62.5977697722
 30
0.0
 40
1.651237759288016
100
AcDbArc
 50
59.9211714168
 51
253.2854688604
  0
SPLINE
  5
163
330
1F
100
AcDbEntity
  8
0
  6
Continuous
 62
     7
370
    15
100
AcDbSpline
210
0.0
220
0.0
230
1.0
 70
    12
 71
     3
 72
    20
 73
    16
 74
     0
 42
0.00000001
 43
0.00000001
 40
0.0
 40
0.0
 40
0.0
 40
0.0
 40
0.1103189851489387
 40
0.2168655606291587
 40
0.2168655606291587
 40
0.3443774767545327
 40
0.3443774767545327
 40
0.4731696491400663
 40
0.4731696491400663
 40
0.5899237051114694
 40
0.7138380101561399
 40
0.7138380101561399
 40
0.9317069834085432
 40
0.9317069834085432
 40
1.0
 40
1.0
 40
1.0
 40
1.0
 10
17.39793605075324
 20
61.01629749396442
 30
0.0
 41
1.0
 10
18.71382566852668
 20
60.6114530311578
 30
0.0
 41
1.0
 10
21.30060743867493
 20
59.81560795267349
 30
0.0
 41
1.0
 10
24.16192418265156
 20
59.55649997186255
 30
0.0
 41
1.0
 10
26.88306256331376
 20
59.20777169760054
 30
0.0
 41
1.0
 10
27.43455965613891
 20
59.28673584843796
 30
0.0
 41
1.0
 10
27.85825281390073
 20
59.26704479701501
 30
0.0
 41
1.0
 10
27.69684563131988
 20
59.24221490931602
 30
0.0
 41
1.0
 10
30.47455838258375
 20
59.00788390898823
 30
0.0
 41
1.0
 10
30.77195776213878
 20
59.18457819177548
 30
0.0
 41
1.0
 10
34.39752043927445
 20
59.17306592460749
 30
0.0
 41
1.0
 10
37.98848206564832
 20
59.38013243428276
 30
0.0
 41
1.0
 10
37.00743901806119
 20
59.49760524977155
 30
0.0
 41
1.0
 10
40.12614711031241
 20
59.50522073004683
 30
0.0
 41
1.0
 10
40.47597806543378
 20
59.8960073214005
 30
0.0
 41
1.0
 10
40.82580902055516
 20
60.28679391275418
 30
0.0
 41
1.0
  0
ARC
  5
164
330
1F
100
AcDbEntity
  8
0
  6
Continuous
 62
     7
370
    15
100
AcDbCircle
 10
39.3818624357
 20
61.0034032835
 30
0.0
 40
1.611989680506227
100
AcDbArc
 50
333.6054739716
 51
36.1606314627
  0
SPLINE
  5
165
330
1F
100
AcDbEntity
  8
0
  6
Continuous
 62
     7
370
    15
100
AcDbSpline
210
0.0
220
0.0
230
1.0
 70
    12
 71
     3
 72
    20
 73
    16
 74
     0
 42
0.00000001
 43
0.00000001
 40
0.0
 40
0.0
 40
0.0
 40
0.0
 40
0.0791918555784651
 40
0.0791918555784651
 40
0.227799733544379
 40
0.227799733544379
 40
0.3499901043189231
 40
0.4574317810647528
 40
0.4574317810647528
 40
0.5980862621962928
 40
0.5980862621962928
 40
0.7281558916285595
 40
0.7281558916285595
 40
0.861745532389957
 40
1.0
 40
1.0
 40
1.0
 40
1.0
 10
40.68332798817571
 20
61.95455949877663
 30
0.0
 41
1.0
 10
39.88785526487473
 20
62.54749820423469
 30
0.0
 41
1.0
 10
39.86109962494177
 20
62.49748184986479
 30
0.0
 41
1.0
 10
38.82452899945036
 20
62.50094158063624
 30
0.0
 41
1.0
 10
37.76250334999479
 20
62.22130308256667
 30
0.0
 41
1.0
 10
34.40239794859932
 20
62.25419712247931
 30
0.0
 41
1.0
 10
31.56342477199865
 20
61.99144211265617
 30
0.0
 41
1.0
 10
30.08170543892123
 20
62.26351758922437
 30
0.0
 41
1.0
 10
28.92761722720461
 20
62.32129399666405
 30
0.0
 41
1.0
 10
28.33869406251591
 20
62.23173958989553
 30
0.0
 41
1.0
 10
27.31196036737612
 20
62.31047490174954
 30
0.0
 41
1.0
 10
26.48597042031982
 20
62.26311641278511
 30
0.0
 41
1.0
 10
24.82297529507184
 20
62.57313039715883
 30
0.0
 41
1.0
 10
21.96366652231335
 20
62.61948342294426
 30
0.0
 41
1.0
 10
19.80054400757022
 20
63.55225660889456
 30
0.0
 41
1.0
 10
18.70042323084006
 20
64.02664636483613
 30
0.0
 41
1.0
  0
LINE
  5
166
330
1F
100
AcDbEntity
  8
0
  6
Continuous
 62
     7
370
    15
100
AcDbLine
 10
56.918883972
 20
58.2472416295
 30
0.0
 11
82.918883972
 21
58.2472416295
 31
0.0
  0
ARC
  5
167
330
1F
100
AcDbEntity
  8
0
  6
Continuous
 62
     7
370
    15
100
AcDbCircle
 10
56.918883972
 20
57.2472416295
 30
0.0
 40
1.0
100
AcDbArc
 50
90.0
 51
180.0
  0
LINE
  5
168
330
1F
100
AcDbEntity
  8
0
  6
Continuous
 62
     7
370
    15
100
AcDbLine
 10
55.918883972
 20
56.7472416295
 30
0.0
 11
55.918883972
 21
57.2472416295
 31
0.0
  0
ARC
  5
169
330
1F
100
AcDbEntity
  8
0
  6
Continuous
 62
     7
370
    15
100
AcDbCircle
 10
54.918883972
 20
56.7472416295
 30
0.0
 40
1.000000000000007
100
AcDbArc
 50
270.0
 51
0.0
  0
LINE
  5
16A
330
1F
100
AcDbEntity
  8
0
  6
Continuous
 62
     7
370
    15
100
AcDbLine
 10
13.918883972
 20
55.7472416295
 30
0.0
 11
54.918883972
 21
55.7472416295
 31
0.0
  0
ARC
  5
16B
330
1F
100
AcDbEntity
  8
0
  6
Continuous
 62
     7
370
    15
100
AcDbCircle
 10
13.918883972
 20
56.7472416295
 30
0.0
 40
1.000000000000002
100
AcDbArc
 50
180.0
 51
270.0
  0
LINE
  5
16C
330
1F
100
AcDbEntity
  8
0
  6
Continuous
 62
     7
370
    15
100
AcDbLine
 10
12.918883972
 20
57.2472416295
 30
0.0
 11
12.918883972
 21
56.7472416295
 31
0.0
  0
ARC
  5
16D
330
1F
100
AcDbEntity
  8
0
  6
Continuous
 62
     7
370
    15
100
AcDbCircle
 10
11.918883972
 20
57.2472416295
 30
0.0
 40
1.0
100
AcDbArc
 50
0.0
 51
90.0
  0
LINE
  5
16E
330
1F
100
AcDbEntity
  8
0
  6
Continuous
 62
     7
370
    15
100
AcDbLine
 10
8.918883972
 20
58.2472416295
 30
0.0
 11
11.918883972
 21
58.2472416295
 31
0.0
  0
ARC
  5
16F
330
1F
100
AcDbEntity
  8
0
  6
Continuous
 62
     7
370
    15
100
AcDbCircle
 10
8.918883972
 20
60.2472416295
 30
0.0
 40
2.000000000000002
100
AcDbArc
 50
180.0
 51
270.0
  0
LINE
  5
170
330
1F
100
AcDbEntity
  8
0
  6
Continuous
 62
     7
370
    15
100
AcDbLine
 10
6.918883972
 20
62.3215615807
 30
0.0
 11
6.918883972
 21
60.2472416295
 31
0.0
  0
ARC
  5
171
330
1F
100
AcDbEntity
  8
0
  6
Continuous
 62
     7
370
    15
100
AcDbCircle
 10
8.918883972
 20
62.3215615807
 30
0.0
 40
2.000000000000007
100
AcDbArc
 50
89.027240616
 51
180.0
  0
LINE
  5
172
330
1F
100
AcDbEntity
  8
0
  6
Continuous
 62
     7
370
    15
100
AcDbLine
 10
37.295911363
 20
67.3212735093
 30
0.0
 11
8.9528380489
 21
64.3212733401
 31
0.0
  0
LINE
  5
173
330
1F
100
AcDbEntity
  8
0
  6
Continuous
 62
     7
370
    15
100
AcDbLine
 10
58.918883972
 20
67.3212733401
 30
0.0
 11
37.295911363
 21
67.3212735093
 31
0.0
  0
ARC
  5
174
330
1F
100
AcDbEntity
  8
0
  6
Continuous
 62
     7
370
    15
100
AcDbCircle
 10
58.918883972
 20
66.3212733401
 30
0.0
 40
1.0
100
AcDbArc
 50
0.0
 51
90.0
  0
LINE
  5
175
330
1F
100
AcDbEntity
  8
0
  6
Continuous
 62
     7
370
    15
100
AcDbLine
 10
59.918883972
 20
65.3212733401
 30
0.0
 11
59.918883972
 21
66.3212733401
 31
0.0
  0
ARC
  5
176
330
1F
100
AcDbEntity
  8
0
  6
Continuous
 62
     7
370
    15
100
AcDbCircle
 10
60.918883972
 20
65.3212733401
 30
0.0
 40
1.0
100
AcDbArc
 50
180.0
 51
270.0
  0
LINE
  5
177
330
1F
100
AcDbEntity
  8
0
  6
Continuous
 62
     7
370
    15
100
AcDbLine
 10
82.918883972
 20
64.3212733401
 30
0.0
 11
60.918883972
 21
64.3212733401
 31
0.0
  0
ARC
  5
178
330
1F
100
AcDbEntity
  8
0
  6
Continuous
 62
     7
370
    15
100
AcDbCircle
 10
82.918883972
 20
62.3212733401
 30
0.0
 40
2.000000000000014
100
AcDbArc
 50
0.0
 51
90.0
  0
LINE
  5
179
330
1F
100
AcDbEntity
  8
0
  6
Continuous
 62
     7
370
    15
100
AcDbLine
 10
84.918883972
 20
60.2472416295
 30
0.0
 11
84.918883972
 21
62.3212733401
 31
0.0
  0
ARC
  5
17A
330
1F
100
AcDbEntity
  8
0
  6
Continuous
 62
     7
370
    15
100
AcDbCircle
 10
82.918883972
 20
60.2472416295
 30
0.0
 40
2.000000000000014
100
AcDbArc
 50
270.0
 51
0.0
  0
CIRCLE
  5
17B
330
1F
100
AcDbEntity
  8
0
  6
Continuous
 62
     7
370
    15
100
AcDbCircle
 10
82.9246183897
 20
44.652623737
 30
0.0
 40
2.0
  0
CIRCLE
  5
17C
330
1F
100
AcDbEntity
  8
0
  6
Continuous
 62
     7
370
    15
100
AcDbCircle
 10
10.9246183897
 20
44.652623737
 30
0.0
 40
2.0
  0
CIRCLE
  5
17D
330
1F
100
AcDbEntity
  8
0
  6
Continuous
 62
     7
370
    15
100
AcDbCircle
 10
46.9246183897
 20
44.652623737
 30
0.0
 40
2.0
  0
ARC
  5
17E
330
1F
100
AcDbEntity
  8
0
  6
Continuous
 62
     7
370
    15
100
AcDbCircle
 10
18.8785721117
 20
46.0031518797
 30
0.0
 40
1.651237759288024
100
AcDbArc
 50
59.9211714168
 51
253.2854688604
  0
SPLINE
  5
17F
330
1F
100
AcDbEntity
  8
0
  6
Continuous
 62
     7
370
    15
100
AcDbSpline
210
0.0
220
0.0
230
1.0
 70
    12
 71
     3
 72
    20
 73
    16
 74
     0
 42
0.00000001
 43
0.00000001
 40
0.0
 40
0.0
 40
0.0
 40
0.0
 40
0.1103189851489387
 40
0.2168655606291587
 40
0.2168655606291587
 40
0.3443774767545327
 40
0.3443774767545327
 40
0.4731696491400663
 40
0.4731696491400663
 40
0.5899237051114694
 40
0.7138380101561399
 40
0.7138380101561399
 40
0.9317069834085432
 40
0.9317069834085432
 40
1.0
 40
1.0
 40
1.0
 40
1.0
 10
18.40367046848239
 20
44.42167960143322
 30
0.0
 41
1.0
 10
19.71956008625583
 20
44.0168351386266
 30
0.0
 41
1.0
 10
22.30634185640408
 20
43.22099006014229
 30
0.0
 41
1.0
 10
25.16765860038071
 20
42.96188207933135
 30
0.0
 41
1.0
 10
27.88879698104292
 20
42.61315380506935
 30
0.0
 41
1.0
 10
28.44029407386806
 20
42.69211795590677
 30
0.0
 41
1.0
 10
28.86398723162988
 20
42.67242690448381
 30
0.0
 41
1.0
 10
28.70258004904903
 20
42.64759701678483
 30
0.0
 41
1.0
 10
31.4802928003129
 20
42.41326601645704
 30
0.0
 41
1.0
 10
31.77769217986793
 20
42.58996029924428
 30
0.0
 41
1.0
 10
35.4032548570036
 20
42.57844803207629
 30
0.0
 41
1.0
 10
38.99421648337747
 20
42.78551454175157
 30
0.0
 41
1.0
 10
38.01317343579034
 20
42.90298735724035
 30
0.0
 41
1.0
 10
41.13188152804155
 20
42.91060283751563
 30
0.0
 41
1.0
 10
41.48171248316293
 20
43.30138942886931
 30
0.0
 41
1.0
 10
41.83154343828431
 20
43.69217602022299
 30
0.0
 41
1.0
  0
ARC
  5
180
330
1F
100
AcDbEntity
  8
0
  6
Continuous
 62
     7
370
    15
100
AcDbCircle
 10
40.3875968535
 20
44.408785391
 30
0.0
 40
1.611989680506231
100
AcDbArc
 50
333.6054739716
 51
36.1606314627
  0
SPLINE
  5
181
330
1F
100
AcDbEntity
  8
0
  6
Continuous
 62
     7
370
    15
100
AcDbSpline
210
0.0
220
0.0
230
1.0
 70
    12
 71
     3
 72
    20
 73
    16
 74
     0
 42
0.00000001
 43
0.00000001
 40
0.0
 40
0.0
 40
0.0
 40
0.0
 40
0.0791918555784651
 40
0.0791918555784651
 40
0.227799733544379
 40
0.227799733544379
 40
0.3499901043189231
 40
0.4574317810647528
 40
0.4574317810647528
 40
0.5980862621962928
 40
0.5980862621962928
 40
0.7281558916285595
 40
0.7281558916285595
 40
0.861745532389957
 40
1.0
 40
1.0
 40
1.0
 40
1.0
 10
41.68906240590486
 20
45.35994160624543
 30
0.0
 41
1.0
 10
40.89358968260388
 20
45.9528803117035
 30
0.0
 41
1.0
 10
40.86683404267092
 20
45.90286395733359
 30
0.0
 41
1.0
 10
39.83026341717951
 20
45.90632368810505
 30
0.0
 41
1.0
 10
38.76823776772394
 20
45.62668519003547
 30
0.0
 41
1.0
 10
35.40813236632847
 20
45.65957922994811
 30
0.0
 41
1.0
 10
32.56915918972781
 20
45.39682422012498
 30
0.0
 41
1.0
 10
31.08743985665038
 20
45.66889969669317
 30
0.0
 41
1.0
 10
29.93335164493375
 20
45.72667610413286
 30
0.0
 41
1.0
 10
29.34442848024506
 20
45.63712169736433
 30
0.0
 41
1.0
 10
28.31769478510527
 20
45.71585700921834
 30
0.0
 41
1.0
 10
27.49170483804897
 20
45.66849852025392
 30
0.0
 41
1.0
 10
25.82870971280099
 20
45.97851250462764
 30
0.0
 41
1.0
 10
22.9694009400425
 20
46.02486553041307
 30
0.0
 41
1.0
 10
20.80627842529938
 20
46.95763871636337
 30
0.0
 41
1.0
 10
19.70615764856921
 20
47.43202847230494
 30
0.0
 41
1.0
  0
LINE
  5
182
330
1F
100
AcDbEntity
  8
0
  6
Continuous
 62
     7
370
    15
100
AcDbLine
 10
57.9246183897
 20
41.652623737
 30
0.0
 11
83.9246183897
 21
41.652623737
 31
0.0
  0
ARC
  5
183
330
1F
100
AcDbEntity
  8
0
  6
Continuous
 62
     7
370
    15
100
AcDbCircle
 10
57.9246183897
 20
40.652623737
 30
0.0
 40
1.0
100
AcDbArc
 50
90.0
 51
180.0
  0
LINE
  5
184
330
1F
100
AcDbEntity
  8
0
  6
Continuous
 62
     7
370
    15
100
AcDbLine
 10
56.9246183897
 20
40.152623737
 30
0.0
 11
56.9246183897
 21
40.652623737
 31
0.0
  0
ARC
  5
185
330
1F
100
AcDbEntity
  8
0
  6
Continuous
 62
     7
370
    15
100
AcDbCircle
 10
55.9246183897
 20
40.152623737
 30
0.0
 40
1.000000000000007
100
AcDbArc
 50
270.0
 51
0.0
  0
LINE
  5
186
330
1F
100
AcDbEntity
  8
0
  6
Continuous
 62
     7
370
    15
100
AcDbLine
 10
14.9246183897
 20
39.152623737
 30
0.0
 11
55.9246183897
 21
39.152623737
 31
0.0
  0
ARC
  5
187
330
1F
100
AcDbEntity
  8
0
  6
Continuous
 62
     7
370
    15
100
AcDbCircle
 10
14.9246183897
 20
40.152623737
 30
0.0
 40
1.0
100
AcDbArc
 50
180.0
 51
270.0
  0
LINE
  5
188
330
1F
100
AcDbEntity
  8
0
  6
Continuous
 62
     7
370
    15
100
AcDbLine
 10
13.9246183897
 20
40.652623737
 30
0.0
 11
13.9246183897
 21
40.152623737
 31
0.0
  0
ARC
  5
189
330
1F
100
AcDbEntity
  8
0
  6
Continuous
 62
     7
370
    15
100
AcDbCircle
 10
12.9246183897
 20
40.652623737
 30
0.0
 40
1.0
100
AcDbArc
 50
0.0
 51
90.0
  0
LINE
  5
18A
330
1F
100
AcDbEntity
  8
0
  6
Continuous
 62
     7
370
    15
100
AcDbLine
 10
9.9246183897
 20
41.652623737
 30
0.0
 11
12.9246183897
 21
41.652623737
 31
0.0
  0
ARC
  5
18B
330
1F
100
AcDbEntity
  8
0
  6
Continuous
 62
     7
370
    15
100
AcDbCircle
 10
9.9246183897
 20
43.652623737
 30
0.0
 40
2.000000000000007
100
AcDbArc
 50
180.0
 51
270.0
  0
LINE
  5
18C
330
1F
100
AcDbEntity
  8
0
  6
Continuous
 62
     7
370
    15
100
AcDbLine
 10
7.9246183897
 20
45.7269436882
 30
0.0
 11
7.9246183897
 21
43.652623737
 31
0.0
  0
ARC
  5
18D
330
1F
100
AcDbEntity
  8
0
  6
Continuous
 62
     7
370
    15
100
AcDbCircle
 10
9.9246183897
 20
45.7269436882
 30
0.0
 40
2.000000000000002
100
AcDbArc
 50
89.027240616
 51
180.0
  0
LINE
  5
18E
330
1F
100
AcDbEntity
  8
0
  6
Continuous
 62
     7
370
    15
100
AcDbLine
 10
38.3016457807
 20
50.7266556167
 30
0.0
 11
9.9585724667
 21
47.7266554476
 31
0.0
  0
LINE
  5
18F
330
1F
100
AcDbEntity
  8
0
  6
Continuous
 62
     7
370
    15
100
AcDbLine
 10
59.9246183897
 20
50.7266554476
 30
0.0
 11
38.3016457807
 21
50.7266556167
 31
0.0
  0
ARC
  5
190
330
1F
100
AcDbEntity
  8
0
  6
Continuous
 62
     7
370
    15
100
AcDbCircle
 10
59.9246183897
 20
49.7266554476
 30
0.0
 40
1.000000000000007
100
AcDbArc
 50
0.0
 51
90.0
  0
LINE
  5
191
330
1F
100
AcDbEntity
  8
0
  6
Continuous
 62
     7
370
    15
100
AcDbLine
 10
60.9246183897
 20
48.7266554476
 30
0.0
 11
60.9246183897
 21
49.7266554476
 31
0.0
  0
ARC
  5
192
330
1F
100
AcDbEntity
  8
0
  6
Continuous
 62
     7
370
    15
100
AcDbCircle
 10
61.9246183897
 20
48.7266554476
 30
0.0
 40
1.000000000000007
100
AcDbArc
 50
180.0
 51
270.0
  0
LINE
  5
193
330
1F
100
AcDbEntity
  8
0
  6
Continuous
 62
     7
370
    15
100
AcDbLine
 10
83.9246183897
 20
47.7266554476
 30
0.0
 11
61.9246183897
 21
47.7266554476
 31
0.0
  0
ARC
  5
194
330
1F
100
AcDbEntity
  8
0
  6
Continuous
 62
     7
370
    15
100
AcDbCircle
 10
83.9246183897
 20
45.7266554476
 30
0.0
 40
2.0
100
AcDbArc
 50
0.0
 51
90.0
  0
LINE
  5
195
330
1F
100
AcDbEntity
  8
0
  6
Continuous
 62
     7
370
    15
100
AcDbLine
 10
85.9246183897
 20
43.652623737
 30
0.0
 11
85.9246183897
 21
45.7266554476
 31
0.0
  0
ARC
  5
196
330
1F
100
AcDbEntity
  8
0
  6
Continuous
 62
     7
370
    15
100
AcDbCircle
 10
83.9246183897
 20
43.652623737
 30
0.0
 40
2.0
100
AcDbArc
 50
270.0
 51
0.0
  0
CIRCLE
  5
197
330
1F
100
AcDbEntity
  8
0
  6
Continuous
 62
     7
370
    15
100
AcDbCircle
 10
81.9131495543
 20
16.7905447313
 30
0.0
 40
1.0
  0
LINE
  5
198
330
1F
100
AcDbEntity
  8
0
  6
Continuous
 62
     7
370
    15
100
AcDbLine
 10
84.9131495543
 20
16.2905447313
 30
0.0
 11
84.9131495543
 21
17.2905447313
 31
0.0
  0
ARC
  5
199
330
1F
100
AcDbEntity
  8
0
  6
Continuous
 62
     7
370
    15
100
AcDbCircle
 10
81.9131495543
 20
16.2905447313
 30
0.0
 40
3.0
100
AcDbArc
 50
270.0
 51
0.0
  0
LINE
  5
19A
330
1F
100
AcDbEntity
  8
0
  6
Continuous
 62
     7
370
    15
100
AcDbLine
 10
7.9131495543
 20
13.2905447313
 30
0.0
 11
81.9131495543
 21
13.2905447313
 31
0.0
  0
ARC
  5
19B
330
1F
100
AcDbEntity
  8
0
  6
Continuous
 62
     7
370
    15
100
AcDbCircle
 10
7.9131495543
 20
16.2905447313
 30
0.0
 40
3.000000000000003
100
AcDbArc
 50
180.0
 51
270.0
  0
LINE
  5
19C
330
1F
100
AcDbEntity
  8
0
  6
Continuous
 62
     7
370
    15
100
AcDbLine
 10
4.9131495543
 20
17.2905447313
 30
0.0
 11
4.9131495543
 21
16.2905447313
 31
0.0
  0
ARC
  5
19D
330
1F
100
AcDbEntity
  8
0
  6
Continuous
 62
     7
370
    15
100
AcDbCircle
 10
7.9131495543
 20
17.2905447313
 30
0.0
 40
3.000000000000003
100
AcDbArc
 50
90.0
 51
180.0
  0
LINE
  5
19E
330
1F
100
AcDbEntity
  8
0
  6
Continuous
 62
     7
370
    15
100
AcDbLine
 10
30.4131495543
 20
20.2905447313
 30
0.0
 11
7.9131495543
 21
20.2905447313
 31
0.0
  0
ARC
  5
19F
330
1F
100
AcDbEntity
  8
0
  6
Continuous
 62
     7
370
    15
100
AcDbCircle
 10
30.4131495543
 20
21.7905447313
 30
0.0
 40
1.5
100
AcDbArc
 50
270.0
 51
0.0
  0
LINE
  5
1A0
330
1F
100
AcDbEntity
  8
0
  6
Continuous
 62
     7
370
    15
100
AcDbLine
 10
31.9131495543
 20
22.7905447313
 30
0.0
 11
31.9131495543
 21
21.7905447313
 31
0.0
  0
ARC
  5
1A1
330
1F
100
AcDbEntity
  8
0
  6
Continuous
 62
     7
370
    15
100
AcDbCircle
 10
33.4131495543
 20
22.7905447313
 30
0.0
 40
1.500000000000004
100
AcDbArc
 50
90.0
 51
180.0
  0
LINE
  5
1A2
330
1F
100
AcDbEntity
  8
0
  6
Continuous
 62
     7
370
    15
100
AcDbLine
 10
38.4131495543
 20
24.2905447313
 30
0.0
 11
33.4131495543
 21
24.2905447313
 31
0.0
  0
ARC
  5
1A3
330
1F
100
AcDbEntity
  8
0
  6
Continuous
 62
     7
370
    15
100
AcDbCircle
 10
38.4131495543
 20
22.7905447313
 30
0.0
 40
1.500000000000004
100
AcDbArc
 50
0.0
 51
90.0
  0
LINE
  5
1A4
330
1F
100
AcDbEntity
  8
0
  6
Continuous
 62
     7
370
    15
100
AcDbLine
 10
39.9131495543
 20
21.7905447313
 30
0.0
 11
39.9131495543
 21
22.7905447313
 31
0.0
  0
ARC
  5
1A5
330
1F
100
AcDbEntity
  8
0
  6
Continuous
 62
     7
370
    15
100
AcDbCircle
 10
41.4131495543
 20
21.7905447313
 30
0.0
 40
1.5
100
AcDbArc
 50
180.0
 51
270.0
  0
LINE
  5
1A6
330
1F
100
AcDbEntity
  8
0
  6
Continuous
 62
     7
370
    15
100
AcDbLine
 10
81.9131495543
 20
20.2905447313
 30
0.0
 11
41.4131495543
 21
20.2905447313
 31
0.0
  0
ARC
  5
1A7
330
1F
100
AcDbEntity
  8
0
  6
Continuous
 62
     7
370
    15
100
AcDbCircle
 10
81.9131495543
 20
17.2905447313
 30
0.0
 40
3.0
100
AcDbArc
 50
360.0
 51
90.0
  0
LINE
  5
1A8
330
1F
100
AcDbEntity
  8
0
  6
Continuous
 62
     7
370
    15
100
AcDbLine
 10
7.9131495543
 20
15.2905447313
 30
0.0
 11
27.9131495543
 21
15.2905447313
 31
0.0
  0
ARC
  5
1A9
330
1F
100
AcDbEntity
  8
0
  6
Continuous
 62
     7
370
    15
100
AcDbCircle
 10
27.9131495543
 20
16.7905447313
 30
0.0
 40
1.5
100
AcDbArc
 50
270.0
 51
90.0
  0
LINE
  5
1AA
330
1F
100
AcDbEntity
  8
0
  6
Continuous
 62
     7
370
    15
100
AcDbLine
 10
27.9131495543
 20
18.2905447313
 30
0.0
 11
7.9131495543
 21
18.2905447313
 31
0.0
  0
ARC
  5
1AB
330
1F
100
AcDbEntity
  8
0
  6
Continuous
 62
     7
370
    15
100
AcDbCircle
 10
7.9131495543
 20
16.7905447313
 30
0.0
 40
1.500000000000004
100
AcDbArc
 50
90.0
 51
270.0
  0
LINE
  5
1AC
330
1F
100
AcDbEntity
  8
0
  6
Continuous
 62
     7
370
    15
100
AcDbLine
 10
42.9131495543
 20
14.7905447313
 30
0.0
 11
62.9131495543
 21
14.7905447313
 31
0.0
  0
ARC
  5
1AD
330
1F
100
AcDbEntity
  8
0
  6
Continuous
 62
     7
370
    15
100
AcDbCircle
 10
62.9131495543
 20
16.7905447313
 30
0.0
 40
2.000000000000004
100
AcDbArc
 50
270.0
 51
90.0
  0
LINE
  5
1AE
330
1F
100
AcDbEntity
  8
0
  6
Continuous
 62
     7
370
    15
100
AcDbLine
 10
62.9131495543
 20
18.7905447313
 30
0.0
 11
42.9131495543
 21
18.7905447313
 31
0.0
  0
ARC
  5
1AF
330
1F
100
AcDbEntity
  8
0
  6
Continuous
 62
     7
370
    15
100
AcDbCircle
 10
42.9131495543
 20
16.7905447313
 30
0.0
 40
2.000000000000004
100
AcDbArc
 50
90.0
 51
270.0
  0
CIRCLE
  5
1B0
330
1F
100
AcDbEntity
  8
0
  6
Continuous
 62
     7
370
    15
100
AcDbCircle
 10
35.9131495543
 20
21.2905447313
 30
0.0
 40
1.5
  0
CIRCLE
  5
1B1
330
1F
100
AcDbEntity
  8
0
  6
Continuous
 62
     7
370
    15
100
AcDbCircle
 10
8.4160167631
 20
30.8478889086
 30
0.0
 40
1.000000000000001
  0
LINE
  5
1B2
330
1F
100
AcDbEntity
  8
0
  6
Continuous
 62
     7
370
    15
100
AcDbLine
 10
5.4160167631
 20
31.3478889086
 30
0.0
 11
5.4160167631
 21
30.3478889086
 31
0.0
  0
ARC
  5
1B3
330
1F
100
AcDbEntity
  8
0
  6
Continuous
 62
     7
370
    15
100
AcDbCircle
 10
8.4160167631
 20
31.3478889086
 30
0.0
 40
3.000000000000003
100
AcDbArc
 50
90.0
 51
180.0
  0
LINE
  5
1B4
330
1F
100
AcDbEntity
  8
0
  6
Continuous
 62
     7
370
    15
100
AcDbLine
 10
82.4160167631
 20
34.3478889086
 30
0.0
 11
8.4160167631
 21
34.3478889086
 31
0.0
  0
ARC
  5
1B5
330
1F
100
AcDbEntity
  8
0
  6
Continuous
 62
     7
370
    15
100
AcDbCircle
 10
82.4160167631
 20
31.3478889086
 30
0.0
 40
3.0
100
AcDbArc
 50
360.0
 51
90.0
  0
LINE
  5
1B6
330
1F
100
AcDbEntity
  8
0
  6
Continuous
 62
     7
370
    15
100
AcDbLine
 10
85.4160167631
 20
30.3478889086
 30
0.0
 11
85.4160167631
 21
31.3478889086
 31
0.0
  0
ARC
  5
1B7
330
1F
100
AcDbEntity
  8
0
  6
Continuous
 62
     7
370
    15
100
AcDbCircle
 10
82.4160167631
 20
30.3478889086
 30
0.0
 40
3.0
100
AcDbArc
 50
270.0
 51
0.0
  0
LINE
  5
1B8
330
1F
100
AcDbEntity
  8
0
  6
Continuous
 62
     7
370
    15
100
AcDbLine
 10
59.9160167631
 20
27.3478889086
 30
0.0
 11
82.4160167631
 21
27.3478889086
 31
0.0
  0
ARC
  5
1B9
330
1F
100
AcDbEntity
  8
0
  6
Continuous
 62
     7
370
    15
100
AcDbCircle
 10
59.9160167631
 20
25.8478889086
 30
0.0
 40
1.500000000000007
100
AcDbArc
 50
90.0
 51
180.0
  0
LINE
  5
1BA
330
1F
100
AcDbEntity
  8
0
  6
Continuous
 62
     7
370
    15
100
AcDbLine
 10
58.4160167631
 20
24.8478889086
 30
0.0
 11
58.4160167631
 21
25.8478889086
 31
0.0
  0
ARC
  5
1BB
330
1F
100
AcDbEntity
  8
0
  6
Continuous
 62
     7
370
    15
100
AcDbCircle
 10
56.9160167631
 20
24.8478889086
 30
0.0
 40
1.5
100
AcDbArc
 50
270.0
 51
360.0
  0
LINE
  5
1BC
330
1F
100
AcDbEntity
  8
0
  6
Continuous
 62
     7
370
    15
100
AcDbLine
 10
51.9160167631
 20
23.3478889086
 30
0.0
 11
56.9160167631
 21
23.3478889086
 31
0.0
  0
ARC
  5
1BD
330
1F
100
AcDbEntity
  8
0
  6
Continuous
 62
     7
370
    15
100
AcDbCircle
 10
51.9160167631
 20
24.8478889086
 30
0.0
 40
1.500000000000004
100
AcDbArc
 50
180.0
 51
270.0
  0
LINE
  5
1BE
330
1F
100
AcDbEntity
  8
0
  6
Continuous
 62
     7
370
    15
100
AcDbLine
 10
50.4160167631
 20
25.8478889086
 30
0.0
 11
50.4160167631
 21
24.8478889086
 31
0.0
  0
ARC
  5
1BF
330
1F
100
AcDbEntity
  8
0
  6
Continuous
 62
     7
370
    15
100
AcDbCircle
 10
48.9160167631
 20
25.8478889086
 30
0.0
 40
1.5
100
AcDbArc
 50
360.0
 51
90.0
  0
LINE
  5
1C0
330
1F
100
AcDbEntity
  8
0
  6
Continuous
 62
     7
370
    15
100
AcDbLine
 10
8.4160167631
 20
27.3478889086
 30
0.0
 11
48.9160167631
 21
27.3478889086
 31
0.0
  0
ARC
  5
1C1
330
1F
100
AcDbEntity
  8
0
  6
Continuous
 62
     7
370
    15
100
AcDbCircle
 10
8.4160167631
 20
30.3478889086
 30
0.0
 40
3.000000000000004
100
AcDbArc
 50
180.0
 51
270.0
  0
LINE
  5
1C2
330
1F
100
AcDbEntity
  8
0
  6
Continuous
 62
     7
370
    15
100
AcDbLine
 10
82.4160167631
 20
32.3478889086
 30
0.0
 11
62.4160167631
 21
32.3478889086
 31
0.0
  0
ARC
  5
1C3
330
1F
100
AcDbEntity
  8
0
  6
Continuous
 62
     7
370
    15
100
AcDbCircle
 10
62.4160167631
 20
30.8478889086
 30
0.0
 40
1.500000000000004
100
AcDbArc
 50
90.0
 51
270.0
  0
LINE
  5
1C4
330
1F
100
AcDbEntity
  8
0
  6
Continuous
 62
     7
370
    15
100
AcDbLine
 10
62.4160167631
 20
29.3478889086
 30
0.0
 11
82.4160167631
 21
29.3478889086
 31
0.0
  0
ARC
  5
1C5
330
1F
100
AcDbEntity
  8
0
  6
Continuous
 62
     7
370
    15
100
AcDbCircle
 10
82.4160167631
 20
30.8478889086
 30
0.0
 40
1.5
100
AcDbArc
 50
270.0
 51
90.0
  0
LINE
  5
1C6
330
1F
100
AcDbEntity
  8
0
  6
Continuous
 62
     7
370
    15
100
AcDbLine
 10
47.4160167631
 20
32.8478889086
 30
0.0
 11
27.4160167631
 21
32.8478889086
 31
0.0
  0
ARC
  5
1C7
330
1F
100
AcDbEntity
  8
0
  6
Continuous
 62
     7
370
    15
100
AcDbCircle
 10
27.4160167631
 20
30.8478889086
 30
0.0
 40
2.000000000000004
100
AcDbArc
 50
90.0
 51
270.0
  0
LINE
  5
1C8
330
1F
100
AcDbEntity
  8
0
  6
Continuous
 62
     7
370
    15
100
AcDbLine
 10
27.4160167631
 20
28.8478889086
 30
0.0
 11
47.4160167631
 21
28.8478889086
 31
0.0
  0
ARC
  5
1C9
330
1F
100
AcDbEntity
  8
0
  6
Continuous
 62
     7
370
    15
100
AcDbCircle
 10
47.4160167631
 20
30.8478889086
 30
0.0
 40
2.000000000000004
100
AcDbArc
 50
270.0
 51
90.0
  0
CIRCLE
  5
1CA
330
1F
100
AcDbEntity
  8
0
  6
Continuous
 62
     7
370
    15
100
AcDbCircle
 10
54.4160167631
 20
26.3478889086
 30
0.0
 40
1.5
  0
CIRCLE
  5
1CB
330
1F
100
AcDbEntity
  8
0
  6
Continuous
 62
     7
370
    15
100
AcDbCircle
 10
80.9131495543
 20
7.2245989274
 30
0.0
 40
2.0
  0
CIRCLE
  5
1CC
330
1F
100
AcDbEntity
  8
0
  6
Continuous
 62
     7
370
    15
100
AcDbCircle
 10
8.9131495543
 20
7.2245989274
 30
0.0
 40
1.999999999999996
  0
CIRCLE
  5
1CD
330
1F
100
AcDbEntity
  8
0
  6
Continuous
 62
     7
370
    15
100
AcDbCircle
 10
44.9131495543
 20
7.2245989274
 30
0.0
 40
2.000000000000002
  0
LINE
  5
1CE
330
1F
100
AcDbEntity
  8
0
  6
Continuous
 62
     7
370
    15
100
AcDbLine
 10
81.5131495543
 20
9.7245989274
 30
0.0
 11
8.3131495543
 21
9.7245989274
 31
0.0
  0
ARC
  5
1CF
330
1F
100
AcDbEntity
  8
0
  6
Continuous
 62
     7
370
    15
100
AcDbCircle
 10
81.5131495543
 20
7.3245989274
 30
0.0
 40
2.4
100
AcDbArc
 50
0.0
 51
90.0
  0
LINE
  5
1D0
330
1F
100
AcDbEntity
  8
0
  6
Continuous
 62
     7
370
    15
100
AcDbLine
 10
83.9131495543
 20
7.1245989274
 30
0.0
 11
83.9131495543
 21
7.3245989274
 31
0.0
  0
ARC
  5
1D1
330
1F
100
AcDbEntity
  8
0
  6
Continuous
 62
     7
370
    15
100
AcDbCircle
 10
81.5131495543
 20
7.1245989274
 30
0.0
 40
2.4
100
AcDbArc
 50
270.0
 51
0.0
  0
LINE
  5
1D2
330
1F
100
AcDbEntity
  8
0
  6
Continuous
 62
     7
370
    15
100
AcDbLine
 10
8.3131495543
 20
4.7245989274
 30
0.0
 11
81.5131495543
 21
4.7245989274
 31
0.0
  0
ARC
  5
1D3
330
1F
100
AcDbEntity
  8
0
  6
Continuous
 62
     7
370
    15
100
AcDbCircle
 10
8.3131495543
 20
7.1245989274
 30
0.0
 40
2.399999999999999
100
AcDbArc
 50
180.0
 51
270.0
  0
LINE
  5
1D4
330
1F
100
AcDbEntity
  8
0
  6
Continuous
 62
     7
370
    15
100
AcDbLine
 10
5.9131495543
 20
7.3245989274
 30
0.0
 11
5.9131495543
 21
7.1245989274
 31
0.0
  0
ARC
  5
1D5
330
1F
100
AcDbEntity
  8
0
  6
Continuous
 62
     7
370
    15
100
AcDbCircle
 10
8.3131495543
 20
7.3245989274
 30
0.0
 40
2.400000000000014
100
AcDbArc
 50
90.0
 51
180.0
  0
ENDSEC
  0
SECTION
  2
OBJECTS
  0
DICTIONARY
  5
C
330
0
100
AcDbDictionary
281
     1
  3
ACAD_GROUP
350
D
  3
ACAD_LAYOUT
350
1A
  3
ACAD_MLINESTYLE
350
17
  3
ACAD_PLOTSETTINGS
350
19
  3
ACAD_PLOTSTYLENAME
350
E
  0
DICTIONARY
  5
D
102
{ACAD_REACTORS
330
C
102
}
330
C
100
AcDbDictionary
281
     1
  0
DICTIONARY
  5
1A
102
{ACAD_REACTORS
330
C
102
}
330
C
100
AcDbDictionary
281
     1
  3
Layout1
350
1E
  3
Layout2
350
26
  3
Model
350
22
  0
DICTIONARY
  5
17
102
{ACAD_REACTORS
330
C
102
}
330
C
100
AcDbDictionary
281
     1
  3
Standard
350
18
  0
DICTIONARY
  5
19
102
{ACAD_REACTORS
330
C
102
}
330
C
100
AcDbDictionary
281
     1
  0
ACDBDICTIONARYWDFLT
  5
E
102
{ACAD_REACTORS
330
C
102
}
330
C
100
AcDbDictionary
281
     1
  3
Normal
350
F
100
AcDbDictionaryWithDefault
340
F
  0
LAYOUT
  5
1E
102
{ACAD_REACTORS
330
1A
102
}
330
1A
100
AcDbPlotSettings
  1

  2

  4

  6

 40
0.0
 41
0.0
 42
0.0
 43
0.0
 44
0.0
 45
0.0
 46
0.0
 47
0.0
 48
0.0
 49
0.0
140
0.0
141
0.0
142
1.0
143
1.0
 70
   688
 72
     0
 73
     0
 74
     5
  7

 75
    16
147
1.0
148
0.0
149
0.0
100
AcDbLayout
  1
Layout1
 70
     1
 71
     1
 10
0.0
 20
0.0
 11
420.0
 21
297.0
 12
0.0
 22
0.0
 32
0.0
 14
1.0000000000E+20
 24
1.0000000000E+20
 34
1.0000000000E+20
 15
-1.0000000000E+20
 25
-1.0000000000E+20
 35
-1.0000000000E+20
146
0.0
 13
0.0
 23
0.0
 33
0.0
 16
1.0
 26
0.0
 36
0.0
 17
0.0
 27
1.0
 37
0.0
 76
     0
330
1B
  0
LAYOUT
  5
26
102
{ACAD_REACTORS
330
1A
102
}
330
1A
100
AcDbPlotSettings
  1

  2

  4

  6

 40
0.0
 41
0.0
 42
0.0
 43
0.0
 44
0.0
 45
0.0
 46
0.0
 47
0.0
 48
0.0
 49
0.0
140
0.0
141
0.0
142
1.0
143
1.0
 70
   688
 72
     0
 73
     0
 74
     5
  7

 75
    16
147
1.0
148
0.0
149
0.0
100
AcDbLayout
  1
Layout2
 70
     1
 71
     2
 10
0.0
 20
0.0
 11
0.0
 21
0.0
 12
0.0
 22
0.0
 32
0.0
 14
0.0
 24
0.0
 34
0.0
 15
0.0
 25
0.0
 35
0.0
146
0.0
 13
0.0
 23
0.0
 33
0.0
 16
1.0
 26
0.0
 36
0.0
 17
0.0
 27
1.0
 37
0.0
 76
     0
330
23
  0
LAYOUT
  5
22
102
{ACAD_REACTORS
330
1A
102
}
330
1A
100
AcDbPlotSettings
  1

  2

  4

  6

 40
0.0
 41
0.0
 42
0.0
 43
0.0
 44
0.0
 45
0.0
 46
0.0
 47
0.0
 48
0.0
 49
0.0
140
0.0
141
0.0
142
1.0
143
1.0
 70
  1712
 72
     0
 73
     0
 74
     0
  7

 75
     0
147
1.0
148
0.0
149
0.0
100
AcDbLayout
  1
Model
 70
     1
 71
     0
 10
0.0
 20
0.0
 11
0.0
 21
0.0
 12
0.0
 22
0.0
 32
0.0
 14
0.0
 24
0.0
 34
0.0
 15
500.0
 25
250.0
 35
0.0
146
0.0
 13
0.0
 23
0.0
 33
0.0
 16
1.0
 26
0.0
 36
0.0
 17
0.0
 27
1.0
 37
0.0
 76
     0
330
1F
  0
MLINESTYLE
  5
18
102
{ACAD_REACTORS
330
17
102
}
330
17
100
AcDbMlineStyle
  2
Standard
 70
     0
  3

 62
   256
 51
90.0
 52
90.0
 71
     2
 49
0.5
 62
   256
  6
BYLAYER
 49
-0.5
 62
   256
  6
BYLAYER
  0
ACDBPLACEHOLDER
  5
F
102
{ACAD_REACTORS
330
E
102
}
330
E
  0
ENDSEC
  0
EOF
