  0
SECTION
  2
HEADER
  9
$ACADVER
  1
AC1006
  9
$INSBASE
 10
0.0
 20
0.0
 30
0.0
  9
$EXTMIN
 10
50.0
 20
25.0
  9
$EXTMAX
 10
260.0
 20
185.0
  9
$LIMMIN
 10
0.0
 20
0.0
  9
$LIMMAX
 10
285.0
 20
198.0
  9
$ORTHOMODE
 70
     0
  9
$REGENMODE
 70
     1
  9
$FILLMODE
 70
     1
  9
$QTEXTMODE
 70
     0
  9
$MIRRTEXT
 70
     1
  9
$DRAGMODE
 70
     2
  9
$LTSCALE
 40
1.0
  9
$OSMODE
 70
     0
  9
$ATTMODE
 70
     1
  9
$TEXTSIZE
 40
0.2
  9
$TRACEWID
 40
0.05
  9
$TEXTSTYLE
  7
STANDARD
  9
$CLAYER
  8
0
  9
$CELTYPE
  6
STRICHPUNKT
  9
$CECOLOR
 62
   256
  9
$DIMSCALE
 40
1.0
  9
$DIMASZ
 40
0.18
  9
$DIMEXO
 40
0.063
  9
$DIMDLI
 40
0.38
  9
$DIMRND
 40
0.0
  9
$DIMDLE
 40
0.0
  9
$DIMEXE
 40
0.18
  9
$DIMTP
 40
0.0
  9
$DIMTM
 40
0.0
  9
$DIMTXT
 40
0.18
  9
$DIMCEN
 40
0.09
  9
$DIMTSZ
 40
0.0
  9
$DIMTOL
 70
     0
  9
$DIMLIM
 70
     0
  9
$DIMTIH
 70
     1
  9
$DIMTOH
 70
     1
  9
$DIMSE1
 70
     0
  9
$DIMSE2
 70
     0
  9
$DIMTAD
 70
     0
  9
$DIMZIN
 70
     0
  9
$DIMBLK
  1

  9
$DIMASO
 70
     1
  9
$DIMSHO
 70
     0
  9
$DIMPOST
  1

  9
$DIMAPOST
  1

  9
$DIMALT
 70
     0
  9
$DIMALTD
 70
     2
  9
$DIMALTF
 40
25.4
  9
$DIMLFAC
 40
1.0
  9
$DIMTOFL
 70
     0
  9
$DIMTVP
 40
0.0
  9
$DIMTIX
 70
     0
  9
$DIMSOXD
 70
     0
  9
$DIMSAH
 70
     0
  9
$DIMBLK1
  1

  9
$DIMBLK2
  1

  9
$LUNITS
 70
     2
  9
$LUPREC
 70
     4
  9
$AXISMODE
 70
     0
  9
$AXISUNIT
 10
0.0
 20
0.0
  9
$SKETCHINC
 40
0.1
  9
$FILLETRAD
 40
0.0
  9
$AUNITS
 70
     0
  9
$AUPREC
 70
     0
  9
$MENU
  1
acad
  9
$ELEVATION
 40
0.0
  9
$THICKNESS
 40
0.0
  9
$LIMCHECK
 70
     0
  9
$BLIPMODE
 70
     1
  9
$CHAMFERA
 40
0.0
  9
$CHAMFERB
 40
0.0
  9
$SKPOLY
 70
     0
  9
$TDCREATE
 40
2450515.2608998842
  9
$TDUPDATE
 40
2450515.2815407407
  9
$TDINDWG
 40
0.0187571759
  9
$TDUSRTIMER
 40
0.0187571759
  9
$USRTIMER
 70
     1
  9
$ANGBASE
 50
0.0
  9
$ANGDIR
 70
     0
  9
$PDMODE
 70
     0
  9
$PDSIZE
 40
0.0
  9
$PLINEWID
 40
0.0
  9
$COORDS
 70
     0
  9
$SPLFRAME
 70
     0
  9
$SPLINETYPE
 70
     6
  9
$SPLINESEGS
 70
     8
  9
$ATTDIA
 70
     0
  9
$ATTREQ
 70
     1
  9
$HANDLING
 70
     0
  9
$HANDSEED
  5
0
  9
$SURFTAB1
 70
     6
  9
$SURFTAB2
 70
     6
  9
$SURFTYPE
 70
     6
  9
$SURFU
 70
     6
  9
$SURFV
 70
     6
  9
$FLATLAND
 70
     0
  9
$UCSNAME
  2

  9
$UCSORG
 10
0.0
 20
0.0
 30
0.0
  9
$UCSXDIR
 10
1.0
 20
0.0
 30
0.0
  9
$UCSYDIR
 10
0.0
 20
1.0
 30
0.0
  9
$USERI1
 70
     0
  9
$USERI2
 70
     0
  9
$USERI3
 70
     0
  9
$USERI4
 70
     0
  9
$USERI5
 70
     0
  9
$USERR1
 40
0.0
  9
$USERR2
 40
0.0
  9
$USERR3
 40
0.0
  9
$USERR4
 40
0.0
  9
$USERR5
 40
0.0
  9
$WORLDVIEW
 70
     1
  0
ENDSEC
  0
SECTION
  2
TABLES
  0
TABLE
  2
VPORT
 70
     2
  0
VPORT
  2
*ACTIVE
 70
     0
 10
0.0
 20
0.0
 11
1.0
 21
1.0
 12
142.5
 22
103.206806
 13
0.0
 23
0.0
 14
2.5
 24
2.5
 15
5.0
 25
5.0
 16
0.0
 26
0.0
 36
1.0
 17
0.0
 27
0.0
 37
0.0
 40
206.413613
 41
1.380723
 42
50.0
 43
0.0
 44
0.0
 50
0.0
 51
0.0
 71
     0
 72
   100
 73
     1
 74
     1
 75
     1
 76
     1
 77
     0
 78
     0
  0
ENDTAB
  0
TABLE
  2
LTYPE
 70
     5
  0
LTYPE
  2
AUSGEZOGEN
 70
    64
  3
Ausgezogene Linie
 72
    65
 73
     0
 40
0.0
  0
LTYPE
  2
GESTRICHELT
 70
    64
  3
__ __ __ __ __ __ __ __ __ __ __ __ __ __ __
 72
    65
 73
     2
 40
0.75
 49
0.5
 49
-0.25
  0
LTYPE
  2
VERDECKT
 70
     0
  3
_ _ _ _ _ _ _ _ _ _ _ _ _ _ _ _ _ _ _ _ _ _ _
 72
    65
 73
     2
 40
0.375
 49
0.25
 49
-0.125
  0
LTYPE
  2
PUNKT
 70
    64
  3
...............................................
 72
    65
 73
     2
 40
0.25
 49
0.0
 49
-0.25
  0
LTYPE
  2
STRICHPUNKT
 70
    64
  3
__ . __ . __ . __ . __ . __ . __ . __ . __ . __
 72
    65
 73
     4
 40
1.0
 49
0.5
 49
-0.25
 49
0.0
 49
-0.25
  0
ENDTAB
  0
TABLE
  2
LAYER
 70
     5
  0
LAYER
  2
0
 70
    64
 62
     7
  6
AUSGEZOGEN
  0
LAYER
  2
STRICHPUNKT
 70
     0
 62
     7
  6
STRICHPUNKT
  0
LAYER
  2
PUNKT
 70
     0
 62
     7
  6
PUNKT
  0
LAYER
  2
GESTRICHELT
 70
     0
 62
     7
  6
GESTRICHELT
  0
LAYER
  2
BLAU
 70
     0
 62
     5
  6
AUSGEZOGEN
  0
ENDTAB
  0
TABLE
  2
STYLE
 70
     1
  0
STYLE
  2
STANDARD
 70
     0
 40
0.0
 41
1.0
 50
0.0
 71
     0
 42
0.2
  3
txt
  4

  0
ENDTAB
  0
TABLE
  2
VIEW
 70
     0
  0
ENDTAB
  0
TABLE
  2
UCS
 70
     0
  0
ENDTAB
  0
TABLE
  2
DWGMGR
 70
     0
  0
ENDTAB
  0
ENDSEC
  0
SECTION
  2
BLOCKS
  0
ENDSEC
  0
SECTION
  2
ENTITIES
  0
LINE
  8
0
  6
STRICHPUNKT
 10
60.0
 20
185.0
 30
0.0
 11
60.0
 21
27.5
 31
0.0
  0
LINE
  8
0
  6
STRICHPUNKT
 10
50.0
 20
35.0
 30
0.0
 11
260.0
 21
35.0
 31
0.0
  0
LINE
  8
0
  6
STRICHPUNKT
 10
85.0
 20
30.0
 30
0.0
 11
85.0
 21
35.0
 31
0.0
  0
LINE
  8
0
  6
STRICHPUNKT
 10
110.0
 20
30.0
 30
0.0
 11
110.0
 21
35.0
 31
0.0
  0
LINE
  8
0
  6
STRICHPUNKT
 10
135.0
 20
25.0
 30
0.0
 11
135.0
 21
35.0
 31
0.0
  0
LINE
  8
0
  6
STRICHPUNKT
 10
160.0
 20
30.0
 30
0.0
 11
160.0
 21
35.0
 31
0.0
  0
LINE
  8
0
  6
STRICHPUNKT
 10
185.0
 20
30.0
 30
0.0
 11
185.0
 21
35.0
 31
0.0
  0
LINE
  8
0
  6
STRICHPUNKT
 10
210.0
 20
25.0
 30
0.0
 11
210.0
 21
35.0
 31
0.0
  0
LINE
  8
0
  6
STRICHPUNKT
 10
235.0
 20
30.0
 30
0.0
 11
235.0
 21
35.0
 31
0.0
  0
LINE
  8
0
  6
STRICHPUNKT
 10
260.0
 20
30.0
 30
0.0
 11
260.0
 21
35.0
 31
0.0
  0
LINE
  8
0
  6
STRICHPUNKT
 10
60.0
 20
50.0
 30
0.0
 11
55.0
 21
50.0
 31
0.0
  0
LINE
  8
0
  6
STRICHPUNKT
 10
60.0
 20
65.0
 30
0.0
 11
55.0
 21
65.0
 31
0.0
  0
LINE
  8
0
  6
STRICHPUNKT
 10
60.0
 20
80.0
 30
0.0
 11
50.0
 21
80.0
 31
0.0
  0
LINE
  8
0
  6
STRICHPUNKT
 10
60.0
 20
95.0
 30
0.0
 11
55.0
 21
95.0
 31
0.0
  0
LINE
  8
0
  6
STRICHPUNKT
 10
60.0
 20
110.0
 30
0.0
 11
50.0
 21
110.0
 31
0.0
  0
LINE
  8
0
  6
STRICHPUNKT
 10
60.0
 20
125.0
 30
0.0
 11
55.0
 21
125.0
 31
0.0
  0
LINE
  8
0
  6
STRICHPUNKT
 10
55.0
 20
140.0
 30
0.0
 11
60.0
 21
140.0
 31
0.0
  0
LINE
  8
0
  6
STRICHPUNKT
 10
60.0
 20
155.0
 30
0.0
 11
50.0
 21
155.0
 31
0.0
  0
LINE
  8
0
  6
STRICHPUNKT
 10
60.0
 20
170.0
 30
0.0
 11
55.0
 21
170.0
 31
0.0
  0
LINE
  8
0
  6
STRICHPUNKT
 10
60.0
 20
185.0
 30
0.0
 11
55.0
 21
185.0
 31
0.0
  0
LINE
  8
0
  6
STRICHPUNKT
 10
85.0
 20
175.0
 30
0.0
 11
85.0
 21
45.0
 31
0.0
  0
LINE
  8
0
  6
STRICHPUNKT
 10
85.0
 20
45.0
 30
0.0
 11
240.0
 21
45.0
 31
0.0
  0
LINE
  8
0
  6
STRICHPUNKT
 10
240.0
 20
45.0
 30
0.0
 11
240.0
 21
175.0
 31
0.0
  0
LINE
  8
0
  6
STRICHPUNKT
 10
240.0
 20
175.0
 30
0.0
 11
85.0
 21
175.0
 31
0.0
  0
LINE
  8
0
  6
STRICHPUNKT
 10
105.0
 20
165.0
 30
0.0
 11
105.0
 21
155.0
 31
0.0
  0
ARC
  8
0
  6
STRICHPUNKT
 10
105.0
 20
160.0
 30
0.0
 40
5.0
 50
270.0
 51
90.0
  0
LINE
  8
0
  6
STRICHPUNKT
 10
115.0
 20
165.0
 30
0.0
 11
120.0
 21
155.0
 31
0.0
  0
LINE
  8
0
  6
STRICHPUNKT
 10
120.0
 20
165.0
 30
0.0
 11
115.0
 21
155.0
 31
0.0
  0
LINE
  8
0
  6
STRICHPUNKT
 10
125.0
 20
165.0
 30
0.0
 11
125.0
 21
155.0
 31
0.0
  0
LINE
  8
0
  6
STRICHPUNKT
 10
130.0
 20
165.0
 30
0.0
 11
125.0
 21
165.0
 31
0.0
  0
LINE
  8
0
  6
STRICHPUNKT
 10
130.0
 20
160.0
 30
0.0
 11
125.0
 21
160.0
 31
0.0
  0
LINE
  8
0
  6
STRICHPUNKT
 10
135.0
 20
155.0
 30
0.0
 11
140.0
 21
155.0
 31
0.0
  0
ARC
  8
0
  6
STRICHPUNKT
 10
150.0
 20
160.0
 30
0.0
 40
5.0
 50
90.0
 51
270.0
  0
LINE
  8
0
  6
STRICHPUNKT
 10
155.0
 20
155.0
 30
0.0
 11
155.0
 21
165.0
 31
0.0
  0
LINE
  8
0
  6
STRICHPUNKT
 10
155.0
 20
165.0
 30
0.0
 11
160.0
 21
155.0
 31
0.0
  0
LINE
  8
0
  6
STRICHPUNKT
 10
160.0
 20
155.0
 30
0.0
 11
160.0
 21
165.0
 31
0.0
  0
ARC
  8
0
  6
STRICHPUNKT
 10
170.0
 20
160.0
 30
0.0
 40
5.0
 50
90.0
 51
270.0
  0
CIRCLE
  8
0
  6
STRICHPUNKT
 10
172.5
 20
155.0
 30
0.0
 40
0.5
  0
LINE
  8
0
  6
STRICHPUNKT
 10
185.0
 20
165.0
 30
0.0
 11
180.0
 21
165.0
 31
0.0
  0
LINE
  8
0
  6
STRICHPUNKT
 10
180.0
 20
165.0
 30
0.0
 11
180.0
 21
155.0
 31
0.0
  0
LINE
  8
0
  6
STRICHPUNKT
 10
180.0
 20
155.0
 30
0.0
 11
185.0
 21
155.0
 31
0.0
  0
LINE
  8
0
  6
STRICHPUNKT
 10
185.0
 20
160.0
 30
0.0
 11
180.0
 21
160.0
 31
0.0
  0
LINE
  8
0
  6
STRICHPUNKT
 10
190.0
 20
155.0
 30
0.0
 11
195.0
 21
165.0
 31
0.0
  0
LINE
  8
0
  6
STRICHPUNKT
 10
190.0
 20
165.0
 30
0.0
 11
195.0
 21
155.0
 31
0.0
  0
LINE
  8
0
  6
STRICHPUNKT
 10
205.0
 20
165.0
 30
0.0
 11
200.0
 21
165.0
 31
0.0
  0
LINE
  8
0
  6
STRICHPUNKT
 10
200.0
 20
165.0
 30
0.0
 11
200.0
 21
155.0
 31
0.0
  0
LINE
  8
0
  6
STRICHPUNKT
 10
200.0
 20
155.0
 30
0.0
 11
205.0
 21
155.0
 31
0.0
  0
LINE
  8
0
  6
STRICHPUNKT
 10
205.0
 20
160.0
 30
0.0
 11
200.0
 21
160.0
 31
0.0
  0
LINE
  8
0
  6
STRICHPUNKT
 10
100.0
 20
120.0
 30
0.0
 11
125.0
 21
120.0
 31
0.0
  0
LINE
  8
0
  6
STRICHPUNKT
 10
125.0
 20
120.0
 30
0.0
 11
125.0
 21
95.0
 31
0.0
  0
LINE
  8
0
  6
STRICHPUNKT
 10
125.0
 20
95.0
 30
0.0
 11
100.0
 21
95.0
 31
0.0
  0
LINE
  8
0
  6
STRICHPUNKT
 10
100.0
 20
95.0
 30
0.0
 11
100.0
 21
120.0
 31
0.0
  0
LINE
  8
0
  6
STRICHPUNKT
 10
100.0
 20
120.0
 30
0.0
 11
120.0
 21
135.0
 31
0.0
  0
LINE
  8
0
  6
STRICHPUNKT
 10
120.0
 20
135.0
 30
0.0
 11
145.0
 21
135.0
 31
0.0
  0
LINE
  8
0
  6
STRICHPUNKT
 10
145.0
 20
135.0
 30
0.0
 11
125.0
 21
120.0
 31
0.0
  0
LINE
  8
0
  6
STRICHPUNKT
 10
145.0
 20
135.0
 30
0.0
 11
145.0
 21
110.0
 31
0.0
  0
LINE
  8
0
  6
STRICHPUNKT
 10
145.0
 20
110.0
 30
0.0
 11
125.0
 21
95.0
 31
0.0
  0
CIRCLE
  8
0
  6
STRICHPUNKT
 10
165.0
 20
65.0
 30
0.0
 40
13.463
  0
POLYLINE
  8
0
  6
STRICHPUNKT
 66
     1
 10
0.0
 20
0.0
 30
0.0
  0
VERTEX
  8
0
  6
STRICHPUNKT
 10
100.0
 20
170.0
 30
0.0
  0
VERTEX
  8
0
  6
STRICHPUNKT
 10
100.0
 20
150.0
 30
0.0
  0
VERTEX
  8
0
  6
STRICHPUNKT
 10
210.0
 20
150.0
 30
0.0
  0
VERTEX
  8
0
  6
STRICHPUNKT
 10
210.0
 20
170.0
 30
0.0
  0
VERTEX
  8
0
  6
STRICHPUNKT
 10
100.0
 20
170.0
 30
0.0
  0
SEQEND
  8
0
  6
STRICHPUNKT
  0
CIRCLE
  8
0
  6
STRICHPUNKT
 10
165.0
 20
65.0
 30
0.0
 40
10.0
  0
CIRCLE
  8
0
  6
STRICHPUNKT
 10
165.0
 20
65.0
 30
0.0
 40
7.5
  0
CIRCLE
  8
0
  6
STRICHPUNKT
 10
165.0
 20
65.0
 30
0.0
 40
5.0
  0
LINE
  8
0
  6
STRICHPUNKT
 10
100.0
 20
52.5
 30
0.0
 11
130.0
 21
52.5
 31
0.0
  0
LINE
  8
0
  6
STRICHPUNKT
 10
130.0
 20
52.5
 30
0.0
 11
130.0
 21
75.0
 31
0.0
  0
LINE
  8
0
  6
STRICHPUNKT
 10
130.0
 20
75.0
 30
0.0
 11
100.0
 21
75.0
 31
0.0
  0
LINE
  8
0
  6
STRICHPUNKT
 10
100.0
 20
75.0
 30
0.0
 11
100.0
 21
52.5
 31
0.0
  0
LINE
  8
0
  6
STRICHPUNKT
 10
100.0
 20
52.5
 30
0.0
 11
137.5
 21
90.0
 31
0.0
  0
LINE
  8
0
  6
STRICHPUNKT
 10
137.5
 20
90.0
 30
0.0
 11
100.0
 21
75.0
 31
0.0
  0
LINE
  8
0
  6
STRICHPUNKT
 10
130.0
 20
52.5
 30
0.0
 11
137.5
 21
90.0
 31
0.0
  0
LINE
  8
0
  6
STRICHPUNKT
 10
137.5
 20
90.0
 30
0.0
 11
130.0
 21
75.0
 31
0.0
  0
LINE
  8
0
  6
STRICHPUNKT
 10
165.0
 20
90.0
 30
0.0
 11
165.0
 21
130.0
 31
0.0
  0
LINE
  8
0
  6
STRICHPUNKT
 10
165.0
 20
130.0
 30
0.0
 11
185.0
 21
130.0
 31
0.0
  0
LINE
  8
0
  6
STRICHPUNKT
 10
185.0
 20
130.0
 30
0.0
 11
185.0
 21
140.0
 31
0.0
  0
LINE
  8
0
  6
STRICHPUNKT
 10
185.0
 20
140.0
 30
0.0
 11
222.5
 21
140.0
 31
0.0
  0
LINE
  8
0
  6
STRICHPUNKT
 10
222.5
 20
140.0
 30
0.0
 11
222.5
 21
125.0
 31
0.0
  0
LINE
  8
0
  6
STRICHPUNKT
 10
222.5
 20
125.0
 30
0.0
 11
235.0
 21
125.0
 31
0.0
  0
LINE
  8
0
  6
STRICHPUNKT
 10
235.0
 20
125.0
 30
0.0
 11
235.0
 21
100.0
 31
0.0
  0
LINE
  8
0
  6
STRICHPUNKT
 10
235.0
 20
100.0
 30
0.0
 11
227.5
 21
90.0
 31
0.0
  0
LINE
  8
0
  6
STRICHPUNKT
 10
227.5
 20
90.0
 30
0.0
 11
165.0
 21
90.0
 31
0.0
  0
CIRCLE
  8
0
  6
STRICHPUNKT
 10
182.5
 20
120.0
 30
0.0
 40
5.0
  0
CIRCLE
  8
0
  6
STRICHPUNKT
 10
182.5
 20
102.5
 30
0.0
 40
5.0
  0
LINE
  8
0
  6
STRICHPUNKT
 10
200.0
 20
125.0
 30
0.0
 11
200.0
 21
105.0
 31
0.0
  0
ARC
  8
0
  6
STRICHPUNKT
 10
205.0
 20
105.0
 30
0.0
 40
5.0
 50
180.0
 51
0.0
  0
LINE
  8
0
  6
STRICHPUNKT
 10
210.0
 20
105.0
 30
0.0
 11
210.0
 21
125.0
 31
0.0
  0
ARC
  8
0
  6
STRICHPUNKT
 10
205.0
 20
125.0
 30
0.0
 40
5.0
 50
0.0
 51
180.0
  0
LINE
  8
0
  6
STRICHPUNKT
 10
200.0
 20
125.0
 30
0.0
 11
200.0
 21
122.5
 31
0.0
  0
ENDSEC
  0
EOF
