999
dxflib 2.0.4.8
  0
SECTION
  2
HEADER
  9
$ACADVER
  1
AC1015
  9
$HANDSEED
  5
FFFF
  9
$DIMASZ
 40
2.5
  9
$DIMGAP
 40
0.625
  9
$DIMEXO
 40
0.625
  9
$INSUNITS
 70
4
  9
$DIMTXT
 40
2.5
  9
$PLIMMAX
 10
210.0
 20
297.0
  9
$PLIMMIN
 10
0.0
 20
0.0
  9
$DIMEXE
 40
1.25
  0
ENDSEC
  0
SECTION
  2
TABLES
  0
TABLE
  2
VPORT
  5
8
100
AcDbSymbolTable
 70
1
  0
VPORT
  5
30
100
AcDbSymbolTableRecord
100
AcDbViewportTableRecord
  2
*Active
 70
0
 10
0.0
 20
0.0
 11
1.0
 21
1.0
 12
286.3055555555554861
 22
148.5
 13
0.0
 23
0.0
 14
10.0
 24
10.0
 15
10.0
 25
10.0
 16
0.0
 26
0.0
 36
1.0
 17
0.0
 27
0.0
 37
0.0
 40
297.0
 41
1.92798353909465
 42
50.0
 43
0.0
 44
0.0
 50
0.0
 51
0.0
 71
0
 72
100
 73
1
 74
3
 75
1
 76
1
 77
0
 78
0
281
0
 65
1
110
0.0
120
0.0
130
0.0
111
1.0
121
0.0
131
0.0
112
0.0
122
1.0
132
0.0
 79
0
146
0.0
  0
ENDTAB
  0
TABLE
  2
LTYPE
  5
5
100
AcDbSymbolTable
 70
21
  0
LTYPE
  5
14
100
AcDbSymbolTableRecord
100
AcDbLinetypeTableRecord
  2
ByBlock
 70
0
  3

 72
65
 73
0
 40
0.0
  0
LTYPE
  5
15
100
AcDbSymbolTableRecord
100
AcDbLinetypeTableRecord
  2
ByLayer
 70
0
  3

 72
65
 73
0
 40
0.0
  0
LTYPE
  5
16
100
AcDbSymbolTableRecord
100
AcDbLinetypeTableRecord
  2
CONTINUOUS
 70
0
  3
Solid line
 72
65
 73
0
 40
0.0
  0
LTYPE
  5
31
100
AcDbSymbolTableRecord
100
AcDbLinetypeTableRecord
  2
DOT
 70
0
  3
Dot . . . . . . . . . . . . . . . . . . . . . .
 72
65
 73
2
 40
6.3499999999999996
 49
0.0
 74
0
 49
-6.3499999999999996
 74
0
  0
LTYPE
  5
32
100
AcDbSymbolTableRecord
100
AcDbLinetypeTableRecord
  2
DOT2
 70
0
  3
Dot (.5x) .....................................
 72
65
 73
2
 40
3.1749999999999998
 49
0.0
 74
0
 49
-3.1749999999999998
 74
0
  0
LTYPE
  5
33
100
AcDbSymbolTableRecord
100
AcDbLinetypeTableRecord
  2
DOTX2
 70
0
  3
Dot (2x) .  .  .  .  .  .  .  .  .  .  .  .  .
 72
65
 73
2
 40
12.6999999999999993
 49
0.0
 74
0
 49
-12.6999999999999993
 74
0
  0
LTYPE
  5
34
100
AcDbSymbolTableRecord
100
AcDbLinetypeTableRecord
  2
DASHED
 70
0
  3
Dashed __ __ __ __ __ __ __ __ __ __ __ __ __ _
 72
65
 73
2
 40
19.0500000000000007
 49
12.6999999999999993
 74
0
 49
-6.3499999999999996
 74
0
  0
LTYPE
  5
35
100
AcDbSymbolTableRecord
100
AcDbLinetypeTableRecord
  2
DASHED2
 70
0
  3
Dashed (.5x) _ _ _ _ _ _ _ _ _ _ _ _ _ _ _ _ _
 72
65
 73
2
 40
9.5250000000000004
 49
6.3499999999999996
 74
0
 49
-3.1749999999999998
 74
0
  0
LTYPE
  5
36
100
AcDbSymbolTableRecord
100
AcDbLinetypeTableRecord
  2
DASHEDX2
 70
0
  3
Dashed (2x) ____  ____  ____  ____  ____  ___
 72
65
 73
2
 40
38.1000000000000014
 49
25.3999999999999986
 74
0
 49
-12.6999999999999993
 74
0
  0
LTYPE
  5
37
100
AcDbSymbolTableRecord
100
AcDbLinetypeTableRecord
  2
DASHDOT
 70
0
  3
Dash dot __ . __ . __ . __ . __ . __ . __ . __
 72
65
 73
4
 40
25.3999999999999986
 49
12.6999999999999993
 74
0
 49
-6.3499999999999996
 74
0
 49
0.0
 74
0
 49
-6.3499999999999996
 74
0
  0
LTYPE
  5
38
100
AcDbSymbolTableRecord
100
AcDbLinetypeTableRecord
  2
DASHDOT2
 70
0
  3
Dash dot (.5x) _._._._._._._._._._._._._._._.
 72
65
 73
4
 40
12.6999999999999993
 49
6.3499999999999996
 74
0
 49
-3.1749999999999998
 74
0
 49
0.0
 74
0
 49
-3.1749999999999998
 74
0
  0
LTYPE
  5
39
100
AcDbSymbolTableRecord
100
AcDbLinetypeTableRecord
  2
DASHDOTX2
 70
0
  3
Dash dot (2x) ____  .  ____  .  ____  .  ___
 72
65
 73
4
 40
50.7999999999999972
 49
25.3999999999999986
 74
0
 49
-12.6999999999999993
 74
0
 49
0.0
 74
0
 49
-12.6999999999999993
 74
0
  0
LTYPE
  5
3A
100
AcDbSymbolTableRecord
100
AcDbLinetypeTableRecord
  2
DIVIDE
 70
0
  3
Divide ____ . . ____ . . ____ . . ____ . . ____
 72
65
 73
6
 40
31.75
 49
12.6999999999999993
 74
0
 49
-6.3499999999999996
 74
0
 49
0.0
 74
0
 49
-6.3499999999999996
 74
0
 49
0.0
 74
0
 49
-6.3499999999999996
 74
0
  0
LTYPE
  5
3B
100
AcDbSymbolTableRecord
100
AcDbLinetypeTableRecord
  2
DIVIDE2
 70
0
  3
Divide (.5x) __..__..__..__..__..__..__..__.._
 72
65
 73
6
 40
15.875
 49
6.3499999999999996
 74
0
 49
-3.1749999999999998
 74
0
 49
0.0
 74
0
 49
-3.1749999999999998
 74
0
 49
0.0
 74
0
 49
-3.1749999999999998
 74
0
  0
LTYPE
  5
3C
100
AcDbSymbolTableRecord
100
AcDbLinetypeTableRecord
  2
DIVIDEX2
 70
0
  3
Divide (2x) ________  .  .  ________  .  .  _
 72
65
 73
6
 40
63.5
 49
25.3999999999999986
 74
0
 49
-12.6999999999999993
 74
0
 49
0.0
 74
0
 49
-12.6999999999999993
 74
0
 49
0.0
 74
0
 49
-12.6999999999999993
 74
0
  0
LTYPE
  5
3D
100
AcDbSymbolTableRecord
100
AcDbLinetypeTableRecord
  2
CENTER
 70
0
  3
Center ____ _ ____ _ ____ _ ____ _ ____ _ ____
 72
65
 73
4
 40
50.7999999999999972
 49
31.75
 74
0
 49
-6.3499999999999996
 74
0
 49
6.3499999999999996
 74
0
 49
-6.3499999999999996
 74
0
  0
LTYPE
  5
3E
100
AcDbSymbolTableRecord
100
AcDbLinetypeTableRecord
  2
CENTER2
 70
0
  3
Center (.5x) ___ _ ___ _ ___ _ ___ _ ___ _ ___
 72
65
 73
4
 40
28.5749999999999993
 49
19.0500000000000007
 74
0
 49
-3.1749999999999998
 74
0
 49
3.1749999999999998
 74
0
 49
-3.1749999999999998
 74
0
  0
LTYPE
  5
3F
100
AcDbSymbolTableRecord
100
AcDbLinetypeTableRecord
  2
CENTERX2
 70
0
  3
Center (2x) ________  __  ________  __  _____
 72
65
 73
4
 40
101.5999999999999943
 49
63.5
 74
0
 49
-12.6999999999999993
 74
0
 49
12.6999999999999993
 74
0
 49
-12.6999999999999993
 74
0
  0
LTYPE
  5
40
100
AcDbSymbolTableRecord
100
AcDbLinetypeTableRecord
  2
BORDER
 70
0
  3
Border __ __ . __ __ . __ __ . __ __ . __ __ .
 72
65
 73
6
 40
44.4500000000000028
 49
12.6999999999999993
 74
0
 49
-6.3499999999999996
 74
0
 49
12.6999999999999993
 74
0
 49
-6.3499999999999996
 74
0
 49
0.0
 74
0
 49
-6.3499999999999996
 74
0
  0
LTYPE
  5
41
100
AcDbSymbolTableRecord
100
AcDbLinetypeTableRecord
  2
BORDER2
 70
0
  3
Border (.5x) __.__.__.__.__.__.__.__.__.__.__.
 72
65
 73
6
 40
22.2250000000000014
 49
6.3499999999999996
 74
0
 49
-3.1749999999999998
 74
0
 49
6.3499999999999996
 74
0
 49
-3.1749999999999998
 74
0
 49
0.0
 74
0
 49
-3.1749999999999998
 74
0
  0
LTYPE
  5
42
100
AcDbSymbolTableRecord
100
AcDbLinetypeTableRecord
  2
BORDERX2
 70
0
  3
Border (2x) ____  ____  .  ____  ____  .  ___
 72
65
 73
6
 40
88.9000000000000057
 49
25.3999999999999986
 74
0
 49
-12.6999999999999993
 74
0
 49
25.3999999999999986
 74
0
 49
-12.6999999999999993
 74
0
 49
0.0
 74
0
 49
-12.6999999999999993
 74
0
  0
ENDTAB
  0
TABLE
  2
LAYER
  5
2
100
AcDbSymbolTable
 70
1
  0
LAYER
  5
10
100
AcDbSymbolTableRecord
100
AcDbLayerTableRecord
  2
0
 70
0
 62
7
  6
CONTINUOUS
370
0
390
F
  0
ENDTAB
  0
TABLE
  2
STYLE
  5
3
100
AcDbSymbolTable
 70
1
  0
STYLE
  5
11
100
AcDbSymbolTableRecord
100
AcDbTextStyleTableRecord
  2
Standard
 70
0
 40
0.0
 41
0.75
 50
0.0
 71
0
 42
2.5
  3
txt
  4

  0
ENDTAB
  0
TABLE
  2
VIEW
  5
6
100
AcDbSymbolTable
 70
0
  0
ENDTAB
  0
TABLE
  2
UCS
  5
7
100
AcDbSymbolTable
 70
0
  0
ENDTAB
  0
TABLE
  2
APPID
  5
9
100
AcDbSymbolTable
 70
1
  0
APPID
  5
12
100
AcDbSymbolTableRecord
100
AcDbRegAppTableRecord
  2
ACAD
 70
0
  0
ENDTAB
  0
TABLE
  2
DIMSTYLE
  5
A
100
AcDbSymbolTable
 70
1
100
AcDbDimStyleTable
 71
0
  0
DIMSTYLE
105
27
100
AcDbSymbolTableRecord
100
AcDbDimStyleTableRecord
  2
Standard
 41
2.5
 42
0.625
 43
3.75
 44
1.25
 70
0
 73
0
 74
0
 77
1
 78
8
140
2.5
141
2.5
143
0.03937007874016
147
0.625
171
3
172
1
271
2
272
2
274
3
278
44
283
0
284
8
340
11
  0
ENDTAB
  0
TABLE
  2
BLOCK_RECORD
  5
1
100
AcDbSymbolTable
 70
1
  0
BLOCK_RECORD
  5
1F
100
AcDbSymbolTableRecord
100
AcDbBlockTableRecord
  2
*Model_Space
340
22
  0
BLOCK_RECORD
  5
1B
100
AcDbSymbolTableRecord
100
AcDbBlockTableRecord
  2
*Paper_Space
340
1E
  0
BLOCK_RECORD
  5
23
100
AcDbSymbolTableRecord
100
AcDbBlockTableRecord
  2
*Paper_Space0
340
26
  0
ENDTAB
  0
ENDSEC
  0
SECTION
  2
BLOCKS
  0
BLOCK
  5
20
100
AcDbEntity
  8
0
100
AcDbBlockBegin
  2
*Model_Space
 70
0
 10
0.0
 20
0.0
 30
0.0
  3
*Model_Space
  1

  0
ENDBLK
  5
21
100
AcDbEntity
  8
0
100
AcDbBlockEnd
  0
BLOCK
  5
1C
100
AcDbEntity
 67
1
  8
0
100
AcDbBlockBegin
  2
*Paper_Space
 70
0
 10
0.0
 20
0.0
 30
0.0
  3
*Paper_Space
  1

  0
ENDBLK
  5
1D
100
AcDbEntity
 67
1
  8
0
100
AcDbBlockEnd
  0
BLOCK
  5
24
100
AcDbEntity
  8
0
100
AcDbBlockBegin
  2
*Paper_Space0
 70
0
 10
0.0
 20
0.0
 30
0.0
  3
*Paper_Space0
  1

  0
ENDBLK
  5
25
100
AcDbEntity
  8
0
100
AcDbBlockEnd
  0
ENDSEC
  0
SECTION
  2
ENTITIES
  0
LINE
  5
43
100
AcDbEntity
100
AcDbLine
  8
0
 62
256
370
-1
  6
ByLayer
 10
34.8968812499999856
 20
51.2222750000005078
 30
0.0
 11
32.0295034722221956
 21
48.354897222222732
 31
0.0
  0
LINE
  5
44
100
AcDbEntity
100
AcDbLine
  8
0
 62
256
370
-1
  6
ByLayer
 10
32.0295034722221956
 20
48.354897222222732
 30
0.0
 11
32.0295034722222027
 21
42.6201305555560666
 31
0.0
  0
LINE
  5
45
100
AcDbEntity
100
AcDbLine
  8
0
 62
256
370
-1
  6
ByLayer
 10
32.0295034722222027
 20
42.6201305555560666
 30
0.0
 11
34.8968812499999856
 21
39.7527416666671698
 31
0.0
  0
LINE
  5
46
100
AcDbEntity
100
AcDbLine
  8
0
 62
256
370
-1
  6
ByLayer
 10
34.8968812499999856
 20
39.7527416666671698
 30
0.0
 11
40.6316479166666511
 21
39.7527416666671769
 31
0.0
  0
LINE
  5
47
100
AcDbEntity
100
AcDbLine
  8
0
 62
256
370
-1
  6
ByLayer
 10
40.6316479166666511
 20
39.7527416666671769
 30
0.0
 11
43.4990368055555479
 21
45.4875083333338353
 31
0.0
  0
LINE
  5
48
100
AcDbEntity
100
AcDbLine
  8
0
 62
256
370
-1
  6
ByLayer
 10
43.4990368055555479
 20
45.4875083333338353
 30
0.0
 11
43.4990368055555479
 21
51.2222750000005007
 31
0.0
  0
LINE
  5
49
100
AcDbEntity
100
AcDbLine
  8
0
 62
256
370
-1
  6
ByLayer
 10
43.4990368055555479
 20
51.2222750000005007
 30
0.0
 11
40.6316479166666511
 21
56.9570416666671804
 31
0.0
  0
LINE
  5
4A
100
AcDbEntity
100
AcDbLine
  8
0
 62
256
370
-1
  6
ByLayer
 10
40.6316479166666511
 20
56.9570416666671804
 30
0.0
 11
34.8968812499999856
 21
59.8244305555560629
 31
0.0
  0
LINE
  5
4B
100
AcDbEntity
100
AcDbLine
  8
0
 62
256
370
-1
  6
ByLayer
 10
34.8968812499999856
 20
59.8244305555560629
 30
0.0
 11
26.2947368055555444
 21
59.8244305555560629
 31
0.0
  0
LINE
  5
4C
100
AcDbEntity
100
AcDbLine
  8
0
 62
256
370
-1
  6
ByLayer
 10
26.2947368055555444
 20
59.8244305555560629
 30
0.0
 11
20.5599701388888754
 21
56.9570416666671804
 31
0.0
  0
LINE
  5
4D
100
AcDbEntity
100
AcDbLine
  8
0
 62
256
370
-1
  6
ByLayer
 10
20.5599701388888754
 20
56.9570416666671804
 30
0.0
 11
17.6925812499999786
 21
54.0896638888893975
 31
0.0
  0
LINE
  5
4E
100
AcDbEntity
100
AcDbLine
  8
0
 62
256
370
-1
  6
ByLayer
 10
17.6925812499999786
 20
54.0896638888893975
 30
0.0
 11
14.8252034722222081
 21
48.3548972222227249
 31
0.0
  0
LINE
  5
4F
100
AcDbEntity
100
AcDbLine
  8
0
 62
256
370
-1
  6
ByLayer
 10
14.8252034722222081
 20
48.3548972222227249
 30
0.0
 11
14.8252034722222081
 21
42.6201305555560666
 31
0.0
  0
LINE
  5
50
100
AcDbEntity
100
AcDbLine
  8
0
 62
256
370
-1
  6
ByLayer
 10
14.8252034722222081
 20
42.6201305555560666
 30
0.0
 11
17.6925812499999822
 21
36.8853638888894011
 31
0.0
  0
LINE
  5
51
100
AcDbEntity
100
AcDbLine
  8
0
 62
256
370
-1
  6
ByLayer
 10
17.6925812499999822
 20
36.8853638888894011
 30
0.0
 11
23.4273479166666476
 21
34.0179750000005114
 31
0.0
  0
LINE
  5
52
100
AcDbEntity
100
AcDbLine
  8
0
 62
256
370
-1
  6
ByLayer
 10
26.2947368055555444
 20
59.8244305555560629
 30
0.0
 11
20.5599701388888683
 21
54.0896638888893975
 31
0.0
  0
LINE
  5
53
100
AcDbEntity
100
AcDbLine
  8
0
 62
256
370
-1
  6
ByLayer
 10
20.5599701388888683
 20
54.0896638888893975
 30
0.0
 11
17.6925812499999786
 21
48.354897222222732
 31
0.0
  0
LINE
  5
54
100
AcDbEntity
100
AcDbLine
  8
0
 62
256
370
-1
  6
ByLayer
 10
17.6925812499999786
 20
48.354897222222732
 30
0.0
 11
17.6925812499999857
 21
39.7527416666671769
 31
0.0
  0
LINE
  5
55
100
AcDbEntity
100
AcDbLine
  8
0
 62
256
370
-1
  6
ByLayer
 10
17.6925812499999857
 20
39.7527416666671769
 30
0.0
 11
23.4273479166666476
 21
34.0179750000005114
 31
0.0
  0
LINE
  5
56
100
AcDbEntity
100
AcDbLine
  8
0
 62
256
370
-1
  6
ByLayer
 10
23.4273479166666476
 20
34.0179750000005114
 30
0.0
 11
17.6925812499999857
 21
34.0179750000005043
 31
0.0
  0
LINE
  5
57
100
AcDbEntity
100
AcDbLine
  8
0
 62
256
370
-1
  6
ByLayer
 10
17.6925812499999857
 20
34.0179750000005043
 30
0.0
 11
9.0904368055555409
 21
31.1505972222227285
 31
0.0
  0
LINE
  5
58
100
AcDbEntity
100
AcDbLine
  8
0
 62
256
370
-1
  6
ByLayer
 10
9.0904368055555409
 20
31.1505972222227285
 30
0.0
 11
3.3556701388888714
 21
25.4158305555560666
 31
0.0
  0
LINE
  5
59
100
AcDbEntity
100
AcDbLine
  8
0
 62
256
370
-1
  6
ByLayer
 10
3.3556701388888714
 20
25.4158305555560666
 30
0.0
 11
0.4882812499999854
 21
19.6810638888893976
 31
0.0
  0
LINE
  5
5A
100
AcDbEntity
100
AcDbLine
  8
0
 62
256
370
-1
  6
ByLayer
 10
0.4882812499999854
 20
19.6810638888893976
 30
0.0
 11
0.4882812499999849
 21
11.0789083333338425
 31
0.0
  0
LINE
  5
5B
100
AcDbEntity
100
AcDbLine
  8
0
 62
256
370
-1
  6
ByLayer
 10
0.4882812499999849
 20
11.0789083333338425
 30
0.0
 11
3.3556701388888728
 21
5.344141666667177
 31
0.0
  0
LINE
  5
5C
100
AcDbEntity
100
AcDbLine
  8
0
 62
256
370
-1
  6
ByLayer
 10
3.3556701388888728
 20
5.344141666667177
 30
0.0
 11
6.2230479166666486
 21
2.4767638888893999
 31
0.0
  0
LINE
  5
5D
100
AcDbEntity
100
AcDbLine
  8
0
 62
256
370
-1
  6
ByLayer
 10
6.2230479166666486
 20
2.4767638888893999
 30
0.0
 11
11.9578145833333149
 21
-0.3906249999994884
 31
0.0
  0
LINE
  5
5E
100
AcDbEntity
100
AcDbLine
  8
0
 62
256
370
-1
  6
ByLayer
 10
11.9578145833333149
 20
-0.3906249999994884
 30
0.0
 11
20.5599701388888718
 21
-0.3906249999994884
 31
0.0
  0
LINE
  5
5F
100
AcDbEntity
100
AcDbLine
  8
0
 62
256
370
-1
  6
ByLayer
 10
20.5599701388888718
 20
-0.3906249999994884
 30
0.0
 11
29.1621145833333202
 21
2.4767638888894083
 31
0.0
  0
LINE
  5
60
100
AcDbEntity
100
AcDbLine
  8
0
 62
256
370
-1
  6
ByLayer
 10
29.1621145833333202
 20
2.4767638888894083
 30
0.0
 11
34.8968812499999856
 21
8.2115305555560809
 31
0.0
  0
LINE
  5
61
100
AcDbEntity
100
AcDbLine
  8
0
 62
256
370
-1
  6
ByLayer
 10
34.8968812499999856
 20
8.2115305555560809
 30
0.0
 11
37.7642701388888753
 21
13.9462972222227446
 31
0.0
  0
LINE
  5
62
100
AcDbEntity
100
AcDbLine
  8
0
 62
256
370
-1
  6
ByLayer
 10
37.7642701388888753
 20
13.9462972222227446
 30
0.0
 11
37.7642701388888753
 21
19.6810638888894047
 31
0.0
  0
LINE
  5
63
100
AcDbEntity
100
AcDbLine
  8
0
 62
256
370
-1
  6
ByLayer
 10
37.7642701388888753
 20
19.6810638888894047
 30
0.0
 11
34.8968812499999856
 21
25.4158305555560666
 31
0.0
  0
LINE
  5
64
100
AcDbEntity
100
AcDbLine
  8
0
 62
256
370
-1
  6
ByLayer
 10
34.8968812499999856
 20
25.4158305555560666
 30
0.0
 11
29.1621145833333202
 21
25.4158305555560737
 31
0.0
  0
LINE
  5
65
100
AcDbEntity
100
AcDbLine
  8
0
 62
256
370
-1
  6
ByLayer
 10
29.1621145833333202
 20
25.4158305555560737
 30
0.0
 11
23.4273479166666476
 21
22.548441666667177
 31
0.0
  0
LINE
  5
66
100
AcDbEntity
100
AcDbLine
  8
0
 62
256
370
-1
  6
ByLayer
 10
23.4273479166666476
 20
22.548441666667177
 30
0.0
 11
20.5599701388888718
 21
16.8136750000005115
 31
0.0
  0
LINE
  5
67
100
AcDbEntity
100
AcDbLine
  8
0
 62
256
370
-1
  6
ByLayer
 10
17.6925812499999857
 20
34.0179750000005043
 30
0.0
 11
11.9578145833333149
 21
31.1505972222227356
 31
0.0
  0
LINE
  5
68
100
AcDbEntity
100
AcDbLine
  8
0
 62
256
370
-1
  6
ByLayer
 10
11.9578145833333149
 20
31.1505972222227356
 30
0.0
 11
6.2230479166666468
 21
25.4158305555560666
 31
0.0
  0
LINE
  5
69
100
AcDbEntity
100
AcDbLine
  8
0
 62
256
370
-1
  6
ByLayer
 10
6.2230479166666468
 20
25.4158305555560666
 30
0.0
 11
3.355670138888875
 21
19.6810638888893976
 31
0.0
  0
LINE
  5
6A
100
AcDbEntity
100
AcDbLine
  8
0
 62
256
370
-1
  6
ByLayer
 10
3.355670138888875
 20
19.6810638888893976
 30
0.0
 11
3.3556701388888728
 21
8.2115305555560667
 31
0.0
  0
LINE
  5
6B
100
AcDbEntity
100
AcDbLine
  8
0
 62
256
370
-1
  6
ByLayer
 10
3.3556701388888728
 20
8.2115305555560667
 30
0.0
 11
6.2230479166666486
 21
2.4767638888893999
 31
0.0
  0
LINE
  5
6C
100
AcDbEntity
100
AcDbLine
  8
0
 62
256
370
-1
  6
ByLayer
 10
116.9757368055555418
 20
56.9570416666671662
 30
0.0
 11
114.1083590277777091
 21
54.0896638888893904
 31
0.0
  0
LINE
  5
6D
100
AcDbEntity
100
AcDbLine
  8
0
 62
256
370
-1
  6
ByLayer
 10
114.1083590277777091
 20
54.0896638888893904
 30
0.0
 11
111.2409701388887981
 21
48.3548972222227107
 31
0.0
  0
LINE
  5
6E
100
AcDbEntity
100
AcDbLine
  8
0
 62
256
370
-1
  6
ByLayer
 10
111.2409701388887981
 20
48.3548972222227107
 30
0.0
 11
105.5062034722222251
 21
34.0179750000005043
 31
0.0
  0
LINE
  5
6F
100
AcDbEntity
100
AcDbLine
  8
0
 62
256
370
-1
  6
ByLayer
 10
105.5062034722222251
 20
34.0179750000005043
 30
0.0
 11
99.7714368055554814
 21
16.8136750000004973
 31
0.0
  0
LINE
  5
70
100
AcDbEntity
100
AcDbLine
  8
0
 62
256
370
-1
  6
ByLayer
 10
99.7714368055554814
 20
16.8136750000004973
 30
0.0
 11
96.904059027777663
 21
11.0789083333338301
 31
0.0
  0
LINE
  5
71
100
AcDbEntity
100
AcDbLine
  8
0
 62
256
370
-1
  6
ByLayer
 10
96.904059027777663
 20
11.0789083333338301
 30
0.0
 11
91.1692923611110757
 21
2.4767638888893924
 31
0.0
  0
LINE
  5
72
100
AcDbEntity
100
AcDbLine
  8
0
 62
256
370
-1
  6
ByLayer
 10
91.1692923611110757
 20
2.4767638888893924
 30
0.0
 11
85.4345256944443463
 21
-0.3906249999995026
 31
0.0
  0
LINE
  5
73
100
AcDbEntity
100
AcDbLine
  8
0
 62
256
370
-1
  6
ByLayer
 10
114.1083590277777091
 20
54.0896638888893904
 30
0.0
 11
111.2409701388887981
 21
45.487508333333821
 31
0.0
  0
LINE
  5
74
100
AcDbEntity
100
AcDbLine
  8
0
 62
256
370
-1
  6
ByLayer
 10
111.2409701388887981
 20
45.487508333333821
 30
0.0
 11
105.5062034722222251
 21
22.5484416666671592
 31
0.0
  0
LINE
  5
75
100
AcDbEntity
100
AcDbLine
  8
0
 62
256
370
-1
  6
ByLayer
 10
105.5062034722222251
 20
22.5484416666671592
 30
0.0
 11
102.6388256944443924
 21
13.9462972222227233
 31
0.0
  0
LINE
  5
76
100
AcDbEntity
100
AcDbLine
  8
0
 62
256
370
-1
  6
ByLayer
 10
102.6388256944443924
 20
13.9462972222227233
 30
0.0
 11
99.7714368055554814
 21
8.2115305555560543
 31
0.0
  0
LINE
  5
77
100
AcDbEntity
100
AcDbLine
  8
0
 62
256
370
-1
  6
ByLayer
 10
99.7714368055554814
 20
8.2115305555560543
 30
0.0
 11
94.0366701388889084
 21
2.476763888889387
 31
0.0
  0
LINE
  5
78
100
AcDbEntity
100
AcDbLine
  8
0
 62
256
370
-1
  6
ByLayer
 10
94.0366701388889084
 20
2.476763888889387
 30
0.0
 11
85.4345256944443463
 21
-0.3906249999995026
 31
0.0
  0
LINE
  5
79
100
AcDbEntity
100
AcDbLine
  8
0
 62
256
370
-1
  6
ByLayer
 10
85.4345256944443463
 20
-0.3906249999995026
 30
0.0
 11
79.699759027777759
 21
-0.3906249999995026
 31
0.0
  0
LINE
  5
7A
100
AcDbEntity
100
AcDbLine
  8
0
 62
256
370
-1
  6
ByLayer
 10
79.699759027777759
 20
-0.3906249999995026
 30
0.0
 11
76.832370138888848
 21
2.4767638888893861
 31
0.0
  0
LINE
  5
7B
100
AcDbEntity
100
AcDbLine
  8
0
 62
256
370
-1
  6
ByLayer
 10
76.832370138888848
 20
2.4767638888893861
 30
0.0
 11
76.832370138888848
 21
8.2115305555560525
 31
0.0
  0
LINE
  5
7C
100
AcDbEntity
100
AcDbLine
  8
0
 62
256
370
-1
  6
ByLayer
 10
76.832370138888848
 20
8.2115305555560525
 30
0.0
 11
79.699759027777759
 21
11.0789083333338283
 31
0.0
  0
LINE
  5
7D
100
AcDbEntity
100
AcDbLine
  8
0
 62
256
370
-1
  6
ByLayer
 10
79.699759027777759
 20
11.0789083333338283
 30
0.0
 11
82.5671368055555916
 21
8.2115305555560525
 31
0.0
  0
LINE
  5
7E
100
AcDbEntity
100
AcDbLine
  8
0
 62
256
370
-1
  6
ByLayer
 10
82.5671368055555916
 20
8.2115305555560525
 30
0.0
 11
79.699759027777759
 21
5.3441416666671619
 31
0.0
  0
LINE
  5
7F
100
AcDbEntity
100
AcDbLine
  8
0
 62
256
370
-1
  6
ByLayer
 10
99.7714368055554814
 20
42.6201305555560523
 30
0.0
 11
96.904059027777663
 21
36.8853638888893869
 31
0.0
  0
LINE
  5
80
100
AcDbEntity
100
AcDbLine
  8
0
 62
256
370
-1
  6
ByLayer
 10
96.904059027777663
 20
36.8853638888893869
 30
0.0
 11
94.0366701388889084
 21
34.0179750000004901
 31
0.0
  0
LINE
  5
81
100
AcDbEntity
100
AcDbLine
  8
0
 62
256
370
-1
  6
ByLayer
 10
94.0366701388889084
 20
34.0179750000004901
 30
0.0
 11
88.3019034722221647
 21
34.0179750000004972
 31
0.0
  0
LINE
  5
82
100
AcDbEntity
100
AcDbLine
  8
0
 62
256
370
-1
  6
ByLayer
 10
88.3019034722221647
 20
34.0179750000004972
 30
0.0
 11
85.4345256944443463
 21
36.8853638888893869
 31
0.0
  0
LINE
  5
83
100
AcDbEntity
100
AcDbLine
  8
0
 62
256
370
-1
  6
ByLayer
 10
85.4345256944443463
 20
36.8853638888893869
 30
0.0
 11
85.4345256944443463
 21
42.6201305555560523
 31
0.0
  0
LINE
  5
84
100
AcDbEntity
100
AcDbLine
  8
0
 62
256
370
-1
  6
ByLayer
 10
85.4345256944443463
 20
42.6201305555560523
 30
0.0
 11
88.3019034722221647
 21
48.3548972222227178
 31
0.0
  0
LINE
  5
85
100
AcDbEntity
100
AcDbLine
  8
0
 62
256
370
-1
  6
ByLayer
 10
88.3019034722221647
 20
48.3548972222227178
 30
0.0
 11
94.0366701388889084
 21
54.0896638888893833
 31
0.0
  0
LINE
  5
86
100
AcDbEntity
100
AcDbLine
  8
0
 62
256
370
-1
  6
ByLayer
 10
94.0366701388889084
 20
54.0896638888893833
 30
0.0
 11
99.7714368055554814
 21
56.9570416666671733
 31
0.0
  0
LINE
  5
87
100
AcDbEntity
100
AcDbLine
  8
0
 62
256
370
-1
  6
ByLayer
 10
99.7714368055554814
 20
56.9570416666671733
 30
0.0
 11
108.373592361111136
 21
59.8244305555560629
 31
0.0
  0
LINE
  5
88
100
AcDbEntity
100
AcDbLine
  8
0
 62
256
370
-1
  6
ByLayer
 10
108.373592361111136
 20
59.8244305555560629
 30
0.0
 11
122.7105034722221291
 21
59.8244305555560558
 31
0.0
  0
LINE
  5
89
100
AcDbEntity
100
AcDbLine
  8
0
 62
256
370
-1
  6
ByLayer
 10
122.7105034722221291
 20
59.8244305555560558
 30
0.0
 11
131.3126590277777836
 21
56.9570416666671591
 31
0.0
  0
LINE
  5
8A
100
AcDbEntity
100
AcDbLine
  8
0
 62
256
370
-1
  6
ByLayer
 10
131.3126590277777836
 20
56.9570416666671591
 30
0.0
 11
134.18003680555546
 21
51.2222750000004936
 31
0.0
  0
LINE
  5
8B
100
AcDbEntity
100
AcDbLine
  8
0
 62
256
370
-1
  6
ByLayer
 10
134.18003680555546
 20
51.2222750000004936
 30
0.0
 11
134.18003680555546
 21
45.4875083333338139
 31
0.0
  0
LINE
  5
8C
100
AcDbEntity
100
AcDbLine
  8
0
 62
256
370
-1
  6
ByLayer
 10
134.18003680555546
 20
45.4875083333338139
 30
0.0
 11
131.3126590277777836
 21
39.7527416666671627
 31
0.0
  0
LINE
  5
8D
100
AcDbEntity
100
AcDbLine
  8
0
 62
256
370
-1
  6
ByLayer
 10
131.3126590277777836
 20
39.7527416666671627
 30
0.0
 11
128.4452701388888727
 21
36.8853638888893869
 31
0.0
  0
LINE
  5
8E
100
AcDbEntity
100
AcDbLine
  8
0
 62
256
370
-1
  6
ByLayer
 10
128.4452701388888727
 20
36.8853638888893869
 30
0.0
 11
119.8431256944444527
 21
34.0179750000004972
 31
0.0
  0
LINE
  5
8F
100
AcDbEntity
100
AcDbLine
  8
0
 62
256
370
-1
  6
ByLayer
 10
119.8431256944444527
 20
34.0179750000004972
 30
0.0
 11
108.373592361111136
 21
34.0179750000004972
 31
0.0
  0
LINE
  5
90
100
AcDbEntity
100
AcDbLine
  8
0
 62
256
370
-1
  6
ByLayer
 10
122.7105034722221291
 20
59.8244305555560558
 30
0.0
 11
128.4452701388888727
 21
56.9570416666671591
 31
0.0
  0
LINE
  5
91
100
AcDbEntity
100
AcDbLine
  8
0
 62
256
370
-1
  6
ByLayer
 10
128.4452701388888727
 20
56.9570416666671591
 30
0.0
 11
131.3126590277777836
 21
51.2222750000004794
 31
0.0
  0
LINE
  5
92
100
AcDbEntity
100
AcDbLine
  8
0
 62
256
370
-1
  6
ByLayer
 10
131.3126590277777836
 20
51.2222750000004794
 30
0.0
 11
131.3126590277777836
 21
45.4875083333338139
 31
0.0
  0
LINE
  5
93
100
AcDbEntity
100
AcDbLine
  8
0
 62
256
370
-1
  6
ByLayer
 10
131.3126590277777836
 20
45.4875083333338139
 30
0.0
 11
128.4452701388888727
 21
39.7527416666671556
 31
0.0
  0
LINE
  5
94
100
AcDbEntity
100
AcDbLine
  8
0
 62
256
370
-1
  6
ByLayer
 10
128.4452701388888727
 20
39.7527416666671556
 30
0.0
 11
125.57789236111104
 21
36.8853638888893869
 31
0.0
  0
LINE
  5
95
100
AcDbEntity
100
AcDbLine
  8
0
 62
256
370
-1
  6
ByLayer
 10
125.57789236111104
 20
36.8853638888893869
 30
0.0
 11
119.8431256944444527
 21
34.0179750000004972
 31
0.0
  0
LINE
  5
96
100
AcDbEntity
100
AcDbLine
  8
0
 62
256
370
-1
  6
ByLayer
 10
108.373592361111136
 20
34.0179750000004972
 30
0.0
 11
116.9757368055555418
 21
31.1505972222227143
 31
0.0
  0
LINE
  5
97
100
AcDbEntity
100
AcDbLine
  8
0
 62
256
370
-1
  6
ByLayer
 10
116.9757368055555418
 20
31.1505972222227143
 30
0.0
 11
119.8431256944444527
 21
25.4158305555560595
 31
0.0
  0
LINE
  5
98
100
AcDbEntity
100
AcDbLine
  8
0
 62
256
370
-1
  6
ByLayer
 10
119.8431256944444527
 20
25.4158305555560595
 30
0.0
 11
122.7105034722221291
 21
5.3441416666671655
 31
0.0
  0
LINE
  5
99
100
AcDbEntity
100
AcDbLine
  8
0
 62
256
370
-1
  6
ByLayer
 10
122.7105034722221291
 20
5.3441416666671655
 30
0.0
 11
125.57789236111104
 21
-0.3906249999995026
 31
0.0
  0
LINE
  5
9A
100
AcDbEntity
100
AcDbLine
  8
0
 62
256
370
-1
  6
ByLayer
 10
108.373592361111136
 20
34.0179750000004972
 30
0.0
 11
114.1083590277777091
 21
31.1505972222227179
 31
0.0
  0
LINE
  5
9B
100
AcDbEntity
100
AcDbLine
  8
0
 62
256
370
-1
  6
ByLayer
 10
114.1083590277777091
 20
31.1505972222227179
 30
0.0
 11
116.9757368055555418
 21
25.4158305555560524
 31
0.0
  0
LINE
  5
9C
100
AcDbEntity
100
AcDbLine
  8
0
 62
256
370
-1
  6
ByLayer
 10
116.9757368055555418
 20
25.4158305555560524
 30
0.0
 11
119.8431256944444527
 21
5.3441416666671806
 31
0.0
  0
LINE
  5
9D
100
AcDbEntity
100
AcDbLine
  8
0
 62
256
370
-1
  6
ByLayer
 10
119.8431256944444527
 20
5.3441416666671806
 30
0.0
 11
125.57789236111104
 21
-0.3906249999995026
 31
0.0
  0
LINE
  5
9E
100
AcDbEntity
100
AcDbLine
  8
0
 62
256
370
-1
  6
ByLayer
 10
125.57789236111104
 20
-0.3906249999995026
 30
0.0
 11
128.4452701388888727
 21
-0.3906249999995026
 31
0.0
  0
LINE
  5
9F
100
AcDbEntity
100
AcDbLine
  8
0
 62
256
370
-1
  6
ByLayer
 10
128.4452701388888727
 20
-0.3906249999995026
 30
0.0
 11
134.18003680555546
 21
2.4767638888893697
 31
0.0
  0
LINE
  5
A0
100
AcDbEntity
100
AcDbLine
  8
0
 62
256
370
-1
  6
ByLayer
 10
134.18003680555546
 20
2.4767638888893697
 30
0.0
 11
139.9148034722221894
 21
8.2115305555560365
 31
0.0
  0
LINE
  5
A1
100
AcDbEntity
100
AcDbLine
  8
0
 62
256
370
-1
  6
ByLayer
 10
213.3915034722220128
 20
54.0896638888892909
 30
0.0
 11
207.656736805555596
 21
45.4875083333337216
 31
0.0
  0
LINE
  5
A2
100
AcDbEntity
100
AcDbLine
  8
0
 62
256
370
-1
  6
ByLayer
 10
207.656736805555596
 20
45.4875083333337216
 30
0.0
 11
201.9219701388888666
 21
31.150597222222622
 31
0.0
  0
LINE
  5
A3
100
AcDbEntity
100
AcDbLine
  8
0
 62
256
370
-1
  6
ByLayer
 10
201.9219701388888666
 20
31.150597222222622
 30
0.0
 11
196.1872034722221088
 21
16.8136750000003978
 31
0.0
  0
LINE
  5
A4
100
AcDbEntity
100
AcDbLine
  8
0
 62
256
370
-1
  6
ByLayer
 10
196.1872034722221088
 20
16.8136750000003978
 30
0.0
 11
193.3198256944444324
 21
11.0789083333337306
 31
0.0
  0
LINE
  5
A5
100
AcDbEntity
100
AcDbLine
  8
0
 62
256
370
-1
  6
ByLayer
 10
193.3198256944444324
 20
11.0789083333337306
 30
0.0
 11
187.585059027777703
 21
2.4767638888892929
 31
0.0
  0
LINE
  5
A6
100
AcDbEntity
100
AcDbLine
  8
0
 62
256
370
-1
  6
ByLayer
 10
187.585059027777703
 20
2.4767638888892929
 30
0.0
 11
181.8502923611109736
 21
-0.3906249999996021
 31
0.0
  0
LINE
  5
A7
100
AcDbEntity
100
AcDbLine
  8
0
 62
256
370
-1
  6
ByLayer
 10
219.1262701388887422
 20
42.62013055555596
 30
0.0
 11
213.3915034722220128
 21
36.8853638888892874
 31
0.0
  0
LINE
  5
A8
100
AcDbEntity
100
AcDbLine
  8
0
 62
256
370
-1
  6
ByLayer
 10
213.3915034722220128
 20
36.8853638888892874
 30
0.0
 11
204.789359027777607
 21
34.0179750000003978
 31
0.0
  0
LINE
  5
A9
100
AcDbEntity
100
AcDbLine
  8
0
 62
256
370
-1
  6
ByLayer
 10
204.789359027777607
 20
34.0179750000003978
 30
0.0
 11
196.1872034722221088
 21
34.0179750000003978
 31
0.0
  0
LINE
  5
AA
100
AcDbEntity
100
AcDbLine
  8
0
 62
256
370
-1
  6
ByLayer
 10
196.1872034722221088
 20
34.0179750000003978
 30
0.0
 11
190.4524368055553794
 21
36.8853638888892874
 31
0.0
  0
LINE
  5
AB
100
AcDbEntity
100
AcDbLine
  8
0
 62
256
370
-1
  6
ByLayer
 10
190.4524368055553794
 20
36.8853638888892874
 30
0.0
 11
187.585059027777703
 21
42.6201305555559529
 31
0.0
  0
LINE
  5
AC
100
AcDbEntity
100
AcDbLine
  8
0
 62
256
370
-1
  6
ByLayer
 10
187.585059027777703
 20
42.6201305555559529
 30
0.0
 11
187.585059027777703
 21
48.3548972222226112
 31
0.0
  0
LINE
  5
AD
100
AcDbEntity
100
AcDbLine
  8
0
 62
256
370
-1
  6
ByLayer
 10
187.585059027777703
 20
48.3548972222226112
 30
0.0
 11
190.4524368055553794
 21
54.0896638888892838
 31
0.0
  0
LINE
  5
AE
100
AcDbEntity
100
AcDbLine
  8
0
 62
256
370
-1
  6
ByLayer
 10
190.4524368055553794
 20
54.0896638888892838
 30
0.0
 11
196.1872034722221088
 21
56.9570416666670738
 31
0.0
  0
LINE
  5
AF
100
AcDbEntity
100
AcDbLine
  8
0
 62
256
370
-1
  6
ByLayer
 10
196.1872034722221088
 20
56.9570416666670738
 30
0.0
 11
207.656736805555596
 21
59.8244305555559492
 31
0.0
  0
LINE
  5
B0
100
AcDbEntity
100
AcDbLine
  8
0
 62
256
370
-1
  6
ByLayer
 10
207.656736805555596
 20
59.8244305555559492
 30
0.0
 11
219.1262701388887422
 21
59.8244305555559563
 31
0.0
  0
LINE
  5
B1
100
AcDbEntity
100
AcDbLine
  8
0
 62
256
370
-1
  6
ByLayer
 10
219.1262701388887422
 20
59.8244305555559563
 30
0.0
 11
213.3915034722220128
 21
54.0896638888892909
 31
0.0
  0
LINE
  5
B2
100
AcDbEntity
100
AcDbLine
  8
0
 62
256
370
-1
  6
ByLayer
 10
213.3915034722220128
 20
54.0896638888892909
 30
0.0
 11
210.5241256944443364
 21
48.3548972222226254
 31
0.0
  0
LINE
  5
B3
100
AcDbEntity
100
AcDbLine
  8
0
 62
256
370
-1
  6
ByLayer
 10
210.5241256944443364
 20
48.3548972222226254
 30
0.0
 11
204.789359027777607
 21
31.1505972222226113
 31
0.0
  0
LINE
  5
B4
100
AcDbEntity
100
AcDbLine
  8
0
 62
256
370
-1
  6
ByLayer
 10
204.789359027777607
 20
31.1505972222226113
 30
0.0
 11
199.0545923611111903
 21
13.9462972222226238
 31
0.0
  0
LINE
  5
B5
100
AcDbEntity
100
AcDbLine
  8
0
 62
256
370
-1
  6
ByLayer
 10
199.0545923611111903
 20
13.9462972222226238
 30
0.0
 11
196.1872034722221088
 21
8.2115305555559548
 31
0.0
  0
LINE
  5
B6
100
AcDbEntity
100
AcDbLine
  8
0
 62
256
370
-1
  6
ByLayer
 10
196.1872034722221088
 20
8.2115305555559548
 30
0.0
 11
190.4524368055553794
 21
2.4767638888892733
 31
0.0
  0
LINE
  5
B7
100
AcDbEntity
100
AcDbLine
  8
0
 62
256
370
-1
  6
ByLayer
 10
190.4524368055553794
 20
2.4767638888892733
 30
0.0
 11
181.8502923611109736
 21
-0.3906249999996021
 31
0.0
  0
LINE
  5
B8
100
AcDbEntity
100
AcDbLine
  8
0
 62
256
370
-1
  6
ByLayer
 10
181.8502923611109736
 20
-0.3906249999996021
 30
0.0
 11
176.1155256944442158
 21
-0.3906249999996021
 31
0.0
  0
LINE
  5
B9
100
AcDbEntity
100
AcDbLine
  8
0
 62
256
370
-1
  6
ByLayer
 10
176.1155256944442158
 20
-0.3906249999996021
 30
0.0
 11
173.2481368055554753
 21
2.4767638888892867
 31
0.0
  0
LINE
  5
BA
100
AcDbEntity
100
AcDbLine
  8
0
 62
256
370
-1
  6
ByLayer
 10
173.2481368055554753
 20
2.4767638888892867
 30
0.0
 11
173.2481368055554753
 21
8.211530555555953
 31
0.0
  0
LINE
  5
BB
100
AcDbEntity
100
AcDbLine
  8
0
 62
256
370
-1
  6
ByLayer
 10
173.2481368055554753
 20
8.211530555555953
 30
0.0
 11
176.1155256944442158
 21
11.0789083333337288
 31
0.0
  0
LINE
  5
BC
100
AcDbEntity
100
AcDbLine
  8
0
 62
256
370
-1
  6
ByLayer
 10
176.1155256944442158
 20
11.0789083333337288
 30
0.0
 11
178.9829034722222048
 21
8.2115305555559548
 31
0.0
  0
LINE
  5
BD
100
AcDbEntity
100
AcDbLine
  8
0
 62
256
370
-1
  6
ByLayer
 10
178.9829034722222048
 20
8.2115305555559548
 30
0.0
 11
176.1155256944442158
 21
5.3441416666670625
 31
0.0
  0
LINE
  5
BE
100
AcDbEntity
100
AcDbLine
  8
0
 62
256
370
-1
  6
ByLayer
 10
289.7355923611110029
 20
59.8244305555559066
 30
0.0
 11
286.8682034722222625
 21
48.3548972222225615
 31
0.0
  0
LINE
  5
BF
100
AcDbEntity
100
AcDbLine
  8
0
 62
256
370
-1
  6
ByLayer
 10
286.8682034722222625
 20
48.3548972222225615
 30
0.0
 11
281.1334368055555046
 21
31.1505972222225616
 31
0.0
  0
LINE
  5
C0
100
AcDbEntity
100
AcDbLine
  8
0
 62
256
370
-1
  6
ByLayer
 10
281.1334368055555046
 20
31.1505972222225616
 30
0.0
 11
275.3986701388888036
 21
16.8136750000003339
 31
0.0
  0
LINE
  5
C1
100
AcDbEntity
100
AcDbLine
  8
0
 62
256
370
-1
  6
ByLayer
 10
275.3986701388888036
 20
16.8136750000003339
 30
0.0
 11
272.5312923611111273
 21
11.0789083333336773
 31
0.0
  0
LINE
  5
C2
100
AcDbEntity
100
AcDbLine
  8
0
 62
256
370
-1
  6
ByLayer
 10
272.5312923611111273
 20
11.0789083333336773
 30
0.0
 11
266.7965256944443695
 21
2.476763888889236
 31
0.0
  0
LINE
  5
C3
100
AcDbEntity
100
AcDbLine
  8
0
 62
256
370
-1
  6
ByLayer
 10
266.7965256944443695
 20
2.476763888889236
 30
0.0
 11
261.0617590277776117
 21
-0.3906249999996589
 31
0.0
  0
LINE
  5
C4
100
AcDbEntity
100
AcDbLine
  8
0
 62
256
370
-1
  6
ByLayer
 10
261.0617590277776117
 20
-0.3906249999996589
 30
0.0
 11
255.3269923611108823
 21
-0.3906249999996589
 31
0.0
  0
LINE
  5
C5
100
AcDbEntity
100
AcDbLine
  8
0
 62
256
370
-1
  6
ByLayer
 10
255.3269923611108823
 20
-0.3906249999996589
 30
0.0
 11
252.4596034722221418
 21
2.4767638888892298
 31
0.0
  0
LINE
  5
C6
100
AcDbEntity
100
AcDbLine
  8
0
 62
256
370
-1
  6
ByLayer
 10
252.4596034722221418
 20
2.4767638888892298
 30
0.0
 11
252.4596034722221418
 21
8.2115305555558962
 31
0.0
  0
LINE
  5
C7
100
AcDbEntity
100
AcDbLine
  8
0
 62
256
370
-1
  6
ByLayer
 10
252.4596034722221418
 20
8.2115305555558962
 30
0.0
 11
255.3269923611108823
 21
11.078908333333672
 31
0.0
  0
LINE
  5
C8
100
AcDbEntity
100
AcDbLine
  8
0
 62
256
370
-1
  6
ByLayer
 10
255.3269923611108823
 20
11.078908333333672
 30
0.0
 11
258.1943701388888712
 21
8.2115305555558979
 31
0.0
  0
LINE
  5
C9
100
AcDbEntity
100
AcDbLine
  8
0
 62
256
370
-1
  6
ByLayer
 10
258.1943701388888712
 20
8.2115305555558979
 30
0.0
 11
255.3269923611108823
 21
5.3441416666670056
 31
0.0
  0
LINE
  5
CA
100
AcDbEntity
100
AcDbLine
  8
0
 62
256
370
-1
  6
ByLayer
 10
289.7355923611110029
 20
59.8244305555559066
 30
0.0
 11
289.7355923611110029
 21
45.4875083333336647
 31
0.0
  0
LINE
  5
CB
100
AcDbEntity
100
AcDbLine
  8
0
 62
256
370
-1
  6
ByLayer
 10
289.7355923611110029
 20
45.4875083333336647
 30
0.0
 11
292.6029701388886792
 21
13.9462972222225634
 31
0.0
  0
LINE
  5
CC
100
AcDbEntity
100
AcDbLine
  8
0
 62
256
370
-1
  6
ByLayer
 10
292.6029701388886792
 20
13.9462972222225634
 30
0.0
 11
295.4703590277774197
 21
-0.3906249999996589
 31
0.0
  0
LINE
  5
CD
100
AcDbEntity
100
AcDbLine
  8
0
 62
256
370
-1
  6
ByLayer
 10
289.7355923611110029
 20
59.8244305555559066
 30
0.0
 11
292.6029701388886792
 21
45.4875083333336576
 31
0.0
  0
LINE
  5
CE
100
AcDbEntity
100
AcDbLine
  8
0
 62
256
370
-1
  6
ByLayer
 10
292.6029701388886792
 20
45.4875083333336576
 30
0.0
 11
295.4703590277774197
 21
13.9462972222225616
 31
0.0
  0
LINE
  5
CF
100
AcDbEntity
100
AcDbLine
  8
0
 62
256
370
-1
  6
ByLayer
 10
295.4703590277774197
 20
13.9462972222225616
 30
0.0
 11
295.4703590277774197
 21
-0.3906249999996589
 31
0.0
  0
LINE
  5
D0
100
AcDbEntity
100
AcDbLine
  8
0
 62
256
370
-1
  6
ByLayer
 10
329.878959027777853
 20
56.9570416666670027
 30
0.0
 11
327.0115701388891125
 21
54.0896638888892412
 31
0.0
  0
LINE
  5
D1
100
AcDbEntity
100
AcDbLine
  8
0
 62
256
370
-1
  6
ByLayer
 10
327.0115701388891125
 20
54.0896638888892412
 30
0.0
 11
329.878959027777853
 21
51.2222750000003373
 31
0.0
  0
LINE
  5
D2
100
AcDbEntity
100
AcDbLine
  8
0
 62
256
370
-1
  6
ByLayer
 10
329.878959027777853
 20
51.2222750000003373
 30
0.0
 11
332.7463368055555293
 21
54.0896638888892198
 31
0.0
  0
LINE
  5
D3
100
AcDbEntity
100
AcDbLine
  8
0
 62
256
370
-1
  6
ByLayer
 10
332.7463368055555293
 20
54.0896638888892198
 30
0.0
 11
332.7463368055555293
 21
56.957041666667017
 31
0.0
  0
LINE
  5
D4
100
AcDbEntity
100
AcDbLine
  8
0
 62
256
370
-1
  6
ByLayer
 10
332.7463368055555293
 20
56.957041666667017
 30
0.0
 11
329.878959027777853
 21
59.8244305555558924
 31
0.0
  0
LINE
  5
D5
100
AcDbEntity
100
AcDbLine
  8
0
 62
256
370
-1
  6
ByLayer
 10
329.878959027777853
 20
59.8244305555558924
 30
0.0
 11
324.1441923611108109
 21
59.8244305555559066
 31
0.0
  0
LINE
  5
D6
100
AcDbEntity
100
AcDbLine
  8
0
 62
256
370
-1
  6
ByLayer
 10
324.1441923611108109
 20
59.8244305555559066
 30
0.0
 11
318.4094256944443941
 21
56.9570416666670098
 31
0.0
  0
LINE
  5
D7
100
AcDbEntity
100
AcDbLine
  8
0
 62
256
370
-1
  6
ByLayer
 10
318.4094256944443941
 20
56.9570416666670098
 30
0.0
 11
312.6746590277779774
 21
48.3548972222225686
 31
0.0
  0
LINE
  5
D8
100
AcDbEntity
100
AcDbLine
  8
0
 62
256
370
-1
  6
ByLayer
 10
312.6746590277779774
 20
48.3548972222225686
 30
0.0
 11
309.8072701388886117
 21
42.620130555555896
 31
0.0
  0
LINE
  5
D9
100
AcDbEntity
100
AcDbLine
  8
0
 62
256
370
-1
  6
ByLayer
 10
309.8072701388886117
 20
42.620130555555896
 30
0.0
 11
304.072503472222138
 21
28.283208333333679
 31
0.0
  0
LINE
  5
DA
100
AcDbEntity
100
AcDbLine
  8
0
 62
256
370
-1
  6
ByLayer
 10
304.072503472222138
 20
28.283208333333679
 30
0.0
 11
298.3377368055557213
 21
11.078908333333672
 31
0.0
  0
LINE
  5
DB
100
AcDbEntity
100
AcDbLine
  8
0
 62
256
370
-1
  6
ByLayer
 10
298.3377368055557213
 20
11.078908333333672
 30
0.0
 11
295.4703590277774197
 21
-0.3906249999996589
 31
0.0
  0
ENDSEC
  0
SECTION
  2
OBJECTS
  0
DICTIONARY
  5
C
100
AcDbDictionary
280
0
281
1
  3
ACAD_GROUP
350
D
  3
ACAD_LAYOUT
350
1A
  3
ACAD_MLINESTYLE
350
17
  3
ACAD_PLOTSETTINGS
350
19
  3
ACAD_PLOTSTYLENAME
350
E
  3
AcDbVariableDictionary
350
DC
  0
DICTIONARY
  5
D
100
AcDbDictionary
280
0
281
1
  0
ACDBDICTIONARYWDFLT
  5
E
100
AcDbDictionary
281
1
  3
Normal
350
F
100
AcDbDictionaryWithDefault
340
F
  0
ACDBPLACEHOLDER
  5
F
  0
DICTIONARY
  5
17
100
AcDbDictionary
280
0
281
1
  3
Standard
350
18
  0
MLINESTYLE
  5
18
100
AcDbMlineStyle
  2
STANDARD
 70
0
  3

 62
256
 51
90.0
 52
90.0
 71
2
 49
0.5
 62
256
  6
BYLAYER
 49
-0.5
 62
256
  6
BYLAYER
  0
DICTIONARY
  5
19
100
AcDbDictionary
280
0
281
1
  0
DICTIONARY
  5
1A
100
AcDbDictionary
281
1
  3
Layout1
350
1E
  3
Layout2
350
26
  3
Model
350
22
  0
LAYOUT
  5
1E
100
AcDbPlotSettings
  1

  2
C:\Program Files\AutoCAD 2002\plotters\DWF ePlot (optimized for plotting).pc3
  4

  6

 40
0.0
 41
0.0
 42
0.0
 43
0.0
 44
0.0
 45
0.0
 46
0.0
 47
0.0
 48
0.0
 49
0.0
140
0.0
141
0.0
142
1.0
143
1.0
 70
688
 72
0
 73
0
 74
5
  7

 75
16
147
1.0
148
0.0
149
0.0
100
AcDbLayout
  1
Layout1
 70
1
 71
1
 10
0.0
 20
0.0
 11
420.0
 21
297.0
 12
0.0
 22
0.0
 32
0.0
 14
100000000000000000000.0
 24
100000000000000000000.0
 34
100000000000000000000.0
 15
-100000000000000000000.0
 25
-100000000000000000000.0
 35
-100000000000000000000.0
146
0.0
 13
0.0
 23
0.0
 33
0.0
 16
1.0
 26
0.0
 36
0.0
 17
0.0
 27
1.0
 37
0.0
 76
0
330
1B
  0
LAYOUT
  5
22
100
AcDbPlotSettings
  1

  2
C:\Program Files\AutoCAD 2002\plotters\DWF ePlot (optimized for plotting).pc3
  4

  6

 40
0.0
 41
0.0
 42
0.0
 43
0.0
 44
0.0
 45
0.0
 46
0.0
 47
0.0
 48
0.0
 49
0.0
140
0.0
141
0.0
142
1.0
143
1.0
 70
1712
 72
0
 73
0
 74
0
  7

 75
0
147
1.0
148
0.0
149
0.0
100
AcDbLayout
  1
Model
 70
1
 71
0
 10
0.0
 20
0.0
 11
12.0
 21
9.0
 12
0.0
 22
0.0
 32
0.0
 14
0.0
 24
0.0
 34
0.0
 15
0.0
 25
0.0
 35
0.0
146
0.0
 13
0.0
 23
0.0
 33
0.0
 16
1.0
 26
0.0
 36
0.0
 17
0.0
 27
1.0
 37
0.0
 76
0
330
1F
  0
LAYOUT
  5
26
100
AcDbPlotSettings
  1

  2
C:\Program Files\AutoCAD 2002\plotters\DWF ePlot (optimized for plotting).pc3
  4

  6

 40
0.0
 41
0.0
 42
0.0
 43
0.0
 44
0.0
 45
0.0
 46
0.0
 47
0.0
 48
0.0
 49
0.0
140
0.0
141
0.0
142
1.0
143
1.0
 70
688
 72
0
 73
0
 74
5
  7

 75
16
147
1.0
148
0.0
149
0.0
100
AcDbLayout
  1
Layout2
 70
1
 71
2
 10
0.0
 20
0.0
 11
12.0
 21
9.0
 12
0.0
 22
0.0
 32
0.0
 14
0.0
 24
0.0
 34
0.0
 15
0.0
 25
0.0
 35
0.0
146
0.0
 13
0.0
 23
0.0
 33
0.0
 16
1.0
 26
0.0
 36
0.0
 17
0.0
 27
1.0
 37
0.0
 76
0
330
23
  0
DICTIONARY
  5
DC
100
AcDbDictionary
281
1
  3
DIMASSOC
350
DE
  3
HIDETEXT
350
DD
  0
DICTIONARYVAR
  5
DD
100
DictionaryVariables
280
0
  1
2
  0
DICTIONARYVAR
  5
DE
100
DictionaryVariables
280
0
  1
1
  0
ENDSEC
  0
EOF
