  0
SECTION
  2
HEADER
  9
$ACADVER
  1
AC1009
  9
$INSBASE
 10
0.0
 20
0.0
 30
0.0
  9
$EXTMIN
 10
-63.79319143105711
 20
-46.360906766038731
 30
0.0
  9
$EXTMAX
 10
167.73039877957871
 20
87.613120115726716
 30
0.0
  9
$LIMMIN
 10
0.0
 20
0.0
  9
$LIMMAX
 10
420.0
 20
297.0
  9
$ORTHOMODE
 70
     0
  9
$REGENMODE
 70
     1
  9
$FILLMODE
 70
     1
  9
$QTEXTMODE
 70
     0
  9
$MIRRTEXT
 70
     1
  9
$DRAGMODE
 70
     2
  9
$LTSCALE
 40
1.0
  9
$OSMODE
 70
  3071
  9
$ATTMODE
 70
     1
  9
$TEXTSIZE
 40
98.515219965897359
  9
$TRACEWID
 40
1.0
  9
$TEXTSTYLE
  7
STANDARD
  9
$CLAYER
  8
BEMAßUNG
  9
$CELTYPE
  6
BYLAYER
  9
$CECOLOR
 62
   256
  9
$DIMSCALE
 40
1.0
  9
$DIMASZ
 40
3.5
  9
$DIMEXO
 40
0.625
  9
$DIMDLI
 40
3.75
  9
$DIMRND
 40
0.0
  9
$DIMDLE
 40
0.0
  9
$DIMEXE
 40
1.25
  9
$DIMTP
 40
0.0
  9
$DIMTM
 40
0.0
  9
$DIMTXT
 40
5.0
  9
$DIMCEN
 40
2.5
  9
$DIMTSZ
 40
0.0
  9
$DIMTOL
 70
     0
  9
$DIMLIM
 70
     0
  9
$DIMTIH
 70
     0
  9
$DIMTOH
 70
     0
  9
$DIMSE1
 70
     0
  9
$DIMSE2
 70
     0
  9
$DIMTAD
 70
     1
  9
$DIMZIN
 70
     8
  9
$DIMBLK
  1

  9
$DIMASO
 70
     1
  9
$DIMSHO
 70
     1
  9
$DIMPOST
  1

  9
$DIMAPOST
  1

  9
$DIMALT
 70
     0
  9
$DIMALTD
 70
     3
  9
$DIMALTF
 40
0.03937007874016
  9
$DIMLFAC
 40
1.0
  9
$DIMTOFL
 70
     1
  9
$DIMTVP
 40
0.0
  9
$DIMTIX
 70
     0
  9
$DIMSOXD
 70
     0
  9
$DIMSAH
 70
     0
  9
$DIMBLK1
  1

  9
$DIMBLK2
  1

  9
$DIMSTYLE
  2
ISO-25
  9
$DIMCLRD
 70
     0
  9
$DIMCLRE
 70
     0
  9
$DIMCLRT
 70
     0
  9
$DIMTFAC
 40
1.0
  9
$DIMGAP
 40
0.625
  9
$LUNITS
 70
     2
  9
$LUPREC
 70
     4
  9
$SKETCHINC
 40
1.0
  9
$FILLETRAD
 40
20.0
  9
$AUNITS
 70
     0
  9
$AUPREC
 70
     0
  9
$MENU
  1
.
  9
$ELEVATION
 40
0.0
  9
$PELEVATION
 40
0.0
  9
$THICKNESS
 40
0.0
  9
$LIMCHECK
 70
     0
  9
$BLIPMODE
 70
     0
  9
$CHAMFERA
 40
10.0
  9
$CHAMFERB
 40
10.0
  9
$SKPOLY
 70
     0
  9
$TDCREATE
 40
2454806.5922745951
  9
$TDUPDATE
 40
2454807.501761239
  9
$TDINDWG
 40
0.0765578588
  9
$TDUSRTIMER
 40
0.0765577431
  9
$USRTIMER
 70
     1
  9
$ANGBASE
 50
0.0
  9
$ANGDIR
 70
     0
  9
$PDMODE
 70
     0
  9
$PDSIZE
 40
0.0
  9
$PLINEWID
 40
0.0
  9
$COORDS
 70
     1
  9
$SPLFRAME
 70
     0
  9
$SPLINETYPE
 70
     6
  9
$SPLINESEGS
 70
     8
  9
$ATTDIA
 70
     0
  9
$ATTREQ
 70
     1
  9
$HANDLING
 70
     1
  9
$HANDSEED
  5
AF1
  9
$SURFTAB1
 70
     6
  9
$SURFTAB2
 70
     6
  9
$SURFTYPE
 70
     6
  9
$SURFU
 70
     6
  9
$SURFV
 70
     6
  9
$UCSNAME
  2

  9
$UCSORG
 10
0.0
 20
0.0
 30
0.0
  9
$UCSXDIR
 10
1.0
 20
0.0
 30
0.0
  9
$UCSYDIR
 10
0.0
 20
1.0
 30
0.0
  9
$PUCSNAME
  2

  9
$PUCSORG
 10
0.0
 20
0.0
 30
0.0
  9
$PUCSXDIR
 10
1.0
 20
0.0
 30
0.0
  9
$PUCSYDIR
 10
0.0
 20
1.0
 30
0.0
  9
$USERI1
 70
     0
  9
$USERI2
 70
     0
  9
$USERI3
 70
     0
  9
$USERI4
 70
     0
  9
$USERI5
 70
     0
  9
$USERR1
 40
0.0
  9
$USERR2
 40
0.0
  9
$USERR3
 40
0.0
  9
$USERR4
 40
0.0
  9
$USERR5
 40
0.0
  9
$WORLDVIEW
 70
     1
  9
$SHADEDGE
 70
     3
  9
$SHADEDIF
 70
    70
  9
$TILEMODE
 70
     1
  9
$MAXACTVP
 70
    64
  9
$PLIMCHECK
 70
     0
  9
$PEXTMIN
 10
1.0000000000000000E+020
 20
1.0000000000000000E+020
 30
1.0000000000000000E+020
  9
$PEXTMAX
 10
-1.0000000000000000E+020
 20
-1.0000000000000000E+020
 30
-1.0000000000000000E+020
  9
$PLIMMIN
 10
0.0
 20
0.0
  9
$PLIMMAX
 10
420.0
 20
297.0
  9
$UNITMODE
 70
     0
  9
$VISRETAIN
 70
     1
  9
$PLINEGEN
 70
     0
  9
$PSLTSCALE
 70
     1
  0
ENDSEC
  0
SECTION
  2
TABLES
  0
TABLE
  2
VPORT
 70
     3
  0
VPORT
  2
*ACTIVE
 70
     0
 10
0.0
 20
0.0
 11
1.0
 21
1.0
 12
65.917233119638922
 22
17.67769933196838
 13
0.0
 23
0.0
 14
10.0
 24
10.0
 15
10.0
 25
10.0
 16
0.0
 26
0.0
 36
1.0
 17
0.0
 27
0.0
 37
0.0
 40
174.6135007444646
 41
1.8014925373134321
 42
50.0
 43
0.0
 44
0.0
 50
0.0
 51
0.0
 71
     0
 72
   100
 73
     1
 74
     3
 75
     0
 76
     0
 77
     0
 78
     0
  0
ENDTAB
  0
TABLE
  2
LTYPE
 70
     3
  0
LTYPE
  2
CONTINUOUS
 70
     0
  3
Solid line
 72
    65
 73
     0
 40
0.0
  0
LTYPE
  2
MITTE2
 70
     0
  3
Mitte (.5x) ___ _ ___ _ ___ _ ___ _ ___ _ ___
 72
    65
 73
     4
 40
28.574999999999999
 49
19.050000000000001
 49
-3.1749999999999989
 49
3.1749999999999989
 49
-3.1749999999999989
  0
LTYPE
  2
STRICHLINIE2
 70
     0
  3
Strichlinie (.5x) _ _ _ _ _ _ _ _ _ _ _ _ _ _ _
 72
    65
 73
     2
 40
9.5249999999999986
 49
6.3499999999999988
 49
-3.1749999999999989
  0
ENDTAB
  0
TABLE
  2
LAYER
 70
     6
  0
LAYER
  2
0
 70
     0
 62
     7
  6
CONTINUOUS
  0
LAYER
  2
ZEICHNUNG
 70
     0
 62
     7
  6
CONTINUOUS
  0
LAYER
  2
BEMAßUNG
 70
     0
 62
   255
  6
MITTE2
  0
LAYER
  2
FRAESBAHN_6MM
 70
     0
 62
     1
  6
CONTINUOUS
  0
LAYER
  2
WERKSTÜCK
 70
     0
 62
     2
  6
CONTINUOUS
  0
LAYER
  2
DEFPOINTS
 70
     0
 62
     7
  6
CONTINUOUS
  0
ENDTAB
  0
TABLE
  2
STYLE
 70
     2
  0
STYLE
  2
STANDARD
 70
     0
 40
0.0
 41
1.0
 50
0.0
 71
     0
 42
98.515219965897359
  3
txt
  4

  0
STYLE
  2

 70
     1
 40
0.0
 41
1.0
 50
0.0
 71
     0
 42
2.5
  3
ltypeshp.shx
  4

  0
ENDTAB
  0
TABLE
  2
VIEW
 70
     0
  0
ENDTAB
  0
TABLE
  2
UCS
 70
     0
  0
ENDTAB
  0
TABLE
  2
APPID
 70
     2
  0
APPID
  2
ACAD
 70
     0
  0
APPID
  2
ACAECLAYERSTANDARD
 70
     0
  0
ENDTAB
  0
TABLE
  2
DIMSTYLE
 70
     1
  0
DIMSTYLE
  2
ISO-25
 70
     0
  3

  4

  5

  6

  7

 40
1.0
 41
3.5
 42
0.625
 43
3.75
 44
1.25
 45
0.0
 46
0.0
 47
0.0
 48
0.0
140
5.0
141
2.5
142
0.0
143
0.03937007874016
144
1.0
145
0.0
146
1.0
147
0.625
 71
     0
 72
     0
 73
     0
 74
     0
 75
     0
 76
     0
 77
     1
 78
     8
170
     0
171
     3
172
     1
173
     0
174
     0
175
     0
176
     0
177
     0
178
     0
  0
ENDTAB
  0
ENDSEC
  0
SECTION
  2
BLOCKS
  0
BLOCK
  8
0
  2
$MODEL_SPACE
 70
     0
 10
0.0
 20
0.0
 30
0.0
  3
$MODEL_SPACE
  1

  0
ENDBLK
  5
21
  8
0
  0
BLOCK
 67
     1
  8
0
  2
$PAPER_SPACE
 70
     0
 10
0.0
 20
0.0
 30
0.0
  3
$PAPER_SPACE
  1

  0
ENDBLK
  5
1D
 67
     1
  8
0
  0
BLOCK
  8
0
  2
*D1
 70
     1
 10
0.0
 20
0.0
 30
0.0
  3
*D1
  1

  0
LINE
  5
3CD
  8
BEMAßUNG
 62
     0
 10
-46.139118541557927
 20
30.460654961169698
 30
0.0
 11
-31.643051340054189
 21
10.51588161845196
 31
0.0
  0
LINE
  5
3CE
  8
BEMAßUNG
 62
     0
 10
-16.356948659945701
 20
-10.51588161845187
 30
0.0
 11
-14.29920406839263
 21
-13.34708051572739
 31
0.0
  0
INSERT
  5
3CF
  8
BEMAßUNG
  2
*U13
 10
0.0
 20
0.0
 30
0.0
  0
LINE
  5
3D0
  8
BEMAßUNG
 62
     0
 10
-18.414693251498761
 20
-7.6846827211763582
 30
0.0
 11
-29.585306748501129
 21
7.6846827211764426
 31
0.0
  0
SOLID
  5
3D1
  8
BEMAßUNG
 62
     0
 10
-15.88508217706644
 20
-10.172924186526361
 30
0.0
 11
-16.828815142824951
 21
-10.85883905037738
 31
0.0
 12
-18.414693251498761
 22
-7.6846827211763582
 32
0.0
 13
-18.414693251498761
 23
-7.6846827211763582
 33
0.0
  0
SOLID
  5
3D2
  8
BEMAßUNG
 62
     0
 10
-31.171184857174939
 20
10.858839050377471
 30
0.0
 11
-32.11491782293345
 21
10.172924186526449
 31
0.0
 12
-29.585306748501129
 22
7.6846827211764426
 32
0.0
 13
-29.585306748501129
 23
7.6846827211764426
 33
0.0
  0
POINT
  5
3D3
  8
DEFPOINTS
 62
     0
 10
-29.585306748501129
 20
7.6846827211764426
 30
0.0
  0
POINT
  5
3D4
  8
DEFPOINTS
 62
     0
 10
-18.414693251498761
 20
-7.6846827211763582
 30
0.0
  0
ENDBLK
  5
236
  8
0
  0
BLOCK
  8
0
  2
*D3
 70
     1
 10
0.0
 20
0.0
 30
0.0
  3
*D3
  1

  0
LINE
  5
3DD
  8
BEMAßUNG
 62
     0
 10
-39.5
 20
0.625
 30
0.0
 11
-39.5
 21
56.1876426960755
 31
0.0
  0
LINE
  5
3DE
  8
BEMAßUNG
 62
     0
 10
130.0
 20
0.625
 30
0.0
 11
130.0
 21
56.1876426960755
 31
0.0
  0
LINE
  5
3DF
  8
BEMAßUNG
 62
     0
 10
-36.0
 20
54.9376426960755
 30
0.0
 11
126.5
 21
54.9376426960755
 31
0.0
  0
SOLID
  5
3E0
  8
BEMAßUNG
 62
     0
 10
-36.0
 20
55.520976029408828
 30
0.0
 11
-36.0
 21
54.354309362742157
 31
0.0
 12
-39.5
 22
54.9376426960755
 32
0.0
 13
-39.5
 23
54.9376426960755
 33
0.0
  0
SOLID
  5
3E1
  8
BEMAßUNG
 62
     0
 10
126.5
 20
55.520976029408828
 30
0.0
 11
126.5
 21
54.354309362742157
 31
0.0
 12
130.0
 22
54.9376426960755
 32
0.0
 13
130.0
 23
54.9376426960755
 33
0.0
  0
INSERT
  5
3E2
  8
BEMAßUNG
  2
*U14
 10
0.0
 20
0.0
 30
0.0
  0
POINT
  5
3E3
  8
DEFPOINTS
 62
     0
 10
-39.5
 20
0.0
 30
0.0
  0
POINT
  5
3E4
  8
DEFPOINTS
 62
     0
 10
130.0
 20
0.0
 30
0.0
  0
POINT
  5
3E5
  8
DEFPOINTS
 62
     0
 10
130.0
 20
54.9376426960755
 30
0.0
  0
ENDBLK
  5
24F
  8
0
  0
BLOCK
  8
0
  2
*D4
 70
     1
 10
0.0
 20
0.0
 30
0.0
  3
*D4
  1

  0
LINE
  5
3E6
  8
BEMAßUNG
 62
     0
 10
0.0
 20
0.625
 30
0.0
 11
0.000000000000003
 21
48.600513626759948
 31
0.0
  0
LINE
  5
3E7
  8
BEMAßUNG
 62
     0
 10
80.0
 20
0.625
 30
0.0
 11
80.0
 21
48.600513626759948
 31
0.0
  0
LINE
  5
3E8
  8
BEMAßUNG
 62
     0
 10
3.5000000000000031
 20
47.350513626759948
 30
0.0
 11
76.5
 21
47.350513626759948
 31
0.0
  0
SOLID
  5
3E9
  8
BEMAßUNG
 62
     0
 10
3.5000000000000031
 20
47.933846960093277
 30
0.0
 11
3.5000000000000031
 21
46.767180293426613
 31
0.0
 12
0.0000000000000029
 22
47.350513626759948
 32
0.0
 13
0.0000000000000029
 23
47.350513626759948
 33
0.0
  0
SOLID
  5
3EA
  8
BEMAßUNG
 62
     0
 10
76.5
 20
47.933846960093277
 30
0.0
 11
76.5
 21
46.767180293426613
 31
0.0
 12
80.0
 22
47.350513626759948
 32
0.0
 13
80.0
 23
47.350513626759948
 33
0.0
  0
INSERT
  5
3EB
  8
BEMAßUNG
  2
*U15
 10
0.0
 20
0.0
 30
0.0
  0
POINT
  5
3EC
  8
DEFPOINTS
 62
     0
 10
0.0
 20
0.0
 30
0.0
  0
POINT
  5
3ED
  8
DEFPOINTS
 62
     0
 10
80.0
 20
0.0
 30
0.0
  0
POINT
  5
3EE
  8
DEFPOINTS
 62
     0
 10
80.0
 20
47.350513626759948
 30
0.0
  0
ENDBLK
  5
25C
  8
0
  0
BLOCK
  8
0
  2
*D5
 70
     1
 10
0.0
 20
0.0
 30
0.0
  3
*D5
  1

  0
LINE
  5
3EF
  8
BEMAßUNG
 62
     0
 10
39.375
 20
31.0
 30
0.0
 11
-49.909242914369528
 21
31.000000000000028
 31
0.0
  0
LINE
  5
3F0
  8
BEMAßUNG
 62
     0
 10
39.374999999893653
 20
-31.0
 30
0.0
 11
-49.909242914369543
 21
-30.999999999999979
 31
0.0
  0
LINE
  5
3F1
  8
BEMAßUNG
 62
     0
 10
-48.659242914369528
 20
27.500000000000028
 30
0.0
 11
-48.659242914369543
 21
-27.499999999999979
 31
0.0
  0
SOLID
  5
3F2
  8
BEMAßUNG
 62
     0
 10
-49.242576247702857
 20
27.500000000000028
 30
0.0
 11
-48.075909581036193
 21
27.500000000000028
 31
0.0
 12
-48.659242914369528
 22
31.000000000000028
 32
0.0
 13
-48.659242914369528
 23
31.000000000000028
 33
0.0
  0
SOLID
  5
3F3
  8
BEMAßUNG
 62
     0
 10
-49.242576247702871
 20
-27.499999999999979
 30
0.0
 11
-48.0759095810362
 21
-27.499999999999979
 31
0.0
 12
-48.659242914369543
 22
-30.999999999999979
 32
0.0
 13
-48.659242914369543
 23
-30.999999999999979
 33
0.0
  0
INSERT
  5
3F4
  8
BEMAßUNG
  2
*U16
 10
0.0
 20
0.0
 30
0.0
  0
POINT
  5
3F5
  8
DEFPOINTS
 62
     0
 10
40.0
 20
31.0
 30
0.0
  0
POINT
  5
3F6
  8
DEFPOINTS
 62
     0
 10
39.999999999893653
 20
-31.0
 30
0.0
  0
POINT
  5
3F7
  8
DEFPOINTS
 62
     0
 10
-48.659242914369543
 20
-30.999999999999979
 30
0.0
  0
ENDBLK
  5
269
  8
0
  0
BLOCK
  8
0
  2
*D6
 70
     1
 10
0.0
 20
0.0
 30
0.0
  3
*D6
  1

  0
LINE
  5
3F8
  8
BEMAßUNG
 62
     0
 10
39.373895947076051
 20
34.199664682245839
 30
0.0
 11
-58.584858097723767
 21
34.199664682245867
 31
0.0
  0
LINE
  5
3F9
  8
BEMAßUNG
 62
     0
 10
39.375360686301981
 20
-34.199646533487261
 30
0.0
 11
-58.584858097723782
 21
-34.199646533487233
 31
0.0
  0
LINE
  5
3FA
  8
BEMAßUNG
 62
     0
 10
-57.334858097723767
 20
30.699664682245871
 30
0.0
 11
-57.334858097723782
 21
-30.699646533487229
 31
0.0
  0
SOLID
  5
3FB
  8
BEMAßUNG
 62
     0
 10
-57.918191431057103
 20
30.699664682245871
 30
0.0
 11
-56.751524764390432
 21
30.699664682245871
 31
0.0
 12
-57.334858097723767
 22
34.199664682245867
 32
0.0
 13
-57.334858097723767
 23
34.199664682245867
 33
0.0
  0
SOLID
  5
3FC
  8
BEMAßUNG
 62
     0
 10
-57.918191431057117
 20
-30.699646533487229
 30
0.0
 11
-56.751524764390453
 21
-30.699646533487229
 31
0.0
 12
-57.334858097723782
 22
-34.199646533487233
 32
0.0
 13
-57.334858097723782
 23
-34.199646533487233
 33
0.0
  0
INSERT
  5
3FD
  8
BEMAßUNG
  2
*U17
 10
0.0
 20
0.0
 30
0.0
  0
POINT
  5
3FE
  8
DEFPOINTS
 62
     0
 10
39.998895947076051
 20
34.199664682245839
 30
0.0
  0
POINT
  5
3FF
  8
DEFPOINTS
 62
     0
 10
40.000360686301967
 20
-34.199646533487261
 30
0.0
  0
POINT
  5
400
  8
DEFPOINTS
 62
     0
 10
-57.334858097723782
 20
-34.199646533487233
 30
0.0
  0
ENDBLK
  5
276
  8
0
  0
BLOCK
  8
0
  2
*D7
 70
     1
 10
0.0
 20
0.0
 30
0.0
  3
*D7
  1

  0
LINE
  5
401
  8
BEMAßUNG
 62
     0
 10
40.623895947076051
 20
34.199664682245839
 30
0.0
 11
124.6570940717411
 21
34.19966468224581
 31
0.0
  0
LINE
  5
402
  8
BEMAßUNG
 62
     0
 10
40.625000000107597
 20
31.0
 30
0.0
 11
124.6570940717411
 21
30.999999999999979
 31
0.0
  0
LINE
  5
403
  8
BEMAßUNG
 62
     0
 10
123.4070940717411
 20
37.69966468224581
 30
0.0
 11
123.4070940717411
 21
41.19966468224581
 31
0.0
  0
LINE
  5
404
  8
BEMAßUNG
 62
     0
 10
123.4070940717411
 20
27.499999999999979
 30
0.0
 11
123.4070940717411
 21
11.91666666666665
 31
0.0
  0
LINE
  5
405
  8
BEMAßUNG
 62
     0
 10
123.4070940717411
 20
34.19966468224581
 30
0.0
 11
123.4070940717411
 21
30.999999999999979
 31
0.0
  0
SOLID
  5
406
  8
BEMAßUNG
 62
     0
 10
122.8237607384077
 20
37.69966468224581
 30
0.0
 11
123.9904274050744
 21
37.69966468224581
 31
0.0
 12
123.4070940717411
 22
34.19966468224581
 32
0.0
 13
123.4070940717411
 23
34.19966468224581
 33
0.0
  0
SOLID
  5
407
  8
BEMAßUNG
 62
     0
 10
122.8237607384077
 20
27.499999999999979
 30
0.0
 11
123.9904274050744
 21
27.499999999999979
 31
0.0
 12
123.4070940717411
 22
30.999999999999979
 32
0.0
 13
123.4070940717411
 23
30.999999999999979
 33
0.0
  0
INSERT
  5
408
  8
BEMAßUNG
  2
*U18
 10
0.0
 20
0.0
 30
0.0
  0
POINT
  5
409
  8
DEFPOINTS
 62
     0
 10
39.998895947076051
 20
34.199664682245839
 30
0.0
  0
POINT
  5
40A
  8
DEFPOINTS
 62
     0
 10
40.000000000107597
 20
31.0
 30
0.0
  0
POINT
  5
40B
  8
DEFPOINTS
 62
     0
 10
123.4070940717411
 20
30.999999999999979
 30
0.0
  0
ENDBLK
  5
285
  8
0
  0
BLOCK
  8
0
  2
*D8
 70
     1
 10
0.0
 20
0.0
 30
0.0
  3
*D8
  1

  0
LINE
  5
40C
  8
BEMAßUNG
 62
     0
 10
6.0
 20
0.6250000000483738
 30
0.0
 11
6.0000000000000018
 21
39.748863704347741
 31
0.0
  0
LINE
  5
40D
  8
BEMAßUNG
 62
     0
 10
74.0
 20
0.6249999999529337
 30
0.0
 11
74.0
 21
39.748863704347741
 31
0.0
  0
LINE
  5
40E
  8
BEMAßUNG
 62
     0
 10
9.5000000000000036
 20
38.498863704347741
 30
0.0
 11
70.5
 21
38.498863704347741
 31
0.0
  0
SOLID
  5
40F
  8
BEMAßUNG
 62
     0
 10
9.5000000000000036
 20
39.082197037681077
 30
0.0
 11
9.5000000000000036
 21
37.915530371014398
 31
0.0
 12
6.0000000000000018
 22
38.498863704347741
 32
0.0
 13
6.0000000000000018
 23
38.498863704347741
 33
0.0
  0
SOLID
  5
410
  8
BEMAßUNG
 62
     0
 10
70.5
 20
39.082197037681077
 30
0.0
 11
70.5
 21
37.915530371014398
 31
0.0
 12
74.0
 22
38.498863704347741
 32
0.0
 13
74.0
 23
38.498863704347741
 33
0.0
  0
INSERT
  5
411
  8
BEMAßUNG
  2
*U19
 10
0.0
 20
0.0
 30
0.0
  0
POINT
  5
412
  8
DEFPOINTS
 62
     0
 10
6.0
 20
0.0000000000483737
 30
0.0
  0
POINT
  5
413
  8
DEFPOINTS
 62
     0
 10
74.0
 20
-0.0000000000470664
 30
0.0
  0
POINT
  5
414
  8
DEFPOINTS
 62
     0
 10
74.0
 20
38.498863704347741
 30
0.0
  0
ENDBLK
  5
292
  8
0
  0
BLOCK
  8
0
  2
*D9
 70
     1
 10
0.0
 20
0.0
 30
0.0
  3
*D9
  1

  0
LINE
  5
415
  8
BEMAßUNG
 62
     0
 10
105.2349310850434
 20
15.5
 30
0.0
 11
142.73128831551639
 21
15.499999999999989
 31
0.0
  0
LINE
  5
416
  8
BEMAßUNG
 62
     0
 10
105.2349310850433
 20
-15.49999999999997
 30
0.0
 11
142.73128831551639
 21
-15.49999999999998
 31
0.0
  0
LINE
  5
417
  8
BEMAßUNG
 62
     0
 10
141.48128831551639
 20
11.999999999999989
 30
0.0
 11
141.48128831551639
 21
-11.99999999999998
 31
0.0
  0
SOLID
  5
418
  8
BEMAßUNG
 62
     0
 10
140.89795498218299
 20
11.999999999999989
 30
0.0
 11
142.06462164884971
 21
11.999999999999989
 31
0.0
 12
141.48128831551639
 22
15.499999999999989
 32
0.0
 13
141.48128831551639
 23
15.499999999999989
 33
0.0
  0
SOLID
  5
419
  8
BEMAßUNG
 62
     0
 10
140.89795498218299
 20
-11.99999999999998
 30
0.0
 11
142.06462164884971
 21
-11.99999999999998
 31
0.0
 12
141.48128831551639
 22
-15.49999999999998
 32
0.0
 13
141.48128831551639
 23
-15.49999999999998
 33
0.0
  0
INSERT
  5
41A
  8
BEMAßUNG
  2
*U20
 10
0.0
 20
0.0
 30
0.0
  0
POINT
  5
41B
  8
DEFPOINTS
 62
     0
 10
104.6099310850434
 20
15.5
 30
0.0
  0
POINT
  5
41C
  8
DEFPOINTS
 62
     0
 10
104.6099310850433
 20
-15.49999999999997
 30
0.0
  0
POINT
  5
41D
  8
DEFPOINTS
 62
     0
 10
141.48128831551639
 20
-15.49999999999998
 30
0.0
  0
ENDBLK
  5
2A8
  8
0
  0
BLOCK
  8
0
  2
*D10
 70
     1
 10
0.0
 20
0.0
 30
0.0
  3
*D10
  1

  0
LINE
  5
41E
  8
BEMAßUNG
 62
     0
 10
78.540515645554251
 20
23.5
 30
0.0
 11
167.73039877957871
 21
23.499999999999972
 31
0.0
  0
LINE
  5
41F
  8
BEMAßUNG
 62
     0
 10
78.540568737933143
 20
-23.50000000000006
 30
0.0
 11
167.73039877957871
 21
-23.500000000000082
 31
0.0
  0
LINE
  5
420
  8
BEMAßUNG
 62
     0
 10
166.48039877957871
 20
19.999999999999972
 30
0.0
 11
166.48039877957871
 21
-20.000000000000082
 31
0.0
  0
SOLID
  5
421
  8
BEMAßUNG
 62
     0
 10
165.89706544624539
 20
19.999999999999972
 30
0.0
 11
167.06373211291211
 21
19.999999999999972
 31
0.0
 12
166.48039877957871
 22
23.499999999999972
 32
0.0
 13
166.48039877957871
 23
23.499999999999972
 33
0.0
  0
SOLID
  5
422
  8
BEMAßUNG
 62
     0
 10
165.89706544624539
 20
-20.000000000000082
 30
0.0
 11
167.06373211291211
 21
-20.000000000000082
 31
0.0
 12
166.48039877957871
 22
-23.500000000000082
 32
0.0
 13
166.48039877957871
 23
-23.500000000000082
 33
0.0
  0
INSERT
  5
423
  8
BEMAßUNG
  2
*U21
 10
0.0
 20
0.0
 30
0.0
  0
POINT
  5
424
  8
DEFPOINTS
 62
     0
 10
77.915515645554251
 20
23.5
 30
0.0
  0
POINT
  5
425
  8
DEFPOINTS
 62
     0
 10
77.915568737933143
 20
-23.50000000000006
 30
0.0
  0
POINT
  5
426
  8
DEFPOINTS
 62
     0
 10
166.48039877957871
 20
-23.500000000000082
 30
0.0
  0
ENDBLK
  5
2B6
  8
0
  0
BLOCK
  8
0
  2
*D11
 70
     1
 10
0.0
 20
0.0
 30
0.0
  3
*D11
  1

  0
LINE
  5
427
  8
BEMAßUNG
 62
     0
 10
-2.0565980208595529
 20
-16.566830042362369
 30
0.0
 11
-2.0565980208595551
 21
-46.360906766038731
 31
0.0
  0
LINE
  5
428
  8
BEMAßUNG
 62
     0
 10
82.056598020859553
 20
-16.566830042362369
 30
0.0
 11
82.056598020859553
 21
-46.360906766038731
 31
0.0
  0
LINE
  5
429
  8
BEMAßUNG
 62
     0
 10
1.443401979140444
 20
-45.110906766038731
 30
0.0
 11
78.556598020859553
 21
-45.110906766038731
 31
0.0
  0
SOLID
  5
42A
  8
BEMAßUNG
 62
     0
 10
1.443401979140444
 20
-44.527573432705402
 30
0.0
 11
1.443401979140444
 21
-45.694240099372067
 31
0.0
 12
-2.0565980208595551
 22
-45.110906766038731
 32
0.0
 13
-2.0565980208595551
 23
-45.110906766038731
 33
0.0
  0
SOLID
  5
42B
  8
BEMAßUNG
 62
     0
 10
78.556598020859553
 20
-44.527573432705402
 30
0.0
 11
78.556598020859553
 21
-45.694240099372067
 31
0.0
 12
82.056598020859553
 22
-45.110906766038731
 32
0.0
 13
82.056598020859553
 23
-45.110906766038731
 33
0.0
  0
INSERT
  5
42C
  8
BEMAßUNG
  2
*U22
 10
0.0
 20
0.0
 30
0.0
  0
POINT
  5
42D
  8
DEFPOINTS
 62
     0
 10
-2.0565980208595529
 20
-15.941830042362369
 30
0.0
  0
POINT
  5
42E
  8
DEFPOINTS
 62
     0
 10
82.056598020859553
 20
-15.941830042362369
 30
0.0
  0
POINT
  5
42F
  8
DEFPOINTS
 62
     0
 10
82.056598020859553
 20
-45.110906766038731
 30
0.0
  0
ENDBLK
  5
2C3
  8
0
  0
BLOCK
  8
0
  2
*D12
 70
     1
 10
0.0
 20
0.0
 30
0.0
  3
*D12
  1

  0
LINE
  5
4A3
  8
BEMAßUNG
 62
     0
 10
0.0
 20
0.625
 30
0.0
 11
0.000000000000005
 21
82.404786782393316
 31
0.0
  0
LINE
  5
4A4
  8
BEMAßUNG
 62
     0
 10
-39.5
 20
0.625
 30
0.0
 11
-39.499999999999993
 21
82.404786782393316
 31
0.0
  0
LINE
  5
4A5
  8
BEMAßUNG
 62
     0
 10
-3.4999999999999951
 20
81.154786782393316
 30
0.0
 11
-36.0
 21
81.154786782393316
 31
0.0
  0
SOLID
  5
4A6
  8
BEMAßUNG
 62
     0
 10
-3.4999999999999951
 20
81.738120115726659
 30
0.0
 11
-3.4999999999999951
 21
80.571453449060002
 31
0.0
 12
0.000000000000005
 22
81.154786782393316
 32
0.0
 13
0.000000000000005
 23
81.154786782393316
 33
0.0
  0
SOLID
  5
4A7
  8
BEMAßUNG
 62
     0
 10
-36.0
 20
81.738120115726659
 30
0.0
 11
-36.0
 21
80.571453449060002
 31
0.0
 12
-39.499999999999993
 22
81.154786782393316
 32
0.0
 13
-39.499999999999993
 23
81.154786782393316
 33
0.0
  0
INSERT
  5
4A8
  8
BEMAßUNG
  2
*U24
 10
0.0
 20
0.0
 30
0.0
  0
POINT
  5
4A9
  8
DEFPOINTS
 62
     0
 10
0.0
 20
0.0
 30
0.0
  0
POINT
  5
4AA
  8
DEFPOINTS
 62
     0
 10
-39.5
 20
0.0
 30
0.0
  0
POINT
  5
4AB
  8
DEFPOINTS
 62
     0
 10
-39.499999999999993
 20
81.154786782393316
 30
0.0
  0
ENDBLK
  5
4AD
  8
0
  0
BLOCK
  8
0
  2
*U13
 70
     1
 10
0.0
 20
0.0
 30
0.0
  3
*U13
  1

  0
TEXT
  5
4E2
  8
BEMAßUNG
 62
     0
 10
-45.266092918552822
 20
30.32253812086212
 30
0.0
 40
5.0
  1
\U+220519
 50
306.01004127406651
  0
ENDBLK
  5
4E4
  8
0
  0
BLOCK
  8
0
  2
*U14
 70
     1
 10
0.0
 20
0.0
 30
0.0
  3
*U14
  1

  0
TEXT
  5
4E6
  8
BEMAßUNG
 62
     0
 10
35.74323706383295
 20
56.395976029408828
 30
0.0
 40
5.0
  1
169,5
  0
ENDBLK
  5
4E8
  8
0
  0
BLOCK
  8
0
  2
*U15
 70
     1
 10
0.0
 20
0.0
 30
0.0
  3
*U15
  1

  0
TEXT
  5
4EA
  8
BEMAßUNG
 62
     0
 10
36.25
 20
47.975513626759948
 30
0.0
 40
5.0
  1
80
  0
ENDBLK
  5
4EC
  8
0
  0
BLOCK
  8
0
  2
*U16
 70
     1
 10
0.0
 20
0.0
 30
0.0
  3
*U16
  1

  0
TEXT
  5
4EE
  8
BEMAßUNG
 62
     0
 10
-49.284242914369543
 20
-4.1666666666666483
 30
0.0
 40
5.0
  1
62
 50
90.0
  0
ENDBLK
  5
4F0
  8
0
  0
BLOCK
  8
0
  2
*U17
 70
     1
 10
0.0
 20
0.0
 30
0.0
  3
*U17
  1

  0
TEXT
  5
4F2
  8
BEMAßUNG
 62
     0
 10
-58.79319143105711
 20
-12.916657592287351
 30
0.0
 40
5.0
  1
68,399
 50
90.0
  0
ENDBLK
  5
4F4
  8
0
  0
BLOCK
  8
0
  2
*U18
 70
     1
 10
0.0
 20
0.0
 30
0.0
  3
*U18
  1

  0
TEXT
  5
4F6
  8
BEMAßUNG
 62
     0
 10
121.9487607384077
 20
12.54166666666667
 30
0.0
 40
5.0
  1
3,2
 50
90.0
  0
ENDBLK
  5
4F8
  8
0
  0
BLOCK
  8
0
  2
*U19
 70
     1
 10
0.0
 20
0.0
 30
0.0
  3
*U19
  1

  0
TEXT
  5
4FA
  8
BEMAßUNG
 62
     0
 10
35.833333333333343
 20
39.123863704347741
 30
0.0
 40
5.0
  1
68
  0
ENDBLK
  5
4FC
  8
0
  0
BLOCK
  8
0
  2
*U20
 70
     1
 10
0.0
 20
0.0
 30
0.0
  3
*U20
  1

  0
TEXT
  5
4FE
  8
BEMAßUNG
 62
     0
 10
140.85628831551639
 20
-3.3333333333333059
 30
0.0
 40
5.0
  1
31
 50
90.0
  0
ENDBLK
  5
500
  8
0
  0
BLOCK
  8
0
  2
*U21
 70
     1
 10
0.0
 20
0.0
 30
0.0
  3
*U21
  1

  0
TEXT
  5
502
  8
BEMAßUNG
 62
     0
 10
165.85539877957871
 20
-4.1666666666666927
 30
0.0
 40
5.0
  1
47
 50
90.0
  0
ENDBLK
  5
504
  8
0
  0
BLOCK
  8
0
  2
*U22
 70
     1
 10
0.0
 20
0.0
 30
0.0
  3
*U22
  1

  0
TEXT
  5
506
  8
BEMAßUNG
 62
     0
 10
28.75
 20
-43.65257343270541
 30
0.0
 40
5.0
  1
84,113
  0
ENDBLK
  5
508
  8
0
  0
BLOCK
  8
0
  2
*U23
 70
     1
 10
0.0
 20
0.0
 30
0.0
  3
*U23
  1

  0
TEXT
  5
50A
  8
BEMAßUNG
 62
     0
 10
-53.217963272642542
 20
88.527941113539882
 30
0.0
 40
5.0
  1
\U+22054
 50
301.35857733698577
  0
ENDBLK
  5
50C
  8
0
  0
BLOCK
  8
0
  2
*U24
 70
     1
 10
0.0
 20
0.0
 30
0.0
  3
*U24
  1

  0
TEXT
  5
50E
  8
BEMAßUNG
 62
     0
 10
-27.666666666666661
 20
82.613120115726673
 30
0.0
 40
5.0
  1
39,5
  0
ENDBLK
  5
510
  8
0
  0
ENDSEC
  0
SECTION
  2
ENTITIES
  0
POLYLINE
  5
118
  8
FRAESBAHN_6MM
 10
13.53370376042896
 20
-14.5789569296028
 30
0.0
 66
     1
 70
     8
  0
VERTEX
  8
FRAESBAHN_6MM
  5
525
 10
13.5337
 20
-14.5790
 30
0.000000
  70
    32
  0
VERTEX
  8
FRAESBAHN_6MM
  5
526
 10
13.7951
 20
-14.9592
 30
0.000000
  70
    32
  0
VERTEX
  8
FRAESBAHN_6MM
  5
527
 10
14.0632
 20
-15.3357
 30
0.000000
  70
    32
  0
VERTEX
  8
FRAESBAHN_6MM
  5
528
 10
14.3380
 20
-15.7082
 30
0.000000
  70
    32
  0
VERTEX
  8
FRAESBAHN_6MM
  5
529
 10
14.6193
 20
-16.0768
 30
0.000000
  70
    32
  0
VERTEX
  8
FRAESBAHN_6MM
  5
52A
 10
14.9071
 20
-16.4412
 30
0.000000
  70
    32
  0
VERTEX
  8
FRAESBAHN_6MM
  5
52B
 10
15.2012
 20
-16.8014
 30
0.000000
  70
    32
  0
VERTEX
  8
FRAESBAHN_6MM
  5
52C
 10
15.5018
 20
-17.1573
 30
0.000000
  70
    32
  0
VERTEX
  8
FRAESBAHN_6MM
  5
52D
 10
15.8086
 20
-17.5088
 30
0.000000
  70
    32
  0
VERTEX
  8
FRAESBAHN_6MM
  5
52E
 10
16.1216
 20
-17.8559
 30
0.000000
  70
    32
  0
VERTEX
  8
FRAESBAHN_6MM
  5
52F
 10
16.4406
 20
-18.1984
 30
0.000000
  70
    32
  0
VERTEX
  8
FRAESBAHN_6MM
  5
530
 10
16.7657
 20
-18.5362
 30
0.000000
  70
    32
  0
VERTEX
  8
FRAESBAHN_6MM
  5
531
 10
17.0968
 20
-18.8693
 30
0.000000
  70
    32
  0
VERTEX
  8
FRAESBAHN_6MM
  5
532
 10
17.4337
 20
-19.1976
 30
0.000000
  70
    32
  0
VERTEX
  8
FRAESBAHN_6MM
  5
533
 10
17.7763
 20
-19.5210
 30
0.000000
  70
    32
  0
VERTEX
  8
FRAESBAHN_6MM
  5
534
 10
18.1247
 20
-19.8394
 30
0.000000
  70
    32
  0
VERTEX
  8
FRAESBAHN_6MM
  5
535
 10
18.4786
 20
-20.1527
 30
0.000000
  70
    32
  0
VERTEX
  8
FRAESBAHN_6MM
  5
536
 10
18.8380
 20
-20.4609
 30
0.000000
  70
    32
  0
VERTEX
  8
FRAESBAHN_6MM
  5
537
 10
19.2029
 20
-20.7638
 30
0.000000
  70
    32
  0
VERTEX
  8
FRAESBAHN_6MM
  5
538
 10
19.5730
 20
-21.0615
 30
0.000000
  70
    32
  0
VERTEX
  8
FRAESBAHN_6MM
  5
539
 10
19.9484
 20
-21.3537
 30
0.000000
  70
    32
  0
VERTEX
  8
FRAESBAHN_6MM
  5
53A
 10
20.3289
 20
-21.6405
 30
0.000000
  70
    32
  0
VERTEX
  8
FRAESBAHN_6MM
  5
53B
 10
20.7144
 20
-21.9218
 30
0.000000
  70
    32
  0
VERTEX
  8
FRAESBAHN_6MM
  5
53C
 10
21.1049
 20
-22.1974
 30
0.000000
  70
    32
  0
VERTEX
  8
FRAESBAHN_6MM
  5
53D
 10
21.5002
 20
-22.4674
 30
0.000000
  70
    32
  0
VERTEX
  8
FRAESBAHN_6MM
  5
53E
 10
21.9002
 20
-22.7317
 30
0.000000
  70
    32
  0
VERTEX
  8
FRAESBAHN_6MM
  5
53F
 10
22.3048
 20
-22.9901
 30
0.000000
  70
    32
  0
VERTEX
  8
FRAESBAHN_6MM
  5
540
 10
22.7140
 20
-23.2427
 30
0.000000
  70
    32
  0
VERTEX
  8
FRAESBAHN_6MM
  5
541
 10
23.1276
 20
-23.4893
 30
0.000000
  70
    32
  0
VERTEX
  8
FRAESBAHN_6MM
  5
542
 10
23.5455
 20
-23.7299
 30
0.000000
  70
    32
  0
VERTEX
  8
FRAESBAHN_6MM
  5
543
 10
23.9676
 20
-23.9645
 30
0.000000
  70
    32
  0
VERTEX
  8
FRAESBAHN_6MM
  5
544
 10
24.3938
 20
-24.1929
 30
0.000000
  70
    32
  0
VERTEX
  8
FRAESBAHN_6MM
  5
545
 10
24.8239
 20
-24.4151
 30
0.000000
  70
    32
  0
VERTEX
  8
FRAESBAHN_6MM
  5
546
 10
25.2580
 20
-24.6311
 30
0.000000
  70
    32
  0
VERTEX
  8
FRAESBAHN_6MM
  5
547
 10
25.6958
 20
-24.8409
 30
0.000000
  70
    32
  0
VERTEX
  8
FRAESBAHN_6MM
  5
548
 10
26.1373
 20
-25.0442
 30
0.000000
  70
    32
  0
VERTEX
  8
FRAESBAHN_6MM
  5
549
 10
26.5823
 20
-25.2412
 30
0.000000
  70
    32
  0
VERTEX
  8
FRAESBAHN_6MM
  5
54A
 10
27.0308
 20
-25.4317
 30
0.000000
  70
    32
  0
VERTEX
  8
FRAESBAHN_6MM
  5
54B
 10
27.4826
 20
-25.6157
 30
0.000000
  70
    32
  0
VERTEX
  8
FRAESBAHN_6MM
  5
54C
 10
27.9375
 20
-25.7932
 30
0.000000
  70
    32
  0
VERTEX
  8
FRAESBAHN_6MM
  5
54D
 10
28.3956
 20
-25.9640
 30
0.000000
  70
    32
  0
VERTEX
  8
FRAESBAHN_6MM
  5
54E
 10
28.8566
 20
-26.1283
 30
0.000000
  70
    32
  0
VERTEX
  8
FRAESBAHN_6MM
  5
54F
 10
29.3205
 20
-26.2858
 30
0.000000
  70
    32
  0
VERTEX
  8
FRAESBAHN_6MM
  5
550
 10
29.7871
 20
-26.4367
 30
0.000000
  70
    32
  0
VERTEX
  8
FRAESBAHN_6MM
  5
551
 10
30.2563
 20
-26.5808
 30
0.000000
  70
    32
  0
VERTEX
  8
FRAESBAHN_6MM
  5
552
 10
30.7280
 20
-26.7180
 30
0.000000
  70
    32
  0
VERTEX
  8
FRAESBAHN_6MM
  5
553
 10
31.2020
 20
-26.8485
 30
0.000000
  70
    32
  0
VERTEX
  8
FRAESBAHN_6MM
  5
554
 10
31.6783
 20
-26.9721
 30
0.000000
  70
    32
  0
VERTEX
  8
FRAESBAHN_6MM
  5
555
 10
32.1568
 20
-27.0888
 30
0.000000
  70
    32
  0
VERTEX
  8
FRAESBAHN_6MM
  5
556
 10
32.6372
 20
-27.1986
 30
0.000000
  70
    32
  0
VERTEX
  8
FRAESBAHN_6MM
  5
557
 10
33.1196
 20
-27.3014
 30
0.000000
  70
    32
  0
VERTEX
  8
FRAESBAHN_6MM
  5
558
 10
33.6036
 20
-27.3973
 30
0.000000
  70
    32
  0
VERTEX
  8
FRAESBAHN_6MM
  5
559
 10
34.0894
 20
-27.4862
 30
0.000000
  70
    32
  0
VERTEX
  8
FRAESBAHN_6MM
  5
55A
 10
34.5766
 20
-27.5680
 30
0.000000
  70
    32
  0
VERTEX
  8
FRAESBAHN_6MM
  5
55B
 10
35.0652
 20
-27.6428
 30
0.000000
  70
    32
  0
VERTEX
  8
FRAESBAHN_6MM
  5
55C
 10
35.5551
 20
-27.7105
 30
0.000000
  70
    32
  0
VERTEX
  8
FRAESBAHN_6MM
  5
55D
 10
36.0461
 20
-27.7711
 30
0.000000
  70
    32
  0
VERTEX
  8
FRAESBAHN_6MM
  5
55E
 10
36.5381
 20
-27.8247
 30
0.000000
  70
    32
  0
VERTEX
  8
FRAESBAHN_6MM
  5
55F
 10
37.0310
 20
-27.8711
 30
0.000000
  70
    32
  0
VERTEX
  8
FRAESBAHN_6MM
  5
560
 10
37.5247
 20
-27.9104
 30
0.000000
  70
    32
  0
VERTEX
  8
FRAESBAHN_6MM
  5
561
 10
38.0190
 20
-27.9426
 30
0.000000
  70
    32
  0
VERTEX
  8
FRAESBAHN_6MM
  5
562
 10
38.5138
 20
-27.9676
 30
0.000000
  70
    32
  0
VERTEX
  8
FRAESBAHN_6MM
  5
563
 10
39.0090
 20
-27.9855
 30
0.000000
  70
    32
  0
VERTEX
  8
FRAESBAHN_6MM
  5
564
 10
39.5044
 20
-27.9962
 30
0.000000
  70
    32
  0
VERTEX
  8
FRAESBAHN_6MM
  5
565
 10
40.0000
 20
-27.9998
 30
0.000000
  70
    32
  0
VERTEX
  8
FRAESBAHN_6MM
  5
566
 10
40.4956
 20
-27.9962
 30
0.000000
  70
    32
  0
VERTEX
  8
FRAESBAHN_6MM
  5
567
 10
40.9910
 20
-27.9855
 30
0.000000
  70
    32
  0
VERTEX
  8
FRAESBAHN_6MM
  5
568
 10
41.4862
 20
-27.9676
 30
0.000000
  70
    32
  0
VERTEX
  8
FRAESBAHN_6MM
  5
569
 10
41.9810
 20
-27.9426
 30
0.000000
  70
    32
  0
VERTEX
  8
FRAESBAHN_6MM
  5
56A
 10
42.4753
 20
-27.9104
 30
0.000000
  70
    32
  0
VERTEX
  8
FRAESBAHN_6MM
  5
56B
 10
42.9690
 20
-27.8711
 30
0.000000
  70
    32
  0
VERTEX
  8
FRAESBAHN_6MM
  5
56C
 10
43.4619
 20
-27.8247
 30
0.000000
  70
    32
  0
VERTEX
  8
FRAESBAHN_6MM
  5
56D
 10
43.9539
 20
-27.7711
 30
0.000000
  70
    32
  0
VERTEX
  8
FRAESBAHN_6MM
  5
56E
 10
44.4449
 20
-27.7105
 30
0.000000
  70
    32
  0
VERTEX
  8
FRAESBAHN_6MM
  5
56F
 10
44.9348
 20
-27.6428
 30
0.000000
  70
    32
  0
VERTEX
  8
FRAESBAHN_6MM
  5
570
 10
45.4234
 20
-27.5680
 30
0.000000
  70
    32
  0
VERTEX
  8
FRAESBAHN_6MM
  5
571
 10
45.9106
 20
-27.4862
 30
0.000000
  70
    32
  0
VERTEX
  8
FRAESBAHN_6MM
  5
572
 10
46.3964
 20
-27.3973
 30
0.000000
  70
    32
  0
VERTEX
  8
FRAESBAHN_6MM
  5
573
 10
46.8804
 20
-27.3014
 30
0.000000
  70
    32
  0
VERTEX
  8
FRAESBAHN_6MM
  5
574
 10
47.3628
 20
-27.1986
 30
0.000000
  70
    32
  0
VERTEX
  8
FRAESBAHN_6MM
  5
575
 10
47.8432
 20
-27.0888
 30
0.000000
  70
    32
  0
VERTEX
  8
FRAESBAHN_6MM
  5
576
 10
48.3217
 20
-26.9721
 30
0.000000
  70
    32
  0
VERTEX
  8
FRAESBAHN_6MM
  5
577
 10
48.7980
 20
-26.8485
 30
0.000000
  70
    32
  0
VERTEX
  8
FRAESBAHN_6MM
  5
578
 10
49.2720
 20
-26.7180
 30
0.000000
  70
    32
  0
VERTEX
  8
FRAESBAHN_6MM
  5
579
 10
49.7437
 20
-26.5808
 30
0.000000
  70
    32
  0
VERTEX
  8
FRAESBAHN_6MM
  5
57A
 10
50.2129
 20
-26.4367
 30
0.000000
  70
    32
  0
VERTEX
  8
FRAESBAHN_6MM
  5
57B
 10
50.6795
 20
-26.2858
 30
0.000000
  70
    32
  0
VERTEX
  8
FRAESBAHN_6MM
  5
57C
 10
51.1434
 20
-26.1283
 30
0.000000
  70
    32
  0
VERTEX
  8
FRAESBAHN_6MM
  5
57D
 10
51.6044
 20
-25.9640
 30
0.000000
  70
    32
  0
VERTEX
  8
FRAESBAHN_6MM
  5
57E
 10
52.0625
 20
-25.7932
 30
0.000000
  70
    32
  0
VERTEX
  8
FRAESBAHN_6MM
  5
57F
 10
52.5174
 20
-25.6157
 30
0.000000
  70
    32
  0
VERTEX
  8
FRAESBAHN_6MM
  5
580
 10
52.9692
 20
-25.4317
 30
0.000000
  70
    32
  0
VERTEX
  8
FRAESBAHN_6MM
  5
581
 10
53.4177
 20
-25.2412
 30
0.000000
  70
    32
  0
VERTEX
  8
FRAESBAHN_6MM
  5
582
 10
53.8627
 20
-25.0442
 30
0.000000
  70
    32
  0
VERTEX
  8
FRAESBAHN_6MM
  5
583
 10
54.3042
 20
-24.8409
 30
0.000000
  70
    32
  0
VERTEX
  8
FRAESBAHN_6MM
  5
584
 10
54.7420
 20
-24.6311
 30
0.000000
  70
    32
  0
VERTEX
  8
FRAESBAHN_6MM
  5
585
 10
55.1761
 20
-24.4151
 30
0.000000
  70
    32
  0
VERTEX
  8
FRAESBAHN_6MM
  5
586
 10
55.6062
 20
-24.1929
 30
0.000000
  70
    32
  0
VERTEX
  8
FRAESBAHN_6MM
  5
587
 10
56.0324
 20
-23.9645
 30
0.000000
  70
    32
  0
VERTEX
  8
FRAESBAHN_6MM
  5
588
 10
56.4545
 20
-23.7299
 30
0.000000
  70
    32
  0
VERTEX
  8
FRAESBAHN_6MM
  5
589
 10
56.8724
 20
-23.4893
 30
0.000000
  70
    32
  0
VERTEX
  8
FRAESBAHN_6MM
  5
58A
 10
57.2860
 20
-23.2427
 30
0.000000
  70
    32
  0
VERTEX
  8
FRAESBAHN_6MM
  5
58B
 10
57.6952
 20
-22.9901
 30
0.000000
  70
    32
  0
VERTEX
  8
FRAESBAHN_6MM
  5
58C
 10
58.0998
 20
-22.7317
 30
0.000000
  70
    32
  0
VERTEX
  8
FRAESBAHN_6MM
  5
58D
 10
58.4998
 20
-22.4674
 30
0.000000
  70
    32
  0
VERTEX
  8
FRAESBAHN_6MM
  5
58E
 10
58.8951
 20
-22.1974
 30
0.000000
  70
    32
  0
VERTEX
  8
FRAESBAHN_6MM
  5
58F
 10
59.2856
 20
-21.9218
 30
0.000000
  70
    32
  0
VERTEX
  8
FRAESBAHN_6MM
  5
590
 10
59.6711
 20
-21.6405
 30
0.000000
  70
    32
  0
VERTEX
  8
FRAESBAHN_6MM
  5
591
 10
60.0516
 20
-21.3537
 30
0.000000
  70
    32
  0
VERTEX
  8
FRAESBAHN_6MM
  5
592
 10
60.4270
 20
-21.0615
 30
0.000000
  70
    32
  0
VERTEX
  8
FRAESBAHN_6MM
  5
593
 10
60.7971
 20
-20.7638
 30
0.000000
  70
    32
  0
VERTEX
  8
FRAESBAHN_6MM
  5
594
 10
61.1620
 20
-20.4609
 30
0.000000
  70
    32
  0
VERTEX
  8
FRAESBAHN_6MM
  5
595
 10
61.5214
 20
-20.1527
 30
0.000000
  70
    32
  0
VERTEX
  8
FRAESBAHN_6MM
  5
596
 10
61.8753
 20
-19.8394
 30
0.000000
  70
    32
  0
VERTEX
  8
FRAESBAHN_6MM
  5
597
 10
62.2237
 20
-19.5210
 30
0.000000
  70
    32
  0
VERTEX
  8
FRAESBAHN_6MM
  5
598
 10
62.5663
 20
-19.1976
 30
0.000000
  70
    32
  0
VERTEX
  8
FRAESBAHN_6MM
  5
599
 10
62.9032
 20
-18.8693
 30
0.000000
  70
    32
  0
VERTEX
  8
FRAESBAHN_6MM
  5
59A
 10
63.2343
 20
-18.5362
 30
0.000000
  70
    32
  0
VERTEX
  8
FRAESBAHN_6MM
  5
59B
 10
63.5594
 20
-18.1984
 30
0.000000
  70
    32
  0
VERTEX
  8
FRAESBAHN_6MM
  5
59C
 10
63.8784
 20
-17.8559
 30
0.000000
  70
    32
  0
VERTEX
  8
FRAESBAHN_6MM
  5
59D
 10
64.1914
 20
-17.5088
 30
0.000000
  70
    32
  0
VERTEX
  8
FRAESBAHN_6MM
  5
59E
 10
64.4982
 20
-17.1573
 30
0.000000
  70
    32
  0
VERTEX
  8
FRAESBAHN_6MM
  5
59F
 10
64.7988
 20
-16.8014
 30
0.000000
  70
    32
  0
VERTEX
  8
FRAESBAHN_6MM
  5
5A0
 10
65.0929
 20
-16.4412
 30
0.000000
  70
    32
  0
VERTEX
  8
FRAESBAHN_6MM
  5
5A1
 10
65.3807
 20
-16.0768
 30
0.000000
  70
    32
  0
VERTEX
  8
FRAESBAHN_6MM
  5
5A2
 10
65.6620
 20
-15.7082
 30
0.000000
  70
    32
  0
VERTEX
  8
FRAESBAHN_6MM
  5
5A3
 10
65.9368
 20
-15.3357
 30
0.000000
  70
    32
  0
VERTEX
  8
FRAESBAHN_6MM
  5
5A4
 10
66.2049
 20
-14.9592
 30
0.000000
  70
    32
  0
VERTEX
  8
FRAESBAHN_6MM
  5
5A5
 10
66.4663
 20
-14.5790
 30
0.000000
  70
    32
  0
SEQEND
  8
FRAESBAHN_6MM
  5
5A6
  0
POLYLINE
  5
119
  8
FRAESBAHN_6MM
 10
9.6970156178165858
 20
5.9041079048861178
 30
0.0
 66
     1
 70
     8
  0
VERTEX
  8
FRAESBAHN_6MM
  5
5A7
 10
9.69702
 20
5.90411
 30
0.000000
  70
    32
  0
VERTEX
  8
FRAESBAHN_6MM
  5
5A8
 10
9.67548
 20
5.81322
 30
0.000000
  70
    32
  0
VERTEX
  8
FRAESBAHN_6MM
  5
5A9
 10
9.65428
 20
5.72226
 30
0.000000
  70
    32
  0
VERTEX
  8
FRAESBAHN_6MM
  5
5AA
 10
9.63342
 20
5.63124
 30
0.000000
  70
    32
  0
VERTEX
  8
FRAESBAHN_6MM
  5
5AB
 10
9.61289
 20
5.54016
 30
0.000000
  70
    32
  0
VERTEX
  8
FRAESBAHN_6MM
  5
5AC
 10
9.59270
 20
5.44902
 30
0.000000
  70
    32
  0
VERTEX
  8
FRAESBAHN_6MM
  5
5AD
 10
9.57284
 20
5.35782
 30
0.000000
  70
    32
  0
VERTEX
  8
FRAESBAHN_6MM
  5
5AE
 10
9.55331
 20
5.26655
 30
0.000000
  70
    32
  0
VERTEX
  8
FRAESBAHN_6MM
  5
5AF
 10
9.53412
 20
5.17524
 30
0.000000
  70
    32
  0
VERTEX
  8
FRAESBAHN_6MM
  5
5B0
 10
9.51527
 20
5.08386
 30
0.000000
  70
    32
  0
VERTEX
  8
FRAESBAHN_6MM
  5
5B1
 10
9.49675
 20
4.99243
 30
0.000000
  70
    32
  0
VERTEX
  8
FRAESBAHN_6MM
  5
5B2
 10
9.47857
 20
4.90094
 30
0.000000
  70
    32
  0
VERTEX
  8
FRAESBAHN_6MM
  5
5B3
 10
9.46073
 20
4.80940
 30
0.000000
  70
    32
  0
VERTEX
  8
FRAESBAHN_6MM
  5
5B4
 10
9.44322
 20
4.71780
 30
0.000000
  70
    32
  0
VERTEX
  8
FRAESBAHN_6MM
  5
5B5
 10
9.42605
 20
4.62616
 30
0.000000
  70
    32
  0
VERTEX
  8
FRAESBAHN_6MM
  5
5B6
 10
9.40922
 20
4.53446
 30
0.000000
  70
    32
  0
VERTEX
  8
FRAESBAHN_6MM
  5
5B7
 10
9.39272
 20
4.44271
 30
0.000000
  70
    32
  0
VERTEX
  8
FRAESBAHN_6MM
  5
5B8
 10
9.37656
 20
4.35092
 30
0.000000
  70
    32
  0
VERTEX
  8
FRAESBAHN_6MM
  5
5B9
 10
9.36074
 20
4.25907
 30
0.000000
  70
    32
  0
VERTEX
  8
FRAESBAHN_6MM
  5
5BA
 10
9.34525
 20
4.16718
 30
0.000000
  70
    32
  0
VERTEX
  8
FRAESBAHN_6MM
  5
5BB
 10
9.33011
 20
4.07525
 30
0.000000
  70
    32
  0
VERTEX
  8
FRAESBAHN_6MM
  5
5BC
 10
9.31530
 20
3.98326
 30
0.000000
  70
    32
  0
VERTEX
  8
FRAESBAHN_6MM
  5
5BD
 10
9.30083
 20
3.89124
 30
0.000000
  70
    32
  0
VERTEX
  8
FRAESBAHN_6MM
  5
5BE
 10
9.28669
 20
3.79917
 30
0.000000
  70
    32
  0
VERTEX
  8
FRAESBAHN_6MM
  5
5BF
 10
9.27290
 20
3.70706
 30
0.000000
  70
    32
  0
VERTEX
  8
FRAESBAHN_6MM
  5
5C0
 10
9.25944
 20
3.61491
 30
0.000000
  70
    32
  0
VERTEX
  8
FRAESBAHN_6MM
  5
5C1
 10
9.24633
 20
3.52272
 30
0.000000
  70
    32
  0
VERTEX
  8
FRAESBAHN_6MM
  5
5C2
 10
9.23355
 20
3.43049
 30
0.000000
  70
    32
  0
VERTEX
  8
FRAESBAHN_6MM
  5
5C3
 10
9.22111
 20
3.33822
 30
0.000000
  70
    32
  0
VERTEX
  8
FRAESBAHN_6MM
  5
5C4
 10
9.20901
 20
3.24591
 30
0.000000
  70
    32
  0
VERTEX
  8
FRAESBAHN_6MM
  5
5C5
 10
9.19725
 20
3.15357
 30
0.000000
  70
    32
  0
VERTEX
  8
FRAESBAHN_6MM
  5
5C6
 10
9.18583
 20
3.06120
 30
0.000000
  70
    32
  0
VERTEX
  8
FRAESBAHN_6MM
  5
5C7
 10
9.17475
 20
2.96879
 30
0.000000
  70
    32
  0
VERTEX
  8
FRAESBAHN_6MM
  5
5C8
 10
9.16401
 20
2.87635
 30
0.000000
  70
    32
  0
VERTEX
  8
FRAESBAHN_6MM
  5
5C9
 10
9.15361
 20
2.78387
 30
0.000000
  70
    32
  0
VERTEX
  8
FRAESBAHN_6MM
  5
5CA
 10
9.14354
 20
2.69137
 30
0.000000
  70
    32
  0
VERTEX
  8
FRAESBAHN_6MM
  5
5CB
 10
9.13382
 20
2.59884
 30
0.000000
  70
    32
  0
VERTEX
  8
FRAESBAHN_6MM
  5
5CC
 10
9.12444
 20
2.50627
 30
0.000000
  70
    32
  0
VERTEX
  8
FRAESBAHN_6MM
  5
5CD
 10
9.11540
 20
2.41368
 30
0.000000
  70
    32
  0
VERTEX
  8
FRAESBAHN_6MM
  5
5CE
 10
9.10670
 20
2.32107
 30
0.000000
  70
    32
  0
VERTEX
  8
FRAESBAHN_6MM
  5
5CF
 10
9.09834
 20
2.22843
 30
0.000000
  70
    32
  0
VERTEX
  8
FRAESBAHN_6MM
  5
5D0
 10
9.09032
 20
2.13576
 30
0.000000
  70
    32
  0
VERTEX
  8
FRAESBAHN_6MM
  5
5D1
 10
9.08264
 20
2.04307
 30
0.000000
  70
    32
  0
VERTEX
  8
FRAESBAHN_6MM
  5
5D2
 10
9.07530
 20
1.95036
 30
0.000000
  70
    32
  0
VERTEX
  8
FRAESBAHN_6MM
  5
5D3
 10
9.06830
 20
1.85762
 30
0.000000
  70
    32
  0
VERTEX
  8
FRAESBAHN_6MM
  5
5D4
 10
9.06165
 20
1.76487
 30
0.000000
  70
    32
  0
VERTEX
  8
FRAESBAHN_6MM
  5
5D5
 10
9.05533
 20
1.67209
 30
0.000000
  70
    32
  0
VERTEX
  8
FRAESBAHN_6MM
  5
5D6
 10
9.04936
 20
1.57930
 30
0.000000
  70
    32
  0
VERTEX
  8
FRAESBAHN_6MM
  5
5D7
 10
9.04372
 20
1.48649
 30
0.000000
  70
    32
  0
VERTEX
  8
FRAESBAHN_6MM
  5
5D8
 10
9.03843
 20
1.39366
 30
0.000000
  70
    32
  0
VERTEX
  8
FRAESBAHN_6MM
  5
5D9
 10
9.03348
 20
1.30082
 30
0.000000
  70
    32
  0
VERTEX
  8
FRAESBAHN_6MM
  5
5DA
 10
9.02887
 20
1.20797
 30
0.000000
  70
    32
  0
VERTEX
  8
FRAESBAHN_6MM
  5
5DB
 10
9.02460
 20
1.11510
 30
0.000000
  70
    32
  0
VERTEX
  8
FRAESBAHN_6MM
  5
5DC
 10
9.02067
 20
1.02222
 30
0.000000
  70
    32
  0
VERTEX
  8
FRAESBAHN_6MM
  5
5DD
 10
9.01708
 20
0.929323
 30
0.000000
  70
    32
  0
VERTEX
  8
FRAESBAHN_6MM
  5
5DE
 10
9.01384
 20
0.836420
 30
0.000000
  70
    32
  0
VERTEX
  8
FRAESBAHN_6MM
  5
5DF
 10
9.01094
 20
0.743508
 30
0.000000
  70
    32
  0
VERTEX
  8
FRAESBAHN_6MM
  5
5E0
 10
9.00837
 20
0.650587
 30
0.000000
  70
    32
  0
VERTEX
  8
FRAESBAHN_6MM
  5
5E1
 10
9.00615
 20
0.557659
 30
0.000000
  70
    32
  0
VERTEX
  8
FRAESBAHN_6MM
  5
5E2
 10
9.00427
 20
0.464726
 30
0.000000
  70
    32
  0
VERTEX
  8
FRAESBAHN_6MM
  5
5E3
 10
9.00274
 20
0.371787
 30
0.000000
  70
    32
  0
VERTEX
  8
FRAESBAHN_6MM
  5
5E4
 10
9.00154
 20
0.278843
 30
0.000000
  70
    32
  0
VERTEX
  8
FRAESBAHN_6MM
  5
5E5
 10
9.00069
 20
0.185897
 30
0.000000
  70
    32
  0
VERTEX
  8
FRAESBAHN_6MM
  5
5E6
 10
9.00017
 20
0.0929492
 30
0.000000
  70
    32
  0
VERTEX
  8
FRAESBAHN_6MM
  5
5E7
 10
9.00000
 20
-1.25056e-011
 30
0.000000
  70
    32
  0
VERTEX
  8
FRAESBAHN_6MM
  5
5E8
 10
9.00017
 20
-0.0929492
 30
0.000000
  70
    32
  0
VERTEX
  8
FRAESBAHN_6MM
  5
5E9
 10
9.00069
 20
-0.185897
 30
0.000000
  70
    32
  0
VERTEX
  8
FRAESBAHN_6MM
  5
5EA
 10
9.00154
 20
-0.278843
 30
0.000000
  70
    32
  0
VERTEX
  8
FRAESBAHN_6MM
  5
5EB
 10
9.00274
 20
-0.371787
 30
0.000000
  70
    32
  0
VERTEX
  8
FRAESBAHN_6MM
  5
5EC
 10
9.00427
 20
-0.464726
 30
0.000000
  70
    32
  0
VERTEX
  8
FRAESBAHN_6MM
  5
5ED
 10
9.00615
 20
-0.557659
 30
0.000000
  70
    32
  0
VERTEX
  8
FRAESBAHN_6MM
  5
5EE
 10
9.00837
 20
-0.650587
 30
0.000000
  70
    32
  0
VERTEX
  8
FRAESBAHN_6MM
  5
5EF
 10
9.01094
 20
-0.743508
 30
0.000000
  70
    32
  0
VERTEX
  8
FRAESBAHN_6MM
  5
5F0
 10
9.01384
 20
-0.836420
 30
0.000000
  70
    32
  0
VERTEX
  8
FRAESBAHN_6MM
  5
5F1
 10
9.01708
 20
-0.929323
 30
0.000000
  70
    32
  0
VERTEX
  8
FRAESBAHN_6MM
  5
5F2
 10
9.02067
 20
-1.02222
 30
0.000000
  70
    32
  0
VERTEX
  8
FRAESBAHN_6MM
  5
5F3
 10
9.02460
 20
-1.11510
 30
0.000000
  70
    32
  0
VERTEX
  8
FRAESBAHN_6MM
  5
5F4
 10
9.02887
 20
-1.20797
 30
0.000000
  70
    32
  0
VERTEX
  8
FRAESBAHN_6MM
  5
5F5
 10
9.03348
 20
-1.30082
 30
0.000000
  70
    32
  0
VERTEX
  8
FRAESBAHN_6MM
  5
5F6
 10
9.03843
 20
-1.39366
 30
0.000000
  70
    32
  0
VERTEX
  8
FRAESBAHN_6MM
  5
5F7
 10
9.04372
 20
-1.48649
 30
0.000000
  70
    32
  0
VERTEX
  8
FRAESBAHN_6MM
  5
5F8
 10
9.04936
 20
-1.57930
 30
0.000000
  70
    32
  0
VERTEX
  8
FRAESBAHN_6MM
  5
5F9
 10
9.05533
 20
-1.67209
 30
0.000000
  70
    32
  0
VERTEX
  8
FRAESBAHN_6MM
  5
5FA
 10
9.06165
 20
-1.76487
 30
0.000000
  70
    32
  0
VERTEX
  8
FRAESBAHN_6MM
  5
5FB
 10
9.06830
 20
-1.85762
 30
0.000000
  70
    32
  0
VERTEX
  8
FRAESBAHN_6MM
  5
5FC
 10
9.07530
 20
-1.95036
 30
0.000000
  70
    32
  0
VERTEX
  8
FRAESBAHN_6MM
  5
5FD
 10
9.08264
 20
-2.04307
 30
0.000000
  70
    32
  0
VERTEX
  8
FRAESBAHN_6MM
  5
5FE
 10
9.09032
 20
-2.13576
 30
0.000000
  70
    32
  0
VERTEX
  8
FRAESBAHN_6MM
  5
5FF
 10
9.09834
 20
-2.22843
 30
0.000000
  70
    32
  0
VERTEX
  8
FRAESBAHN_6MM
  5
600
 10
9.10670
 20
-2.32107
 30
0.000000
  70
    32
  0
VERTEX
  8
FRAESBAHN_6MM
  5
601
 10
9.11540
 20
-2.41368
 30
0.000000
  70
    32
  0
VERTEX
  8
FRAESBAHN_6MM
  5
602
 10
9.12444
 20
-2.50627
 30
0.000000
  70
    32
  0
VERTEX
  8
FRAESBAHN_6MM
  5
603
 10
9.13382
 20
-2.59884
 30
0.000000
  70
    32
  0
VERTEX
  8
FRAESBAHN_6MM
  5
604
 10
9.14354
 20
-2.69137
 30
0.000000
  70
    32
  0
VERTEX
  8
FRAESBAHN_6MM
  5
605
 10
9.15361
 20
-2.78387
 30
0.000000
  70
    32
  0
VERTEX
  8
FRAESBAHN_6MM
  5
606
 10
9.16401
 20
-2.87635
 30
0.000000
  70
    32
  0
VERTEX
  8
FRAESBAHN_6MM
  5
607
 10
9.17475
 20
-2.96879
 30
0.000000
  70
    32
  0
VERTEX
  8
FRAESBAHN_6MM
  5
608
 10
9.18583
 20
-3.06120
 30
0.000000
  70
    32
  0
VERTEX
  8
FRAESBAHN_6MM
  5
609
 10
9.19725
 20
-3.15357
 30
0.000000
  70
    32
  0
VERTEX
  8
FRAESBAHN_6MM
  5
60A
 10
9.20901
 20
-3.24591
 30
0.000000
  70
    32
  0
VERTEX
  8
FRAESBAHN_6MM
  5
60B
 10
9.22111
 20
-3.33822
 30
0.000000
  70
    32
  0
VERTEX
  8
FRAESBAHN_6MM
  5
60C
 10
9.23355
 20
-3.43049
 30
0.000000
  70
    32
  0
VERTEX
  8
FRAESBAHN_6MM
  5
60D
 10
9.24633
 20
-3.52272
 30
0.000000
  70
    32
  0
VERTEX
  8
FRAESBAHN_6MM
  5
60E
 10
9.25944
 20
-3.61491
 30
0.000000
  70
    32
  0
VERTEX
  8
FRAESBAHN_6MM
  5
60F
 10
9.27290
 20
-3.70706
 30
0.000000
  70
    32
  0
VERTEX
  8
FRAESBAHN_6MM
  5
610
 10
9.28669
 20
-3.79917
 30
0.000000
  70
    32
  0
VERTEX
  8
FRAESBAHN_6MM
  5
611
 10
9.30083
 20
-3.89124
 30
0.000000
  70
    32
  0
VERTEX
  8
FRAESBAHN_6MM
  5
612
 10
9.31530
 20
-3.98326
 30
0.000000
  70
    32
  0
VERTEX
  8
FRAESBAHN_6MM
  5
613
 10
9.33011
 20
-4.07525
 30
0.000000
  70
    32
  0
VERTEX
  8
FRAESBAHN_6MM
  5
614
 10
9.34525
 20
-4.16718
 30
0.000000
  70
    32
  0
VERTEX
  8
FRAESBAHN_6MM
  5
615
 10
9.36074
 20
-4.25907
 30
0.000000
  70
    32
  0
VERTEX
  8
FRAESBAHN_6MM
  5
616
 10
9.37656
 20
-4.35092
 30
0.000000
  70
    32
  0
VERTEX
  8
FRAESBAHN_6MM
  5
617
 10
9.39272
 20
-4.44271
 30
0.000000
  70
    32
  0
VERTEX
  8
FRAESBAHN_6MM
  5
618
 10
9.40922
 20
-4.53446
 30
0.000000
  70
    32
  0
VERTEX
  8
FRAESBAHN_6MM
  5
619
 10
9.42605
 20
-4.62616
 30
0.000000
  70
    32
  0
VERTEX
  8
FRAESBAHN_6MM
  5
61A
 10
9.44322
 20
-4.71780
 30
0.000000
  70
    32
  0
VERTEX
  8
FRAESBAHN_6MM
  5
61B
 10
9.46073
 20
-4.80940
 30
0.000000
  70
    32
  0
VERTEX
  8
FRAESBAHN_6MM
  5
61C
 10
9.47857
 20
-4.90094
 30
0.000000
  70
    32
  0
VERTEX
  8
FRAESBAHN_6MM
  5
61D
 10
9.49675
 20
-4.99243
 30
0.000000
  70
    32
  0
VERTEX
  8
FRAESBAHN_6MM
  5
61E
 10
9.51527
 20
-5.08386
 30
0.000000
  70
    32
  0
VERTEX
  8
FRAESBAHN_6MM
  5
61F
 10
9.53412
 20
-5.17524
 30
0.000000
  70
    32
  0
VERTEX
  8
FRAESBAHN_6MM
  5
620
 10
9.55331
 20
-5.26655
 30
0.000000
  70
    32
  0
VERTEX
  8
FRAESBAHN_6MM
  5
621
 10
9.57284
 20
-5.35782
 30
0.000000
  70
    32
  0
VERTEX
  8
FRAESBAHN_6MM
  5
622
 10
9.59270
 20
-5.44902
 30
0.000000
  70
    32
  0
VERTEX
  8
FRAESBAHN_6MM
  5
623
 10
9.61289
 20
-5.54016
 30
0.000000
  70
    32
  0
VERTEX
  8
FRAESBAHN_6MM
  5
624
 10
9.63342
 20
-5.63124
 30
0.000000
  70
    32
  0
VERTEX
  8
FRAESBAHN_6MM
  5
625
 10
9.65428
 20
-5.72226
 30
0.000000
  70
    32
  0
VERTEX
  8
FRAESBAHN_6MM
  5
626
 10
9.67548
 20
-5.81322
 30
0.000000
  70
    32
  0
VERTEX
  8
FRAESBAHN_6MM
  5
627
 10
9.69702
 20
-5.90411
 30
0.000000
  70
    32
  0
SEQEND
  8
FRAESBAHN_6MM
  5
628
  0
POLYLINE
  5
11A
  8
FRAESBAHN_6MM
 10
66.466296239571022
 20
14.578956929602825
 30
0.0
 66
     1
 70
     8
  0
VERTEX
  8
FRAESBAHN_6MM
  5
629
 10
66.4663
 20
14.5790
 30
0.000000
  70
    32
  0
VERTEX
  8
FRAESBAHN_6MM
  5
62A
 10
66.2049
 20
14.9592
 30
0.000000
  70
    32
  0
VERTEX
  8
FRAESBAHN_6MM
  5
62B
 10
65.9368
 20
15.3357
 30
0.000000
  70
    32
  0
VERTEX
  8
FRAESBAHN_6MM
  5
62C
 10
65.6620
 20
15.7082
 30
0.000000
  70
    32
  0
VERTEX
  8
FRAESBAHN_6MM
  5
62D
 10
65.3807
 20
16.0768
 30
0.000000
  70
    32
  0
VERTEX
  8
FRAESBAHN_6MM
  5
62E
 10
65.0929
 20
16.4412
 30
0.000000
  70
    32
  0
VERTEX
  8
FRAESBAHN_6MM
  5
62F
 10
64.7988
 20
16.8014
 30
0.000000
  70
    32
  0
VERTEX
  8
FRAESBAHN_6MM
  5
630
 10
64.4982
 20
17.1573
 30
0.000000
  70
    32
  0
VERTEX
  8
FRAESBAHN_6MM
  5
631
 10
64.1914
 20
17.5088
 30
0.000000
  70
    32
  0
VERTEX
  8
FRAESBAHN_6MM
  5
632
 10
63.8784
 20
17.8559
 30
0.000000
  70
    32
  0
VERTEX
  8
FRAESBAHN_6MM
  5
633
 10
63.5594
 20
18.1984
 30
0.000000
  70
    32
  0
VERTEX
  8
FRAESBAHN_6MM
  5
634
 10
63.2343
 20
18.5362
 30
0.000000
  70
    32
  0
VERTEX
  8
FRAESBAHN_6MM
  5
635
 10
62.9032
 20
18.8693
 30
0.000000
  70
    32
  0
VERTEX
  8
FRAESBAHN_6MM
  5
636
 10
62.5663
 20
19.1976
 30
0.000000
  70
    32
  0
VERTEX
  8
FRAESBAHN_6MM
  5
637
 10
62.2237
 20
19.5210
 30
0.000000
  70
    32
  0
VERTEX
  8
FRAESBAHN_6MM
  5
638
 10
61.8753
 20
19.8394
 30
0.000000
  70
    32
  0
VERTEX
  8
FRAESBAHN_6MM
  5
639
 10
61.5214
 20
20.1527
 30
0.000000
  70
    32
  0
VERTEX
  8
FRAESBAHN_6MM
  5
63A
 10
61.1620
 20
20.4609
 30
0.000000
  70
    32
  0
VERTEX
  8
FRAESBAHN_6MM
  5
63B
 10
60.7971
 20
20.7638
 30
0.000000
  70
    32
  0
VERTEX
  8
FRAESBAHN_6MM
  5
63C
 10
60.4270
 20
21.0615
 30
0.000000
  70
    32
  0
VERTEX
  8
FRAESBAHN_6MM
  5
63D
 10
60.0516
 20
21.3537
 30
0.000000
  70
    32
  0
VERTEX
  8
FRAESBAHN_6MM
  5
63E
 10
59.6711
 20
21.6405
 30
0.000000
  70
    32
  0
VERTEX
  8
FRAESBAHN_6MM
  5
63F
 10
59.2856
 20
21.9218
 30
0.000000
  70
    32
  0
VERTEX
  8
FRAESBAHN_6MM
  5
640
 10
58.8951
 20
22.1974
 30
0.000000
  70
    32
  0
VERTEX
  8
FRAESBAHN_6MM
  5
641
 10
58.4998
 20
22.4674
 30
0.000000
  70
    32
  0
VERTEX
  8
FRAESBAHN_6MM
  5
642
 10
58.0998
 20
22.7317
 30
0.000000
  70
    32
  0
VERTEX
  8
FRAESBAHN_6MM
  5
643
 10
57.6952
 20
22.9901
 30
0.000000
  70
    32
  0
VERTEX
  8
FRAESBAHN_6MM
  5
644
 10
57.2860
 20
23.2427
 30
0.000000
  70
    32
  0
VERTEX
  8
FRAESBAHN_6MM
  5
645
 10
56.8724
 20
23.4893
 30
0.000000
  70
    32
  0
VERTEX
  8
FRAESBAHN_6MM
  5
646
 10
56.4545
 20
23.7299
 30
0.000000
  70
    32
  0
VERTEX
  8
FRAESBAHN_6MM
  5
647
 10
56.0324
 20
23.9645
 30
0.000000
  70
    32
  0
VERTEX
  8
FRAESBAHN_6MM
  5
648
 10
55.6062
 20
24.1929
 30
0.000000
  70
    32
  0
VERTEX
  8
FRAESBAHN_6MM
  5
649
 10
55.1761
 20
24.4151
 30
0.000000
  70
    32
  0
VERTEX
  8
FRAESBAHN_6MM
  5
64A
 10
54.7420
 20
24.6311
 30
0.000000
  70
    32
  0
VERTEX
  8
FRAESBAHN_6MM
  5
64B
 10
54.3042
 20
24.8409
 30
0.000000
  70
    32
  0
VERTEX
  8
FRAESBAHN_6MM
  5
64C
 10
53.8627
 20
25.0442
 30
0.000000
  70
    32
  0
VERTEX
  8
FRAESBAHN_6MM
  5
64D
 10
53.4177
 20
25.2412
 30
0.000000
  70
    32
  0
VERTEX
  8
FRAESBAHN_6MM
  5
64E
 10
52.9692
 20
25.4317
 30
0.000000
  70
    32
  0
VERTEX
  8
FRAESBAHN_6MM
  5
64F
 10
52.5174
 20
25.6157
 30
0.000000
  70
    32
  0
VERTEX
  8
FRAESBAHN_6MM
  5
650
 10
52.0625
 20
25.7932
 30
0.000000
  70
    32
  0
VERTEX
  8
FRAESBAHN_6MM
  5
651
 10
51.6044
 20
25.9640
 30
0.000000
  70
    32
  0
VERTEX
  8
FRAESBAHN_6MM
  5
652
 10
51.1434
 20
26.1283
 30
0.000000
  70
    32
  0
VERTEX
  8
FRAESBAHN_6MM
  5
653
 10
50.6795
 20
26.2858
 30
0.000000
  70
    32
  0
VERTEX
  8
FRAESBAHN_6MM
  5
654
 10
50.2129
 20
26.4367
 30
0.000000
  70
    32
  0
VERTEX
  8
FRAESBAHN_6MM
  5
655
 10
49.7437
 20
26.5808
 30
0.000000
  70
    32
  0
VERTEX
  8
FRAESBAHN_6MM
  5
656
 10
49.2720
 20
26.7180
 30
0.000000
  70
    32
  0
VERTEX
  8
FRAESBAHN_6MM
  5
657
 10
48.7980
 20
26.8485
 30
0.000000
  70
    32
  0
VERTEX
  8
FRAESBAHN_6MM
  5
658
 10
48.3217
 20
26.9721
 30
0.000000
  70
    32
  0
VERTEX
  8
FRAESBAHN_6MM
  5
659
 10
47.8432
 20
27.0888
 30
0.000000
  70
    32
  0
VERTEX
  8
FRAESBAHN_6MM
  5
65A
 10
47.3628
 20
27.1986
 30
0.000000
  70
    32
  0
VERTEX
  8
FRAESBAHN_6MM
  5
65B
 10
46.8804
 20
27.3014
 30
0.000000
  70
    32
  0
VERTEX
  8
FRAESBAHN_6MM
  5
65C
 10
46.3964
 20
27.3973
 30
0.000000
  70
    32
  0
VERTEX
  8
FRAESBAHN_6MM
  5
65D
 10
45.9106
 20
27.4862
 30
0.000000
  70
    32
  0
VERTEX
  8
FRAESBAHN_6MM
  5
65E
 10
45.4234
 20
27.5680
 30
0.000000
  70
    32
  0
VERTEX
  8
FRAESBAHN_6MM
  5
65F
 10
44.9348
 20
27.6428
 30
0.000000
  70
    32
  0
VERTEX
  8
FRAESBAHN_6MM
  5
660
 10
44.4449
 20
27.7105
 30
0.000000
  70
    32
  0
VERTEX
  8
FRAESBAHN_6MM
  5
661
 10
43.9539
 20
27.7711
 30
0.000000
  70
    32
  0
VERTEX
  8
FRAESBAHN_6MM
  5
662
 10
43.4619
 20
27.8247
 30
0.000000
  70
    32
  0
VERTEX
  8
FRAESBAHN_6MM
  5
663
 10
42.9690
 20
27.8711
 30
0.000000
  70
    32
  0
VERTEX
  8
FRAESBAHN_6MM
  5
664
 10
42.4753
 20
27.9104
 30
0.000000
  70
    32
  0
VERTEX
  8
FRAESBAHN_6MM
  5
665
 10
41.9810
 20
27.9426
 30
0.000000
  70
    32
  0
VERTEX
  8
FRAESBAHN_6MM
  5
666
 10
41.4862
 20
27.9676
 30
0.000000
  70
    32
  0
VERTEX
  8
FRAESBAHN_6MM
  5
667
 10
40.9910
 20
27.9855
 30
0.000000
  70
    32
  0
VERTEX
  8
FRAESBAHN_6MM
  5
668
 10
40.4956
 20
27.9962
 30
0.000000
  70
    32
  0
VERTEX
  8
FRAESBAHN_6MM
  5
669
 10
40.0000
 20
27.9998
 30
0.000000
  70
    32
  0
VERTEX
  8
FRAESBAHN_6MM
  5
66A
 10
39.5044
 20
27.9962
 30
0.000000
  70
    32
  0
VERTEX
  8
FRAESBAHN_6MM
  5
66B
 10
39.0090
 20
27.9855
 30
0.000000
  70
    32
  0
VERTEX
  8
FRAESBAHN_6MM
  5
66C
 10
38.5138
 20
27.9676
 30
0.000000
  70
    32
  0
VERTEX
  8
FRAESBAHN_6MM
  5
66D
 10
38.0190
 20
27.9426
 30
0.000000
  70
    32
  0
VERTEX
  8
FRAESBAHN_6MM
  5
66E
 10
37.5247
 20
27.9104
 30
0.000000
  70
    32
  0
VERTEX
  8
FRAESBAHN_6MM
  5
66F
 10
37.0310
 20
27.8711
 30
0.000000
  70
    32
  0
VERTEX
  8
FRAESBAHN_6MM
  5
670
 10
36.5381
 20
27.8247
 30
0.000000
  70
    32
  0
VERTEX
  8
FRAESBAHN_6MM
  5
671
 10
36.0461
 20
27.7711
 30
0.000000
  70
    32
  0
VERTEX
  8
FRAESBAHN_6MM
  5
672
 10
35.5551
 20
27.7105
 30
0.000000
  70
    32
  0
VERTEX
  8
FRAESBAHN_6MM
  5
673
 10
35.0652
 20
27.6428
 30
0.000000
  70
    32
  0
VERTEX
  8
FRAESBAHN_6MM
  5
674
 10
34.5766
 20
27.5680
 30
0.000000
  70
    32
  0
VERTEX
  8
FRAESBAHN_6MM
  5
675
 10
34.0894
 20
27.4862
 30
0.000000
  70
    32
  0
VERTEX
  8
FRAESBAHN_6MM
  5
676
 10
33.6036
 20
27.3973
 30
0.000000
  70
    32
  0
VERTEX
  8
FRAESBAHN_6MM
  5
677
 10
33.1196
 20
27.3014
 30
0.000000
  70
    32
  0
VERTEX
  8
FRAESBAHN_6MM
  5
678
 10
32.6372
 20
27.1986
 30
0.000000
  70
    32
  0
VERTEX
  8
FRAESBAHN_6MM
  5
679
 10
32.1568
 20
27.0888
 30
0.000000
  70
    32
  0
VERTEX
  8
FRAESBAHN_6MM
  5
67A
 10
31.6783
 20
26.9721
 30
0.000000
  70
    32
  0
VERTEX
  8
FRAESBAHN_6MM
  5
67B
 10
31.2020
 20
26.8485
 30
0.000000
  70
    32
  0
VERTEX
  8
FRAESBAHN_6MM
  5
67C
 10
30.7280
 20
26.7180
 30
0.000000
  70
    32
  0
VERTEX
  8
FRAESBAHN_6MM
  5
67D
 10
30.2563
 20
26.5808
 30
0.000000
  70
    32
  0
VERTEX
  8
FRAESBAHN_6MM
  5
67E
 10
29.7871
 20
26.4367
 30
0.000000
  70
    32
  0
VERTEX
  8
FRAESBAHN_6MM
  5
67F
 10
29.3205
 20
26.2858
 30
0.000000
  70
    32
  0
VERTEX
  8
FRAESBAHN_6MM
  5
680
 10
28.8566
 20
26.1283
 30
0.000000
  70
    32
  0
VERTEX
  8
FRAESBAHN_6MM
  5
681
 10
28.3956
 20
25.9640
 30
0.000000
  70
    32
  0
VERTEX
  8
FRAESBAHN_6MM
  5
682
 10
27.9375
 20
25.7932
 30
0.000000
  70
    32
  0
VERTEX
  8
FRAESBAHN_6MM
  5
683
 10
27.4826
 20
25.6157
 30
0.000000
  70
    32
  0
VERTEX
  8
FRAESBAHN_6MM
  5
684
 10
27.0308
 20
25.4317
 30
0.000000
  70
    32
  0
VERTEX
  8
FRAESBAHN_6MM
  5
685
 10
26.5823
 20
25.2412
 30
0.000000
  70
    32
  0
VERTEX
  8
FRAESBAHN_6MM
  5
686
 10
26.1373
 20
25.0442
 30
0.000000
  70
    32
  0
VERTEX
  8
FRAESBAHN_6MM
  5
687
 10
25.6958
 20
24.8409
 30
0.000000
  70
    32
  0
VERTEX
  8
FRAESBAHN_6MM
  5
688
 10
25.2580
 20
24.6311
 30
0.000000
  70
    32
  0
VERTEX
  8
FRAESBAHN_6MM
  5
689
 10
24.8239
 20
24.4151
 30
0.000000
  70
    32
  0
VERTEX
  8
FRAESBAHN_6MM
  5
68A
 10
24.3938
 20
24.1929
 30
0.000000
  70
    32
  0
VERTEX
  8
FRAESBAHN_6MM
  5
68B
 10
23.9676
 20
23.9645
 30
0.000000
  70
    32
  0
VERTEX
  8
FRAESBAHN_6MM
  5
68C
 10
23.5455
 20
23.7299
 30
0.000000
  70
    32
  0
VERTEX
  8
FRAESBAHN_6MM
  5
68D
 10
23.1276
 20
23.4893
 30
0.000000
  70
    32
  0
VERTEX
  8
FRAESBAHN_6MM
  5
68E
 10
22.7140
 20
23.2427
 30
0.000000
  70
    32
  0
VERTEX
  8
FRAESBAHN_6MM
  5
68F
 10
22.3048
 20
22.9901
 30
0.000000
  70
    32
  0
VERTEX
  8
FRAESBAHN_6MM
  5
690
 10
21.9002
 20
22.7317
 30
0.000000
  70
    32
  0
VERTEX
  8
FRAESBAHN_6MM
  5
691
 10
21.5002
 20
22.4674
 30
0.000000
  70
    32
  0
VERTEX
  8
FRAESBAHN_6MM
  5
692
 10
21.1049
 20
22.1974
 30
0.000000
  70
    32
  0
VERTEX
  8
FRAESBAHN_6MM
  5
693
 10
20.7144
 20
21.9218
 30
0.000000
  70
    32
  0
VERTEX
  8
FRAESBAHN_6MM
  5
694
 10
20.3289
 20
21.6405
 30
0.000000
  70
    32
  0
VERTEX
  8
FRAESBAHN_6MM
  5
695
 10
19.9484
 20
21.3537
 30
0.000000
  70
    32
  0
VERTEX
  8
FRAESBAHN_6MM
  5
696
 10
19.5730
 20
21.0615
 30
0.000000
  70
    32
  0
VERTEX
  8
FRAESBAHN_6MM
  5
697
 10
19.2029
 20
20.7638
 30
0.000000
  70
    32
  0
VERTEX
  8
FRAESBAHN_6MM
  5
698
 10
18.8380
 20
20.4609
 30
0.000000
  70
    32
  0
VERTEX
  8
FRAESBAHN_6MM
  5
699
 10
18.4786
 20
20.1527
 30
0.000000
  70
    32
  0
VERTEX
  8
FRAESBAHN_6MM
  5
69A
 10
18.1247
 20
19.8394
 30
0.000000
  70
    32
  0
VERTEX
  8
FRAESBAHN_6MM
  5
69B
 10
17.7763
 20
19.5210
 30
0.000000
  70
    32
  0
VERTEX
  8
FRAESBAHN_6MM
  5
69C
 10
17.4337
 20
19.1976
 30
0.000000
  70
    32
  0
VERTEX
  8
FRAESBAHN_6MM
  5
69D
 10
17.0968
 20
18.8693
 30
0.000000
  70
    32
  0
VERTEX
  8
FRAESBAHN_6MM
  5
69E
 10
16.7657
 20
18.5362
 30
0.000000
  70
    32
  0
VERTEX
  8
FRAESBAHN_6MM
  5
69F
 10
16.4406
 20
18.1984
 30
0.000000
  70
    32
  0
VERTEX
  8
FRAESBAHN_6MM
  5
6A0
 10
16.1216
 20
17.8559
 30
0.000000
  70
    32
  0
VERTEX
  8
FRAESBAHN_6MM
  5
6A1
 10
15.8086
 20
17.5088
 30
0.000000
  70
    32
  0
VERTEX
  8
FRAESBAHN_6MM
  5
6A2
 10
15.5018
 20
17.1573
 30
0.000000
  70
    32
  0
VERTEX
  8
FRAESBAHN_6MM
  5
6A3
 10
15.2012
 20
16.8014
 30
0.000000
  70
    32
  0
VERTEX
  8
FRAESBAHN_6MM
  5
6A4
 10
14.9071
 20
16.4412
 30
0.000000
  70
    32
  0
VERTEX
  8
FRAESBAHN_6MM
  5
6A5
 10
14.6193
 20
16.0768
 30
0.000000
  70
    32
  0
VERTEX
  8
FRAESBAHN_6MM
  5
6A6
 10
14.3380
 20
15.7082
 30
0.000000
  70
    32
  0
VERTEX
  8
FRAESBAHN_6MM
  5
6A7
 10
14.0632
 20
15.3357
 30
0.000000
  70
    32
  0
VERTEX
  8
FRAESBAHN_6MM
  5
6A8
 10
13.7951
 20
14.9592
 30
0.000000
  70
    32
  0
VERTEX
  8
FRAESBAHN_6MM
  5
6A9
 10
13.5337
 20
14.5790
 30
0.000000
  70
    32
  0
SEQEND
  8
FRAESBAHN_6MM
  5
6AA
  0
POLYLINE
  5
11B
  8
FRAESBAHN_6MM
 10
70.302984382177556
 20
-5.9041079049106244
 30
0.0
 66
     1
 70
     8
  0
VERTEX
  8
FRAESBAHN_6MM
  5
6AB
 10
70.3030
 20
-5.90411
 30
0.000000
  70
    32
  0
VERTEX
  8
FRAESBAHN_6MM
  5
6AC
 10
70.3245
 20
-5.81322
 30
0.000000
  70
    32
  0
VERTEX
  8
FRAESBAHN_6MM
  5
6AD
 10
70.3457
 20
-5.72226
 30
0.000000
  70
    32
  0
VERTEX
  8
FRAESBAHN_6MM
  5
6AE
 10
70.3666
 20
-5.63124
 30
0.000000
  70
    32
  0
VERTEX
  8
FRAESBAHN_6MM
  5
6AF
 10
70.3871
 20
-5.54016
 30
0.000000
  70
    32
  0
VERTEX
  8
FRAESBAHN_6MM
  5
6B0
 10
70.4073
 20
-5.44902
 30
0.000000
  70
    32
  0
VERTEX
  8
FRAESBAHN_6MM
  5
6B1
 10
70.4272
 20
-5.35782
 30
0.000000
  70
    32
  0
VERTEX
  8
FRAESBAHN_6MM
  5
6B2
 10
70.4467
 20
-5.26655
 30
0.000000
  70
    32
  0
VERTEX
  8
FRAESBAHN_6MM
  5
6B3
 10
70.4659
 20
-5.17524
 30
0.000000
  70
    32
  0
VERTEX
  8
FRAESBAHN_6MM
  5
6B4
 10
70.4847
 20
-5.08386
 30
0.000000
  70
    32
  0
VERTEX
  8
FRAESBAHN_6MM
  5
6B5
 10
70.5032
 20
-4.99243
 30
0.000000
  70
    32
  0
VERTEX
  8
FRAESBAHN_6MM
  5
6B6
 10
70.5214
 20
-4.90094
 30
0.000000
  70
    32
  0
VERTEX
  8
FRAESBAHN_6MM
  5
6B7
 10
70.5393
 20
-4.80940
 30
0.000000
  70
    32
  0
VERTEX
  8
FRAESBAHN_6MM
  5
6B8
 10
70.5568
 20
-4.71780
 30
0.000000
  70
    32
  0
VERTEX
  8
FRAESBAHN_6MM
  5
6B9
 10
70.5739
 20
-4.62616
 30
0.000000
  70
    32
  0
VERTEX
  8
FRAESBAHN_6MM
  5
6BA
 10
70.5908
 20
-4.53446
 30
0.000000
  70
    32
  0
VERTEX
  8
FRAESBAHN_6MM
  5
6BB
 10
70.6073
 20
-4.44271
 30
0.000000
  70
    32
  0
VERTEX
  8
FRAESBAHN_6MM
  5
6BC
 10
70.6234
 20
-4.35092
 30
0.000000
  70
    32
  0
VERTEX
  8
FRAESBAHN_6MM
  5
6BD
 10
70.6393
 20
-4.25907
 30
0.000000
  70
    32
  0
VERTEX
  8
FRAESBAHN_6MM
  5
6BE
 10
70.6547
 20
-4.16718
 30
0.000000
  70
    32
  0
VERTEX
  8
FRAESBAHN_6MM
  5
6BF
 10
70.6699
 20
-4.07525
 30
0.000000
  70
    32
  0
VERTEX
  8
FRAESBAHN_6MM
  5
6C0
 10
70.6847
 20
-3.98326
 30
0.000000
  70
    32
  0
VERTEX
  8
FRAESBAHN_6MM
  5
6C1
 10
70.6992
 20
-3.89124
 30
0.000000
  70
    32
  0
VERTEX
  8
FRAESBAHN_6MM
  5
6C2
 10
70.7133
 20
-3.79917
 30
0.000000
  70
    32
  0
VERTEX
  8
FRAESBAHN_6MM
  5
6C3
 10
70.7271
 20
-3.70706
 30
0.000000
  70
    32
  0
VERTEX
  8
FRAESBAHN_6MM
  5
6C4
 10
70.7406
 20
-3.61491
 30
0.000000
  70
    32
  0
VERTEX
  8
FRAESBAHN_6MM
  5
6C5
 10
70.7537
 20
-3.52272
 30
0.000000
  70
    32
  0
VERTEX
  8
FRAESBAHN_6MM
  5
6C6
 10
70.7665
 20
-3.43049
 30
0.000000
  70
    32
  0
VERTEX
  8
FRAESBAHN_6MM
  5
6C7
 10
70.7789
 20
-3.33822
 30
0.000000
  70
    32
  0
VERTEX
  8
FRAESBAHN_6MM
  5
6C8
 10
70.7910
 20
-3.24591
 30
0.000000
  70
    32
  0
VERTEX
  8
FRAESBAHN_6MM
  5
6C9
 10
70.8027
 20
-3.15357
 30
0.000000
  70
    32
  0
VERTEX
  8
FRAESBAHN_6MM
  5
6CA
 10
70.8142
 20
-3.06120
 30
0.000000
  70
    32
  0
VERTEX
  8
FRAESBAHN_6MM
  5
6CB
 10
70.8253
 20
-2.96879
 30
0.000000
  70
    32
  0
VERTEX
  8
FRAESBAHN_6MM
  5
6CC
 10
70.8360
 20
-2.87635
 30
0.000000
  70
    32
  0
VERTEX
  8
FRAESBAHN_6MM
  5
6CD
 10
70.8464
 20
-2.78387
 30
0.000000
  70
    32
  0
VERTEX
  8
FRAESBAHN_6MM
  5
6CE
 10
70.8565
 20
-2.69137
 30
0.000000
  70
    32
  0
VERTEX
  8
FRAESBAHN_6MM
  5
6CF
 10
70.8662
 20
-2.59884
 30
0.000000
  70
    32
  0
VERTEX
  8
FRAESBAHN_6MM
  5
6D0
 10
70.8756
 20
-2.50627
 30
0.000000
  70
    32
  0
VERTEX
  8
FRAESBAHN_6MM
  5
6D1
 10
70.8846
 20
-2.41368
 30
0.000000
  70
    32
  0
VERTEX
  8
FRAESBAHN_6MM
  5
6D2
 10
70.8933
 20
-2.32107
 30
0.000000
  70
    32
  0
VERTEX
  8
FRAESBAHN_6MM
  5
6D3
 10
70.9017
 20
-2.22843
 30
0.000000
  70
    32
  0
VERTEX
  8
FRAESBAHN_6MM
  5
6D4
 10
70.9097
 20
-2.13576
 30
0.000000
  70
    32
  0
VERTEX
  8
FRAESBAHN_6MM
  5
6D5
 10
70.9174
 20
-2.04307
 30
0.000000
  70
    32
  0
VERTEX
  8
FRAESBAHN_6MM
  5
6D6
 10
70.9247
 20
-1.95036
 30
0.000000
  70
    32
  0
VERTEX
  8
FRAESBAHN_6MM
  5
6D7
 10
70.9317
 20
-1.85762
 30
0.000000
  70
    32
  0
VERTEX
  8
FRAESBAHN_6MM
  5
6D8
 10
70.9384
 20
-1.76487
 30
0.000000
  70
    32
  0
VERTEX
  8
FRAESBAHN_6MM
  5
6D9
 10
70.9447
 20
-1.67209
 30
0.000000
  70
    32
  0
VERTEX
  8
FRAESBAHN_6MM
  5
6DA
 10
70.9506
 20
-1.57930
 30
0.000000
  70
    32
  0
VERTEX
  8
FRAESBAHN_6MM
  5
6DB
 10
70.9563
 20
-1.48649
 30
0.000000
  70
    32
  0
VERTEX
  8
FRAESBAHN_6MM
  5
6DC
 10
70.9616
 20
-1.39366
 30
0.000000
  70
    32
  0
VERTEX
  8
FRAESBAHN_6MM
  5
6DD
 10
70.9665
 20
-1.30082
 30
0.000000
  70
    32
  0
VERTEX
  8
FRAESBAHN_6MM
  5
6DE
 10
70.9711
 20
-1.20797
 30
0.000000
  70
    32
  0
VERTEX
  8
FRAESBAHN_6MM
  5
6DF
 10
70.9754
 20
-1.11510
 30
0.000000
  70
    32
  0
VERTEX
  8
FRAESBAHN_6MM
  5
6E0
 10
70.9793
 20
-1.02222
 30
0.000000
  70
    32
  0
VERTEX
  8
FRAESBAHN_6MM
  5
6E1
 10
70.9829
 20
-0.929323
 30
0.000000
  70
    32
  0
VERTEX
  8
FRAESBAHN_6MM
  5
6E2
 10
70.9862
 20
-0.836420
 30
0.000000
  70
    32
  0
VERTEX
  8
FRAESBAHN_6MM
  5
6E3
 10
70.9891
 20
-0.743508
 30
0.000000
  70
    32
  0
VERTEX
  8
FRAESBAHN_6MM
  5
6E4
 10
70.9916
 20
-0.650587
 30
0.000000
  70
    32
  0
VERTEX
  8
FRAESBAHN_6MM
  5
6E5
 10
70.9938
 20
-0.557659
 30
0.000000
  70
    32
  0
VERTEX
  8
FRAESBAHN_6MM
  5
6E6
 10
70.9957
 20
-0.464726
 30
0.000000
  70
    32
  0
VERTEX
  8
FRAESBAHN_6MM
  5
6E7
 10
70.9973
 20
-0.371787
 30
0.000000
  70
    32
  0
VERTEX
  8
FRAESBAHN_6MM
  5
6E8
 10
70.9985
 20
-0.278843
 30
0.000000
  70
    32
  0
VERTEX
  8
FRAESBAHN_6MM
  5
6E9
 10
70.9993
 20
-0.185897
 30
0.000000
  70
    32
  0
VERTEX
  8
FRAESBAHN_6MM
  5
6EA
 10
70.9998
 20
-0.0929492
 30
0.000000
  70
    32
  0
VERTEX
  8
FRAESBAHN_6MM
  5
6EB
 10
71.0000
 20
4.97377e-014
 30
0.000000
  70
    32
  0
VERTEX
  8
FRAESBAHN_6MM
  5
6EC
 10
70.9998
 20
0.0929492
 30
0.000000
  70
    32
  0
VERTEX
  8
FRAESBAHN_6MM
  5
6ED
 10
70.9993
 20
0.185897
 30
0.000000
  70
    32
  0
VERTEX
  8
FRAESBAHN_6MM
  5
6EE
 10
70.9985
 20
0.278843
 30
0.000000
  70
    32
  0
VERTEX
  8
FRAESBAHN_6MM
  5
6EF
 10
70.9973
 20
0.371787
 30
0.000000
  70
    32
  0
VERTEX
  8
FRAESBAHN_6MM
  5
6F0
 10
70.9957
 20
0.464726
 30
0.000000
  70
    32
  0
VERTEX
  8
FRAESBAHN_6MM
  5
6F1
 10
70.9938
 20
0.557659
 30
0.000000
  70
    32
  0
VERTEX
  8
FRAESBAHN_6MM
  5
6F2
 10
70.9916
 20
0.650587
 30
0.000000
  70
    32
  0
VERTEX
  8
FRAESBAHN_6MM
  5
6F3
 10
70.9891
 20
0.743508
 30
0.000000
  70
    32
  0
VERTEX
  8
FRAESBAHN_6MM
  5
6F4
 10
70.9862
 20
0.836420
 30
0.000000
  70
    32
  0
VERTEX
  8
FRAESBAHN_6MM
  5
6F5
 10
70.9829
 20
0.929323
 30
0.000000
  70
    32
  0
VERTEX
  8
FRAESBAHN_6MM
  5
6F6
 10
70.9793
 20
1.02222
 30
0.000000
  70
    32
  0
VERTEX
  8
FRAESBAHN_6MM
  5
6F7
 10
70.9754
 20
1.11510
 30
0.000000
  70
    32
  0
VERTEX
  8
FRAESBAHN_6MM
  5
6F8
 10
70.9711
 20
1.20797
 30
0.000000
  70
    32
  0
VERTEX
  8
FRAESBAHN_6MM
  5
6F9
 10
70.9665
 20
1.30082
 30
0.000000
  70
    32
  0
VERTEX
  8
FRAESBAHN_6MM
  5
6FA
 10
70.9616
 20
1.39366
 30
0.000000
  70
    32
  0
VERTEX
  8
FRAESBAHN_6MM
  5
6FB
 10
70.9563
 20
1.48649
 30
0.000000
  70
    32
  0
VERTEX
  8
FRAESBAHN_6MM
  5
6FC
 10
70.9506
 20
1.57930
 30
0.000000
  70
    32
  0
VERTEX
  8
FRAESBAHN_6MM
  5
6FD
 10
70.9447
 20
1.67209
 30
0.000000
  70
    32
  0
VERTEX
  8
FRAESBAHN_6MM
  5
6FE
 10
70.9384
 20
1.76487
 30
0.000000
  70
    32
  0
VERTEX
  8
FRAESBAHN_6MM
  5
6FF
 10
70.9317
 20
1.85762
 30
0.000000
  70
    32
  0
VERTEX
  8
FRAESBAHN_6MM
  5
700
 10
70.9247
 20
1.95036
 30
0.000000
  70
    32
  0
VERTEX
  8
FRAESBAHN_6MM
  5
701
 10
70.9174
 20
2.04307
 30
0.000000
  70
    32
  0
VERTEX
  8
FRAESBAHN_6MM
  5
702
 10
70.9097
 20
2.13576
 30
0.000000
  70
    32
  0
VERTEX
  8
FRAESBAHN_6MM
  5
703
 10
70.9017
 20
2.22843
 30
0.000000
  70
    32
  0
VERTEX
  8
FRAESBAHN_6MM
  5
704
 10
70.8933
 20
2.32107
 30
0.000000
  70
    32
  0
VERTEX
  8
FRAESBAHN_6MM
  5
705
 10
70.8846
 20
2.41368
 30
0.000000
  70
    32
  0
VERTEX
  8
FRAESBAHN_6MM
  5
706
 10
70.8756
 20
2.50627
 30
0.000000
  70
    32
  0
VERTEX
  8
FRAESBAHN_6MM
  5
707
 10
70.8662
 20
2.59884
 30
0.000000
  70
    32
  0
VERTEX
  8
FRAESBAHN_6MM
  5
708
 10
70.8565
 20
2.69137
 30
0.000000
  70
    32
  0
VERTEX
  8
FRAESBAHN_6MM
  5
709
 10
70.8464
 20
2.78387
 30
0.000000
  70
    32
  0
VERTEX
  8
FRAESBAHN_6MM
  5
70A
 10
70.8360
 20
2.87635
 30
0.000000
  70
    32
  0
VERTEX
  8
FRAESBAHN_6MM
  5
70B
 10
70.8253
 20
2.96879
 30
0.000000
  70
    32
  0
VERTEX
  8
FRAESBAHN_6MM
  5
70C
 10
70.8142
 20
3.06120
 30
0.000000
  70
    32
  0
VERTEX
  8
FRAESBAHN_6MM
  5
70D
 10
70.8027
 20
3.15357
 30
0.000000
  70
    32
  0
VERTEX
  8
FRAESBAHN_6MM
  5
70E
 10
70.7910
 20
3.24591
 30
0.000000
  70
    32
  0
VERTEX
  8
FRAESBAHN_6MM
  5
70F
 10
70.7789
 20
3.33822
 30
0.000000
  70
    32
  0
VERTEX
  8
FRAESBAHN_6MM
  5
710
 10
70.7665
 20
3.43049
 30
0.000000
  70
    32
  0
VERTEX
  8
FRAESBAHN_6MM
  5
711
 10
70.7537
 20
3.52272
 30
0.000000
  70
    32
  0
VERTEX
  8
FRAESBAHN_6MM
  5
712
 10
70.7406
 20
3.61491
 30
0.000000
  70
    32
  0
VERTEX
  8
FRAESBAHN_6MM
  5
713
 10
70.7271
 20
3.70706
 30
0.000000
  70
    32
  0
VERTEX
  8
FRAESBAHN_6MM
  5
714
 10
70.7133
 20
3.79917
 30
0.000000
  70
    32
  0
VERTEX
  8
FRAESBAHN_6MM
  5
715
 10
70.6992
 20
3.89124
 30
0.000000
  70
    32
  0
VERTEX
  8
FRAESBAHN_6MM
  5
716
 10
70.6847
 20
3.98326
 30
0.000000
  70
    32
  0
VERTEX
  8
FRAESBAHN_6MM
  5
717
 10
70.6699
 20
4.07525
 30
0.000000
  70
    32
  0
VERTEX
  8
FRAESBAHN_6MM
  5
718
 10
70.6547
 20
4.16718
 30
0.000000
  70
    32
  0
VERTEX
  8
FRAESBAHN_6MM
  5
719
 10
70.6393
 20
4.25907
 30
0.000000
  70
    32
  0
VERTEX
  8
FRAESBAHN_6MM
  5
71A
 10
70.6234
 20
4.35092
 30
0.000000
  70
    32
  0
VERTEX
  8
FRAESBAHN_6MM
  5
71B
 10
70.6073
 20
4.44271
 30
0.000000
  70
    32
  0
VERTEX
  8
FRAESBAHN_6MM
  5
71C
 10
70.5908
 20
4.53446
 30
0.000000
  70
    32
  0
VERTEX
  8
FRAESBAHN_6MM
  5
71D
 10
70.5739
 20
4.62616
 30
0.000000
  70
    32
  0
VERTEX
  8
FRAESBAHN_6MM
  5
71E
 10
70.5568
 20
4.71780
 30
0.000000
  70
    32
  0
VERTEX
  8
FRAESBAHN_6MM
  5
71F
 10
70.5393
 20
4.80940
 30
0.000000
  70
    32
  0
VERTEX
  8
FRAESBAHN_6MM
  5
720
 10
70.5214
 20
4.90094
 30
0.000000
  70
    32
  0
VERTEX
  8
FRAESBAHN_6MM
  5
721
 10
70.5032
 20
4.99243
 30
0.000000
  70
    32
  0
VERTEX
  8
FRAESBAHN_6MM
  5
722
 10
70.4847
 20
5.08386
 30
0.000000
  70
    32
  0
VERTEX
  8
FRAESBAHN_6MM
  5
723
 10
70.4659
 20
5.17524
 30
0.000000
  70
    32
  0
VERTEX
  8
FRAESBAHN_6MM
  5
724
 10
70.4467
 20
5.26655
 30
0.000000
  70
    32
  0
VERTEX
  8
FRAESBAHN_6MM
  5
725
 10
70.4272
 20
5.35782
 30
0.000000
  70
    32
  0
VERTEX
  8
FRAESBAHN_6MM
  5
726
 10
70.4073
 20
5.44902
 30
0.000000
  70
    32
  0
VERTEX
  8
FRAESBAHN_6MM
  5
727
 10
70.3871
 20
5.54016
 30
0.000000
  70
    32
  0
VERTEX
  8
FRAESBAHN_6MM
  5
728
 10
70.3666
 20
5.63124
 30
0.000000
  70
    32
  0
VERTEX
  8
FRAESBAHN_6MM
  5
729
 10
70.3457
 20
5.72226
 30
0.000000
  70
    32
  0
VERTEX
  8
FRAESBAHN_6MM
  5
72A
 10
70.3245
 20
5.81322
 30
0.000000
  70
    32
  0
VERTEX
  8
FRAESBAHN_6MM
  5
72B
 10
70.3030
 20
5.90411
 30
0.000000
  70
    32
  0
SEQEND
  8
FRAESBAHN_6MM
  5
72C
  0
POLYLINE
  8
FRAESBAHN_6MM
  5
72D
  66
     1
 10
0.000000
 20
0.000000
 30
0.000000
  70
     8
  0
VERTEX
  8
FRAESBAHN_6MM
  5
72E
 10
15.6450
 20
-29.6018
 30
0.000000
  70
    32
  0
VERTEX
  8
FRAESBAHN_6MM
  5
72F
 10
15.7388
 20
-29.6677
 30
0.000000
  70
    32
  0
VERTEX
  8
FRAESBAHN_6MM
  5
730
 10
15.8328
 20
-29.7333
 30
0.000000
  70
    32
  0
VERTEX
  8
FRAESBAHN_6MM
  5
731
 10
15.9270
 20
-29.7987
 30
0.000000
  70
    32
  0
VERTEX
  8
FRAESBAHN_6MM
  5
732
 10
16.0215
 20
-29.8638
 30
0.000000
  70
    32
  0
VERTEX
  8
FRAESBAHN_6MM
  5
733
 10
16.1161
 20
-29.9286
 30
0.000000
  70
    32
  0
VERTEX
  8
FRAESBAHN_6MM
  5
734
 10
16.2109
 20
-29.9932
 30
0.000000
  70
    32
  0
VERTEX
  8
FRAESBAHN_6MM
  5
735
 10
16.3059
 20
-30.0575
 30
0.000000
  70
    32
  0
VERTEX
  8
FRAESBAHN_6MM
  5
736
 10
16.4011
 20
-30.1215
 30
0.000000
  70
    32
  0
VERTEX
  8
FRAESBAHN_6MM
  5
737
 10
16.4966
 20
-30.1853
 30
0.000000
  70
    32
  0
VERTEX
  8
FRAESBAHN_6MM
  5
738
 10
16.5922
 20
-30.2488
 30
0.000000
  70
    32
  0
VERTEX
  8
FRAESBAHN_6MM
  5
739
 10
16.6879
 20
-30.3121
 30
0.000000
  70
    32
  0
VERTEX
  8
FRAESBAHN_6MM
  5
73A
 10
16.7839
 20
-30.3751
 30
0.000000
  70
    32
  0
VERTEX
  8
FRAESBAHN_6MM
  5
73B
 10
16.8801
 20
-30.4378
 30
0.000000
  70
    32
  0
VERTEX
  8
FRAESBAHN_6MM
  5
73C
 10
16.9765
 20
-30.5002
 30
0.000000
  70
    32
  0
VERTEX
  8
FRAESBAHN_6MM
  5
73D
 10
17.0730
 20
-30.5624
 30
0.000000
  70
    32
  0
VERTEX
  8
FRAESBAHN_6MM
  5
73E
 10
17.1698
 20
-30.6243
 30
0.000000
  70
    32
  0
VERTEX
  8
FRAESBAHN_6MM
  5
73F
 10
17.2667
 20
-30.6860
 30
0.000000
  70
    32
  0
VERTEX
  8
FRAESBAHN_6MM
  5
740
 10
17.3638
 20
-30.7473
 30
0.000000
  70
    32
  0
VERTEX
  8
FRAESBAHN_6MM
  5
741
 10
17.4611
 20
-30.8085
 30
0.000000
  70
    32
  0
VERTEX
  8
FRAESBAHN_6MM
  5
742
 10
17.5586
 20
-30.8693
 30
0.000000
  70
    32
  0
VERTEX
  8
FRAESBAHN_6MM
  5
743
 10
17.6563
 20
-30.9299
 30
0.000000
  70
    32
  0
VERTEX
  8
FRAESBAHN_6MM
  5
744
 10
17.7542
 20
-30.9902
 30
0.000000
  70
    32
  0
VERTEX
  8
FRAESBAHN_6MM
  5
745
 10
17.8522
 20
-31.0502
 30
0.000000
  70
    32
  0
VERTEX
  8
FRAESBAHN_6MM
  5
746
 10
17.9504
 20
-31.1100
 30
0.000000
  70
    32
  0
VERTEX
  8
FRAESBAHN_6MM
  5
747
 10
18.0488
 20
-31.1695
 30
0.000000
  70
    32
  0
VERTEX
  8
FRAESBAHN_6MM
  5
748
 10
18.1474
 20
-31.2287
 30
0.000000
  70
    32
  0
VERTEX
  8
FRAESBAHN_6MM
  5
749
 10
18.2462
 20
-31.2876
 30
0.000000
  70
    32
  0
VERTEX
  8
FRAESBAHN_6MM
  5
74A
 10
18.3451
 20
-31.3463
 30
0.000000
  70
    32
  0
VERTEX
  8
FRAESBAHN_6MM
  5
74B
 10
18.4442
 20
-31.4047
 30
0.000000
  70
    32
  0
VERTEX
  8
FRAESBAHN_6MM
  5
74C
 10
18.5435
 20
-31.4628
 30
0.000000
  70
    32
  0
VERTEX
  8
FRAESBAHN_6MM
  5
74D
 10
18.6430
 20
-31.5207
 30
0.000000
  70
    32
  0
VERTEX
  8
FRAESBAHN_6MM
  5
74E
 10
18.7426
 20
-31.5783
 30
0.000000
  70
    32
  0
VERTEX
  8
FRAESBAHN_6MM
  5
74F
 10
18.8424
 20
-31.6356
 30
0.000000
  70
    32
  0
VERTEX
  8
FRAESBAHN_6MM
  5
750
 10
18.9424
 20
-31.6926
 30
0.000000
  70
    32
  0
VERTEX
  8
FRAESBAHN_6MM
  5
751
 10
19.0426
 20
-31.7494
 30
0.000000
  70
    32
  0
VERTEX
  8
FRAESBAHN_6MM
  5
752
 10
19.1429
 20
-31.8059
 30
0.000000
  70
    32
  0
VERTEX
  8
FRAESBAHN_6MM
  5
753
 10
19.2434
 20
-31.8621
 30
0.000000
  70
    32
  0
VERTEX
  8
FRAESBAHN_6MM
  5
754
 10
19.3441
 20
-31.9180
 30
0.000000
  70
    32
  0
VERTEX
  8
FRAESBAHN_6MM
  5
755
 10
19.4449
 20
-31.9737
 30
0.000000
  70
    32
  0
VERTEX
  8
FRAESBAHN_6MM
  5
756
 10
19.5459
 20
-32.0290
 30
0.000000
  70
    32
  0
VERTEX
  8
FRAESBAHN_6MM
  5
757
 10
19.6471
 20
-32.0841
 30
0.000000
  70
    32
  0
VERTEX
  8
FRAESBAHN_6MM
  5
758
 10
19.7484
 20
-32.1390
 30
0.000000
  70
    32
  0
VERTEX
  8
FRAESBAHN_6MM
  5
759
 10
19.8499
 20
-32.1935
 30
0.000000
  70
    32
  0
VERTEX
  8
FRAESBAHN_6MM
  5
75A
 10
19.9516
 20
-32.2478
 30
0.000000
  70
    32
  0
VERTEX
  8
FRAESBAHN_6MM
  5
75B
 10
20.0534
 20
-32.3018
 30
0.000000
  70
    32
  0
VERTEX
  8
FRAESBAHN_6MM
  5
75C
 10
20.1554
 20
-32.3555
 30
0.000000
  70
    32
  0
VERTEX
  8
FRAESBAHN_6MM
  5
75D
 10
20.2576
 20
-32.4089
 30
0.000000
  70
    32
  0
VERTEX
  8
FRAESBAHN_6MM
  5
75E
 10
20.3599
 20
-32.4621
 30
0.000000
  70
    32
  0
VERTEX
  8
FRAESBAHN_6MM
  5
75F
 10
20.4624
 20
-32.5149
 30
0.000000
  70
    32
  0
VERTEX
  8
FRAESBAHN_6MM
  5
760
 10
20.5650
 20
-32.5675
 30
0.000000
  70
    32
  0
VERTEX
  8
FRAESBAHN_6MM
  5
761
 10
20.6678
 20
-32.6198
 30
0.000000
  70
    32
  0
VERTEX
  8
FRAESBAHN_6MM
  5
762
 10
20.7708
 20
-32.6719
 30
0.000000
  70
    32
  0
VERTEX
  8
FRAESBAHN_6MM
  5
763
 10
20.8739
 20
-32.7236
 30
0.000000
  70
    32
  0
VERTEX
  8
FRAESBAHN_6MM
  5
764
 10
20.9772
 20
-32.7751
 30
0.000000
  70
    32
  0
VERTEX
  8
FRAESBAHN_6MM
  5
765
 10
21.0806
 20
-32.8263
 30
0.000000
  70
    32
  0
VERTEX
  8
FRAESBAHN_6MM
  5
766
 10
21.1842
 20
-32.8772
 30
0.000000
  70
    32
  0
VERTEX
  8
FRAESBAHN_6MM
  5
767
 10
21.2880
 20
-32.9278
 30
0.000000
  70
    32
  0
VERTEX
  8
FRAESBAHN_6MM
  5
768
 10
21.3919
 20
-32.9781
 30
0.000000
  70
    32
  0
VERTEX
  8
FRAESBAHN_6MM
  5
769
 10
21.4959
 20
-33.0282
 30
0.000000
  70
    32
  0
VERTEX
  8
FRAESBAHN_6MM
  5
76A
 10
21.6001
 20
-33.0779
 30
0.000000
  70
    32
  0
VERTEX
  8
FRAESBAHN_6MM
  5
76B
 10
21.7045
 20
-33.1274
 30
0.000000
  70
    32
  0
VERTEX
  8
FRAESBAHN_6MM
  5
76C
 10
21.8090
 20
-33.1766
 30
0.000000
  70
    32
  0
VERTEX
  8
FRAESBAHN_6MM
  5
76D
 10
21.9137
 20
-33.2255
 30
0.000000
  70
    32
  0
VERTEX
  8
FRAESBAHN_6MM
  5
76E
 10
22.0185
 20
-33.2741
 30
0.000000
  70
    32
  0
VERTEX
  8
FRAESBAHN_6MM
  5
76F
 10
22.1234
 20
-33.3225
 30
0.000000
  70
    32
  0
VERTEX
  8
FRAESBAHN_6MM
  5
770
 10
22.2285
 20
-33.3705
 30
0.000000
  70
    32
  0
VERTEX
  8
FRAESBAHN_6MM
  5
771
 10
22.3338
 20
-33.4183
 30
0.000000
  70
    32
  0
VERTEX
  8
FRAESBAHN_6MM
  5
772
 10
22.4392
 20
-33.4658
 30
0.000000
  70
    32
  0
VERTEX
  8
FRAESBAHN_6MM
  5
773
 10
22.5447
 20
-33.5130
 30
0.000000
  70
    32
  0
VERTEX
  8
FRAESBAHN_6MM
  5
774
 10
22.6504
 20
-33.5599
 30
0.000000
  70
    32
  0
VERTEX
  8
FRAESBAHN_6MM
  5
775
 10
22.7562
 20
-33.6065
 30
0.000000
  70
    32
  0
VERTEX
  8
FRAESBAHN_6MM
  5
776
 10
22.8621
 20
-33.6528
 30
0.000000
  70
    32
  0
VERTEX
  8
FRAESBAHN_6MM
  5
777
 10
22.9682
 20
-33.6989
 30
0.000000
  70
    32
  0
VERTEX
  8
FRAESBAHN_6MM
  5
778
 10
23.0745
 20
-33.7446
 30
0.000000
  70
    32
  0
VERTEX
  8
FRAESBAHN_6MM
  5
779
 10
23.1809
 20
-33.7901
 30
0.000000
  70
    32
  0
VERTEX
  8
FRAESBAHN_6MM
  5
77A
 10
23.2874
 20
-33.8353
 30
0.000000
  70
    32
  0
VERTEX
  8
FRAESBAHN_6MM
  5
77B
 10
23.3940
 20
-33.8802
 30
0.000000
  70
    32
  0
VERTEX
  8
FRAESBAHN_6MM
  5
77C
 10
23.5008
 20
-33.9248
 30
0.000000
  70
    32
  0
VERTEX
  8
FRAESBAHN_6MM
  5
77D
 10
23.6077
 20
-33.9691
 30
0.000000
  70
    32
  0
VERTEX
  8
FRAESBAHN_6MM
  5
77E
 10
23.7148
 20
-34.0131
 30
0.000000
  70
    32
  0
VERTEX
  8
FRAESBAHN_6MM
  5
77F
 10
23.8220
 20
-34.0568
 30
0.000000
  70
    32
  0
VERTEX
  8
FRAESBAHN_6MM
  5
780
 10
23.9293
 20
-34.1003
 30
0.000000
  70
    32
  0
VERTEX
  8
FRAESBAHN_6MM
  5
781
 10
24.0367
 20
-34.1434
 30
0.000000
  70
    32
  0
VERTEX
  8
FRAESBAHN_6MM
  5
782
 10
24.1443
 20
-34.1863
 30
0.000000
  70
    32
  0
VERTEX
  8
FRAESBAHN_6MM
  5
783
 10
24.2520
 20
-34.2289
 30
0.000000
  70
    32
  0
VERTEX
  8
FRAESBAHN_6MM
  5
784
 10
24.3598
 20
-34.2711
 30
0.000000
  70
    32
  0
VERTEX
  8
FRAESBAHN_6MM
  5
785
 10
24.4678
 20
-34.3131
 30
0.000000
  70
    32
  0
VERTEX
  8
FRAESBAHN_6MM
  5
786
 10
24.5759
 20
-34.3548
 30
0.000000
  70
    32
  0
VERTEX
  8
FRAESBAHN_6MM
  5
787
 10
24.6841
 20
-34.3962
 30
0.000000
  70
    32
  0
VERTEX
  8
FRAESBAHN_6MM
  5
788
 10
24.7924
 20
-34.4373
 30
0.000000
  70
    32
  0
VERTEX
  8
FRAESBAHN_6MM
  5
789
 10
24.9009
 20
-34.4781
 30
0.000000
  70
    32
  0
VERTEX
  8
FRAESBAHN_6MM
  5
78A
 10
25.0095
 20
-34.5186
 30
0.000000
  70
    32
  0
VERTEX
  8
FRAESBAHN_6MM
  5
78B
 10
25.1182
 20
-34.5589
 30
0.000000
  70
    32
  0
VERTEX
  8
FRAESBAHN_6MM
  5
78C
 10
25.2270
 20
-34.5988
 30
0.000000
  70
    32
  0
VERTEX
  8
FRAESBAHN_6MM
  5
78D
 10
25.3360
 20
-34.6384
 30
0.000000
  70
    32
  0
VERTEX
  8
FRAESBAHN_6MM
  5
78E
 10
25.4450
 20
-34.6778
 30
0.000000
  70
    32
  0
VERTEX
  8
FRAESBAHN_6MM
  5
78F
 10
25.5542
 20
-34.7168
 30
0.000000
  70
    32
  0
VERTEX
  8
FRAESBAHN_6MM
  5
790
 10
25.6635
 20
-34.7556
 30
0.000000
  70
    32
  0
VERTEX
  8
FRAESBAHN_6MM
  5
791
 10
25.7729
 20
-34.7940
 30
0.000000
  70
    32
  0
VERTEX
  8
FRAESBAHN_6MM
  5
792
 10
25.8824
 20
-34.8322
 30
0.000000
  70
    32
  0
VERTEX
  8
FRAESBAHN_6MM
  5
793
 10
25.9921
 20
-34.8700
 30
0.000000
  70
    32
  0
VERTEX
  8
FRAESBAHN_6MM
  5
794
 10
26.1018
 20
-34.9076
 30
0.000000
  70
    32
  0
VERTEX
  8
FRAESBAHN_6MM
  5
795
 10
26.2117
 20
-34.9449
 30
0.000000
  70
    32
  0
VERTEX
  8
FRAESBAHN_6MM
  5
796
 10
26.3217
 20
-34.9819
 30
0.000000
  70
    32
  0
VERTEX
  8
FRAESBAHN_6MM
  5
797
 10
26.4318
 20
-35.0185
 30
0.000000
  70
    32
  0
VERTEX
  8
FRAESBAHN_6MM
  5
798
 10
26.5420
 20
-35.0549
 30
0.000000
  70
    32
  0
VERTEX
  8
FRAESBAHN_6MM
  5
799
 10
26.6523
 20
-35.0910
 30
0.000000
  70
    32
  0
VERTEX
  8
FRAESBAHN_6MM
  5
79A
 10
26.7627
 20
-35.1268
 30
0.000000
  70
    32
  0
VERTEX
  8
FRAESBAHN_6MM
  5
79B
 10
26.8732
 20
-35.1622
 30
0.000000
  70
    32
  0
VERTEX
  8
FRAESBAHN_6MM
  5
79C
 10
26.9839
 20
-35.1974
 30
0.000000
  70
    32
  0
VERTEX
  8
FRAESBAHN_6MM
  5
79D
 10
27.0946
 20
-35.2323
 30
0.000000
  70
    32
  0
VERTEX
  8
FRAESBAHN_6MM
  5
79E
 10
27.2054
 20
-35.2669
 30
0.000000
  70
    32
  0
VERTEX
  8
FRAESBAHN_6MM
  5
79F
 10
27.3164
 20
-35.3012
 30
0.000000
  70
    32
  0
VERTEX
  8
FRAESBAHN_6MM
  5
7A0
 10
27.4274
 20
-35.3352
 30
0.000000
  70
    32
  0
VERTEX
  8
FRAESBAHN_6MM
  5
7A1
 10
27.5385
 20
-35.3689
 30
0.000000
  70
    32
  0
VERTEX
  8
FRAESBAHN_6MM
  5
7A2
 10
27.6498
 20
-35.4022
 30
0.000000
  70
    32
  0
VERTEX
  8
FRAESBAHN_6MM
  5
7A3
 10
27.7611
 20
-35.4353
 30
0.000000
  70
    32
  0
VERTEX
  8
FRAESBAHN_6MM
  5
7A4
 10
27.8726
 20
-35.4681
 30
0.000000
  70
    32
  0
VERTEX
  8
FRAESBAHN_6MM
  5
7A5
 10
27.9841
 20
-35.5006
 30
0.000000
  70
    32
  0
VERTEX
  8
FRAESBAHN_6MM
  5
7A6
 10
28.0958
 20
-35.5328
 30
0.000000
  70
    32
  0
VERTEX
  8
FRAESBAHN_6MM
  5
7A7
 10
28.2075
 20
-35.5646
 30
0.000000
  70
    32
  0
VERTEX
  8
FRAESBAHN_6MM
  5
7A8
 10
28.3193
 20
-35.5962
 30
0.000000
  70
    32
  0
VERTEX
  8
FRAESBAHN_6MM
  5
7A9
 10
28.4312
 20
-35.6275
 30
0.000000
  70
    32
  0
VERTEX
  8
FRAESBAHN_6MM
  5
7AA
 10
28.5432
 20
-35.6584
 30
0.000000
  70
    32
  0
VERTEX
  8
FRAESBAHN_6MM
  5
7AB
 10
28.6553
 20
-35.6891
 30
0.000000
  70
    32
  0
VERTEX
  8
FRAESBAHN_6MM
  5
7AC
 10
28.7675
 20
-35.7195
 30
0.000000
  70
    32
  0
VERTEX
  8
FRAESBAHN_6MM
  5
7AD
 10
28.8798
 20
-35.7495
 30
0.000000
  70
    32
  0
VERTEX
  8
FRAESBAHN_6MM
  5
7AE
 10
28.9922
 20
-35.7793
 30
0.000000
  70
    32
  0
VERTEX
  8
FRAESBAHN_6MM
  5
7AF
 10
29.1047
 20
-35.8087
 30
0.000000
  70
    32
  0
VERTEX
  8
FRAESBAHN_6MM
  5
7B0
 10
29.2172
 20
-35.8379
 30
0.000000
  70
    32
  0
VERTEX
  8
FRAESBAHN_6MM
  5
7B1
 10
29.3298
 20
-35.8667
 30
0.000000
  70
    32
  0
VERTEX
  8
FRAESBAHN_6MM
  5
7B2
 10
29.4426
 20
-35.8952
 30
0.000000
  70
    32
  0
VERTEX
  8
FRAESBAHN_6MM
  5
7B3
 10
29.5554
 20
-35.9235
 30
0.000000
  70
    32
  0
VERTEX
  8
FRAESBAHN_6MM
  5
7B4
 10
29.6683
 20
-35.9514
 30
0.000000
  70
    32
  0
VERTEX
  8
FRAESBAHN_6MM
  5
7B5
 10
29.7812
 20
-35.9790
 30
0.000000
  70
    32
  0
VERTEX
  8
FRAESBAHN_6MM
  5
7B6
 10
29.8943
 20
-36.0063
 30
0.000000
  70
    32
  0
VERTEX
  8
FRAESBAHN_6MM
  5
7B7
 10
30.0074
 20
-36.0333
 30
0.000000
  70
    32
  0
VERTEX
  8
FRAESBAHN_6MM
  5
7B8
 10
30.1206
 20
-36.0600
 30
0.000000
  70
    32
  0
VERTEX
  8
FRAESBAHN_6MM
  5
7B9
 10
30.2339
 20
-36.0864
 30
0.000000
  70
    32
  0
VERTEX
  8
FRAESBAHN_6MM
  5
7BA
 10
30.3473
 20
-36.1125
 30
0.000000
  70
    32
  0
VERTEX
  8
FRAESBAHN_6MM
  5
7BB
 10
30.4608
 20
-36.1382
 30
0.000000
  70
    32
  0
VERTEX
  8
FRAESBAHN_6MM
  5
7BC
 10
30.5743
 20
-36.1637
 30
0.000000
  70
    32
  0
VERTEX
  8
FRAESBAHN_6MM
  5
7BD
 10
30.6879
 20
-36.1889
 30
0.000000
  70
    32
  0
VERTEX
  8
FRAESBAHN_6MM
  5
7BE
 10
30.8016
 20
-36.2137
 30
0.000000
  70
    32
  0
VERTEX
  8
FRAESBAHN_6MM
  5
7BF
 10
30.9154
 20
-36.2383
 30
0.000000
  70
    32
  0
VERTEX
  8
FRAESBAHN_6MM
  5
7C0
 10
31.0292
 20
-36.2625
 30
0.000000
  70
    32
  0
VERTEX
  8
FRAESBAHN_6MM
  5
7C1
 10
31.1431
 20
-36.2864
 30
0.000000
  70
    32
  0
VERTEX
  8
FRAESBAHN_6MM
  5
7C2
 10
31.2571
 20
-36.3101
 30
0.000000
  70
    32
  0
VERTEX
  8
FRAESBAHN_6MM
  5
7C3
 10
31.3712
 20
-36.3334
 30
0.000000
  70
    32
  0
VERTEX
  8
FRAESBAHN_6MM
  5
7C4
 10
31.4853
 20
-36.3564
 30
0.000000
  70
    32
  0
VERTEX
  8
FRAESBAHN_6MM
  5
7C5
 10
31.5995
 20
-36.3791
 30
0.000000
  70
    32
  0
VERTEX
  8
FRAESBAHN_6MM
  5
7C6
 10
31.7138
 20
-36.4015
 30
0.000000
  70
    32
  0
VERTEX
  8
FRAESBAHN_6MM
  5
7C7
 10
31.8281
 20
-36.4236
 30
0.000000
  70
    32
  0
VERTEX
  8
FRAESBAHN_6MM
  5
7C8
 10
31.9425
 20
-36.4454
 30
0.000000
  70
    32
  0
VERTEX
  8
FRAESBAHN_6MM
  5
7C9
 10
32.0570
 20
-36.4668
 30
0.000000
  70
    32
  0
VERTEX
  8
FRAESBAHN_6MM
  5
7CA
 10
32.1715
 20
-36.4880
 30
0.000000
  70
    32
  0
VERTEX
  8
FRAESBAHN_6MM
  5
7CB
 10
32.2861
 20
-36.5088
 30
0.000000
  70
    32
  0
VERTEX
  8
FRAESBAHN_6MM
  5
7CC
 10
32.4007
 20
-36.5294
 30
0.000000
  70
    32
  0
VERTEX
  8
FRAESBAHN_6MM
  5
7CD
 10
32.5155
 20
-36.5496
 30
0.000000
  70
    32
  0
VERTEX
  8
FRAESBAHN_6MM
  5
7CE
 10
32.6302
 20
-36.5696
 30
0.000000
  70
    32
  0
VERTEX
  8
FRAESBAHN_6MM
  5
7CF
 10
32.7451
 20
-36.5892
 30
0.000000
  70
    32
  0
VERTEX
  8
FRAESBAHN_6MM
  5
7D0
 10
32.8600
 20
-36.6085
 30
0.000000
  70
    32
  0
VERTEX
  8
FRAESBAHN_6MM
  5
7D1
 10
32.9749
 20
-36.6275
 30
0.000000
  70
    32
  0
VERTEX
  8
FRAESBAHN_6MM
  5
7D2
 10
33.0900
 20
-36.6462
 30
0.000000
  70
    32
  0
VERTEX
  8
FRAESBAHN_6MM
  5
7D3
 10
33.2050
 20
-36.6646
 30
0.000000
  70
    32
  0
VERTEX
  8
FRAESBAHN_6MM
  5
7D4
 10
33.3201
 20
-36.6827
 30
0.000000
  70
    32
  0
VERTEX
  8
FRAESBAHN_6MM
  5
7D5
 10
33.4353
 20
-36.7004
 30
0.000000
  70
    32
  0
VERTEX
  8
FRAESBAHN_6MM
  5
7D6
 10
33.5506
 20
-36.7179
 30
0.000000
  70
    32
  0
VERTEX
  8
FRAESBAHN_6MM
  5
7D7
 10
33.6658
 20
-36.7351
 30
0.000000
  70
    32
  0
VERTEX
  8
FRAESBAHN_6MM
  5
7D8
 10
33.7812
 20
-36.7519
 30
0.000000
  70
    32
  0
VERTEX
  8
FRAESBAHN_6MM
  5
7D9
 10
33.8966
 20
-36.7684
 30
0.000000
  70
    32
  0
VERTEX
  8
FRAESBAHN_6MM
  5
7DA
 10
34.0120
 20
-36.7847
 30
0.000000
  70
    32
  0
VERTEX
  8
FRAESBAHN_6MM
  5
7DB
 10
34.1275
 20
-36.8006
 30
0.000000
  70
    32
  0
VERTEX
  8
FRAESBAHN_6MM
  5
7DC
 10
34.2430
 20
-36.8162
 30
0.000000
  70
    32
  0
VERTEX
  8
FRAESBAHN_6MM
  5
7DD
 10
34.3586
 20
-36.8315
 30
0.000000
  70
    32
  0
VERTEX
  8
FRAESBAHN_6MM
  5
7DE
 10
34.4742
 20
-36.8465
 30
0.000000
  70
    32
  0
VERTEX
  8
FRAESBAHN_6MM
  5
7DF
 10
34.5899
 20
-36.8611
 30
0.000000
  70
    32
  0
VERTEX
  8
FRAESBAHN_6MM
  5
7E0
 10
34.7056
 20
-36.8755
 30
0.000000
  70
    32
  0
VERTEX
  8
FRAESBAHN_6MM
  5
7E1
 10
34.8213
 20
-36.8896
 30
0.000000
  70
    32
  0
VERTEX
  8
FRAESBAHN_6MM
  5
7E2
 10
34.9371
 20
-36.9033
 30
0.000000
  70
    32
  0
VERTEX
  8
FRAESBAHN_6MM
  5
7E3
 10
35.0530
 20
-36.9167
 30
0.000000
  70
    32
  0
VERTEX
  8
FRAESBAHN_6MM
  5
7E4
 10
35.1688
 20
-36.9299
 30
0.000000
  70
    32
  0
VERTEX
  8
FRAESBAHN_6MM
  5
7E5
 10
35.2848
 20
-36.9427
 30
0.000000
  70
    32
  0
VERTEX
  8
FRAESBAHN_6MM
  5
7E6
 10
35.4007
 20
-36.9552
 30
0.000000
  70
    32
  0
VERTEX
  8
FRAESBAHN_6MM
  5
7E7
 10
35.5167
 20
-36.9674
 30
0.000000
  70
    32
  0
VERTEX
  8
FRAESBAHN_6MM
  5
7E8
 10
35.6327
 20
-36.9793
 30
0.000000
  70
    32
  0
VERTEX
  8
FRAESBAHN_6MM
  5
7E9
 10
35.7488
 20
-36.9908
 30
0.000000
  70
    32
  0
VERTEX
  8
FRAESBAHN_6MM
  5
7EA
 10
35.8649
 20
-37.0021
 30
0.000000
  70
    32
  0
VERTEX
  8
FRAESBAHN_6MM
  5
7EB
 10
35.9810
 20
-37.0130
 30
0.000000
  70
    32
  0
VERTEX
  8
FRAESBAHN_6MM
  5
7EC
 10
36.0972
 20
-37.0237
 30
0.000000
  70
    32
  0
VERTEX
  8
FRAESBAHN_6MM
  5
7ED
 10
36.2133
 20
-37.0340
 30
0.000000
  70
    32
  0
VERTEX
  8
FRAESBAHN_6MM
  5
7EE
 10
36.3296
 20
-37.0440
 30
0.000000
  70
    32
  0
VERTEX
  8
FRAESBAHN_6MM
  5
7EF
 10
36.4458
 20
-37.0537
 30
0.000000
  70
    32
  0
VERTEX
  8
FRAESBAHN_6MM
  5
7F0
 10
36.5621
 20
-37.0631
 30
0.000000
  70
    32
  0
VERTEX
  8
FRAESBAHN_6MM
  5
7F1
 10
36.6784
 20
-37.0722
 30
0.000000
  70
    32
  0
VERTEX
  8
FRAESBAHN_6MM
  5
7F2
 10
36.7947
 20
-37.0810
 30
0.000000
  70
    32
  0
VERTEX
  8
FRAESBAHN_6MM
  5
7F3
 10
36.9111
 20
-37.0894
 30
0.000000
  70
    32
  0
VERTEX
  8
FRAESBAHN_6MM
  5
7F4
 10
37.0275
 20
-37.0976
 30
0.000000
  70
    32
  0
VERTEX
  8
FRAESBAHN_6MM
  5
7F5
 10
37.1439
 20
-37.1054
 30
0.000000
  70
    32
  0
VERTEX
  8
FRAESBAHN_6MM
  5
7F6
 10
37.2603
 20
-37.1129
 30
0.000000
  70
    32
  0
VERTEX
  8
FRAESBAHN_6MM
  5
7F7
 10
37.3767
 20
-37.1201
 30
0.000000
  70
    32
  0
VERTEX
  8
FRAESBAHN_6MM
  5
7F8
 10
37.4932
 20
-37.1270
 30
0.000000
  70
    32
  0
VERTEX
  8
FRAESBAHN_6MM
  5
7F9
 10
37.6097
 20
-37.1336
 30
0.000000
  70
    32
  0
VERTEX
  8
FRAESBAHN_6MM
  5
7FA
 10
37.7262
 20
-37.1399
 30
0.000000
  70
    32
  0
VERTEX
  8
FRAESBAHN_6MM
  5
7FB
 10
37.8427
 20
-37.1459
 30
0.000000
  70
    32
  0
VERTEX
  8
FRAESBAHN_6MM
  5
7FC
 10
37.9593
 20
-37.1515
 30
0.000000
  70
    32
  0
VERTEX
  8
FRAESBAHN_6MM
  5
7FD
 10
38.0758
 20
-37.1568
 30
0.000000
  70
    32
  0
VERTEX
  8
FRAESBAHN_6MM
  5
7FE
 10
38.1924
 20
-37.1619
 30
0.000000
  70
    32
  0
VERTEX
  8
FRAESBAHN_6MM
  5
7FF
 10
38.3090
 20
-37.1666
 30
0.000000
  70
    32
  0
VERTEX
  8
FRAESBAHN_6MM
  5
800
 10
38.4256
 20
-37.1710
 30
0.000000
  70
    32
  0
VERTEX
  8
FRAESBAHN_6MM
  5
801
 10
38.5422
 20
-37.1750
 30
0.000000
  70
    32
  0
VERTEX
  8
FRAESBAHN_6MM
  5
802
 10
38.6588
 20
-37.1788
 30
0.000000
  70
    32
  0
VERTEX
  8
FRAESBAHN_6MM
  5
803
 10
38.7754
 20
-37.1823
 30
0.000000
  70
    32
  0
VERTEX
  8
FRAESBAHN_6MM
  5
804
 10
38.8921
 20
-37.1854
 30
0.000000
  70
    32
  0
VERTEX
  8
FRAESBAHN_6MM
  5
805
 10
39.0087
 20
-37.1882
 30
0.000000
  70
    32
  0
VERTEX
  8
FRAESBAHN_6MM
  5
806
 10
39.1254
 20
-37.1908
 30
0.000000
  70
    32
  0
VERTEX
  8
FRAESBAHN_6MM
  5
807
 10
39.2420
 20
-37.1930
 30
0.000000
  70
    32
  0
VERTEX
  8
FRAESBAHN_6MM
  5
808
 10
39.3587
 20
-37.1949
 30
0.000000
  70
    32
  0
VERTEX
  8
FRAESBAHN_6MM
  5
809
 10
39.4754
 20
-37.1964
 30
0.000000
  70
    32
  0
VERTEX
  8
FRAESBAHN_6MM
  5
80A
 10
39.5921
 20
-37.1977
 30
0.000000
  70
    32
  0
VERTEX
  8
FRAESBAHN_6MM
  5
80B
 10
39.7087
 20
-37.1986
 30
0.000000
  70
    32
  0
VERTEX
  8
FRAESBAHN_6MM
  5
80C
 10
39.8254
 20
-37.1993
 30
0.000000
  70
    32
  0
VERTEX
  8
FRAESBAHN_6MM
  5
80D
 10
39.9421
 20
-37.1996
 30
0.000000
  70
    32
  0
VERTEX
  8
FRAESBAHN_6MM
  5
80E
 10
40.0588
 20
-37.1996
 30
0.000000
  70
    32
  0
VERTEX
  8
FRAESBAHN_6MM
  5
80F
 10
40.1754
 20
-37.1993
 30
0.000000
  70
    32
  0
VERTEX
  8
FRAESBAHN_6MM
  5
810
 10
40.2921
 20
-37.1987
 30
0.000000
  70
    32
  0
VERTEX
  8
FRAESBAHN_6MM
  5
811
 10
40.4088
 20
-37.1977
 30
0.000000
  70
    32
  0
VERTEX
  8
FRAESBAHN_6MM
  5
812
 10
40.5255
 20
-37.1965
 30
0.000000
  70
    32
  0
VERTEX
  8
FRAESBAHN_6MM
  5
813
 10
40.6421
 20
-37.1949
 30
0.000000
  70
    32
  0
VERTEX
  8
FRAESBAHN_6MM
  5
814
 10
40.7588
 20
-37.1930
 30
0.000000
  70
    32
  0
VERTEX
  8
FRAESBAHN_6MM
  5
815
 10
40.8754
 20
-37.1908
 30
0.000000
  70
    32
  0
VERTEX
  8
FRAESBAHN_6MM
  5
816
 10
40.9921
 20
-37.1883
 30
0.000000
  70
    32
  0
VERTEX
  8
FRAESBAHN_6MM
  5
817
 10
41.1087
 20
-37.1855
 30
0.000000
  70
    32
  0
VERTEX
  8
FRAESBAHN_6MM
  5
818
 10
41.2254
 20
-37.1823
 30
0.000000
  70
    32
  0
VERTEX
  8
FRAESBAHN_6MM
  5
819
 10
41.3420
 20
-37.1789
 30
0.000000
  70
    32
  0
VERTEX
  8
FRAESBAHN_6MM
  5
81A
 10
41.4586
 20
-37.1751
 30
0.000000
  70
    32
  0
VERTEX
  8
FRAESBAHN_6MM
  5
81B
 10
41.5752
 20
-37.1710
 30
0.000000
  70
    32
  0
VERTEX
  8
FRAESBAHN_6MM
  5
81C
 10
41.6918
 20
-37.1667
 30
0.000000
  70
    32
  0
VERTEX
  8
FRAESBAHN_6MM
  5
81D
 10
41.8084
 20
-37.1619
 30
0.000000
  70
    32
  0
VERTEX
  8
FRAESBAHN_6MM
  5
81E
 10
41.9249
 20
-37.1569
 30
0.000000
  70
    32
  0
VERTEX
  8
FRAESBAHN_6MM
  5
81F
 10
42.0415
 20
-37.1516
 30
0.000000
  70
    32
  0
VERTEX
  8
FRAESBAHN_6MM
  5
820
 10
42.1580
 20
-37.1459
 30
0.000000
  70
    32
  0
VERTEX
  8
FRAESBAHN_6MM
  5
821
 10
42.2745
 20
-37.1400
 30
0.000000
  70
    32
  0
VERTEX
  8
FRAESBAHN_6MM
  5
822
 10
42.3910
 20
-37.1337
 30
0.000000
  70
    32
  0
VERTEX
  8
FRAESBAHN_6MM
  5
823
 10
42.5075
 20
-37.1271
 30
0.000000
  70
    32
  0
VERTEX
  8
FRAESBAHN_6MM
  5
824
 10
42.6240
 20
-37.1202
 30
0.000000
  70
    32
  0
VERTEX
  8
FRAESBAHN_6MM
  5
825
 10
42.7404
 20
-37.1130
 30
0.000000
  70
    32
  0
VERTEX
  8
FRAESBAHN_6MM
  5
826
 10
42.8569
 20
-37.1055
 30
0.000000
  70
    32
  0
VERTEX
  8
FRAESBAHN_6MM
  5
827
 10
42.9733
 20
-37.0976
 30
0.000000
  70
    32
  0
VERTEX
  8
FRAESBAHN_6MM
  5
828
 10
43.0896
 20
-37.0895
 30
0.000000
  70
    32
  0
VERTEX
  8
FRAESBAHN_6MM
  5
829
 10
43.2060
 20
-37.0810
 30
0.000000
  70
    32
  0
VERTEX
  8
FRAESBAHN_6MM
  5
82A
 10
43.3223
 20
-37.0722
 30
0.000000
  70
    32
  0
VERTEX
  8
FRAESBAHN_6MM
  5
82B
 10
43.4386
 20
-37.0632
 30
0.000000
  70
    32
  0
VERTEX
  8
FRAESBAHN_6MM
  5
82C
 10
43.5549
 20
-37.0538
 30
0.000000
  70
    32
  0
VERTEX
  8
FRAESBAHN_6MM
  5
82D
 10
43.6711
 20
-37.0441
 30
0.000000
  70
    32
  0
VERTEX
  8
FRAESBAHN_6MM
  5
82E
 10
43.7873
 20
-37.0340
 30
0.000000
  70
    32
  0
VERTEX
  8
FRAESBAHN_6MM
  5
82F
 10
43.9035
 20
-37.0237
 30
0.000000
  70
    32
  0
VERTEX
  8
FRAESBAHN_6MM
  5
830
 10
44.0197
 20
-37.0131
 30
0.000000
  70
    32
  0
VERTEX
  8
FRAESBAHN_6MM
  5
831
 10
44.1358
 20
-37.0021
 30
0.000000
  70
    32
  0
VERTEX
  8
FRAESBAHN_6MM
  5
832
 10
44.2519
 20
-36.9908
 30
0.000000
  70
    32
  0
VERTEX
  8
FRAESBAHN_6MM
  5
833
 10
44.3680
 20
-36.9792
 30
0.000000
  70
    32
  0
VERTEX
  8
FRAESBAHN_6MM
  5
834
 10
44.4840
 20
-36.9674
 30
0.000000
  70
    32
  0
VERTEX
  8
FRAESBAHN_6MM
  5
835
 10
44.6000
 20
-36.9552
 30
0.000000
  70
    32
  0
VERTEX
  8
FRAESBAHN_6MM
  5
836
 10
44.7159
 20
-36.9426
 30
0.000000
  70
    32
  0
VERTEX
  8
FRAESBAHN_6MM
  5
837
 10
44.8318
 20
-36.9298
 30
0.000000
  70
    32
  0
VERTEX
  8
FRAESBAHN_6MM
  5
838
 10
44.9477
 20
-36.9167
 30
0.000000
  70
    32
  0
VERTEX
  8
FRAESBAHN_6MM
  5
839
 10
45.0635
 20
-36.9032
 30
0.000000
  70
    32
  0
VERTEX
  8
FRAESBAHN_6MM
  5
83A
 10
45.1793
 20
-36.8895
 30
0.000000
  70
    32
  0
VERTEX
  8
FRAESBAHN_6MM
  5
83B
 10
45.2951
 20
-36.8754
 30
0.000000
  70
    32
  0
VERTEX
  8
FRAESBAHN_6MM
  5
83C
 10
45.4108
 20
-36.8611
 30
0.000000
  70
    32
  0
VERTEX
  8
FRAESBAHN_6MM
  5
83D
 10
45.5265
 20
-36.8464
 30
0.000000
  70
    32
  0
VERTEX
  8
FRAESBAHN_6MM
  5
83E
 10
45.6421
 20
-36.8314
 30
0.000000
  70
    32
  0
VERTEX
  8
FRAESBAHN_6MM
  5
83F
 10
45.7577
 20
-36.8161
 30
0.000000
  70
    32
  0
VERTEX
  8
FRAESBAHN_6MM
  5
840
 10
45.8732
 20
-36.8005
 30
0.000000
  70
    32
  0
VERTEX
  8
FRAESBAHN_6MM
  5
841
 10
45.9887
 20
-36.7845
 30
0.000000
  70
    32
  0
VERTEX
  8
FRAESBAHN_6MM
  5
842
 10
46.1041
 20
-36.7683
 30
0.000000
  70
    32
  0
VERTEX
  8
FRAESBAHN_6MM
  5
843
 10
46.2195
 20
-36.7518
 30
0.000000
  70
    32
  0
VERTEX
  8
FRAESBAHN_6MM
  5
844
 10
46.3348
 20
-36.7349
 30
0.000000
  70
    32
  0
VERTEX
  8
FRAESBAHN_6MM
  5
845
 10
46.4501
 20
-36.7177
 30
0.000000
  70
    32
  0
VERTEX
  8
FRAESBAHN_6MM
  5
846
 10
46.5653
 20
-36.7003
 30
0.000000
  70
    32
  0
VERTEX
  8
FRAESBAHN_6MM
  5
847
 10
46.6805
 20
-36.6825
 30
0.000000
  70
    32
  0
VERTEX
  8
FRAESBAHN_6MM
  5
848
 10
46.7956
 20
-36.6644
 30
0.000000
  70
    32
  0
VERTEX
  8
FRAESBAHN_6MM
  5
849
 10
46.9107
 20
-36.6460
 30
0.000000
  70
    32
  0
VERTEX
  8
FRAESBAHN_6MM
  5
84A
 10
47.0257
 20
-36.6273
 30
0.000000
  70
    32
  0
VERTEX
  8
FRAESBAHN_6MM
  5
84B
 10
47.1407
 20
-36.6083
 30
0.000000
  70
    32
  0
VERTEX
  8
FRAESBAHN_6MM
  5
84C
 10
47.2556
 20
-36.5890
 30
0.000000
  70
    32
  0
VERTEX
  8
FRAESBAHN_6MM
  5
84D
 10
47.3704
 20
-36.5693
 30
0.000000
  70
    32
  0
VERTEX
  8
FRAESBAHN_6MM
  5
84E
 10
47.4852
 20
-36.5494
 30
0.000000
  70
    32
  0
VERTEX
  8
FRAESBAHN_6MM
  5
84F
 10
47.5999
 20
-36.5292
 30
0.000000
  70
    32
  0
VERTEX
  8
FRAESBAHN_6MM
  5
850
 10
47.7146
 20
-36.5086
 30
0.000000
  70
    32
  0
VERTEX
  8
FRAESBAHN_6MM
  5
851
 10
47.8292
 20
-36.4877
 30
0.000000
  70
    32
  0
VERTEX
  8
FRAESBAHN_6MM
  5
852
 10
47.9437
 20
-36.4666
 30
0.000000
  70
    32
  0
VERTEX
  8
FRAESBAHN_6MM
  5
853
 10
48.0582
 20
-36.4451
 30
0.000000
  70
    32
  0
VERTEX
  8
FRAESBAHN_6MM
  5
854
 10
48.1726
 20
-36.4233
 30
0.000000
  70
    32
  0
VERTEX
  8
FRAESBAHN_6MM
  5
855
 10
48.2869
 20
-36.4012
 30
0.000000
  70
    32
  0
VERTEX
  8
FRAESBAHN_6MM
  5
856
 10
48.4012
 20
-36.3788
 30
0.000000
  70
    32
  0
VERTEX
  8
FRAESBAHN_6MM
  5
857
 10
48.5154
 20
-36.3561
 30
0.000000
  70
    32
  0
VERTEX
  8
FRAESBAHN_6MM
  5
858
 10
48.6295
 20
-36.3331
 30
0.000000
  70
    32
  0
VERTEX
  8
FRAESBAHN_6MM
  5
859
 10
48.7436
 20
-36.3098
 30
0.000000
  70
    32
  0
VERTEX
  8
FRAESBAHN_6MM
  5
85A
 10
48.8576
 20
-36.2862
 30
0.000000
  70
    32
  0
VERTEX
  8
FRAESBAHN_6MM
  5
85B
 10
48.9715
 20
-36.2622
 30
0.000000
  70
    32
  0
VERTEX
  8
FRAESBAHN_6MM
  5
85C
 10
49.0854
 20
-36.2380
 30
0.000000
  70
    32
  0
VERTEX
  8
FRAESBAHN_6MM
  5
85D
 10
49.1991
 20
-36.2134
 30
0.000000
  70
    32
  0
VERTEX
  8
FRAESBAHN_6MM
  5
85E
 10
49.3128
 20
-36.1886
 30
0.000000
  70
    32
  0
VERTEX
  8
FRAESBAHN_6MM
  5
85F
 10
49.4264
 20
-36.1634
 30
0.000000
  70
    32
  0
VERTEX
  8
FRAESBAHN_6MM
  5
860
 10
49.5400
 20
-36.1380
 30
0.000000
  70
    32
  0
VERTEX
  8
FRAESBAHN_6MM
  5
861
 10
49.6535
 20
-36.1122
 30
0.000000
  70
    32
  0
VERTEX
  8
FRAESBAHN_6MM
  5
862
 10
49.7668
 20
-36.0861
 30
0.000000
  70
    32
  0
VERTEX
  8
FRAESBAHN_6MM
  5
863
 10
49.8802
 20
-36.0597
 30
0.000000
  70
    32
  0
VERTEX
  8
FRAESBAHN_6MM
  5
864
 10
49.9934
 20
-36.0330
 30
0.000000
  70
    32
  0
VERTEX
  8
FRAESBAHN_6MM
  5
865
 10
50.1065
 20
-36.0061
 30
0.000000
  70
    32
  0
VERTEX
  8
FRAESBAHN_6MM
  5
866
 10
50.2196
 20
-35.9788
 30
0.000000
  70
    32
  0
VERTEX
  8
FRAESBAHN_6MM
  5
867
 10
50.3326
 20
-35.9511
 30
0.000000
  70
    32
  0
VERTEX
  8
FRAESBAHN_6MM
  5
868
 10
50.4455
 20
-35.9232
 30
0.000000
  70
    32
  0
VERTEX
  8
FRAESBAHN_6MM
  5
869
 10
50.5583
 20
-35.8950
 30
0.000000
  70
    32
  0
VERTEX
  8
FRAESBAHN_6MM
  5
86A
 10
50.6710
 20
-35.8665
 30
0.000000
  70
    32
  0
VERTEX
  8
FRAESBAHN_6MM
  5
86B
 10
50.7836
 20
-35.8377
 30
0.000000
  70
    32
  0
VERTEX
  8
FRAESBAHN_6MM
  5
86C
 10
50.8962
 20
-35.8085
 30
0.000000
  70
    32
  0
VERTEX
  8
FRAESBAHN_6MM
  5
86D
 10
51.0086
 20
-35.7791
 30
0.000000
  70
    32
  0
VERTEX
  8
FRAESBAHN_6MM
  5
86E
 10
51.1210
 20
-35.7494
 30
0.000000
  70
    32
  0
VERTEX
  8
FRAESBAHN_6MM
  5
86F
 10
51.2333
 20
-35.7193
 30
0.000000
  70
    32
  0
VERTEX
  8
FRAESBAHN_6MM
  5
870
 10
51.3455
 20
-35.6890
 30
0.000000
  70
    32
  0
VERTEX
  8
FRAESBAHN_6MM
  5
871
 10
51.4576
 20
-35.6583
 30
0.000000
  70
    32
  0
VERTEX
  8
FRAESBAHN_6MM
  5
872
 10
51.5696
 20
-35.6274
 30
0.000000
  70
    32
  0
VERTEX
  8
FRAESBAHN_6MM
  5
873
 10
51.6815
 20
-35.5961
 30
0.000000
  70
    32
  0
VERTEX
  8
FRAESBAHN_6MM
  5
874
 10
51.7933
 20
-35.5645
 30
0.000000
  70
    32
  0
VERTEX
  8
FRAESBAHN_6MM
  5
875
 10
51.9050
 20
-35.5327
 30
0.000000
  70
    32
  0
VERTEX
  8
FRAESBAHN_6MM
  5
876
 10
52.0167
 20
-35.5005
 30
0.000000
  70
    32
  0
VERTEX
  8
FRAESBAHN_6MM
  5
877
 10
52.1282
 20
-35.4680
 30
0.000000
  70
    32
  0
VERTEX
  8
FRAESBAHN_6MM
  5
878
 10
52.2396
 20
-35.4352
 30
0.000000
  70
    32
  0
VERTEX
  8
FRAESBAHN_6MM
  5
879
 10
52.3510
 20
-35.4021
 30
0.000000
  70
    32
  0
VERTEX
  8
FRAESBAHN_6MM
  5
87A
 10
52.4622
 20
-35.3688
 30
0.000000
  70
    32
  0
VERTEX
  8
FRAESBAHN_6MM
  5
87B
 10
52.5733
 20
-35.3351
 30
0.000000
  70
    32
  0
VERTEX
  8
FRAESBAHN_6MM
  5
87C
 10
52.6844
 20
-35.3011
 30
0.000000
  70
    32
  0
VERTEX
  8
FRAESBAHN_6MM
  5
87D
 10
52.7953
 20
-35.2668
 30
0.000000
  70
    32
  0
VERTEX
  8
FRAESBAHN_6MM
  5
87E
 10
52.9061
 20
-35.2322
 30
0.000000
  70
    32
  0
VERTEX
  8
FRAESBAHN_6MM
  5
87F
 10
53.0169
 20
-35.1973
 30
0.000000
  70
    32
  0
VERTEX
  8
FRAESBAHN_6MM
  5
880
 10
53.1275
 20
-35.1622
 30
0.000000
  70
    32
  0
VERTEX
  8
FRAESBAHN_6MM
  5
881
 10
53.2380
 20
-35.1267
 30
0.000000
  70
    32
  0
VERTEX
  8
FRAESBAHN_6MM
  5
882
 10
53.3484
 20
-35.0909
 30
0.000000
  70
    32
  0
VERTEX
  8
FRAESBAHN_6MM
  5
883
 10
53.4587
 20
-35.0548
 30
0.000000
  70
    32
  0
VERTEX
  8
FRAESBAHN_6MM
  5
884
 10
53.5689
 20
-35.0184
 30
0.000000
  70
    32
  0
VERTEX
  8
FRAESBAHN_6MM
  5
885
 10
53.6790
 20
-34.9817
 30
0.000000
  70
    32
  0
VERTEX
  8
FRAESBAHN_6MM
  5
886
 10
53.7890
 20
-34.9448
 30
0.000000
  70
    32
  0
VERTEX
  8
FRAESBAHN_6MM
  5
887
 10
53.8988
 20
-34.9075
 30
0.000000
  70
    32
  0
VERTEX
  8
FRAESBAHN_6MM
  5
888
 10
54.0086
 20
-34.8699
 30
0.000000
  70
    32
  0
VERTEX
  8
FRAESBAHN_6MM
  5
889
 10
54.1182
 20
-34.8321
 30
0.000000
  70
    32
  0
VERTEX
  8
FRAESBAHN_6MM
  5
88A
 10
54.2278
 20
-34.7939
 30
0.000000
  70
    32
  0
VERTEX
  8
FRAESBAHN_6MM
  5
88B
 10
54.3372
 20
-34.7554
 30
0.000000
  70
    32
  0
VERTEX
  8
FRAESBAHN_6MM
  5
88C
 10
54.4465
 20
-34.7167
 30
0.000000
  70
    32
  0
VERTEX
  8
FRAESBAHN_6MM
  5
88D
 10
54.5556
 20
-34.6776
 30
0.000000
  70
    32
  0
VERTEX
  8
FRAESBAHN_6MM
  5
88E
 10
54.6647
 20
-34.6383
 30
0.000000
  70
    32
  0
VERTEX
  8
FRAESBAHN_6MM
  5
88F
 10
54.7736
 20
-34.5986
 30
0.000000
  70
    32
  0
VERTEX
  8
FRAESBAHN_6MM
  5
890
 10
54.8825
 20
-34.5587
 30
0.000000
  70
    32
  0
VERTEX
  8
FRAESBAHN_6MM
  5
891
 10
54.9912
 20
-34.5185
 30
0.000000
  70
    32
  0
VERTEX
  8
FRAESBAHN_6MM
  5
892
 10
55.0997
 20
-34.4779
 30
0.000000
  70
    32
  0
VERTEX
  8
FRAESBAHN_6MM
  5
893
 10
55.2082
 20
-34.4371
 30
0.000000
  70
    32
  0
VERTEX
  8
FRAESBAHN_6MM
  5
894
 10
55.3165
 20
-34.3960
 30
0.000000
  70
    32
  0
VERTEX
  8
FRAESBAHN_6MM
  5
895
 10
55.4247
 20
-34.3546
 30
0.000000
  70
    32
  0
VERTEX
  8
FRAESBAHN_6MM
  5
896
 10
55.5328
 20
-34.3129
 30
0.000000
  70
    32
  0
VERTEX
  8
FRAESBAHN_6MM
  5
897
 10
55.6408
 20
-34.2709
 30
0.000000
  70
    32
  0
VERTEX
  8
FRAESBAHN_6MM
  5
898
 10
55.7486
 20
-34.2286
 30
0.000000
  70
    32
  0
VERTEX
  8
FRAESBAHN_6MM
  5
899
 10
55.8563
 20
-34.1860
 30
0.000000
  70
    32
  0
VERTEX
  8
FRAESBAHN_6MM
  5
89A
 10
55.9639
 20
-34.1432
 30
0.000000
  70
    32
  0
VERTEX
  8
FRAESBAHN_6MM
  5
89B
 10
56.0713
 20
-34.1000
 30
0.000000
  70
    32
  0
VERTEX
  8
FRAESBAHN_6MM
  5
89C
 10
56.1787
 20
-34.0566
 30
0.000000
  70
    32
  0
VERTEX
  8
FRAESBAHN_6MM
  5
89D
 10
56.2858
 20
-34.0128
 30
0.000000
  70
    32
  0
VERTEX
  8
FRAESBAHN_6MM
  5
89E
 10
56.3929
 20
-33.9688
 30
0.000000
  70
    32
  0
VERTEX
  8
FRAESBAHN_6MM
  5
89F
 10
56.4998
 20
-33.9245
 30
0.000000
  70
    32
  0
VERTEX
  8
FRAESBAHN_6MM
  5
8A0
 10
56.6066
 20
-33.8799
 30
0.000000
  70
    32
  0
VERTEX
  8
FRAESBAHN_6MM
  5
8A1
 10
56.7132
 20
-33.8350
 30
0.000000
  70
    32
  0
VERTEX
  8
FRAESBAHN_6MM
  5
8A2
 10
56.8197
 20
-33.7898
 30
0.000000
  70
    32
  0
VERTEX
  8
FRAESBAHN_6MM
  5
8A3
 10
56.9261
 20
-33.7443
 30
0.000000
  70
    32
  0
VERTEX
  8
FRAESBAHN_6MM
  5
8A4
 10
57.0324
 20
-33.6985
 30
0.000000
  70
    32
  0
VERTEX
  8
FRAESBAHN_6MM
  5
8A5
 10
57.1385
 20
-33.6525
 30
0.000000
  70
    32
  0
VERTEX
  8
FRAESBAHN_6MM
  5
8A6
 10
57.2444
 20
-33.6061
 30
0.000000
  70
    32
  0
VERTEX
  8
FRAESBAHN_6MM
  5
8A7
 10
57.3502
 20
-33.5595
 30
0.000000
  70
    32
  0
VERTEX
  8
FRAESBAHN_6MM
  5
8A8
 10
57.4559
 20
-33.5126
 30
0.000000
  70
    32
  0
VERTEX
  8
FRAESBAHN_6MM
  5
8A9
 10
57.5614
 20
-33.4654
 30
0.000000
  70
    32
  0
VERTEX
  8
FRAESBAHN_6MM
  5
8AA
 10
57.6668
 20
-33.4179
 30
0.000000
  70
    32
  0
VERTEX
  8
FRAESBAHN_6MM
  5
8AB
 10
57.7721
 20
-33.3701
 30
0.000000
  70
    32
  0
VERTEX
  8
FRAESBAHN_6MM
  5
8AC
 10
57.8772
 20
-33.3221
 30
0.000000
  70
    32
  0
VERTEX
  8
FRAESBAHN_6MM
  5
8AD
 10
57.9821
 20
-33.2737
 30
0.000000
  70
    32
  0
VERTEX
  8
FRAESBAHN_6MM
  5
8AE
 10
58.0869
 20
-33.2251
 30
0.000000
  70
    32
  0
VERTEX
  8
FRAESBAHN_6MM
  5
8AF
 10
58.1916
 20
-33.1762
 30
0.000000
  70
    32
  0
VERTEX
  8
FRAESBAHN_6MM
  5
8B0
 10
58.2961
 20
-33.1270
 30
0.000000
  70
    32
  0
VERTEX
  8
FRAESBAHN_6MM
  5
8B1
 10
58.4005
 20
-33.0775
 30
0.000000
  70
    32
  0
VERTEX
  8
FRAESBAHN_6MM
  5
8B2
 10
58.5047
 20
-33.0277
 30
0.000000
  70
    32
  0
VERTEX
  8
FRAESBAHN_6MM
  5
8B3
 10
58.6087
 20
-32.9777
 30
0.000000
  70
    32
  0
VERTEX
  8
FRAESBAHN_6MM
  5
8B4
 10
58.7127
 20
-32.9273
 30
0.000000
  70
    32
  0
VERTEX
  8
FRAESBAHN_6MM
  5
8B5
 10
58.8164
 20
-32.8767
 30
0.000000
  70
    32
  0
VERTEX
  8
FRAESBAHN_6MM
  5
8B6
 10
58.9200
 20
-32.8258
 30
0.000000
  70
    32
  0
VERTEX
  8
FRAESBAHN_6MM
  5
8B7
 10
59.0234
 20
-32.7746
 30
0.000000
  70
    32
  0
VERTEX
  8
FRAESBAHN_6MM
  5
8B8
 10
59.1267
 20
-32.7232
 30
0.000000
  70
    32
  0
VERTEX
  8
FRAESBAHN_6MM
  5
8B9
 10
59.2299
 20
-32.6714
 30
0.000000
  70
    32
  0
VERTEX
  8
FRAESBAHN_6MM
  5
8BA
 10
59.3328
 20
-32.6194
 30
0.000000
  70
    32
  0
VERTEX
  8
FRAESBAHN_6MM
  5
8BB
 10
59.4356
 20
-32.5671
 30
0.000000
  70
    32
  0
VERTEX
  8
FRAESBAHN_6MM
  5
8BC
 10
59.5383
 20
-32.5145
 30
0.000000
  70
    32
  0
VERTEX
  8
FRAESBAHN_6MM
  5
8BD
 10
59.6408
 20
-32.4616
 30
0.000000
  70
    32
  0
VERTEX
  8
FRAESBAHN_6MM
  5
8BE
 10
59.7431
 20
-32.4085
 30
0.000000
  70
    32
  0
VERTEX
  8
FRAESBAHN_6MM
  5
8BF
 10
59.8453
 20
-32.3550
 30
0.000000
  70
    32
  0
VERTEX
  8
FRAESBAHN_6MM
  5
8C0
 10
59.9473
 20
-32.3013
 30
0.000000
  70
    32
  0
VERTEX
  8
FRAESBAHN_6MM
  5
8C1
 10
60.0491
 20
-32.2473
 30
0.000000
  70
    32
  0
VERTEX
  8
FRAESBAHN_6MM
  5
8C2
 10
60.1508
 20
-32.1931
 30
0.000000
  70
    32
  0
VERTEX
  8
FRAESBAHN_6MM
  5
8C3
 10
60.2523
 20
-32.1385
 30
0.000000
  70
    32
  0
VERTEX
  8
FRAESBAHN_6MM
  5
8C4
 10
60.3536
 20
-32.0837
 30
0.000000
  70
    32
  0
VERTEX
  8
FRAESBAHN_6MM
  5
8C5
 10
60.4548
 20
-32.0286
 30
0.000000
  70
    32
  0
VERTEX
  8
FRAESBAHN_6MM
  5
8C6
 10
60.5558
 20
-31.9732
 30
0.000000
  70
    32
  0
VERTEX
  8
FRAESBAHN_6MM
  5
8C7
 10
60.6566
 20
-31.9176
 30
0.000000
  70
    32
  0
VERTEX
  8
FRAESBAHN_6MM
  5
8C8
 10
60.7573
 20
-31.8616
 30
0.000000
  70
    32
  0
VERTEX
  8
FRAESBAHN_6MM
  5
8C9
 10
60.8578
 20
-31.8054
 30
0.000000
  70
    32
  0
VERTEX
  8
FRAESBAHN_6MM
  5
8CA
 10
60.9581
 20
-31.7489
 30
0.000000
  70
    32
  0
VERTEX
  8
FRAESBAHN_6MM
  5
8CB
 10
61.0583
 20
-31.6922
 30
0.000000
  70
    32
  0
VERTEX
  8
FRAESBAHN_6MM
  5
8CC
 10
61.1582
 20
-31.6351
 30
0.000000
  70
    32
  0
VERTEX
  8
FRAESBAHN_6MM
  5
8CD
 10
61.2580
 20
-31.5778
 30
0.000000
  70
    32
  0
VERTEX
  8
FRAESBAHN_6MM
  5
8CE
 10
61.3577
 20
-31.5203
 30
0.000000
  70
    32
  0
VERTEX
  8
FRAESBAHN_6MM
  5
8CF
 10
61.4571
 20
-31.4624
 30
0.000000
  70
    32
  0
VERTEX
  8
FRAESBAHN_6MM
  5
8D0
 10
61.5564
 20
-31.4043
 30
0.000000
  70
    32
  0
VERTEX
  8
FRAESBAHN_6MM
  5
8D1
 10
61.6555
 20
-31.3459
 30
0.000000
  70
    32
  0
VERTEX
  8
FRAESBAHN_6MM
  5
8D2
 10
61.7544
 20
-31.2872
 30
0.000000
  70
    32
  0
VERTEX
  8
FRAESBAHN_6MM
  5
8D3
 10
61.8532
 20
-31.2283
 30
0.000000
  70
    32
  0
VERTEX
  8
FRAESBAHN_6MM
  5
8D4
 10
61.9518
 20
-31.1690
 30
0.000000
  70
    32
  0
VERTEX
  8
FRAESBAHN_6MM
  5
8D5
 10
62.0501
 20
-31.1096
 30
0.000000
  70
    32
  0
VERTEX
  8
FRAESBAHN_6MM
  5
8D6
 10
62.1484
 20
-31.0498
 30
0.000000
  70
    32
  0
VERTEX
  8
FRAESBAHN_6MM
  5
8D7
 10
62.2464
 20
-30.9898
 30
0.000000
  70
    32
  0
VERTEX
  8
FRAESBAHN_6MM
  5
8D8
 10
62.3442
 20
-30.9295
 30
0.000000
  70
    32
  0
VERTEX
  8
FRAESBAHN_6MM
  5
8D9
 10
62.4419
 20
-30.8689
 30
0.000000
  70
    32
  0
VERTEX
  8
FRAESBAHN_6MM
  5
8DA
 10
62.5394
 20
-30.8081
 30
0.000000
  70
    32
  0
VERTEX
  8
FRAESBAHN_6MM
  5
8DB
 10
62.6367
 20
-30.7470
 30
0.000000
  70
    32
  0
VERTEX
  8
FRAESBAHN_6MM
  5
8DC
 10
62.7338
 20
-30.6856
 30
0.000000
  70
    32
  0
VERTEX
  8
FRAESBAHN_6MM
  5
8DD
 10
62.8307
 20
-30.6240
 30
0.000000
  70
    32
  0
VERTEX
  8
FRAESBAHN_6MM
  5
8DE
 10
62.9275
 20
-30.5621
 30
0.000000
  70
    32
  0
VERTEX
  8
FRAESBAHN_6MM
  5
8DF
 10
63.0240
 20
-30.4999
 30
0.000000
  70
    32
  0
VERTEX
  8
FRAESBAHN_6MM
  5
8E0
 10
63.1204
 20
-30.4374
 30
0.000000
  70
    32
  0
VERTEX
  8
FRAESBAHN_6MM
  5
8E1
 10
63.2165
 20
-30.3747
 30
0.000000
  70
    32
  0
VERTEX
  8
FRAESBAHN_6MM
  5
8E2
 10
63.3125
 20
-30.3117
 30
0.000000
  70
    32
  0
VERTEX
  8
FRAESBAHN_6MM
  5
8E3
 10
63.4083
 20
-30.2485
 30
0.000000
  70
    32
  0
VERTEX
  8
FRAESBAHN_6MM
  5
8E4
 10
63.5039
 20
-30.1850
 30
0.000000
  70
    32
  0
VERTEX
  8
FRAESBAHN_6MM
  5
8E5
 10
63.5993
 20
-30.1212
 30
0.000000
  70
    32
  0
VERTEX
  8
FRAESBAHN_6MM
  5
8E6
 10
63.6945
 20
-30.0572
 30
0.000000
  70
    32
  0
VERTEX
  8
FRAESBAHN_6MM
  5
8E7
 10
63.7896
 20
-29.9928
 30
0.000000
  70
    32
  0
VERTEX
  8
FRAESBAHN_6MM
  5
8E8
 10
63.8844
 20
-29.9283
 30
0.000000
  70
    32
  0
VERTEX
  8
FRAESBAHN_6MM
  5
8E9
 10
63.9790
 20
-29.8634
 30
0.000000
  70
    32
  0
VERTEX
  8
FRAESBAHN_6MM
  5
8EA
 10
64.0734
 20
-29.7983
 30
0.000000
  70
    32
  0
VERTEX
  8
FRAESBAHN_6MM
  5
8EB
 10
64.1677
 20
-29.7330
 30
0.000000
  70
    32
  0
VERTEX
  8
FRAESBAHN_6MM
  5
8EC
 10
64.2617
 20
-29.6673
 30
0.000000
  70
    32
  0
VERTEX
  8
FRAESBAHN_6MM
  5
8ED
 10
64.3555
 20
-29.6015
 30
0.000000
  70
    32
  0
SEQEND
  8
FRAESBAHN_6MM
  5
8EE
  0
POLYLINE
  5
133
  8
FRAESBAHN_6MM
 66
     1
 10
0.0
 20
0.0
 30
0.0
  0
VERTEX
  5
4C5
  8
FRAESBAHN_6MM
 10
64.354537589602785
 20
29.602088614705
 30
0.0
 42
0.1546396587227571
  0
VERTEX
  5
4C6
  8
FRAESBAHN_6MM
 10
74.144739790093297
 20
26.5
 30
0.0
  0
VERTEX
  5
4C7
  8
FRAESBAHN_6MM
 10
81.686291501015262
 20
26.5
 30
0.0
 42
-0.3178372451957796
  0
VERTEX
  5
4C8
  8
FRAESBAHN_6MM
 10
88.285954792089683
 20
21.833333333333311
 30
0.0
 42
0.3178372451957794
  0
VERTEX
  5
4C9
  8
FRAESBAHN_6MM
 10
93.0
 20
18.5
 30
0.0
  0
VERTEX
  5
4CA
  8
FRAESBAHN_6MM
 10
120.0
 20
18.5
 30
0.0
 42
-0.4142135623730951
  0
VERTEX
  5
4CB
  8
FRAESBAHN_6MM
 10
133.0
 20
5.5
 30
0.0
  0
VERTEX
  5
4CC
  8
FRAESBAHN_6MM
 10
133.0
 20
-5.5
 30
0.0
 42
-0.4142135623730951
  0
VERTEX
  5
4CD
  8
FRAESBAHN_6MM
 10
120.0
 20
-18.5
 30
0.0
  0
VERTEX
  5
4CE
  8
FRAESBAHN_6MM
 10
93.000000000000057
 20
-18.499999999999972
 30
0.0
 42
0.3178372451957837
  0
VERTEX
  5
4CF
  8
FRAESBAHN_6MM
 10
88.28595479208974
 20
-21.833333333333339
 30
0.0
 42
-0.3178372451957847
  0
VERTEX
  5
4D0
  8
FRAESBAHN_6MM
 10
81.686291501015262
 20
-26.50000000000006
 30
0.0
  0
VERTEX
  5
4D1
  8
FRAESBAHN_6MM
 10
74.144845974851023
 20
-26.500000000000028
 30
0.0
 42
0.1546230252370422
  0
VERTEX
  5
4D2
  8
FRAESBAHN_6MM
 10
64.355546884238436
 20
-29.60145247464505
 30
0.0
 42
0.1546230252370422
  0
SEQEND
  5
4D3
  8
FRAESBAHN_6MM
  0
POLYLINE
  8
FRAESBAHN_6MM
  5
8EF
  66
     1
 10
0.000000
 20
0.000000
 30
0.000000
  70
     8
  0
VERTEX
  8
FRAESBAHN_6MM
  5
8F0
 10
64.3545
 20
29.6021
 30
0.000000
  70
    32
  0
VERTEX
  8
FRAESBAHN_6MM
  5
8F1
 10
64.2725
 20
29.6597
 30
0.000000
  70
    32
  0
VERTEX
  8
FRAESBAHN_6MM
  5
8F2
 10
64.1903
 20
29.7172
 30
0.000000
  70
    32
  0
VERTEX
  8
FRAESBAHN_6MM
  5
8F3
 10
64.1079
 20
29.7744
 30
0.000000
  70
    32
  0
VERTEX
  8
FRAESBAHN_6MM
  5
8F4
 10
64.0254
 20
29.8315
 30
0.000000
  70
    32
  0
VERTEX
  8
FRAESBAHN_6MM
  5
8F5
 10
63.9427
 20
29.8883
 30
0.000000
  70
    32
  0
VERTEX
  8
FRAESBAHN_6MM
  5
8F6
 10
63.8599
 20
29.9450
 30
0.000000
  70
    32
  0
VERTEX
  8
FRAESBAHN_6MM
  5
8F7
 10
63.7769
 20
30.0014
 30
0.000000
  70
    32
  0
VERTEX
  8
FRAESBAHN_6MM
  5
8F8
 10
63.6938
 20
30.0576
 30
0.000000
  70
    32
  0
VERTEX
  8
FRAESBAHN_6MM
  5
8F9
 10
63.6106
 20
30.1137
 30
0.000000
  70
    32
  0
VERTEX
  8
FRAESBAHN_6MM
  5
8FA
 10
63.5271
 20
30.1695
 30
0.000000
  70
    32
  0
VERTEX
  8
FRAESBAHN_6MM
  5
8FB
 10
63.4436
 20
30.2251
 30
0.000000
  70
    32
  0
VERTEX
  8
FRAESBAHN_6MM
  5
8FC
 10
63.3598
 20
30.2806
 30
0.000000
  70
    32
  0
VERTEX
  8
FRAESBAHN_6MM
  5
8FD
 10
63.2760
 20
30.3358
 30
0.000000
  70
    32
  0
VERTEX
  8
FRAESBAHN_6MM
  5
8FE
 10
63.1920
 20
30.3908
 30
0.000000
  70
    32
  0
VERTEX
  8
FRAESBAHN_6MM
  5
8FF
 10
63.1078
 20
30.4456
 30
0.000000
  70
    32
  0
VERTEX
  8
FRAESBAHN_6MM
  5
900
 10
63.0235
 20
30.5002
 30
0.000000
  70
    32
  0
VERTEX
  8
FRAESBAHN_6MM
  5
901
 10
62.9390
 20
30.5547
 30
0.000000
  70
    32
  0
VERTEX
  8
FRAESBAHN_6MM
  5
902
 10
62.8544
 20
30.6089
 30
0.000000
  70
    32
  0
VERTEX
  8
FRAESBAHN_6MM
  5
903
 10
62.7697
 20
30.6629
 30
0.000000
  70
    32
  0
VERTEX
  8
FRAESBAHN_6MM
  5
904
 10
62.6848
 20
30.7167
 30
0.000000
  70
    32
  0
VERTEX
  8
FRAESBAHN_6MM
  5
905
 10
62.5998
 20
30.7703
 30
0.000000
  70
    32
  0
VERTEX
  8
FRAESBAHN_6MM
  5
906
 10
62.5146
 20
30.8236
 30
0.000000
  70
    32
  0
VERTEX
  8
FRAESBAHN_6MM
  5
907
 10
62.4293
 20
30.8768
 30
0.000000
  70
    32
  0
VERTEX
  8
FRAESBAHN_6MM
  5
908
 10
62.3438
 20
30.9298
 30
0.000000
  70
    32
  0
VERTEX
  8
FRAESBAHN_6MM
  5
909
 10
62.2582
 20
30.9826
 30
0.000000
  70
    32
  0
VERTEX
  8
FRAESBAHN_6MM
  5
90A
 10
62.1725
 20
31.0351
 30
0.000000
  70
    32
  0
VERTEX
  8
FRAESBAHN_6MM
  5
90B
 10
62.0866
 20
31.0875
 30
0.000000
  70
    32
  0
VERTEX
  8
FRAESBAHN_6MM
  5
90C
 10
62.0006
 20
31.1396
 30
0.000000
  70
    32
  0
VERTEX
  8
FRAESBAHN_6MM
  5
90D
 10
61.9145
 20
31.1916
 30
0.000000
  70
    32
  0
VERTEX
  8
FRAESBAHN_6MM
  5
90E
 10
61.8282
 20
31.2433
 30
0.000000
  70
    32
  0
VERTEX
  8
FRAESBAHN_6MM
  5
90F
 10
61.7418
 20
31.2948
 30
0.000000
  70
    32
  0
VERTEX
  8
FRAESBAHN_6MM
  5
910
 10
61.6552
 20
31.3461
 30
0.000000
  70
    32
  0
VERTEX
  8
FRAESBAHN_6MM
  5
911
 10
61.5685
 20
31.3972
 30
0.000000
  70
    32
  0
VERTEX
  8
FRAESBAHN_6MM
  5
912
 10
61.4817
 20
31.4481
 30
0.000000
  70
    32
  0
VERTEX
  8
FRAESBAHN_6MM
  5
913
 10
61.3947
 20
31.4988
 30
0.000000
  70
    32
  0
VERTEX
  8
FRAESBAHN_6MM
  5
914
 10
61.3076
 20
31.5493
 30
0.000000
  70
    32
  0
VERTEX
  8
FRAESBAHN_6MM
  5
915
 10
61.2203
 20
31.5996
 30
0.000000
  70
    32
  0
VERTEX
  8
FRAESBAHN_6MM
  5
916
 10
61.1330
 20
31.6497
 30
0.000000
  70
    32
  0
VERTEX
  8
FRAESBAHN_6MM
  5
917
 10
61.0455
 20
31.6995
 30
0.000000
  70
    32
  0
VERTEX
  8
FRAESBAHN_6MM
  5
918
 10
60.9578
 20
31.7491
 30
0.000000
  70
    32
  0
VERTEX
  8
FRAESBAHN_6MM
  5
919
 10
60.8701
 20
31.7986
 30
0.000000
  70
    32
  0
VERTEX
  8
FRAESBAHN_6MM
  5
91A
 10
60.7822
 20
31.8478
 30
0.000000
  70
    32
  0
VERTEX
  8
FRAESBAHN_6MM
  5
91B
 10
60.6942
 20
31.8968
 30
0.000000
  70
    32
  0
VERTEX
  8
FRAESBAHN_6MM
  5
91C
 10
60.6060
 20
31.9456
 30
0.000000
  70
    32
  0
VERTEX
  8
FRAESBAHN_6MM
  5
91D
 10
60.5177
 20
31.9942
 30
0.000000
  70
    32
  0
VERTEX
  8
FRAESBAHN_6MM
  5
91E
 10
60.4293
 20
32.0426
 30
0.000000
  70
    32
  0
VERTEX
  8
FRAESBAHN_6MM
  5
91F
 10
60.3408
 20
32.0907
 30
0.000000
  70
    32
  0
VERTEX
  8
FRAESBAHN_6MM
  5
920
 10
60.2521
 20
32.1387
 30
0.000000
  70
    32
  0
VERTEX
  8
FRAESBAHN_6MM
  5
921
 10
60.1633
 20
32.1864
 30
0.000000
  70
    32
  0
VERTEX
  8
FRAESBAHN_6MM
  5
922
 10
60.0744
 20
32.2339
 30
0.000000
  70
    32
  0
VERTEX
  8
FRAESBAHN_6MM
  5
923
 10
59.9854
 20
32.2813
 30
0.000000
  70
    32
  0
VERTEX
  8
FRAESBAHN_6MM
  5
924
 10
59.8962
 20
32.3284
 30
0.000000
  70
    32
  0
VERTEX
  8
FRAESBAHN_6MM
  5
925
 10
59.8069
 20
32.3752
 30
0.000000
  70
    32
  0
VERTEX
  8
FRAESBAHN_6MM
  5
926
 10
59.7175
 20
32.4219
 30
0.000000
  70
    32
  0
VERTEX
  8
FRAESBAHN_6MM
  5
927
 10
59.6280
 20
32.4684
 30
0.000000
  70
    32
  0
VERTEX
  8
FRAESBAHN_6MM
  5
928
 10
59.5383
 20
32.5146
 30
0.000000
  70
    32
  0
VERTEX
  8
FRAESBAHN_6MM
  5
929
 10
59.4485
 20
32.5606
 30
0.000000
  70
    32
  0
VERTEX
  8
FRAESBAHN_6MM
  5
92A
 10
59.3586
 20
32.6065
 30
0.000000
  70
    32
  0
VERTEX
  8
FRAESBAHN_6MM
  5
92B
 10
59.2686
 20
32.6521
 30
0.000000
  70
    32
  0
VERTEX
  8
FRAESBAHN_6MM
  5
92C
 10
59.1785
 20
32.6974
 30
0.000000
  70
    32
  0
VERTEX
  8
FRAESBAHN_6MM
  5
92D
 10
59.0882
 20
32.7426
 30
0.000000
  70
    32
  0
VERTEX
  8
FRAESBAHN_6MM
  5
92E
 10
58.9978
 20
32.7876
 30
0.000000
  70
    32
  0
VERTEX
  8
FRAESBAHN_6MM
  5
92F
 10
58.9073
 20
32.8323
 30
0.000000
  70
    32
  0
VERTEX
  8
FRAESBAHN_6MM
  5
930
 10
58.8167
 20
32.8768
 30
0.000000
  70
    32
  0
VERTEX
  8
FRAESBAHN_6MM
  5
931
 10
58.7260
 20
32.9211
 30
0.000000
  70
    32
  0
VERTEX
  8
FRAESBAHN_6MM
  5
932
 10
58.6351
 20
32.9652
 30
0.000000
  70
    32
  0
VERTEX
  8
FRAESBAHN_6MM
  5
933
 10
58.5442
 20
33.0091
 30
0.000000
  70
    32
  0
VERTEX
  8
FRAESBAHN_6MM
  5
934
 10
58.4531
 20
33.0527
 30
0.000000
  70
    32
  0
VERTEX
  8
FRAESBAHN_6MM
  5
935
 10
58.3619
 20
33.0962
 30
0.000000
  70
    32
  0
VERTEX
  8
FRAESBAHN_6MM
  5
936
 10
58.2706
 20
33.1394
 30
0.000000
  70
    32
  0
VERTEX
  8
FRAESBAHN_6MM
  5
937
 10
58.1791
 20
33.1824
 30
0.000000
  70
    32
  0
VERTEX
  8
FRAESBAHN_6MM
  5
938
 10
58.0876
 20
33.2252
 30
0.000000
  70
    32
  0
VERTEX
  8
FRAESBAHN_6MM
  5
939
 10
57.9959
 20
33.2677
 30
0.000000
  70
    32
  0
VERTEX
  8
FRAESBAHN_6MM
  5
93A
 10
57.9042
 20
33.3101
 30
0.000000
  70
    32
  0
VERTEX
  8
FRAESBAHN_6MM
  5
93B
 10
57.8123
 20
33.3522
 30
0.000000
  70
    32
  0
VERTEX
  8
FRAESBAHN_6MM
  5
93C
 10
57.7203
 20
33.3941
 30
0.000000
  70
    32
  0
VERTEX
  8
FRAESBAHN_6MM
  5
93D
 10
57.6282
 20
33.4358
 30
0.000000
  70
    32
  0
VERTEX
  8
FRAESBAHN_6MM
  5
93E
 10
57.5360
 20
33.4773
 30
0.000000
  70
    32
  0
VERTEX
  8
FRAESBAHN_6MM
  5
93F
 10
57.4436
 20
33.5186
 30
0.000000
  70
    32
  0
VERTEX
  8
FRAESBAHN_6MM
  5
940
 10
57.3512
 20
33.5596
 30
0.000000
  70
    32
  0
VERTEX
  8
FRAESBAHN_6MM
  5
941
 10
57.2586
 20
33.6004
 30
0.000000
  70
    32
  0
VERTEX
  8
FRAESBAHN_6MM
  5
942
 10
57.1660
 20
33.6410
 30
0.000000
  70
    32
  0
VERTEX
  8
FRAESBAHN_6MM
  5
943
 10
57.0732
 20
33.6814
 30
0.000000
  70
    32
  0
VERTEX
  8
FRAESBAHN_6MM
  5
944
 10
56.9804
 20
33.7216
 30
0.000000
  70
    32
  0
VERTEX
  8
FRAESBAHN_6MM
  5
945
 10
56.8874
 20
33.7615
 30
0.000000
  70
    32
  0
VERTEX
  8
FRAESBAHN_6MM
  5
946
 10
56.7943
 20
33.8012
 30
0.000000
  70
    32
  0
VERTEX
  8
FRAESBAHN_6MM
  5
947
 10
56.7011
 20
33.8407
 30
0.000000
  70
    32
  0
VERTEX
  8
FRAESBAHN_6MM
  5
948
 10
56.6078
 20
33.8800
 30
0.000000
  70
    32
  0
VERTEX
  8
FRAESBAHN_6MM
  5
949
 10
56.5144
 20
33.9190
 30
0.000000
  70
    32
  0
VERTEX
  8
FRAESBAHN_6MM
  5
94A
 10
56.4209
 20
33.9579
 30
0.000000
  70
    32
  0
VERTEX
  8
FRAESBAHN_6MM
  5
94B
 10
56.3273
 20
33.9965
 30
0.000000
  70
    32
  0
VERTEX
  8
FRAESBAHN_6MM
  5
94C
 10
56.2336
 20
34.0348
 30
0.000000
  70
    32
  0
VERTEX
  8
FRAESBAHN_6MM
  5
94D
 10
56.1398
 20
34.0730
 30
0.000000
  70
    32
  0
VERTEX
  8
FRAESBAHN_6MM
  5
94E
 10
56.0459
 20
34.1109
 30
0.000000
  70
    32
  0
VERTEX
  8
FRAESBAHN_6MM
  5
94F
 10
55.9519
 20
34.1487
 30
0.000000
  70
    32
  0
VERTEX
  8
FRAESBAHN_6MM
  5
950
 10
55.8578
 20
34.1862
 30
0.000000
  70
    32
  0
VERTEX
  8
FRAESBAHN_6MM
  5
951
 10
55.7636
 20
34.2234
 30
0.000000
  70
    32
  0
VERTEX
  8
FRAESBAHN_6MM
  5
952
 10
55.6693
 20
34.2605
 30
0.000000
  70
    32
  0
VERTEX
  8
FRAESBAHN_6MM
  5
953
 10
55.5748
 20
34.2973
 30
0.000000
  70
    32
  0
VERTEX
  8
FRAESBAHN_6MM
  5
954
 10
55.4803
 20
34.3339
 30
0.000000
  70
    32
  0
VERTEX
  8
FRAESBAHN_6MM
  5
955
 10
55.3858
 20
34.3703
 30
0.000000
  70
    32
  0
VERTEX
  8
FRAESBAHN_6MM
  5
956
 10
55.2911
 20
34.4064
 30
0.000000
  70
    32
  0
VERTEX
  8
FRAESBAHN_6MM
  5
957
 10
55.1963
 20
34.4423
 30
0.000000
  70
    32
  0
VERTEX
  8
FRAESBAHN_6MM
  5
958
 10
55.1014
 20
34.4780
 30
0.000000
  70
    32
  0
VERTEX
  8
FRAESBAHN_6MM
  5
959
 10
55.0064
 20
34.5135
 30
0.000000
  70
    32
  0
VERTEX
  8
FRAESBAHN_6MM
  5
95A
 10
54.9113
 20
34.5488
 30
0.000000
  70
    32
  0
VERTEX
  8
FRAESBAHN_6MM
  5
95B
 10
54.8162
 20
34.5838
 30
0.000000
  70
    32
  0
VERTEX
  8
FRAESBAHN_6MM
  5
95C
 10
54.7209
 20
34.6186
 30
0.000000
  70
    32
  0
VERTEX
  8
FRAESBAHN_6MM
  5
95D
 10
54.6256
 20
34.6531
 30
0.000000
  70
    32
  0
VERTEX
  8
FRAESBAHN_6MM
  5
95E
 10
54.5301
 20
34.6875
 30
0.000000
  70
    32
  0
VERTEX
  8
FRAESBAHN_6MM
  5
95F
 10
54.4346
 20
34.7216
 30
0.000000
  70
    32
  0
VERTEX
  8
FRAESBAHN_6MM
  5
960
 10
54.3390
 20
34.7555
 30
0.000000
  70
    32
  0
VERTEX
  8
FRAESBAHN_6MM
  5
961
 10
54.2433
 20
34.7892
 30
0.000000
  70
    32
  0
VERTEX
  8
FRAESBAHN_6MM
  5
962
 10
54.1475
 20
34.8226
 30
0.000000
  70
    32
  0
VERTEX
  8
FRAESBAHN_6MM
  5
963
 10
54.0516
 20
34.8558
 30
0.000000
  70
    32
  0
VERTEX
  8
FRAESBAHN_6MM
  5
964
 10
53.9556
 20
34.8888
 30
0.000000
  70
    32
  0
VERTEX
  8
FRAESBAHN_6MM
  5
965
 10
53.8595
 20
34.9215
 30
0.000000
  70
    32
  0
VERTEX
  8
FRAESBAHN_6MM
  5
966
 10
53.7634
 20
34.9540
 30
0.000000
  70
    32
  0
VERTEX
  8
FRAESBAHN_6MM
  5
967
 10
53.6672
 20
34.9863
 30
0.000000
  70
    32
  0
VERTEX
  8
FRAESBAHN_6MM
  5
968
 10
53.5709
 20
35.0184
 30
0.000000
  70
    32
  0
VERTEX
  8
FRAESBAHN_6MM
  5
969
 10
53.4745
 20
35.0502
 30
0.000000
  70
    32
  0
VERTEX
  8
FRAESBAHN_6MM
  5
96A
 10
53.3780
 20
35.0818
 30
0.000000
  70
    32
  0
VERTEX
  8
FRAESBAHN_6MM
  5
96B
 10
53.2814
 20
35.1132
 30
0.000000
  70
    32
  0
VERTEX
  8
FRAESBAHN_6MM
  5
96C
 10
53.1847
 20
35.1443
 30
0.000000
  70
    32
  0
VERTEX
  8
FRAESBAHN_6MM
  5
96D
 10
53.0880
 20
35.1752
 30
0.000000
  70
    32
  0
VERTEX
  8
FRAESBAHN_6MM
  5
96E
 10
52.9912
 20
35.2059
 30
0.000000
  70
    32
  0
VERTEX
  8
FRAESBAHN_6MM
  5
96F
 10
52.8943
 20
35.2364
 30
0.000000
  70
    32
  0
VERTEX
  8
FRAESBAHN_6MM
  5
970
 10
52.7973
 20
35.2666
 30
0.000000
  70
    32
  0
VERTEX
  8
FRAESBAHN_6MM
  5
971
 10
52.7003
 20
35.2966
 30
0.000000
  70
    32
  0
VERTEX
  8
FRAESBAHN_6MM
  5
972
 10
52.6032
 20
35.3264
 30
0.000000
  70
    32
  0
VERTEX
  8
FRAESBAHN_6MM
  5
973
 10
52.5060
 20
35.3559
 30
0.000000
  70
    32
  0
VERTEX
  8
FRAESBAHN_6MM
  5
974
 10
52.4087
 20
35.3852
 30
0.000000
  70
    32
  0
VERTEX
  8
FRAESBAHN_6MM
  5
975
 10
52.3113
 20
35.4143
 30
0.000000
  70
    32
  0
VERTEX
  8
FRAESBAHN_6MM
  5
976
 10
52.2139
 20
35.4431
 30
0.000000
  70
    32
  0
VERTEX
  8
FRAESBAHN_6MM
  5
977
 10
52.1164
 20
35.4717
 30
0.000000
  70
    32
  0
VERTEX
  8
FRAESBAHN_6MM
  5
978
 10
52.0188
 20
35.5001
 30
0.000000
  70
    32
  0
VERTEX
  8
FRAESBAHN_6MM
  5
979
 10
51.9212
 20
35.5282
 30
0.000000
  70
    32
  0
VERTEX
  8
FRAESBAHN_6MM
  5
97A
 10
51.8234
 20
35.5562
 30
0.000000
  70
    32
  0
VERTEX
  8
FRAESBAHN_6MM
  5
97B
 10
51.7256
 20
35.5838
 30
0.000000
  70
    32
  0
VERTEX
  8
FRAESBAHN_6MM
  5
97C
 10
51.6278
 20
35.6113
 30
0.000000
  70
    32
  0
VERTEX
  8
FRAESBAHN_6MM
  5
97D
 10
51.5298
 20
35.6385
 30
0.000000
  70
    32
  0
VERTEX
  8
FRAESBAHN_6MM
  5
97E
 10
51.4318
 20
35.6655
 30
0.000000
  70
    32
  0
VERTEX
  8
FRAESBAHN_6MM
  5
97F
 10
51.3337
 20
35.6923
 30
0.000000
  70
    32
  0
VERTEX
  8
FRAESBAHN_6MM
  5
980
 10
51.2356
 20
35.7188
 30
0.000000
  70
    32
  0
VERTEX
  8
FRAESBAHN_6MM
  5
981
 10
51.1374
 20
35.7451
 30
0.000000
  70
    32
  0
VERTEX
  8
FRAESBAHN_6MM
  5
982
 10
51.0391
 20
35.7712
 30
0.000000
  70
    32
  0
VERTEX
  8
FRAESBAHN_6MM
  5
983
 10
50.9407
 20
35.7970
 30
0.000000
  70
    32
  0
VERTEX
  8
FRAESBAHN_6MM
  5
984
 10
50.8423
 20
35.8226
 30
0.000000
  70
    32
  0
VERTEX
  8
FRAESBAHN_6MM
  5
985
 10
50.7438
 20
35.8480
 30
0.000000
  70
    32
  0
VERTEX
  8
FRAESBAHN_6MM
  5
986
 10
50.6453
 20
35.8731
 30
0.000000
  70
    32
  0
VERTEX
  8
FRAESBAHN_6MM
  5
987
 10
50.5467
 20
35.8980
 30
0.000000
  70
    32
  0
VERTEX
  8
FRAESBAHN_6MM
  5
988
 10
50.4480
 20
35.9227
 30
0.000000
  70
    32
  0
VERTEX
  8
FRAESBAHN_6MM
  5
989
 10
50.3492
 20
35.9471
 30
0.000000
  70
    32
  0
VERTEX
  8
FRAESBAHN_6MM
  5
98A
 10
50.2504
 20
35.9713
 30
0.000000
  70
    32
  0
VERTEX
  8
FRAESBAHN_6MM
  5
98B
 10
50.1516
 20
35.9953
 30
0.000000
  70
    32
  0
VERTEX
  8
FRAESBAHN_6MM
  5
98C
 10
50.0526
 20
36.0190
 30
0.000000
  70
    32
  0
VERTEX
  8
FRAESBAHN_6MM
  5
98D
 10
49.9536
 20
36.0425
 30
0.000000
  70
    32
  0
VERTEX
  8
FRAESBAHN_6MM
  5
98E
 10
49.8546
 20
36.0658
 30
0.000000
  70
    32
  0
VERTEX
  8
FRAESBAHN_6MM
  5
98F
 10
49.7554
 20
36.0889
 30
0.000000
  70
    32
  0
VERTEX
  8
FRAESBAHN_6MM
  5
990
 10
49.6563
 20
36.1117
 30
0.000000
  70
    32
  0
VERTEX
  8
FRAESBAHN_6MM
  5
991
 10
49.5570
 20
36.1342
 30
0.000000
  70
    32
  0
VERTEX
  8
FRAESBAHN_6MM
  5
992
 10
49.4577
 20
36.1566
 30
0.000000
  70
    32
  0
VERTEX
  8
FRAESBAHN_6MM
  5
993
 10
49.3584
 20
36.1787
 30
0.000000
  70
    32
  0
VERTEX
  8
FRAESBAHN_6MM
  5
994
 10
49.2590
 20
36.2006
 30
0.000000
  70
    32
  0
VERTEX
  8
FRAESBAHN_6MM
  5
995
 10
49.1595
 20
36.2222
 30
0.000000
  70
    32
  0
VERTEX
  8
FRAESBAHN_6MM
  5
996
 10
49.0600
 20
36.2436
 30
0.000000
  70
    32
  0
VERTEX
  8
FRAESBAHN_6MM
  5
997
 10
48.9604
 20
36.2648
 30
0.000000
  70
    32
  0
VERTEX
  8
FRAESBAHN_6MM
  5
998
 10
48.8608
 20
36.2857
 30
0.000000
  70
    32
  0
VERTEX
  8
FRAESBAHN_6MM
  5
999
 10
48.7611
 20
36.3064
 30
0.000000
  70
    32
  0
VERTEX
  8
FRAESBAHN_6MM
  5
99A
 10
48.6613
 20
36.3269
 30
0.000000
  70
    32
  0
VERTEX
  8
FRAESBAHN_6MM
  5
99B
 10
48.5615
 20
36.3471
 30
0.000000
  70
    32
  0
VERTEX
  8
FRAESBAHN_6MM
  5
99C
 10
48.4617
 20
36.3671
 30
0.000000
  70
    32
  0
VERTEX
  8
FRAESBAHN_6MM
  5
99D
 10
48.3618
 20
36.3869
 30
0.000000
  70
    32
  0
VERTEX
  8
FRAESBAHN_6MM
  5
99E
 10
48.2618
 20
36.4064
 30
0.000000
  70
    32
  0
VERTEX
  8
FRAESBAHN_6MM
  5
99F
 10
48.1618
 20
36.4257
 30
0.000000
  70
    32
  0
VERTEX
  8
FRAESBAHN_6MM
  5
9A0
 10
48.0617
 20
36.4448
 30
0.000000
  70
    32
  0
VERTEX
  8
FRAESBAHN_6MM
  5
9A1
 10
47.9616
 20
36.4636
 30
0.000000
  70
    32
  0
VERTEX
  8
FRAESBAHN_6MM
  5
9A2
 10
47.8615
 20
36.4822
 30
0.000000
  70
    32
  0
VERTEX
  8
FRAESBAHN_6MM
  5
9A3
 10
47.7613
 20
36.5006
 30
0.000000
  70
    32
  0
VERTEX
  8
FRAESBAHN_6MM
  5
9A4
 10
47.6610
 20
36.5187
 30
0.000000
  70
    32
  0
VERTEX
  8
FRAESBAHN_6MM
  5
9A5
 10
47.5607
 20
36.5366
 30
0.000000
  70
    32
  0
VERTEX
  8
FRAESBAHN_6MM
  5
9A6
 10
47.4603
 20
36.5542
 30
0.000000
  70
    32
  0
VERTEX
  8
FRAESBAHN_6MM
  5
9A7
 10
47.3599
 20
36.5717
 30
0.000000
  70
    32
  0
VERTEX
  8
FRAESBAHN_6MM
  5
9A8
 10
47.2595
 20
36.5888
 30
0.000000
  70
    32
  0
VERTEX
  8
FRAESBAHN_6MM
  5
9A9
 10
47.1590
 20
36.6058
 30
0.000000
  70
    32
  0
VERTEX
  8
FRAESBAHN_6MM
  5
9AA
 10
47.0585
 20
36.6225
 30
0.000000
  70
    32
  0
VERTEX
  8
FRAESBAHN_6MM
  5
9AB
 10
46.9579
 20
36.6390
 30
0.000000
  70
    32
  0
VERTEX
  8
FRAESBAHN_6MM
  5
9AC
 10
46.8573
 20
36.6552
 30
0.000000
  70
    32
  0
VERTEX
  8
FRAESBAHN_6MM
  5
9AD
 10
46.7566
 20
36.6712
 30
0.000000
  70
    32
  0
VERTEX
  8
FRAESBAHN_6MM
  5
9AE
 10
46.6559
 20
36.6869
 30
0.000000
  70
    32
  0
VERTEX
  8
FRAESBAHN_6MM
  5
9AF
 10
46.5552
 20
36.7025
 30
0.000000
  70
    32
  0
VERTEX
  8
FRAESBAHN_6MM
  5
9B0
 10
46.4544
 20
36.7177
 30
0.000000
  70
    32
  0
VERTEX
  8
FRAESBAHN_6MM
  5
9B1
 10
46.3535
 20
36.7328
 30
0.000000
  70
    32
  0
VERTEX
  8
FRAESBAHN_6MM
  5
9B2
 10
46.2527
 20
36.7476
 30
0.000000
  70
    32
  0
VERTEX
  8
FRAESBAHN_6MM
  5
9B3
 10
46.1518
 20
36.7622
 30
0.000000
  70
    32
  0
VERTEX
  8
FRAESBAHN_6MM
  5
9B4
 10
46.0508
 20
36.7765
 30
0.000000
  70
    32
  0
VERTEX
  8
FRAESBAHN_6MM
  5
9B5
 10
45.9498
 20
36.7906
 30
0.000000
  70
    32
  0
VERTEX
  8
FRAESBAHN_6MM
  5
9B6
 10
45.8488
 20
36.8044
 30
0.000000
  70
    32
  0
VERTEX
  8
FRAESBAHN_6MM
  5
9B7
 10
45.7477
 20
36.8180
 30
0.000000
  70
    32
  0
VERTEX
  8
FRAESBAHN_6MM
  5
9B8
 10
45.6467
 20
36.8314
 30
0.000000
  70
    32
  0
VERTEX
  8
FRAESBAHN_6MM
  5
9B9
 10
45.5455
 20
36.8446
 30
0.000000
  70
    32
  0
VERTEX
  8
FRAESBAHN_6MM
  5
9BA
 10
45.4444
 20
36.8575
 30
0.000000
  70
    32
  0
VERTEX
  8
FRAESBAHN_6MM
  5
9BB
 10
45.3432
 20
36.8701
 30
0.000000
  70
    32
  0
VERTEX
  8
FRAESBAHN_6MM
  5
9BC
 10
45.2419
 20
36.8825
 30
0.000000
  70
    32
  0
VERTEX
  8
FRAESBAHN_6MM
  5
9BD
 10
45.1407
 20
36.8947
 30
0.000000
  70
    32
  0
VERTEX
  8
FRAESBAHN_6MM
  5
9BE
 10
45.0394
 20
36.9067
 30
0.000000
  70
    32
  0
VERTEX
  8
FRAESBAHN_6MM
  5
9BF
 10
44.9381
 20
36.9184
 30
0.000000
  70
    32
  0
VERTEX
  8
FRAESBAHN_6MM
  5
9C0
 10
44.8367
 20
36.9298
 30
0.000000
  70
    32
  0
VERTEX
  8
FRAESBAHN_6MM
  5
9C1
 10
44.7353
 20
36.9411
 30
0.000000
  70
    32
  0
VERTEX
  8
FRAESBAHN_6MM
  5
9C2
 10
44.6339
 20
36.9520
 30
0.000000
  70
    32
  0
VERTEX
  8
FRAESBAHN_6MM
  5
9C3
 10
44.5325
 20
36.9628
 30
0.000000
  70
    32
  0
VERTEX
  8
FRAESBAHN_6MM
  5
9C4
 10
44.4310
 20
36.9733
 30
0.000000
  70
    32
  0
VERTEX
  8
FRAESBAHN_6MM
  5
9C5
 10
44.3295
 20
36.9836
 30
0.000000
  70
    32
  0
VERTEX
  8
FRAESBAHN_6MM
  5
9C6
 10
44.2280
 20
36.9936
 30
0.000000
  70
    32
  0
VERTEX
  8
FRAESBAHN_6MM
  5
9C7
 10
44.1264
 20
37.0034
 30
0.000000
  70
    32
  0
VERTEX
  8
FRAESBAHN_6MM
  5
9C8
 10
44.0248
 20
37.0130
 30
0.000000
  70
    32
  0
VERTEX
  8
FRAESBAHN_6MM
  5
9C9
 10
43.9232
 20
37.0223
 30
0.000000
  70
    32
  0
VERTEX
  8
FRAESBAHN_6MM
  5
9CA
 10
43.8216
 20
37.0314
 30
0.000000
  70
    32
  0
VERTEX
  8
FRAESBAHN_6MM
  5
9CB
 10
43.7200
 20
37.0402
 30
0.000000
  70
    32
  0
VERTEX
  8
FRAESBAHN_6MM
  5
9CC
 10
43.6183
 20
37.0488
 30
0.000000
  70
    32
  0
VERTEX
  8
FRAESBAHN_6MM
  5
9CD
 10
43.5166
 20
37.0572
 30
0.000000
  70
    32
  0
VERTEX
  8
FRAESBAHN_6MM
  5
9CE
 10
43.4149
 20
37.0653
 30
0.000000
  70
    32
  0
VERTEX
  8
FRAESBAHN_6MM
  5
9CF
 10
43.3132
 20
37.0732
 30
0.000000
  70
    32
  0
VERTEX
  8
FRAESBAHN_6MM
  5
9D0
 10
43.2114
 20
37.0808
 30
0.000000
  70
    32
  0
VERTEX
  8
FRAESBAHN_6MM
  5
9D1
 10
43.1096
 20
37.0882
 30
0.000000
  70
    32
  0
VERTEX
  8
FRAESBAHN_6MM
  5
9D2
 10
43.0078
 20
37.0954
 30
0.000000
  70
    32
  0
VERTEX
  8
FRAESBAHN_6MM
  5
9D3
 10
42.9060
 20
37.1023
 30
0.000000
  70
    32
  0
VERTEX
  8
FRAESBAHN_6MM
  5
9D4
 10
42.8042
 20
37.1090
 30
0.000000
  70
    32
  0
VERTEX
  8
FRAESBAHN_6MM
  5
9D5
 10
42.7023
 20
37.1155
 30
0.000000
  70
    32
  0
VERTEX
  8
FRAESBAHN_6MM
  5
9D6
 10
42.6005
 20
37.1217
 30
0.000000
  70
    32
  0
VERTEX
  8
FRAESBAHN_6MM
  5
9D7
 10
42.4986
 20
37.1277
 30
0.000000
  70
    32
  0
VERTEX
  8
FRAESBAHN_6MM
  5
9D8
 10
42.3967
 20
37.1334
 30
0.000000
  70
    32
  0
VERTEX
  8
FRAESBAHN_6MM
  5
9D9
 10
42.2948
 20
37.1389
 30
0.000000
  70
    32
  0
VERTEX
  8
FRAESBAHN_6MM
  5
9DA
 10
42.1928
 20
37.1441
 30
0.000000
  70
    32
  0
VERTEX
  8
FRAESBAHN_6MM
  5
9DB
 10
42.0909
 20
37.1492
 30
0.000000
  70
    32
  0
VERTEX
  8
FRAESBAHN_6MM
  5
9DC
 10
41.9889
 20
37.1539
 30
0.000000
  70
    32
  0
VERTEX
  8
FRAESBAHN_6MM
  5
9DD
 10
41.8870
 20
37.1585
 30
0.000000
  70
    32
  0
VERTEX
  8
FRAESBAHN_6MM
  5
9DE
 10
41.7850
 20
37.1628
 30
0.000000
  70
    32
  0
VERTEX
  8
FRAESBAHN_6MM
  5
9DF
 10
41.6830
 20
37.1669
 30
0.000000
  70
    32
  0
VERTEX
  8
FRAESBAHN_6MM
  5
9E0
 10
41.5810
 20
37.1707
 30
0.000000
  70
    32
  0
VERTEX
  8
FRAESBAHN_6MM
  5
9E1
 10
41.4790
 20
37.1743
 30
0.000000
  70
    32
  0
VERTEX
  8
FRAESBAHN_6MM
  5
9E2
 10
41.3770
 20
37.1776
 30
0.000000
  70
    32
  0
VERTEX
  8
FRAESBAHN_6MM
  5
9E3
 10
41.2749
 20
37.1807
 30
0.000000
  70
    32
  0
VERTEX
  8
FRAESBAHN_6MM
  5
9E4
 10
41.1729
 20
37.1836
 30
0.000000
  70
    32
  0
VERTEX
  8
FRAESBAHN_6MM
  5
9E5
 10
41.0709
 20
37.1862
 30
0.000000
  70
    32
  0
VERTEX
  8
FRAESBAHN_6MM
  5
9E6
 10
40.9688
 20
37.1886
 30
0.000000
  70
    32
  0
VERTEX
  8
FRAESBAHN_6MM
  5
9E7
 10
40.8668
 20
37.1908
 30
0.000000
  70
    32
  0
VERTEX
  8
FRAESBAHN_6MM
  5
9E8
 10
40.7647
 20
37.1927
 30
0.000000
  70
    32
  0
VERTEX
  8
FRAESBAHN_6MM
  5
9E9
 10
40.6626
 20
37.1944
 30
0.000000
  70
    32
  0
VERTEX
  8
FRAESBAHN_6MM
  5
9EA
 10
40.5606
 20
37.1958
 30
0.000000
  70
    32
  0
VERTEX
  8
FRAESBAHN_6MM
  5
9EB
 10
40.4585
 20
37.1970
 30
0.000000
  70
    32
  0
VERTEX
  8
FRAESBAHN_6MM
  5
9EC
 10
40.3564
 20
37.1980
 30
0.000000
  70
    32
  0
VERTEX
  8
FRAESBAHN_6MM
  5
9ED
 10
40.2543
 20
37.1987
 30
0.000000
  70
    32
  0
VERTEX
  8
FRAESBAHN_6MM
  5
9EE
 10
40.1523
 20
37.1992
 30
0.000000
  70
    32
  0
VERTEX
  8
FRAESBAHN_6MM
  5
9EF
 10
40.0502
 20
37.1994
 30
0.000000
  70
    32
  0
VERTEX
  8
FRAESBAHN_6MM
  5
9F0
 10
39.9481
 20
37.1994
 30
0.000000
  70
    32
  0
VERTEX
  8
FRAESBAHN_6MM
  5
9F1
 10
39.8460
 20
37.1992
 30
0.000000
  70
    32
  0
VERTEX
  8
FRAESBAHN_6MM
  5
9F2
 10
39.7440
 20
37.1987
 30
0.000000
  70
    32
  0
VERTEX
  8
FRAESBAHN_6MM
  5
9F3
 10
39.6419
 20
37.1980
 30
0.000000
  70
    32
  0
VERTEX
  8
FRAESBAHN_6MM
  5
9F4
 10
39.5398
 20
37.1970
 30
0.000000
  70
    32
  0
VERTEX
  8
FRAESBAHN_6MM
  5
9F5
 10
39.4377
 20
37.1958
 30
0.000000
  70
    32
  0
VERTEX
  8
FRAESBAHN_6MM
  5
9F6
 10
39.3357
 20
37.1944
 30
0.000000
  70
    32
  0
VERTEX
  8
FRAESBAHN_6MM
  5
9F7
 10
39.2336
 20
37.1927
 30
0.000000
  70
    32
  0
VERTEX
  8
FRAESBAHN_6MM
  5
9F8
 10
39.1315
 20
37.1908
 30
0.000000
  70
    32
  0
VERTEX
  8
FRAESBAHN_6MM
  5
9F9
 10
39.0295
 20
37.1887
 30
0.000000
  70
    32
  0
VERTEX
  8
FRAESBAHN_6MM
  5
9FA
 10
38.9274
 20
37.1863
 30
0.000000
  70
    32
  0
VERTEX
  8
FRAESBAHN_6MM
  5
9FB
 10
38.8254
 20
37.1836
 30
0.000000
  70
    32
  0
VERTEX
  8
FRAESBAHN_6MM
  5
9FC
 10
38.7234
 20
37.1808
 30
0.000000
  70
    32
  0
VERTEX
  8
FRAESBAHN_6MM
  5
9FD
 10
38.6213
 20
37.1777
 30
0.000000
  70
    32
  0
VERTEX
  8
FRAESBAHN_6MM
  5
9FE
 10
38.5193
 20
37.1743
 30
0.000000
  70
    32
  0
VERTEX
  8
FRAESBAHN_6MM
  5
9FF
 10
38.4173
 20
37.1707
 30
0.000000
  70
    32
  0
VERTEX
  8
FRAESBAHN_6MM
  5
A00
 10
38.3153
 20
37.1669
 30
0.000000
  70
    32
  0
VERTEX
  8
FRAESBAHN_6MM
  5
A01
 10
38.2133
 20
37.1629
 30
0.000000
  70
    32
  0
VERTEX
  8
FRAESBAHN_6MM
  5
A02
 10
38.1113
 20
37.1586
 30
0.000000
  70
    32
  0
VERTEX
  8
FRAESBAHN_6MM
  5
A03
 10
38.0094
 20
37.1540
 30
0.000000
  70
    32
  0
VERTEX
  8
FRAESBAHN_6MM
  5
A04
 10
37.9074
 20
37.1492
 30
0.000000
  70
    32
  0
VERTEX
  8
FRAESBAHN_6MM
  5
A05
 10
37.8055
 20
37.1442
 30
0.000000
  70
    32
  0
VERTEX
  8
FRAESBAHN_6MM
  5
A06
 10
37.7035
 20
37.1390
 30
0.000000
  70
    32
  0
VERTEX
  8
FRAESBAHN_6MM
  5
A07
 10
37.6016
 20
37.1335
 30
0.000000
  70
    32
  0
VERTEX
  8
FRAESBAHN_6MM
  5
A08
 10
37.4997
 20
37.1277
 30
0.000000
  70
    32
  0
VERTEX
  8
FRAESBAHN_6MM
  5
A09
 10
37.3978
 20
37.1218
 30
0.000000
  70
    32
  0
VERTEX
  8
FRAESBAHN_6MM
  5
A0A
 10
37.2960
 20
37.1155
 30
0.000000
  70
    32
  0
VERTEX
  8
FRAESBAHN_6MM
  5
A0B
 10
37.1941
 20
37.1091
 30
0.000000
  70
    32
  0
VERTEX
  8
FRAESBAHN_6MM
  5
A0C
 10
37.0923
 20
37.1024
 30
0.000000
  70
    32
  0
VERTEX
  8
FRAESBAHN_6MM
  5
A0D
 10
36.9905
 20
37.0955
 30
0.000000
  70
    32
  0
VERTEX
  8
FRAESBAHN_6MM
  5
A0E
 10
36.8887
 20
37.0883
 30
0.000000
  70
    32
  0
VERTEX
  8
FRAESBAHN_6MM
  5
A0F
 10
36.7869
 20
37.0809
 30
0.000000
  70
    32
  0
VERTEX
  8
FRAESBAHN_6MM
  5
A10
 10
36.6851
 20
37.0732
 30
0.000000
  70
    32
  0
VERTEX
  8
FRAESBAHN_6MM
  5
A11
 10
36.5834
 20
37.0653
 30
0.000000
  70
    32
  0
VERTEX
  8
FRAESBAHN_6MM
  5
A12
 10
36.4817
 20
37.0572
 30
0.000000
  70
    32
  0
VERTEX
  8
FRAESBAHN_6MM
  5
A13
 10
36.3800
 20
37.0489
 30
0.000000
  70
    32
  0
VERTEX
  8
FRAESBAHN_6MM
  5
A14
 10
36.2783
 20
37.0402
 30
0.000000
  70
    32
  0
VERTEX
  8
FRAESBAHN_6MM
  5
A15
 10
36.1767
 20
37.0314
 30
0.000000
  70
    32
  0
VERTEX
  8
FRAESBAHN_6MM
  5
A16
 10
36.0751
 20
37.0223
 30
0.000000
  70
    32
  0
VERTEX
  8
FRAESBAHN_6MM
  5
A17
 10
35.9735
 20
37.0130
 30
0.000000
  70
    32
  0
VERTEX
  8
FRAESBAHN_6MM
  5
A18
 10
35.8719
 20
37.0034
 30
0.000000
  70
    32
  0
VERTEX
  8
FRAESBAHN_6MM
  5
A19
 10
35.7703
 20
36.9936
 30
0.000000
  70
    32
  0
VERTEX
  8
FRAESBAHN_6MM
  5
A1A
 10
35.6688
 20
36.9836
 30
0.000000
  70
    32
  0
VERTEX
  8
FRAESBAHN_6MM
  5
A1B
 10
35.5673
 20
36.9733
 30
0.000000
  70
    32
  0
VERTEX
  8
FRAESBAHN_6MM
  5
A1C
 10
35.4658
 20
36.9628
 30
0.000000
  70
    32
  0
VERTEX
  8
FRAESBAHN_6MM
  5
A1D
 10
35.3644
 20
36.9520
 30
0.000000
  70
    32
  0
VERTEX
  8
FRAESBAHN_6MM
  5
A1E
 10
35.2630
 20
36.9410
 30
0.000000
  70
    32
  0
VERTEX
  8
FRAESBAHN_6MM
  5
A1F
 10
35.1616
 20
36.9297
 30
0.000000
  70
    32
  0
VERTEX
  8
FRAESBAHN_6MM
  5
A20
 10
35.0602
 20
36.9183
 30
0.000000
  70
    32
  0
VERTEX
  8
FRAESBAHN_6MM
  5
A21
 10
34.9589
 20
36.9065
 30
0.000000
  70
    32
  0
VERTEX
  8
FRAESBAHN_6MM
  5
A22
 10
34.8576
 20
36.8946
 30
0.000000
  70
    32
  0
VERTEX
  8
FRAESBAHN_6MM
  5
A23
 10
34.7564
 20
36.8824
 30
0.000000
  70
    32
  0
VERTEX
  8
FRAESBAHN_6MM
  5
A24
 10
34.6551
 20
36.8699
 30
0.000000
  70
    32
  0
VERTEX
  8
FRAESBAHN_6MM
  5
A25
 10
34.5539
 20
36.8573
 30
0.000000
  70
    32
  0
VERTEX
  8
FRAESBAHN_6MM
  5
A26
 10
34.4528
 20
36.8443
 30
0.000000
  70
    32
  0
VERTEX
  8
FRAESBAHN_6MM
  5
A27
 10
34.3517
 20
36.8312
 30
0.000000
  70
    32
  0
VERTEX
  8
FRAESBAHN_6MM
  5
A28
 10
34.2506
 20
36.8178
 30
0.000000
  70
    32
  0
VERTEX
  8
FRAESBAHN_6MM
  5
A29
 10
34.1495
 20
36.8042
 30
0.000000
  70
    32
  0
VERTEX
  8
FRAESBAHN_6MM
  5
A2A
 10
34.0485
 20
36.7903
 30
0.000000
  70
    32
  0
VERTEX
  8
FRAESBAHN_6MM
  5
A2B
 10
33.9475
 20
36.7762
 30
0.000000
  70
    32
  0
VERTEX
  8
FRAESBAHN_6MM
  5
A2C
 10
33.8466
 20
36.7618
 30
0.000000
  70
    32
  0
VERTEX
  8
FRAESBAHN_6MM
  5
A2D
 10
33.7457
 20
36.7473
 30
0.000000
  70
    32
  0
VERTEX
  8
FRAESBAHN_6MM
  5
A2E
 10
33.6448
 20
36.7324
 30
0.000000
  70
    32
  0
VERTEX
  8
FRAESBAHN_6MM
  5
A2F
 10
33.5440
 20
36.7174
 30
0.000000
  70
    32
  0
VERTEX
  8
FRAESBAHN_6MM
  5
A30
 10
33.4432
 20
36.7021
 30
0.000000
  70
    32
  0
VERTEX
  8
FRAESBAHN_6MM
  5
A31
 10
33.3424
 20
36.6866
 30
0.000000
  70
    32
  0
VERTEX
  8
FRAESBAHN_6MM
  5
A32
 10
33.2417
 20
36.6708
 30
0.000000
  70
    32
  0
VERTEX
  8
FRAESBAHN_6MM
  5
A33
 10
33.1410
 20
36.6548
 30
0.000000
  70
    32
  0
VERTEX
  8
FRAESBAHN_6MM
  5
A34
 10
33.0404
 20
36.6386
 30
0.000000
  70
    32
  0
VERTEX
  8
FRAESBAHN_6MM
  5
A35
 10
32.9398
 20
36.6221
 30
0.000000
  70
    32
  0
VERTEX
  8
FRAESBAHN_6MM
  5
A36
 10
32.8393
 20
36.6054
 30
0.000000
  70
    32
  0
VERTEX
  8
FRAESBAHN_6MM
  5
A37
 10
32.7388
 20
36.5884
 30
0.000000
  70
    32
  0
VERTEX
  8
FRAESBAHN_6MM
  5
A38
 10
32.6383
 20
36.5712
 30
0.000000
  70
    32
  0
VERTEX
  8
FRAESBAHN_6MM
  5
A39
 10
32.5379
 20
36.5538
 30
0.000000
  70
    32
  0
VERTEX
  8
FRAESBAHN_6MM
  5
A3A
 10
32.4376
 20
36.5361
 30
0.000000
  70
    32
  0
VERTEX
  8
FRAESBAHN_6MM
  5
A3B
 10
32.3373
 20
36.5182
 30
0.000000
  70
    32
  0
VERTEX
  8
FRAESBAHN_6MM
  5
A3C
 10
32.2370
 20
36.5001
 30
0.000000
  70
    32
  0
VERTEX
  8
FRAESBAHN_6MM
  5
A3D
 10
32.1368
 20
36.4817
 30
0.000000
  70
    32
  0
VERTEX
  8
FRAESBAHN_6MM
  5
A3E
 10
32.0366
 20
36.4631
 30
0.000000
  70
    32
  0
VERTEX
  8
FRAESBAHN_6MM
  5
A3F
 10
31.9365
 20
36.4443
 30
0.000000
  70
    32
  0
VERTEX
  8
FRAESBAHN_6MM
  5
A40
 10
31.8364
 20
36.4252
 30
0.000000
  70
    32
  0
VERTEX
  8
FRAESBAHN_6MM
  5
A41
 10
31.7364
 20
36.4059
 30
0.000000
  70
    32
  0
VERTEX
  8
FRAESBAHN_6MM
  5
A42
 10
31.6364
 20
36.3864
 30
0.000000
  70
    32
  0
VERTEX
  8
FRAESBAHN_6MM
  5
A43
 10
31.5365
 20
36.3666
 30
0.000000
  70
    32
  0
VERTEX
  8
FRAESBAHN_6MM
  5
A44
 10
31.4366
 20
36.3466
 30
0.000000
  70
    32
  0
VERTEX
  8
FRAESBAHN_6MM
  5
A45
 10
31.3368
 20
36.3263
 30
0.000000
  70
    32
  0
VERTEX
  8
FRAESBAHN_6MM
  5
A46
 10
31.2371
 20
36.3059
 30
0.000000
  70
    32
  0
VERTEX
  8
FRAESBAHN_6MM
  5
A47
 10
31.1374
 20
36.2852
 30
0.000000
  70
    32
  0
VERTEX
  8
FRAESBAHN_6MM
  5
A48
 10
31.0377
 20
36.2642
 30
0.000000
  70
    32
  0
VERTEX
  8
FRAESBAHN_6MM
  5
A49
 10
30.9381
 20
36.2430
 30
0.000000
  70
    32
  0
VERTEX
  8
FRAESBAHN_6MM
  5
A4A
 10
30.8386
 20
36.2216
 30
0.000000
  70
    32
  0
VERTEX
  8
FRAESBAHN_6MM
  5
A4B
 10
30.7391
 20
36.1999
 30
0.000000
  70
    32
  0
VERTEX
  8
FRAESBAHN_6MM
  5
A4C
 10
30.6397
 20
36.1781
 30
0.000000
  70
    32
  0
VERTEX
  8
FRAESBAHN_6MM
  5
A4D
 10
30.5403
 20
36.1559
 30
0.000000
  70
    32
  0
VERTEX
  8
FRAESBAHN_6MM
  5
A4E
 10
30.4410
 20
36.1336
 30
0.000000
  70
    32
  0
VERTEX
  8
FRAESBAHN_6MM
  5
A4F
 10
30.3417
 20
36.1110
 30
0.000000
  70
    32
  0
VERTEX
  8
FRAESBAHN_6MM
  5
A50
 10
30.2425
 20
36.0882
 30
0.000000
  70
    32
  0
VERTEX
  8
FRAESBAHN_6MM
  5
A51
 10
30.1434
 20
36.0651
 30
0.000000
  70
    32
  0
VERTEX
  8
FRAESBAHN_6MM
  5
A52
 10
30.0443
 20
36.0418
 30
0.000000
  70
    32
  0
VERTEX
  8
FRAESBAHN_6MM
  5
A53
 10
29.9453
 20
36.0183
 30
0.000000
  70
    32
  0
VERTEX
  8
FRAESBAHN_6MM
  5
A54
 10
29.8464
 20
35.9946
 30
0.000000
  70
    32
  0
VERTEX
  8
FRAESBAHN_6MM
  5
A55
 10
29.7475
 20
35.9706
 30
0.000000
  70
    32
  0
VERTEX
  8
FRAESBAHN_6MM
  5
A56
 10
29.6487
 20
35.9464
 30
0.000000
  70
    32
  0
VERTEX
  8
FRAESBAHN_6MM
  5
A57
 10
29.5499
 20
35.9219
 30
0.000000
  70
    32
  0
VERTEX
  8
FRAESBAHN_6MM
  5
A58
 10
29.4512
 20
35.8972
 30
0.000000
  70
    32
  0
VERTEX
  8
FRAESBAHN_6MM
  5
A59
 10
29.3526
 20
35.8723
 30
0.000000
  70
    32
  0
VERTEX
  8
FRAESBAHN_6MM
  5
A5A
 10
29.2540
 20
35.8472
 30
0.000000
  70
    32
  0
VERTEX
  8
FRAESBAHN_6MM
  5
A5B
 10
29.1555
 20
35.8218
 30
0.000000
  70
    32
  0
VERTEX
  8
FRAESBAHN_6MM
  5
A5C
 10
29.0571
 20
35.7962
 30
0.000000
  70
    32
  0
VERTEX
  8
FRAESBAHN_6MM
  5
A5D
 10
28.9587
 20
35.7703
 30
0.000000
  70
    32
  0
VERTEX
  8
FRAESBAHN_6MM
  5
A5E
 10
28.8604
 20
35.7443
 30
0.000000
  70
    32
  0
VERTEX
  8
FRAESBAHN_6MM
  5
A5F
 10
28.7622
 20
35.7180
 30
0.000000
  70
    32
  0
VERTEX
  8
FRAESBAHN_6MM
  5
A60
 10
28.6641
 20
35.6914
 30
0.000000
  70
    32
  0
VERTEX
  8
FRAESBAHN_6MM
  5
A61
 10
28.5660
 20
35.6647
 30
0.000000
  70
    32
  0
VERTEX
  8
FRAESBAHN_6MM
  5
A62
 10
28.4680
 20
35.6377
 30
0.000000
  70
    32
  0
VERTEX
  8
FRAESBAHN_6MM
  5
A63
 10
28.3700
 20
35.6104
 30
0.000000
  70
    32
  0
VERTEX
  8
FRAESBAHN_6MM
  5
A64
 10
28.2721
 20
35.5830
 30
0.000000
  70
    32
  0
VERTEX
  8
FRAESBAHN_6MM
  5
A65
 10
28.1743
 20
35.5553
 30
0.000000
  70
    32
  0
VERTEX
  8
FRAESBAHN_6MM
  5
A66
 10
28.0766
 20
35.5273
 30
0.000000
  70
    32
  0
VERTEX
  8
FRAESBAHN_6MM
  5
A67
 10
27.9790
 20
35.4992
 30
0.000000
  70
    32
  0
VERTEX
  8
FRAESBAHN_6MM
  5
A68
 10
27.8814
 20
35.4708
 30
0.000000
  70
    32
  0
VERTEX
  8
FRAESBAHN_6MM
  5
A69
 10
27.7839
 20
35.4422
 30
0.000000
  70
    32
  0
VERTEX
  8
FRAESBAHN_6MM
  5
A6A
 10
27.6864
 20
35.4134
 30
0.000000
  70
    32
  0
VERTEX
  8
FRAESBAHN_6MM
  5
A6B
 10
27.5891
 20
35.3843
 30
0.000000
  70
    32
  0
VERTEX
  8
FRAESBAHN_6MM
  5
A6C
 10
27.4918
 20
35.3550
 30
0.000000
  70
    32
  0
VERTEX
  8
FRAESBAHN_6MM
  5
A6D
 10
27.3946
 20
35.3254
 30
0.000000
  70
    32
  0
VERTEX
  8
FRAESBAHN_6MM
  5
A6E
 10
27.2975
 20
35.2957
 30
0.000000
  70
    32
  0
VERTEX
  8
FRAESBAHN_6MM
  5
A6F
 10
27.2004
 20
35.2657
 30
0.000000
  70
    32
  0
VERTEX
  8
FRAESBAHN_6MM
  5
A70
 10
27.1035
 20
35.2355
 30
0.000000
  70
    32
  0
VERTEX
  8
FRAESBAHN_6MM
  5
A71
 10
27.0066
 20
35.2050
 30
0.000000
  70
    32
  0
VERTEX
  8
FRAESBAHN_6MM
  5
A72
 10
26.9098
 20
35.1743
 30
0.000000
  70
    32
  0
VERTEX
  8
FRAESBAHN_6MM
  5
A73
 10
26.8131
 20
35.1434
 30
0.000000
  70
    32
  0
VERTEX
  8
FRAESBAHN_6MM
  5
A74
 10
26.7164
 20
35.1123
 30
0.000000
  70
    32
  0
VERTEX
  8
FRAESBAHN_6MM
  5
A75
 10
26.6199
 20
35.0809
 30
0.000000
  70
    32
  0
VERTEX
  8
FRAESBAHN_6MM
  5
A76
 10
26.5234
 20
35.0493
 30
0.000000
  70
    32
  0
VERTEX
  8
FRAESBAHN_6MM
  5
A77
 10
26.4270
 20
35.0175
 30
0.000000
  70
    32
  0
VERTEX
  8
FRAESBAHN_6MM
  5
A78
 10
26.3307
 20
34.9855
 30
0.000000
  70
    32
  0
VERTEX
  8
FRAESBAHN_6MM
  5
A79
 10
26.2345
 20
34.9532
 30
0.000000
  70
    32
  0
VERTEX
  8
FRAESBAHN_6MM
  5
A7A
 10
26.1383
 20
34.9207
 30
0.000000
  70
    32
  0
VERTEX
  8
FRAESBAHN_6MM
  5
A7B
 10
26.0423
 20
34.8879
 30
0.000000
  70
    32
  0
VERTEX
  8
FRAESBAHN_6MM
  5
A7C
 10
25.9463
 20
34.8550
 30
0.000000
  70
    32
  0
VERTEX
  8
FRAESBAHN_6MM
  5
A7D
 10
25.8504
 20
34.8218
 30
0.000000
  70
    32
  0
VERTEX
  8
FRAESBAHN_6MM
  5
A7E
 10
25.7546
 20
34.7883
 30
0.000000
  70
    32
  0
VERTEX
  8
FRAESBAHN_6MM
  5
A7F
 10
25.6589
 20
34.7547
 30
0.000000
  70
    32
  0
VERTEX
  8
FRAESBAHN_6MM
  5
A80
 10
25.5633
 20
34.7208
 30
0.000000
  70
    32
  0
VERTEX
  8
FRAESBAHN_6MM
  5
A81
 10
25.4678
 20
34.6867
 30
0.000000
  70
    32
  0
VERTEX
  8
FRAESBAHN_6MM
  5
A82
 10
25.3724
 20
34.6524
 30
0.000000
  70
    32
  0
VERTEX
  8
FRAESBAHN_6MM
  5
A83
 10
25.2770
 20
34.6178
 30
0.000000
  70
    32
  0
VERTEX
  8
FRAESBAHN_6MM
  5
A84
 10
25.1818
 20
34.5830
 30
0.000000
  70
    32
  0
VERTEX
  8
FRAESBAHN_6MM
  5
A85
 10
25.0866
 20
34.5480
 30
0.000000
  70
    32
  0
VERTEX
  8
FRAESBAHN_6MM
  5
A86
 10
24.9916
 20
34.5128
 30
0.000000
  70
    32
  0
VERTEX
  8
FRAESBAHN_6MM
  5
A87
 10
24.8966
 20
34.4773
 30
0.000000
  70
    32
  0
VERTEX
  8
FRAESBAHN_6MM
  5
A88
 10
24.8017
 20
34.4416
 30
0.000000
  70
    32
  0
VERTEX
  8
FRAESBAHN_6MM
  5
A89
 10
24.7070
 20
34.4057
 30
0.000000
  70
    32
  0
VERTEX
  8
FRAESBAHN_6MM
  5
A8A
 10
24.6123
 20
34.3695
 30
0.000000
  70
    32
  0
VERTEX
  8
FRAESBAHN_6MM
  5
A8B
 10
24.5177
 20
34.3332
 30
0.000000
  70
    32
  0
VERTEX
  8
FRAESBAHN_6MM
  5
A8C
 10
24.4232
 20
34.2966
 30
0.000000
  70
    32
  0
VERTEX
  8
FRAESBAHN_6MM
  5
A8D
 10
24.3288
 20
34.2598
 30
0.000000
  70
    32
  0
VERTEX
  8
FRAESBAHN_6MM
  5
A8E
 10
24.2345
 20
34.2227
 30
0.000000
  70
    32
  0
VERTEX
  8
FRAESBAHN_6MM
  5
A8F
 10
24.1403
 20
34.1854
 30
0.000000
  70
    32
  0
VERTEX
  8
FRAESBAHN_6MM
  5
A90
 10
24.0462
 20
34.1479
 30
0.000000
  70
    32
  0
VERTEX
  8
FRAESBAHN_6MM
  5
A91
 10
23.9522
 20
34.1102
 30
0.000000
  70
    32
  0
VERTEX
  8
FRAESBAHN_6MM
  5
A92
 10
23.8583
 20
34.0723
 30
0.000000
  70
    32
  0
VERTEX
  8
FRAESBAHN_6MM
  5
A93
 10
23.7645
 20
34.0341
 30
0.000000
  70
    32
  0
VERTEX
  8
FRAESBAHN_6MM
  5
A94
 10
23.6709
 20
33.9957
 30
0.000000
  70
    32
  0
VERTEX
  8
FRAESBAHN_6MM
  5
A95
 10
23.5773
 20
33.9571
 30
0.000000
  70
    32
  0
VERTEX
  8
FRAESBAHN_6MM
  5
A96
 10
23.4838
 20
33.9183
 30
0.000000
  70
    32
  0
VERTEX
  8
FRAESBAHN_6MM
  5
A97
 10
23.3904
 20
33.8792
 30
0.000000
  70
    32
  0
VERTEX
  8
FRAESBAHN_6MM
  5
A98
 10
23.2971
 20
33.8400
 30
0.000000
  70
    32
  0
VERTEX
  8
FRAESBAHN_6MM
  5
A99
 10
23.2039
 20
33.8005
 30
0.000000
  70
    32
  0
VERTEX
  8
FRAESBAHN_6MM
  5
A9A
 10
23.1108
 20
33.7607
 30
0.000000
  70
    32
  0
VERTEX
  8
FRAESBAHN_6MM
  5
A9B
 10
23.0179
 20
33.7208
 30
0.000000
  70
    32
  0
VERTEX
  8
FRAESBAHN_6MM
  5
A9C
 10
22.9250
 20
33.6806
 30
0.000000
  70
    32
  0
VERTEX
  8
FRAESBAHN_6MM
  5
A9D
 10
22.8323
 20
33.6402
 30
0.000000
  70
    32
  0
VERTEX
  8
FRAESBAHN_6MM
  5
A9E
 10
22.7396
 20
33.5996
 30
0.000000
  70
    32
  0
VERTEX
  8
FRAESBAHN_6MM
  5
A9F
 10
22.6471
 20
33.5588
 30
0.000000
  70
    32
  0
VERTEX
  8
FRAESBAHN_6MM
  5
AA0
 10
22.5546
 20
33.5178
 30
0.000000
  70
    32
  0
VERTEX
  8
FRAESBAHN_6MM
  5
AA1
 10
22.4623
 20
33.4765
 30
0.000000
  70
    32
  0
VERTEX
  8
FRAESBAHN_6MM
  5
AA2
 10
22.3701
 20
33.4350
 30
0.000000
  70
    32
  0
VERTEX
  8
FRAESBAHN_6MM
  5
AA3
 10
22.2780
 20
33.3933
 30
0.000000
  70
    32
  0
VERTEX
  8
FRAESBAHN_6MM
  5
AA4
 10
22.1860
 20
33.3514
 30
0.000000
  70
    32
  0
VERTEX
  8
FRAESBAHN_6MM
  5
AA5
 10
22.0941
 20
33.3092
 30
0.000000
  70
    32
  0
VERTEX
  8
FRAESBAHN_6MM
  5
AA6
 10
22.0024
 20
33.2669
 30
0.000000
  70
    32
  0
VERTEX
  8
FRAESBAHN_6MM
  5
AA7
 10
21.9107
 20
33.2243
 30
0.000000
  70
    32
  0
VERTEX
  8
FRAESBAHN_6MM
  5
AA8
 10
21.8191
 20
33.1815
 30
0.000000
  70
    32
  0
VERTEX
  8
FRAESBAHN_6MM
  5
AA9
 10
21.7277
 20
33.1385
 30
0.000000
  70
    32
  0
VERTEX
  8
FRAESBAHN_6MM
  5
AAA
 10
21.6364
 20
33.0952
 30
0.000000
  70
    32
  0
VERTEX
  8
FRAESBAHN_6MM
  5
AAB
 10
21.5452
 20
33.0518
 30
0.000000
  70
    32
  0
VERTEX
  8
FRAESBAHN_6MM
  5
AAC
 10
21.4541
 20
33.0081
 30
0.000000
  70
    32
  0
VERTEX
  8
FRAESBAHN_6MM
  5
AAD
 10
21.3631
 20
32.9642
 30
0.000000
  70
    32
  0
VERTEX
  8
FRAESBAHN_6MM
  5
AAE
 10
21.2723
 20
32.9201
 30
0.000000
  70
    32
  0
VERTEX
  8
FRAESBAHN_6MM
  5
AAF
 10
21.1815
 20
32.8758
 30
0.000000
  70
    32
  0
VERTEX
  8
FRAESBAHN_6MM
  5
AB0
 10
21.0909
 20
32.8313
 30
0.000000
  70
    32
  0
VERTEX
  8
FRAESBAHN_6MM
  5
AB1
 10
21.0004
 20
32.7865
 30
0.000000
  70
    32
  0
VERTEX
  8
FRAESBAHN_6MM
  5
AB2
 10
20.9100
 20
32.7416
 30
0.000000
  70
    32
  0
VERTEX
  8
FRAESBAHN_6MM
  5
AB3
 10
20.8198
 20
32.6964
 30
0.000000
  70
    32
  0
VERTEX
  8
FRAESBAHN_6MM
  5
AB4
 10
20.7296
 20
32.6510
 30
0.000000
  70
    32
  0
VERTEX
  8
FRAESBAHN_6MM
  5
AB5
 10
20.6396
 20
32.6054
 30
0.000000
  70
    32
  0
VERTEX
  8
FRAESBAHN_6MM
  5
AB6
 10
20.5497
 20
32.5595
 30
0.000000
  70
    32
  0
VERTEX
  8
FRAESBAHN_6MM
  5
AB7
 10
20.4599
 20
32.5135
 30
0.000000
  70
    32
  0
VERTEX
  8
FRAESBAHN_6MM
  5
AB8
 10
20.3702
 20
32.4673
 30
0.000000
  70
    32
  0
VERTEX
  8
FRAESBAHN_6MM
  5
AB9
 10
20.2807
 20
32.4208
 30
0.000000
  70
    32
  0
VERTEX
  8
FRAESBAHN_6MM
  5
ABA
 10
20.1913
 20
32.3741
 30
0.000000
  70
    32
  0
VERTEX
  8
FRAESBAHN_6MM
  5
ABB
 10
20.1020
 20
32.3272
 30
0.000000
  70
    32
  0
VERTEX
  8
FRAESBAHN_6MM
  5
ABC
 10
20.0128
 20
32.2801
 30
0.000000
  70
    32
  0
VERTEX
  8
FRAESBAHN_6MM
  5
ABD
 10
19.9238
 20
32.2328
 30
0.000000
  70
    32
  0
VERTEX
  8
FRAESBAHN_6MM
  5
ABE
 10
19.8349
 20
32.1852
 30
0.000000
  70
    32
  0
VERTEX
  8
FRAESBAHN_6MM
  5
ABF
 10
19.7461
 20
32.1375
 30
0.000000
  70
    32
  0
VERTEX
  8
FRAESBAHN_6MM
  5
AC0
 10
19.6574
 20
32.0895
 30
0.000000
  70
    32
  0
VERTEX
  8
FRAESBAHN_6MM
  5
AC1
 10
19.5689
 20
32.0414
 30
0.000000
  70
    32
  0
VERTEX
  8
FRAESBAHN_6MM
  5
AC2
 10
19.4805
 20
31.9930
 30
0.000000
  70
    32
  0
VERTEX
  8
FRAESBAHN_6MM
  5
AC3
 10
19.3922
 20
31.9444
 30
0.000000
  70
    32
  0
VERTEX
  8
FRAESBAHN_6MM
  5
AC4
 10
19.3041
 20
31.8956
 30
0.000000
  70
    32
  0
VERTEX
  8
FRAESBAHN_6MM
  5
AC5
 10
19.2160
 20
31.8466
 30
0.000000
  70
    32
  0
VERTEX
  8
FRAESBAHN_6MM
  5
AC6
 10
19.1282
 20
31.7974
 30
0.000000
  70
    32
  0
VERTEX
  8
FRAESBAHN_6MM
  5
AC7
 10
19.0404
 20
31.7479
 30
0.000000
  70
    32
  0
VERTEX
  8
FRAESBAHN_6MM
  5
AC8
 10
18.9528
 20
31.6983
 30
0.000000
  70
    32
  0
VERTEX
  8
FRAESBAHN_6MM
  5
AC9
 10
18.8653
 20
31.6484
 30
0.000000
  70
    32
  0
VERTEX
  8
FRAESBAHN_6MM
  5
ACA
 10
18.7779
 20
31.5984
 30
0.000000
  70
    32
  0
VERTEX
  8
FRAESBAHN_6MM
  5
ACB
 10
18.6907
 20
31.5481
 30
0.000000
  70
    32
  0
VERTEX
  8
FRAESBAHN_6MM
  5
ACC
 10
18.6036
 20
31.4976
 30
0.000000
  70
    32
  0
VERTEX
  8
FRAESBAHN_6MM
  5
ACD
 10
18.5166
 20
31.4469
 30
0.000000
  70
    32
  0
VERTEX
  8
FRAESBAHN_6MM
  5
ACE
 10
18.4298
 20
31.3960
 30
0.000000
  70
    32
  0
VERTEX
  8
FRAESBAHN_6MM
  5
ACF
 10
18.3431
 20
31.3449
 30
0.000000
  70
    32
  0
VERTEX
  8
FRAESBAHN_6MM
  5
AD0
 10
18.2565
 20
31.2936
 30
0.000000
  70
    32
  0
VERTEX
  8
FRAESBAHN_6MM
  5
AD1
 10
18.1701
 20
31.2421
 30
0.000000
  70
    32
  0
VERTEX
  8
FRAESBAHN_6MM
  5
AD2
 10
18.0838
 20
31.1903
 30
0.000000
  70
    32
  0
VERTEX
  8
FRAESBAHN_6MM
  5
AD3
 10
17.9977
 20
31.1384
 30
0.000000
  70
    32
  0
VERTEX
  8
FRAESBAHN_6MM
  5
AD4
 10
17.9117
 20
31.0863
 30
0.000000
  70
    32
  0
VERTEX
  8
FRAESBAHN_6MM
  5
AD5
 10
17.8258
 20
31.0339
 30
0.000000
  70
    32
  0
VERTEX
  8
FRAESBAHN_6MM
  5
AD6
 10
17.7401
 20
30.9814
 30
0.000000
  70
    32
  0
VERTEX
  8
FRAESBAHN_6MM
  5
AD7
 10
17.6545
 20
30.9286
 30
0.000000
  70
    32
  0
VERTEX
  8
FRAESBAHN_6MM
  5
AD8
 10
17.5691
 20
30.8756
 30
0.000000
  70
    32
  0
VERTEX
  8
FRAESBAHN_6MM
  5
AD9
 10
17.4838
 20
30.8224
 30
0.000000
  70
    32
  0
VERTEX
  8
FRAESBAHN_6MM
  5
ADA
 10
17.3986
 20
30.7691
 30
0.000000
  70
    32
  0
VERTEX
  8
FRAESBAHN_6MM
  5
ADB
 10
17.3136
 20
30.7155
 30
0.000000
  70
    32
  0
VERTEX
  8
FRAESBAHN_6MM
  5
ADC
 10
17.2287
 20
30.6617
 30
0.000000
  70
    32
  0
VERTEX
  8
FRAESBAHN_6MM
  5
ADD
 10
17.1440
 20
30.6077
 30
0.000000
  70
    32
  0
VERTEX
  8
FRAESBAHN_6MM
  5
ADE
 10
17.0594
 20
30.5535
 30
0.000000
  70
    32
  0
VERTEX
  8
FRAESBAHN_6MM
  5
ADF
 10
16.9749
 20
30.4991
 30
0.000000
  70
    32
  0
VERTEX
  8
FRAESBAHN_6MM
  5
AE0
 10
16.8906
 20
30.4445
 30
0.000000
  70
    32
  0
VERTEX
  8
FRAESBAHN_6MM
  5
AE1
 10
16.8065
 20
30.3897
 30
0.000000
  70
    32
  0
VERTEX
  8
FRAESBAHN_6MM
  5
AE2
 10
16.7225
 20
30.3347
 30
0.000000
  70
    32
  0
VERTEX
  8
FRAESBAHN_6MM
  5
AE3
 10
16.6386
 20
30.2794
 30
0.000000
  70
    32
  0
VERTEX
  8
FRAESBAHN_6MM
  5
AE4
 10
16.5549
 20
30.2240
 30
0.000000
  70
    32
  0
VERTEX
  8
FRAESBAHN_6MM
  5
AE5
 10
16.4713
 20
30.1684
 30
0.000000
  70
    32
  0
VERTEX
  8
FRAESBAHN_6MM
  5
AE6
 10
16.3879
 20
30.1126
 30
0.000000
  70
    32
  0
VERTEX
  8
FRAESBAHN_6MM
  5
AE7
 10
16.3046
 20
30.0565
 30
0.000000
  70
    32
  0
VERTEX
  8
FRAESBAHN_6MM
  5
AE8
 10
16.2215
 20
30.0003
 30
0.000000
  70
    32
  0
VERTEX
  8
FRAESBAHN_6MM
  5
AE9
 10
16.1385
 20
29.9439
 30
0.000000
  70
    32
  0
VERTEX
  8
FRAESBAHN_6MM
  5
AEA
 10
16.0557
 20
29.8872
 30
0.000000
  70
    32
  0
VERTEX
  8
FRAESBAHN_6MM
  5
AEB
 10
15.9731
 20
29.8304
 30
0.000000
  70
    32
  0
VERTEX
  8
FRAESBAHN_6MM
  5
AEC
 10
15.8905
 20
29.7734
 30
0.000000
  70
    32
  0
VERTEX
  8
FRAESBAHN_6MM
  5
AED
 10
15.8082
 20
29.7161
 30
0.000000
  70
    32
  0
VERTEX
  8
FRAESBAHN_6MM
  5
AEE
 10
15.7259
 20
29.6587
 30
0.000000
  70
    32
  0
VERTEX
  8
FRAESBAHN_6MM
  5
AEF
 10
15.6439
 20
29.6010
 30
0.000000
  70
    32
  0
SEQEND
  8
FRAESBAHN_6MM
  5
AF0
  0
POLYLINE
  5
135
  8
FRAESBAHN_6MM
 66
     1
 10
0.0
 20
0.0
 30
0.0
  0
VERTEX
  5
4D4
  8
FRAESBAHN_6MM
 10
15.64388536434188
 20
29.60102994369112
 30
0.0
 42
-0.154611976297919
  0
VERTEX
  5
4D5
  8
FRAESBAHN_6MM
 10
5.8551861977618946
 20
26.5
 30
0.0
  0
VERTEX
  5
4D6
  8
FRAESBAHN_6MM
 10
-1.686291501015261
 20
26.5
 30
0.0
 42
0.3178372451957796
  0
VERTEX
  5
4D7
  8
FRAESBAHN_6MM
 10
-8.2859547920896812
 20
21.833333333333311
 30
0.0
 42
-0.3178372451957794
  0
VERTEX
  5
4D8
  8
FRAESBAHN_6MM
 10
-13.0
 20
18.5
 30
0.0
  0
VERTEX
  5
4D9
  8
FRAESBAHN_6MM
 10
-24.0
 20
18.5
 30
0.0
 42
1.0
  0
VERTEX
  5
4DA
  8
FRAESBAHN_6MM
 10
-24.0
 20
-18.5
 30
0.0
  0
VERTEX
  5
4DB
  8
FRAESBAHN_6MM
 10
-13.00000000000006
 20
-18.5
 30
0.0
 42
-0.3178372451957837
  0
VERTEX
  5
4DC
  8
FRAESBAHN_6MM
 10
-8.2859547920897398
 20
-21.833333333333371
 30
0.0
 42
0.3178372451957847
  0
VERTEX
  5
4DD
  8
FRAESBAHN_6MM
 10
-1.686291501015261
 20
-26.50000000000006
 30
0.0
  0
VERTEX
  5
4DE
  8
FRAESBAHN_6MM
 10
5.8551778662399547
 20
-26.5
 30
0.0
 42
-0.1546320734038435
  0
VERTEX
  5
4DF
  8
FRAESBAHN_6MM
 10
15.64496822991407
 20
-29.601798510768479
 30
0.0
 42
-0.1546320734038435
  0
SEQEND
  5
4E0
  8
FRAESBAHN_6MM
  0
CIRCLE
  5
2C5
  8
FRAESBAHN_6MM
 10
-24.0
 20
0.0
 30
0.0
 40
6.5
  0
POLYLINE
  5
4B4
  8
FRAESBAHN_6MM
 66
     1
 10
0.0
 20
0.0
 30
0.0
  0
VERTEX
  5
511
  8
FRAESBAHN_6MM
 10
66.466296239570994
 20
14.578956929602841
 30
0.0
  0
VERTEX
  5
512
  8
FRAESBAHN_6MM
 10
76.91942685271276
 20
17.325331940333761
 30
0.0
 42
-0.6047422006059913
  0
VERTEX
  5
513
  8
FRAESBAHN_6MM
 10
79.29510794899565
 20
13.21162700636417
 30
0.0
  0
VERTEX
  5
514
  8
FRAESBAHN_6MM
 10
70.302984382177542
 20
5.904107904910715
 30
0.0
  0
SEQEND
  5
515
  8
FRAESBAHN_6MM
  0
POLYLINE
  5
4B5
  8
FRAESBAHN_6MM
 66
     1
 10
0.0
 20
0.0
 30
0.0
  0
VERTEX
  5
516
  8
FRAESBAHN_6MM
 10
70.302984382177556
 20
-5.9041079049105996
 30
0.0
  0
VERTEX
  5
517
  8
FRAESBAHN_6MM
 10
79.331189443265146
 20
-12.969465517099961
 30
0.0
 42
-0.6040124800196106
  0
VERTEX
  5
518
  8
FRAESBAHN_6MM
 10
76.89939873215063
 20
-17.320069906225601
 30
0.0
  0
VERTEX
  5
519
  8
FRAESBAHN_6MM
 10
66.466296239571022
 20
-14.57895692960283
 30
0.0
  0
SEQEND
  5
51A
  8
FRAESBAHN_6MM
  0
POLYLINE
  5
4B6
  8
FRAESBAHN_6MM
 66
     1
 10
0.0
 20
0.0
 30
0.0
  0
VERTEX
  5
51B
  8
FRAESBAHN_6MM
 10
13.53370376042897
 20
-14.578956929602819
 30
0.0
  0
VERTEX
  5
51C
  8
FRAESBAHN_6MM
 10
3.0967532885515392
 20
-17.32108089466308
 30
0.0
 42
-0.6100526201812232
  0
VERTEX
  5
51D
  8
FRAESBAHN_6MM
 10
0.7023760024429122
 20
-12.9769617075693
 30
0.0
  0
VERTEX
  5
51E
  8
FRAESBAHN_6MM
 10
9.6970156178224265
 20
-5.9041079049105649
 30
0.0
  0
SEQEND
  5
51F
  8
FRAESBAHN_6MM
  0
POLYLINE
  5
4B7
  8
FRAESBAHN_6MM
 66
     1
 10
0.0
 20
0.0
 30
0.0
  0
VERTEX
  5
520
  8
FRAESBAHN_6MM
 10
9.6970156178165787
 20
5.9041079048860681
 30
0.0
  0
VERTEX
  5
521
  8
FRAESBAHN_6MM
 10
0.3598293405680417
 20
13.130855575410701
 30
0.0
 42
-0.5424805636503862
  0
VERTEX
  5
522
  8
FRAESBAHN_6MM
 10
3.125125870422631
 20
17.3136265010728
 30
0.0
  0
VERTEX
  5
523
  8
FRAESBAHN_6MM
 10
13.53370376042901
 20
14.578956929602869
 30
0.0
  0
SEQEND
  5
524
  8
FRAESBAHN_6MM
  0
ENDSEC
  0
EOF
