999
dxflib 2.0.4.0
  0
SECTION
  2
HEADER
  9
$ACADVER
  1
AC1015
  9
$HANDSEED
  5
FFFF
  9
$DIMASZ
 40
2.5
  9
$DIMGAP
 40
0.625
  9
$INSUNITS
 70
4
  9
$DIMEXO
 40
0.625
  9
$GRIDMODE
 70
0
  9
$DIMTXT
 40
2.5
  9
$DIMSTYLE
  2
Standard
  9
$PLIMMIN
 10
0.0
 20
0.0
  9
$PLIMMAX
 10
210.0
 20
297.0
  9
$DIMEXE
 40
1.25
  9
$PINSBASE
 10
-120.0
 20
85.5000000000027285
 30
0.0
  0
ENDSEC
  0
SECTION
  2
TABLES
  0
TABLE
  2
VPORT
  5
8
100
AcDbSymbolTable
 70
1
  0
VPORT
  5
30
100
AcDbSymbolTableRecord
100
AcDbViewportTableRecord
  2
*Active
 70
0
 10
0.0
 20
0.0
 11
1.0
 21
1.0
 12
286.3055555555554861
 22
148.5
 13
0.0
 23
0.0
 14
10.0
 24
10.0
 15
10.0
 25
10.0
 16
0.0
 26
0.0
 36
1.0
 17
0.0
 27
0.0
 37
0.0
 40
297.0
 41
1.92798353909465
 42
50.0
 43
0.0
 44
0.0
 50
0.0
 51
0.0
 71
0
 72
100
 73
1
 74
3
 75
1
 76
1
 77
0
 78
0
281
0
 65
1
110
0.0
120
0.0
130
0.0
111
1.0
121
0.0
131
0.0
112
0.0
122
1.0
132
0.0
 79
0
146
0.0
  0
ENDTAB
  0
TABLE
  2
LTYPE
  5
5
100
AcDbSymbolTable
 70
21
  0
LTYPE
  5
14
100
AcDbSymbolTableRecord
100
AcDbLinetypeTableRecord
  2
ByBlock
 70
0
  3

 72
65
 73
0
 40
0.0
  0
LTYPE
  5
15
100
AcDbSymbolTableRecord
100
AcDbLinetypeTableRecord
  2
ByLayer
 70
0
  3

 72
65
 73
0
 40
0.0
  0
LTYPE
  5
16
100
AcDbSymbolTableRecord
100
AcDbLinetypeTableRecord
  2
CONTINUOUS
 70
0
  3
Solid line
 72
65
 73
0
 40
0.0
  0
LTYPE
  5
31
100
AcDbSymbolTableRecord
100
AcDbLinetypeTableRecord
  2
DOT
 70
0
  3
Dot . . . . . . . . . . . . . . . . . . . . . .
 72
65
 73
2
 40
6.3499999999999996
 49
0.0
 74
0
 49
-6.3499999999999996
 74
0
  0
LTYPE
  5
32
100
AcDbSymbolTableRecord
100
AcDbLinetypeTableRecord
  2
DOT2
 70
0
  3
Dot (.5x) .....................................
 72
65
 73
2
 40
3.1749999999999998
 49
0.0
 74
0
 49
-3.1749999999999998
 74
0
  0
LTYPE
  5
33
100
AcDbSymbolTableRecord
100
AcDbLinetypeTableRecord
  2
DOTX2
 70
0
  3
Dot (2x) .  .  .  .  .  .  .  .  .  .  .  .  .
 72
65
 73
2
 40
12.6999999999999993
 49
0.0
 74
0
 49
-12.6999999999999993
 74
0
  0
LTYPE
  5
34
100
AcDbSymbolTableRecord
100
AcDbLinetypeTableRecord
  2
DASHED
 70
0
  3
Dashed __ __ __ __ __ __ __ __ __ __ __ __ __ _
 72
65
 73
2
 40
19.0500000000000007
 49
12.6999999999999993
 74
0
 49
-6.3499999999999996
 74
0
  0
LTYPE
  5
35
100
AcDbSymbolTableRecord
100
AcDbLinetypeTableRecord
  2
DASHED2
 70
0
  3
Dashed (.5x) _ _ _ _ _ _ _ _ _ _ _ _ _ _ _ _ _
 72
65
 73
2
 40
9.5250000000000004
 49
6.3499999999999996
 74
0
 49
-3.1749999999999998
 74
0
  0
LTYPE
  5
36
100
AcDbSymbolTableRecord
100
AcDbLinetypeTableRecord
  2
DASHEDX2
 70
0
  3
Dashed (2x) ____  ____  ____  ____  ____  ___
 72
65
 73
2
 40
38.1000000000000014
 49
25.3999999999999986
 74
0
 49
-12.6999999999999993
 74
0
  0
LTYPE
  5
37
100
AcDbSymbolTableRecord
100
AcDbLinetypeTableRecord
  2
DASHDOT
 70
0
  3
Dash dot __ . __ . __ . __ . __ . __ . __ . __
 72
65
 73
4
 40
25.3999999999999986
 49
12.6999999999999993
 74
0
 49
-6.3499999999999996
 74
0
 49
0.0
 74
0
 49
-6.3499999999999996
 74
0
  0
LTYPE
  5
38
100
AcDbSymbolTableRecord
100
AcDbLinetypeTableRecord
  2
DASHDOT2
 70
0
  3
Dash dot (.5x) _._._._._._._._._._._._._._._.
 72
65
 73
4
 40
12.6999999999999993
 49
6.3499999999999996
 74
0
 49
-3.1749999999999998
 74
0
 49
0.0
 74
0
 49
-3.1749999999999998
 74
0
  0
LTYPE
  5
39
100
AcDbSymbolTableRecord
100
AcDbLinetypeTableRecord
  2
DASHDOTX2
 70
0
  3
Dash dot (2x) ____  .  ____  .  ____  .  ___
 72
65
 73
4
 40
50.7999999999999972
 49
25.3999999999999986
 74
0
 49
-12.6999999999999993
 74
0
 49
0.0
 74
0
 49
-12.6999999999999993
 74
0
  0
LTYPE
  5
3A
100
AcDbSymbolTableRecord
100
AcDbLinetypeTableRecord
  2
DIVIDE
 70
0
  3
Divide ____ . . ____ . . ____ . . ____ . . ____
 72
65
 73
6
 40
31.75
 49
12.6999999999999993
 74
0
 49
-6.3499999999999996
 74
0
 49
0.0
 74
0
 49
-6.3499999999999996
 74
0
 49
0.0
 74
0
 49
-6.3499999999999996
 74
0
  0
LTYPE
  5
3B
100
AcDbSymbolTableRecord
100
AcDbLinetypeTableRecord
  2
DIVIDE2
 70
0
  3
Divide (.5x) __..__..__..__..__..__..__..__.._
 72
65
 73
6
 40
15.875
 49
6.3499999999999996
 74
0
 49
-3.1749999999999998
 74
0
 49
0.0
 74
0
 49
-3.1749999999999998
 74
0
 49
0.0
 74
0
 49
-3.1749999999999998
 74
0
  0
LTYPE
  5
3C
100
AcDbSymbolTableRecord
100
AcDbLinetypeTableRecord
  2
DIVIDEX2
 70
0
  3
Divide (2x) ________  .  .  ________  .  .  _
 72
65
 73
6
 40
63.5
 49
25.3999999999999986
 74
0
 49
-12.6999999999999993
 74
0
 49
0.0
 74
0
 49
-12.6999999999999993
 74
0
 49
0.0
 74
0
 49
-12.6999999999999993
 74
0
  0
LTYPE
  5
3D
100
AcDbSymbolTableRecord
100
AcDbLinetypeTableRecord
  2
CENTER
 70
0
  3
Center ____ _ ____ _ ____ _ ____ _ ____ _ ____
 72
65
 73
4
 40
50.7999999999999972
 49
31.75
 74
0
 49
-6.3499999999999996
 74
0
 49
6.3499999999999996
 74
0
 49
-6.3499999999999996
 74
0
  0
LTYPE
  5
3E
100
AcDbSymbolTableRecord
100
AcDbLinetypeTableRecord
  2
CENTER2
 70
0
  3
Center (.5x) ___ _ ___ _ ___ _ ___ _ ___ _ ___
 72
65
 73
4
 40
28.5749999999999993
 49
19.0500000000000007
 74
0
 49
-3.1749999999999998
 74
0
 49
3.1749999999999998
 74
0
 49
-3.1749999999999998
 74
0
  0
LTYPE
  5
3F
100
AcDbSymbolTableRecord
100
AcDbLinetypeTableRecord
  2
CENTERX2
 70
0
  3
Center (2x) ________  __  ________  __  _____
 72
65
 73
4
 40
101.5999999999999943
 49
63.5
 74
0
 49
-12.6999999999999993
 74
0
 49
12.6999999999999993
 74
0
 49
-12.6999999999999993
 74
0
  0
LTYPE
  5
40
100
AcDbSymbolTableRecord
100
AcDbLinetypeTableRecord
  2
BORDER
 70
0
  3
Border __ __ . __ __ . __ __ . __ __ . __ __ .
 72
65
 73
6
 40
44.4500000000000028
 49
12.6999999999999993
 74
0
 49
-6.3499999999999996
 74
0
 49
12.6999999999999993
 74
0
 49
-6.3499999999999996
 74
0
 49
0.0
 74
0
 49
-6.3499999999999996
 74
0
  0
LTYPE
  5
41
100
AcDbSymbolTableRecord
100
AcDbLinetypeTableRecord
  2
BORDER2
 70
0
  3
Border (.5x) __.__.__.__.__.__.__.__.__.__.__.
 72
65
 73
6
 40
22.2250000000000014
 49
6.3499999999999996
 74
0
 49
-3.1749999999999998
 74
0
 49
6.3499999999999996
 74
0
 49
-3.1749999999999998
 74
0
 49
0.0
 74
0
 49
-3.1749999999999998
 74
0
  0
LTYPE
  5
42
100
AcDbSymbolTableRecord
100
AcDbLinetypeTableRecord
  2
BORDERX2
 70
0
  3
Border (2x) ____  ____  .  ____  ____  .  ___
 72
65
 73
6
 40
88.9000000000000057
 49
25.3999999999999986
 74
0
 49
-12.6999999999999993
 74
0
 49
25.3999999999999986
 74
0
 49
-12.6999999999999993
 74
0
 49
0.0
 74
0
 49
-12.6999999999999993
 74
0
  0
ENDTAB
  0
TABLE
  2
LAYER
  5
2
100
AcDbSymbolTable
 70
5
  0
LAYER
  5
10
100
AcDbSymbolTableRecord
100
AcDbLayerTableRecord
  2
0
 70
0
 62
7
  6
CONTINUOUS
370
0
390
F
  0
LAYER
  5
43
100
AcDbSymbolTableRecord
100
AcDbLayerTableRecord
  2
Platte
 70
0
 62
7
  6
CONTINUOUS
370
35
390
F
  0
LAYER
  5
44
100
AcDbSymbolTableRecord
100
AcDbLayerTableRecord
  2
Durchbrueche
 70
0
 62
7
  6
CONTINUOUS
370
25
390
F
  0
LAYER
  5
45
100
AcDbSymbolTableRecord
100
AcDbLayerTableRecord
  2
Schraffuren
 70
0
 62
7
  6
CONTINUOUS
370
18
390
F
  0
LAYER
  5
46
100
AcDbSymbolTableRecord
100
AcDbLayerTableRecord
  2
1
 70
0
 62
1
  6
CONTINUOUS
390
F
  0
ENDTAB
  0
TABLE
  2
STYLE
  5
3
100
AcDbSymbolTable
 70
1
  0
STYLE
  5
11
100
AcDbSymbolTableRecord
100
AcDbTextStyleTableRecord
  2
Standard
 70
0
 40
0.0
 41
1.0
 50
0.0
 71
0
 42
2.5
  3
txt
  4

  0
ENDTAB
  0
TABLE
  2
VIEW
  5
6
100
AcDbSymbolTable
 70
0
  0
ENDTAB
  0
TABLE
  2
UCS
  5
7
100
AcDbSymbolTable
 70
0
  0
ENDTAB
  0
TABLE
  2
APPID
  5
9
100
AcDbSymbolTable
 70
1
  0
APPID
  5
12
100
AcDbSymbolTableRecord
100
AcDbRegAppTableRecord
  2
ACAD
 70
0
  0
ENDTAB
  0
TABLE
  2
DIMSTYLE
  5
A
100
AcDbSymbolTable
 70
1
100
AcDbDimStyleTable
 71
0
  0
DIMSTYLE
105
27
100
AcDbSymbolTableRecord
100
AcDbDimStyleTableRecord
  2
Standard
 41
2.5
 42
0.625
 43
3.75
 44
1.25
 70
0
 73
0
 74
0
 77
1
 78
8
140
2.5
141
2.5
143
0.03937007874016
147
0.625
171
3
172
1
271
2
272
2
274
3
278
44
283
0
284
8
340
11
  0
ENDTAB
  0
TABLE
  2
BLOCK_RECORD
  5
1
100
AcDbSymbolTable
 70
1
  0
BLOCK_RECORD
  5
1F
100
AcDbSymbolTableRecord
100
AcDbBlockTableRecord
  2
*Model_Space
340
22
  0
BLOCK_RECORD
  5
1B
100
AcDbSymbolTableRecord
100
AcDbBlockTableRecord
  2
*Paper_Space
340
1E
  0
BLOCK_RECORD
  5
23
100
AcDbSymbolTableRecord
100
AcDbBlockTableRecord
  2
*Paper_Space0
340
26
  0
BLOCK_RECORD
  5
47
330
1
100
AcDbSymbolTableRecord
100
AcDbBlockTableRecord
  2
Platte
340
0
  0
BLOCK_RECORD
  5
48
330
1
100
AcDbSymbolTableRecord
100
AcDbBlockTableRecord
  2
Schalter
340
0
  0
BLOCK_RECORD
  5
49
330
1
100
AcDbSymbolTableRecord
100
AcDbBlockTableRecord
  2
LED
340
0
  0
BLOCK_RECORD
  5
4A
330
1
100
AcDbSymbolTableRecord
100
AcDbBlockTableRecord
  2
LCD
340
0
  0
BLOCK_RECORD
  5
4B
330
1
100
AcDbSymbolTableRecord
100
AcDbBlockTableRecord
  2
tux-0
340
0
  0
BLOCK_RECORD
  5
4C
330
1
100
AcDbSymbolTableRecord
100
AcDbBlockTableRecord
  2
VDR-Schrift
340
0
  0
BLOCK_RECORD
  5
4D
330
1
100
AcDbSymbolTableRecord
100
AcDbBlockTableRecord
  2
Einschalt_Symbol
340
0
  0
BLOCK_RECORD
  5
4E
330
1
100
AcDbSymbolTableRecord
100
AcDbBlockTableRecord
  2
Open_Symbol
340
0
  0
ENDTAB
  0
ENDSEC
  0
SECTION
  2
BLOCKS
  0
BLOCK
  5
20
100
AcDbEntity
  8
0
100
AcDbBlockBegin
  2
*Model_Space
 70
0
 10
0.0
 20
0.0
 30
0.0
  3
*Model_Space
  1

  0
ENDBLK
  5
21
100
AcDbEntity
  8
0
100
AcDbBlockEnd
  0
BLOCK
  5
1C
100
AcDbEntity
 67
1
  8
0
100
AcDbBlockBegin
  2
*Paper_Space
 70
0
 10
0.0
 20
0.0
 30
0.0
  3
*Paper_Space
  1

  0
ENDBLK
  5
1D
100
AcDbEntity
 67
1
  8
0
100
AcDbBlockEnd
  0
BLOCK
  5
24
100
AcDbEntity
  8
0
100
AcDbBlockBegin
  2
*Paper_Space0
 70
0
 10
0.0
 20
0.0
 30
0.0
  3
*Paper_Space0
  1

  0
ENDBLK
  5
25
100
AcDbEntity
  8
0
100
AcDbBlockEnd
  0
BLOCK
  5
4F
100
AcDbEntity
  8
0
100
AcDbBlockBegin
  2
Platte
 70
0
 10
0.0
 20
0.0
 30
0.0
  3
Platte
  1

  0
ARC
  5
50
100
AcDbEntity
  8
Platte
 62
256
370
-1
  6
ByLayer
100
AcDbCircle
 10
1.0
 20
124.0
 30
0.0
 40
1.0
100
AcDbArc
 50
90.0
 51
180.0
  0
LINE
  5
51
100
AcDbEntity
100
AcDbLine
  8
Platte
 62
256
370
-1
  6
ByLayer
 10
0.0
 20
124.0
 30
0.0
 11
0.0
 21
1.0
 31
0.0
  0
ARC
  5
52
100
AcDbEntity
  8
Platte
 62
256
370
-1
  6
ByLayer
100
AcDbCircle
 10
1.0
 20
1.0
 30
0.0
 40
1.0
100
AcDbArc
 50
180.0
 51
270.0
  0
LINE
  5
53
100
AcDbEntity
100
AcDbLine
  8
Platte
 62
256
370
-1
  6
ByLayer
 10
1.0
 20
0.0
 30
0.0
 11
449.0
 21
0.0
 31
0.0
  0
ARC
  5
54
100
AcDbEntity
  8
Platte
 62
256
370
-1
  6
ByLayer
100
AcDbCircle
 10
449.0
 20
1.0
 30
0.0
 40
1.0
100
AcDbArc
 50
270.0
 51
0.0
  0
LINE
  5
55
100
AcDbEntity
100
AcDbLine
  8
Platte
 62
256
370
-1
  6
ByLayer
 10
448.0
 20
125.0
 30
0.0
 11
1.0
 21
125.0
 31
0.0
  0
LINE
  5
56
100
AcDbEntity
100
AcDbLine
  8
Platte
 62
256
370
-1
  6
ByLayer
 10
450.0
 20
1.0
 30
0.0
 11
450.0
 21
123.0
 31
0.0
  0
ARC
  5
57
100
AcDbEntity
  8
Platte
 62
256
370
-1
  6
ByLayer
100
AcDbCircle
 10
448.0
 20
123.0
 30
0.0
 40
2.0
100
AcDbArc
 50
0.0
 51
90.0
  0
ENDBLK
  5
58
100
AcDbEntity
  8
0
100
AcDbBlockEnd
  0
BLOCK
  5
59
100
AcDbEntity
  8
0
100
AcDbBlockBegin
  2
Schalter
 70
0
 10
0.0
 20
0.0
 30
0.0
  3
Schalter
  1

  0
CIRCLE
  5
5A
100
AcDbEntity
100
AcDbCircle
  8
Durchbrueche
 62
256
370
-1
  6
ByLayer
 10
0.0
 20
0.0
 30
0.0
 40
9.0
  0
ENDBLK
  5
5B
100
AcDbEntity
  8
0
100
AcDbBlockEnd
  0
BLOCK
  5
5C
100
AcDbEntity
  8
0
100
AcDbBlockBegin
  2
LED
 70
0
 10
0.0
 20
0.0
 30
0.0
  3
LED
  1

  0
ARC
  5
5D
100
AcDbEntity
  8
Durchbrueche
 62
256
370
-1
  6
ByLayer
100
AcDbCircle
 10
11.5
 20
4.0
 30
0.0
 40
1.0
100
AcDbArc
 50
0.0
 51
90.0
  0
LINE
  5
5E
100
AcDbEntity
100
AcDbLine
  8
Durchbrueche
 62
256
370
-1
  6
ByLayer
 10
12.5
 20
1.0
 30
0.0
 11
12.5
 21
4.0
 31
0.0
  0
ARC
  5
5F
100
AcDbEntity
  8
Durchbrueche
 62
256
370
-1
  6
ByLayer
100
AcDbCircle
 10
11.5
 20
1.0
 30
0.0
 40
1.0
100
AcDbArc
 50
270.0
 51
0.0
  0
LINE
  5
60
100
AcDbEntity
100
AcDbLine
  8
Durchbrueche
 62
256
370
-1
  6
ByLayer
 10
-11.5
 20
0.0
 30
0.0
 11
11.5
 21
0.0
 31
0.0
  0
ARC
  5
61
100
AcDbEntity
  8
Durchbrueche
 62
256
370
-1
  6
ByLayer
100
AcDbCircle
 10
-11.5
 20
1.0
 30
0.0
 40
1.0
100
AcDbArc
 50
180.0
 51
270.0
  0
LINE
  5
62
100
AcDbEntity
100
AcDbLine
  8
Durchbrueche
 62
256
370
-1
  6
ByLayer
 10
-12.5
 20
4.0
 30
0.0
 11
-12.5
 21
1.0
 31
0.0
  0
LINE
  5
63
100
AcDbEntity
100
AcDbLine
  8
Durchbrueche
 62
256
370
-1
  6
ByLayer
 10
11.5
 20
5.0
 30
0.0
 11
-11.5
 21
5.0
 31
0.0
  0
ARC
  5
64
100
AcDbEntity
  8
Durchbrueche
 62
256
370
-1
  6
ByLayer
100
AcDbCircle
 10
-11.5
 20
4.0
 30
0.0
 40
1.0
100
AcDbArc
 50
90.0
 51
180.0
  0
ENDBLK
  5
65
100
AcDbEntity
  8
0
100
AcDbBlockEnd
  0
BLOCK
  5
66
100
AcDbEntity
  8
0
100
AcDbBlockBegin
  2
LCD
 70
0
 10
0.0
 20
0.0
 30
0.0
  3
LCD
  1

  0
ARC
  5
67
100
AcDbEntity
  8
Durchbrueche
 62
256
370
-1
  6
ByLayer
100
AcDbCircle
 10
2.0
 20
71.0
 30
0.0
 40
2.0
100
AcDbArc
 50
90.0
 51
180.0
  0
LINE
  5
68
100
AcDbEntity
100
AcDbLine
  8
Durchbrueche
 62
256
370
-1
  6
ByLayer
 10
128.0
 20
73.0
 30
0.0
 11
2.0
 21
73.0
 31
0.0
  0
ARC
  5
69
100
AcDbEntity
  8
Durchbrueche
 62
256
370
-1
  6
ByLayer
100
AcDbCircle
 10
128.0
 20
71.0
 30
0.0
 40
2.0
100
AcDbArc
 50
0.0
 51
90.0
  0
LINE
  5
6A
100
AcDbEntity
100
AcDbLine
  8
Durchbrueche
 62
256
370
-1
  6
ByLayer
 10
130.0
 20
2.0
 30
0.0
 11
130.0
 21
71.0
 31
0.0
  0
ARC
  5
6B
100
AcDbEntity
  8
Durchbrueche
 62
256
370
-1
  6
ByLayer
100
AcDbCircle
 10
128.0
 20
2.0
 30
0.0
 40
2.0
100
AcDbArc
 50
270.0
 51
0.0
  0
LINE
  5
6C
100
AcDbEntity
100
AcDbLine
  8
Durchbrueche
 62
256
370
-1
  6
ByLayer
 10
2.0
 20
0.0
 30
0.0
 11
128.0
 21
0.0
 31
0.0
  0
LINE
  5
6D
100
AcDbEntity
100
AcDbLine
  8
Durchbrueche
 62
256
370
-1
  6
ByLayer
 10
0.0
 20
71.0
 30
0.0
 11
0.0
 21
2.0
 31
0.0
  0
ARC
  5
6E
100
AcDbEntity
  8
Durchbrueche
 62
256
370
-1
  6
ByLayer
100
AcDbCircle
 10
2.0
 20
2.0
 30
0.0
 40
2.0
100
AcDbArc
 50
180.0
 51
270.0
  0
ENDBLK
  5
6F
100
AcDbEntity
  8
0
100
AcDbBlockEnd
  0
BLOCK
  5
70
100
AcDbEntity
  8
0
100
AcDbBlockBegin
  2
tux-0
 70
0
 10
0.0
 20
0.0
 30
0.0
  3
tux-0
  1

  0
ARC
  5
71
100
AcDbEntity
  8
0
 62
0
370
0
  6
CONTINUOUS
100
AcDbCircle
 10
12.7270149999999944
 20
26.4046270000000014
 30
0.0
 40
3.9318719999999998
100
AcDbArc
 50
105.1414259999999956
 51
177.1518250000000023
  0
ARC
  5
72
100
AcDbEntity
  8
0
 62
0
370
0
  6
CONTINUOUS
100
AcDbCircle
 10
12.8779369999999744
 20
25.5043080000000018
 30
0.0
 40
4.8411840000000002
100
AcDbArc
 50
39.7507739999999998
 51
104.082335999999998
  0
ARC
  5
73
100
AcDbEntity
  8
0
 62
0
370
0
  6
CONTINUOUS
100
AcDbCircle
 10
8.2048389999999927
 20
23.9467740000000013
 30
0.0
 40
9.5985019999999999
100
AcDbArc
 50
1.511741
 51
28.9984949999999984
  0
ARC
  5
74
100
AcDbEntity
  8
0
 62
0
370
0
  6
CONTINUOUS
100
AcDbCircle
 10
21.3937490000000139
 20
23.3187500000000014
 30
0.0
 40
3.7002220000000001
100
AcDbArc
 50
166.2219540000000109
 51
199.2306670000000111
  0
ARC
  5
75
100
AcDbEntity
  8
0
 62
0
370
0
  6
CONTINUOUS
100
AcDbCircle
 10
28.3417820000000233
 20
24.8294519999999999
 30
0.0
 40
10.7926219999999997
100
AcDbArc
 50
194.649169999999998
 51
215.9062649999999906
  0
ARC
  5
76
100
AcDbEntity
  8
0
 62
0
370
0
  6
CONTINUOUS
100
AcDbCircle
 10
14.3100000000000023
 20
11.8100000000000005
 30
0.0
 40
8.5287869999999995
100
AcDbArc
 50
27.1358870000000003
 51
51.6654359999999997
  0
ARC
  5
77
100
AcDbEntity
  8
0
 62
0
370
0
  6
CONTINUOUS
100
AcDbCircle
 10
10.25
 20
10.75
 30
0.0
 40
12.6580010000000005
100
AcDbArc
 50
7.4899529999999999
 51
23.0202850000000012
  0
ARC
  5
78
100
AcDbEntity
  8
0
 62
0
370
0
  6
CONTINUOUS
100
AcDbCircle
 10
18.7776319999999828
 20
11.1963819999999998
 30
0.0
 40
4.198588
100
AcDbArc
 50
310.4211429999999723
 51
16.6588290000000008
  0
ARC
  5
79
100
AcDbEntity
  8
0
 62
0
370
0
  6
CONTINUOUS
100
AcDbCircle
 10
20.4036600000000021
 20
9.4304880000000004
 30
0.0
 40
1.8022929999999999
100
AcDbArc
 50
218.8475039999999865
 51
307.4669489999999996
  0
ARC
  5
7A
100
AcDbEntity
  8
0
 62
0
370
0
  6
CONTINUOUS
100
AcDbCircle
 10
20.6325610000000097
 20
8.7012260000000001
 30
0.0
 40
1.6811419999999999
100
AcDbArc
 50
50.583835999999998
 51
193.8076320000000123
  0
ARC
  5
7B
100
AcDbEntity
  8
0
 62
0
370
0
  6
CONTINUOUS
100
AcDbCircle
 10
25.4312499999999773
 20
8.2874999999999996
 30
0.0
 40
2.3489110000000002
100
AcDbArc
 50
187.0304720000000032
 51
222.5198059999999884
  0
ARC
  5
7C
100
AcDbEntity
  8
0
 62
0
370
0
  6
CONTINUOUS
100
AcDbCircle
 10
28.4750000000000227
 20
11.5625
 30
0.0
 40
6.8150219999999999
100
AcDbArc
 50
225.5201869999999928
 51
239.3426360000000273
  0
ARC
  5
7D
100
AcDbEntity
  8
0
 62
0
370
0
  6
CONTINUOUS
100
AcDbCircle
 10
24.6375009999999861
 20
5.0
 30
0.0
 40
0.788293
100
AcDbArc
 50
297.3777160000000208
 51
62.6222950000000012
  0
ARC
  5
7E
100
AcDbEntity
  8
0
 62
0
370
0
  6
CONTINUOUS
100
AcDbCircle
 10
27.6124990000000139
 20
-5.5187489999999997
 30
0.0
 40
9.7841330000000006
100
AcDbArc
 50
119.4634250000000009
 51
136.6306610000000035
  0
ARC
  5
7F
100
AcDbEntity
  8
0
 62
0
370
0
  6
CONTINUOUS
100
AcDbCircle
 10
18.957018000000005
 20
2.8991229999999999
 30
0.0
 40
2.295172
100
AcDbArc
 50
211.4970399999999984
 51
312.2427670000000148
  0
ARC
  5
80
100
AcDbEntity
  8
0
 62
0
370
0
  6
CONTINUOUS
100
AcDbCircle
 10
20.7767600000000243
 20
2.966901
 30
0.0
 40
3.9835859999999998
100
AcDbArc
 50
157.3653260000000103
 51
198.5438540000000103
  0
ARC
  5
81
100
AcDbEntity
  8
0
 62
0
370
0
  6
CONTINUOUS
100
AcDbCircle
 10
3.1999999999999886
 20
7.2000000000000002
 30
0.0
 40
14.1598020000000009
100
AcDbArc
 50
349.0074769999999944
 51
5.2676970000000001
  0
ARC
  5
82
100
AcDbEntity
  8
0
 62
0
370
0
  6
CONTINUOUS
100
AcDbCircle
 10
17.8500000000000227
 20
8.8499999999999996
 30
0.0
 40
0.6519200000000001
100
AcDbArc
 50
57.5288090000000096
 51
212.4711910000000046
  0
ARC
  5
83
100
AcDbEntity
  8
0
 62
0
370
0
  6
CONTINUOUS
100
AcDbCircle
 10
6.0500000000000114
 20
6.3499999999999996
 30
0.0
 40
5.0916600000000001
100
AcDbArc
 50
162.2767639999999858
 51
187.3343810000000076
  0
ARC
  5
84
100
AcDbEntity
  8
0
 62
0
370
0
  6
CONTINUOUS
100
AcDbCircle
 10
4.8837659999999801
 20
8.9759740000000008
 30
0.0
 40
1.0274460000000001
100
AcDbArc
 50
37.3985860000000017
 51
149.33433500000001
  0
ARC
  5
85
100
AcDbEntity
  8
0
 62
0
370
0
  6
CONTINUOUS
100
AcDbCircle
 10
-12.5
 20
-6.0
 30
0.0
 40
23.9708159999999992
100
AcDbArc
 50
26.7788390000000014
 51
40.6012950000000004
  0
ARC
  5
86
100
AcDbEntity
  8
0
 62
0
370
0
  6
CONTINUOUS
100
AcDbCircle
 10
7.759523999999999
 20
2.8880949999999999
 30
0.0
 40
2.2262219999999999
100
AcDbArc
 50
321.4263310000000047
 51
59.1833719999999985
  0
ARC
  5
87
100
AcDbEntity
  8
0
 62
0
370
0
  6
CONTINUOUS
100
AcDbCircle
 10
7.8404760000000238
 20
2.819048
 30
0.0
 40
2.1198830000000002
100
AcDbArc
 50
234.1855319999999665
 51
321.5210880000000202
  0
ARC
  5
88
100
AcDbEntity
  8
0
 62
0
370
0
  6
CONTINUOUS
100
AcDbCircle
 10
10.5249999999999773
 20
8.1875
 30
0.0
 40
7.1972759999999996
100
AcDbArc
 50
140.143462999999997
 51
156.9974060000000122
  0
ARC
  5
89
100
AcDbEntity
  8
0
 62
0
370
0
  6
CONTINUOUS
100
AcDbCircle
 10
-3.8000000000000114
 20
16.9307690000000015
 30
0.0
 40
9.7212779999999999
100
AcDbArc
 50
334.8543700000000172
 51
350.9401550000000043
  0
ARC
  5
8A
100
AcDbEntity
  8
0
 62
0
370
0
  6
CONTINUOUS
100
AcDbCircle
 10
10.5416670000000181
 20
14.0833329999999997
 30
0.0
 40
4.9210789999999998
100
AcDbArc
 50
136.0291599999999903
 51
164.481078999999994
  0
ARC
  5
8B
100
AcDbEntity
  8
0
 62
0
370
0
  6
CONTINUOUS
100
AcDbCircle
 10
-2.0
 20
26.0166670000000018
 30
0.0
 40
12.3908679999999993
100
AcDbArc
 50
316.5805359999999951
 51
328.811554000000001
  0
ARC
  5
8C
100
AcDbEntity
  8
0
 62
0
370
0
  6
CONTINUOUS
100
AcDbCircle
 10
6.4375
 20
21.1000000000000014
 30
0.0
 40
2.6318069999999998
100
AcDbArc
 50
325.2532039999999824
 51
13.178191
  0
ARC
  5
8D
100
AcDbEntity
  8
0
 62
0
370
0
  6
CONTINUOUS
100
AcDbCircle
 10
1481.3499759999999696
 20
84.25
 30
0.0
 40
1473.6781009999999696
100
AcDbArc
 50
182.241973999999999
 51
182.4326320000000123
  0
ARC
  5
8E
100
AcDbEntity
  8
0
 62
0
370
0
  6
CONTINUOUS
100
AcDbCircle
 10
11.5722220000000107
 20
10.5277779999999996
 30
0.0
 40
7.119097
100
AcDbArc
 50
289.0853579999999852
 51
323.5682980000000271
  0
ARC
  5
8F
100
AcDbEntity
  8
0
 62
0
370
0
  6
CONTINUOUS
100
AcDbCircle
 10
27.1432570000000055
 20
30.2185379999999988
 30
0.0
 40
29.1244750000000003
100
AcDbArc
 50
220.5095829999999921
 51
232.2182620000000099
  0
ARC
  5
90
100
AcDbEntity
  8
0
 62
0
370
0
  6
CONTINUOUS
100
AcDbCircle
 10
15.8500000000000227
 20
12.25
 30
0.0
 40
4.7565739999999996
100
AcDbArc
 50
3.012788
 51
56.1428909999999988
  0
ARC
  5
91
100
AcDbEntity
  8
0
 62
0
370
0
  6
CONTINUOUS
100
AcDbCircle
 10
10.6000000000000227
 20
20.3999999999999986
 30
0.0
 40
1.0
100
AcDbArc
 50
143.1300960000000089
 51
216.8699039999999911
  0
ARC
  5
92
100
AcDbEntity
  8
0
 62
0
370
0
  6
CONTINUOUS
100
AcDbCircle
 10
18.9023819999999887
 20
12.6833329999999993
 30
0.0
 40
11.5542320000000007
100
AcDbArc
 50
141.9800419999999974
 51
155.3625790000000109
  0
ARC
  5
93
100
AcDbEntity
  8
0
 62
0
370
0
  6
CONTINUOUS
100
AcDbCircle
 10
9.3000000000000114
 20
16.8500000000000014
 30
0.0
 40
1.1101799999999999
100
AcDbArc
 50
144.1623539999999934
 51
215.8376460000000066
  0
ARC
  5
94
100
AcDbEntity
  8
0
 62
0
370
0
  6
CONTINUOUS
100
AcDbCircle
 10
13.7250000000000227
 20
10.9250000000000007
 30
0.0
 40
7.4954150000000004
100
AcDbArc
 50
135.2702639999999974
 51
187.8598479999999995
  0
ARC
  5
95
100
AcDbEntity
  8
0
 62
0
370
0
  6
CONTINUOUS
100
AcDbCircle
 10
7.1944439999999759
 20
14.6277779999999993
 30
0.0
 40
10.1980780000000006
100
AcDbArc
 50
11.1507780000000007
 51
32.4520419999999987
  0
ARC
  5
96
100
AcDbEntity
  8
0
 62
0
370
0
  6
CONTINUOUS
100
AcDbCircle
 10
15.1499999999999773
 20
20.3999999999999986
 30
0.0
 40
0.7158910000000001
100
AcDbArc
 50
335.2248539999999934
 51
77.9052429999999987
  0
ARC
  5
97
100
AcDbEntity
  8
0
 62
0
370
0
  6
CONTINUOUS
100
AcDbCircle
 10
32.4921049999999809
 20
10.6236840000000008
 30
0.0
 40
21.8953379999999989
100
AcDbArc
 50
172.1873779999999954
 51
185.5660100000000057
  0
ARC
  5
98
100
AcDbEntity
  8
0
 62
0
370
0
  6
CONTINUOUS
100
AcDbCircle
 10
12.872413999999992
 20
9.6965520000000005
 30
0.0
 40
6.9516119999999999
100
AcDbArc
 50
44.8593219999999988
 51
78.1493990000000025
  0
ARC
  5
99
100
AcDbEntity
  8
0
 62
0
370
0
  6
CONTINUOUS
100
AcDbCircle
 10
16.9599999999999795
 20
7.9400000000000004
 30
0.0
 40
8.9637720000000005
100
AcDbArc
 50
91.6621319999999997
 51
107.262512000000001
  0
ARC
  5
9A
100
AcDbEntity
  8
0
 62
0
370
0
  6
CONTINUOUS
100
AcDbCircle
 10
10.4555560000000014
 20
24.8833330000000004
 30
0.0
 40
0.951623
100
AcDbArc
 50
7.0420389999999999
 51
154.0333100000000002
  0
ARC
  5
9B
100
AcDbEntity
  8
0
 62
0
370
0
  6
CONTINUOUS
100
AcDbCircle
 10
9.7973680000000058
 20
17.8894739999999999
 30
0.0
 40
1.293552
100
AcDbArc
 50
202.2343140000000119
 51
274.5506899999999746
  0
ARC
  5
9C
100
AcDbEntity
  8
0
 62
0
370
0
  6
CONTINUOUS
100
AcDbCircle
 10
15.0500000000000114
 20
3.7999999999999998
 30
0.0
 40
13.7971920000000008
100
AcDbArc
 50
111.9170840000000027
 51
121.2130200000000002
  0
ARC
  5
9D
100
AcDbEntity
  8
0
 62
0
370
0
  6
CONTINUOUS
100
AcDbCircle
 10
9.0694690000000264
 20
6.3606189999999998
 30
0.0
 40
0.870462
100
AcDbArc
 50
278.6243590000000268
 51
74.6427000000000049
  0
ARC
  5
9E
100
AcDbEntity
  8
0
 62
0
370
0
  6
CONTINUOUS
100
AcDbCircle
 10
4.983333000000016
 20
10.5
 30
0.0
 40
1.193152
100
AcDbArc
 50
155.2248539999999934
 51
224.0770870000000059
  0
ARC
  5
9F
100
AcDbEntity
  8
0
 62
0
370
0
  6
CONTINUOUS
100
AcDbCircle
 10
-0.9260869999999954
 20
5.0304349999999998
 30
0.0
 40
2.0391490000000001
100
AcDbArc
 50
314.2632449999999835
 51
19.1689760000000007
  0
ARC
  5
A0
100
AcDbEntity
  8
0
 62
0
370
0
  6
CONTINUOUS
100
AcDbCircle
 10
1.1857140000000186
 20
3.3999999999999999
 30
0.0
 40
0.709268
100
AcDbArc
 50
166.1223300000000052
 51
279.2726139999999759
  0
ARC
  5
A1
100
AcDbEntity
  8
0
 62
0
370
0
  6
CONTINUOUS
100
AcDbCircle
 10
15.2692309999999907
 20
38.8500000000000014
 30
0.0
 40
38.7551539999999974
100
AcDbArc
 50
248.8722689999999886
 51
256.9222720000000209
  0
ARC
  5
A2
100
AcDbEntity
  8
0
 62
0
370
0
  6
CONTINUOUS
100
AcDbCircle
 10
2.7714290000000119
 20
9.5071429999999992
 30
0.0
 40
1.2285919999999999
100
AcDbArc
 50
261.5655820000000062
 51
359.6669009999999957
  0
ARC
  5
A3
100
AcDbEntity
  8
0
 62
0
370
0
  6
CONTINUOUS
100
AcDbCircle
 10
2.8394739999999956
 20
4.7447369999999998
 30
0.0
 40
3.5557780000000001
100
AcDbArc
 50
94.0034409999999951
 51
117.4563749999999942
  0
ARC
  5
A4
100
AcDbEntity
  8
0
 62
0
370
0
  6
CONTINUOUS
100
AcDbCircle
 10
13.3999999999999773
 20
-13.1624999999999996
 30
0.0
 40
15.4637930000000008
100
AcDbArc
 50
76.9185939999999988
 51
103.7120359999999977
  0
ARC
  5
A5
100
AcDbEntity
  8
0
 62
0
370
0
  6
CONTINUOUS
100
AcDbCircle
 10
12.1009429999999725
 20
9.04434
 30
0.0
 40
5.54434
100
AcDbArc
 50
243.6871949999999742
 51
288.9343870000000152
  0
ARC
  5
A6
100
AcDbEntity
  8
0
 62
0
370
0
  6
CONTINUOUS
100
AcDbCircle
 10
21.9249990000000139
 20
8.3249999999999993
 30
0.0
 40
1.2191190000000001
100
AcDbArc
 50
344.5387880000000109
 51
58.7759480000000067
  0
ARC
  5
A7
100
AcDbEntity
  8
0
 62
0
370
0
  6
CONTINUOUS
100
AcDbCircle
 10
11.6875
 20
13.3687500000000004
 30
0.0
 40
8.9547410000000003
100
AcDbArc
 50
339.9261169999999765
 51
354.4326479999999719
  0
ARC
  5
A8
100
AcDbEntity
  8
0
 62
0
370
0
  6
CONTINUOUS
100
AcDbCircle
 10
10.6744679999999903
 20
11.7361699999999995
 30
0.0
 40
8.1387599999999996
100
AcDbArc
 50
341.8895259999999894
 51
36.6991420000000019
  0
ARC
  5
A9
100
AcDbEntity
  8
0
 62
0
370
0
  6
CONTINUOUS
100
AcDbCircle
 10
19.2347599999999943
 20
10.3108939999999993
 30
0.0
 40
1.3785700000000001
100
AcDbArc
 50
221.3573000000000093
 51
258.9743040000000178
  0
ARC
  5
AA
100
AcDbEntity
  8
0
 62
0
370
0
  6
CONTINUOUS
100
AcDbCircle
 10
11.8695650000000228
 20
11.2782610000000005
 30
0.0
 40
6.3696020000000004
100
AcDbArc
 50
138.4866330000000119
 51
185.2003170000000125
  0
ARC
  5
AB
100
AcDbEntity
  8
0
 62
0
370
0
  6
CONTINUOUS
100
AcDbCircle
 10
13.6709680000000162
 20
24.3096770000000006
 30
0.0
 40
1.9383980000000001
100
AcDbArc
 50
311.9663699999999835
 51
62.0284580000000076
  0
ARC
  5
AC
100
AcDbEntity
  8
0
 62
0
370
0
  6
CONTINUOUS
100
AcDbCircle
 10
12.1000000000000227
 20
22.6999999999999993
 30
0.0
 40
1.204159
100
AcDbArc
 50
30.362410999999998
 51
138.366455000000002
  0
ARC
  5
AD
100
AcDbEntity
  8
0
 62
0
370
0
  6
CONTINUOUS
100
AcDbCircle
 10
10.3833329999999933
 20
21.797619000000001
 30
0.0
 40
0.988167
100
AcDbArc
 50
116.2053449999999941
 51
233.8203739999999584
  0
ARC
  5
AE
100
AcDbEntity
  8
0
 62
0
370
0
  6
CONTINUOUS
100
AcDbCircle
 10
12.375
 20
20.3249999999999993
 30
0.0
 40
3.3854470000000001
100
AcDbArc
 50
110.308441000000002
 51
135.8235019999999906
  0
ARC
  5
AF
100
AcDbEntity
  8
0
 62
0
370
0
  6
CONTINUOUS
100
AcDbCircle
 10
9.3500000000000227
 20
24.6499999999999986
 30
0.0
 40
2.079663
100
AcDbArc
 50
324.2603760000000079
 51
9.6887869999999996
  0
ARC
  5
B0
100
AcDbEntity
  8
0
 62
0
370
0
  6
CONTINUOUS
100
AcDbCircle
 10
12.480624999999975
 20
24.0566630000000004
 30
0.0
 40
3.1374970000000002
100
AcDbArc
 50
156.6539919999999881
 51
208.8717800000000011
  0
ARC
  5
B1
100
AcDbEntity
  8
0
 62
0
370
0
  6
CONTINUOUS
100
AcDbCircle
 10
13.2176420000000121
 20
19.6489939999999983
 30
0.0
 40
3.660514
100
AcDbArc
 50
62.6389619999999994
 51
91.2309800000000024
  0
ARC
  5
B2
100
AcDbEntity
  8
0
 62
0
370
0
  6
CONTINUOUS
100
AcDbCircle
 10
15.2646090000000072
 20
24.8719059999999992
 30
0.0
 40
2.5824189999999998
100
AcDbArc
 50
188.8350680000000068
 51
217.2301030000000139
  0
ARC
  5
B3
100
AcDbEntity
  8
0
 62
0
370
0
  6
CONTINUOUS
100
AcDbCircle
 10
14.1151160000000004
 20
24.6825580000000002
 30
0.0
 40
1.4175219999999999
100
AcDbArc
 50
70.8492889999999989
 51
190.299209999999988
  0
ARC
  5
B4
100
AcDbEntity
  8
0
 62
0
370
0
  6
CONTINUOUS
100
AcDbCircle
 10
10.3160100000000057
 20
24.4504039999999989
 30
0.0
 40
0.3
100
AcDbArc
 50
63.3159940000000034
 51
150.1225589999999954
  0
ARC
  5
B5
100
AcDbEntity
  8
0
 62
0
370
0
  6
CONTINUOUS
100
AcDbCircle
 10
10.0578949999999736
 20
23.9368419999999986
 30
0.0
 40
0.874777
100
AcDbArc
 50
344.2913510000000201
 51
63.3159940000000034
  0
ARC
  5
B6
100
AcDbEntity
  8
0
 62
0
370
0
  6
CONTINUOUS
100
AcDbCircle
 10
11.1000000000000227
 20
24.0
 30
0.0
 40
1.204159
100
AcDbArc
 50
150.1225589999999954
 51
232.2633209999999906
  0
ARC
  5
B7
100
AcDbEntity
  8
0
 62
0
370
0
  6
CONTINUOUS
100
AcDbCircle
 10
14.2128730000000019
 20
24.5855449999999998
 30
0.0
 40
0.3
100
AcDbArc
 50
46.3694460000000035
 51
103.1804280000000063
  0
ARC
  5
B8
100
AcDbEntity
  8
0
 62
0
370
0
  6
CONTINUOUS
100
AcDbCircle
 10
14.3500000000000227
 20
24.0
 30
0.0
 40
0.901388
100
AcDbArc
 50
103.1804280000000063
 51
235.6251679999999737
  0
ARC
  5
B9
100
AcDbEntity
  8
0
 62
0
370
0
  6
CONTINUOUS
100
AcDbCircle
 10
13.75
 20
24.1000000000000014
 30
0.0
 40
0.970824
100
AcDbArc
 50
291.8327939999999785
 51
46.3694460000000035
  0
ARC
  5
BA
100
AcDbEntity
  8
0
 62
0
370
0
  6
CONTINUOUS
100
AcDbCircle
 10
14.9455219999999827
 20
21.4596829999999983
 30
0.0
 40
0.3
100
AcDbArc
 50
294.0325930000000199
 51
308.9663090000000238
  0
ARC
  5
BB
100
AcDbEntity
  8
0
 62
0
370
0
  6
CONTINUOUS
100
AcDbCircle
 10
14.5142860000000269
 20
21.9928570000000008
 30
0.0
 40
0.9857399999999999
100
AcDbArc
 50
308.9663090000000238
 51
66.9649579999999958
  0
ARC
  5
BC
100
AcDbEntity
  8
0
 62
0
370
0
  6
CONTINUOUS
100
AcDbCircle
 10
10.9878469999999879
 20
21.0899740000000016
 30
0.0
 40
0.3
100
AcDbArc
 50
244.8093409999999892
 51
261.6190189999999802
  0
ARC
  5
BD
100
AcDbEntity
  8
0
 62
0
370
0
  6
CONTINUOUS
100
AcDbCircle
 10
12.7863639999999918
 20
24.9136360000000003
 30
0.0
 40
4.5255239999999999
100
AcDbArc
 50
225.2441560000000038
 51
244.8093409999999892
  0
ARC
  5
BE
100
AcDbEntity
  8
0
 62
0
370
0
  6
CONTINUOUS
100
AcDbCircle
 10
13.1305150000000026
 20
20.9286819999999985
 30
0.0
 40
0.3
100
AcDbArc
 50
110.9201199999999972
 51
120.3219600000000042
  0
ARC
  5
BF
100
AcDbEntity
  8
0
 62
0
370
0
  6
CONTINUOUS
100
AcDbCircle
 10
11.3999999999999773
 20
23.8874999999999993
 30
0.0
 40
3.1277240000000002
100
AcDbArc
 50
261.6190189999999802
 51
300.32195999999999
  0
ARC
  5
C0
100
AcDbEntity
  8
0
 62
0
370
0
  6
CONTINUOUS
100
AcDbCircle
 10
9.8785710000000222
 20
29.4357149999999983
 30
0.0
 40
8.8074010000000005
100
AcDbArc
 50
290.9201350000000161
 51
304.7597959999999944
  0
ARC
  5
C1
100
AcDbEntity
  8
0
 62
0
370
0
  6
CONTINUOUS
100
AcDbCircle
 10
11.3795210000000111
 20
20.7885610000000014
 30
0.0
 40
1.0
100
AcDbArc
 50
218.7462920000000111
 51
251.5650789999999688
  0
ARC
  5
C2
100
AcDbEntity
  8
0
 62
0
370
0
  6
CONTINUOUS
100
AcDbCircle
 10
11.9499999999999886
 20
22.5
 30
0.0
 40
2.8040150000000001
100
AcDbArc
 50
251.5650789999999688
 51
291.9911190000000261
  0
ARC
  5
C3
100
AcDbEntity
  8
0
 62
0
370
0
  6
CONTINUOUS
100
AcDbCircle
 10
5.3500000000000227
 20
15.9499999999999993
 30
0.0
 40
6.730899
100
AcDbArc
 50
38.7462919999999968
 51
48.6138800000000018
  0
ARC
  5
C4
100
AcDbEntity
  8
0
 62
0
370
0
  6
CONTINUOUS
100
AcDbCircle
 10
18.9991590000000201
 20
12.5574259999999995
 30
0.0
 40
9.4817339999999994
100
AcDbArc
 50
114.4963300000000004
 51
129.2501070000000141
  0
ARC
  5
C5
100
AcDbEntity
  8
0
 62
0
370
0
  6
CONTINUOUS
100
AcDbCircle
 10
8.9430419999999913
 20
9.1931639999999994
 30
0.0
 40
3.7020930000000001
100
AcDbArc
 50
263.5004579999999805
 51
273.9800420000000258
  0
ARC
  5
C6
100
AcDbEntity
  8
0
 62
0
370
0
  6
CONTINUOUS
100
AcDbCircle
 10
28.9407810000000154
 20
-4.8805509999999996
 30
0.0
 40
9.9906089999999992
100
AcDbArc
 50
113.2315830000000005
 51
127.926872000000003
  0
ARC
  5
C7
100
AcDbEntity
  8
0
 62
0
370
0
  6
CONTINUOUS
100
AcDbCircle
 10
9.1069709999999873
 20
23.9999310000000001
 30
0.0
 40
1.817941
100
AcDbArc
 50
337.9531559999999786
 51
350.5036929999999984
  0
ENDBLK
  5
C8
100
AcDbEntity
  8
0
100
AcDbBlockEnd
  0
BLOCK
  5
C9
100
AcDbEntity
  8
0
100
AcDbBlockBegin
  2
VDR-Schrift
 70
0
 10
0.0
 20
0.0
 30
0.0
  3
VDR-Schrift
  1

  0
LINE
  5
CA
100
AcDbEntity
100
AcDbLine
  8
Schraffuren
 62
256
370
-1
  6
ByLayer
 10
40.3470000000000013
 20
-2.171999999999997
 30
0.0
 11
30.9269999999999996
 21
-2.171999999999997
 31
0.0
  0
LINE
  5
CB
100
AcDbEntity
100
AcDbLine
  8
Schraffuren
 62
256
370
-1
  6
ByLayer
 10
28.1490000000000009
 20
0.0000000000000036
 30
0.0
 11
40.3470000000000013
 21
-0.0000000000000036
 31
0.0
  0
LINE
  5
CC
100
AcDbEntity
100
AcDbLine
  8
Schraffuren
 62
256
370
-1
  6
ByLayer
 10
45.6240000000000023
 20
-5.0700000000000003
 30
0.0
 11
45.6300000000000026
 21
-5.3220000000000027
 31
0.0
  0
LINE
  5
CD
100
AcDbEntity
100
AcDbLine
  8
Schraffuren
 62
256
370
-1
  6
ByLayer
 10
47.2049999999999983
 20
-19.8390000000009081
 30
0.0
 11
44.6219999999999999
 21
-19.8389999999991957
 31
0.0
  0
LINE
  5
CE
100
AcDbEntity
100
AcDbLine
  8
Schraffuren
 62
256
370
-1
  6
ByLayer
 10
44.6219999999999999
 20
-19.8389999999991957
 30
0.0
 11
40.5300000000000011
 21
-13.5120000000000164
 31
0.0
  0
LINE
  5
CF
100
AcDbEntity
100
AcDbLine
  8
Schraffuren
 62
256
370
-1
  6
ByLayer
 10
38.6099999999999994
 20
-11.4359999999999857
 30
0.0
 11
38.3879999999999981
 21
-11.3010000000000108
 31
0.0
  0
LINE
  5
D0
100
AcDbEntity
100
AcDbLine
  8
Schraffuren
 62
256
370
-1
  6
ByLayer
 10
35.6580000000000013
 20
-10.5629999999999988
 30
0.0
 11
33.2340000000000018
 21
-10.5629999999999882
 31
0.0
  0
LINE
  5
D1
100
AcDbEntity
100
AcDbLine
  8
Schraffuren
 62
256
370
-1
  6
ByLayer
 10
33.2340000000000018
 20
-10.5629999999999882
 30
0.0
 11
33.2340000000000018
 21
-8.3940000000000055
 31
0.0
  0
LINE
  5
D2
100
AcDbEntity
100
AcDbLine
  8
Schraffuren
 62
256
370
-1
  6
ByLayer
 10
33.2340000000000018
 20
-8.3940000000000055
 30
0.0
 11
40.3470000000000013
 21
-8.3940000000000019
 31
0.0
  0
LINE
  5
D3
100
AcDbEntity
100
AcDbLine
  8
Schraffuren
 62
256
370
-1
  6
ByLayer
 10
43.4579999999999984
 20
-5.283000000000019
 30
0.0
 11
43.4519999999999982
 21
-5.0940000000000154
 31
0.0
  0
LINE
  5
D4
100
AcDbEntity
100
AcDbLine
  8
Schraffuren
 62
256
370
-1
  6
ByLayer
 10
30.0990000000000038
 20
-9.9180000000000135
 30
0.0
 11
30.0930000000000035
 21
-10.394999999999996
 31
0.0
  0
LINE
  5
D5
100
AcDbEntity
100
AcDbLine
  8
Schraffuren
 62
256
370
-1
  6
ByLayer
 10
10.2390000000000008
 20
-19.8390000000000057
 30
0.0
 11
7.6440000000000001
 21
-19.8390000000000093
 31
0.0
  0
LINE
  5
D6
100
AcDbEntity
100
AcDbLine
  8
Schraffuren
 62
256
370
-1
  6
ByLayer
 10
7.6440000000000001
 20
-19.8390000000000093
 30
0.0
 11
0.0
 21
0.0
 31
0.0
  0
LINE
  5
D7
100
AcDbEntity
100
AcDbLine
  8
Schraffuren
 62
256
370
-1
  6
ByLayer
 10
0.0
 20
0.0
 30
0.0
 11
2.3309999999999995
 21
0.0
 31
0.0
  0
LINE
  5
D8
100
AcDbEntity
100
AcDbLine
  8
Schraffuren
 62
256
370
-1
  6
ByLayer
 10
32.2620000000000005
 20
-10.4310000000000045
 30
0.0
 11
32.2680000000000007
 21
-9.9179999999999922
 31
0.0
  0
LINE
  5
D9
100
AcDbEntity
100
AcDbLine
  8
Schraffuren
 62
256
370
-1
  6
ByLayer
 10
17.6610000000000014
 20
-3.4050000000000011
 30
0.0
 11
17.5380000000000038
 21
-3.4860000000000007
 31
0.0
  0
ARC
  5
DA
100
AcDbEntity
  8
Schraffuren
 62
256
370
-1
  6
ByLayer
100
AcDbCircle
 10
15.0900579058983482
 20
0.002999999999993
 30
0.0
 40
0.003
100
AcDbArc
 50
160.2362636468859876
 51
270.0
  0
LINE
  5
DB
100
AcDbEntity
100
AcDbLine
  8
Schraffuren
 62
256
370
-1
  6
ByLayer
 10
24.0810000000000031
 20
-17.6670000000000122
 30
0.0
 11
18.9570000000000007
 21
-17.6670000000000158
 31
0.0
  0
LINE
  5
DC
100
AcDbEntity
100
AcDbLine
  8
Schraffuren
 62
256
370
-1
  6
ByLayer
 10
18.9570000000000007
 20
-17.6670000000000158
 30
0.0
 11
18.9570000000000007
 21
-3.1350000000000051
 31
0.0
  0
LINE
  5
DD
100
AcDbEntity
100
AcDbLine
  8
Schraffuren
 62
256
370
-1
  6
ByLayer
 10
16.7880000000000038
 20
-4.5510000000000019
 30
0.0
 11
16.7880000000000038
 21
-19.8389999999998778
 31
0.0
  0
LINE
  5
DE
100
AcDbEntity
100
AcDbLine
  8
Schraffuren
 62
256
370
-1
  6
ByLayer
 10
16.7880000000000038
 20
-19.8389999999998778
 30
0.0
 11
24.078000000000003
 21
-19.8389999999997038
 31
0.0
  0
LINE
  5
DF
100
AcDbEntity
100
AcDbLine
  8
Schraffuren
 62
256
370
-1
  6
ByLayer
 10
2.3309999999999995
 20
0.0
 30
0.0
 11
8.919761219072246
 21
-17.1608814264374843
 31
0.0
  0
ARC
  5
E0
100
AcDbEntity
  8
Schraffuren
 62
256
370
-1
  6
ByLayer
100
AcDbCircle
 10
18.6889076234928098
 20
-5.09355659276547
 30
0.0
 40
1.9768200346532165
100
AcDbArc
 50
82.2056427441222723
 51
164.0702069389417659
  0
ARC
  5
E1
100
AcDbEntity
  8
Schraffuren
 62
256
370
-1
  6
ByLayer
100
AcDbCircle
 10
22.1029815553339972
 20
-9.9194999999999496
 30
0.0
 40
7.9960185853610772
100
AcDbArc
 50
284.3222571580870408
 51
75.6777428419127887
  0
ARC
  5
E2
100
AcDbEntity
  8
Schraffuren
 62
256
370
-1
  6
ByLayer
100
AcDbCircle
 10
22.1655384155662318
 20
-9.9192105758982763
 30
0.0
 40
10.1024616569653638
100
AcDbArc
 50
280.9123146836812452
 51
79.070357090376973
  0
ARC
  5
E3
100
AcDbEntity
  8
Schraffuren
 62
256
370
-1
  6
ByLayer
100
AcDbCircle
 10
40.3470000000000226
 20
-5.2830000000000013
 30
0.0
 40
3.1110000000000002
100
AcDbArc
 50
269.9999999999996021
 51
90.0000000000004121
  0
ARC
  5
E4
100
AcDbEntity
  8
Schraffuren
 62
256
370
-1
  6
ByLayer
100
AcDbCircle
 10
24.1092500073781011
 20
-8.0294012336573317
 30
0.0
 40
8.9883738336779455
100
AcDbArc
 50
40.667191485551065
 51
63.2921305236681704
  0
ARC
  5
E5
100
AcDbEntity
  8
Schraffuren
 62
256
370
-1
  6
ByLayer
100
AcDbCircle
 10
35.6166726057636893
 20
-16.130256549582711
 30
0.0
 40
5.5674099402132811
100
AcDbArc
 50
28.0526484271443266
 51
89.5746842715078344
  0
LINE
  5
E6
100
AcDbEntity
100
AcDbLine
  8
Schraffuren
 62
256
370
-1
  6
ByLayer
 10
16.0965251863872041
 20
-3.6048457631105144
 30
0.0
 11
10.2390000000000008
 21
-19.8390000000000057
 31
0.0
  0
LINE
  5
E7
100
AcDbEntity
100
AcDbLine
  8
Schraffuren
 62
256
370
-1
  6
ByLayer
 10
18.1367795674656165
 20
-2.1720000000000006
 30
0.0
 11
24.0810000000000031
 21
-2.1720000000000006
 31
0.0
  0
ARC
  5
E8
100
AcDbEntity
  8
Schraffuren
 62
256
370
-1
  6
ByLayer
100
AcDbCircle
 10
18.1367795674656165
 20
-4.3410000000000046
 30
0.0
 40
2.169
100
AcDbArc
 50
90.0
 51
160.1597994747706082
  0
LINE
  5
E9
100
AcDbEntity
100
AcDbLine
  8
Schraffuren
 62
256
370
-1
  6
ByLayer
 10
14.0541710205180905
 20
-2.8711384850641153
 30
0.0
 11
8.919761219072246
 21
-17.1608814264374843
 31
0.0
  0
LINE
  5
EA
100
AcDbEntity
100
AcDbLine
  8
Schraffuren
 62
256
370
-1
  6
ByLayer
 10
24.0810000000000031
 20
0.0
 30
0.0
 11
18.1366410199179597
 21
0.0
 31
0.0
  0
ARC
  5
EB
100
AcDbEntity
  8
Schraffuren
 62
256
370
-1
  6
ByLayer
100
AcDbCircle
 10
18.1366410199179597
 20
-4.338000000000001
 30
0.0
 40
4.3380000000000001
100
AcDbArc
 50
90.0
 51
160.2362636469035806
  0
ARC
  5
EC
100
AcDbEntity
  8
Schraffuren
 62
256
370
-1
  6
ByLayer
100
AcDbCircle
 10
40.3071889926303442
 20
-5.3226621668421039
 30
0.0
 40
5.3228110485570008
100
AcDbArc
 50
291.8822688059549932
 51
89.5714625323334701
  0
LINE
  5
ED
100
AcDbEntity
100
AcDbLine
  8
Schraffuren
 62
256
370
-1
  6
ByLayer
 10
41.87057251478155
 20
-11.5856710915841319
 30
0.0
 11
47.2049999999999983
 21
-19.8390000000009081
 31
0.0
  0
ARC
  5
EE
100
AcDbEntity
  8
Schraffuren
 62
256
370
-1
  6
ByLayer
100
AcDbCircle
 10
42.6264345867732075
 20
-11.0971298669935443
 30
0.0
 40
0.9
100
AcDbArc
 50
111.8822688059551922
 51
212.876060015742496
  0
ENDBLK
  5
EF
100
AcDbEntity
  8
0
100
AcDbBlockEnd
  0
BLOCK
  5
F0
100
AcDbEntity
  8
0
100
AcDbBlockBegin
  2
Einschalt_Symbol
 70
0
 10
0.0
 20
0.0
 30
0.0
  3
Einschalt_Symbol
  1

  0
ARC
  5
F1
100
AcDbEntity
  8
Platte
 62
256
370
-1
  6
ByLayer
100
AcDbCircle
 10
0.0
 20
0.0
 30
0.0
 40
3.0
100
AcDbArc
 50
105.0
 51
75.0
  0
LINE
  5
F2
100
AcDbEntity
100
AcDbLine
  8
Platte
 62
256
370
-1
  6
ByLayer
 10
0.0
 20
0.0
 30
0.0
 11
0.0
 21
3.5
 31
0.0
  0
ENDBLK
  5
F3
100
AcDbEntity
  8
0
100
AcDbBlockEnd
  0
BLOCK
  5
F4
100
AcDbEntity
  8
0
100
AcDbBlockBegin
  2
Open_Symbol
 70
0
 10
0.0
 20
0.0
 30
0.0
  3
Open_Symbol
  1

  0
LINE
  5
F5
100
AcDbEntity
100
AcDbLine
  8
Schraffuren
 62
256
370
-1
  6
ByLayer
 10
-3.0
 20
-3.0
 30
0.0
 11
3.0
 21
-3.0
 31
0.0
  0
LINE
  5
F6
100
AcDbEntity
100
AcDbLine
  8
Schraffuren
 62
256
370
-1
  6
ByLayer
 10
-3.0
 20
-1.0
 30
0.0
 11
3.0
 21
-1.0
 31
0.0
  0
LINE
  5
F7
100
AcDbEntity
100
AcDbLine
  8
Schraffuren
 62
256
370
-1
  6
ByLayer
 10
0.0
 20
2.0
 30
0.0
 11
-3.0
 21
-1.0
 31
0.0
  0
LINE
  5
F8
100
AcDbEntity
100
AcDbLine
  8
Schraffuren
 62
256
370
-1
  6
ByLayer
 10
3.0
 20
-1.0
 30
0.0
 11
0.0
 21
2.0
 31
0.0
  0
ENDBLK
  5
F9
100
AcDbEntity
  8
0
100
AcDbBlockEnd
  0
ENDSEC
  0
SECTION
  2
ENTITIES
  0
INSERT
  5
FA
100
AcDbEntity
100
AcDbBlockReference
  8
Platte
 62
256
370
-1
  6
ByLayer
  2
Platte
 10
0.0
 20
0.0
 30
0.0
  0
INSERT
  5
FB
100
AcDbEntity
100
AcDbBlockReference
  8
Durchbrueche
 62
256
370
-1
  6
ByLayer
  2
Schalter
 10
25.0
 20
100.0
 30
0.0
  0
INSERT
  5
FC
100
AcDbEntity
100
AcDbBlockReference
  8
Durchbrueche
 62
256
370
-1
  6
ByLayer
  2
Schalter
 10
425.0
 20
100.0
 30
0.0
 44
1.0
 45
1.0
  0
INSERT
  5
FD
100
AcDbEntity
100
AcDbBlockReference
  8
Durchbrueche
 62
256
370
-1
  6
ByLayer
  2
LCD
 10
65.0
 20
29.0
 30
0.0
  0
ARC
  5
FE
100
AcDbEntity
  8
Durchbrueche
 62
256
370
-1
  6
ByLayer
100
AcDbCircle
 10
271.0
 20
106.0
 30
0.0
 40
1.0
100
AcDbArc
 50
90.0
 51
180.0
  0
LINE
  5
FF
100
AcDbEntity
100
AcDbLine
  8
Durchbrueche
 62
256
370
-1
  6
ByLayer
 10
402.0
 20
107.0
 30
0.0
 11
271.0
 21
107.0
 31
0.0
  0
ARC
  5
100
100
AcDbEntity
  8
Durchbrueche
 62
256
370
-1
  6
ByLayer
100
AcDbCircle
 10
402.0
 20
106.0
 30
0.0
 40
1.0
100
AcDbArc
 50
0.0
 51
90.0
  0
LINE
  5
101
100
AcDbEntity
100
AcDbLine
  8
Durchbrueche
 62
256
370
-1
  6
ByLayer
 10
403.0
 20
88.0
 30
0.0
 11
403.0
 21
106.0
 31
0.0
  0
ARC
  5
102
100
AcDbEntity
  8
Durchbrueche
 62
256
370
-1
  6
ByLayer
100
AcDbCircle
 10
402.0
 20
88.0
 30
0.0
 40
1.0
100
AcDbArc
 50
270.0
 51
0.0
  0
LINE
  5
103
100
AcDbEntity
100
AcDbLine
  8
Durchbrueche
 62
256
370
-1
  6
ByLayer
 10
271.0
 20
87.0
 30
0.0
 11
402.0
 21
87.0
 31
0.0
  0
LINE
  5
104
100
AcDbEntity
100
AcDbLine
  8
Durchbrueche
 62
256
370
-1
  6
ByLayer
 10
270.0
 20
106.0
 30
0.0
 11
270.0
 21
88.0
 31
0.0
  0
ARC
  5
105
100
AcDbEntity
  8
Durchbrueche
 62
256
370
-1
  6
ByLayer
100
AcDbCircle
 10
271.0
 20
88.0
 30
0.0
 40
1.0
100
AcDbArc
 50
180.0
 51
270.0
  0
LINE
  5
106
100
AcDbEntity
100
AcDbLine
  8
Durchbrueche
 62
256
370
-1
  6
ByLayer
 10
65.0
 20
100.0
 30
0.0
 11
65.0
 21
31.0
 31
0.0
  0
LINE
  5
107
100
AcDbEntity
100
AcDbLine
  8
Durchbrueche
 62
256
370
-1
  6
ByLayer
 10
65.0
 20
100.0
 30
0.0
 11
65.0
 21
31.0
 31
0.0
  0
INSERT
  5
108
100
AcDbEntity
100
AcDbBlockReference
  8
Durchbrueche
 62
256
370
-1
  6
ByLayer
  2
LED
 10
25.0
 20
65.0
 30
0.0
  0
INSERT
  5
109
100
AcDbEntity
100
AcDbBlockReference
  8
Durchbrueche
 62
256
370
-1
  6
ByLayer
  2
LED
 10
25.0
 20
75.0
 30
0.0
 44
1.0
 45
1.0
  0
INSERT
  5
10A
100
AcDbEntity
100
AcDbBlockReference
  8
Durchbrueche
 62
256
370
-1
  6
ByLayer
  2
LED
 10
425.0
 20
65.0
 30
0.0
 44
1.0
 45
1.0
  0
INSERT
  5
10B
100
AcDbEntity
100
AcDbBlockReference
  8
Durchbrueche
 62
256
370
-1
  6
ByLayer
  2
LED
 10
425.0
 20
75.0
 30
0.0
 44
1.0
 45
1.0
  0
INSERT
  5
10C
100
AcDbEntity
100
AcDbBlockReference
  8
Schraffuren
 62
256
370
-1
  6
ByLayer
  2
VDR-Schrift
 10
6.821093877551121
 20
19.2595591836737547
 30
0.0
 41
0.7
 42
0.7
 43
1.0
  0
INSERT
  5
10D
100
AcDbEntity
100
AcDbBlockReference
  8
Schraffuren
 62
256
370
-1
  6
ByLayer
  2
tux-0
 10
404.846938775519618
 20
5.357142857142982
 30
0.0
 41
1.5
 42
1.5
 43
1.0
 44
1.0
 45
1.0
  0
INSERT
  5
10E
100
AcDbEntity
100
AcDbBlockReference
  8
Schraffuren
 62
256
370
-1
  6
ByLayer
  2
Open_Symbol
 10
425.0
 20
85.0
 30
0.0
  0
CIRCLE
  5
10F
100
AcDbEntity
100
AcDbCircle
  8
Schraffuren
 62
256
370
-1
  6
ByLayer
 10
25.0
 20
100.0
 30
0.0
 40
11.0
  0
CIRCLE
  5
110
100
AcDbEntity
100
AcDbCircle
  8
Schraffuren
 62
256
370
-1
  6
ByLayer
 10
425.0
 20
100.0
 30
0.0
 40
11.0
  0
INSERT
  5
111
100
AcDbEntity
100
AcDbBlockReference
  8
Schraffuren
 62
256
370
-1
  6
ByLayer
  2
Einschalt_Symbol
 10
25.0
 20
84.5
 30
0.0
  0
LINE
  5
112
100
AcDbEntity
100
AcDbLine
  8
Schraffuren
 62
256
370
-1
  6
ByLayer
 10
24.1844059999999992
 20
63.8977800000000045
 30
0.0
 11
23.4079573333333322
 21
61.0
 31
0.0
  0
LINE
  5
113
100
AcDbEntity
100
AcDbLine
  8
Schraffuren
 62
256
370
-1
  6
ByLayer
 10
25.6961653333333331
 20
62.2879000000000005
 30
0.0
 11
26.0177393333333349
 21
61.0
 31
0.0
  0
LINE
  5
114
100
AcDbEntity
100
AcDbLine
  8
Schraffuren
 62
256
370
-1
  6
ByLayer
 10
27.8924886666666652
 20
72.2878999999999934
 30
0.0
 11
28.214062666666667
 21
71.0
 31
0.0
  0
LINE
  5
115
100
AcDbEntity
100
AcDbLine
  8
Schraffuren
 62
256
370
-1
  6
ByLayer
 10
422.1472576666666896
 20
63.8977800000000045
 30
0.0
 11
421.3708090000000084
 21
61.0
 31
0.0
  0
LINE
  5
116
100
AcDbEntity
100
AcDbLine
  8
Schraffuren
 62
256
370
-1
  6
ByLayer
 10
423.037475666666694
 20
61.0
 30
0.0
 11
423.8139243333333184
 21
63.8977800000000045
 31
0.0
  0
LINE
  5
117
100
AcDbEntity
100
AcDbLine
  8
Schraffuren
 62
256
370
-1
  6
ByLayer
 10
421.8021646666666697
 20
62.6098766666666648
 30
0.0
 11
423.4688313333333554
 21
62.6098766666666648
 31
0.0
  0
LINE
  5
118
100
AcDbEntity
100
AcDbLine
  8
Schraffuren
 62
256
370
-1
  6
ByLayer
 10
24.351072666666667
 20
61.0
 30
0.0
 11
25.1275416666666658
 21
63.8977800000000045
 31
0.0
  0
LINE
  5
119
100
AcDbEntity
100
AcDbLine
  8
Schraffuren
 62
256
370
-1
  6
ByLayer
 10
25.1275416666666658
 20
63.8977800000000045
 30
0.0
 11
25.9253754519961745
 21
63.8977766666550266
 31
0.0
  0
ARC
  5
11A
100
AcDbEntity
  8
Schraffuren
 62
256
370
-1
  6
ByLayer
100
AcDbCircle
 10
25.925372666666668
 20
63.231110000000001
 30
0.0
 40
0.66667
100
AcDbArc
 50
345.0005598510729214
 51
89.9997606185620782
  0
LINE
  5
11B
100
AcDbEntity
100
AcDbLine
  8
Schraffuren
 62
256
370
-1
  6
ByLayer
 10
26.5693354338419105
 20
63.058567440647785
 30
0.0
 11
26.4952404337854972
 21
62.7820303274316984
 31
0.0
  0
LINE
  5
11C
100
AcDbEntity
100
AcDbLine
  8
Schraffuren
 62
256
370
-1
  6
ByLayer
 10
25.8512760000000021
 20
62.2879000000000005
 30
0.0
 11
24.6961653333333331
 21
62.2879000000000005
 31
0.0
  0
ARC
  5
11D
100
AcDbEntity
  8
Schraffuren
 62
256
370
-1
  6
ByLayer
100
AcDbCircle
 10
25.8512760000000021
 20
62.9545733333333359
 30
0.0
 40
0.6666733333333333
100
AcDbArc
 50
270.0
 51
345.0005598510726372
  0
LINE
  5
11E
100
AcDbEntity
100
AcDbLine
  8
Schraffuren
 62
256
370
-1
  6
ByLayer
 10
21.9880826666666671
 20
73.8977799999999974
 30
0.0
 11
22.785934000000001
 21
73.8977766666666724
 31
0.0
  0
LINE
  5
11F
100
AcDbEntity
100
AcDbLine
  8
Schraffuren
 62
256
370
-1
  6
ByLayer
 10
21.2116340000000001
 20
71.0
 30
0.0
 11
21.9880826666666671
 21
73.8977799999999974
 31
0.0
  0
ARC
  5
120
100
AcDbEntity
  8
Schraffuren
 62
256
370
-1
  6
ByLayer
100
AcDbCircle
 10
22.785934000000001
 20
73.2311066666666619
 30
0.0
 40
0.66667
100
AcDbArc
 50
345.0005598510726372
 51
90.0
  0
LINE
  5
121
100
AcDbEntity
100
AcDbLine
  8
Schraffuren
 62
256
370
-1
  6
ByLayer
 10
23.4298951005649876
 20
73.0585645538638602
 30
0.0
 11
23.3558001005085778
 21
72.7820274406477807
 31
0.0
  0
LINE
  5
122
100
AcDbEntity
100
AcDbLine
  8
Schraffuren
 62
256
370
-1
  6
ByLayer
 10
22.7118373333333317
 20
72.2878999999999934
 30
0.0
 11
21.5567266666666661
 21
72.2878999999999934
 31
0.0
  0
ARC
  5
123
100
AcDbEntity
  8
Schraffuren
 62
256
370
-1
  6
ByLayer
100
AcDbCircle
 10
22.7118373333333317
 20
72.9545700000000039
 30
0.0
 40
0.66667
100
AcDbArc
 50
270.0
 51
345.0005598510724099
  0
LINE
  5
124
100
AcDbEntity
100
AcDbLine
  8
Schraffuren
 62
256
370
-1
  6
ByLayer
 10
24.0624063333333318
 20
73.8977799999999974
 30
0.0
 11
23.9526039999999973
 21
71.0
 31
0.0
  0
LINE
  5
125
100
AcDbEntity
100
AcDbLine
  8
Schraffuren
 62
256
370
-1
  6
ByLayer
 10
23.9526039999999973
 20
71.0
 30
0.0
 11
25.1369096666666643
 21
72.9318533333333363
 31
0.0
  0
LINE
  5
126
100
AcDbEntity
100
AcDbLine
  8
Schraffuren
 62
256
370
-1
  6
ByLayer
 10
25.285937333333333
 20
71.0
 30
0.0
 11
26.714062666666667
 21
73.8977799999999974
 31
0.0
  0
LINE
  5
127
100
AcDbEntity
100
AcDbLine
  8
Schraffuren
 62
256
370
-1
  6
ByLayer
 10
25.1369096666666643
 20
72.9318533333333363
 30
0.0
 11
25.285937333333333
 21
71.0
 31
0.0
  0
LINE
  5
128
100
AcDbEntity
100
AcDbLine
  8
Schraffuren
 62
256
370
-1
  6
ByLayer
 10
27.3238649999999978
 20
73.8977799999999974
 30
0.0
 11
28.121696
 21
73.8977766666666724
 31
0.0
  0
LINE
  5
129
100
AcDbEntity
100
AcDbLine
  8
Schraffuren
 62
256
370
-1
  6
ByLayer
 10
26.5473959999999991
 20
71.0
 30
0.0
 11
27.3238649999999978
 21
73.8977799999999974
 31
0.0
  0
ARC
  5
12A
100
AcDbEntity
  8
Schraffuren
 62
256
370
-1
  6
ByLayer
100
AcDbCircle
 10
28.121696
 20
73.231110000000001
 30
0.0
 40
0.66667
100
AcDbArc
 50
345.0005598510722962
 51
90.0
  0
LINE
  5
12B
100
AcDbEntity
100
AcDbLine
  8
Schraffuren
 62
256
370
-1
  6
ByLayer
 10
28.7656587671752391
 20
73.0585674406477779
 30
0.0
 11
28.6915637671188257
 21
72.7820303274316842
 31
0.0
  0
LINE
  5
12C
100
AcDbEntity
100
AcDbLine
  8
Schraffuren
 62
256
370
-1
  6
ByLayer
 10
28.0475993333333342
 20
72.2878999999999934
 30
0.0
 11
26.8924886666666652
 21
72.2878999999999934
 31
0.0
  0
ARC
  5
12D
100
AcDbEntity
  8
Schraffuren
 62
256
370
-1
  6
ByLayer
100
AcDbCircle
 10
28.0475993333333342
 20
72.9545733333333288
 30
0.0
 40
0.6666733333333333
100
AcDbArc
 50
270.0
 51
345.0005598510718983
  0
LINE
  5
12E
100
AcDbEntity
100
AcDbLine
  8
Schraffuren
 62
256
370
-1
  6
ByLayer
 10
422.368815333333373
 20
73.8977799999999974
 30
0.0
 11
421.5923666666666918
 21
71.0
 31
0.0
  0
LINE
  5
12F
100
AcDbEntity
100
AcDbLine
  8
Schraffuren
 62
256
370
-1
  6
ByLayer
 10
423.1666666666666856
 20
73.8977799999999974
 30
0.0
 11
422.368815333333373
 21
73.8977799999999974
 31
0.0
  0
ARC
  5
130
100
AcDbEntity
  8
Schraffuren
 62
256
370
-1
  6
ByLayer
100
AcDbCircle
 10
423.1666666666666856
 20
73.231110000000001
 30
0.0
 40
0.6666666666666666
100
AcDbArc
 50
345.0001653610374888
 51
90.0
  0
LINE
  5
131
100
AcDbEntity
100
AcDbLine
  8
Schraffuren
 62
256
370
-1
  6
ByLayer
 10
423.4245402295716758
 20
71.6176496127516344
 30
0.0
 11
423.8106274125332789
 21
73.0585632301543342
 31
0.0
  0
LINE
  5
132
100
AcDbEntity
100
AcDbLine
  8
Schraffuren
 62
256
370
-1
  6
ByLayer
 10
421.5923666666666918
 20
71.0
 30
0.0
 11
422.6195883333333541
 21
71.0
 31
0.0
  0
ARC
  5
133
100
AcDbEntity
  8
Schraffuren
 62
256
370
-1
  6
ByLayer
100
AcDbCircle
 10
422.6195883333333541
 20
71.8333333333333286
 30
0.0
 40
0.8333333333333333
100
AcDbArc
 50
270.0
 51
345.0001653610372614
  0
LINE
  5
134
100
AcDbEntity
100
AcDbLine
  8
Schraffuren
 62
256
370
-1
  6
ByLayer
 10
425.0
 20
71.0
 30
0.0
 11
426.7764690000000201
 21
73.8977799999999974
 31
0.0
  0
LINE
  5
135
100
AcDbEntity
100
AcDbLine
  8
Schraffuren
 62
256
370
-1
  6
ByLayer
 10
424.7764690000000201
 20
73.8977799999999974
 30
0.0
 11
425.0
 21
71.0
 31
0.0
  0
LINE
  5
136
100
AcDbEntity
100
AcDbLine
  8
Schraffuren
 62
256
370
-1
  6
ByLayer
 10
427.7409666666666794
 20
73.8977799999999974
 30
0.0
 11
426.9431153333333668
 21
73.8977799999999974
 31
0.0
  0
LINE
  5
137
100
AcDbEntity
100
AcDbLine
  8
Schraffuren
 62
256
370
-1
  6
ByLayer
 10
426.9431153333333668
 20
73.8977799999999974
 30
0.0
 11
426.1666666666666856
 21
71.0
 31
0.0
  0
ARC
  5
138
100
AcDbEntity
  8
Schraffuren
 62
256
370
-1
  6
ByLayer
100
AcDbCircle
 10
427.7409666666666794
 20
73.231110000000001
 30
0.0
 40
0.6666666666666666
100
AcDbArc
 50
345.0001653610374888
 51
90.0
  0
LINE
  5
139
100
AcDbEntity
100
AcDbLine
  8
Schraffuren
 62
256
370
-1
  6
ByLayer
 10
427.9988402295716696
 20
71.6176496127516344
 30
0.0
 11
428.3849274125332727
 21
73.0585632301543342
 31
0.0
  0
LINE
  5
13A
100
AcDbEntity
100
AcDbLine
  8
Schraffuren
 62
256
370
-1
  6
ByLayer
 10
426.1666666666666856
 20
71.0
 30
0.0
 11
427.1938883333333479
 21
71.0
 31
0.0
  0
ARC
  5
13B
100
AcDbEntity
  8
Schraffuren
 62
256
370
-1
  6
ByLayer
100
AcDbCircle
 10
427.1938883333333479
 20
71.8333333333333286
 30
0.0
 40
0.8333333333333333
100
AcDbArc
 50
270.0
 51
345.0001653610372614
  0
LINE
  5
13C
100
AcDbEntity
100
AcDbLine
  8
Schraffuren
 62
256
370
-1
  6
ByLayer
 10
424.7570396666666852
 20
63.8977800000000045
 30
0.0
 11
423.980591000000004
 21
61.0
 31
0.0
  0
LINE
  5
13D
100
AcDbEntity
100
AcDbLine
  8
Schraffuren
 62
256
370
-1
  6
ByLayer
 10
425.5548909999999978
 20
63.8977800000000045
 30
0.0
 11
424.7570396666666852
 21
63.8977800000000045
 31
0.0
  0
ARC
  5
13E
100
AcDbEntity
  8
Schraffuren
 62
256
370
-1
  6
ByLayer
100
AcDbCircle
 10
425.5548909999999978
 20
63.231110000000001
 30
0.0
 40
0.6666666666666666
100
AcDbArc
 50
345.0001653610374888
 51
90.0
  0
LINE
  5
13F
100
AcDbEntity
100
AcDbLine
  8
Schraffuren
 62
256
370
-1
  6
ByLayer
 10
425.812764562904988
 20
61.6176496127516344
 30
0.0
 11
426.198851745866591
 21
63.0585632301543342
 31
0.0
  0
LINE
  5
140
100
AcDbEntity
100
AcDbLine
  8
Schraffuren
 62
256
370
-1
  6
ByLayer
 10
423.980591000000004
 20
61.0
 30
0.0
 11
425.0078126666666662
 21
61.0
 31
0.0
  0
ARC
  5
141
100
AcDbEntity
  8
Schraffuren
 62
256
370
-1
  6
ByLayer
100
AcDbCircle
 10
425.0078126666666662
 20
61.8333333333333357
 30
0.0
 40
0.8333333333333333
100
AcDbArc
 50
270.0
 51
345.0001653610367498
  0
LINE
  5
142
100
AcDbEntity
100
AcDbLine
  8
Schraffuren
 62
256
370
-1
  6
ByLayer
 10
427.962524333333306
 20
63.8977800000000045
 30
0.0
 11
427.1646729999999934
 21
63.8977800000000045
 31
0.0
  0
ARC
  5
143
100
AcDbEntity
  8
Schraffuren
 62
256
370
-1
  6
ByLayer
100
AcDbCircle
 10
427.962524333333306
 20
63.231110000000001
 30
0.0
 40
0.6666666666666666
100
AcDbArc
 50
345.0001653610374888
 51
90.0
  0
LINE
  5
144
100
AcDbEntity
100
AcDbLine
  8
Schraffuren
 62
256
370
-1
  6
ByLayer
 10
428.2203978962382962
 20
61.6176496127516344
 30
0.0
 11
428.6064850791998992
 21
63.0585632301543342
 31
0.0
  0
ARC
  5
145
100
AcDbEntity
  8
Schraffuren
 62
256
370
-1
  6
ByLayer
100
AcDbCircle
 10
427.4154459999999744
 20
61.8333333333333357
 30
0.0
 40
0.8333333333333333
100
AcDbArc
 50
270.0
 51
345.0001653610367498
  0
LINE
  5
146
100
AcDbEntity
100
AcDbLine
  8
Schraffuren
 62
256
370
-1
  6
ByLayer
 10
427.1646729999999934
 20
63.8977800000000045
 30
0.0
 11
426.3882243333333122
 21
61.0
 31
0.0
  0
LINE
  5
147
100
AcDbEntity
100
AcDbLine
  8
Schraffuren
 62
256
370
-1
  6
ByLayer
 10
426.3882243333333122
 20
61.0
 30
0.0
 11
427.4154459999999744
 21
61.0
 31
0.0
  0
ENDSEC
  0
SECTION
  2
OBJECTS
  0
DICTIONARY
  5
C
100
AcDbDictionary
280
0
281
1
  3
ACAD_GROUP
350
D
  3
ACAD_LAYOUT
350
1A
  3
ACAD_MLINESTYLE
350
17
  3
ACAD_PLOTSETTINGS
350
19
  3
ACAD_PLOTSTYLENAME
350
E
  3
AcDbVariableDictionary
350
148
  0
DICTIONARY
  5
D
100
AcDbDictionary
280
0
281
1
  0
ACDBDICTIONARYWDFLT
  5
E
100
AcDbDictionary
281
1
  3
Normal
350
F
100
AcDbDictionaryWithDefault
340
F
  0
ACDBPLACEHOLDER
  5
F
  0
DICTIONARY
  5
17
100
AcDbDictionary
280
0
281
1
  3
Standard
350
18
  0
MLINESTYLE
  5
18
100
AcDbMlineStyle
  2
STANDARD
 70
0
  3

 62
256
 51
90.0
 52
90.0
 71
2
 49
0.5
 62
256
  6
BYLAYER
 49
-0.5
 62
256
  6
BYLAYER
  0
DICTIONARY
  5
19
100
AcDbDictionary
280
0
281
1
  0
DICTIONARY
  5
1A
100
AcDbDictionary
281
1
  3
Layout1
350
1E
  3
Layout2
350
26
  3
Model
350
22
  0
LAYOUT
  5
1E
100
AcDbPlotSettings
  1

  2
C:\Program Files\AutoCAD 2002\plotters\DWF ePlot (optimized for plotting).pc3
  4

  6

 40
0.0
 41
0.0
 42
0.0
 43
0.0
 44
0.0
 45
0.0
 46
0.0
 47
0.0
 48
0.0
 49
0.0
140
0.0
141
0.0
142
1.0
143
1.0
 70
688
 72
0
 73
0
 74
5
  7

 75
16
147
1.0
148
0.0
149
0.0
100
AcDbLayout
  1
Layout1
 70
1
 71
1
 10
0.0
 20
0.0
 11
420.0
 21
297.0
 12
0.0
 22
0.0
 32
0.0
 14
100000000000000000000.0
 24
100000000000000000000.0
 34
100000000000000000000.0
 15
-100000000000000000000.0
 25
-100000000000000000000.0
 35
-100000000000000000000.0
146
0.0
 13
0.0
 23
0.0
 33
0.0
 16
1.0
 26
0.0
 36
0.0
 17
0.0
 27
1.0
 37
0.0
 76
0
330
1B
  0
LAYOUT
  5
22
100
AcDbPlotSettings
  1

  2
C:\Program Files\AutoCAD 2002\plotters\DWF ePlot (optimized for plotting).pc3
  4

  6

 40
0.0
 41
0.0
 42
0.0
 43
0.0
 44
0.0
 45
0.0
 46
0.0
 47
0.0
 48
0.0
 49
0.0
140
0.0
141
0.0
142
1.0
143
1.0
 70
1712
 72
0
 73
0
 74
0
  7

 75
0
147
1.0
148
0.0
149
0.0
100
AcDbLayout
  1
Model
 70
1
 71
0
 10
0.0
 20
0.0
 11
12.0
 21
9.0
 12
0.0
 22
0.0
 32
0.0
 14
0.0
 24
0.0
 34
0.0
 15
0.0
 25
0.0
 35
0.0
146
0.0
 13
0.0
 23
0.0
 33
0.0
 16
1.0
 26
0.0
 36
0.0
 17
0.0
 27
1.0
 37
0.0
 76
0
330
1F
  0
LAYOUT
  5
26
100
AcDbPlotSettings
  1

  2
C:\Program Files\AutoCAD 2002\plotters\DWF ePlot (optimized for plotting).pc3
  4

  6

 40
0.0
 41
0.0
 42
0.0
 43
0.0
 44
0.0
 45
0.0
 46
0.0
 47
0.0
 48
0.0
 49
0.0
140
0.0
141
0.0
142
1.0
143
1.0
 70
688
 72
0
 73
0
 74
5
  7

 75
16
147
1.0
148
0.0
149
0.0
100
AcDbLayout
  1
Layout2
 70
1
 71
2
 10
0.0
 20
0.0
 11
12.0
 21
9.0
 12
0.0
 22
0.0
 32
0.0
 14
0.0
 24
0.0
 34
0.0
 15
0.0
 25
0.0
 35
0.0
146
0.0
 13
0.0
 23
0.0
 33
0.0
 16
1.0
 26
0.0
 36
0.0
 17
0.0
 27
1.0
 37
0.0
 76
0
330
23
  0
DICTIONARY
  5
148
100
AcDbDictionary
281
1
  3
DIMASSOC
350
14A
  3
HIDETEXT
350
149
  0
DICTIONARYVAR
  5
149
100
DictionaryVariables
280
0
  1
2
  0
DICTIONARYVAR
  5
14A
100
DictionaryVariables
280
0
  1
1
  0
ENDSEC
  0
EOF
