  0
SECTION
  2
HEADER
  9
$ACADVER
  1
AC1014
  9
$ACADMAINTVER
 70
     0
  9
$DWGCODEPAGE
  3
DOS850
  9
$INSBASE
 10
0.0
 20
0.0
 30
0.0
  9
$EXTMIN
 10
-106.2881
 20
-149.7881
 30
1.0
  9
$EXTMAX
 10
-32.2119
 20
-75.7119
 30
1.0
  9
$LIMMIN
 10
0.0
 20
0.0
  9
$LIMMAX
 10
0.0
 20
0.0
  9
$ORTHOMODE
 70
     0
  9
$REGENMODE
 70
     1
  9
$FILLMODE
 70
     1
  9
$QTEXTMODE
 70
     0
  9
$MIRRTEXT
 70
     1
  9
$DRAGMODE
 70
     2
  9
$LTSCALE
 40
1.0
  9
$OSMODE
 70
     0
  9
$ATTMODE
 70
     1
  9
$TEXTSIZE
 40
0.2
  9
$TRACEWID
 40
0.05
  9
$TEXTSTYLE
  7
STANDARD
  9
$CLAYER
  8
0
  9
$CELTYPE
  6
CONTINUOUS
  9
$CECOLOR
 62
   256
  9
$CELTSCALE
 40
1.0
  9
$DELOBJ
 70
     1
  9
$DISPSILH
 70
     0
  9
$DIMSCALE
 40
1.0
  9
$DIMASZ
 40
0.18
  9
$DIMEXO
 40
0.0625
  9
$DIMDLI
 40
0.38
  9
$DIMRND
 40
0.0
  9
$DIMDLE
 40
0.0
  9
$DIMEXE
 40
0.18
  9
$DIMTP
 40
0.0
  9
$DIMTM
 40
0.0
  9
$DIMTXT
 40
0.18
  9
$DIMCEN
 40
0.09
  9
$DIMTSZ
 40
0.0
  9
$DIMTOL
 70
     0
  9
$DIMLIM
 70
     0
  9
$DIMTIH
 70
     1
  9
$DIMTOH
 70
     1
  9
$DIMSE1
 70
     0
  9
$DIMSE2
 70
     0
  9
$DIMTAD
 70
     0
  9
$DIMZIN
 70
     0
  9
$DIMBLK
  1

  9
$DIMASO
 70
     1
  9
$DIMSHO
 70
     1
  9
$DIMPOST
  1

  9
$DIMAPOST
  1

  9
$DIMALT
 70
     0
  9
$DIMALTD
 70
     2
  9
$DIMALTF
 40
25.4
  9
$DIMLFAC
 40
1.0
  9
$DIMTOFL
 70
     0
  9
$DIMTVP
 40
0.0
  9
$DIMTIX
 70
     0
  9
$DIMSOXD
 70
     0
  9
$DIMSAH
 70
     0
  9
$DIMBLK1
  1

  9
$DIMBLK2
  1

  9
$DIMSTYLE
  2
STANDARD
  9
$DIMCLRD
 70
     0
  9
$DIMCLRE
 70
     0
  9
$DIMCLRT
 70
     0
  9
$DIMTFAC
 40
1.0
  9
$DIMGAP
 40
0.09
  9
$DIMJUST
 70
     0
  9
$DIMSD1
 70
     0
  9
$DIMSD2
 70
     0
  9
$DIMTOLJ
 70
     1
  9
$DIMTZIN
 70
     0
  9
$DIMALTZ
 70
     0
  9
$DIMALTTZ
 70
     0
  9
$DIMFIT
 70
     3
  9
$DIMUPT
 70
     0
  9
$DIMUNIT
 70
     2
  9
$DIMDEC
 70
     4
  9
$DIMTDEC
 70
     4
  9
$DIMALTU
 70
     2
  9
$DIMALTTD
 70
     2
  9
$DIMTXSTY
  7
STANDARD
  9
$DIMAUNIT
 70
     0
  9
$LUNITS
 70
     2
  9
$LUPREC
 70
     4
  9
$SKETCHINC
 40
0.1
  9
$FILLETRAD
 40
0.0
  9
$AUNITS
 70
     0
  9
$AUPREC
 70
     0
  9
$MENU
  1
acad
  9
$ELEVATION
 40
0.0
  9
$PELEVATION
 40
0.0
  9
$THICKNESS
 40
0.0
  9
$LIMCHECK
 70
     0
  9
$BLIPMODE
 70
     1
  9
$CHAMFERA
 40
0.0
  9
$CHAMFERB
 40
0.0
  9
$CHAMFERC
 40
0.0
  9
$CHAMFERD
 40
0.0
  9
$SKPOLY
 70
     0
  9
$TDCREATE
 40
0.000000000
  9
$TDUPDATE
 40
0.000000000
  9
$TDINDWG
 40
0.0000000000
  9
$TDUSRTIMER
 40
0.0000000000
  9
$USRTIMER
 70
     1
  9
$ANGBASE
 50
0.0
  9
$ANGDIR
 70
     0
  9
$PDMODE
 70
     0
  9
$PDSIZE
 40
0.0
  9
$PLINEWID
 40
0.0
  9
$COORDS
 70
     0
  9
$SPLFRAME
 70
     0
  9
$SPLINETYPE
 70
     6
  9
$SPLINESEGS
 70
     8
  9
$ATTDIA
 70
     0
  9
$ATTREQ
 70
     1
  9
$HANDLING
 70
     1
  9
$HANDSEED
  5
36
  9
$SURFTAB1
 70
     6
  9
$SURFTAB2
 70
     6
  9
$SURFTYPE
 70
     6
  9
$SURFU
 70
     6
  9
$SURFV
 70
     6
  9
$UCSNAME
  2

  9
$UCSORG
 10
0.0
 20
0.0
 30
0.0
  9
$UCSXDIR
 10
1.0
 20
0.0
 30
0.0
  9
$UCSYDIR
 10
0.0
 20
1.0
 30
0.0
  9
$PUCSNAME
  2

  9
$PUCSORG
 10
0.0
 20
0.0
 30
0.0
  9
$PUCSXDIR
 10
1.0
 20
0.0
 30
0.0
  9
$PUCSYDIR
 10
0.0
 20
1.0
 30
0.0
  9
$USERI1
 70
     0
  9
$USERI2
 70
     0
  9
$USERI3
 70
     0
  9
$USERI4
 70
     0
  9
$USERI5
 70
     0
  9
$USERR1
 40
0.0
  9
$USERR2
 40
0.0
  9
$USERR3
 40
0.0
  9
$USERR4
 40
0.0
  9
$USERR5
 40
0.0
  9
$WORLDVIEW
 70
     1
  9
$SHADEDGE
 70
     3
  9
$SHADEDIF
 70
    70
  9
$TILEMODE
 70
     1
  9
$MAXACTVP
 70
    16
  9
$PINSBASE
 10
0.0
 20
0.0
 30
0.0
  9
$PLIMCHECK
 70
     0
  9
$PEXTMIN
 10
1.000000E+20
 20
1.000000E+20
 30
1.000000E+20
  9
$PEXTMAX
 10
-1.000000E+20
 20
-1.000000E+20
 30
-1.000000E+20
  9
$PLIMMIN
 10
0.0
 20
0.0
  9
$PLIMMAX
 10
12.0
 20
9.0
  9
$UNITMODE
 70
     0
  9
$VISRETAIN
 70
     0
  9
$PLINEGEN
 70
     1
  9
$PSLTSCALE
 70
     0
  9
$TREEDEPTH
 70
  3020
  9
$PICKSTYLE
 70
     1
  9
$CMLSTYLE
  2
STANDARD
  9
$CMLJUST
 70
     0
  9
$CMLSCALE
 40
1.0
  9
$PROXYGRAPHICS
 70
     0
  9
$MEASUREMENT
 70
     0
  0
ENDSEC
  0
SECTION
  2
CLASSES
  0
CLASS
  1
LWPOLYLINE
  2
AcDbPolyline
  3
"AutoCAD"
 90
        0
280
     0
281
     1
  0
CLASS
  1
IMAGE
  2
AcDbRasterImage
  3
ISM
 90
      127
280
     0
281
     1
  0
CLASS
  1
OLE2FRAME
  2
AcDbOle2Frame
  3
""
 90
        0
280
     0
281
     1
  0
CLASS
  1
HATCH
  2
AcDbHatch
  3
"ACAD_SEDONA"
 90
        0
280
     0
281
     1
  0
CLASS
  1
DICTIONARYVAR
  2
AcDbDictionaryVar
  3
"AutoCAD"
 90
        0
280
     0
281
     0
  0
CLASS
  1
RASTERVARIABLES
  2
AcDbRasterVariables
  3
ISM
 90
        0
280
     0
281
     0
  0
CLASS
  1
IMAGEDEF
  2
AcDbRasterImageDef
  3
ISM
 90
        0
280
     0
281
     0
  0
CLASS
  1
IMAGEDEF_REACTOR
  2
AcDbRasterImageDefReactor
  3
ISM
 90
        1
280
     0
281
     0
  0
CLASS
  1
IDBUFFER
  2
AcDbIdBuffer
  3
"Acad"
 90
        0
280
     0
281
     0
  0
CLASS
  1
SPATIAL_FILTER
  2
AcDbSpatialFilter
  3
"Acad"
 90
        0
280
     0
281
     0
  0
CLASS
  1
XRECORD
  2
AcDbXrecord
  3
"<Built In>"
 90
        0
280
     0
281
     0
  0
CLASS
  1
SORTENTSTABLE
  2
AcDbSortentsTable
  3
"AutoCAD"
 90
        0
280
     0
281
     0
  0
CLASS
  1
LAYER_INDEX
  2
AcDbLayerIndex
  3
"Acad"
 90
        0
280
     0
281
     0
  0
CLASS
  1
SPATIAL_INDEX
  2
AcDbSpatialIndex
  3
"Acad"
 90
        0
280
     0
281
     0
  0
CLASS
  1
OBJECT_PTR
  2
CAseDLPNTableRecord
  3
"ASE-LPNTableRecord"
 90
        1
280
     0
281
     0
  0
CLASS
  1
LAYOUT
  2
AcDbLayout
  3
"AutoCAD 2000"
 90
        1
280
     0
281
     0
  0
CLASS
  1
PLOTSETTINGS
  2
AcDbPlotSettings
  3
"AutoCAD 2000"
 90
        1
280
     0
281
     0
  0
CLASS
  1
ACDBDICTIONARYWDFLT
  2
AcDbDictionaryWithDefault
  3
"AutoCAD 2000"
 90
        1
280
     0
281
     0
  0
CLASS
  1
ACDBPLACEHOLDER
  2
AcDbPlaceHolder
  3
"AutoCAD 2000"
 90
        1
280
     0
281
     0
  0
CLASS
  1
VBA_PROJECT
  2
AcDbVbaProject
  3
"acadvba"
 90
        1
280
     0
281
     0
  0
CLASS
  1
WIPEOUT
  2
AcDbWipeout
  3
WipeOut|AutoCAD Express Tool|expresstools@autodesk.com
 90
      127
280
     0
281
     1
  0
CLASS
  1
WIPEOUTVARIABLES
  2
AcDbWipeoutVariables
  3
WipeOut|AutoCAD Express Tool|expresstools@autodesk.com
 90
        0
280
     0
281
     0
  0
CLASS
  1
RTEXT
  2
RText
  3
RText|AutoCAD Express Tool|expresstools@autodesk.com
 90
        0
280
     0
281
     1
  0
CLASS
  1
ARCALIGNEDTEXT
  2
AcDbArcAlignedText
  3
ATEXT|AutoCAD Express Tool|expresstools@autodesk.com
 90
        0
280
     0
281
     1
  0
ENDSEC
  0
SECTION
  2
TABLES
  0
TABLE
  2
VPORT
  5
7
100
AcDbSymbolTable
 70
     1
  0
VPORT
  5
15
100
AcDbSymbolTableRecord
100
AcDbViewportTableRecord
  2
*ACTIVE
 70
     0
 10
0.0
 20
0.0
 11
1.0
 21
1.0
 12
6.591288
 22
4.579184
 13
0.0
 23
0.0
 14
1.0
 24
1.0
 15
0.0
 25
0.0
 16
0.0
 26
0.0
 36
1.0
 17
0.0
 27
0.0
 37
0.0
 40
9.158369
 41
0.688564
 42
50.0
 43
0.0
 44
0.0
 50
0.0
 51
0.0
 71
     0
 72
   100
 73
     1
 74
     1
 75
     0
 76
     0
 77
     0
 78
     0
  0
ENDTAB
  0
TABLE
  2
LTYPE
  5
4
100
AcDbSymbolTable
 70
     3
  0
LTYPE
  5
11
100
AcDbSymbolTableRecord
100
AcDbLinetypeTableRecord
  2
BYBLOCK
 70
    64
  3

 72
    65
 73
     0
 40
0.0
  0
LTYPE
  5
12
100
AcDbSymbolTableRecord
100
AcDbLinetypeTableRecord
  2
BYLAYER
 70
    64
  3

 72
    65
 73
     0
 40
0.0
  0
LTYPE
  5
13
100
AcDbSymbolTableRecord
100
AcDbLinetypeTableRecord
  2
CONTINUOUS
 70
    64
  3
Solid line
 72
    65
 73
     0
 40
0.0
  0
ENDTAB
  0
TABLE
  2
LAYER
  5
2
100
AcDbSymbolTable
 70
     3
  0
LAYER
  5
14
100
AcDbSymbolTableRecord
100
AcDbLayerTableRecord
  2
0
 70
     0
 62
     7
  6
CONTINUOUS
  0
LAYER
  5
24
100
AcDbSymbolTableRecord
100
AcDbLayerTableRecord
  2
KONSTRUKTION
 70
     0
 62
     7
  6
CONTINUOUS
  0
LAYER
  5
31
100
AcDbSymbolTableRecord
100
AcDbLayerTableRecord
  2
BEFESTIGUNG
 70
     0
 62
     7
  6
CONTINUOUS
  0
ENDTAB
  0
TABLE
  2
STYLE
  5
3
100
AcDbSymbolTable
 70
     1
  0
STYLE
  5
17
100
AcDbSymbolTableRecord
100
AcDbTextStyleTableRecord
  2
STANDARD
 70
     0
 40
0.0
 41
1.0
 50
0.0
 71
     0
 42
0.0
  3
txt
  4

  0
ENDTAB
  0
TABLE
  2
VIEW
  5
5
100
AcDbSymbolTable
 70
     0
  0
ENDTAB
  0
TABLE
  2
UCS
  5
6
100
AcDbSymbolTable
 70
     0
  0
ENDTAB
  0
TABLE
  2
APPID
  5
8
100
AcDbSymbolTable
 70
     1
  0
APPID
  5
16
100
AcDbSymbolTableRecord
100
AcDbRegAppTableRecord
  2
ACAD
 70
     0
  0
ENDTAB
  0
TABLE
  2
DIMSTYLE
  5
9
100
AcDbSymbolTable
 70
     1
  0
DIMSTYLE
105
18
100
AcDbSymbolTableRecord
100
AcDbDimStyleTableRecord
  2
STANDARD
 70
     0
  3

  4

  5

  6

  7

 40
1.0
 41
0.18
 42
0.0625
 43
0.38
 44
0.18
 45
0.0
 46
0.0
 47
0.0
 48
0.0
 71
     0
 72
     0
 73
     1
 74
     1
 75
     0
 76
     0
 77
     0
 78
     0
140
0.18
141
0.09
142
0.0
143
25.4
144
1.0
145
0.0
146
1.0
147
0.09
170
     0
171
     2
172
     0
173
     0
174
     0
175
     0
176
     0
177
     0
178
     0
270
     2
271
     4
272
     4
273
     2
274
     2
275
     0
280
     0
281
     0
282
     0
283
     1
284
     0
285
     0
286
     0
287
     0
288
     0
340
17
  0
ENDTAB
  0
TABLE
  2
BLOCK_RECORD
  5
1
100
AcDbSymbolTable
 70
     0
  0
BLOCK_RECORD
  5
A
100
AcDbSymbolTableRecord
100
AcDbBlockTableRecord
  2
*MODEL_SPACE
  0
BLOCK_RECORD
  5
B
100
AcDbSymbolTableRecord
100
AcDbBlockTableRecord
  2
*PAPER_SPACE
  0
ENDTAB
  0
ENDSEC
  0
SECTION
  2
BLOCKS
  0
BLOCK
  5
D
100
AcDbEntity
  8
0
100
AcDbBlockBegin
  2
*MODEL_SPACE
 70
     0
 10
0.0
 20
0.0
 30
0.0
  3
*MODEL_SPACE
  1

  0
ENDBLK
  5
E
100
AcDbEntity
  8
0
100
AcDbBlockEnd
  0
BLOCK
  5
F
100
AcDbEntity
 67
     1
  8
0
100
AcDbBlockBegin
  2
*PAPER_SPACE
 70
     0
 10
0.0
 20
0.0
 30
0.0
  3
*PAPER_SPACE
  1

  0
ENDBLK
  5
10
100
AcDbEntity
 67
     1
  8
0
100
AcDbBlockEnd
  0
ENDSEC
  0
SECTION
  2
ENTITIES
  0
SPLINE
  5
25
100
AcDbEntity
  8
KONSTRUKTION
100
AcDbSpline
210
0.0
220
0.0
230
1.0
 70
     1
 71
     3
 72
    44
 73
    40
 74
     0
 42
0.0000000001
 43
0.0000000001
 40
0.0
 40
0.0
 40
0.0
 40
0.0
 40
0.1
 40
0.1
 40
0.1
 40
0.1
 40
0.2
 40
0.2
 40
0.2
 40
0.2
 40
0.3
 40
0.3
 40
0.3
 40
0.3
 40
0.4
 40
0.4
 40
0.4
 40
0.4
 40
0.5
 40
0.5
 40
0.5
 40
0.5
 40
0.6
 40
0.6
 40
0.6
 40
0.6
 40
0.7
 40
0.7
 40
0.7
 40
0.7
 40
0.7999999999999999
 40
0.7999999999999999
 40
0.7999999999999999
 40
0.7999999999999999
 40
0.8999999999999999
 40
0.8999999999999999
 40
0.8999999999999999
 40
0.8999999999999999
 40
1.0
 40
1.0
 40
1.0
 40
1.0
 10
-47.332000000000001
 20
-140.32490000000001
 30
0.0
 10
-53.355699999999999
 20
-145.1249
 30
0.0
 10
-60.976700000000001
 20
-147.99969999999999
 30
0.0
 10
-69.248500000000007
 20
-148.0
 30
0.0
 10
-69.248500000000007
 20
-148.0
 30
0.0
 10
-69.248500000000007
 20
-148.0
 30
0.0
 10
-69.25
 20
-148.0
 30
0.0
 10
-69.25
 20
-148.0
 30
0.0
 10
-69.25
 20
-148.0
 30
0.0
 10
-69.25
 20
-148.0
 30
0.0
 10
-69.250699999999995
 20
-148.0
 30
0.0
 10
-69.250699999999995
 20
-148.0
 30
0.0
 10
-69.250699999999995
 20
-148.0
 30
0.0
 10
-77.522900000000007
 20
-147.99979999999999
 30
0.0
 10
-85.144199999999998
 20
-145.1251
 30
0.0
 10
-91.168000000000006
 20
-140.32490000000001
 30
0.0
 10
-91.168000000000006
 20
-140.32490000000001
 30
0.0
 10
-91.168000000000006
 20
-140.32490000000001
 30
0.0
 10
-88.675899999999999
 20
-137.83279999999999
 30
0.0
 10
-88.675899999999999
 20
-137.83279999999999
 30
0.0
 10
-88.675899999999999
 20
-137.83279999999999
 30
0.0
 10
-83.299999999999997
 20
-142.0085
 30
0.0
 10
-76.556799999999996
 20
-144.4999
 30
0.0
 10
-69.250699999999995
 20
-144.5
 30
0.0
 10
-69.250699999999995
 20
-144.5
 30
0.0
 10
-69.250699999999995
 20
-144.5
 30
0.0
 10
-69.25
 20
-144.5
 30
0.0
 10
-69.25
 20
-144.5
 30
0.0
 10
-69.25
 20
-144.5
 30
0.0
 10
-69.25
 20
-144.5
 30
0.0
 10
-69.248500000000007
 20
-144.5
 30
0.0
 10
-69.248500000000007
 20
-144.5
 30
0.0
 10
-69.248500000000007
 20
-144.5
 30
0.0
 10
-61.942700000000002
 20
-144.49969999999999
 30
0.0
 10
-55.1999
 20
-142.0085
 30
0.0
 10
-49.824100000000001
 20
-137.83279999999999
 30
0.0
 10
-49.824100000000001
 20
-137.83279999999999
 30
0.0
 10
-49.824100000000001
 20
-137.83279999999999
 30
0.0
 10
-47.332000000000001
 20
-140.32490000000001
 30
0.0
 10
-47.332000000000001
 20
-140.32490000000001
 30
0.0
  0
SPLINE
  5
26
100
AcDbEntity
  8
KONSTRUKTION
100
AcDbSpline
210
0.0
220
0.0
230
1.0
 70
     1
 71
     3
 72
    44
 73
    40
 74
     0
 42
0.0000000001
 43
0.0000000001
 40
0.0
 40
0.0
 40
0.0
 40
0.0
 40
0.1
 40
0.1
 40
0.1
 40
0.1
 40
0.2
 40
0.2
 40
0.2
 40
0.2
 40
0.3
 40
0.3
 40
0.3
 40
0.3
 40
0.4
 40
0.4
 40
0.4
 40
0.4
 40
0.5
 40
0.5
 40
0.5
 40
0.5
 40
0.6
 40
0.6
 40
0.6
 40
0.6
 40
0.7
 40
0.7
 40
0.7
 40
0.7
 40
0.7999999999999999
 40
0.7999999999999999
 40
0.7999999999999999
 40
0.7999999999999999
 40
0.8999999999999999
 40
0.8999999999999999
 40
0.8999999999999999
 40
0.8999999999999999
 40
1.0
 40
1.0
 40
1.0
 40
1.0
 10
-41.674799999999998
 20
-90.831699999999998
 30
0.0
 10
-36.874899999999997
 20
-96.855400000000003
 30
0.0
 10
-34.000300000000003
 20
-104.4768
 30
0.0
 10
-34.0
 20
-112.74850000000001
 30
0.0
 10
-34.0
 20
-112.74850000000001
 30
0.0
 10
-34.0
 20
-112.74850000000001
 30
0.0
 10
-34.0
 20
-112.75
 30
0.0
 10
-34.0
 20
-112.75
 30
0.0
 10
-34.0
 20
-112.75
 30
0.0
 10
-34.0
 20
-112.75
 30
0.0
 10
-34.0
 20
-112.75069999999999
 30
0.0
 10
-34.0
 20
-112.75069999999999
 30
0.0
 10
-34.0
 20
-112.75069999999999
 30
0.0
 10
-34.0002
 20
-121.02290000000001
 30
0.0
 10
-36.8748
 20
-128.64429999999999
 30
0.0
 10
-41.674999999999997
 20
-134.66810000000001
 30
0.0
 10
-41.674999999999997
 20
-134.66810000000001
 30
0.0
 10
-41.674999999999997
 20
-134.66810000000001
 30
0.0
 10
-44.167200000000001
 20
-132.17590000000001
 30
0.0
 10
-44.167200000000001
 20
-132.17590000000001
 30
0.0
 10
-44.167200000000001
 20
-132.17590000000001
 30
0.0
 10
-39.991399999999999
 20
-126.8
 30
0.0
 10
-37.500100000000003
 20
-120.05670000000001
 30
0.0
 10
-37.5
 20
-112.75069999999999
 30
0.0
 10
-37.5
 20
-112.75069999999999
 30
0.0
 10
-37.5
 20
-112.75069999999999
 30
0.0
 10
-37.5
 20
-112.75
 30
0.0
 10
-37.5
 20
-112.75
 30
0.0
 10
-37.5
 20
-112.75
 30
0.0
 10
-37.5
 20
-112.75
 30
0.0
 10
-37.5
 20
-112.74850000000001
 30
0.0
 10
-37.5
 20
-112.74850000000001
 30
0.0
 10
-37.5
 20
-112.74850000000001
 30
0.0
 10
-37.500300000000003
 20
-105.443
 30
0.0
 10
-39.991599999999998
 20
-98.6995
 30
0.0
 10
-44.167000000000002
 20
-93.323899999999995
 30
0.0
 10
-44.167000000000002
 20
-93.323899999999995
 30
0.0
 10
-44.167000000000002
 20
-93.323899999999995
 30
0.0
 10
-41.674799999999998
 20
-90.831699999999998
 30
0.0
 10
-41.674799999999998
 20
-90.831699999999998
 30
0.0
  0
SPLINE
  5
27
100
AcDbEntity
  8
KONSTRUKTION
100
AcDbSpline
210
0.0
220
0.0
230
1.0
 70
     1
 71
     3
 72
    44
 73
    40
 74
     0
 42
0.0000000001
 43
0.0000000001
 40
0.0
 40
0.0
 40
0.0
 40
0.0
 40
0.1
 40
0.1
 40
0.1
 40
0.1
 40
0.2
 40
0.2
 40
0.2
 40
0.2
 40
0.3
 40
0.3
 40
0.3
 40
0.3
 40
0.4
 40
0.4
 40
0.4
 40
0.4
 40
0.5
 40
0.5
 40
0.5
 40
0.5
 40
0.6
 40
0.6
 40
0.6
 40
0.6
 40
0.7
 40
0.7
 40
0.7
 40
0.7
 40
0.7999999999999999
 40
0.7999999999999999
 40
0.7999999999999999
 40
0.7999999999999999
 40
0.8999999999999999
 40
0.8999999999999999
 40
0.8999999999999999
 40
0.8999999999999999
 40
1.0
 40
1.0
 40
1.0
 40
1.0
 10
-94.333100000000002
 20
-93.323800000000006
 30
0.0
 10
-98.508700000000005
 20
-98.699700000000007
 30
0.0
 10
-100.9999
 20
-105.4434
 30
0.0
 10
-101.0
 20
-112.74930000000001
 30
0.0
 10
-101.0
 20
-112.74930000000001
 30
0.0
 10
-101.0
 20
-112.74930000000001
 30
0.0
 10
-101.0
 20
-112.75
 30
0.0
 10
-101.0
 20
-112.75
 30
0.0
 10
-101.0
 20
-112.75
 30
0.0
 10
-101.0
 20
-112.75
 30
0.0
 10
-101.0
 20
-112.75149999999999
 30
0.0
 10
-101.0
 20
-112.75149999999999
 30
0.0
 10
-101.0
 20
-112.75149999999999
 30
0.0
 10
-100.9997
 20
-120.0573
 30
0.0
 10
-98.508300000000006
 20
-126.8002
 30
0.0
 10
-94.332800000000006
 20
-132.17590000000001
 30
0.0
 10
-94.332800000000006
 20
-132.17590000000001
 30
0.0
 10
-94.332800000000006
 20
-132.17590000000001
 30
0.0
 10
-96.8249
 20
-134.66800000000001
 30
0.0
 10
-96.8249
 20
-134.66800000000001
 30
0.0
 10
-96.8249
 20
-134.66800000000001
 30
0.0
 10
-101.6249
 20
-128.64439999999999
 30
0.0
 10
-104.4997
 20
-121.0234
 30
0.0
 10
-104.5
 20
-112.75149999999999
 30
0.0
 10
-104.5
 20
-112.75149999999999
 30
0.0
 10
-104.5
 20
-112.75149999999999
 30
0.0
 10
-104.5
 20
-112.75
 30
0.0
 10
-104.5
 20
-112.75
 30
0.0
 10
-104.5
 20
-112.75
 30
0.0
 10
-104.5
 20
-112.75
 30
0.0
 10
-104.5
 20
-112.74930000000001
 30
0.0
 10
-104.5
 20
-112.74930000000001
 30
0.0
 10
-104.5
 20
-112.74930000000001
 30
0.0
 10
-104.49979999999999
 20
-104.4773
 30
0.0
 10
-101.62520000000001
 20
-96.855500000000006
 30
0.0
 10
-96.825199999999995
 20
-90.831699999999998
 30
0.0
 10
-96.825199999999995
 20
-90.831699999999998
 30
0.0
 10
-96.825199999999995
 20
-90.831699999999998
 30
0.0
 10
-94.333100000000002
 20
-93.323800000000006
 30
0.0
 10
-94.333100000000002
 20
-93.323800000000006
 30
0.0
  0
SPLINE
  5
28
100
AcDbEntity
  8
KONSTRUKTION
100
AcDbSpline
210
0.0
220
0.0
230
1.0
 70
     1
 71
     3
 72
    44
 73
    40
 74
     0
 42
0.0000000001
 43
0.0000000001
 40
0.0
 40
0.0
 40
0.0
 40
0.0
 40
0.1
 40
0.1
 40
0.1
 40
0.1
 40
0.2
 40
0.2
 40
0.2
 40
0.2
 40
0.3
 40
0.3
 40
0.3
 40
0.3
 40
0.4
 40
0.4
 40
0.4
 40
0.4
 40
0.5
 40
0.5
 40
0.5
 40
0.5
 40
0.6
 40
0.6
 40
0.6
 40
0.6
 40
0.7
 40
0.7
 40
0.7
 40
0.7
 40
0.7999999999999999
 40
0.7999999999999999
 40
0.7999999999999999
 40
0.7999999999999999
 40
0.8999999999999999
 40
0.8999999999999999
 40
0.8999999999999999
 40
0.8999999999999999
 40
1.0
 40
1.0
 40
1.0
 40
1.0
 10
-69.25
 20
-77.5
 30
0.0
 10
-69.25
 20
-77.5
 30
0.0
 10
-69.249300000000005
 20
-77.5
 30
0.0
 10
-69.249300000000005
 20
-77.5
 30
0.0
 10
-69.249300000000005
 20
-77.5
 30
0.0
 10
-60.976999999999997
 20
-77.500200000000007
 30
0.0
 10
-53.355600000000003
 20
-80.374499999999998
 30
0.0
 10
-47.331699999999998
 20
-85.174800000000005
 30
0.0
 10
-47.331699999999998
 20
-85.174800000000005
 30
0.0
 10
-47.331699999999998
 20
-85.174800000000005
 30
0.0
 10
-49.823900000000002
 20
-87.667000000000002
 30
0.0
 10
-49.823900000000002
 20
-87.667000000000002
 30
0.0
 10
-49.823900000000002
 20
-87.667000000000002
 30
0.0
 10
-55.199800000000003
 20
-83.491200000000006
 30
0.0
 10
-61.943199999999997
 20
-81.000100000000003
 30
0.0
 10
-69.249300000000005
 20
-81.0
 30
0.0
 10
-69.249300000000005
 20
-81.0
 30
0.0
 10
-69.249300000000005
 20
-81.0
 30
0.0
 10
-69.25
 20
-81.0
 30
0.0
 10
-69.25
 20
-81.0
 30
0.0
 10
-69.25
 20
-81.0
 30
0.0
 10
-69.25
 20
-81.0
 30
0.0
 10
-69.251499999999993
 20
-81.0
 30
0.0
 10
-69.251499999999993
 20
-81.0
 30
0.0
 10
-69.251499999999993
 20
-81.0
 30
0.0
 10
-76.557400000000001
 20
-81.000299999999996
 30
0.0
 10
-83.300399999999996
 20
-83.491200000000006
 30
0.0
 10
-88.676100000000005
 20
-87.667000000000002
 30
0.0
 10
-88.676100000000005
 20
-87.667000000000002
 30
0.0
 10
-88.676100000000005
 20
-87.667000000000002
 30
0.0
 10
-91.168300000000002
 20
-85.174800000000005
 30
0.0
 10
-91.168300000000002
 20
-85.174800000000005
 30
0.0
 10
-91.168300000000002
 20
-85.174800000000005
 30
0.0
 10
-85.1447
 20
-80.374600000000001
 30
0.0
 10
-77.523600000000002
 20
-77.500299999999996
 30
0.0
 10
-69.251499999999993
 20
-77.5
 30
0.0
 10
-69.251499999999993
 20
-77.5
 30
0.0
 10
-69.251499999999993
 20
-77.5
 30
0.0
 10
-69.25
 20
-77.5
 30
0.0
 10
-69.25
 20
-77.5
 30
0.0
  0
SPLINE
  5
29
100
AcDbEntity
  8
KONSTRUKTION
100
AcDbSpline
210
0.0
220
0.0
230
1.0
 70
     1
 71
     3
 72
    44
 73
    40
 74
     0
 42
0.0000000001
 43
0.0000000001
 40
0.0
 40
0.0
 40
0.0
 40
0.0
 40
0.1
 40
0.1
 40
0.1
 40
0.1
 40
0.2
 40
0.2
 40
0.2
 40
0.2
 40
0.3
 40
0.3
 40
0.3
 40
0.3
 40
0.4
 40
0.4
 40
0.4
 40
0.4
 40
0.5
 40
0.5
 40
0.5
 40
0.5
 40
0.6
 40
0.6
 40
0.6
 40
0.6
 40
0.7
 40
0.7
 40
0.7
 40
0.7
 40
0.7999999999999999
 40
0.7999999999999999
 40
0.7999999999999999
 40
0.7999999999999999
 40
0.8999999999999999
 40
0.8999999999999999
 40
0.8999999999999999
 40
0.8999999999999999
 40
1.0
 40
1.0
 40
1.0
 40
1.0
 10
-52.674100000000003
 20
-134.9828
 30
0.0
 10
-57.303800000000003
 20
-138.4453
 30
0.0
 10
-63.043700000000001
 20
-140.49969999999999
 30
0.0
 10
-69.248500000000007
 20
-140.5
 30
0.0
 10
-69.248500000000007
 20
-140.5
 30
0.0
 10
-69.248500000000007
 20
-140.5
 30
0.0
 10
-69.25
 20
-140.5
 30
0.0
 10
-69.25
 20
-140.5
 30
0.0
 10
-69.25
 20
-140.5
 30
0.0
 10
-69.25
 20
-140.5
 30
0.0
 10
-69.250699999999995
 20
-140.5
 30
0.0
 10
-69.250699999999995
 20
-140.5
 30
0.0
 10
-69.250699999999995
 20
-140.5
 30
0.0
 10
-75.455799999999996
 20
-140.49979999999999
 30
0.0
 10
-81.195999999999998
 20
-138.44560000000001
 30
0.0
 10
-85.825999999999993
 20
-134.9829
 30
0.0
 10
-85.825999999999993
 20
-134.9829
 30
0.0
 10
-85.825999999999993
 20
-134.9829
 30
0.0
 10
-83.321600000000004
 20
-132.4785
 30
0.0
 10
-83.321600000000004
 20
-132.4785
 30
0.0
 10
-83.321600000000004
 20
-132.4785
 30
0.0
 10
-79.3489
 20
-135.3227
 30
0.0
 10
-74.489199999999997
 20
-136.9999
 30
0.0
 10
-69.250699999999995
 20
-137.0
 30
0.0
 10
-69.250699999999995
 20
-137.0
 30
0.0
 10
-69.250699999999995
 20
-137.0
 30
0.0
 10
-69.25
 20
-137.0
 30
0.0
 10
-69.25
 20
-137.0
 30
0.0
 10
-69.25
 20
-137.0
 30
0.0
 10
-69.25
 20
-137.0
 30
0.0
 10
-69.248500000000007
 20
-137.0
 30
0.0
 10
-69.248500000000007
 20
-137.0
 30
0.0
 10
-69.248500000000007
 20
-137.0
 30
0.0
 10
-64.010400000000004
 20
-136.99979999999999
 30
0.0
 10
-59.150799999999997
 20
-135.32259999999999
 30
0.0
 10
-55.178400000000003
 20
-132.4785
 30
0.0
 10
-55.178400000000003
 20
-132.4785
 30
0.0
 10
-55.178400000000003
 20
-132.4785
 30
0.0
 10
-52.674100000000003
 20
-134.9828
 30
0.0
 10
-52.674100000000003
 20
-134.9828
 30
0.0
  0
SPLINE
  5
2A
100
AcDbEntity
  8
KONSTRUKTION
100
AcDbSpline
210
0.0
220
0.0
230
1.0
 70
     1
 71
     3
 72
    44
 73
    40
 74
     0
 42
0.0000000001
 43
0.0000000001
 40
0.0
 40
0.0
 40
0.0
 40
0.0
 40
0.1
 40
0.1
 40
0.1
 40
0.1
 40
0.2
 40
0.2
 40
0.2
 40
0.2
 40
0.3
 40
0.3
 40
0.3
 40
0.3
 40
0.4
 40
0.4
 40
0.4
 40
0.4
 40
0.5
 40
0.5
 40
0.5
 40
0.5
 40
0.6
 40
0.6
 40
0.6
 40
0.6
 40
0.7
 40
0.7
 40
0.7
 40
0.7
 40
0.7999999999999999
 40
0.7999999999999999
 40
0.7999999999999999
 40
0.7999999999999999
 40
0.8999999999999999
 40
0.8999999999999999
 40
0.8999999999999999
 40
0.8999999999999999
 40
1.0
 40
1.0
 40
1.0
 40
1.0
 10
-47.017000000000003
 20
-96.173900000000003
 30
0.0
 10
-43.554499999999997
 20
-100.8036
 30
0.0
 10
-41.500300000000003
 20
-106.5438
 30
0.0
 10
-41.5
 20
-112.74850000000001
 30
0.0
 10
-41.5
 20
-112.74850000000001
 30
0.0
 10
-41.5
 20
-112.74850000000001
 30
0.0
 10
-41.5
 20
-112.75
 30
0.0
 10
-41.5
 20
-112.75
 30
0.0
 10
-41.5
 20
-112.75
 30
0.0
 10
-41.5
 20
-112.75
 30
0.0
 10
-41.5
 20
-112.75069999999999
 30
0.0
 10
-41.5
 20
-112.75069999999999
 30
0.0
 10
-41.5
 20
-112.75069999999999
 30
0.0
 10
-41.5002
 20
-118.9559
 30
0.0
 10
-43.554600000000001
 20
-124.696
 30
0.0
 10
-47.017200000000003
 20
-129.32589999999999
 30
0.0
 10
-47.017200000000003
 20
-129.32589999999999
 30
0.0
 10
-47.017200000000003
 20
-129.32589999999999
 30
0.0
 10
-49.521500000000003
 20
-126.8216
 30
0.0
 10
-49.521500000000003
 20
-126.8216
 30
0.0
 10
-49.521500000000003
 20
-126.8216
 30
0.0
 10
-46.677399999999999
 20
-122.849
 30
0.0
 10
-45.000100000000003
 20
-117.9892
 30
0.0
 10
-45.0
 20
-112.75069999999999
 30
0.0
 10
-45.0
 20
-112.75069999999999
 30
0.0
 10
-45.0
 20
-112.75069999999999
 30
0.0
 10
-45.0
 20
-112.75
 30
0.0
 10
-45.0
 20
-112.75
 30
0.0
 10
-45.0
 20
-112.75
 30
0.0
 10
-45.0
 20
-112.75
 30
0.0
 10
-45.0
 20
-112.74850000000001
 30
0.0
 10
-45.0
 20
-112.74850000000001
 30
0.0
 10
-45.0
 20
-112.74850000000001
 30
0.0
 10
-45.0002
 20
-107.51049999999999
 30
0.0
 10
-46.677300000000002
 20
-102.6506
 30
0.0
 10
-49.521299999999997
 20
-98.678200000000004
 30
0.0
 10
-49.521299999999997
 20
-98.678200000000004
 30
0.0
 10
-49.521299999999997
 20
-98.678200000000004
 30
0.0
 10
-47.017000000000003
 20
-96.173900000000003
 30
0.0
 10
-47.017000000000003
 20
-96.173900000000003
 30
0.0
  0
SPLINE
  5
2B
100
AcDbEntity
  8
KONSTRUKTION
100
AcDbSpline
210
0.0
220
0.0
230
1.0
 70
     1
 71
     3
 72
    44
 73
    40
 74
     0
 42
0.0000000001
 43
0.0000000001
 40
0.0
 40
0.0
 40
0.0
 40
0.0
 40
0.1
 40
0.1
 40
0.1
 40
0.1
 40
0.2
 40
0.2
 40
0.2
 40
0.2
 40
0.3
 40
0.3
 40
0.3
 40
0.3
 40
0.4
 40
0.4
 40
0.4
 40
0.4
 40
0.5
 40
0.5
 40
0.5
 40
0.5
 40
0.6
 40
0.6
 40
0.6
 40
0.6
 40
0.7
 40
0.7
 40
0.7
 40
0.7
 40
0.7999999999999999
 40
0.7999999999999999
 40
0.7999999999999999
 40
0.7999999999999999
 40
0.8999999999999999
 40
0.8999999999999999
 40
0.8999999999999999
 40
0.8999999999999999
 40
1.0
 40
1.0
 40
1.0
 40
1.0
 10
-88.978700000000003
 20
-98.678200000000004
 30
0.0
 10
-91.822699999999998
 20
-102.6508
 30
0.0
 10
-93.499899999999997
 20
-107.511
 30
0.0
 10
-93.5
 20
-112.74930000000001
 30
0.0
 10
-93.5
 20
-112.74930000000001
 30
0.0
 10
-93.5
 20
-112.74930000000001
 30
0.0
 10
-93.5
 20
-112.75
 30
0.0
 10
-93.5
 20
-112.75
 30
0.0
 10
-93.5
 20
-112.75
 30
0.0
 10
-93.5
 20
-112.75
 30
0.0
 10
-93.5
 20
-112.75149999999999
 30
0.0
 10
-93.5
 20
-112.75149999999999
 30
0.0
 10
-93.5
 20
-112.75149999999999
 30
0.0
 10
-93.499799999999993
 20
-117.9897
 30
0.0
 10
-91.822599999999994
 20
-122.84910000000001
 30
0.0
 10
-88.978499999999997
 20
-126.8216
 30
0.0
 10
-88.978499999999997
 20
-126.8216
 30
0.0
 10
-88.978499999999997
 20
-126.8216
 30
0.0
 10
-91.482799999999997
 20
-129.32589999999999
 30
0.0
 10
-91.482799999999997
 20
-129.32589999999999
 30
0.0
 10
-91.482799999999997
 20
-129.32589999999999
 30
0.0
 10
-94.945300000000003
 20
-124.6962
 30
0.0
 10
-96.999700000000004
 20
-118.9563
 30
0.0
 10
-97.0
 20
-112.75149999999999
 30
0.0
 10
-97.0
 20
-112.75149999999999
 30
0.0
 10
-97.0
 20
-112.75149999999999
 30
0.0
 10
-97.0
 20
-112.75
 30
0.0
 10
-97.0
 20
-112.75
 30
0.0
 10
-97.0
 20
-112.75
 30
0.0
 10
-97.0
 20
-112.75
 30
0.0
 10
-97.0
 20
-112.74930000000001
 30
0.0
 10
-97.0
 20
-112.74930000000001
 30
0.0
 10
-97.0
 20
-112.74930000000001
 30
0.0
 10
-96.999799999999993
 20
-106.54430000000001
 30
0.0
 10
-94.945599999999999
 20
-100.8038
 30
0.0
 10
-91.483000000000004
 20
-96.173900000000003
 30
0.0
 10
-91.483000000000004
 20
-96.173900000000003
 30
0.0
 10
-91.483000000000004
 20
-96.173900000000003
 30
0.0
 10
-88.978700000000003
 20
-98.678200000000004
 30
0.0
 10
-88.978700000000003
 20
-98.678200000000004
 30
0.0
  0
SPLINE
  5
2C
100
AcDbEntity
  8
KONSTRUKTION
100
AcDbSpline
210
0.0
220
0.0
230
1.0
 70
     1
 71
     3
 72
    44
 73
    40
 74
     0
 42
0.0000000001
 43
0.0000000001
 40
0.0
 40
0.0
 40
0.0
 40
0.0
 40
0.1
 40
0.1
 40
0.1
 40
0.1
 40
0.2
 40
0.2
 40
0.2
 40
0.2
 40
0.3
 40
0.3
 40
0.3
 40
0.3
 40
0.4
 40
0.4
 40
0.4
 40
0.4
 40
0.5
 40
0.5
 40
0.5
 40
0.5
 40
0.6
 40
0.6
 40
0.6
 40
0.6
 40
0.7
 40
0.7
 40
0.7
 40
0.7
 40
0.7999999999999999
 40
0.7999999999999999
 40
0.7999999999999999
 40
0.7999999999999999
 40
0.8999999999999999
 40
0.8999999999999999
 40
0.8999999999999999
 40
0.8999999999999999
 40
1.0
 40
1.0
 40
1.0
 40
1.0
 10
-69.25
 20
-85.0
 30
0.0
 10
-69.25
 20
-85.0
 30
0.0
 10
-69.249300000000005
 20
-85.0
 30
0.0
 10
-69.249300000000005
 20
-85.0
 30
0.0
 10
-69.249300000000005
 20
-85.0
 30
0.0
 10
-63.0441
 20
-85.000200000000007
 30
0.0
 10
-57.303899999999999
 20
-87.054299999999998
 30
0.0
 10
-52.673900000000003
 20
-90.516999999999996
 30
0.0
 10
-52.673900000000003
 20
-90.516999999999996
 30
0.0
 10
-52.673900000000003
 20
-90.516999999999996
 30
0.0
 10
-55.178199999999997
 20
-93.021299999999997
 30
0.0
 10
-55.178199999999997
 20
-93.021299999999997
 30
0.0
 10
-55.178199999999997
 20
-93.021299999999997
 30
0.0
 10
-59.150799999999997
 20
-90.176900000000003
 30
0.0
 10
-64.0107
 20
-88.500100000000003
 30
0.0
 10
-69.249300000000005
 20
-88.5
 30
0.0
 10
-69.249300000000005
 20
-88.5
 30
0.0
 10
-69.249300000000005
 20
-88.5
 30
0.0
 10
-69.25
 20
-88.5
 30
0.0
 10
-69.25
 20
-88.5
 30
0.0
 10
-69.25
 20
-88.5
 30
0.0
 10
-69.25
 20
-88.5
 30
0.0
 10
-69.251499999999993
 20
-88.5
 30
0.0
 10
-69.251499999999993
 20
-88.5
 30
0.0
 10
-69.251499999999993
 20
-88.5
 30
0.0
 10
-74.489800000000002
 20
-88.500200000000007
 30
0.0
 10
-79.349400000000003
 20
-90.177000000000007
 30
0.0
 10
-83.321899999999999
 20
-93.021199999999993
 30
0.0
 10
-83.321899999999999
 20
-93.021199999999993
 30
0.0
 10
-83.321899999999999
 20
-93.021199999999993
 30
0.0
 10
-85.8262
 20
-90.516900000000007
 30
0.0
 10
-85.8262
 20
-90.516900000000007
 30
0.0
 10
-85.8262
 20
-90.516900000000007
 30
0.0
 10
-81.196399999999997
 20
-87.054299999999998
 30
0.0
 10
-75.456500000000005
 20
-85.000299999999996
 30
0.0
 10
-69.251499999999993
 20
-85.0
 30
0.0
 10
-69.251499999999993
 20
-85.0
 30
0.0
 10
-69.251499999999993
 20
-85.0
 30
0.0
 10
-69.25
 20
-85.0
 30
0.0
 10
-69.25
 20
-85.0
 30
0.0
  0
SPLINE
  5
2D
100
AcDbEntity
  8
KONSTRUKTION
100
AcDbSpline
210
0.0
220
0.0
230
1.0
 70
     1
 71
     3
 72
    44
 73
    40
 74
     0
 42
0.0000000001
 43
0.0000000001
 40
0.0
 40
0.0
 40
0.0
 40
0.0
 40
0.1
 40
0.1
 40
0.1
 40
0.1
 40
0.2
 40
0.2
 40
0.2
 40
0.2
 40
0.3
 40
0.3
 40
0.3
 40
0.3
 40
0.4
 40
0.4
 40
0.4
 40
0.4
 40
0.5
 40
0.5
 40
0.5
 40
0.5
 40
0.6
 40
0.6
 40
0.6
 40
0.6
 40
0.7
 40
0.7
 40
0.7
 40
0.7
 40
0.7999999999999999
 40
0.7999999999999999
 40
0.7999999999999999
 40
0.7999999999999999
 40
0.8999999999999999
 40
0.8999999999999999
 40
0.8999999999999999
 40
0.8999999999999999
 40
1.0
 40
1.0
 40
1.0
 40
1.0
 10
-57.689700000000002
 20
-129.96719999999999
 30
0.0
 10
-60.996299999999998
 20
-132.1961
 30
0.0
 10
-64.974800000000002
 20
-133.49969999999999
 30
0.0
 10
-69.248500000000007
 20
-133.5
 30
0.0
 10
-69.248500000000007
 20
-133.5
 30
0.0
 10
-69.248500000000007
 20
-133.5
 30
0.0
 10
-69.25
 20
-133.5
 30
0.0
 10
-69.25
 20
-133.5
 30
0.0
 10
-69.25
 20
-133.5
 30
0.0
 10
-69.25
 20
-133.5
 30
0.0
 10
-69.250699999999995
 20
-133.5
 30
0.0
 10
-69.250699999999995
 20
-133.5
 30
0.0
 10
-69.250699999999995
 20
-133.5
 30
0.0
 10
-73.524799999999999
 20
-133.4999
 30
0.0
 10
-77.503699999999995
 20
-132.19640000000001
 30
0.0
 10
-80.810400000000001
 20
-129.96729999999999
 30
0.0
 10
-80.810400000000001
 20
-129.96729999999999
 30
0.0
 10
-80.810400000000001
 20
-129.96729999999999
 30
0.0
 10
-78.2791
 20
-127.43600000000001
 30
0.0
 10
-78.2791
 20
-127.43600000000001
 30
0.0
 10
-78.2791
 20
-127.43600000000001
 30
0.0
 10
-75.649799999999999
 20
-129.06059999999999
 30
0.0
 10
-72.556200000000004
 20
-129.9999
 30
0.0
 10
-69.250699999999995
 20
-130.0
 30
0.0
 10
-69.250699999999995
 20
-130.0
 30
0.0
 10
-69.250699999999995
 20
-130.0
 30
0.0
 10
-69.25
 20
-130.0
 30
0.0
 10
-69.25
 20
-130.0
 30
0.0
 10
-69.25
 20
-130.0
 30
0.0
 10
-69.25
 20
-130.0
 30
0.0
 10
-69.248500000000007
 20
-130.0
 30
0.0
 10
-69.248500000000007
 20
-130.0
 30
0.0
 10
-69.248500000000007
 20
-130.0
 30
0.0
 10
-65.943299999999994
 20
-129.99979999999999
 30
0.0
 10
-62.850200000000001
 20
-129.06039999999999
 30
0.0
 10
-60.220999999999997
 20
-127.4359
 30
0.0
 10
-60.220999999999997
 20
-127.4359
 30
0.0
 10
-60.220999999999997
 20
-127.4359
 30
0.0
 10
-57.689700000000002
 20
-129.96719999999999
 30
0.0
 10
-57.689700000000002
 20
-129.96719999999999
 30
0.0
  0
SPLINE
  5
2E
100
AcDbEntity
  8
KONSTRUKTION
100
AcDbSpline
210
0.0
220
0.0
230
1.0
 70
     1
 71
     3
 72
    44
 73
    40
 74
     0
 42
0.0000000001
 43
0.0000000001
 40
0.0
 40
0.0
 40
0.0
 40
0.0
 40
0.1
 40
0.1
 40
0.1
 40
0.1
 40
0.2
 40
0.2
 40
0.2
 40
0.2
 40
0.3
 40
0.3
 40
0.3
 40
0.3
 40
0.4
 40
0.4
 40
0.4
 40
0.4
 40
0.5
 40
0.5
 40
0.5
 40
0.5
 40
0.6
 40
0.6
 40
0.6
 40
0.6
 40
0.7
 40
0.7
 40
0.7
 40
0.7
 40
0.7999999999999999
 40
0.7999999999999999
 40
0.7999999999999999
 40
0.7999999999999999
 40
0.8999999999999999
 40
0.8999999999999999
 40
0.8999999999999999
 40
0.8999999999999999
 40
1.0
 40
1.0
 40
1.0
 40
1.0
 10
-52.032699999999998
 20
-101.1896
 30
0.0
 10
-49.803800000000003
 20
-104.4962
 30
0.0
 10
-48.500300000000003
 20
-108.47490000000001
 30
0.0
 10
-48.5
 20
-112.74850000000001
 30
0.0
 10
-48.5
 20
-112.74850000000001
 30
0.0
 10
-48.5
 20
-112.74850000000001
 30
0.0
 10
-48.5
 20
-112.75
 30
0.0
 10
-48.5
 20
-112.75
 30
0.0
 10
-48.5
 20
-112.75
 30
0.0
 10
-48.5
 20
-112.75
 30
0.0
 10
-48.5
 20
-112.75069999999999
 30
0.0
 10
-48.5
 20
-112.75069999999999
 30
0.0
 10
-48.5
 20
-112.75069999999999
 30
0.0
 10
-48.500100000000003
 20
-117.0248
 30
0.0
 10
-49.803800000000003
 20
-121.00360000000001
 30
0.0
 10
-52.032800000000002
 20
-124.3103
 30
0.0
 10
-52.032800000000002
 20
-124.3103
 30
0.0
 10
-52.032800000000002
 20
-124.3103
 30
0.0
 10
-54.564100000000003
 20
-121.779
 30
0.0
 10
-54.564100000000003
 20
-121.779
 30
0.0
 10
-54.564100000000003
 20
-121.779
 30
0.0
 10
-52.939500000000002
 20
-119.1498
 30
0.0
 10
-52.000100000000003
 20
-116.0562
 30
0.0
 10
-52.0
 20
-112.75069999999999
 30
0.0
 10
-52.0
 20
-112.75069999999999
 30
0.0
 10
-52.0
 20
-112.75069999999999
 30
0.0
 10
-52.0
 20
-112.75
 30
0.0
 10
-52.0
 20
-112.75
 30
0.0
 10
-52.0
 20
-112.75
 30
0.0
 10
-52.0
 20
-112.75
 30
0.0
 10
-52.0
 20
-112.74850000000001
 30
0.0
 10
-52.0
 20
-112.74850000000001
 30
0.0
 10
-52.0
 20
-112.74850000000001
 30
0.0
 10
-52.0002
 20
-109.4435
 30
0.0
 10
-52.939399999999999
 20
-106.3497
 30
0.0
 10
-54.563800000000001
 20
-103.72069999999999
 30
0.0
 10
-54.563800000000001
 20
-103.72069999999999
 30
0.0
 10
-54.563800000000001
 20
-103.72069999999999
 30
0.0
 10
-52.032699999999998
 20
-101.1896
 30
0.0
 10
-52.032699999999998
 20
-101.1896
 30
0.0
  0
SPLINE
  5
2F
100
AcDbEntity
  8
KONSTRUKTION
100
AcDbSpline
210
0.0
220
0.0
230
1.0
 70
     1
 71
     3
 72
    44
 73
    40
 74
     0
 42
0.0000000001
 43
0.0000000001
 40
0.0
 40
0.0
 40
0.0
 40
0.0
 40
0.1
 40
0.1
 40
0.1
 40
0.1
 40
0.2
 40
0.2
 40
0.2
 40
0.2
 40
0.3
 40
0.3
 40
0.3
 40
0.3
 40
0.4
 40
0.4
 40
0.4
 40
0.4
 40
0.5
 40
0.5
 40
0.5
 40
0.5
 40
0.6
 40
0.6
 40
0.6
 40
0.6
 40
0.7
 40
0.7
 40
0.7
 40
0.7
 40
0.7999999999999999
 40
0.7999999999999999
 40
0.7999999999999999
 40
0.7999999999999999
 40
0.8999999999999999
 40
0.8999999999999999
 40
0.8999999999999999
 40
0.8999999999999999
 40
1.0
 40
1.0
 40
1.0
 40
1.0
 10
-83.936099999999996
 20
-103.7208
 30
0.0
 10
-85.560699999999997
 20
-106.3501
 30
0.0
 10
-86.499899999999997
 20
-109.4439
 30
0.0
 10
-86.5
 20
-112.74930000000001
 30
0.0
 10
-86.5
 20
-112.74930000000001
 30
0.0
 10
-86.5
 20
-112.74930000000001
 30
0.0
 10
-86.5
 20
-112.75
 30
0.0
 10
-86.5
 20
-112.75
 30
0.0
 10
-86.5
 20
-112.75
 30
0.0
 10
-86.5
 20
-112.75
 30
0.0
 10
-86.5
 20
-112.75149999999999
 30
0.0
 10
-86.5
 20
-112.75149999999999
 30
0.0
 10
-86.5
 20
-112.75149999999999
 30
0.0
 10
-86.499799999999993
 20
-116.05670000000001
 30
0.0
 10
-85.560400000000001
 20
-119.1498
 30
0.0
 10
-83.935900000000004
 20
-121.779
 30
0.0
 10
-83.935900000000004
 20
-121.779
 30
0.0
 10
-83.935900000000004
 20
-121.779
 30
0.0
 10
-86.467200000000005
 20
-124.3103
 30
0.0
 10
-86.467200000000005
 20
-124.3103
 30
0.0
 10
-86.467200000000005
 20
-124.3103
 30
0.0
 10
-88.696100000000001
 20
-121.00369999999999
 30
0.0
 10
-89.999700000000004
 20
-117.0252
 30
0.0
 10
-90.0
 20
-112.75149999999999
 30
0.0
 10
-90.0
 20
-112.75149999999999
 30
0.0
 10
-90.0
 20
-112.75149999999999
 30
0.0
 10
-90.0
 20
-112.75
 30
0.0
 10
-90.0
 20
-112.75
 30
0.0
 10
-90.0
 20
-112.75
 30
0.0
 10
-90.0
 20
-112.75
 30
0.0
 10
-90.0
 20
-112.74930000000001
 30
0.0
 10
-90.0
 20
-112.74930000000001
 30
0.0
 10
-90.0
 20
-112.74930000000001
 30
0.0
 10
-89.999899999999997
 20
-108.47539999999999
 30
0.0
 10
-88.696399999999997
 20
-104.4962
 30
0.0
 10
-86.467399999999998
 20
-101.1895
 30
0.0
 10
-86.467399999999998
 20
-101.1895
 30
0.0
 10
-86.467399999999998
 20
-101.1895
 30
0.0
 10
-83.936099999999996
 20
-103.7208
 30
0.0
 10
-83.936099999999996
 20
-103.7208
 30
0.0
  0
SPLINE
  5
30
100
AcDbEntity
  8
KONSTRUKTION
100
AcDbSpline
210
0.0
220
0.0
230
1.0
 70
     1
 71
     3
 72
    44
 73
    40
 74
     0
 42
0.0000000001
 43
0.0000000001
 40
0.0
 40
0.0
 40
0.0
 40
0.0
 40
0.1
 40
0.1
 40
0.1
 40
0.1
 40
0.2
 40
0.2
 40
0.2
 40
0.2
 40
0.3
 40
0.3
 40
0.3
 40
0.3
 40
0.4
 40
0.4
 40
0.4
 40
0.4
 40
0.5
 40
0.5
 40
0.5
 40
0.5
 40
0.6
 40
0.6
 40
0.6
 40
0.6
 40
0.7
 40
0.7
 40
0.7
 40
0.7
 40
0.7999999999999999
 40
0.7999999999999999
 40
0.7999999999999999
 40
0.7999999999999999
 40
0.8999999999999999
 40
0.8999999999999999
 40
0.8999999999999999
 40
0.8999999999999999
 40
1.0
 40
1.0
 40
1.0
 40
1.0
 10
-69.25
 20
-92.0
 30
0.0
 10
-69.25
 20
-92.0
 30
0.0
 10
-69.249300000000005
 20
-92.0
 30
0.0
 10
-69.249300000000005
 20
-92.0
 30
0.0
 10
-69.249300000000005
 20
-92.0
 30
0.0
 10
-64.975200000000001
 20
-92.000100000000003
 30
0.0
 10
-60.996299999999998
 20
-93.303399999999996
 30
0.0
 10
-57.689500000000002
 20
-95.532600000000002
 30
0.0
 10
-57.689500000000002
 20
-95.532600000000002
 30
0.0
 10
-57.689500000000002
 20
-95.532600000000002
 30
0.0
 10
-60.220599999999997
 20
-98.063699999999997
 30
0.0
 10
-60.220599999999997
 20
-98.063699999999997
 30
0.0
 10
-60.220599999999997
 20
-98.063699999999997
 30
0.0
 10
-62.850000000000001
 20
-96.438999999999993
 30
0.0
 10
-65.943700000000007
 20
-95.500100000000003
 30
0.0
 10
-69.249300000000005
 20
-95.5
 30
0.0
 10
-69.249300000000005
 20
-95.5
 30
0.0
 10
-69.249300000000005
 20
-95.5
 30
0.0
 10
-69.25
 20
-95.5
 30
0.0
 10
-69.25
 20
-95.5
 30
0.0
 10
-69.25
 20
-95.5
 30
0.0
 10
-69.25
 20
-95.5
 30
0.0
 10
-69.251499999999993
 20
-95.5
 30
0.0
 10
-69.251499999999993
 20
-95.5
 30
0.0
 10
-69.251499999999993
 20
-95.5
 30
0.0
 10
-72.556799999999996
 20
-95.500200000000007
 30
0.0
 10
-75.650199999999998
 20
-96.439099999999996
 30
0.0
 10
-78.279399999999995
 20
-98.063699999999997
 30
0.0
 10
-78.279399999999995
 20
-98.063699999999997
 30
0.0
 10
-78.279399999999995
 20
-98.063699999999997
 30
0.0
 10
-80.810500000000005
 20
-95.532600000000002
 30
0.0
 10
-80.810500000000005
 20
-95.532600000000002
 30
0.0
 10
-80.810500000000005
 20
-95.532600000000002
 30
0.0
 10
-77.503799999999998
 20
-93.303600000000003
 30
0.0
 10
-73.525300000000001
 20
-92.000299999999996
 30
0.0
 10
-69.251499999999993
 20
-92.0
 30
0.0
 10
-69.251499999999993
 20
-92.0
 30
0.0
 10
-69.251499999999993
 20
-92.0
 30
0.0
 10
-69.25
 20
-92.0
 30
0.0
 10
-69.25
 20
-92.0
 30
0.0
  0
SPLINE
  5
32
100
AcDbEntity
  8
BEFESTIGUNG
100
AcDbSpline
210
0.0
220
0.0
230
1.0
 70
     1
 71
     3
 72
    20
 73
    16
 74
     0
 42
0.0000000001
 43
0.0000000001
 40
0.0
 40
0.0
 40
0.0
 40
0.0
 40
0.25
 40
0.25
 40
0.25
 40
0.25
 40
0.5
 40
0.5
 40
0.5
 40
0.5
 40
0.75
 40
0.75
 40
0.75
 40
0.75
 40
1.0
 40
1.0
 40
1.0
 40
1.0
 10
-33.5
 20
-75.75
 30
0.0
 10
-32.811500000000002
 20
-75.75
 30
0.0
 10
-32.25
 20
-76.311499999999995
 30
0.0
 10
-32.25
 20
-77.0
 30
0.0
 10
-32.25
 20
-77.0
 30
0.0
 10
-32.25
 20
-77.688400000000001
 30
0.0
 10
-32.811500000000002
 20
-78.25
 30
0.0
 10
-33.5
 20
-78.25
 30
0.0
 10
-33.5
 20
-78.25
 30
0.0
 10
-34.188499999999998
 20
-78.25
 30
0.0
 10
-34.75
 20
-77.688400000000001
 30
0.0
 10
-34.75
 20
-77.0
 30
0.0
 10
-34.75
 20
-77.0
 30
0.0
 10
-34.75
 20
-76.311499999999995
 30
0.0
 10
-34.188499999999998
 20
-75.75
 30
0.0
 10
-33.5
 20
-75.75
 30
0.0
  0
SPLINE
  5
33
100
AcDbEntity
  8
BEFESTIGUNG
100
AcDbSpline
210
0.0
220
0.0
230
1.0
 70
     1
 71
     3
 72
    20
 73
    16
 74
     0
 42
0.0000000001
 43
0.0000000001
 40
0.0
 40
0.0
 40
0.0
 40
0.0
 40
0.25
 40
0.25
 40
0.25
 40
0.25
 40
0.5
 40
0.5
 40
0.5
 40
0.5
 40
0.75
 40
0.75
 40
0.75
 40
0.75
 40
1.0
 40
1.0
 40
1.0
 40
1.0
 10
-105.0
 20
-147.25
 30
0.0
 10
-104.3115
 20
-147.25
 30
0.0
 10
-103.75
 20
-147.8116
 30
0.0
 10
-103.75
 20
-148.5001
 30
0.0
 10
-103.75
 20
-148.5001
 30
0.0
 10
-103.75
 20
-149.1885
 30
0.0
 10
-104.3115
 20
-149.75
 30
0.0
 10
-105.0
 20
-149.75
 30
0.0
 10
-105.0
 20
-149.75
 30
0.0
 10
-105.6885
 20
-149.75
 30
0.0
 10
-106.25
 20
-149.1885
 30
0.0
 10
-106.25
 20
-148.5001
 30
0.0
 10
-106.25
 20
-148.5001
 30
0.0
 10
-106.25
 20
-147.8116
 30
0.0
 10
-105.6885
 20
-147.25
 30
0.0
 10
-105.0
 20
-147.25
 30
0.0
  0
SPLINE
  5
34
100
AcDbEntity
  8
BEFESTIGUNG
100
AcDbSpline
210
0.0
220
0.0
230
1.0
 70
     1
 71
     3
 72
    20
 73
    16
 74
     0
 42
0.0000000001
 43
0.0000000001
 40
0.0
 40
0.0
 40
0.0
 40
0.0
 40
0.25
 40
0.25
 40
0.25
 40
0.25
 40
0.5
 40
0.5
 40
0.5
 40
0.5
 40
0.75
 40
0.75
 40
0.75
 40
0.75
 40
1.0
 40
1.0
 40
1.0
 40
1.0
 10
-33.499899999999997
 20
-147.25
 30
0.0
 10
-32.811500000000002
 20
-147.25
 30
0.0
 10
-32.25
 20
-147.8116
 30
0.0
 10
-32.25
 20
-148.5001
 30
0.0
 10
-32.25
 20
-148.5001
 30
0.0
 10
-32.25
 20
-149.1885
 30
0.0
 10
-32.811500000000002
 20
-149.75
 30
0.0
 10
-33.499899999999997
 20
-149.75
 30
0.0
 10
-33.499899999999997
 20
-149.75
 30
0.0
 10
-34.188400000000001
 20
-149.75
 30
0.0
 10
-34.75
 20
-149.1885
 30
0.0
 10
-34.75
 20
-148.5001
 30
0.0
 10
-34.75
 20
-148.5001
 30
0.0
 10
-34.75
 20
-147.8116
 30
0.0
 10
-34.188400000000001
 20
-147.25
 30
0.0
 10
-33.499899999999997
 20
-147.25
 30
0.0
  0
SPLINE
  5
35
100
AcDbEntity
  8
BEFESTIGUNG
100
AcDbSpline
210
0.0
220
0.0
230
1.0
 70
     1
 71
     3
 72
    20
 73
    16
 74
     0
 42
0.0000000001
 43
0.0000000001
 40
0.0
 40
0.0
 40
0.0
 40
0.0
 40
0.25
 40
0.25
 40
0.25
 40
0.25
 40
0.5
 40
0.5
 40
0.5
 40
0.5
 40
0.75
 40
0.75
 40
0.75
 40
0.75
 40
1.0
 40
1.0
 40
1.0
 40
1.0
 10
-104.9999
 20
-75.75
 30
0.0
 10
-104.3115
 20
-75.75
 30
0.0
 10
-103.7499
 20
-76.311499999999995
 30
0.0
 10
-103.7499
 20
-77.0
 30
0.0
 10
-103.7499
 20
-77.0
 30
0.0
 10
-103.7499
 20
-77.688500000000005
 30
0.0
 10
-104.3115
 20
-78.25
 30
0.0
 10
-104.9999
 20
-78.25
 30
0.0
 10
-104.9999
 20
-78.25
 30
0.0
 10
-105.6884
 20
-78.25
 30
0.0
 10
-106.2499
 20
-77.688500000000005
 30
0.0
 10
-106.2499
 20
-77.0
 30
0.0
 10
-106.2499
 20
-77.0
 30
0.0
 10
-106.2499
 20
-76.311499999999995
 30
0.0
 10
-105.6884
 20
-75.75
 30
0.0
 10
-104.9999
 20
-75.75
 30
0.0
  0
ENDSEC
  0
SECTION
  2
OBJECTS
  0
DICTIONARY
  5
19
100
AcDbDictionary
  3
ACAD_GROUP
350
1A
  3
ACAD_MLINESTYLE
350
1B
  0
DICTIONARY
  5
1A
102
{ACAD_REACTORS
330
19
102
}
100
AcDbDictionary
  0
DICTIONARY
  5
1B
102
{ACAD_REACTORS
330
19
102
}
100
AcDbDictionary
  3
STANDARD
350
1C
  0
MLINESTYLE
  5
1C
102
{ACAD_REACTORS
330
1B
102
}
100
AcDbMlineStyle
  2
STANDARD
 70
     0
  3

 62
     0
 51
90.0
 52
90.0
 71
     2
 49
0.5
 62
   256
  6
BYLAYER
 49
-0.5
 62
   256
  6
BYLAYER
  0
DICTIONARY
  5
22
102
{ACAD_REACTORS
330
19
102
}
100
AcDbDictionary
  0
ENDSEC
  0
EOF
