  0
SECTION
  2
HEADER
  9
$ACADVER
  1
AC1006
  9
$EXTMIN
 10
-0.773583
 20
1.255953
  9
$EXTMAX
 10
0.840087
 20
3.423531
  9
$LTSCALE
 40
0.000394
  9
$PDMODE
 70
    35
  9
$PDSIZE
 40
0.000315
  0
ENDSEC
  0
SECTION
  2
TABLES
  0
TABLE
  2
LTYPE
 70
     9
  0
LTYPE
  2
CONTINUOUS
 70
    64
  3
Solid line
 72
    65
 73
     0
 40
0.000000
  0
LTYPE
  2
DASHED
 70
    64
  3
__ __ __ __ __ __ __ __ __ __ __ __ __ __ __
 72
    65
 73
     2
 40
0.000003
 49
0.000002
 49
-0.000001
  0
LTYPE
  2
HIDDEN
 70
    64
  3
 _ _ _ _ _ _ _ _ _ _ _ _ _ _ _ _ _ _ _ _ _ _
 72
    65
 73
     2
 40
0.000001
 49
0.000001
 49
-0.000000
  0
LTYPE
  2
CENTER
 70
    64
  3
____ _ ____ _ ____ _ ____ _ ____ _ ____ _ ____
 72
    65
 73
     4
 40
0.000008
 49
0.000005
 49
-0.000001
 49
0.000001
 49
-0.000001
  0
LTYPE
  2
PHANTOM
 70
    64
  3
_____ _ _ _____ _ _ _____ _ _ _____ _ _ ____
 72
    65
 73
     6
 40
0.000010
 49
0.000005
 49
-0.000001
 49
0.000001
 49
-0.000001
 49
0.000001
 49
-0.000001
  0
LTYPE
  2
DOT
 70
    64
  3
...............................................
 72
    65
 73
     2
 40
0.000001
 49
0.000000
 49
-0.000001
  0
LTYPE
  2
DASHDOT
 70
    64
  3
__ . __ . __ . __ . __ . __ . __ . __ . __ . __
 72
    65
 73
     4
 40
0.000004
 49
0.000002
 49
-0.000001
 49
0.000000
 49
-0.000001
  0
LTYPE
  2
BORDER
 70
    64
  3
__ __ . __ __ . __ __ . __ __ . __ __ . __ __
 72
    65
 73
     6
 40
0.000007
 49
0.000002
 49
-0.000001
 49
0.000002
 49
-0.000001
 49
0.000000
 49
-0.000001
  0
LTYPE
  2
DIVIDE
 70
    64
  3
__ . . __ . . __ . . __ . . __ . . __ . . __
 72
    65
 73
     6
 40
0.000005
 49
0.000002
 49
-0.000001
 49
0.000000
 49
-0.000001
 49
0.000000
 49
-0.000001
  0
LTYPE
  2
DOTDOT
 70
    64
  3
 . .  . .  . .  . .  . .  . . 
 72
    65
 73
     5
 40
0.000002
 49
-0.000001
 49
0.000000
 49
-0.000001
 49
0.000000
 49
-0.000001
  0
ENDTAB
  0
TABLE
  2
STYLE
 70
     0
  0
ENDTAB
  0
TABLE
  2
LAYER
 70
     3
  0
LAYER
  2
FOREGROUND
 70
    64
 62
     7
  6
CONTINUOUS
  0
LAYER
  2
BACKGROUND
 70
    65
 62
    -7
  6
CONTINUOUS
  0
LAYER
  2
EBENE_1
 70
    64
 62
     7
  6
CONTINUOUS
  0
ENDTAB
  0
ENDSEC
  0
SECTION
  2
ENTITIES
  0
POLYLINE
  8
EBENE_1
 62
     1
  6
CONTINUOUS
 66
     1
 40
0.003000
 41
0.003000
 70
     1
  0
VERTEX
  8
EBENE_1
 62
     1
  6
CONTINUOUS
 10
0.766768
 20
2.733382
  0
VERTEX
  8
EBENE_1
 62
     1
  6
CONTINUOUS
 10
0.756646
 20
2.743657
  0
VERTEX
  8
EBENE_1
 62
     1
  6
CONTINUOUS
 10
0.746232
 20
2.753470
  0
VERTEX
  8
EBENE_1
 62
     1
  6
CONTINUOUS
 10
0.735539
 20
2.762835
  0
VERTEX
  8
EBENE_1
 62
     1
  6
CONTINUOUS
 10
0.724580
 20
2.771769
  0
VERTEX
  8
EBENE_1
 62
     1
  6
CONTINUOUS
 10
0.713369
 20
2.780284
  0
VERTEX
  8
EBENE_1
 62
     1
  6
CONTINUOUS
 10
0.701919
 20
2.788397
  0
VERTEX
  8
EBENE_1
 62
     1
  6
CONTINUOUS
 10
0.690243
 20
2.796121
  0
VERTEX
  8
EBENE_1
 62
     1
  6
CONTINUOUS
 10
0.678356
 20
2.803473
  0
VERTEX
  8
EBENE_1
 62
     1
  6
CONTINUOUS
 10
0.666270
 20
2.810467
  0
VERTEX
  8
EBENE_1
 62
     1
  6
CONTINUOUS
 10
0.653998
 20
2.817117
  0
VERTEX
  8
EBENE_1
 62
     1
  6
CONTINUOUS
 10
0.641555
 20
2.823438
  0
VERTEX
  8
EBENE_1
 62
     1
  6
CONTINUOUS
 10
0.628953
 20
2.829446
  0
VERTEX
  8
EBENE_1
 62
     1
  6
CONTINUOUS
 10
0.616206
 20
2.835155
  0
VERTEX
  8
EBENE_1
 62
     1
  6
CONTINUOUS
 10
0.603328
 20
2.840580
  0
VERTEX
  8
EBENE_1
 62
     1
  6
CONTINUOUS
 10
0.590331
 20
2.845736
  0
VERTEX
  8
EBENE_1
 62
     1
  6
CONTINUOUS
 10
0.577230
 20
2.850637
  0
VERTEX
  8
EBENE_1
 62
     1
  6
CONTINUOUS
 10
0.564037
 20
2.855300
  0
VERTEX
  8
EBENE_1
 62
     1
  6
CONTINUOUS
 10
0.550765
 20
2.859737
  0
VERTEX
  8
EBENE_1
 62
     1
  6
CONTINUOUS
 10
0.537430
 20
2.863965
  0
VERTEX
  8
EBENE_1
 62
     1
  6
CONTINUOUS
 10
0.524043
 20
2.867998
  0
VERTEX
  8
EBENE_1
 62
     1
  6
CONTINUOUS
 10
0.510618
 20
2.871851
  0
VERTEX
  8
EBENE_1
 62
     1
  6
CONTINUOUS
 10
0.497168
 20
2.875538
  0
VERTEX
  8
EBENE_1
 62
     1
  6
CONTINUOUS
 10
0.483708
 20
2.879075
  0
VERTEX
  8
EBENE_1
 62
     1
  6
CONTINUOUS
 10
0.470249
 20
2.882477
  0
VERTEX
  8
EBENE_1
 62
     1
  6
CONTINUOUS
 10
0.456807
 20
2.885758
  0
VERTEX
  8
EBENE_1
 62
     1
  6
CONTINUOUS
 10
0.443394
 20
2.888934
  0
VERTEX
  8
EBENE_1
 62
     1
  6
CONTINUOUS
 10
0.430023
 20
2.892018
  0
VERTEX
  8
EBENE_1
 62
     1
  6
CONTINUOUS
 10
0.416708
 20
2.895026
  0
VERTEX
  8
EBENE_1
 62
     1
  6
CONTINUOUS
 10
0.403462
 20
2.897973
  0
VERTEX
  8
EBENE_1
 62
     1
  6
CONTINUOUS
 10
0.390299
 20
2.900873
  0
VERTEX
  8
EBENE_1
 62
     1
  6
CONTINUOUS
 10
0.377233
 20
2.903742
  0
VERTEX
  8
EBENE_1
 62
     1
  6
CONTINUOUS
 10
0.364275
 20
2.906595
  0
VERTEX
  8
EBENE_1
 62
     1
  6
CONTINUOUS
 10
0.351441
 20
2.909445
  0
VERTEX
  8
EBENE_1
 62
     1
  6
CONTINUOUS
 10
0.351441
 20
2.909445
  0
VERTEX
  8
EBENE_1
 62
     1
  6
CONTINUOUS
 10
0.351449
 20
2.909445
  0
VERTEX
  8
EBENE_1
 62
     1
  6
CONTINUOUS
 10
0.332121
 20
2.915476
  0
VERTEX
  8
EBENE_1
 62
     1
  6
CONTINUOUS
 10
0.314677
 20
2.925514
  0
VERTEX
  8
EBENE_1
 62
     1
  6
CONTINUOUS
 10
0.299748
 20
2.939193
  0
VERTEX
  8
EBENE_1
 62
     1
  6
CONTINUOUS
 10
0.299748
 20
2.939197
  0
VERTEX
  8
EBENE_1
 62
     1
  6
CONTINUOUS
 10
0.288857
 20
2.957362
  0
VERTEX
  8
EBENE_1
 62
     1
  6
CONTINUOUS
 10
0.281834
 20
2.977230
  0
VERTEX
  8
EBENE_1
 62
     1
  6
CONTINUOUS
 10
0.278890
 20
2.998201
  0
VERTEX
  8
EBENE_1
 62
     1
  6
CONTINUOUS
 10
0.278894
 20
2.998217
  0
VERTEX
  8
EBENE_1
 62
     1
  6
CONTINUOUS
 10
0.278475
 20
3.012647
  0
VERTEX
  8
EBENE_1
 62
     1
  6
CONTINUOUS
 10
0.279129
 20
3.027036
  0
VERTEX
  8
EBENE_1
 62
     1
  6
CONTINUOUS
 10
0.280859
 20
3.041289
  0
VERTEX
  8
EBENE_1
 62
     1
  6
CONTINUOUS
 10
0.283667
 20
3.055311
  0
VERTEX
  8
EBENE_1
 62
     1
  6
CONTINUOUS
 10
0.287557
 20
3.069008
  0
VERTEX
  8
EBENE_1
 62
     1
  6
CONTINUOUS
 10
0.292533
 20
3.082284
  0
VERTEX
  8
EBENE_1
 62
     1
  6
CONTINUOUS
 10
0.298596
 20
3.095047
  0
VERTEX
  8
EBENE_1
 62
     1
  6
CONTINUOUS
 10
0.305750
 20
3.107199
  0
VERTEX
  8
EBENE_1
 62
     1
  6
CONTINUOUS
 10
0.313999
 20
3.118648
  0
VERTEX
  8
EBENE_1
 62
     1
  6
CONTINUOUS
 10
0.323345
 20
3.129299
  0
VERTEX
  8
EBENE_1
 62
     1
  6
CONTINUOUS
 10
0.333791
 20
3.139056
  0
VERTEX
  8
EBENE_1
 62
     1
  6
CONTINUOUS
 10
0.345340
 20
3.147825
  0
VERTEX
  8
EBENE_1
 62
     1
  6
CONTINUOUS
 10
0.357996
 20
3.155512
  0
VERTEX
  8
EBENE_1
 62
     1
  6
CONTINUOUS
 10
0.357996
 20
3.155508
  0
VERTEX
  8
EBENE_1
 62
     1
  6
CONTINUOUS
 10
0.373730
 20
3.161791
  0
VERTEX
  8
EBENE_1
 62
     1
  6
CONTINUOUS
 10
0.390038
 20
3.165635
  0
VERTEX
  8
EBENE_1
 62
     1
  6
CONTINUOUS
 10
0.406648
 20
3.167036
  0
VERTEX
  8
EBENE_1
 62
     1
  6
CONTINUOUS
 10
0.423283
 20
3.165992
  0
VERTEX
  8
EBENE_1
 62
     1
  6
CONTINUOUS
 10
0.439671
 20
3.162500
  0
VERTEX
  8
EBENE_1
 62
     1
  6
CONTINUOUS
 10
0.455535
 20
3.156555
  0
VERTEX
  8
EBENE_1
 62
     1
  6
CONTINUOUS
 10
0.455539
 20
3.156531
  0
VERTEX
  8
EBENE_1
 62
     1
  6
CONTINUOUS
 10
0.454200
 20
3.173369
  0
VERTEX
  8
EBENE_1
 62
     1
  6
CONTINUOUS
 10
0.449318
 20
3.189339
  0
VERTEX
  8
EBENE_1
 62
     1
  6
CONTINUOUS
 10
0.441129
 20
3.203893
  0
VERTEX
  8
EBENE_1
 62
     1
  6
CONTINUOUS
 10
0.429866
 20
3.216480
  0
VERTEX
  8
EBENE_1
 62
     1
  6
CONTINUOUS
 10
0.429854
 20
3.216488
  0
VERTEX
  8
EBENE_1
 62
     1
  6
CONTINUOUS
 10
0.414102
 20
3.228110
  0
VERTEX
  8
EBENE_1
 62
     1
  6
CONTINUOUS
 10
0.396369
 20
3.235823
  0
VERTEX
  8
EBENE_1
 62
     1
  6
CONTINUOUS
 10
0.377368
 20
3.239408
  0
VERTEX
  8
EBENE_1
 62
     1
  6
CONTINUOUS
 10
0.357811
 20
3.238646
  0
VERTEX
  8
EBENE_1
 62
     1
  6
CONTINUOUS
 10
0.357807
 20
3.238646
  0
VERTEX
  8
EBENE_1
 62
     1
  6
CONTINUOUS
 10
0.342715
 20
3.233043
  0
VERTEX
  8
EBENE_1
 62
     1
  6
CONTINUOUS
 10
0.322843
 20
3.222992
  0
VERTEX
  8
EBENE_1
 62
     1
  6
CONTINUOUS
 10
0.303372
 20
3.211962
  0
VERTEX
  8
EBENE_1
 62
     1
  6
CONTINUOUS
 10
0.289484
 20
3.203425
  0
VERTEX
  8
EBENE_1
 62
     1
  6
CONTINUOUS
 10
0.273937
 20
3.201654
  0
VERTEX
  8
EBENE_1
 62
     1
  6
CONTINUOUS
 10
0.263626
 20
3.208043
  0
VERTEX
  8
EBENE_1
 62
     1
  6
CONTINUOUS
 10
0.258618
 20
3.218480
  0
VERTEX
  8
EBENE_1
 62
     1
  6
CONTINUOUS
 10
0.261122
 20
3.231197
  0
VERTEX
  8
EBENE_1
 62
     1
  6
CONTINUOUS
 10
0.267110
 20
3.241654
  0
VERTEX
  8
EBENE_1
 62
     1
  6
CONTINUOUS
 10
0.267091
 20
3.241634
  0
VERTEX
  8
EBENE_1
 62
     1
  6
CONTINUOUS
 10
0.271664
 20
3.250121
  0
VERTEX
  8
EBENE_1
 62
     1
  6
CONTINUOUS
 10
0.275005
 20
3.259139
  0
VERTEX
  8
EBENE_1
 62
     1
  6
CONTINUOUS
 10
0.277067
 20
3.268555
  0
VERTEX
  8
EBENE_1
 62
     1
  6
CONTINUOUS
 10
0.277071
 20
3.268567
  0
VERTEX
  8
EBENE_1
 62
     1
  6
CONTINUOUS
 10
0.275382
 20
3.288065
  0
VERTEX
  8
EBENE_1
 62
     1
  6
CONTINUOUS
 10
0.265645
 20
3.304535
  0
VERTEX
  8
EBENE_1
 62
     1
  6
CONTINUOUS
 10
0.249370
 20
3.315413
  0
VERTEX
  8
EBENE_1
 62
     1
  6
CONTINUOUS
 10
0.249366
 20
3.315417
  0
VERTEX
  8
EBENE_1
 62
     1
  6
CONTINUOUS
 10
0.231408
 20
3.316360
  0
VERTEX
  8
EBENE_1
 62
     1
  6
CONTINUOUS
 10
0.214037
 20
3.312875
  0
VERTEX
  8
EBENE_1
 62
     1
  6
CONTINUOUS
 10
0.198055
 20
3.305230
  0
VERTEX
  8
EBENE_1
 62
     1
  6
CONTINUOUS
 10
0.184260
 20
3.293693
  0
VERTEX
  8
EBENE_1
 62
     1
  6
CONTINUOUS
 10
0.184260
 20
3.293689
  0
VERTEX
  8
EBENE_1
 62
     1
  6
CONTINUOUS
 10
0.175330
 20
3.281179
  0
VERTEX
  8
EBENE_1
 62
     1
  6
CONTINUOUS
 10
0.162402
 20
3.271005
  0
VERTEX
  8
EBENE_1
 62
     1
  6
CONTINUOUS
 10
0.146995
 20
3.263738
  0
VERTEX
  8
EBENE_1
 62
     1
  6
CONTINUOUS
 10
0.130626
 20
3.259949
  0
VERTEX
  8
EBENE_1
 62
     1
  6
CONTINUOUS
 10
0.116984
 20
3.259825
  0
VERTEX
  8
EBENE_1
 62
     1
  6
CONTINUOUS
 10
0.104705
 20
3.262788
  0
VERTEX
  8
EBENE_1
 62
     1
  6
CONTINUOUS
 10
0.094748
 20
3.269046
  0
VERTEX
  8
EBENE_1
 62
     1
  6
CONTINUOUS
 10
0.088068
 20
3.278809
  0
VERTEX
  8
EBENE_1
 62
     1
  6
CONTINUOUS
 10
0.085620
 20
3.292289
  0
VERTEX
  8
EBENE_1
 62
     1
  6
CONTINUOUS
 10
0.088362
 20
3.309693
  0
VERTEX
  8
EBENE_1
 62
     1
  6
CONTINUOUS
 10
0.088339
 20
3.309650
  0
VERTEX
  8
EBENE_1
 62
     1
  6
CONTINUOUS
 10
0.092463
 20
3.320604
  0
VERTEX
  8
EBENE_1
 62
     1
  6
CONTINUOUS
 10
0.095652
 20
3.331856
  0
VERTEX
  8
EBENE_1
 62
     1
  6
CONTINUOUS
 10
0.097890
 20
3.343343
  0
VERTEX
  8
EBENE_1
 62
     1
  6
CONTINUOUS
 10
0.097894
 20
3.343382
  0
VERTEX
  8
EBENE_1
 62
     1
  6
CONTINUOUS
 10
0.097574
 20
3.352237
  0
VERTEX
  8
EBENE_1
 62
     1
  6
CONTINUOUS
 10
0.095147
 20
3.360696
  0
VERTEX
  8
EBENE_1
 62
     1
  6
CONTINUOUS
 10
0.090724
 20
3.368378
  0
VERTEX
  8
EBENE_1
 62
     1
  6
CONTINUOUS
 10
0.090724
 20
3.368390
  0
VERTEX
  8
EBENE_1
 62
     1
  6
CONTINUOUS
 10
0.071476
 20
3.389492
  0
VERTEX
  8
EBENE_1
 62
     1
  6
CONTINUOUS
 10
0.049224
 20
3.412008
  0
VERTEX
  8
EBENE_1
 62
     1
  6
CONTINUOUS
 10
0.049220
 20
3.412008
  0
VERTEX
  8
EBENE_1
 62
     1
  6
CONTINUOUS
 10
0.042507
 20
3.417557
  0
VERTEX
  8
EBENE_1
 62
     1
  6
CONTINUOUS
 10
0.034746
 20
3.421384
  0
VERTEX
  8
EBENE_1
 62
     1
  6
CONTINUOUS
 10
0.026256
 20
3.423335
  0
VERTEX
  8
EBENE_1
 62
     1
  6
CONTINUOUS
 10
0.026260
 20
3.423335
  0
VERTEX
  8
EBENE_1
 62
     1
  6
CONTINUOUS
 10
0.017770
 20
3.421391
  0
VERTEX
  8
EBENE_1
 62
     1
  6
CONTINUOUS
 10
0.010007
 20
3.417570
  0
VERTEX
  8
EBENE_1
 62
     1
  6
CONTINUOUS
 10
0.003291
 20
3.412028
  0
VERTEX
  8
EBENE_1
 62
     1
  6
CONTINUOUS
 10
0.003291
 20
3.412031
  0
VERTEX
  8
EBENE_1
 62
     1
  6
CONTINUOUS
 10
-0.018961
 20
3.389492
  0
VERTEX
  8
EBENE_1
 62
     1
  6
CONTINUOUS
 10
-0.038181
 20
3.368390
  0
VERTEX
  8
EBENE_1
 62
     1
  6
CONTINUOUS
 10
-0.038181
 20
3.368382
  0
VERTEX
  8
EBENE_1
 62
     1
  6
CONTINUOUS
 10
-0.042605
 20
3.360701
  0
VERTEX
  8
EBENE_1
 62
     1
  6
CONTINUOUS
 10
-0.045034
 20
3.352242
  0
VERTEX
  8
EBENE_1
 62
     1
  6
CONTINUOUS
 10
-0.045358
 20
3.343386
  0
VERTEX
  8
EBENE_1
 62
     1
  6
CONTINUOUS
 10
-0.045366
 20
3.343421
  0
VERTEX
  8
EBENE_1
 62
     1
  6
CONTINUOUS
 10
-0.043142
 20
3.331942
  0
VERTEX
  8
EBENE_1
 62
     1
  6
CONTINUOUS
 10
-0.039968
 20
3.320697
  0
VERTEX
  8
EBENE_1
 62
     1
  6
CONTINUOUS
 10
-0.035862
 20
3.309748
  0
VERTEX
  8
EBENE_1
 62
     1
  6
CONTINUOUS
 10
-0.035843
 20
3.309681
  0
VERTEX
  8
EBENE_1
 62
     1
  6
CONTINUOUS
 10
-0.029963
 20
3.290502
  0
VERTEX
  8
EBENE_1
 62
     1
  6
CONTINUOUS
 10
-0.036480
 20
3.276682
  0
VERTEX
  8
EBENE_1
 62
     1
  6
CONTINUOUS
 10
-0.050421
 20
3.262862
  0
VERTEX
  8
EBENE_1
 62
     1
  6
CONTINUOUS
 10
-0.075091
 20
3.259453
  0
VERTEX
  8
EBENE_1
 62
     1
  6
CONTINUOUS
 10
-0.093308
 20
3.262775
  0
VERTEX
  8
EBENE_1
 62
     1
  6
CONTINUOUS
 10
-0.107476
 20
3.269667
  0
VERTEX
  8
EBENE_1
 62
     1
  6
CONTINUOUS
 10
-0.119615
 20
3.280012
  0
VERTEX
  8
EBENE_1
 62
     1
  6
CONTINUOUS
 10
-0.131744
 20
3.293689
  0
VERTEX
  8
EBENE_1
 62
     1
  6
CONTINUOUS
 10
-0.131744
 20
3.293693
  0
VERTEX
  8
EBENE_1
 62
     1
  6
CONTINUOUS
 10
-0.145539
 20
3.305229
  0
VERTEX
  8
EBENE_1
 62
     1
  6
CONTINUOUS
 10
-0.161521
 20
3.312873
  0
VERTEX
  8
EBENE_1
 62
     1
  6
CONTINUOUS
 10
-0.178891
 20
3.316358
  0
VERTEX
  8
EBENE_1
 62
     1
  6
CONTINUOUS
 10
-0.196846
 20
3.315417
  0
VERTEX
  8
EBENE_1
 62
     1
  6
CONTINUOUS
 10
-0.213110
 20
3.304543
  0
VERTEX
  8
EBENE_1
 62
     1
  6
CONTINUOUS
 10
-0.222844
 20
3.288084
  0
VERTEX
  8
EBENE_1
 62
     1
  6
CONTINUOUS
 10
-0.224535
 20
3.268598
  0
VERTEX
  8
EBENE_1
 62
     1
  6
CONTINUOUS
 10
-0.224539
 20
3.268606
  0
VERTEX
  8
EBENE_1
 62
     1
  6
CONTINUOUS
 10
-0.222493
 20
3.259190
  0
VERTEX
  8
EBENE_1
 62
     1
  6
CONTINUOUS
 10
-0.219165
 20
3.250170
  0
VERTEX
  8
EBENE_1
 62
     1
  6
CONTINUOUS
 10
-0.214606
 20
3.241677
  0
VERTEX
  8
EBENE_1
 62
     1
  6
CONTINUOUS
 10
-0.214594
 20
3.241654
  0
VERTEX
  8
EBENE_1
 62
     1
  6
CONTINUOUS
 10
-0.208350
 20
3.230756
  0
VERTEX
  8
EBENE_1
 62
     1
  6
CONTINUOUS
 10
-0.204913
 20
3.218858
  0
VERTEX
  8
EBENE_1
 62
     1
  6
CONTINUOUS
 10
-0.210713
 20
3.206642
  0
VERTEX
  8
EBENE_1
 62
     1
  6
CONTINUOUS
 10
-0.221173
 20
3.201512
  0
VERTEX
  8
EBENE_1
 62
     1
  6
CONTINUOUS
 10
-0.235264
 20
3.203854
  0
VERTEX
  8
EBENE_1
 62
     1
  6
CONTINUOUS
 10
-0.249419
 20
3.212324
  0
VERTEX
  8
EBENE_1
 62
     1
  6
CONTINUOUS
 10
-0.269476
 20
3.223206
  0
VERTEX
  8
EBENE_1
 62
     1
  6
CONTINUOUS
 10
-0.289933
 20
3.233110
  0
VERTEX
  8
EBENE_1
 62
     1
  6
CONTINUOUS
 10
-0.305291
 20
3.238646
  0
VERTEX
  8
EBENE_1
 62
     1
  6
CONTINUOUS
 10
-0.324848
 20
3.239414
  0
VERTEX
  8
EBENE_1
 62
     1
  6
CONTINUOUS
 10
-0.343850
 20
3.235835
  0
VERTEX
  8
EBENE_1
 62
     1
  6
CONTINUOUS
 10
-0.361584
 20
3.228129
  0
VERTEX
  8
EBENE_1
 62
     1
  6
CONTINUOUS
 10
-0.377339
 20
3.216516
  0
VERTEX
  8
EBENE_1
 62
     1
  6
CONTINUOUS
 10
-0.377339
 20
3.216512
  0
VERTEX
  8
EBENE_1
 62
     1
  6
CONTINUOUS
 10
-0.388598
 20
3.203931
  0
VERTEX
  8
EBENE_1
 62
     1
  6
CONTINUOUS
 10
-0.396789
 20
3.189384
  0
VERTEX
  8
EBENE_1
 62
     1
  6
CONTINUOUS
 10
-0.401675
 20
3.173421
  0
VERTEX
  8
EBENE_1
 62
     1
  6
CONTINUOUS
 10
-0.403020
 20
3.156591
  0
VERTEX
  8
EBENE_1
 62
     1
  6
CONTINUOUS
 10
-0.403020
 20
3.156555
  0
VERTEX
  8
EBENE_1
 62
     1
  6
CONTINUOUS
 10
-0.387157
 20
3.162498
  0
VERTEX
  8
EBENE_1
 62
     1
  6
CONTINUOUS
 10
-0.370770
 20
3.165990
  0
VERTEX
  8
EBENE_1
 62
     1
  6
CONTINUOUS
 10
-0.354135
 20
3.167033
  0
VERTEX
  8
EBENE_1
 62
     1
  6
CONTINUOUS
 10
-0.337526
 20
3.165632
  0
VERTEX
  8
EBENE_1
 62
     1
  6
CONTINUOUS
 10
-0.321218
 20
3.161790
  0
VERTEX
  8
EBENE_1
 62
     1
  6
CONTINUOUS
 10
-0.305484
 20
3.155508
  0
VERTEX
  8
EBENE_1
 62
     1
  6
CONTINUOUS
 10
-0.305461
 20
3.155496
  0
VERTEX
  8
EBENE_1
 62
     1
  6
CONTINUOUS
 10
-0.291033
 20
3.146605
  0
VERTEX
  8
EBENE_1
 62
     1
  6
CONTINUOUS
 10
-0.277846
 20
3.136189
  0
VERTEX
  8
EBENE_1
 62
     1
  6
CONTINUOUS
 10
-0.266005
 20
3.124381
  0
VERTEX
  8
EBENE_1
 62
     1
  6
CONTINUOUS
 10
-0.255614
 20
3.111312
  0
VERTEX
  8
EBENE_1
 62
     1
  6
CONTINUOUS
 10
-0.246779
 20
3.097114
  0
VERTEX
  8
EBENE_1
 62
     1
  6
CONTINUOUS
 10
-0.239603
 20
3.081919
  0
VERTEX
  8
EBENE_1
 62
     1
  6
CONTINUOUS
 10
-0.234193
 20
3.065858
  0
VERTEX
  8
EBENE_1
 62
     1
  6
CONTINUOUS
 10
-0.234193
 20
3.065858
  0
VERTEX
  8
EBENE_1
 62
     1
  6
CONTINUOUS
 10
-0.234193
 20
3.065850
  0
VERTEX
  8
EBENE_1
 62
     1
  6
CONTINUOUS
 10
-0.229931
 20
3.049234
  0
VERTEX
  8
EBENE_1
 62
     1
  6
CONTINUOUS
 10
-0.227200
 20
3.032335
  0
VERTEX
  8
EBENE_1
 62
     1
  6
CONTINUOUS
 10
-0.226013
 20
3.015259
  0
VERTEX
  8
EBENE_1
 62
     1
  6
CONTINUOUS
 10
-0.226382
 20
2.998110
  0
VERTEX
  8
EBENE_1
 62
     1
  6
CONTINUOUS
 10
-0.226378
 20
2.998142
  0
VERTEX
  8
EBENE_1
 62
     1
  6
CONTINUOUS
 10
-0.228253
 20
2.982371
  0
VERTEX
  8
EBENE_1
 62
     1
  6
CONTINUOUS
 10
-0.232514
 20
2.967365
  0
VERTEX
  8
EBENE_1
 62
     1
  6
CONTINUOUS
 10
-0.238997
 20
2.953411
  0
VERTEX
  8
EBENE_1
 62
     1
  6
CONTINUOUS
 10
-0.247536
 20
2.940795
  0
VERTEX
  8
EBENE_1
 62
     1
  6
CONTINUOUS
 10
-0.257969
 20
2.929803
  0
VERTEX
  8
EBENE_1
 62
     1
  6
CONTINUOUS
 10
-0.270131
 20
2.920722
  0
VERTEX
  8
EBENE_1
 62
     1
  6
CONTINUOUS
 10
-0.283858
 20
2.913836
  0
VERTEX
  8
EBENE_1
 62
     1
  6
CONTINUOUS
 10
-0.298984
 20
2.909433
  0
VERTEX
  8
EBENE_1
 62
     1
  6
CONTINUOUS
 10
-0.298992
 20
2.909429
  0
VERTEX
  8
EBENE_1
 62
     1
  6
CONTINUOUS
 10
-0.314615
 20
2.905779
  0
VERTEX
  8
EBENE_1
 62
     1
  6
CONTINUOUS
 10
-0.329647
 20
2.902419
  0
VERTEX
  8
EBENE_1
 62
     1
  6
CONTINUOUS
 10
-0.344140
 20
2.899301
  0
VERTEX
  8
EBENE_1
 62
     1
  6
CONTINUOUS
 10
-0.358145
 20
2.896381
  0
VERTEX
  8
EBENE_1
 62
     1
  6
CONTINUOUS
 10
-0.371716
 20
2.893614
  0
VERTEX
  8
EBENE_1
 62
     1
  6
CONTINUOUS
 10
-0.384904
 20
2.890952
  0
VERTEX
  8
EBENE_1
 62
     1
  6
CONTINUOUS
 10
-0.397761
 20
2.888352
  0
VERTEX
  8
EBENE_1
 62
     1
  6
CONTINUOUS
 10
-0.410340
 20
2.885766
  0
VERTEX
  8
EBENE_1
 62
     1
  6
CONTINUOUS
 10
-0.422692
 20
2.883149
  0
VERTEX
  8
EBENE_1
 62
     1
  6
CONTINUOUS
 10
-0.434871
 20
2.880456
  0
VERTEX
  8
EBENE_1
 62
     1
  6
CONTINUOUS
 10
-0.446926
 20
2.877641
  0
VERTEX
  8
EBENE_1
 62
     1
  6
CONTINUOUS
 10
-0.458912
 20
2.874658
  0
VERTEX
  8
EBENE_1
 62
     1
  6
CONTINUOUS
 10
-0.470880
 20
2.871462
  0
VERTEX
  8
EBENE_1
 62
     1
  6
CONTINUOUS
 10
-0.482883
 20
2.868007
  0
VERTEX
  8
EBENE_1
 62
     1
  6
CONTINUOUS
 10
-0.494971
 20
2.864247
  0
VERTEX
  8
EBENE_1
 62
     1
  6
CONTINUOUS
 10
-0.507198
 20
2.860136
  0
VERTEX
  8
EBENE_1
 62
     1
  6
CONTINUOUS
 10
-0.519616
 20
2.855629
  0
VERTEX
  8
EBENE_1
 62
     1
  6
CONTINUOUS
 10
-0.532276
 20
2.850680
  0
VERTEX
  8
EBENE_1
 62
     1
  6
CONTINUOUS
 10
-0.545231
 20
2.845244
  0
VERTEX
  8
EBENE_1
 62
     1
  6
CONTINUOUS
 10
-0.558533
 20
2.839274
  0
VERTEX
  8
EBENE_1
 62
     1
  6
CONTINUOUS
 10
-0.572234
 20
2.832726
  0
VERTEX
  8
EBENE_1
 62
     1
  6
CONTINUOUS
 10
-0.586386
 20
2.825552
  0
VERTEX
  8
EBENE_1
 62
     1
  6
CONTINUOUS
 10
-0.601041
 20
2.817709
  0
VERTEX
  8
EBENE_1
 62
     1
  6
CONTINUOUS
 10
-0.616252
 20
2.809150
  0
VERTEX
  8
EBENE_1
 62
     1
  6
CONTINUOUS
 10
-0.616252
 20
2.809150
  0
VERTEX
  8
EBENE_1
 62
     1
  6
CONTINUOUS
 10
-0.616256
 20
2.809150
  0
VERTEX
  8
EBENE_1
 62
     1
  6
CONTINUOUS
 10
-0.629732
 20
2.801365
  0
VERTEX
  8
EBENE_1
 62
     1
  6
CONTINUOUS
 10
-0.642885
 20
2.793077
  0
VERTEX
  8
EBENE_1
 62
     1
  6
CONTINUOUS
 10
-0.655701
 20
2.784297
  0
VERTEX
  8
EBENE_1
 62
     1
  6
CONTINUOUS
 10
-0.668167
 20
2.775035
  0
VERTEX
  8
EBENE_1
 62
     1
  6
CONTINUOUS
 10
-0.680269
 20
2.765302
  0
VERTEX
  8
EBENE_1
 62
     1
  6
CONTINUOUS
 10
-0.691992
 20
2.755108
  0
VERTEX
  8
EBENE_1
 62
     1
  6
CONTINUOUS
 10
-0.703325
 20
2.744465
  0
VERTEX
  8
EBENE_1
 62
     1
  6
CONTINUOUS
 10
-0.714252
 20
2.733382
  0
VERTEX
  8
EBENE_1
 62
     1
  6
CONTINUOUS
 10
-0.637496
 20
2.096634
  0
VERTEX
  8
EBENE_1
 62
     1
  6
CONTINUOUS
 10
-0.639469
 20
2.080520
  0
VERTEX
  8
EBENE_1
 62
     1
  6
CONTINUOUS
 10
-0.654839
 20
2.072240
  0
VERTEX
  8
EBENE_1
 62
     1
  6
CONTINUOUS
 10
-0.773366
 20
2.061138
  0
VERTEX
  8
EBENE_1
 62
     1
  6
CONTINUOUS
 10
-0.732669
 20
1.709154
  0
VERTEX
  8
EBENE_1
 62
     1
  6
CONTINUOUS
 10
-0.610449
 20
1.726547
  0
VERTEX
  8
EBENE_1
 62
     1
  6
CONTINUOUS
 10
-0.595362
 20
1.722406
  0
VERTEX
  8
EBENE_1
 62
     1
  6
CONTINUOUS
 10
-0.589512
 20
1.710673
  0
VERTEX
  8
EBENE_1
 62
     1
  6
CONTINUOUS
 10
-0.550331
 20
1.349689
  0
VERTEX
  8
EBENE_1
 62
     1
  6
CONTINUOUS
 10
-0.219980
 20
1.349689
  0
VERTEX
  8
EBENE_1
 62
     1
  6
CONTINUOUS
 10
-0.204504
 20
1.343713
  0
VERTEX
  8
EBENE_1
 62
     1
  6
CONTINUOUS
 10
-0.198543
 20
1.329972
  0
VERTEX
  8
EBENE_1
 62
     1
  6
CONTINUOUS
 10
-0.198543
 20
1.256150
  0
VERTEX
  8
EBENE_1
 62
     1
  6
CONTINUOUS
 10
0.275858
 20
1.256898
  0
VERTEX
  8
EBENE_1
 62
     1
  6
CONTINUOUS
 10
0.275953
 20
1.330398
  0
VERTEX
  8
EBENE_1
 62
     1
  6
CONTINUOUS
 10
0.282366
 20
1.344142
  0
VERTEX
  8
EBENE_1
 62
     1
  6
CONTINUOUS
 10
0.294492
 20
1.349689
  0
VERTEX
  8
EBENE_1
 62
     1
  6
CONTINUOUS
 10
0.632051
 20
1.349689
  0
VERTEX
  8
EBENE_1
 62
     1
  6
CONTINUOUS
 10
0.666461
 20
1.703091
  0
VERTEX
  8
EBENE_1
 62
     1
  6
CONTINUOUS
 10
0.673315
 20
1.715480
  0
VERTEX
  8
EBENE_1
 62
     1
  6
CONTINUOUS
 10
0.685874
 20
1.720106
  0
VERTEX
  8
EBENE_1
 62
     1
  6
CONTINUOUS
 10
0.804402
 20
1.713909
  0
VERTEX
  8
EBENE_1
 62
     1
  6
CONTINUOUS
 10
0.839874
 20
2.065406
  0
VERTEX
  8
EBENE_1
 62
     1
  6
CONTINUOUS
 10
0.720409
 20
2.074909
  0
VERTEX
  8
EBENE_1
 62
     1
  6
CONTINUOUS
 10
0.707768
 20
2.083614
  0
VERTEX
  8
EBENE_1
 62
     1
  6
CONTINUOUS
 10
0.704476
 20
2.099181
  0
SEQEND
  8
0
  0
ENDSEC
  0
EOF
