  0
SECTION
  2
HEADER
  9
$ACADVER
  1
AC1009
  9
$DWGCODEPAGE
  3
ansi_1252
  9
$INSBASE
 10
0.0
 20
0.0
 30
0.0
  9
$EXTMIN
 10
-76.6
 20
-60.5
 30
0.0
  9
$EXTMAX
 10
83.5
 20
58.8
 30
0.0
  9
$LIMMIN
 10
-395.552683
 20
-399.888483
  9
$LIMMAX
 10
402.531983
 20
398.196183
  9
$ORTHOMODE
 70
     0
  9
$REGENMODE
 70
     1
  9
$FILLMODE
 70
     1
  9
$QTEXTMODE
 70
     0
  9
$MIRRTEXT
 70
     1
  9
$DRAGMODE
 70
     2
  9
$LTSCALE
 40
1.0
  9
$OSMODE
 70
     0
  9
$ATTMODE
 70
     1
  9
$TEXTSIZE
 40
0.5
  9
$TRACEWID
 40
0.05
  9
$TEXTSTYLE
  7
STANDARD
  9
$CLAYER
  8
0
  9
$CELTYPE
  6
BYLAYER
  9
$CECOLOR
 62
     3
  9
$DIMSCALE
 40
1.0
  9
$DIMASZ
 40
0.06
  9
$DIMEXO
 40
0.0
  9
$DIMDLI
 40
0.0
  9
$DIMRND
 40
0.0
  9
$DIMDLE
 40
0.0
  9
$DIMEXE
 40
0.0
  9
$DIMTP
 40
0.0
  9
$DIMTM
 40
0.0
  9
$DIMTXT
 40
0.12
  9
$DIMCEN
 40
0.0
  9
$DIMTSZ
 40
0.0
  9
$DIMTOL
 70
     0
  9
$DIMLIM
 70
     0
  9
$DIMTIH
 70
     0
  9
$DIMTOH
 70
     0
  9
$DIMSE1
 70
     0
  9
$DIMSE2
 70
     0
  9
$DIMTAD
 70
     1
  9
$DIMZIN
 70
     1
  9
$DIMBLK
  1
TERMINATOROPEN
  9
$DIMASO
 70
     1
  9
$DIMSHO
 70
     1
  9
$DIMPOST
  1

  9
$DIMAPOST
  1

  9
$DIMALT
 70
     0
  9
$DIMALTD
 70
     4
  9
$DIMALTF
 40
0.03937
  9
$DIMLFAC
 40
1.0
  9
$DIMTOFL
 70
     1
  9
$DIMTVP
 40
0.0
  9
$DIMTIX
 70
     0
  9
$DIMSOXD
 70
     0
  9
$DIMSAH
 70
     0
  9
$DIMBLK1
  1

  9
$DIMBLK2
  1

  9
$DIMSTYLE
  2
STANDARD
  9
$DIMCLRD
 70
     7
  9
$DIMCLRE
 70
     7
  9
$DIMCLRT
 70
     0
  9
$DIMTFAC
 40
1.0
  9
$DIMGAP
 40
0.06
  9
$LUNITS
 70
     2
  9
$LUPREC
 70
     4
  9
$AXISMODE
 70
     0
  9
$AXISUNIT
 10
0.0
 20
0.0
  9
$SKETCHINC
 40
0.1
  9
$FILLETRAD
 40
0.5
  9
$AUNITS
 70
     0
  9
$AUPREC
 70
     4
  9
$MENU
  1
.
  9
$ELEVATION
 40
0.0
  9
$PELEVATION
 40
0.0
  9
$THICKNESS
 40
0.0
  9
$LIMCHECK
 70
     0
  9
$BLIPMODE
 70
     1
  9
$CHAMFERA
 40
0.5
  9
$CHAMFERB
 40
0.5
  9
$SKPOLY
 70
     0
  9
$TDCREATE
 40
2451789.537468704
  9
$TDUPDATE
 40
0.000000000
  9
$TDINDWG
 40
0.0000927546
  9
$TDUSRTIMER
 40
0.0000000000
  9
$USRTIMER
 70
     1
  9
$ANGBASE
 50
0.0
  9
$ANGDIR
 70
     0
  9
$PDMODE
 70
     0
  9
$PDSIZE
 40
0.0
  9
$PLINEWID
 40
0.0
  9
$COORDS
 70
     0
  9
$SPLFRAME
 70
     0
  9
$SPLINETYPE
 70
     6
  9
$SPLINESEGS
 70
     8
  9
$ATTDIA
 70
     0
  9
$ATTREQ
 70
     1
  9
$HANDLING
 70
     1
  9
$HANDSEED
  5
1A0
  9
$SURFTAB1
 70
     6
  9
$SURFTAB2
 70
     6
  9
$SURFTYPE
 70
     6
  9
$SURFU
 70
     6
  9
$SURFV
 70
     6
  9
$UCSNAME
  2

  9
$UCSORG
 10
0.0
 20
0.0
 30
0.0
  9
$UCSXDIR
 10
1.0
 20
0.0
 30
0.0
  9
$UCSYDIR
 10
0.0
 20
1.0
 30
0.0
  9
$PUCSNAME
  2

  9
$PUCSORG
 10
0.0
 20
0.0
 30
0.0
  9
$PUCSXDIR
 10
1.0
 20
0.0
 30
0.0
  9
$PUCSYDIR
 10
0.0
 20
1.0
 30
0.0
  9
$USERI1
 70
     0
  9
$USERI2
 70
     0
  9
$USERI3
 70
     0
  9
$USERI4
 70
     0
  9
$USERI5
 70
     0
  9
$USERR1
 40
0.0
  9
$USERR2
 40
0.0
  9
$USERR3
 40
0.0
  9
$USERR4
 40
0.0
  9
$USERR5
 40
0.0
  9
$WORLDVIEW
 70
     1
  9
$SHADEDGE
 70
     3
  9
$SHADEDIF
 70
    70
  9
$TILEMODE
 70
     1
  9
$MAXACTVP
 70
    64
  9
$PINSBASE
 10
0.0
 20
0.0
 30
0.0
  9
$PLIMCHECK
 70
     0
  9
$PEXTMIN
 10
1.000000E+20
 20
1.000000E+20
 30
1.000000E+20
  9
$PEXTMAX
 10
-1.000000E+20
 20
-1.000000E+20
 30
-1.000000E+20
  9
$PLIMMIN
 10
0.0
 20
0.0
  9
$PLIMMAX
 10
12.0
 20
9.0
  9
$UNITMODE
 70
     0
  9
$VISRETAIN
 70
     1
  9
$PLINEGEN
 70
     0
  9
$PSLTSCALE
 70
     0
  9
$TREEDEPTH
 70
  3020
  9
$DWGCODEPAGE
  3
ansi_1252
  0
ENDSEC
  0
SECTION
  2
TABLES
  0
TABLE
  2
VPORT
 70
     1
  0
VPORT
  2
*ACTIVE
 70
    64
 10
0.0
 20
0.0
 11
1.0
 21
1.0
 12
3.48965
 22
-35.891525
 13
0.0
 23
0.0
 14
0.1
 24
0.1
 15
0.1
 25
0.1
 16
0.0
 26
0.0
 36
1.0
 17
0.0
 27
0.0
 37
0.0
 40
96.309354
 41
2.580378
 42
50.0
 43
0.0
 44
0.0
 50
0.0
 51
0.0
 71
     0
 72
   100
 73
     1
 74
     2
 75
     0
 76
     0
 77
     0
 78
     1
  0
ENDTAB
  0
TABLE
  2
LTYPE
 70
     1
  0
LTYPE
  2
CONTINUOUS
 70
    64
  3
Solid line
 72
    65
 73
     0
 40
0.0
  0
ENDTAB
  0
TABLE
  2
LAYER
 70
     1
  0
LAYER
  2
0
 70
    64
 62
     7
  6
CONTINUOUS
  0
ENDTAB
  0
TABLE
  2
STYLE
 70
     2
  0
STYLE
  2
STANDARD
 70
    64
 40
0.0
 41
1.0
 50
0.0
 71
     0
 42
0.2
  3
txt
  4

  0
STYLE
  2
STYLE-INTL_ISO
 70
     0
 40
0.0
 41
1.0
 50
0.0
 71
     0
 42
0.5
  3
INTL_ISO.shx
  4

  0
ENDTAB
  0
TABLE
  2
VIEW
 70
     0
  0
ENDTAB
  0
TABLE
  2
UCS
 70
     0
  0
ENDTAB
  0
TABLE
  2
APPID
 70
     1
  0
APPID
  2
ACAD
 70
    64
  0
ENDTAB
  0
TABLE
  2
DIMSTYLE
 70
     8
  0
DIMSTYLE
  2
STANDARD
 70
     0
  3

  4

  5
TERMINATOROPEN
  6

  7

 40
1.0
 41
0.06
 42
0.0
 43
0.0
 44
0.0
 45
0.0
 46
0.0
 47
0.0
 48
0.0
 71
     0
 72
     0
 73
     0
 74
     0
 75
     0
 76
     0
 77
     1
 78
     1
140
0.12
141
0.0
142
0.0
143
0.03937
144
1.0
145
0.0
146
1.0
147
0.06
170
     0
171
     4
172
     1
173
     0
174
     0
175
     0
176
     7
177
     7
178
     0
  0
DIMSTYLE
  2
MSACTIVE
 70
     0
  3

  4

  5
TERMINATOROPEN
  6

  7

 40
1.0
 41
0.06
 42
0.0
 43
0.0
 44
0.0
 45
0.0
 46
0.0
 47
0.0
 48
0.0
 71
     0
 72
     0
 73
     0
 74
     0
 75
     0
 76
     0
 77
     1
 78
     1
140
0.12
141
0.0
142
0.0
143
0.03937
144
1.0
145
0.0
146
1.0
147
0.06
170
     0
171
     4
172
     1
173
     0
174
     0
175
     0
176
     7
177
     7
178
     0
  0
DIMSTYLE
  2
50STL
 70
     0
  3

  4

  5
TERMINATOROPEN
  6

  7

 40
1.0
 41
0.06
 42
0.0
 43
0.0
 44
0.0
 45
0.0
 46
0.0
 47
0.0
 48
0.0
 71
     0
 72
     0
 73
     0
 74
     0
 75
     0
 76
     0
 77
     1
 78
     1
140
0.12
141
0.0
142
0.0
143
0.03937
144
1.0
145
0.0
146
1.0
147
0.06
170
     0
171
     4
172
     1
173
     0
174
     0
175
     0
176
     7
177
     7
178
     0
  0
DIMSTYLE
  2
25STL
 70
     0
  3

  4

  5
TERMINATOROPEN
  6

  7

 40
1.0
 41
0.03
 42
0.0
 43
0.0
 44
0.0
 45
0.0
 46
0.0
 47
0.0
 48
0.0
 71
     0
 72
     0
 73
     0
 74
     0
 75
     0
 76
     0
 77
     1
 78
     1
140
0.06
141
0.0
142
0.0
143
0.03937
144
1.0
145
0.0
146
1.0
147
0.03
170
     0
171
     4
172
     1
173
     0
174
     0
175
     0
176
     7
177
     7
178
     0
  0
DIMSTYLE
  2
20STL
 70
     0
  3

  4

  5
TERMINATOROPEN
  6

  7

 40
1.0
 41
0.024
 42
0.0
 43
0.0
 44
0.0
 45
0.0
 46
0.0
 47
0.0
 48
0.0
 71
     0
 72
     0
 73
     0
 74
     0
 75
     0
 76
     0
 77
     1
 78
     1
140
0.048
141
0.0
142
0.0
143
0.03937
144
1.0
145
0.0
146
1.0
147
0.024
170
     0
171
     4
172
     1
173
     0
174
     0
175
     0
176
     7
177
     7
178
     0
  0
DIMSTYLE
  2
100STL
 70
     0
  3

  4

  5
TERMINATOROPEN
  6

  7

 40
1.0
 41
0.1
 42
0.0
 43
0.0
 44
0.0
 45
0.0
 46
0.0
 47
0.0
 48
0.0
 71
     0
 72
     0
 73
     0
 74
     0
 75
     0
 76
     0
 77
     1
 78
     1
140
0.2
141
0.0
142
0.0
143
0.03937
144
1.0
145
0.0
146
1.0
147
0.1
170
     0
171
     4
172
     1
173
     0
174
     0
175
     0
176
     7
177
     7
178
     0
  0
DIMSTYLE
  2
200STL
 70
     0
  3

  4

  5
TERMINATOROPEN
  6

  7

 40
1.0
 41
0.2
 42
0.0
 43
0.0
 44
0.0
 45
0.0
 46
0.0
 47
0.0
 48
0.0
 71
     0
 72
     0
 73
     0
 74
     0
 75
     0
 76
     0
 77
     1
 78
     1
140
0.4
141
0.0
142
0.0
143
0.03937
144
1.0
145
0.0
146
1.0
147
0.2
170
     0
171
     4
172
     1
173
     0
174
     0
175
     0
176
     7
177
     7
178
     0
  0
DIMSTYLE
  2
10TL
 70
     0
  3

  4

  5
TERMINATOROPEN
  6

  7

 40
1.0
 41
0.01
 42
0.0
 43
0.0
 44
0.0
 45
0.0
 46
0.0
 47
0.0
 48
0.0
 71
     0
 72
     0
 73
     0
 74
     0
 75
     0
 76
     0
 77
     1
 78
     1
140
0.02
141
0.0
142
0.0
143
0.03937
144
1.0
145
0.0
146
1.0
147
0.01
170
     0
171
     4
172
     1
173
     0
174
     0
175
     0
176
     7
177
     7
178
     0
  0
ENDTAB
  0
ENDSEC
  0
SECTION
  2
BLOCKS
  0
BLOCK
  8
0
  6
CONTINUOUS
 62
     0
  5
143
  2
TERMINATOROPEN
 70
    64
 10
0.0
 20
0.0
 30
0.0
  3
TerminatorOpen
  0
LINE
  8
0
  6
CONTINUOUS
 62
     0
  5
144
 10
0.0
 20
0.0
 30
0.0
 11
-1.0
 21
0.0
 31
0.0
  0
LINE
  8
0
  6
CONTINUOUS
 62
     0
  5
145
 10
0.0
 20
0.0
 30
0.0
 11
-1.0
 21
0.5
 31
0.0
  0
LINE
  8
0
  6
CONTINUOUS
 62
     0
  5
146
 10
0.0
 20
0.0
 30
0.0
 11
-1.0
 21
-0.5
 31
0.0
  0
ENDBLK
  8
0
  6
CONTINUOUS
 62
     0
  5
147
  0
ENDSEC
  0
SECTION
  2
ENTITIES
  0
LINE
  8
0
  6
CONTINUOUS
 62
     3
  5
AD
 10
-76.510345
 20
58.753899
 30
0.0
 11
83.489655
 21
58.753899
 31
0.0
  0
LINE
  8
0
  6
CONTINUOUS
 62
     3
  5
AE
 10
-76.510345
 20
-60.446101
 30
0.0
 11
83.489655
 21
-60.446101
 31
0.0
  0
LINE
  8
0
  6
CONTINUOUS
 62
     3
  5
AF
 10
-76.510345
 20
-60.446101
 30
0.0
 11
-76.510345
 21
58.753899
 31
0.0
  0
LINE
  8
0
  6
CONTINUOUS
 62
     3
  5
B0
 10
83.489655
 20
-60.446101
 30
0.0
 11
83.489655
 21
58.753899
 31
0.0
  0
CIRCLE
  8
0
  6
CONTINUOUS
 62
     3
  5
B1
 10
3.489655
 20
-0.846101
 30
0.0
 40
26.8
  0
LINE
  8
0
  6
CONTINUOUS
 62
     3
  5
B2
 10
-67.337127
 20
-48.443366
 30
0.0
 11
-26.161243
 21
-18.618671
 31
0.0
  0
LINE
  8
0
  6
CONTINUOUS
 62
     3
  5
B3
 10
-60.398801
 20
-50.82636
 30
0.0
 11
-22.64159
 21
-23.477894
 31
0.0
  0
LINE
  8
0
  6
CONTINUOUS
 62
     3
  5
B4
 10
-67.337127
 20
46.751164
 30
0.0
 11
-26.161243
 21
16.926469
 31
0.0
  0
LINE
  8
0
  6
CONTINUOUS
 62
     3
  5
B5
 10
-60.398801
 20
49.134158
 30
0.0
 11
-22.64159
 21
21.785691
 31
0.0
  0
LINE
  8
0
  6
CONTINUOUS
 62
     3
  5
B6
 10
-30.949276
 20
-3.846101
 30
0.0
 11
-68.510345
 21
-3.846101
 31
0.0
  0
LINE
  8
0
  6
CONTINUOUS
 62
     3
  5
B7
 10
-30.949276
 20
2.153899
 30
0.0
 11
-68.510345
 21
2.153899
 31
0.0
  0
LINE
  8
0
  6
CONTINUOUS
 62
     3
  5
B8
 10
0.489655
 20
33.59283
 30
0.0
 11
0.489655
 21
50.753899
 31
0.0
  0
LINE
  8
0
  6
CONTINUOUS
 62
     3
  5
B9
 10
6.489655
 20
33.59283
 30
0.0
 11
6.489655
 21
50.753899
 31
0.0
  0
LINE
  8
0
  6
CONTINUOUS
 62
     3
  5
BA
 10
0.489655
 20
-35.285033
 30
0.0
 11
0.489655
 21
-52.446101
 31
0.0
  0
LINE
  8
0
  6
CONTINUOUS
 62
     3
  5
BB
 10
6.489655
 20
-35.285033
 30
0.0
 11
6.489655
 21
-52.446101
 31
0.0
  0
LINE
  8
0
  6
CONTINUOUS
 62
     3
  5
BC
 10
74.316438
 20
-48.443366
 30
0.0
 11
33.140553
 21
-18.618671
 31
0.0
  0
LINE
  8
0
  6
CONTINUOUS
 62
     3
  5
BD
 10
67.378111
 20
-50.82636
 30
0.0
 11
29.6209
 21
-23.477894
 31
0.0
  0
LINE
  8
0
  6
CONTINUOUS
 62
     3
  5
BE
 10
74.316438
 20
46.751164
 30
0.0
 11
33.140553
 21
16.926469
 31
0.0
  0
LINE
  8
0
  6
CONTINUOUS
 62
     3
  5
BF
 10
67.378111
 20
49.134158
 30
0.0
 11
29.6209
 21
21.785691
 31
0.0
  0
LINE
  8
0
  6
CONTINUOUS
 62
     3
  5
C0
 10
37.928587
 20
-3.846101
 30
0.0
 11
75.489655
 21
-3.846101
 31
0.0
  0
LINE
  8
0
  6
CONTINUOUS
 62
     3
  5
C1
 10
37.928587
 20
2.153899
 30
0.0
 11
75.489655
 21
2.153899
 31
0.0
  0
LINE
  8
0
  6
CONTINUOUS
 62
     3
  5
C2
 10
-70.510345
 20
-46.823625
 30
0.0
 11
-70.510345
 21
-5.846101
 31
0.0
  0
LINE
  8
0
  6
CONTINUOUS
 62
     3
  5
C3
 10
-70.510345
 20
4.153899
 30
0.0
 11
-70.510345
 21
45.131423
 31
0.0
  0
LINE
  8
0
  6
CONTINUOUS
 62
     3
  5
C4
 10
-59.225583
 20
52.753899
 30
0.0
 11
-1.510345
 21
52.753899
 31
0.0
  0
LINE
  8
0
  6
CONTINUOUS
 62
     3
  5
C5
 10
8.489655
 20
52.753899
 30
0.0
 11
66.204894
 21
52.753899
 31
0.0
  0
LINE
  8
0
  6
CONTINUOUS
 62
     3
  5
C6
 10
77.489655
 20
4.153899
 30
0.0
 11
77.489655
 21
45.131423
 31
0.0
  0
LINE
  8
0
  6
CONTINUOUS
 62
     3
  5
C7
 10
77.489655
 20
-46.823625
 30
0.0
 11
77.489655
 21
-5.846101
 31
0.0
  0
LINE
  8
0
  6
CONTINUOUS
 62
     3
  5
C8
 10
-59.225583
 20
-54.446101
 30
0.0
 11
-1.510345
 21
-54.446101
 31
0.0
  0
LINE
  8
0
  6
CONTINUOUS
 62
     3
  5
C9
 10
8.489655
 20
-54.446101
 30
0.0
 11
66.204894
 21
-54.446101
 31
0.0
  0
ARC
  8
0
  6
CONTINUOUS
 62
     3
  5
CA
 10
3.489655
 20
-0.846101
 30
0.0
 40
32.8
 50
224.17747
 51
261.739258
  0
ARC
  8
0
  6
CONTINUOUS
 62
     3
  5
CB
 10
3.489655
 20
-0.846101
 30
0.0
 40
32.8
 50
188.260742
 51
207.655986
  0
ARC
  8
0
  6
CONTINUOUS
 62
     3
  5
CC
 10
3.489655
 20
-0.846101
 30
0.0
 40
32.8
 50
152.344014
 51
171.739258
  0
ARC
  8
0
  6
CONTINUOUS
 62
     3
  5
CD
 10
3.489655
 20
-0.846101
 30
0.0
 40
32.8
 50
98.260742
 51
135.82253
  0
ARC
  8
0
  6
CONTINUOUS
 62
     3
  5
CE
 10
3.489655
 20
-0.846101
 30
0.0
 40
32.8
 50
44.17747
 51
81.739258
  0
ARC
  8
0
  6
CONTINUOUS
 62
     3
  5
CF
 10
3.489655
 20
-0.846101
 30
0.0
 40
32.8
 50
8.260742
 51
27.655986
  0
ARC
  8
0
  6
CONTINUOUS
 62
     3
  5
D0
 10
3.489655
 20
-0.846101
 30
0.0
 40
32.8
 50
278.260742
 51
315.82253
  0
ARC
  8
0
  6
CONTINUOUS
 62
     3
  5
D1
 10
3.489655
 20
-0.846101
 30
0.0
 40
32.8
 50
332.344014
 51
351.739258
  0
ARC
  8
0
  6
CONTINUOUS
 62
     3
  5
D2
 10
-21.468372
 20
-25.097635
 30
0.0
 40
2.0
 50
44.17747
 51
125.916728
  0
ARC
  8
0
  6
CONTINUOUS
 62
     3
  5
D3
 10
1.510345
 20
-35.285033
 30
0.0
 40
2.0
 50
98.260742
 51
180.0
210
0.0
220
0.0
230
-1.0
  0
ARC
  8
0
  6
CONTINUOUS
 62
     3
  5
D4
 10
1.510345
 20
-52.446101
 30
0.0
 40
2.0
 50
180.0
 51
270.0
210
0.0
220
0.0
230
-1.0
  0
ARC
  8
0
  6
CONTINUOUS
 62
     3
  5
D5
 10
59.225583
 20
-52.446101
 30
0.0
 40
2.0
 50
270.0
 51
54.083272
210
0.0
220
0.0
230
-1.0
  0
ARC
  8
0
  6
CONTINUOUS
 62
     3
  5
D6
 10
68.510345
 20
-46.823625
 30
0.0
 40
2.0
 50
234.083272
 51
0.0
210
0.0
220
0.0
230
-1.0
  0
ARC
  8
0
  6
CONTINUOUS
 62
     3
  5
D7
 10
68.510345
 20
-5.846101
 30
0.0
 40
2.0
 50
0.0
 51
90.0
210
0.0
220
0.0
230
-1.0
  0
ARC
  8
0
  6
CONTINUOUS
 62
     3
  5
D8
 10
-30.949276
 20
-5.846101
 30
0.0
 40
2.0
 50
8.260742
 51
90.0
  0
ARC
  8
0
  6
CONTINUOUS
 62
     3
  5
D9
 10
27.33446
 20
-16.998931
 30
0.0
 40
2.0
 50
152.344014
 51
234.083272
210
0.0
220
0.0
230
-1.0
  0
ARC
  8
0
  6
CONTINUOUS
 62
     3
  5
DA
 10
68.510345
 20
4.153899
 30
0.0
 40
2.0
 50
270.0
 51
0.0
210
0.0
220
0.0
230
-1.0
  0
ARC
  8
0
  6
CONTINUOUS
 62
     3
  5
DB
 10
68.510345
 20
45.131423
 30
0.0
 40
2.0
 50
0.0
 51
125.916728
210
0.0
220
0.0
230
-1.0
  0
ARC
  8
0
  6
CONTINUOUS
 62
     3
  5
DC
 10
-27.33446
 20
15.306728
 30
0.0
 40
2.0
 50
332.344014
 51
54.083272
  0
ARC
  8
0
  6
CONTINUOUS
 62
     3
  5
DD
 10
30.949276
 20
4.153899
 30
0.0
 40
2.0
 50
188.260742
 51
270.0
210
0.0
220
0.0
230
-1.0
  0
ARC
  8
0
  6
CONTINUOUS
 62
     3
  5
DE
 10
21.468372
 20
23.405432
 30
0.0
 40
2.0
 50
224.17747
 51
305.916728
210
0.0
220
0.0
230
-1.0
  0
ARC
  8
0
  6
CONTINUOUS
 62
     3
  5
DF
 10
59.225583
 20
50.753899
 30
0.0
 40
2.0
 50
305.916728
 51
90.0
210
0.0
220
0.0
230
-1.0
  0
ARC
  8
0
  6
CONTINUOUS
 62
     3
  5
E0
 10
1.510345
 20
50.753899
 30
0.0
 40
2.0
 50
90.0
 51
180.0
210
0.0
220
0.0
230
-1.0
  0
ARC
  8
0
  6
CONTINUOUS
 62
     3
  5
E1
 10
-1.510345
 20
33.59283
 30
0.0
 40
2.0
 50
278.260742
 51
0.0
  0
ARC
  8
0
  6
CONTINUOUS
 62
     3
  5
E2
 10
-8.489655
 20
50.753899
 30
0.0
 40
2.0
 50
360.0
 51
90.0
210
0.0
220
0.0
230
-1.0
  0
ARC
  8
0
  6
CONTINUOUS
 62
     3
  5
E3
 10
-66.204894
 20
50.753899
 30
0.0
 40
2.0
 50
90.0
 51
234.083272
210
0.0
220
0.0
230
-1.0
  0
ARC
  8
0
  6
CONTINUOUS
 62
     3
  5
E4
 10
28.447682
 20
23.405432
 30
0.0
 40
2.0
 50
224.17747
 51
305.916728
  0
ARC
  8
0
  6
CONTINUOUS
 62
     3
  5
E5
 10
-8.489655
 20
33.59283
 30
0.0
 40
2.0
 50
278.260742
 51
0.0
210
0.0
220
0.0
230
-1.0
  0
ARC
  8
0
  6
CONTINUOUS
 62
     3
  5
E6
 10
-34.313771
 20
15.306728
 30
0.0
 40
2.0
 50
332.344014
 51
54.083272
210
0.0
220
0.0
230
-1.0
  0
ARC
  8
0
  6
CONTINUOUS
 62
     3
  5
E7
 10
37.928587
 20
4.153899
 30
0.0
 40
2.0
 50
188.260742
 51
270.0
  0
ARC
  8
0
  6
CONTINUOUS
 62
     3
  5
E8
 10
75.489655
 20
4.153899
 30
0.0
 40
2.0
 50
270.0
 51
0.0
  0
ARC
  8
0
  6
CONTINUOUS
 62
     3
  5
E9
 10
75.489655
 20
45.131423
 30
0.0
 40
2.0
 50
0.0
 51
125.916728
  0
ARC
  8
0
  6
CONTINUOUS
 62
     3
  5
EA
 10
75.489655
 20
-5.846101
 30
0.0
 40
2.0
 50
0.0
 51
90.0
  0
ARC
  8
0
  6
CONTINUOUS
 62
     3
  5
EB
 10
-37.928587
 20
-5.846101
 30
0.0
 40
2.0
 50
8.260742
 51
90.0
210
0.0
220
0.0
230
-1.0
  0
ARC
  8
0
  6
CONTINUOUS
 62
     3
  5
EC
 10
34.313771
 20
-16.998931
 30
0.0
 40
2.0
 50
152.344014
 51
234.083272
  0
ARC
  8
0
  6
CONTINUOUS
 62
     3
  5
ED
 10
75.489655
 20
-46.823625
 30
0.0
 40
2.0
 50
234.083272
 51
360.0
  0
ARC
  8
0
  6
CONTINUOUS
 62
     3
  5
EE
 10
-66.204894
 20
-52.446101
 30
0.0
 40
2.0
 50
125.916728
 51
270.0
210
0.0
220
0.0
230
-1.0
  0
ARC
  8
0
  6
CONTINUOUS
 62
     3
  5
EF
 10
-8.489655
 20
-52.446101
 30
0.0
 40
2.0
 50
270.0
 51
0.0
210
0.0
220
0.0
230
-1.0
  0
ARC
  8
0
  6
CONTINUOUS
 62
     3
  5
F0
 10
8.489655
 20
-35.285033
 30
0.0
 40
2.0
 50
98.260742
 51
180.0
  0
ARC
  8
0
  6
CONTINUOUS
 62
     3
  5
F1
 10
-28.447682
 20
-25.097635
 30
0.0
 40
2.0
 50
44.17747
 51
125.916728
210
0.0
220
0.0
230
-1.0
  0
CIRCLE
  8
0
  6
CONTINUOUS
 62
     3
  5
F2
 10
-66.298562
 20
52.040219
 30
0.0
 40
0.45
  0
CIRCLE
  8
0
  6
CONTINUOUS
 62
     3
  5
F3
 10
66.298562
 20
-53.732422
 30
0.0
 40
0.45
210
0.0
220
0.0
230
-1.0
  0
CIRCLE
  8
0
  6
CONTINUOUS
 62
     3
  5
F4
 10
73.277873
 20
-53.732422
 30
0.0
 40
0.45
  0
CIRCLE
  8
0
  6
CONTINUOUS
 62
     3
  5
F5
 10
-73.277873
 20
52.040219
 30
0.0
 40
0.45
210
0.0
220
0.0
230
-1.0
  0
ENDSEC
  0
EOF
