  0
SECTION
  2
HEADER
  9
$ACADVER
  1
AC1014
  9
$ACADMAINTVER
 70
           0
  9
$DWGCODEPAGE
  3
ANSI_1252
  9
$INSBASE
 10
0.0
 20
0.0
 30
0.0
  9
$EXTMIN
 10
0.0
 20
0.0
 30
0.0
  9
$EXTMAX
 10
100.0
 20
50.0
 30
0.0
  9
$LIMMIN
 10
0.0
 20
0.0
  9
$LIMMAX
 10
297.0000000001
 20
210.0000000001
  9
$ORTHOMODE
 70
           0
  9
$REGENMODE
 70
           1
  9
$FILLMODE
 70
           1
  9
$QTEXTMODE
 70
           0
  9
$MIRRTEXT
 70
           1
  9
$DRAGMODE
 70
           1
  9
$LTSCALE
 40
1.0
  9
$OSMODE
 70
           0
  9
$ATTMODE
 70
           1
  9
$TEXTSIZE
 40
5.0
  9
$TRACEWID
 40
1.0
  9
$TEXTSTYLE
  7
STANDARD
  9
$CLAYER
  8
0
  9
$CELTYPE
  6
CONTINUOUS
  9
$CECOLOR
 62
           7
  9
$CELTSCALE
 40
1.0
  9
$DELOBJ
 70
           1
  9
$DISPSILH
 70
           0
  9
$DIMSCALE
 40
1.0
  9
$DIMASZ
 40
3.0
  9
$DIMEXO
 40
1.0
  9
$DIMDLI
 40
7.5
  9
$DIMRND
 40
0.01
  9
$DIMDLE
 40
0.0
  9
$DIMEXE
 40
2.0
  9
$DIMTP
 40
0.0
  9
$DIMTM
 40
0.0
  9
$DIMTXT
 40
3.0
  9
$DIMCEN
 40
0.09
  9
$DIMTSZ
 40
0.0
  9
$DIMTOL
 70
           0
  9
$DIMLIM
 70
           0
  9
$DIMTIH
 70
           1
  9
$DIMTOH
 70
           0
  9
$DIMSE1
 70
           0
  9
$DIMSE2
 70
           0
  9
$DIMTAD
 70
           1
  9
$DIMZIN
 70
           3
  9
$DIMBLK
  1

  9
$DIMASO
 70
           0
  9
$DIMSHO
 70
           1
  9
$DIMPOST
  1
<>mm
  9
$DIMAPOST
  1

  9
$DIMALT
 70
           0
  9
$DIMALTD
 70
           2
  9
$DIMALTF
 40
1.0
  9
$DIMLFAC
 40
1.0
  9
$DIMTOFL
 70
           1
  9
$DIMTVP
 40
0.0
  9
$DIMTIX
 70
           0
  9
$DIMSOXD
 70
           0
  9
$DIMSAH
 70
           0
  9
$DIMBLK1
  1

  9
$DIMBLK2
  1

  9
$DIMSTYLE
  2
STANDARD
  9
$DIMCLRD
 70
           7
  9
$DIMCLRE
 70
           7
  9
$DIMCLRT
 70
           7
  9
$DIMTFAC
 40
1.0
  9
$DIMGAP
 40
2.0
  9
$DIMJUST
 70
           0
  9
$DIMSD1
 70
           0
  9
$DIMSD2
 70
           0
  9
$DIMTOLJ
 70
           1
  9
$DIMTZIN
 70
           0
  9
$DIMALTZ
 70
           0
  9
$DIMALTTZ
 70
           0
  9
$DIMFIT
 70
           0
  9
$DIMUPT
 70
           0
  9
$DIMUNIT
 70
           2
  9
$DIMDEC
 70
           2
  9
$DIMTDEC
 70
           3
  9
$DIMALTU
 70
           2
  9
$DIMALTTD
 70
           2
  9
$DIMTXSTY
  7
STANDARD
  9
$DIMAUNIT
 70
           0
  9
$LUNITS
 70
           2
  9
$LUPREC
 70
           2
  9
$SKETCHINC
 40
1.0
  9
$FILLETRAD
 40
5.0
  9
$AUNITS
 70
           0
  9
$AUPREC
 70
           2
  9
$MENU
  1
acad
  9
$ELEVATION
 40
0.0
  9
$PELEVATION
 40
0.0
  9
$THICKNESS
 40
0.0
  9
$LIMCHECK
 70
           0
  9
$BLIPMODE
 70
           1
  9
$CHAMFERA
 40
0.0
  9
$CHAMFERB
 40
0.0
  9
$CHAMFERC
 40
0.0
  9
$CHAMFERD
 40
0.0
  9
$SKPOLY
 70
           0
  9
$TDCREATE
 40
0.000000000
  9
$TDUPDATE
 40
2449702.667959363
  9
$TDINDWG
 40
0.0000000000
  9
$TDUSRTIMER
 40
0.0000000000
  9
$USRTIMER
 70
           1
  9
$ANGBASE
 50
0.0
  9
$ANGDIR
 70
           0
  9
$PDMODE
 70
           0
  9
$PDSIZE
 40
0.0
  9
$PLINEWID
 40
0.0
  9
$COORDS
 70
           0
  9
$SPLFRAME
 70
           0
  9
$SPLINETYPE
 70
           5
  9
$SPLINESEGS
 70
          20
  9
$ATTDIA
 70
           0
  9
$ATTREQ
 70
           1
  9
$HANDLING
 70
           1
  9
$HANDSEED
  5
F9
  9
$SURFTAB1
 70
           6
  9
$SURFTAB2
 70
           6
  9
$SURFTYPE
 70
           6
  9
$SURFU
 70
           6
  9
$SURFV
 70
           6
  9
$UCSNAME
  2

  9
$UCSORG
 10
0.0
 20
0.0
 30
0.0
  9
$UCSXDIR
 10
1.0
 20
0.0
 30
0.0
  9
$UCSYDIR
 10
0.0
 20
1.0
 30
0.0
  9
$PUCSNAME
  2

  9
$PUCSORG
 10
0.0
 20
0.0
 30
0.0
  9
$PUCSXDIR
 10
1.0
 20
0.0
 30
0.0
  9
$PUCSYDIR
 10
0.0
 20
1.0
 30
0.0
  9
$USERI1
 70
           0
  9
$USERI2
 70
           0
  9
$USERI3
 70
           0
  9
$USERI4
 70
           0
  9
$USERI5
 70
           0
  9
$USERR1
 40
0.0
  9
$USERR2
 40
0.0
  9
$USERR3
 40
0.0
  9
$USERR4
 40
0.0
  9
$USERR5
 40
0.0
  9
$WORLDVIEW
 70
           1
  9
$SHADEDGE
 70
           3
  9
$SHADEDIF
 70
          70
  9
$TILEMODE
 70
           1
  9
$MAXACTVP
 70
          16
  9
$PINSBASE
 10
0.0
 20
0.0
 30
0.0
  9
$PLIMCHECK
 70
           0
  9
$PEXTMIN
 10
0.0
 20
0.0
 30
0.0
  9
$PEXTMAX
 10
297.0
 20
210.0
 30
0.0
  9
$PLIMMIN
 10
0.0
 20
0.0
  9
$PLIMMAX
 10
297.0
 20
210.0
  9
$UNITMODE
 70
           0
  9
$VISRETAIN
 70
           0
  9
$PLINEGEN
 70
           1
  9
$PSLTSCALE
 70
           1
  9
$TREEDEPTH
 70
        3020
  9
$PICKSTYLE
 70
           1
  9
$CMLSTYLE
  2
STANDARD
  9
$CMLJUST
 70
           0
  9
$CMLSCALE
 40
1.0
  9
$PROXYGRAPHICS
 70
           0
  9
$MEASUREMENT
 70
           0
  0
ENDSEC
  0
SECTION
  2
CLASSES
  0
CLASS
  1
LWPOLYLINE
  2
AcDbPolyline
  3
"AutoCAD"
 90
        0
280
           0
281
           1
  0
CLASS
  1
IMAGE
  2
AcDbRasterImage
  3
ISM
 90
      127
280
           0
281
           1
  0
CLASS
  1
OLE2FRAME
  2
AcDbOle2Frame
  3
""
 90
        0
280
           0
281
           1
  0
CLASS
  1
HATCH
  2
AcDbHatch
  3
"ACAD_SEDONA"
 90
        0
280
           0
281
           1
  0
CLASS
  1
DICTIONARYVAR
  2
AcDbDictionaryVar
  3
"AutoCAD"
 90
        0
280
           0
281
           0
  0
CLASS
  1
RASTERVARIABLES
  2
AcDbRasterVariables
  3
ISM
 90
        0
280
           0
281
           0
  0
CLASS
  1
IMAGEDEF
  2
AcDbRasterImageDef
  3
ISM
 90
        0
280
           0
281
           0
  0
CLASS
  1
IMAGEDEF_REACTOR
  2
AcDbRasterImageDefReactor
  3
ISM
 90
        1
280
           0
281
           0
  0
CLASS
  1
IDBUFFER
  2
AcDbIdBuffer
  3
"Acad"
 90
        0
280
           0
281
           0
  0
CLASS
  1
SPATIAL_FILTER
  2
AcDbSpatialFilter
  3
"Acad"
 90
        0
280
           0
281
           0
  0
CLASS
  1
XRECORD
  2
AcDbXrecord
  3
"<Built In>"
 90
        0
280
           0
281
           0
  0
CLASS
  1
SORTENTSTABLE
  2
AcDbSortentsTable
  3
"AutoCAD"
 90
        0
280
           0
281
           0
  0
CLASS
  1
LAYER_INDEX
  2
AcDbLayerIndex
  3
"Acad"
 90
        0
280
           0
281
           0
  0
CLASS
  1
SPATIAL_INDEX
  2
AcDbSpatialIndex
  3
"Acad"
 90
        0
280
           0
281
           0
  0
CLASS
  1
OBJECT_PTR
  2
CAseDLPNTableRecord
  3
"ASE-LPNTableRecord"
 90
        1
280
           0
281
           0
  0
CLASS
  1
LAYOUT
  2
AcDbLayout
  3
"AutoCAD 2000"
 90
        1
280
           0
281
           0
  0
CLASS
  1
PLOTSETTINGS
  2
AcDbPlotSettings
  3
"AutoCAD 2000"
 90
        1
280
           0
281
           0
  0
CLASS
  1
ACDBDICTIONARYWDFLT
  2
AcDbDictionaryWithDefault
  3
"AutoCAD 2000"
 90
        1
280
           0
281
           0
  0
CLASS
  1
ACDBPLACEHOLDER
  2
AcDbPlaceHolder
  3
"AutoCAD 2000"
 90
        1
280
           0
281
           0
  0
ENDSEC
  0
SECTION
  2
TABLES
  0
TABLE
  2
VPORT
  5
7
100
AcDbSymbolTable
 70
           1
  0
VPORT
  5
15
100
AcDbSymbolTableRecord
100
AcDbViewportTableRecord
  2
*ACTIVE
 70
           0
 10
0.0
 20
0.0
 11
1.0
 21
1.0
 12
0.0
 22
0.0
 13
0.0
 23
0.0
 14
5.0
 24
5.0
 15
5.0
 25
5.0
 16
0.0
 26
0.0
 36
1.0
 17
70.351738268726
 27
30.61791955698
 37
0.0
 40
126.01014893617
 41
1.239103362391
 42
50.0
 43
0.0
 44
0.0
 50
0.0
 51
0.0
 71
           0
 72
         100
 73
           1
 74
           1
 75
           0
 76
           1
 77
           0
 78
           0
  0
ENDTAB
  0
TABLE
  2
LTYPE
  5
4
100
AcDbSymbolTable
 70
          24
  0
LTYPE
  5
11
100
AcDbSymbolTableRecord
100
AcDbLinetypeTableRecord
  2
BYBLOCK
 70
          64
  3

 72
          65
 73
           0
 40
0.0
  0
LTYPE
  5
12
100
AcDbSymbolTableRecord
100
AcDbLinetypeTableRecord
  2
BYLAYER
 70
          64
  3

 72
          65
 73
           0
 40
0.0
  0
LTYPE
  5
13
100
AcDbSymbolTableRecord
100
AcDbLinetypeTableRecord
  2
CONTINUOUS
 70
          64
  3
Solid line
 72
          65
 73
           0
 40
0.0
  0
LTYPE
  5
1E
100
AcDbSymbolTableRecord
100
AcDbLinetypeTableRecord
  2
DURCHGEHEND
 70
           0
  3
Durchgehend
 72
          65
 73
           0
 40
0.0
  0
LTYPE
  5
1F
100
AcDbSymbolTableRecord
100
AcDbLinetypeTableRecord
  2
RAND
 70
           0
  3
Rand
 72
          65
 73
           6
 40
1.75
 49
0.5
 74
           0
 49
-0.25
 74
           0
 49
0.5
 74
           0
 49
-0.25
 74
           0
 49
0.0
 74
           0
 49
-0.25
 74
           0
  0
LTYPE
  5
20
100
AcDbSymbolTableRecord
100
AcDbLinetypeTableRecord
  2
MITTE
 70
           0
  3
Mitte
 72
          65
 73
           4
 40
2.0
 49
1.25
 74
           0
 49
-0.25
 74
           0
 49
0.25
 74
           0
 49
-0.25
 74
           0
  0
LTYPE
  5
21
100
AcDbSymbolTableRecord
100
AcDbLinetypeTableRecord
  2
STRICHPUNKT
 70
           0
  3
Strichpunkt
 72
          65
 73
           4
 40
1.0
 49
0.5
 74
           0
 49
-0.25
 74
           0
 49
0.0
 74
           0
 49
-0.25
 74
           0
  0
LTYPE
  5
22
100
AcDbSymbolTableRecord
100
AcDbLinetypeTableRecord
  2
GESTRICHELT
 70
           0
  3
Gestrichelt
 72
          65
 73
           2
 40
0.75
 49
0.5
 74
           0
 49
-0.25
 74
           0
  0
LTYPE
  5
23
100
AcDbSymbolTableRecord
100
AcDbLinetypeTableRecord
  2
TEILEN
 70
           0
  3
Teilen
 72
          65
 73
           6
 40
1.25
 49
0.5
 74
           0
 49
-0.25
 74
           0
 49
0.0
 74
           0
 49
-0.25
 74
           0
 49
0.0
 74
           0
 49
-0.25
 74
           0
  0
LTYPE
  5
24
100
AcDbSymbolTableRecord
100
AcDbLinetypeTableRecord
  2
PUNKT
 70
           0
  3
Punkt
 72
          65
 73
           2
 40
0.25
 49
0.0
 74
           0
 49
-0.25
 74
           0
  0
LTYPE
  5
25
100
AcDbSymbolTableRecord
100
AcDbLinetypeTableRecord
  2
VERDECKT
 70
           0
  3
Verdeckt
 72
          65
 73
           2
 40
0.375
 49
0.25
 74
           0
 49
-0.125
 74
           0
  0
LTYPE
  5
26
100
AcDbSymbolTableRecord
100
AcDbLinetypeTableRecord
  2
$INVISIBLE
 70
           0
  3
$INVISIBLE
 72
          65
 73
           2
 40
200.0
 49
-100.0
 74
           0
 49
-100.0
 74
           0
  0
LTYPE
  5
27
100
AcDbSymbolTableRecord
100
AcDbLinetypeTableRecord
  2
FORTLAUFEND
 70
           0
  3
Fortlaufend
 72
          65
 73
           0
 40
0.0
  0
LTYPE
  5
28
100
AcDbSymbolTableRecord
100
AcDbLinetypeTableRecord
  2
BORDER
 70
           0
  3
BORDER
 72
          65
 73
           6
 40
1.75
 49
0.5
 74
           0
 49
-0.25
 74
           0
 49
0.5
 74
           0
 49
-0.25
 74
           0
 49
0.0
 74
           0
 49
-0.25
 74
           0
  0
LTYPE
  5
29
100
AcDbSymbolTableRecord
100
AcDbLinetypeTableRecord
  2
CENTER
 70
           0
  3
CENTER
 72
          65
 73
           4
 40
2.0
 49
1.25
 74
           0
 49
-0.25
 74
           0
 49
0.25
 74
           0
 49
-0.25
 74
           0
  0
LTYPE
  5
2A
100
AcDbSymbolTableRecord
100
AcDbLinetypeTableRecord
  2
DASHDOT
 70
           0
  3
DASHDOT
 72
          65
 73
           4
 40
1.0
 49
0.5
 74
           0
 49
-0.25
 74
           0
 49
0.0
 74
           0
 49
-0.25
 74
           0
  0
LTYPE
  5
2B
100
AcDbSymbolTableRecord
100
AcDbLinetypeTableRecord
  2
DASHED
 70
           0
  3
DASHED
 72
          65
 73
           2
 40
0.75
 49
0.5
 74
           0
 49
-0.25
 74
           0
  0
LTYPE
  5
2C
100
AcDbSymbolTableRecord
100
AcDbLinetypeTableRecord
  2
DIVIDE
 70
           0
  3
DIVIDE
 72
          65
 73
           6
 40
1.25
 49
0.5
 74
           0
 49
-0.25
 74
           0
 49
0.0
 74
           0
 49
-0.25
 74
           0
 49
0.0
 74
           0
 49
-0.25
 74
           0
  0
LTYPE
  5
2D
100
AcDbSymbolTableRecord
100
AcDbLinetypeTableRecord
  2
DOT
 70
           0
  3
DOT
 72
          65
 73
           2
 40
0.25
 49
0.0
 74
           0
 49
-0.25
 74
           0
  0
LTYPE
  5
2E
100
AcDbSymbolTableRecord
100
AcDbLinetypeTableRecord
  2
HIDDEN
 70
           0
  3
HIDDEN
 72
          65
 73
           2
 40
0.375
 49
0.25
 74
           0
 49
-0.125
 74
           0
  0
LTYPE
  5
2F
100
AcDbSymbolTableRecord
100
AcDbLinetypeTableRecord
  2
PHANTOM
 70
           0
  3
PHANTOM
 72
          65
 73
           6
 40
2.5
 49
1.25
 74
           0
 49
-0.25
 74
           0
 49
0.25
 74
           0
 49
-0.25
 74
           0
 49
0.25
 74
           0
 49
-0.25
 74
           0
  0
LTYPE
  5
30
100
AcDbSymbolTableRecord
100
AcDbLinetypeTableRecord
  2
$AUXILIARY
 70
           0
  3
$AUXILIARY
 72
          65
 73
           2
 40
0.10000000149
 49
0.050000000745
 74
           0
 49
-0.050000000745
 74
           0
  0
LTYPE
  5
31
100
AcDbSymbolTableRecord
100
AcDbLinetypeTableRecord
  2
$CONSTRUCTION
 70
           0
  3
$CONSTRUCTION
 72
          65
 73
           4
 40
0.3
 49
0.2
 74
           0
 49
-0.05
 74
           0
 49
0.0
 74
           0
 49
-0.05
 74
           0
  0
LTYPE
  5
32
100
AcDbSymbolTableRecord
100
AcDbLinetypeTableRecord
  2
$SNAPEXT
 70
           0
  3
$SNAPEXT
 72
          65
 73
           2
 40
0.04
 49
0.02
 74
           0
 49
-0.02
 74
           0
  0
ENDTAB
  0
TABLE
  2
LAYER
  5
2
100
AcDbSymbolTable
 70
           2
  0
LAYER
  5
14
100
AcDbSymbolTableRecord
100
AcDbLayerTableRecord
  2
0
 70
           0
 62
           7
  6
DURCHGEHEND
1001
TCAD
1000
TCW_LAYER_ORDER
1002
{
1071
        0
1002
}
  0
LAYER
  5
37
100
AcDbSymbolTableRecord
100
AcDbLayerTableRecord
  2
ASHADE
 70
           0
 62
           7
  6
CONTINUOUS
  0
ENDTAB
  0
TABLE
  2
STYLE
  5
3
100
AcDbSymbolTable
 70
           2
  0
STYLE
  5
17
100
AcDbSymbolTableRecord
100
AcDbTextStyleTableRecord
  2
STANDARD
 70
           0
 40
0.0
 41
1.0
 50
0.0
 71
           0
 42
3.0
  3

  4

1001
ACAD
1000
Times New Roman
1071
      290
  0
STYLE
  5
36
100
AcDbSymbolTableRecord
100
AcDbTextStyleTableRecord
  2
ASHADE
 70
           0
 40
0.2
 41
1.0
 50
0.0
 71
           0
 42
2.5
  3
simplex.shx
  4

  0
ENDTAB
  0
TABLE
  2
VIEW
  5
5
100
AcDbSymbolTable
 70
           1
  0
VIEW
  5
33
100
AcDbSymbolTableRecord
100
AcDbViewTableRecord
  2
ANSICHT_0
 70
           0
 40
210.0
 10
148.5
 20
105.0
 41
297.0
 11
0.0
 21
0.0
 31
1.0
 12
0.0
 22
0.0
 32
0.0
 42
92.090489446729
 43
0.0
 44
0.0
 50
0.0
 71
           0
  0
ENDTAB
  0
TABLE
  2
UCS
  5
6
100
AcDbSymbolTable
 70
           1
  0
UCS
  5
35
100
AcDbSymbolTableRecord
100
AcDbUCSTableRecord
  2
PREVIOUS
 70
           0
 10
0.0
 20
0.0
 30
0.0
 11
1.0
 21
0.0
 31
0.0
 12
0.0
 22
1.0
 32
0.0
  0
ENDTAB
  0
TABLE
  2
APPID
  5
8
100
AcDbSymbolTable
 70
           3
  0
APPID
  5
16
100
AcDbSymbolTableRecord
100
AcDbRegAppTableRecord
  2
ACAD
 70
           0
  0
APPID
  5
1D
100
AcDbSymbolTableRecord
100
AcDbRegAppTableRecord
  2
TCAD
 70
           0
  0
APPID
  5
55
100
AcDbSymbolTableRecord
100
AcDbRegAppTableRecord
  2
AVE_RENDER
 70
           0
  0
ENDTAB
  0
TABLE
  2
DIMSTYLE
  5
9
100
AcDbSymbolTable
 70
           2
  0
DIMSTYLE
105
18
100
AcDbSymbolTableRecord
100
AcDbDimStyleTableRecord
  2
STANDARD
 70
           0
  3
<>mm
  4

  5

  6

  7

 40
1.0
 41
3.0
 42
1.0
 43
7.5
 44
2.0
 45
0.01
 46
0.0
 47
0.0
 48
0.0
 71
           0
 72
           0
 73
           1
 74
           0
 75
           0
 76
           0
 77
           1
 78
           3
140
3.0
141
0.09
142
0.0
143
1.0
144
1.0
145
0.0
146
1.0
147
2.0
170
           0
171
           2
172
           1
173
           0
174
           0
175
           0
176
           7
177
           7
178
           7
270
           2
271
           2
272
           3
273
           2
274
           2
275
           0
280
           0
281
           0
282
           0
283
           1
284
           0
285
           0
286
           0
287
           0
288
           0
340
17
  0
DIMSTYLE
105
34
100
AcDbSymbolTableRecord
100
AcDbDimStyleTableRecord
  2
NORMALE_BEMA___UNGEN
 70
           0
  3
<>mm
  4

  5

  6

  7

 40
1.0
 41
3.0
 42
1.0
 43
7.5
 44
2.0
 45
0.01
 46
0.0
 47
0.0
 48
0.0
 71
           0
 72
           0
 73
           1
 74
           1
 75
           0
 76
           0
 77
           1
 78
           3
140
3.0
141
0.09
142
0.0
143
1.0
144
1.0
145
0.0
146
1.0
147
2.0
170
           0
171
           2
172
           1
173
           0
174
           0
175
           0
176
           7
177
           7
178
           7
270
           2
271
           2
272
           3
273
           2
274
           2
275
           0
280
           0
281
           0
282
           0
283
           1
284
           0
285
           0
286
           0
287
           0
288
           0
340
17
  0
ENDTAB
  0
TABLE
  2
BLOCK_RECORD
  5
1
100
AcDbSymbolTable
 70
           3
  0
BLOCK_RECORD
  5
A
100
AcDbSymbolTableRecord
100
AcDbBlockTableRecord
  2
*MODEL_SPACE
  0
BLOCK_RECORD
  5
B
100
AcDbSymbolTableRecord
100
AcDbBlockTableRecord
  2
*PAPER_SPACE
  0
BLOCK_RECORD
  5
38
100
AcDbSymbolTableRecord
100
AcDbBlockTableRecord
  2
OVERHEAD
  0
BLOCK_RECORD
  5
9E
100
AcDbSymbolTableRecord
100
AcDbBlockTableRecord
  2
DIRECT
  0
BLOCK_RECORD
  5
BE
100
AcDbSymbolTableRecord
100
AcDbBlockTableRecord
  2
SH_SPOT
  0
ENDTAB
  0
ENDSEC
  0
SECTION
  2
BLOCKS
  0
BLOCK
  5
D
100
AcDbEntity
  8
0
100
AcDbBlockBegin
  2
*MODEL_SPACE
 70
           0
 10
0.0
 20
0.0
 30
0.0
  3
*MODEL_SPACE
  1

  0
ENDBLK
  5
E
100
AcDbEntity
  8
0
100
AcDbBlockEnd
  0
BLOCK
  5
F
100
AcDbEntity
 67
           1
  8
0
100
AcDbBlockBegin
  2
*PAPER_SPACE
 70
           0
 10
0.0
 20
0.0
 30
0.0
  3
*PAPER_SPACE
  1

  0
ENDBLK
  5
10
100
AcDbEntity
 67
           1
  8
0
100
AcDbBlockEnd
  0
BLOCK
  5
39
100
AcDbEntity
  8
0
100
AcDbBlockBegin
  2
OVERHEAD
 70
           2
 10
0.0
 20
0.0
 30
0.0
  3
OVERHEAD
  1

  0
ATTDEF
  5
3A
100
AcDbEntity
  8
ASHADE
  6
CONTINUOUS
 62
           1
100
AcDbText
 10
0.0
 20
-0.1
 30
0.0
 40
0.2
  1

  7
ASHADE
 72
           1
 11
0.0
 21
-0.1
 31
0.0
100
AcDbAttributeDefinition
  3
Light Name
  2
SNAME
 70
           0
  0
ATTDEF
  5
3B
100
AcDbEntity
  8
ASHADE
  6
CONTINUOUS
 62
           7
100
AcDbText
 10
0.0
 20
0.28
 30
0.0
 40
0.01
  1

100
AcDbAttributeDefinition
  3

  2
GNAME
 70
           1
  0
ATTDEF
  5
3C
100
AcDbEntity
  8
ASHADE
  6
CONTINUOUS
 62
           7
100
AcDbText
 10
0.0
 20
0.265
 30
0.0
 40
0.01
  1

100
AcDbAttributeDefinition
  3
Look-at X
  2
LAX
 70
           1
  0
ATTDEF
  5
3D
100
AcDbEntity
  8
ASHADE
  6
CONTINUOUS
 62
           7
100
AcDbText
 10
0.0
 20
0.25
 30
0.0
 40
0.01
  1

100
AcDbAttributeDefinition
  3
Look-at Y
  2
LAY
 70
           1
  0
ATTDEF
  5
3E
100
AcDbEntity
  8
ASHADE
  6
CONTINUOUS
 62
           7
100
AcDbText
 10
0.0
 20
0.235
 30
0.0
 40
0.01
  1

100
AcDbAttributeDefinition
  3
Look-at Z
  2
LAZ
 70
           1
  0
ATTDEF
  5
3F
100
AcDbEntity
  8
ASHADE
  6
CONTINUOUS
 62
           7
100
AcDbText
 10
0.0
 20
0.22
 30
0.0
 40
0.01
  1
1
100
AcDbAttributeDefinition
  3
Light Intensity
  2
INTENSITY
 70
           1
  0
ATTDEF
  5
40
100
AcDbEntity
  8
ASHADE
  6
CONTINUOUS
 62
           7
100
AcDbText
 10
0.0
 20
0.205
 30
0.0
 40
0.01
  1
1,1,1
100
AcDbAttributeDefinition
  3
Light Color (RGB)
  2
COLOR
 70
           1
  0
ATTDEF
  5
41
100
AcDbEntity
  8
ASHADE
  6
CONTINUOUS
 62
           7
100
AcDbText
 10
0.0
 20
0.19
 30
0.0
 40
0.01
  1
0
100
AcDbAttributeDefinition
  3
Depth Map Size
  2
CONEA
 70
           1
  0
ATTDEF
  5
42
100
AcDbEntity
  8
ASHADE
  6
CONTINUOUS
 62
           7
100
AcDbText
 10
0.0
 20
0.175
 30
0.0
 40
0.01
  1
-1
100
AcDbAttributeDefinition
  3
*not used*
  2
CONED
 70
           1
  0
ATTDEF
  5
43
100
AcDbEntity
  8
ASHADE
  6
CONTINUOUS
 62
           7
100
AcDbText
 10
0.0
 20
0.16
 30
0.0
 40
0.01
  1
-1
100
AcDbAttributeDefinition
  3
*not used*
  2
BEAMD
 70
           1
  0
ARC
  5
44
100
AcDbEntity
  8
ASHADE
  6
CONTINUOUS
 62
           7
100
AcDbCircle
 10
0.0
 20
0.0
 30
0.0
 40
0.3
100
AcDbArc
 50
205.679289
 51
334.320711
  0
ARC
  5
45
100
AcDbEntity
  8
ASHADE
  6
CONTINUOUS
 62
           7
100
AcDbCircle
 10
0.0
 20
0.0
 30
0.0
 40
0.3
100
AcDbArc
 50
25.679289
 51
154.320711
  0
LINE
  5
46
100
AcDbEntity
  8
ASHADE
  6
CONTINUOUS
 62
           7
100
AcDbLine
 10
-0.27037
 20
-0.13
 30
0.0
 11
-0.315432
 21
-0.151667
 31
0.0
  0
LINE
  5
47
100
AcDbEntity
  8
ASHADE
  6
CONTINUOUS
 62
           7
100
AcDbLine
 10
-0.204141
 20
-0.219832
 30
0.0
 11
-0.272188
 21
-0.29311
 31
0.0
  0
LINE
  5
48
100
AcDbEntity
  8
ASHADE
  6
CONTINUOUS
 62
           7
100
AcDbLine
 10
-0.109659
 20
-0.27924
 30
0.0
 11
-0.127936
 21
-0.32578
 31
0.0
  0
LINE
  5
49
100
AcDbEntity
  8
ASHADE
  6
CONTINUOUS
 62
           7
100
AcDbLine
 10
0.0
 20
-0.3
 30
0.0
 11
0.0
 21
-0.4
 31
0.0
  0
LINE
  5
4A
100
AcDbEntity
  8
ASHADE
  6
CONTINUOUS
 62
           7
100
AcDbLine
 10
0.109659
 20
-0.27924
 30
0.0
 11
0.127936
 21
-0.32578
 31
0.0
  0
LINE
  5
4B
100
AcDbEntity
  8
ASHADE
  6
CONTINUOUS
 62
           7
100
AcDbLine
 10
0.204141
 20
-0.219832
 30
0.0
 11
0.272188
 21
-0.29311
 31
0.0
  0
LINE
  5
4C
100
AcDbEntity
  8
ASHADE
  6
CONTINUOUS
 62
           7
100
AcDbLine
 10
0.27037
 20
-0.13
 30
0.0
 11
0.315432
 21
-0.151667
 31
0.0
  0
LINE
  5
4D
100
AcDbEntity
  8
ASHADE
  6
CONTINUOUS
 62
           7
100
AcDbLine
 10
-0.109659
 20
0.27924
 30
0.0
 11
-0.127936
 21
0.32578
 31
0.0
  0
LINE
  5
4E
100
AcDbEntity
  8
ASHADE
  6
CONTINUOUS
 62
           7
100
AcDbLine
 10
-0.204141
 20
0.219832
 30
0.0
 11
-0.272188
 21
0.29311
 31
0.0
  0
LINE
  5
4F
100
AcDbEntity
  8
ASHADE
  6
CONTINUOUS
 62
           7
100
AcDbLine
 10
-0.27037
 20
0.13
 30
0.0
 11
-0.315432
 21
0.151667
 31
0.0
  0
LINE
  5
50
100
AcDbEntity
  8
ASHADE
  6
CONTINUOUS
 62
           7
100
AcDbLine
 10
0.27037
 20
0.13
 30
0.0
 11
0.315432
 21
0.151667
 31
0.0
  0
LINE
  5
51
100
AcDbEntity
  8
ASHADE
  6
CONTINUOUS
 62
           7
100
AcDbLine
 10
0.204141
 20
0.219832
 30
0.0
 11
0.272188
 21
0.29311
 31
0.0
  0
LINE
  5
52
100
AcDbEntity
  8
ASHADE
  6
CONTINUOUS
 62
           7
100
AcDbLine
 10
0.109659
 20
0.27924
 30
0.0
 11
0.127936
 21
0.32578
 31
0.0
  0
LINE
  5
53
100
AcDbEntity
  8
ASHADE
  6
CONTINUOUS
 62
           7
100
AcDbLine
 10
0.0
 20
0.3
 30
0.0
 11
0.0
 21
0.4
 31
0.0
  0
ENDBLK
  5
54
100
AcDbEntity
  8
0
100
AcDbBlockEnd
  0
BLOCK
  5
9F
100
AcDbEntity
  8
0
100
AcDbBlockBegin
  2
DIRECT
 70
           2
 10
0.0
 20
0.0
 30
0.0
  3
DIRECT
  1

  0
ATTDEF
  5
A0
100
AcDbEntity
  8
ASHADE
  6
CONTINUOUS
 62
           1
100
AcDbText
 10
0.0
 20
-0.1
 30
0.0
 40
0.2
  1

  7
ASHADE
 72
           1
 11
0.0
 21
-0.1
 31
0.0
100
AcDbAttributeDefinition
  3
Light Name
  2
SNAME
 70
           0
  0
ATTDEF
  5
A1
100
AcDbEntity
  8
ASHADE
  6
CONTINUOUS
 62
           7
100
AcDbText
 10
0.0
 20
0.28
 30
0.0
 40
0.01
  1

100
AcDbAttributeDefinition
  3

  2
GNAME
 70
           1
  0
ATTDEF
  5
A2
100
AcDbEntity
  8
ASHADE
  6
CONTINUOUS
 62
           7
100
AcDbText
 10
0.0
 20
0.265
 30
0.0
 40
0.01
  1

100
AcDbAttributeDefinition
  3
Look-at X
  2
LAX
 70
           1
  0
ATTDEF
  5
A3
100
AcDbEntity
  8
ASHADE
  6
CONTINUOUS
 62
           7
100
AcDbText
 10
0.0
 20
0.25
 30
0.0
 40
0.01
  1

100
AcDbAttributeDefinition
  3
Look-at Y
  2
LAY
 70
           1
  0
ATTDEF
  5
A4
100
AcDbEntity
  8
ASHADE
  6
CONTINUOUS
 62
           7
100
AcDbText
 10
0.0
 20
0.235
 30
0.0
 40
0.01
  1

100
AcDbAttributeDefinition
  3
Look-at Z
  2
LAZ
 70
           1
  0
ATTDEF
  5
A5
100
AcDbEntity
  8
ASHADE
  6
CONTINUOUS
 62
           7
100
AcDbText
 10
0.0
 20
0.22
 30
0.0
 40
0.01
  1
1
100
AcDbAttributeDefinition
  3
Light Intensity
  2
INTENSITY
 70
           1
  0
ATTDEF
  5
A6
100
AcDbEntity
  8
ASHADE
  6
CONTINUOUS
 62
           7
100
AcDbText
 10
0.0
 20
0.205
 30
0.0
 40
0.01
  1
1,1,1
100
AcDbAttributeDefinition
  3
Light Color (RGB)
  2
COLOR
 70
           1
  0
ATTDEF
  5
A7
100
AcDbEntity
  8
ASHADE
  6
CONTINUOUS
 62
           7
100
AcDbText
 10
0.0
 20
0.19
 30
0.0
 40
0.01
  1
0
100
AcDbAttributeDefinition
  3
Depth Map Size
  2
CONEA
 70
           1
  0
ATTDEF
  5
A8
100
AcDbEntity
  8
ASHADE
  6
CONTINUOUS
 62
           7
100
AcDbText
 10
0.0
 20
0.175
 30
0.0
 40
0.01
  1
-1
100
AcDbAttributeDefinition
  3
*not used*
  2
CONED
 70
           1
  0
ATTDEF
  5
A9
100
AcDbEntity
  8
ASHADE
  6
CONTINUOUS
 62
           7
100
AcDbText
 10
0.0
 20
0.16
 30
0.0
 40
0.01
  1
-1
100
AcDbAttributeDefinition
  3
*not used*
  2
BEAMD
 70
           1
  0
ARC
  5
AA
100
AcDbEntity
  8
ASHADE
  6
CONTINUOUS
 62
           7
100
AcDbCircle
 10
0.0
 20
0.0
 30
0.0
 40
0.3
100
AcDbArc
 50
205.679289
 51
334.320711
  0
ARC
  5
AB
100
AcDbEntity
  8
ASHADE
  6
CONTINUOUS
 62
           7
100
AcDbCircle
 10
0.0
 20
0.0
 30
0.0
 40
0.3
100
AcDbArc
 50
25.679289
 51
154.320711
  0
LINE
  5
AC
100
AcDbEntity
  8
ASHADE
  6
CONTINUOUS
 62
           7
100
AcDbLine
 10
0.21
 20
0.214243
 30
0.0
 11
0.21
 21
0.5
 31
0.0
  0
LINE
  5
AD
100
AcDbEntity
  8
ASHADE
  6
CONTINUOUS
 62
           7
100
AcDbLine
 10
0.11
 20
0.279106
 30
0.0
 11
0.11
 21
0.5
 31
0.0
  0
LINE
  5
AE
100
AcDbEntity
  8
ASHADE
  6
CONTINUOUS
 62
           7
100
AcDbLine
 10
0.0
 20
0.3
 30
0.0
 11
0.0
 21
0.5
 31
0.0
  0
LINE
  5
AF
100
AcDbEntity
  8
ASHADE
  6
CONTINUOUS
 62
           7
100
AcDbLine
 10
-0.11
 20
0.279106
 30
0.0
 11
-0.11
 21
0.5
 31
0.0
  0
LINE
  5
B0
100
AcDbEntity
  8
ASHADE
  6
CONTINUOUS
 62
           7
100
AcDbLine
 10
-0.21
 20
0.214243
 30
0.0
 11
-0.21
 21
0.5
 31
0.0
  0
ENDBLK
  5
B1
100
AcDbEntity
  8
0
100
AcDbBlockEnd
  0
BLOCK
  5
BF
100
AcDbEntity
  8
0
100
AcDbBlockBegin
  2
SH_SPOT
 70
           2
 10
0.0
 20
0.0
 30
0.0
  3
SH_SPOT
  1

  0
ATTDEF
  5
C0
100
AcDbEntity
  8
ASHADE
  6
CONTINUOUS
 62
           1
100
AcDbText
 10
0.0
 20
-0.1
 30
0.0
 40
0.2
  1

  7
ASHADE
 72
           1
 11
0.0
 21
-0.1
 31
0.0
100
AcDbAttributeDefinition
  3
Light Name
  2
SNAME
 70
           0
  0
ATTDEF
  5
C1
100
AcDbEntity
  8
ASHADE
  6
CONTINUOUS
 62
           7
100
AcDbText
 10
0.0
 20
-0.15
 30
0.0
 40
0.01
  1

100
AcDbAttributeDefinition
  3

  2
GNAME
 70
           1
  0
ATTDEF
  5
C2
100
AcDbEntity
  8
ASHADE
  6
CONTINUOUS
 62
           7
100
AcDbText
 10
0.0
 20
-0.165
 30
0.0
 40
0.01
  1

100
AcDbAttributeDefinition
  3
Look-at X
  2
LAX
 70
           1
  0
ATTDEF
  5
C3
100
AcDbEntity
  8
ASHADE
  6
CONTINUOUS
 62
           7
100
AcDbText
 10
0.0
 20
-0.18
 30
0.0
 40
0.01
  1

100
AcDbAttributeDefinition
  3
Look-at Y
  2
LAY
 70
           1
  0
ATTDEF
  5
C4
100
AcDbEntity
  8
ASHADE
  6
CONTINUOUS
 62
           7
100
AcDbText
 10
0.0
 20
-0.195
 30
0.0
 40
0.01
  1

100
AcDbAttributeDefinition
  3
Look-at Z
  2
LAZ
 70
           1
  0
ATTDEF
  5
C5
100
AcDbEntity
  8
ASHADE
  6
CONTINUOUS
 62
           7
100
AcDbText
 10
0.0
 20
-0.21
 30
0.0
 40
0.01
  1
1
100
AcDbAttributeDefinition
  3
Light Intensity
  2
INTENSITY
 70
           1
  0
ATTDEF
  5
C6
100
AcDbEntity
  8
ASHADE
  6
CONTINUOUS
 62
           7
100
AcDbText
 10
0.0
 20
-0.225
 30
0.0
 40
0.01
  1
1,1,1
100
AcDbAttributeDefinition
  3
Light Color (RGB)
  2
COLOR
 70
           1
  0
ATTDEF
  5
C7
100
AcDbEntity
  8
ASHADE
  6
CONTINUOUS
 62
           7
100
AcDbText
 10
0.0
 20
-0.24
 30
0.0
 40
0.01
  1
0
100
AcDbAttributeDefinition
  3
Depth Map Size
  2
ZSIZE
 70
           1
  0
ATTDEF
  5
C8
100
AcDbEntity
  8
ASHADE
  6
CONTINUOUS
 62
           7
100
AcDbText
 10
0.0
 20
-0.255
 30
0.0
 40
0.01
  1
-1
100
AcDbAttributeDefinition
  3
*not used*
  2
BIASMIN
 70
           1
  0
ATTDEF
  5
C9
100
AcDbEntity
  8
ASHADE
  6
CONTINUOUS
 62
           7
100
AcDbText
 10
0.0
 20
-0.27
 30
0.0
 40
0.01
  1
-1
100
AcDbAttributeDefinition
  3
*not used*
  2
BIASMAX
 70
           1
  0
ATTDEF
  5
CA
100
AcDbEntity
  8
ASHADE
  6
CONTINUOUS
 62
           7
100
AcDbText
 10
0.0
 20
-0.285
 30
0.0
 40
0.01
  1
10.0
100
AcDbAttributeDefinition
  3
Cone Angle
  2
CONEAN
 70
           1
  0
ATTDEF
  5
CB
100
AcDbEntity
  8
ASHADE
  6
CONTINUOUS
 62
           7
100
AcDbText
 10
0.0
 20
-0.3
 30
0.0
 40
0.01
  1
0.0
100
AcDbAttributeDefinition
  3
Cone Delta
  2
CONEDE
 70
           1
  0
ATTDEF
  5
CC
100
AcDbEntity
  8
ASHADE
  6
CONTINUOUS
 62
           7
100
AcDbText
 10
0.0
 20
-0.315
 30
0.0
 40
0.01
  1
0.0
100
AcDbAttributeDefinition
  3
Beam Distribution
  2
BIAMDI
 70
           1
  0
LINE
  5
CD
100
AcDbEntity
  8
ASHADE
  6
CONTINUOUS
 62
           7
100
AcDbLine
 10
-0.25
 20
-0.13
 30
0.0
 11
-0.25
 21
-0.34
 31
0.0
  0
LINE
  5
CE
100
AcDbEntity
  8
ASHADE
  6
CONTINUOUS
 62
           7
100
AcDbLine
 10
-0.25
 20
-0.34
 30
0.0
 11
0.25
 21
-0.34
 31
0.0
  0
LINE
  5
CF
100
AcDbEntity
  8
ASHADE
  6
CONTINUOUS
 62
           7
100
AcDbLine
 10
0.25
 20
-0.34
 30
0.0
 11
0.25
 21
-0.13
 31
0.0
  0
LINE
  5
D0
100
AcDbEntity
  8
ASHADE
  6
CONTINUOUS
 62
           7
100
AcDbLine
 10
0.25
 20
0.13
 30
0.0
 11
0.25
 21
0.26
 31
0.0
  0
LINE
  5
D1
100
AcDbEntity
  8
ASHADE
  6
CONTINUOUS
 62
           7
100
AcDbLine
 10
0.25
 20
0.26
 30
0.0
 11
-0.25
 21
0.26
 31
0.0
  0
LINE
  5
D2
100
AcDbEntity
  8
ASHADE
  6
CONTINUOUS
 62
           7
100
AcDbLine
 10
-0.25
 20
0.26
 30
0.0
 11
-0.25
 21
0.13
 31
0.0
  0
LINE
  5
D3
100
AcDbEntity
  8
ASHADE
  6
CONTINUOUS
 62
           7
100
AcDbLine
 10
-0.21
 20
0.26
 30
0.0
 11
-0.301304
 21
0.46
 31
0.0
  0
LINE
  5
D4
100
AcDbEntity
  8
ASHADE
  6
CONTINUOUS
 62
           7
100
AcDbLine
 10
-0.104545
 20
0.26
 30
0.0
 11
-0.15
 21
0.46
 31
0.0
  0
LINE
  5
D5
100
AcDbEntity
  8
ASHADE
  6
CONTINUOUS
 62
           7
100
AcDbLine
 10
0.0
 20
0.26
 30
0.0
 11
0.0
 21
0.46
 31
0.0
  0
LINE
  5
D6
100
AcDbEntity
  8
ASHADE
  6
CONTINUOUS
 62
           7
100
AcDbLine
 10
0.104545
 20
0.26
 30
0.0
 11
0.15
 21
0.46
 31
0.0
  0
LINE
  5
D7
100
AcDbEntity
  8
ASHADE
  6
CONTINUOUS
 62
           7
100
AcDbLine
 10
0.21
 20
0.26
 30
0.0
 11
0.301304
 21
0.46
 31
0.0
  0
LINE
  5
D8
100
AcDbEntity
  8
ASHADE
  6
CONTINUOUS
 62
           7
100
AcDbLine
 10
-0.29
 20
-0.18
 30
0.0
 11
-0.29
 21
-0.22
 31
0.0
  0
LINE
  5
D9
100
AcDbEntity
  8
ASHADE
  6
CONTINUOUS
 62
           7
100
AcDbLine
 10
0.29
 20
-0.18
 30
0.0
 11
0.29
 21
-0.22
 31
0.0
  0
LINE
  5
DA
100
AcDbEntity
  8
ASHADE
  6
CONTINUOUS
 62
           7
100
AcDbLine
 10
0.29
 20
0.22
 30
0.0
 11
0.29
 21
0.18
 31
0.0
  0
LINE
  5
DB
100
AcDbEntity
  8
ASHADE
  6
CONTINUOUS
 62
           7
100
AcDbLine
 10
-0.29
 20
0.22
 30
0.0
 11
-0.29
 21
0.18
 31
0.0
  0
LINE
  5
DC
100
AcDbEntity
  8
ASHADE
  6
CONTINUOUS
 62
           7
100
AcDbLine
 10
-0.29
 20
-0.22
 30
0.0
 11
-0.25
 21
-0.22
 31
0.0
  0
LINE
  5
DD
100
AcDbEntity
  8
ASHADE
  6
CONTINUOUS
 62
           7
100
AcDbLine
 10
-0.25
 20
-0.18
 30
0.0
 11
-0.29
 21
-0.18
 31
0.0
  0
LINE
  5
DE
100
AcDbEntity
  8
ASHADE
  6
CONTINUOUS
 62
           7
100
AcDbLine
 10
0.29
 20
-0.22
 30
0.0
 11
0.25
 21
-0.22
 31
0.0
  0
LINE
  5
DF
100
AcDbEntity
  8
ASHADE
  6
CONTINUOUS
 62
           7
100
AcDbLine
 10
0.25
 20
-0.18
 30
0.0
 11
0.29
 21
-0.18
 31
0.0
  0
LINE
  5
E0
100
AcDbEntity
  8
ASHADE
  6
CONTINUOUS
 62
           7
100
AcDbLine
 10
0.29
 20
0.18
 30
0.0
 11
0.25
 21
0.18
 31
0.0
  0
LINE
  5
E1
100
AcDbEntity
  8
ASHADE
  6
CONTINUOUS
 62
           7
100
AcDbLine
 10
0.25
 20
0.22
 30
0.0
 11
0.29
 21
0.22
 31
0.0
  0
LINE
  5
E2
100
AcDbEntity
  8
ASHADE
  6
CONTINUOUS
 62
           7
100
AcDbLine
 10
-0.29
 20
0.18
 30
0.0
 11
-0.25
 21
0.18
 31
0.0
  0
LINE
  5
E3
100
AcDbEntity
  8
ASHADE
  6
CONTINUOUS
 62
           7
100
AcDbLine
 10
-0.25
 20
0.22
 30
0.0
 11
-0.29
 21
0.22
 31
0.0
  0
ATTDEF
  5
E4
100
AcDbEntity
  8
ASHADE
  6
CONTINUOUS
 62
           7
100
AcDbText
 10
0.0
 20
-0.33
 30
0.0
 40
0.01
  1
0,0,0
100
AcDbAttributeDefinition
  3
Look-from XYZ
  2
LFXYZ
 70
           1
  0
ENDBLK
  5
E5
100
AcDbEntity
  8
0
100
AcDbBlockEnd
  0
ENDSEC
  0
SECTION
  2
ENTITIES
  0
INSERT
  5
56
100
AcDbEntity
  8
0
 60
           1
100
AcDbBlockReference
 66
           1
  2
OVERHEAD
 10
148.5
 20
105.0
 30
60.40000000002
1001
AVE_RENDER
1002
{
1070
           0
1000
LIGHT_0
1011
149.5
1021
105.0
1031
60.40000000002
1041
1.0
1010
0.501960784314
1020
0.501960784314
1030
0.501960784314
1002
{
1070
           1
1070
           0
1040
0.0
1040
0.0
1040
3.0
1002
}
1002
{
1070
           9
1070
          21
1070
          15
1070
           0
1040
37.62
1040
122.37
1002
}
1002
}
1001
TCAD
1000
TCW_LIGTH
1002
{
1070
           1
1002
}
  0
ATTRIB
  5
57
100
AcDbEntity
  8
ASHADE
  6
CONTINUOUS
 62
           1
100
AcDbText
 10
148.5
 20
105.0
 30
60.40000000002
 40
0.2
  1
LIGHT_0
  7
ASHADE
 72
           1
 11
148.5
 21
104.9
 31
60.40000000002
100
AcDbAttribute
  2
SNAME
 70
           0
  0
ATTRIB
  5
58
100
AcDbEntity
  8
ASHADE
  6
CONTINUOUS
 62
           7
100
AcDbText
 10
148.5
 20
105.0
 30
60.40000000002
 40
0.01
  1

100
AcDbAttribute
  2
GNAME
 70
           1
  0
ATTRIB
  5
59
100
AcDbEntity
  8
ASHADE
  6
CONTINUOUS
 62
           7
100
AcDbText
 10
148.5
 20
105.0
 30
60.40000000002
 40
0.01
  1

100
AcDbAttribute
  2
LAX
 70
           1
  0
ATTRIB
  5
5A
100
AcDbEntity
  8
ASHADE
  6
CONTINUOUS
 62
           7
100
AcDbText
 10
148.5
 20
105.0
 30
60.40000000002
 40
0.01
  1

100
AcDbAttribute
  2
LAY
 70
           1
  0
ATTRIB
  5
5B
100
AcDbEntity
  8
ASHADE
  6
CONTINUOUS
 62
           7
100
AcDbText
 10
148.5
 20
105.0
 30
60.40000000002
 40
0.01
  1

100
AcDbAttribute
  2
LAZ
 70
           1
  0
ATTRIB
  5
5C
100
AcDbEntity
  8
ASHADE
  6
CONTINUOUS
 62
           7
100
AcDbText
 10
148.5
 20
105.0
 30
60.40000000002
 40
0.01
  1
1
100
AcDbAttribute
  2
INTENSITY
 70
           1
  0
ATTRIB
  5
5D
100
AcDbEntity
  8
ASHADE
  6
CONTINUOUS
 62
           7
100
AcDbText
 10
148.5
 20
105.0
 30
60.40000000002
 40
0.01
  1
1,1,1
100
AcDbAttribute
  2
COLOR
 70
           1
  0
ATTRIB
  5
5E
100
AcDbEntity
  8
ASHADE
  6
CONTINUOUS
 62
           7
100
AcDbText
 10
148.5
 20
105.0
 30
60.40000000002
 40
0.01
  1
0
100
AcDbAttribute
  2
CONEA
 70
           1
  0
ATTRIB
  5
5F
100
AcDbEntity
  8
ASHADE
  6
CONTINUOUS
 62
           7
100
AcDbText
 10
148.5
 20
105.0
 30
60.40000000002
 40
0.01
  1
-1
100
AcDbAttribute
  2
CONED
 70
           1
  0
ATTRIB
  5
60
100
AcDbEntity
  8
ASHADE
  6
CONTINUOUS
 62
           7
100
AcDbText
 10
148.5
 20
105.0
 30
60.40000000002
 40
0.01
  1
-1
100
AcDbAttribute
  2
BEAMD
 70
           1
  0
SEQEND
  5
61
100
AcDbEntity
  8
0
  0
INSERT
  5
62
100
AcDbEntity
  8
0
 60
           1
100
AcDbBlockReference
 66
           1
  2
OVERHEAD
 10
445.5000000001
 20
105.0
 30
60.40000000002
1001
AVE_RENDER
1002
{
1070
           0
1000
LIGHT_1
1011
446.5000000001
1021
105.0
1031
60.40000000002
1041
1.0
1010
0.501960784314
1020
0.501960784314
1030
0.501960784314
1002
{
1070
           1
1070
           0
1040
0.0
1040
0.0
1040
3.0
1002
}
1002
{
1070
           9
1070
          21
1070
          15
1070
           0
1040
37.62
1040
122.37
1002
}
1002
}
1001
TCAD
1000
TCW_LIGTH
1002
{
1070
           1
1002
}
  0
ATTRIB
  5
63
100
AcDbEntity
  8
ASHADE
  6
CONTINUOUS
 62
           1
100
AcDbText
 10
445.5000000001
 20
105.0
 30
60.40000000002
 40
0.2
  1
LIGHT_1
  7
ASHADE
 72
           1
 11
445.5000000001
 21
104.9
 31
60.40000000002
100
AcDbAttribute
  2
SNAME
 70
           0
  0
ATTRIB
  5
64
100
AcDbEntity
  8
ASHADE
  6
CONTINUOUS
 62
           7
100
AcDbText
 10
445.5000000001
 20
105.0
 30
60.40000000002
 40
0.01
  1

100
AcDbAttribute
  2
GNAME
 70
           1
  0
ATTRIB
  5
65
100
AcDbEntity
  8
ASHADE
  6
CONTINUOUS
 62
           7
100
AcDbText
 10
445.5000000001
 20
105.0
 30
60.40000000002
 40
0.01
  1

100
AcDbAttribute
  2
LAX
 70
           1
  0
ATTRIB
  5
66
100
AcDbEntity
  8
ASHADE
  6
CONTINUOUS
 62
           7
100
AcDbText
 10
445.5000000001
 20
105.0
 30
60.40000000002
 40
0.01
  1

100
AcDbAttribute
  2
LAY
 70
           1
  0
ATTRIB
  5
67
100
AcDbEntity
  8
ASHADE
  6
CONTINUOUS
 62
           7
100
AcDbText
 10
445.5000000001
 20
105.0
 30
60.40000000002
 40
0.01
  1

100
AcDbAttribute
  2
LAZ
 70
           1
  0
ATTRIB
  5
68
100
AcDbEntity
  8
ASHADE
  6
CONTINUOUS
 62
           7
100
AcDbText
 10
445.5000000001
 20
105.0
 30
60.40000000002
 40
0.01
  1
1
100
AcDbAttribute
  2
INTENSITY
 70
           1
  0
ATTRIB
  5
69
100
AcDbEntity
  8
ASHADE
  6
CONTINUOUS
 62
           7
100
AcDbText
 10
445.5000000001
 20
105.0
 30
60.40000000002
 40
0.01
  1
1,1,1
100
AcDbAttribute
  2
COLOR
 70
           1
  0
ATTRIB
  5
6A
100
AcDbEntity
  8
ASHADE
  6
CONTINUOUS
 62
           7
100
AcDbText
 10
445.5000000001
 20
105.0
 30
60.40000000002
 40
0.01
  1
0
100
AcDbAttribute
  2
CONEA
 70
           1
  0
ATTRIB
  5
6B
100
AcDbEntity
  8
ASHADE
  6
CONTINUOUS
 62
           7
100
AcDbText
 10
445.5000000001
 20
105.0
 30
60.40000000002
 40
0.01
  1
-1
100
AcDbAttribute
  2
CONED
 70
           1
  0
ATTRIB
  5
6C
100
AcDbEntity
  8
ASHADE
  6
CONTINUOUS
 62
           7
100
AcDbText
 10
445.5000000001
 20
105.0
 30
60.40000000002
 40
0.01
  1
-1
100
AcDbAttribute
  2
BEAMD
 70
           1
  0
SEQEND
  5
6D
100
AcDbEntity
  8
0
  0
INSERT
  5
6E
100
AcDbEntity
  8
0
 60
           1
100
AcDbBlockReference
 66
           1
  2
OVERHEAD
 10
148.5
 20
315.0000000001
 30
60.40000000002
1001
AVE_RENDER
1002
{
1070
           0
1000
LIGHT_2
1011
149.5
1021
315.0000000001
1031
60.40000000002
1041
1.0
1010
0.501960784314
1020
0.501960784314
1030
0.501960784314
1002
{
1070
           1
1070
           0
1040
0.0
1040
0.0
1040
3.0
1002
}
1002
{
1070
           9
1070
          21
1070
          15
1070
           0
1040
37.62
1040
122.37
1002
}
1002
}
1001
TCAD
1000
TCW_LIGTH
1002
{
1070
           1
1002
}
  0
ATTRIB
  5
6F
100
AcDbEntity
  8
ASHADE
  6
CONTINUOUS
 62
           1
100
AcDbText
 10
148.5
 20
315.0000000001
 30
60.40000000002
 40
0.2
  1
LIGHT_2
  7
ASHADE
 72
           1
 11
148.5
 21
314.9000000001
 31
60.40000000002
100
AcDbAttribute
  2
SNAME
 70
           0
  0
ATTRIB
  5
70
100
AcDbEntity
  8
ASHADE
  6
CONTINUOUS
 62
           7
100
AcDbText
 10
148.5
 20
315.0000000001
 30
60.40000000002
 40
0.01
  1

100
AcDbAttribute
  2
GNAME
 70
           1
  0
ATTRIB
  5
71
100
AcDbEntity
  8
ASHADE
  6
CONTINUOUS
 62
           7
100
AcDbText
 10
148.5
 20
315.0000000001
 30
60.40000000002
 40
0.01
  1

100
AcDbAttribute
  2
LAX
 70
           1
  0
ATTRIB
  5
72
100
AcDbEntity
  8
ASHADE
  6
CONTINUOUS
 62
           7
100
AcDbText
 10
148.5
 20
315.0000000001
 30
60.40000000002
 40
0.01
  1

100
AcDbAttribute
  2
LAY
 70
           1
  0
ATTRIB
  5
73
100
AcDbEntity
  8
ASHADE
  6
CONTINUOUS
 62
           7
100
AcDbText
 10
148.5
 20
315.0000000001
 30
60.40000000002
 40
0.01
  1

100
AcDbAttribute
  2
LAZ
 70
           1
  0
ATTRIB
  5
74
100
AcDbEntity
  8
ASHADE
  6
CONTINUOUS
 62
           7
100
AcDbText
 10
148.5
 20
315.0000000001
 30
60.40000000002
 40
0.01
  1
1
100
AcDbAttribute
  2
INTENSITY
 70
           1
  0
ATTRIB
  5
75
100
AcDbEntity
  8
ASHADE
  6
CONTINUOUS
 62
           7
100
AcDbText
 10
148.5
 20
315.0000000001
 30
60.40000000002
 40
0.01
  1
1,1,1
100
AcDbAttribute
  2
COLOR
 70
           1
  0
ATTRIB
  5
76
100
AcDbEntity
  8
ASHADE
  6
CONTINUOUS
 62
           7
100
AcDbText
 10
148.5
 20
315.0000000001
 30
60.40000000002
 40
0.01
  1
0
100
AcDbAttribute
  2
CONEA
 70
           1
  0
ATTRIB
  5
77
100
AcDbEntity
  8
ASHADE
  6
CONTINUOUS
 62
           7
100
AcDbText
 10
148.5
 20
315.0000000001
 30
60.40000000002
 40
0.01
  1
-1
100
AcDbAttribute
  2
CONED
 70
           1
  0
ATTRIB
  5
78
100
AcDbEntity
  8
ASHADE
  6
CONTINUOUS
 62
           7
100
AcDbText
 10
148.5
 20
315.0000000001
 30
60.40000000002
 40
0.01
  1
-1
100
AcDbAttribute
  2
BEAMD
 70
           1
  0
SEQEND
  5
79
100
AcDbEntity
  8
0
  0
INSERT
  5
7A
100
AcDbEntity
  8
0
 60
           1
100
AcDbBlockReference
 66
           1
  2
OVERHEAD
 10
445.5000000001
 20
315.0000000001
 30
60.40000000002
1001
AVE_RENDER
1002
{
1070
           0
1000
LIGHT_3
1011
446.5000000001
1021
315.0000000001
1031
60.40000000002
1041
1.0
1010
0.501960784314
1020
0.501960784314
1030
0.501960784314
1002
{
1070
           1
1070
           0
1040
0.0
1040
0.0
1040
3.0
1002
}
1002
{
1070
           9
1070
          21
1070
          15
1070
           0
1040
37.62
1040
122.37
1002
}
1002
}
1001
TCAD
1000
TCW_LIGTH
1002
{
1070
           1
1002
}
  0
ATTRIB
  5
7B
100
AcDbEntity
  8
ASHADE
  6
CONTINUOUS
 62
           1
100
AcDbText
 10
445.5000000001
 20
315.0000000001
 30
60.40000000002
 40
0.2
  1
LIGHT_3
  7
ASHADE
 72
           1
 11
445.5000000001
 21
314.9000000001
 31
60.40000000002
100
AcDbAttribute
  2
SNAME
 70
           0
  0
ATTRIB
  5
7C
100
AcDbEntity
  8
ASHADE
  6
CONTINUOUS
 62
           7
100
AcDbText
 10
445.5000000001
 20
315.0000000001
 30
60.40000000002
 40
0.01
  1

100
AcDbAttribute
  2
GNAME
 70
           1
  0
ATTRIB
  5
7D
100
AcDbEntity
  8
ASHADE
  6
CONTINUOUS
 62
           7
100
AcDbText
 10
445.5000000001
 20
315.0000000001
 30
60.40000000002
 40
0.01
  1

100
AcDbAttribute
  2
LAX
 70
           1
  0
ATTRIB
  5
7E
100
AcDbEntity
  8
ASHADE
  6
CONTINUOUS
 62
           7
100
AcDbText
 10
445.5000000001
 20
315.0000000001
 30
60.40000000002
 40
0.01
  1

100
AcDbAttribute
  2
LAY
 70
           1
  0
ATTRIB
  5
7F
100
AcDbEntity
  8
ASHADE
  6
CONTINUOUS
 62
           7
100
AcDbText
 10
445.5000000001
 20
315.0000000001
 30
60.40000000002
 40
0.01
  1

100
AcDbAttribute
  2
LAZ
 70
           1
  0
ATTRIB
  5
80
100
AcDbEntity
  8
ASHADE
  6
CONTINUOUS
 62
           7
100
AcDbText
 10
445.5000000001
 20
315.0000000001
 30
60.40000000002
 40
0.01
  1
1
100
AcDbAttribute
  2
INTENSITY
 70
           1
  0
ATTRIB
  5
81
100
AcDbEntity
  8
ASHADE
  6
CONTINUOUS
 62
           7
100
AcDbText
 10
445.5000000001
 20
315.0000000001
 30
60.40000000002
 40
0.01
  1
1,1,1
100
AcDbAttribute
  2
COLOR
 70
           1
  0
ATTRIB
  5
82
100
AcDbEntity
  8
ASHADE
  6
CONTINUOUS
 62
           7
100
AcDbText
 10
445.5000000001
 20
315.0000000001
 30
60.40000000002
 40
0.01
  1
0
100
AcDbAttribute
  2
CONEA
 70
           1
  0
ATTRIB
  5
83
100
AcDbEntity
  8
ASHADE
  6
CONTINUOUS
 62
           7
100
AcDbText
 10
445.5000000001
 20
315.0000000001
 30
60.40000000002
 40
0.01
  1
-1
100
AcDbAttribute
  2
CONED
 70
           1
  0
ATTRIB
  5
84
100
AcDbEntity
  8
ASHADE
  6
CONTINUOUS
 62
           7
100
AcDbText
 10
445.5000000001
 20
315.0000000001
 30
60.40000000002
 40
0.01
  1
-1
100
AcDbAttribute
  2
BEAMD
 70
           1
  0
SEQEND
  5
85
100
AcDbEntity
  8
0
  0
INSERT
  5
86
100
AcDbEntity
  8
0
 60
           1
100
AcDbBlockReference
 66
           1
  2
OVERHEAD
 10
0.0
 20
0.0
 30
0.0
1001
AVE_RENDER
1002
{
1070
           0
1000
LIGHT_4
1011
1.0
1021
0.0
1031
0.0
1041
1.0
1010
0.501960784314
1020
0.501960784314
1030
0.501960784314
1002
{
1070
           1
1070
           0
1040
0.0
1040
0.0
1040
3.0
1002
}
1002
{
1070
           9
1070
          21
1070
          15
1070
           0
1040
37.62
1040
122.37
1002
}
1002
}
1001
TCAD
1000
TCW_LIGTH
1002
{
1070
           1
1002
}
  0
ATTRIB
  5
87
100
AcDbEntity
  8
ASHADE
  6
CONTINUOUS
 62
           1
100
AcDbText
 10
0.0
 20
0.0
 30
0.0
 40
0.2
  1
LIGHT_4
  7
ASHADE
 72
           1
 11
0.0
 21
-0.1
 31
0.0
100
AcDbAttribute
  2
SNAME
 70
           0
  0
ATTRIB
  5
88
100
AcDbEntity
  8
ASHADE
  6
CONTINUOUS
 62
           7
100
AcDbText
 10
0.0
 20
0.0
 30
0.0
 40
0.01
  1

100
AcDbAttribute
  2
GNAME
 70
           1
  0
ATTRIB
  5
89
100
AcDbEntity
  8
ASHADE
  6
CONTINUOUS
 62
           7
100
AcDbText
 10
0.0
 20
0.0
 30
0.0
 40
0.01
  1

100
AcDbAttribute
  2
LAX
 70
           1
  0
ATTRIB
  5
8A
100
AcDbEntity
  8
ASHADE
  6
CONTINUOUS
 62
           7
100
AcDbText
 10
0.0
 20
0.0
 30
0.0
 40
0.01
  1

100
AcDbAttribute
  2
LAY
 70
           1
  0
ATTRIB
  5
8B
100
AcDbEntity
  8
ASHADE
  6
CONTINUOUS
 62
           7
100
AcDbText
 10
0.0
 20
0.0
 30
0.0
 40
0.01
  1

100
AcDbAttribute
  2
LAZ
 70
           1
  0
ATTRIB
  5
8C
100
AcDbEntity
  8
ASHADE
  6
CONTINUOUS
 62
           7
100
AcDbText
 10
0.0
 20
0.0
 30
0.0
 40
0.01
  1
1
100
AcDbAttribute
  2
INTENSITY
 70
           1
  0
ATTRIB
  5
8D
100
AcDbEntity
  8
ASHADE
  6
CONTINUOUS
 62
           7
100
AcDbText
 10
0.0
 20
0.0
 30
0.0
 40
0.01
  1
1,1,1
100
AcDbAttribute
  2
COLOR
 70
           1
  0
ATTRIB
  5
8E
100
AcDbEntity
  8
ASHADE
  6
CONTINUOUS
 62
           7
100
AcDbText
 10
0.0
 20
0.0
 30
0.0
 40
0.01
  1
0
100
AcDbAttribute
  2
CONEA
 70
           1
  0
ATTRIB
  5
8F
100
AcDbEntity
  8
ASHADE
  6
CONTINUOUS
 62
           7
100
AcDbText
 10
0.0
 20
0.0
 30
0.0
 40
0.01
  1
-1
100
AcDbAttribute
  2
CONED
 70
           1
  0
ATTRIB
  5
90
100
AcDbEntity
  8
ASHADE
  6
CONTINUOUS
 62
           7
100
AcDbText
 10
0.0
 20
0.0
 30
0.0
 40
0.01
  1
-1
100
AcDbAttribute
  2
BEAMD
 70
           1
  0
SEQEND
  5
91
100
AcDbEntity
  8
0
  0
INSERT
  5
92
100
AcDbEntity
  8
0
 60
           1
100
AcDbBlockReference
 66
           1
  2
OVERHEAD
 10
0.0
 20
0.0
 30
0.0
1001
AVE_RENDER
1002
{
1070
           0
1000
LIGHT_5
1011
1.0
1021
0.0
1031
0.0
1041
1.0
1010
0.250980392157
1020
0.250980392157
1030
0.250980392157
1002
{
1070
           1
1070
           0
1040
0.0
1040
0.0
1040
3.0
1002
}
1002
{
1070
           9
1070
          21
1070
          15
1070
           0
1040
37.62
1040
122.37
1002
}
1002
}
1001
TCAD
1000
TCW_LIGTH
1002
{
1070
           1
1002
}
  0
ATTRIB
  5
93
100
AcDbEntity
  8
ASHADE
  6
CONTINUOUS
 62
           1
100
AcDbText
 10
0.0
 20
0.0
 30
0.0
 40
0.2
  1
LIGHT_5
  7
ASHADE
 72
           1
 11
0.0
 21
-0.1
 31
0.0
100
AcDbAttribute
  2
SNAME
 70
           0
  0
ATTRIB
  5
94
100
AcDbEntity
  8
ASHADE
  6
CONTINUOUS
 62
           7
100
AcDbText
 10
0.0
 20
0.0
 30
0.0
 40
0.01
  1

100
AcDbAttribute
  2
GNAME
 70
           1
  0
ATTRIB
  5
95
100
AcDbEntity
  8
ASHADE
  6
CONTINUOUS
 62
           7
100
AcDbText
 10
0.0
 20
0.0
 30
0.0
 40
0.01
  1

100
AcDbAttribute
  2
LAX
 70
           1
  0
ATTRIB
  5
96
100
AcDbEntity
  8
ASHADE
  6
CONTINUOUS
 62
           7
100
AcDbText
 10
0.0
 20
0.0
 30
0.0
 40
0.01
  1

100
AcDbAttribute
  2
LAY
 70
           1
  0
ATTRIB
  5
97
100
AcDbEntity
  8
ASHADE
  6
CONTINUOUS
 62
           7
100
AcDbText
 10
0.0
 20
0.0
 30
0.0
 40
0.01
  1

100
AcDbAttribute
  2
LAZ
 70
           1
  0
ATTRIB
  5
98
100
AcDbEntity
  8
ASHADE
  6
CONTINUOUS
 62
           7
100
AcDbText
 10
0.0
 20
0.0
 30
0.0
 40
0.01
  1
1
100
AcDbAttribute
  2
INTENSITY
 70
           1
  0
ATTRIB
  5
99
100
AcDbEntity
  8
ASHADE
  6
CONTINUOUS
 62
           7
100
AcDbText
 10
0.0
 20
0.0
 30
0.0
 40
0.01
  1
1,1,1
100
AcDbAttribute
  2
COLOR
 70
           1
  0
ATTRIB
  5
9A
100
AcDbEntity
  8
ASHADE
  6
CONTINUOUS
 62
           7
100
AcDbText
 10
0.0
 20
0.0
 30
0.0
 40
0.01
  1
0
100
AcDbAttribute
  2
CONEA
 70
           1
  0
ATTRIB
  5
9B
100
AcDbEntity
  8
ASHADE
  6
CONTINUOUS
 62
           7
100
AcDbText
 10
0.0
 20
0.0
 30
0.0
 40
0.01
  1
-1
100
AcDbAttribute
  2
CONED
 70
           1
  0
ATTRIB
  5
9C
100
AcDbEntity
  8
ASHADE
  6
CONTINUOUS
 62
           7
100
AcDbText
 10
0.0
 20
0.0
 30
0.0
 40
0.01
  1
-1
100
AcDbAttribute
  2
BEAMD
 70
           1
  0
SEQEND
  5
9D
100
AcDbEntity
  8
0
  0
INSERT
  5
B2
100
AcDbEntity
  8
0
 60
           1
100
AcDbBlockReference
 66
           1
  2
DIRECT
 10
2672.995510301094
 20
1049.990741196255
 30
-6.666732169696
 41
1.0
 42
1.0
 50
-54.737090337951
210
-0.0022447367725073
220
-0.0015871876169245
230
0.999996220989005
1001
AVE_RENDER
1002
{
1070
           0
1000
LIGHT_6
1011
2970.0000000009
1021
1260.0000000005
1031
2.0
1041
1.0
1010
0.501960784314
1020
0.501960784314
1030
0.501960784314
1002
{
1070
           1
1070
           0
1040
0.0
1040
0.0
1040
3.0
1002
}
1002
{
1070
           9
1070
          21
1070
          15
1070
           0
1040
37.62
1040
122.37
1002
}
1002
}
1001
TCAD
1000
TCW_LIGTH
1002
{
1070
           0
1002
}
  0
ATTRIB
  5
B3
100
AcDbEntity
  8
ASHADE
  6
CONTINUOUS
 62
           1
100
AcDbText
 10
2672.995510301094
 20
1049.990741196255
 30
-6.666732169696
 40
0.2
  1
LIGHT_6
 50
-54.737090337951
  7
ASHADE
 72
           1
 11
2672.913859151661
 21
1049.933008278466
 31
-6.666732169696
210
-0.0022447367725073
220
-0.0015871876169245
230
0.999996220989005
100
AcDbAttribute
  2
SNAME
 70
           0
  0
ATTRIB
  5
B4
100
AcDbEntity
  8
ASHADE
  6
CONTINUOUS
 62
           7
100
AcDbText
 10
2672.995510301094
 20
1049.990741196255
 30
-6.666732169696
 40
0.01
  1

 50
-54.737090337951
210
-0.0022447367725073
220
-0.0015871876169245
230
0.999996220989005
100
AcDbAttribute
  2
GNAME
 70
           1
  0
ATTRIB
  5
B5
100
AcDbEntity
  8
ASHADE
  6
CONTINUOUS
 62
           7
100
AcDbText
 10
2672.995510301094
 20
1049.990741196255
 30
-6.666732169696
 40
0.01
  1

 50
-54.737090337951
210
-0.0022447367725073
220
-0.0015871876169245
230
0.999996220989005
100
AcDbAttribute
  2
LAX
 70
           1
  0
ATTRIB
  5
B6
100
AcDbEntity
  8
ASHADE
  6
CONTINUOUS
 62
           7
100
AcDbText
 10
2672.995510301094
 20
1049.990741196255
 30
-6.666732169696
 40
0.01
  1

 50
-54.737090337951
210
-0.0022447367725073
220
-0.0015871876169245
230
0.999996220989005
100
AcDbAttribute
  2
LAY
 70
           1
  0
ATTRIB
  5
B7
100
AcDbEntity
  8
ASHADE
  6
CONTINUOUS
 62
           7
100
AcDbText
 10
2672.995510301094
 20
1049.990741196255
 30
-6.666732169696
 40
0.01
  1

 50
-54.737090337951
210
-0.0022447367725073
220
-0.0015871876169245
230
0.999996220989005
100
AcDbAttribute
  2
LAZ
 70
           1
  0
ATTRIB
  5
B8
100
AcDbEntity
  8
ASHADE
  6
CONTINUOUS
 62
           7
100
AcDbText
 10
2672.995510301094
 20
1049.990741196255
 30
-6.666732169696
 40
0.01
  1
1
 50
-54.737090337951
210
-0.0022447367725073
220
-0.0015871876169245
230
0.999996220989005
100
AcDbAttribute
  2
INTENSITY
 70
           1
  0
ATTRIB
  5
B9
100
AcDbEntity
  8
ASHADE
  6
CONTINUOUS
 62
           7
100
AcDbText
 10
2672.995510301094
 20
1049.990741196255
 30
-6.666732169696
 40
0.01
  1
1,1,1
 50
-54.737090337951
210
-0.0022447367725073
220
-0.0015871876169245
230
0.999996220989005
100
AcDbAttribute
  2
COLOR
 70
           1
  0
ATTRIB
  5
BA
100
AcDbEntity
  8
ASHADE
  6
CONTINUOUS
 62
           7
100
AcDbText
 10
2672.995510301094
 20
1049.990741196255
 30
-6.666732169696
 40
0.01
  1
0
 50
-54.737090337951
210
-0.0022447367725073
220
-0.0015871876169245
230
0.999996220989005
100
AcDbAttribute
  2
CONEA
 70
           1
  0
ATTRIB
  5
BB
100
AcDbEntity
  8
ASHADE
  6
CONTINUOUS
 62
           7
100
AcDbText
 10
2672.995510301094
 20
1049.990741196255
 30
-6.666732169696
 40
0.01
  1
-1
 50
-54.737090337951
210
-0.0022447367725073
220
-0.0015871876169245
230
0.999996220989005
100
AcDbAttribute
  2
CONED
 70
           1
  0
ATTRIB
  5
BC
100
AcDbEntity
  8
ASHADE
  6
CONTINUOUS
 62
           7
100
AcDbText
 10
2672.995510301094
 20
1049.990741196255
 30
-6.666732169696
 40
0.01
  1
-1
 50
-54.737090337951
210
-0.0022447367725073
220
-0.0015871876169245
230
0.999996220989005
100
AcDbAttribute
  2
BEAMD
 70
           1
  0
SEQEND
  5
BD
100
AcDbEntity
  8
0
  0
INSERT
  5
E6
100
AcDbEntity
  8
0
 60
           1
100
AcDbBlockReference
 66
           1
  2
SH_SPOT
 10
297.001496395093
 20
209.997883725903
 30
-0.999984884214
 41
1.0
 50
-54.737396535204
210
-0.0044894226486676
220
-0.0031743392465327
230
0.9999848842130713
1001
AVE_RENDER
1002
{
1070
           0
1000
LIGHT_7
1011
445.50000000005
1021
315.00000000005
1031
2.0
1041
1.0
1010
0.501960784314
1020
0.501960784314
1030
0.501960784314
1002
{
1070
           1
1070
           0
1040
0.0
1040
0.0
1040
3.0
1002
}
1002
{
1070
           9
1070
          21
1070
          15
1070
           0
1040
37.62
1040
122.37
1002
}
1002
}
1001
TCAD
1000
TCW_LIGTH
1002
{
1070
           0
1002
}
  0
ATTRIB
  5
E7
100
AcDbEntity
  8
ASHADE
  6
CONTINUOUS
 62
           1
100
AcDbText
 10
297.001496395093
 20
209.997883725903
 30
-0.999984884214
 40
0.2
  1
LIGHT_7
 50
-54.737396535204
  7
ASHADE
 72
           1
 11
296.919844937128
 21
209.940151244471
 31
-0.999984884214
210
-0.0044894226486676
220
-0.0031743392465327
230
0.9999848842130713
100
AcDbAttribute
  2
SNAME
 70
           0
  0
ATTRIB
  5
E8
100
AcDbEntity
  8
ASHADE
  6
CONTINUOUS
 62
           7
100
AcDbText
 10
297.001496395093
 20
209.997883725903
 30
-0.999984884214
 40
0.01
  1

 50
-54.737396535204
210
-0.0044894226486676
220
-0.0031743392465327
230
0.9999848842130713
100
AcDbAttribute
  2
GNAME
 70
           1
  0
ATTRIB
  5
E9
100
AcDbEntity
  8
ASHADE
  6
CONTINUOUS
 62
           7
100
AcDbText
 10
297.001496395093
 20
209.997883725903
 30
-0.999984884214
 40
0.01
  1

 50
-54.737396535204
210
-0.0044894226486676
220
-0.0031743392465327
230
0.9999848842130713
100
AcDbAttribute
  2
LAX
 70
           1
  0
ATTRIB
  5
EA
100
AcDbEntity
  8
ASHADE
  6
CONTINUOUS
 62
           7
100
AcDbText
 10
297.001496395093
 20
209.997883725903
 30
-0.999984884214
 40
0.01
  1

 50
-54.737396535204
210
-0.0044894226486676
220
-0.0031743392465327
230
0.9999848842130713
100
AcDbAttribute
  2
LAY
 70
           1
  0
ATTRIB
  5
EB
100
AcDbEntity
  8
ASHADE
  6
CONTINUOUS
 62
           7
100
AcDbText
 10
297.001496395093
 20
209.997883725903
 30
-0.999984884214
 40
0.01
  1

 50
-54.737396535204
210
-0.0044894226486676
220
-0.0031743392465327
230
0.9999848842130713
100
AcDbAttribute
  2
LAZ
 70
           1
  0
ATTRIB
  5
EC
100
AcDbEntity
  8
ASHADE
  6
CONTINUOUS
 62
           7
100
AcDbText
 10
297.001496395093
 20
209.997883725903
 30
-0.999984884214
 40
0.01
  1
1
 50
-54.737396535204
210
-0.0044894226486676
220
-0.0031743392465327
230
0.9999848842130713
100
AcDbAttribute
  2
INTENSITY
 70
           1
  0
ATTRIB
  5
ED
100
AcDbEntity
  8
ASHADE
  6
CONTINUOUS
 62
           7
100
AcDbText
 10
297.001496395093
 20
209.997883725903
 30
-0.999984884214
 40
0.01
  1
1,1,1
 50
-54.737396535204
210
-0.0044894226486676
220
-0.0031743392465327
230
0.9999848842130713
100
AcDbAttribute
  2
COLOR
 70
           1
  0
ATTRIB
  5
EE
100
AcDbEntity
  8
ASHADE
  6
CONTINUOUS
 62
           7
100
AcDbText
 10
297.001496395093
 20
209.997883725903
 30
-0.999984884214
 40
0.01
  1
0
 50
-54.737396535204
210
-0.0044894226486676
220
-0.0031743392465327
230
0.9999848842130713
100
AcDbAttribute
  2
ZSIZE
 70
           1
  0
ATTRIB
  5
EF
100
AcDbEntity
  8
ASHADE
  6
CONTINUOUS
 62
           7
100
AcDbText
 10
297.001496395093
 20
209.997883725903
 30
-0.999984884214
 40
0.01
  1
-1
 50
-54.737396535204
210
-0.0044894226486676
220
-0.0031743392465327
230
0.9999848842130713
100
AcDbAttribute
  2
BIASMIN
 70
           1
  0
ATTRIB
  5
F0
100
AcDbEntity
  8
ASHADE
  6
CONTINUOUS
 62
           7
100
AcDbText
 10
297.001496395093
 20
209.997883725903
 30
-0.999984884214
 40
0.01
  1
-1
 50
-54.737396535204
210
-0.0044894226486676
220
-0.0031743392465327
230
0.9999848842130713
100
AcDbAttribute
  2
BIASMAX
 70
           1
  0
ATTRIB
  5
F1
100
AcDbEntity
  8
ASHADE
  6
CONTINUOUS
 62
           7
100
AcDbText
 10
297.001496395093
 20
209.997883725903
 30
-0.999984884214
 40
0.01
  1
10.0
 50
-54.737396535204
210
-0.0044894226486676
220
-0.0031743392465327
230
0.9999848842130713
100
AcDbAttribute
  2
CONEAN
 70
           1
  0
ATTRIB
  5
F2
100
AcDbEntity
  8
ASHADE
  6
CONTINUOUS
 62
           7
100
AcDbText
 10
297.001496395093
 20
209.997883725903
 30
-0.999984884214
 40
0.01
  1
0.0
 50
-54.737396535204
210
-0.0044894226486676
220
-0.0031743392465327
230
0.9999848842130713
100
AcDbAttribute
  2
CONEDE
 70
           1
  0
ATTRIB
  5
F3
100
AcDbEntity
  8
ASHADE
  6
CONTINUOUS
 62
           7
100
AcDbText
 10
297.001496395093
 20
209.997883725903
 30
-0.999984884214
 40
0.01
  1
0.0
 50
-54.737396535204
210
-0.0044894226486676
220
-0.0031743392465327
230
0.9999848842130713
100
AcDbAttribute
  2
BEAMDI
 70
           1
  0
ATTRIB
  5
F4
100
AcDbEntity
  8
ASHADE
  6
CONTINUOUS
 62
           7
100
AcDbText
 10
297.001496395093
 20
209.997883725903
 30
-0.999984884214
 40
0.01
  1
0,0,0
 50
-54.737396535204
210
-0.0044894226486676
220
-0.0031743392465327
230
0.9999848842130713
100
AcDbAttribute
  2
LFXYZ
 70
           1
  0
SEQEND
  5
F5
100
AcDbEntity
  8
0
  0
LWPOLYLINE
  5
F6
100
AcDbEntity
  8
0
  6
DURCHGEHEND
 62
           7
100
AcDbPolyline
 90
        4
 70
         129
 10
0.0
 20
0.0
 10
100.0
 20
0.0
 10
100.0
 20
50.0
 10
0.0
 20
50.0
1001
TCAD
1000
TCW_CUSTOM_DATA
1002
{
1000
#$AUX@_ToolInfo Properties
1070
           8
1000
CMD_RECTANGLE@
1002
}
  0
CIRCLE
  5
F7
100
AcDbEntity
  8
0
  6
DURCHGEHEND
 62
           7
100
AcDbCircle
 10
25.0
 20
25.0
 30
0.0
 40
10.0
1001
TCAD
1000
TCW_CUSTOM_DATA
1002
{
1000
#$AUX@_ToolInfo Properties
1070
           8
1000
CMD_CENTERPTCIRCLE@
1002
}
  0
CIRCLE
  5
F8
100
AcDbEntity
  8
0
  6
DURCHGEHEND
 62
           7
100
AcDbCircle
 10
65.0
 20
25.0
 30
0.0
 40
20.0
1001
TCAD
1000
TCW_CUSTOM_DATA
1002
{
1000
#$AUX@_ToolInfo Properties
1070
           8
1000
CMD_CENTERPTCIRCLE@
1002
}
  0
ENDSEC
  0
SECTION
  2
OBJECTS
  0
DICTIONARY
  5
19
100
AcDbDictionary
  3
ACAD_GROUP
350
1A
  3
ACAD_MLINESTYLE
350
1B
  0
DICTIONARY
  5
1A
102
{ACAD_REACTORS
330
19
102
}
100
AcDbDictionary
  0
DICTIONARY
  5
1B
102
{ACAD_REACTORS
330
19
102
}
100
AcDbDictionary
  3
STANDARD
350
1C
  0
MLINESTYLE
  5
1C
100
AcDbMlineStyle
  2
STANDARD
 70
           0
  3

 62
         256
 51
90.0
 52
90.0
 71
           3
 49
5.0
 62
           7
  6
BYLAYER
 49
0.0
 62
           7
  6
BYLAYER
 49
-5.0
 62
           7
  6
BYLAYER
  0
ENDSEC
  0
EOF
